<svg width="1002" height="609" viewBox="0 0 1002 609" fill="none" xmlns="http://www.w3.org/2000/svg">
<path d="M760.197 84.2147V106.977H158.363V84.1985C158.363 63.0035 175.562 45.8149 196.753 45.8149H721.774C742.998 45.8149 760.197 63.0197 760.197 84.2147Z" fill="#00D384" stroke="black" stroke-width="3" stroke-miterlimit="10" stroke-linecap="round" stroke-linejoin="round"/>
<path d="M760.212 84.2146V454.093C760.212 474.286 743.822 490.651 723.616 490.651H194.943C174.737 490.651 158.363 474.286 158.363 454.093V84.2146C158.363 63.0197 175.562 45.8311 196.769 45.8311H721.79C743.014 45.8149 760.212 63.0035 760.212 84.2146Z" stroke="black" stroke-width="3" stroke-miterlimit="10"/>
<path d="M785.17 109.012V478.89C785.17 499.084 768.796 515.465 748.574 515.465H219.917C203.316 515.465 189.285 504.399 184.824 489.246C188.04 490.166 191.435 490.667 194.943 490.667H723.616C743.822 490.667 760.212 474.302 760.212 454.093V84.2149C760.212 80.0954 759.566 76.1214 758.353 72.3896C773.887 77.3007 785.17 91.8399 785.17 109.012Z" fill="black" stroke="black" stroke-width="3" stroke-miterlimit="10"/>
<path d="M258.663 86.4924C264.162 86.4924 268.62 82.0371 268.62 76.5411C268.62 71.0452 264.162 66.5898 258.663 66.5898C253.164 66.5898 248.706 71.0452 248.706 76.5411C248.706 82.0371 253.164 86.4924 258.663 86.4924Z" stroke="black" stroke-width="3" stroke-miterlimit="10"/>
<path d="M296.261 86.4924C301.761 86.4924 306.219 82.0371 306.219 76.5411C306.219 71.0452 301.761 66.5898 296.261 66.5898C290.762 66.5898 286.304 71.0452 286.304 76.5411C286.304 82.0371 290.762 86.4924 296.261 86.4924Z" stroke="black" stroke-width="3" stroke-miterlimit="10"/>
<path d="M220.305 86.4924C225.804 86.4924 230.262 82.0371 230.262 76.5411C230.262 71.0452 225.804 66.5898 220.305 66.5898C214.806 66.5898 210.348 71.0452 210.348 76.5411C210.348 82.0371 214.806 86.4924 220.305 86.4924Z" stroke="black" stroke-width="3" stroke-miterlimit="10"/>
<path d="M760.212 106.977H158.363" stroke="black" stroke-width="3" stroke-miterlimit="10"/>
<path d="M755.266 472.202L756.252 473.995L758.063 474.997L756.252 475.982L755.266 477.776L754.28 475.982L752.47 474.997L754.28 473.995L755.266 472.202Z" fill="black"/>
<path d="M650.165 88.8832H371.135C364.33 88.8832 358.769 83.326 358.769 76.5248C358.769 69.7237 364.33 64.1665 371.135 64.1665H650.165C656.97 64.1665 662.531 69.7237 662.531 76.5248C662.531 83.326 656.97 88.8832 650.165 88.8832Z" fill="white" stroke="black" stroke-width="3" stroke-miterlimit="10" stroke-linecap="round" stroke-linejoin="round"/>
<path d="M884.889 110.886H931.653C949.385 110.886 963.901 125.393 963.901 143.114C963.901 160.836 949.385 175.343 931.653 175.343H770.105" stroke="black" stroke-width="3" stroke-miterlimit="10"/>
<path d="M916.539 110.886H887.782C865.265 110.886 846.854 92.4697 846.854 69.9823C846.854 47.4788 865.281 29.0786 887.782 29.0786H954.655" stroke="black" stroke-width="3" stroke-miterlimit="10" stroke-linecap="round" stroke-linejoin="round"/>
<path d="M986.175 37.0751C979.37 30.6455 968.653 30.9363 962.203 37.7213C955.754 44.5063 956.061 55.233 962.85 61.6787C969.655 68.1083 999.559 73.1001 999.559 73.1001C999.559 73.1001 992.98 43.5047 986.175 37.0751Z" fill="#00D384" stroke="black" stroke-width="3" stroke-miterlimit="10" stroke-linecap="round" stroke-linejoin="round"/>
<path d="M972.807 49.1587C972.807 49.1587 971.643 42.9876 962.219 37.7212" stroke="black" stroke-width="3" stroke-miterlimit="10" stroke-linecap="round" stroke-linejoin="round"/>
<path d="M963.238 37.9958C963.011 37.7858 962.785 37.5596 962.575 37.3658C959.229 34.151 956.643 31.2109 954.654 28.5776" stroke="black" stroke-width="3" stroke-miterlimit="10" stroke-linecap="round" stroke-linejoin="round"/>
<path d="M969.526 6.68814C964.693 10.2099 963.642 16.9948 967.166 21.8251C970.69 26.6554 977.479 27.7054 982.312 24.1837C987.145 20.662 993.724 2.43945 993.724 2.43945C993.724 2.43945 974.359 3.15026 969.526 6.68814Z" fill="#00D384" stroke="black" stroke-width="3" stroke-miterlimit="10" stroke-linecap="round" stroke-linejoin="round"/>
<path d="M974.084 17.4312C974.084 17.4312 967.57 20.0967 967.15 21.8252" stroke="black" stroke-width="3" stroke-miterlimit="10" stroke-linecap="round" stroke-linejoin="round"/>
<path d="M967.619 20.856C967.36 21.0337 967.118 21.2275 966.875 21.4052C963.109 24.1192 961.024 25.4762 958.065 26.9463" stroke="black" stroke-width="3" stroke-miterlimit="10" stroke-linecap="round" stroke-linejoin="round"/>
<path d="M81.4527 335.695H34.6728C16.9405 335.695 2.4248 350.202 2.4248 367.923C2.4248 385.645 16.9405 400.152 34.6728 400.152H158.347" stroke="black" stroke-width="3" stroke-miterlimit="10" stroke-linecap="round" stroke-linejoin="round"/>
<path d="M92.0566 304.128C93.8509 313.32 87.8539 322.205 78.6563 323.999C69.4588 325.792 60.5683 319.798 58.7741 310.606C56.9798 301.414 68.8122 273.515 68.8122 273.515C68.8122 273.515 90.2785 294.936 92.0566 304.128Z" fill="#00D384" stroke="black" stroke-width="3" stroke-miterlimit="10" stroke-linecap="round" stroke-linejoin="round"/>
<path d="M74.6797 308.926C74.6797 308.926 79.2542 313.207 78.6723 323.999" stroke="black" stroke-width="3" stroke-miterlimit="10" stroke-linecap="round" stroke-linejoin="round"/>
<path d="M78.9795 322.981C79.0441 323.288 79.0926 323.595 79.1573 323.886C80.0787 328.441 81.1779 332.205 82.3417 335.275" stroke="black" stroke-width="3" stroke-miterlimit="10" stroke-linecap="round" stroke-linejoin="round"/>
<path d="M108.787 334.467C103.21 336.648 96.9221 333.901 94.7399 328.344C92.5577 322.771 95.3057 316.487 100.866 314.306C106.427 312.125 125.355 316.341 125.355 316.341C125.355 316.341 114.364 332.286 108.787 334.467Z" fill="#00D384" stroke="black" stroke-width="3" stroke-miterlimit="10" stroke-linecap="round" stroke-linejoin="round"/>
<path d="M102.175 324.855C102.175 324.855 96.437 328.91 94.7559 328.344" stroke="black" stroke-width="3" stroke-miterlimit="10" stroke-linecap="round" stroke-linejoin="round"/>
<path d="M95.8067 328.474C95.5158 328.587 95.2248 328.7 94.95 328.813C90.6341 330.541 85.1706 333.595 82.3418 335.291" stroke="black" stroke-width="3" stroke-miterlimit="10" stroke-linecap="round" stroke-linejoin="round"/>
<path d="M886.764 387.325H714.839C707.113 387.325 700.857 393.577 700.857 401.299V592.619C700.857 600.341 707.113 606.593 714.839 606.593H886.764C894.491 606.593 900.746 600.341 900.746 592.619V401.299C900.746 393.577 894.491 387.325 886.764 387.325Z" fill="black" stroke="black" stroke-width="3" stroke-miterlimit="10"/>
<path d="M873.817 593.992H701.908C694.181 593.992 687.926 587.74 687.926 580.018V388.715C687.926 380.993 694.181 374.741 701.908 374.741H873.833C881.559 374.741 887.815 380.993 887.815 388.715V580.035C887.799 587.74 881.543 593.992 873.817 593.992Z" fill="white" stroke="black" stroke-width="3" stroke-miterlimit="10"/>
<path d="M868.66 414.82H707.064V573.508H868.66V414.82Z" fill="#9E6CFF" stroke="black" stroke-width="3" stroke-miterlimit="10" stroke-linecap="round" stroke-linejoin="round"/>
<path d="M807.219 564.785L808.641 562.184L811.227 560.778L808.641 559.357L807.219 556.756L805.796 559.357L803.194 560.778L805.796 562.184L807.219 564.785Z" fill="black"/>
<path d="M818.275 564.785L819.698 562.184L822.3 560.778L819.698 559.357L818.275 556.756L816.853 559.357L814.267 560.778L816.853 562.184L818.275 564.785Z" fill="black"/>
<path d="M829.509 564.785L830.932 562.184L833.534 560.778L830.932 559.357L829.509 556.756L828.103 559.357L825.5 560.778L828.103 562.184L829.509 564.785Z" fill="black"/>
<path d="M801.578 572.911L803 570.31L805.602 568.888L803 567.483L801.578 564.882L800.171 567.483L797.569 568.888L800.171 570.31L801.578 572.911Z" fill="black"/>
<path d="M812.65 572.911L814.073 570.31L816.659 568.888L814.073 567.483L812.65 564.882L811.228 567.483L808.642 568.888L811.228 570.31L812.65 572.911Z" fill="black"/>
<path d="M823.884 572.911L825.307 570.31L827.893 568.888L825.307 567.483L823.884 564.882L822.462 567.483L819.875 568.888L822.462 570.31L823.884 572.911Z" fill="black"/>
<path d="M807.219 498.566L808.641 495.966L811.227 494.544L808.641 493.139L807.219 490.538L805.796 493.139L803.194 494.544L805.796 495.966L807.219 498.566Z" fill="black"/>
<path d="M818.275 498.566L819.698 495.966L822.3 494.544L819.698 493.139L818.275 490.538L816.853 493.139L814.267 494.544L816.853 495.966L818.275 498.566Z" fill="black"/>
<path d="M829.509 498.566L830.932 495.966L833.534 494.544L830.932 493.139L829.509 490.538L828.103 493.139L825.5 494.544L828.103 495.966L829.509 498.566Z" fill="black"/>
<path d="M801.578 506.692L803 504.092L805.602 502.67L803 501.248L801.578 498.664L800.171 501.248L797.569 502.67L800.171 504.092L801.578 506.692Z" fill="black"/>
<path d="M812.65 506.692L814.073 504.092L816.659 502.67L814.073 501.248L812.65 498.664L811.228 501.248L808.642 502.67L811.228 504.092L812.65 506.692Z" fill="black"/>
<path d="M823.884 506.692L825.307 504.092L827.893 502.67L825.307 501.248L823.884 498.664L822.462 501.248L819.875 502.67L822.462 504.092L823.884 506.692Z" fill="black"/>
<path d="M807.219 514.802L808.641 512.217L811.227 510.795L808.641 509.374L807.219 506.773L805.796 509.374L803.194 510.795L805.796 512.217L807.219 514.802Z" fill="black"/>
<path d="M818.275 514.802L819.698 512.217L822.3 510.795L819.698 509.374L818.275 506.773L816.853 509.374L814.267 510.795L816.853 512.217L818.275 514.802Z" fill="black"/>
<path d="M829.509 514.802L830.932 512.217L833.534 510.795L830.932 509.374L829.509 506.773L828.103 509.374L825.5 510.795L828.103 512.217L829.509 514.802Z" fill="black"/>
<path d="M801.578 522.928L803 520.327L805.602 518.921L803 517.5L801.578 514.899L800.171 517.5L797.569 518.921L800.171 520.327L801.578 522.928Z" fill="black"/>
<path d="M812.65 522.928L814.073 520.327L816.659 518.921L814.073 517.5L812.65 514.899L811.228 517.5L808.642 518.921L811.228 520.327L812.65 522.928Z" fill="black"/>
<path d="M823.884 522.928L825.307 520.327L827.893 518.921L825.307 517.5L823.884 514.899L822.462 517.5L819.875 518.921L822.462 520.327L823.884 522.928Z" fill="black"/>
<path d="M807.219 531.393L808.641 528.792L811.227 527.386L808.641 525.965L807.219 523.364L805.796 525.965L803.194 527.386L805.796 528.792L807.219 531.393Z" fill="black"/>
<path d="M818.275 531.393L819.698 528.792L822.3 527.386L819.698 525.965L818.275 523.364L816.853 525.965L814.267 527.386L816.853 528.792L818.275 531.393Z" fill="black"/>
<path d="M829.509 531.393L830.932 528.792L833.534 527.386L830.932 525.965L829.509 523.364L828.103 525.965L825.5 527.386L828.103 528.792L829.509 531.393Z" fill="black"/>
<path d="M801.578 539.519L803 536.918L805.602 535.496L803 534.091L801.578 531.49L800.171 534.091L797.569 535.496L800.171 536.918L801.578 539.519Z" fill="black"/>
<path d="M812.65 539.519L814.073 536.918L816.659 535.496L814.073 534.091L812.65 531.49L811.228 534.091L808.642 535.496L811.228 536.918L812.65 539.519Z" fill="black"/>
<path d="M823.884 539.519L825.307 536.918L827.893 535.496L825.307 534.091L823.884 531.49L822.462 534.091L819.875 535.496L822.462 536.918L823.884 539.519Z" fill="black"/>
<path d="M807.219 547.628L808.641 545.044L811.227 543.622L808.641 542.2L807.219 539.616L805.796 542.2L803.194 543.622L805.796 545.044L807.219 547.628Z" fill="black"/>
<path d="M818.275 547.628L819.698 545.044L822.3 543.622L819.698 542.2L818.275 539.616L816.853 542.2L814.267 543.622L816.853 545.044L818.275 547.628Z" fill="black"/>
<path d="M829.509 547.628L830.932 545.044L833.534 543.622L830.932 542.2L829.509 539.616L828.103 542.2L825.5 543.622L828.103 545.044L829.509 547.628Z" fill="black"/>
<path d="M801.578 555.754L803 553.169L805.602 551.748L803 550.326L801.578 547.725L800.171 550.326L797.569 551.748L800.171 553.169L801.578 555.754Z" fill="black"/>
<path d="M812.65 555.754L814.073 553.169L816.659 551.748L814.073 550.326L812.65 547.725L811.228 550.326L808.642 551.748L811.228 553.169L812.65 555.754Z" fill="black"/>
<path d="M823.884 555.754L825.307 553.169L827.893 551.748L825.307 550.326L823.884 547.725L822.462 550.326L819.875 551.748L822.462 553.169L823.884 555.754Z" fill="black"/>
<path d="M807.219 432.59L808.641 430.006L811.227 428.584L808.641 427.162L807.219 424.562L805.796 427.162L803.194 428.584L805.796 430.006L807.219 432.59Z" fill="black"/>
<path d="M818.275 432.59L819.698 430.006L822.3 428.584L819.698 427.162L818.275 424.562L816.853 427.162L814.267 428.584L816.853 430.006L818.275 432.59Z" fill="black"/>
<path d="M829.509 432.59L830.932 430.006L833.534 428.584L830.932 427.162L829.509 424.562L828.103 427.162L825.5 428.584L828.103 430.006L829.509 432.59Z" fill="black"/>
<path d="M801.578 440.716L803 438.115L805.602 436.71L803 435.288L801.578 432.688L800.171 435.288L797.569 436.71L800.171 438.115L801.578 440.716Z" fill="black"/>
<path d="M812.65 440.716L814.073 438.115L816.659 436.71L814.073 435.288L812.65 432.688L811.228 435.288L808.642 436.71L811.228 438.115L812.65 440.716Z" fill="black"/>
<path d="M823.884 440.716L825.307 438.115L827.893 436.71L825.307 435.288L823.884 432.688L822.462 435.288L819.875 436.71L822.462 438.115L823.884 440.716Z" fill="black"/>
<path d="M807.219 448.826L808.641 446.241L811.227 444.82L808.641 443.398L807.219 440.813L805.796 443.398L803.194 444.82L805.796 446.241L807.219 448.826Z" fill="black"/>
<path d="M818.275 448.826L819.698 446.241L822.3 444.82L819.698 443.398L818.275 440.813L816.853 443.398L814.267 444.82L816.853 446.241L818.275 448.826Z" fill="black"/>
<path d="M829.509 448.826L830.932 446.241L833.534 444.82L830.932 443.398L829.509 440.813L828.103 443.398L825.5 444.82L828.103 446.241L829.509 448.826Z" fill="black"/>
<path d="M801.578 456.952L803 454.367L805.602 452.945L803 451.524L801.578 448.939L800.171 451.524L797.569 452.945L800.171 454.367L801.578 456.952Z" fill="black"/>
<path d="M812.65 456.952L814.073 454.367L816.659 452.945L814.073 451.524L812.65 448.939L811.228 451.524L808.642 452.945L811.228 454.367L812.65 456.952Z" fill="black"/>
<path d="M823.884 456.952L825.307 454.367L827.893 452.945L825.307 451.524L823.884 448.939L822.462 451.524L819.875 452.945L822.462 454.367L823.884 456.952Z" fill="black"/>
<path d="M807.219 465.417L808.641 462.832L811.227 461.411L808.641 459.989L807.219 457.404L805.796 459.989L803.194 461.411L805.796 462.832L807.219 465.417Z" fill="black"/>
<path d="M818.275 465.417L819.698 462.832L822.3 461.411L819.698 459.989L818.275 457.404L816.853 459.989L814.267 461.411L816.853 462.832L818.275 465.417Z" fill="black"/>
<path d="M829.509 465.417L830.932 462.832L833.534 461.411L830.932 459.989L829.509 457.404L828.103 459.989L825.5 461.411L828.103 462.832L829.509 465.417Z" fill="black"/>
<path d="M801.578 473.543L803 470.958L805.602 469.536L803 468.115L801.578 465.514L800.171 468.115L797.569 469.536L800.171 470.958L801.578 473.543Z" fill="black"/>
<path d="M812.65 473.543L814.073 470.958L816.659 469.536L814.073 468.115L812.65 465.514L811.228 468.115L808.642 469.536L811.228 470.958L812.65 473.543Z" fill="black"/>
<path d="M823.884 473.543L825.307 470.958L827.893 469.536L825.307 468.115L823.884 465.514L822.462 468.115L819.875 469.536L822.462 470.958L823.884 473.543Z" fill="black"/>
<path d="M807.219 481.669L808.641 479.068L811.227 477.646L808.641 476.241L807.219 473.64L805.796 476.241L803.194 477.646L805.796 479.068L807.219 481.669Z" fill="black"/>
<path d="M818.275 481.669L819.698 479.068L822.3 477.646L819.698 476.241L818.275 473.64L816.853 476.241L814.267 477.646L816.853 479.068L818.275 481.669Z" fill="black"/>
<path d="M829.509 481.669L830.932 479.068L833.534 477.646L830.932 476.241L829.509 473.64L828.103 476.241L825.5 477.646L828.103 479.068L829.509 481.669Z" fill="black"/>
<path d="M801.578 489.795L803 487.194L805.602 485.772L803 484.35L801.578 481.766L800.171 484.35L797.569 485.772L800.171 487.194L801.578 489.795Z" fill="black"/>
<path d="M812.65 489.795L814.073 487.194L816.659 485.772L814.073 484.35L812.65 481.766L811.228 484.35L808.642 485.772L811.228 487.194L812.65 489.795Z" fill="black"/>
<path d="M823.884 489.795L825.307 487.194L827.893 485.772L825.307 484.35L823.884 481.766L822.462 484.35L819.875 485.772L822.462 487.194L823.884 489.795Z" fill="black"/>
<path d="M801.578 423.56L803 420.975L805.602 419.554L803 418.132L801.578 415.547L800.171 418.132L797.569 419.554L800.171 420.975L801.578 423.56Z" fill="black"/>
<path d="M812.65 423.56L814.073 420.975L816.659 419.554L814.073 418.132L812.65 415.547L811.228 418.132L808.642 419.554L811.228 420.975L812.65 423.56Z" fill="black"/>
<path d="M823.884 423.56L825.307 420.975L827.893 419.554L825.307 418.132L823.884 415.547L822.462 418.132L819.875 419.554L822.462 420.975L823.884 423.56Z" fill="black"/>
<path d="M842.36 564.785L843.767 562.184L846.369 560.778L843.767 559.357L842.36 556.756L840.938 559.357L838.335 560.778L840.938 562.184L842.36 564.785Z" fill="black"/>
<path d="M853.417 564.785L854.84 562.184L857.442 560.778L854.84 559.357L853.417 556.756L851.995 559.357L849.408 560.778L851.995 562.184L853.417 564.785Z" fill="black"/>
<path d="M864.651 564.785L866.073 562.184L868.676 560.778L866.073 559.357L864.651 556.756L863.245 559.357L860.642 560.778L863.245 562.184L864.651 564.785Z" fill="black"/>
<path d="M836.719 572.911L838.142 570.31L840.744 568.888L838.142 567.483L836.719 564.882L835.313 567.483L832.71 568.888L835.313 570.31L836.719 572.911Z" fill="black"/>
<path d="M847.791 572.911L849.214 570.31L851.8 568.888L849.214 567.483L847.791 564.882L846.369 567.483L843.767 568.888L846.369 570.31L847.791 572.911Z" fill="black"/>
<path d="M859.026 572.911L860.448 570.31L863.035 568.888L860.448 567.483L859.026 564.882L857.603 567.483L855.017 568.888L857.603 570.31L859.026 572.911Z" fill="black"/>
<path d="M842.36 498.566L843.767 495.966L846.369 494.544L843.767 493.139L842.36 490.538L840.938 493.139L838.335 494.544L840.938 495.966L842.36 498.566Z" fill="black"/>
<path d="M853.417 498.566L854.84 495.966L857.442 494.544L854.84 493.139L853.417 490.538L851.995 493.139L849.408 494.544L851.995 495.966L853.417 498.566Z" fill="black"/>
<path d="M864.651 498.566L866.073 495.966L868.676 494.544L866.073 493.139L864.651 490.538L863.245 493.139L860.642 494.544L863.245 495.966L864.651 498.566Z" fill="black"/>
<path d="M836.719 506.692L838.142 504.092L840.744 502.67L838.142 501.248L836.719 498.664L835.313 501.248L832.71 502.67L835.313 504.092L836.719 506.692Z" fill="black"/>
<path d="M847.791 506.692L849.214 504.092L851.8 502.67L849.214 501.248L847.791 498.664L846.369 501.248L843.767 502.67L846.369 504.092L847.791 506.692Z" fill="black"/>
<path d="M859.026 506.692L860.448 504.092L863.035 502.67L860.448 501.248L859.026 498.664L857.603 501.248L855.017 502.67L857.603 504.092L859.026 506.692Z" fill="black"/>
<path d="M842.36 514.802L843.767 512.217L846.369 510.795L843.767 509.374L842.36 506.773L840.938 509.374L838.335 510.795L840.938 512.217L842.36 514.802Z" fill="black"/>
<path d="M853.417 514.802L854.84 512.217L857.442 510.795L854.84 509.374L853.417 506.773L851.995 509.374L849.408 510.795L851.995 512.217L853.417 514.802Z" fill="black"/>
<path d="M864.651 514.802L866.073 512.217L868.676 510.795L866.073 509.374L864.651 506.773L863.245 509.374L860.642 510.795L863.245 512.217L864.651 514.802Z" fill="black"/>
<path d="M836.719 522.928L838.142 520.327L840.744 518.921L838.142 517.5L836.719 514.899L835.313 517.5L832.71 518.921L835.313 520.327L836.719 522.928Z" fill="black"/>
<path d="M847.791 522.928L849.214 520.327L851.8 518.921L849.214 517.5L847.791 514.899L846.369 517.5L843.767 518.921L846.369 520.327L847.791 522.928Z" fill="black"/>
<path d="M859.026 522.928L860.448 520.327L863.035 518.921L860.448 517.5L859.026 514.899L857.603 517.5L855.017 518.921L857.603 520.327L859.026 522.928Z" fill="black"/>
<path d="M842.36 531.393L843.767 528.792L846.369 527.386L843.767 525.965L842.36 523.364L840.938 525.965L838.335 527.386L840.938 528.792L842.36 531.393Z" fill="black"/>
<path d="M853.417 531.393L854.84 528.792L857.442 527.386L854.84 525.965L853.417 523.364L851.995 525.965L849.408 527.386L851.995 528.792L853.417 531.393Z" fill="black"/>
<path d="M864.651 531.393L866.073 528.792L868.676 527.386L866.073 525.965L864.651 523.364L863.245 525.965L860.642 527.386L863.245 528.792L864.651 531.393Z" fill="black"/>
<path d="M836.719 539.519L838.142 536.918L840.744 535.496L838.142 534.091L836.719 531.49L835.313 534.091L832.71 535.496L835.313 536.918L836.719 539.519Z" fill="black"/>
<path d="M847.791 539.519L849.214 536.918L851.8 535.496L849.214 534.091L847.791 531.49L846.369 534.091L843.767 535.496L846.369 536.918L847.791 539.519Z" fill="black"/>
<path d="M859.026 539.519L860.448 536.918L863.035 535.496L860.448 534.091L859.026 531.49L857.603 534.091L855.017 535.496L857.603 536.918L859.026 539.519Z" fill="black"/>
<path d="M842.36 547.629L843.767 545.044L846.369 543.622L843.767 542.201L842.36 539.616L840.938 542.201L838.335 543.622L840.938 545.044L842.36 547.629Z" fill="black"/>
<path d="M853.417 547.629L854.84 545.044L857.442 543.622L854.84 542.201L853.417 539.616L851.995 542.201L849.408 543.622L851.995 545.044L853.417 547.629Z" fill="black"/>
<path d="M864.651 547.629L866.073 545.044L868.676 543.622L866.073 542.201L864.651 539.616L863.245 542.201L860.642 543.622L863.245 545.044L864.651 547.629Z" fill="black"/>
<path d="M836.719 555.754L838.142 553.169L840.744 551.748L838.142 550.326L836.719 547.725L835.313 550.326L832.71 551.748L835.313 553.169L836.719 555.754Z" fill="black"/>
<path d="M847.791 555.754L849.214 553.169L851.8 551.748L849.214 550.326L847.791 547.725L846.369 550.326L843.767 551.748L846.369 553.169L847.791 555.754Z" fill="black"/>
<path d="M859.026 555.754L860.448 553.169L863.035 551.748L860.448 550.326L859.026 547.725L857.603 550.326L855.017 551.748L857.603 553.169L859.026 555.754Z" fill="black"/>
<path d="M842.36 432.59L843.767 430.006L846.369 428.584L843.767 427.162L842.36 424.562L840.938 427.162L838.335 428.584L840.938 430.006L842.36 432.59Z" fill="black"/>
<path d="M853.417 432.59L854.84 430.006L857.442 428.584L854.84 427.162L853.417 424.562L851.995 427.162L849.408 428.584L851.995 430.006L853.417 432.59Z" fill="black"/>
<path d="M864.651 432.59L866.073 430.006L868.676 428.584L866.073 427.162L864.651 424.562L863.245 427.162L860.642 428.584L863.245 430.006L864.651 432.59Z" fill="black"/>
<path d="M836.719 440.716L838.142 438.115L840.744 436.71L838.142 435.288L836.719 432.688L835.313 435.288L832.71 436.71L835.313 438.115L836.719 440.716Z" fill="black"/>
<path d="M847.791 440.716L849.214 438.115L851.8 436.71L849.214 435.288L847.791 432.688L846.369 435.288L843.767 436.71L846.369 438.115L847.791 440.716Z" fill="black"/>
<path d="M859.026 440.716L860.448 438.115L863.035 436.71L860.448 435.288L859.026 432.688L857.603 435.288L855.017 436.71L857.603 438.115L859.026 440.716Z" fill="black"/>
<path d="M842.36 448.826L843.767 446.241L846.369 444.82L843.767 443.398L842.36 440.813L840.938 443.398L838.335 444.82L840.938 446.241L842.36 448.826Z" fill="black"/>
<path d="M853.417 448.826L854.84 446.241L857.442 444.82L854.84 443.398L853.417 440.813L851.995 443.398L849.408 444.82L851.995 446.241L853.417 448.826Z" fill="black"/>
<path d="M864.651 448.826L866.073 446.241L868.676 444.82L866.073 443.398L864.651 440.813L863.245 443.398L860.642 444.82L863.245 446.241L864.651 448.826Z" fill="black"/>
<path d="M836.719 456.952L838.142 454.367L840.744 452.945L838.142 451.524L836.719 448.939L835.313 451.524L832.71 452.945L835.313 454.367L836.719 456.952Z" fill="black"/>
<path d="M847.791 456.952L849.214 454.367L851.8 452.945L849.214 451.524L847.791 448.939L846.369 451.524L843.767 452.945L846.369 454.367L847.791 456.952Z" fill="black"/>
<path d="M859.026 456.952L860.448 454.367L863.035 452.945L860.448 451.524L859.026 448.939L857.603 451.524L855.017 452.945L857.603 454.367L859.026 456.952Z" fill="black"/>
<path d="M842.36 465.417L843.767 462.832L846.369 461.411L843.767 459.989L842.36 457.404L840.938 459.989L838.335 461.411L840.938 462.832L842.36 465.417Z" fill="black"/>
<path d="M853.417 465.417L854.84 462.832L857.442 461.411L854.84 459.989L853.417 457.404L851.995 459.989L849.408 461.411L851.995 462.832L853.417 465.417Z" fill="black"/>
<path d="M864.651 465.417L866.073 462.832L868.676 461.411L866.073 459.989L864.651 457.404L863.245 459.989L860.642 461.411L863.245 462.832L864.651 465.417Z" fill="black"/>
<path d="M836.719 473.543L838.142 470.958L840.744 469.536L838.142 468.115L836.719 465.514L835.313 468.115L832.71 469.536L835.313 470.958L836.719 473.543Z" fill="black"/>
<path d="M847.791 473.543L849.214 470.958L851.8 469.536L849.214 468.115L847.791 465.514L846.369 468.115L843.767 469.536L846.369 470.958L847.791 473.543Z" fill="black"/>
<path d="M859.026 473.543L860.448 470.958L863.035 469.536L860.448 468.115L859.026 465.514L857.603 468.115L855.017 469.536L857.603 470.958L859.026 473.543Z" fill="black"/>
<path d="M842.36 481.669L843.767 479.068L846.369 477.646L843.767 476.241L842.36 473.64L840.938 476.241L838.335 477.646L840.938 479.068L842.36 481.669Z" fill="black"/>
<path d="M853.417 481.669L854.84 479.068L857.442 477.646L854.84 476.241L853.417 473.64L851.995 476.241L849.408 477.646L851.995 479.068L853.417 481.669Z" fill="black"/>
<path d="M864.651 481.669L866.073 479.068L868.676 477.646L866.073 476.241L864.651 473.64L863.245 476.241L860.642 477.646L863.245 479.068L864.651 481.669Z" fill="black"/>
<path d="M836.719 489.795L838.142 487.194L840.744 485.772L838.142 484.35L836.719 481.766L835.313 484.35L832.71 485.772L835.313 487.194L836.719 489.795Z" fill="black"/>
<path d="M847.791 489.795L849.214 487.194L851.8 485.772L849.214 484.35L847.791 481.766L846.369 484.35L843.767 485.772L846.369 487.194L847.791 489.795Z" fill="black"/>
<path d="M859.026 489.795L860.448 487.194L863.035 485.772L860.448 484.35L859.026 481.766L857.603 484.35L855.017 485.772L857.603 487.194L859.026 489.795Z" fill="black"/>
<path d="M836.719 423.56L838.142 420.975L840.744 419.554L838.142 418.132L836.719 415.547L835.313 418.132L832.71 419.554L835.313 420.975L836.719 423.56Z" fill="black"/>
<path d="M847.791 423.56L849.214 420.975L851.8 419.554L849.214 418.132L847.791 415.547L846.369 418.132L843.767 419.554L846.369 420.975L847.791 423.56Z" fill="black"/>
<path d="M859.026 423.56L860.448 420.975L863.035 419.554L860.448 418.132L859.026 415.547L857.603 418.132L855.017 419.554L857.603 420.975L859.026 423.56Z" fill="black"/>
<path d="M739.021 564.785L740.427 562.184L743.03 560.778L740.427 559.357L739.021 556.756L737.599 559.357L734.996 560.778L737.599 562.184L739.021 564.785Z" fill="black"/>
<path d="M750.078 564.785L751.5 562.184L754.086 560.778L751.5 559.357L750.078 556.756L748.655 559.357L746.069 560.778L748.655 562.184L750.078 564.785Z" fill="black"/>
<path d="M761.312 564.785L762.734 562.184L765.337 560.778L762.734 559.357L761.312 556.756L759.889 559.357L757.303 560.778L759.889 562.184L761.312 564.785Z" fill="black"/>
<path d="M733.38 572.911L734.802 570.31L737.405 568.888L734.802 567.483L733.38 564.882L731.957 567.483L729.371 568.888L731.957 570.31L733.38 572.911Z" fill="black"/>
<path d="M744.453 572.911L745.875 570.31L748.462 568.888L745.875 567.483L744.453 564.882L743.03 567.483L740.428 568.888L743.03 570.31L744.453 572.911Z" fill="black"/>
<path d="M755.687 572.911L757.109 570.31L759.696 568.888L757.109 567.483L755.687 564.882L754.265 567.483L751.678 568.888L754.265 570.31L755.687 572.911Z" fill="black"/>
<path d="M739.021 498.566L740.427 495.966L743.03 494.544L740.427 493.139L739.021 490.538L737.599 493.139L734.996 494.544L737.599 495.966L739.021 498.566Z" fill="black"/>
<path d="M750.078 498.566L751.5 495.966L754.086 494.544L751.5 493.139L750.078 490.538L748.655 493.139L746.069 494.544L748.655 495.966L750.078 498.566Z" fill="black"/>
<path d="M761.312 498.566L762.734 495.966L765.337 494.544L762.734 493.139L761.312 490.538L759.889 493.139L757.303 494.544L759.889 495.966L761.312 498.566Z" fill="black"/>
<path d="M733.38 506.692L734.802 504.092L737.405 502.67L734.802 501.248L733.38 498.664L731.957 501.248L729.371 502.67L731.957 504.092L733.38 506.692Z" fill="black"/>
<path d="M744.453 506.692L745.875 504.092L748.462 502.67L745.875 501.248L744.453 498.664L743.03 501.248L740.428 502.67L743.03 504.092L744.453 506.692Z" fill="black"/>
<path d="M755.687 506.692L757.109 504.092L759.696 502.67L757.109 501.248L755.687 498.664L754.265 501.248L751.678 502.67L754.265 504.092L755.687 506.692Z" fill="black"/>
<path d="M739.021 514.802L740.427 512.217L743.03 510.795L740.427 509.374L739.021 506.773L737.599 509.374L734.996 510.795L737.599 512.217L739.021 514.802Z" fill="black"/>
<path d="M750.078 514.802L751.5 512.217L754.086 510.795L751.5 509.374L750.078 506.773L748.655 509.374L746.069 510.795L748.655 512.217L750.078 514.802Z" fill="black"/>
<path d="M761.312 514.802L762.734 512.217L765.337 510.795L762.734 509.374L761.312 506.773L759.889 509.374L757.303 510.795L759.889 512.217L761.312 514.802Z" fill="black"/>
<path d="M733.38 522.928L734.802 520.327L737.405 518.921L734.802 517.5L733.38 514.899L731.957 517.5L729.371 518.921L731.957 520.327L733.38 522.928Z" fill="black"/>
<path d="M744.453 522.928L745.875 520.327L748.462 518.921L745.875 517.5L744.453 514.899L743.03 517.5L740.428 518.921L743.03 520.327L744.453 522.928Z" fill="black"/>
<path d="M755.687 522.928L757.109 520.327L759.696 518.921L757.109 517.5L755.687 514.899L754.265 517.5L751.678 518.921L754.265 520.327L755.687 522.928Z" fill="black"/>
<path d="M739.021 531.393L740.427 528.792L743.03 527.386L740.427 525.965L739.021 523.364L737.599 525.965L734.996 527.386L737.599 528.792L739.021 531.393Z" fill="black"/>
<path d="M750.078 531.393L751.5 528.792L754.086 527.386L751.5 525.965L750.078 523.364L748.655 525.965L746.069 527.386L748.655 528.792L750.078 531.393Z" fill="black"/>
<path d="M761.312 531.393L762.734 528.792L765.337 527.386L762.734 525.965L761.312 523.364L759.889 525.965L757.303 527.386L759.889 528.792L761.312 531.393Z" fill="black"/>
<path d="M733.38 539.519L734.802 536.918L737.405 535.496L734.802 534.091L733.38 531.49L731.957 534.091L729.371 535.496L731.957 536.918L733.38 539.519Z" fill="black"/>
<path d="M744.453 539.519L745.875 536.918L748.462 535.496L745.875 534.091L744.453 531.49L743.03 534.091L740.428 535.496L743.03 536.918L744.453 539.519Z" fill="black"/>
<path d="M755.687 539.519L757.109 536.918L759.696 535.496L757.109 534.091L755.687 531.49L754.265 534.091L751.678 535.496L754.265 536.918L755.687 539.519Z" fill="black"/>
<path d="M739.021 547.628L740.427 545.044L743.03 543.622L740.427 542.2L739.021 539.616L737.599 542.2L734.996 543.622L737.599 545.044L739.021 547.628Z" fill="black"/>
<path d="M750.078 547.628L751.5 545.044L754.086 543.622L751.5 542.2L750.078 539.616L748.655 542.2L746.069 543.622L748.655 545.044L750.078 547.628Z" fill="black"/>
<path d="M761.312 547.628L762.734 545.044L765.337 543.622L762.734 542.2L761.312 539.616L759.889 542.2L757.303 543.622L759.889 545.044L761.312 547.628Z" fill="black"/>
<path d="M733.38 555.754L734.802 553.169L737.405 551.748L734.802 550.326L733.38 547.725L731.957 550.326L729.371 551.748L731.957 553.169L733.38 555.754Z" fill="black"/>
<path d="M744.453 555.754L745.875 553.169L748.462 551.748L745.875 550.326L744.453 547.725L743.03 550.326L740.428 551.748L743.03 553.169L744.453 555.754Z" fill="black"/>
<path d="M755.687 555.754L757.109 553.169L759.696 551.748L757.109 550.326L755.687 547.725L754.265 550.326L751.678 551.748L754.265 553.169L755.687 555.754Z" fill="black"/>
<path d="M739.021 432.59L740.427 430.006L743.03 428.584L740.427 427.162L739.021 424.562L737.599 427.162L734.996 428.584L737.599 430.006L739.021 432.59Z" fill="black"/>
<path d="M750.078 432.59L751.5 430.006L754.086 428.584L751.5 427.162L750.078 424.562L748.655 427.162L746.069 428.584L748.655 430.006L750.078 432.59Z" fill="black"/>
<path d="M761.312 432.59L762.734 430.006L765.337 428.584L762.734 427.162L761.312 424.562L759.889 427.162L757.303 428.584L759.889 430.006L761.312 432.59Z" fill="black"/>
<path d="M733.38 440.716L734.802 438.115L737.405 436.71L734.802 435.288L733.38 432.688L731.957 435.288L729.371 436.71L731.957 438.115L733.38 440.716Z" fill="black"/>
<path d="M744.453 440.716L745.875 438.115L748.462 436.71L745.875 435.288L744.453 432.688L743.03 435.288L740.428 436.71L743.03 438.115L744.453 440.716Z" fill="black"/>
<path d="M755.687 440.716L757.109 438.115L759.696 436.71L757.109 435.288L755.687 432.688L754.265 435.288L751.678 436.71L754.265 438.115L755.687 440.716Z" fill="black"/>
<path d="M739.021 448.826L740.427 446.241L743.03 444.82L740.427 443.398L739.021 440.813L737.599 443.398L734.996 444.82L737.599 446.241L739.021 448.826Z" fill="black"/>
<path d="M750.078 448.826L751.5 446.241L754.086 444.82L751.5 443.398L750.078 440.813L748.655 443.398L746.069 444.82L748.655 446.241L750.078 448.826Z" fill="black"/>
<path d="M761.312 448.826L762.734 446.241L765.337 444.82L762.734 443.398L761.312 440.813L759.889 443.398L757.303 444.82L759.889 446.241L761.312 448.826Z" fill="black"/>
<path d="M733.38 456.952L734.802 454.367L737.405 452.945L734.802 451.524L733.38 448.939L731.957 451.524L729.371 452.945L731.957 454.367L733.38 456.952Z" fill="black"/>
<path d="M744.453 456.952L745.875 454.367L748.462 452.945L745.875 451.524L744.453 448.939L743.03 451.524L740.428 452.945L743.03 454.367L744.453 456.952Z" fill="black"/>
<path d="M755.687 456.952L757.109 454.367L759.696 452.945L757.109 451.524L755.687 448.939L754.265 451.524L751.678 452.945L754.265 454.367L755.687 456.952Z" fill="black"/>
<path d="M739.021 465.417L740.427 462.832L743.03 461.411L740.427 459.989L739.021 457.404L737.599 459.989L734.996 461.411L737.599 462.832L739.021 465.417Z" fill="black"/>
<path d="M750.078 465.417L751.5 462.832L754.086 461.411L751.5 459.989L750.078 457.404L748.655 459.989L746.069 461.411L748.655 462.832L750.078 465.417Z" fill="black"/>
<path d="M761.312 465.417L762.734 462.832L765.337 461.411L762.734 459.989L761.312 457.404L759.889 459.989L757.303 461.411L759.889 462.832L761.312 465.417Z" fill="black"/>
<path d="M733.38 473.543L734.802 470.958L737.405 469.536L734.802 468.115L733.38 465.514L731.957 468.115L729.371 469.536L731.957 470.958L733.38 473.543Z" fill="black"/>
<path d="M744.453 473.543L745.875 470.958L748.462 469.536L745.875 468.115L744.453 465.514L743.03 468.115L740.428 469.536L743.03 470.958L744.453 473.543Z" fill="black"/>
<path d="M755.687 473.543L757.109 470.958L759.696 469.536L757.109 468.115L755.687 465.514L754.265 468.115L751.678 469.536L754.265 470.958L755.687 473.543Z" fill="black"/>
<path d="M739.021 481.669L740.427 479.068L743.03 477.646L740.427 476.241L739.021 473.64L737.599 476.241L734.996 477.646L737.599 479.068L739.021 481.669Z" fill="black"/>
<path d="M750.078 481.669L751.5 479.068L754.086 477.646L751.5 476.241L750.078 473.64L748.655 476.241L746.069 477.646L748.655 479.068L750.078 481.669Z" fill="black"/>
<path d="M761.312 481.669L762.734 479.068L765.337 477.646L762.734 476.241L761.312 473.64L759.889 476.241L757.303 477.646L759.889 479.068L761.312 481.669Z" fill="black"/>
<path d="M733.38 489.795L734.802 487.194L737.405 485.772L734.802 484.35L733.38 481.766L731.957 484.35L729.371 485.772L731.957 487.194L733.38 489.795Z" fill="black"/>
<path d="M744.453 489.795L745.875 487.194L748.462 485.772L745.875 484.35L744.453 481.766L743.03 484.35L740.428 485.772L743.03 487.194L744.453 489.795Z" fill="black"/>
<path d="M755.687 489.795L757.109 487.194L759.696 485.772L757.109 484.35L755.687 481.766L754.265 484.35L751.678 485.772L754.265 487.194L755.687 489.795Z" fill="black"/>
<path d="M733.38 423.56L734.802 420.975L737.405 419.554L734.802 418.132L733.38 415.547L731.957 418.132L729.371 419.554L731.957 420.975L733.38 423.56Z" fill="black"/>
<path d="M744.452 423.56L745.875 420.975L748.461 419.554L745.875 418.132L744.452 415.547L743.03 418.132L740.427 419.554L743.03 420.975L744.452 423.56Z" fill="black"/>
<path d="M755.687 423.56L757.109 420.975L759.696 419.554L757.109 418.132L755.687 415.547L754.264 418.132L751.678 419.554L754.264 420.975L755.687 423.56Z" fill="black"/>
<path d="M774.163 564.785L775.569 562.184L778.171 560.778L775.569 559.357L774.163 556.756L772.74 559.357L770.138 560.778L772.74 562.184L774.163 564.785Z" fill="black"/>
<path d="M785.219 564.785L786.642 562.184L789.228 560.778L786.642 559.357L785.219 556.756L783.797 559.357L781.21 560.778L783.797 562.184L785.219 564.785Z" fill="black"/>
<path d="M796.454 564.785L797.876 562.184L800.479 560.778L797.876 559.357L796.454 556.756L795.031 559.357L792.445 560.778L795.031 562.184L796.454 564.785Z" fill="black"/>
<path d="M768.521 572.911L769.944 570.31L772.53 568.888L769.944 567.483L768.521 564.882L767.099 567.483L764.513 568.888L767.099 570.31L768.521 572.911Z" fill="black"/>
<path d="M779.594 572.911L781 570.31L783.603 568.888L781 567.483L779.594 564.882L778.171 567.483L775.569 568.888L778.171 570.31L779.594 572.911Z" fill="black"/>
<path d="M790.829 572.911L792.251 570.31L794.837 568.888L792.251 567.483L790.829 564.882L789.406 567.483L786.82 568.888L789.406 570.31L790.829 572.911Z" fill="black"/>
<path d="M774.163 498.566L775.569 495.966L778.171 494.544L775.569 493.139L774.163 490.538L772.74 493.139L770.138 494.544L772.74 495.966L774.163 498.566Z" fill="black"/>
<path d="M785.219 498.566L786.642 495.966L789.228 494.544L786.642 493.139L785.219 490.538L783.797 493.139L781.21 494.544L783.797 495.966L785.219 498.566Z" fill="black"/>
<path d="M796.454 498.566L797.876 495.966L800.479 494.544L797.876 493.139L796.454 490.538L795.031 493.139L792.445 494.544L795.031 495.966L796.454 498.566Z" fill="black"/>
<path d="M768.521 506.692L769.944 504.092L772.53 502.67L769.944 501.248L768.521 498.664L767.099 501.248L764.513 502.67L767.099 504.092L768.521 506.692Z" fill="black"/>
<path d="M779.594 506.692L781 504.092L783.603 502.67L781 501.248L779.594 498.664L778.171 501.248L775.569 502.67L778.171 504.092L779.594 506.692Z" fill="black"/>
<path d="M790.829 506.692L792.251 504.092L794.837 502.67L792.251 501.248L790.829 498.664L789.406 501.248L786.82 502.67L789.406 504.092L790.829 506.692Z" fill="black"/>
<path d="M774.163 514.802L775.569 512.217L778.171 510.795L775.569 509.374L774.163 506.773L772.74 509.374L770.138 510.795L772.74 512.217L774.163 514.802Z" fill="black"/>
<path d="M785.219 514.802L786.642 512.217L789.228 510.795L786.642 509.374L785.219 506.773L783.797 509.374L781.21 510.795L783.797 512.217L785.219 514.802Z" fill="black"/>
<path d="M796.454 514.802L797.876 512.217L800.479 510.795L797.876 509.374L796.454 506.773L795.031 509.374L792.445 510.795L795.031 512.217L796.454 514.802Z" fill="black"/>
<path d="M768.521 522.928L769.944 520.327L772.53 518.921L769.944 517.5L768.521 514.899L767.099 517.5L764.513 518.921L767.099 520.327L768.521 522.928Z" fill="black"/>
<path d="M779.594 522.928L781 520.327L783.603 518.921L781 517.5L779.594 514.899L778.171 517.5L775.569 518.921L778.171 520.327L779.594 522.928Z" fill="black"/>
<path d="M790.829 522.928L792.251 520.327L794.837 518.921L792.251 517.5L790.829 514.899L789.406 517.5L786.82 518.921L789.406 520.327L790.829 522.928Z" fill="black"/>
<path d="M774.163 531.393L775.569 528.792L778.171 527.386L775.569 525.965L774.163 523.364L772.74 525.965L770.138 527.386L772.74 528.792L774.163 531.393Z" fill="black"/>
<path d="M785.219 531.393L786.642 528.792L789.228 527.386L786.642 525.965L785.219 523.364L783.797 525.965L781.21 527.386L783.797 528.792L785.219 531.393Z" fill="black"/>
<path d="M796.454 531.393L797.876 528.792L800.479 527.386L797.876 525.965L796.454 523.364L795.031 525.965L792.445 527.386L795.031 528.792L796.454 531.393Z" fill="black"/>
<path d="M768.521 539.519L769.944 536.918L772.53 535.496L769.944 534.091L768.521 531.49L767.099 534.091L764.513 535.496L767.099 536.918L768.521 539.519Z" fill="black"/>
<path d="M779.594 539.519L781 536.918L783.603 535.496L781 534.091L779.594 531.49L778.171 534.091L775.569 535.496L778.171 536.918L779.594 539.519Z" fill="black"/>
<path d="M790.829 539.519L792.251 536.918L794.837 535.496L792.251 534.091L790.829 531.49L789.406 534.091L786.82 535.496L789.406 536.918L790.829 539.519Z" fill="black"/>
<path d="M774.163 547.629L775.569 545.044L778.171 543.622L775.569 542.201L774.163 539.616L772.74 542.201L770.138 543.622L772.74 545.044L774.163 547.629Z" fill="black"/>
<path d="M785.219 547.629L786.642 545.044L789.228 543.622L786.642 542.201L785.219 539.616L783.797 542.201L781.21 543.622L783.797 545.044L785.219 547.629Z" fill="black"/>
<path d="M796.454 547.629L797.876 545.044L800.479 543.622L797.876 542.201L796.454 539.616L795.031 542.201L792.445 543.622L795.031 545.044L796.454 547.629Z" fill="black"/>
<path d="M768.521 555.754L769.944 553.169L772.53 551.748L769.944 550.326L768.521 547.725L767.099 550.326L764.513 551.748L767.099 553.169L768.521 555.754Z" fill="black"/>
<path d="M779.594 555.754L781 553.169L783.603 551.748L781 550.326L779.594 547.725L778.171 550.326L775.569 551.748L778.171 553.169L779.594 555.754Z" fill="black"/>
<path d="M790.829 555.754L792.251 553.169L794.837 551.748L792.251 550.326L790.829 547.725L789.406 550.326L786.82 551.748L789.406 553.169L790.829 555.754Z" fill="black"/>
<path d="M774.163 432.59L775.569 430.006L778.171 428.584L775.569 427.162L774.163 424.562L772.74 427.162L770.138 428.584L772.74 430.006L774.163 432.59Z" fill="black"/>
<path d="M785.219 432.59L786.642 430.006L789.228 428.584L786.642 427.162L785.219 424.562L783.797 427.162L781.21 428.584L783.797 430.006L785.219 432.59Z" fill="black"/>
<path d="M796.454 432.59L797.876 430.006L800.479 428.584L797.876 427.162L796.454 424.562L795.031 427.162L792.445 428.584L795.031 430.006L796.454 432.59Z" fill="black"/>
<path d="M768.521 440.716L769.944 438.115L772.53 436.71L769.944 435.288L768.521 432.688L767.099 435.288L764.513 436.71L767.099 438.115L768.521 440.716Z" fill="black"/>
<path d="M779.594 440.716L781 438.115L783.603 436.71L781 435.288L779.594 432.688L778.171 435.288L775.569 436.71L778.171 438.115L779.594 440.716Z" fill="black"/>
<path d="M790.829 440.716L792.251 438.115L794.837 436.71L792.251 435.288L790.829 432.688L789.406 435.288L786.82 436.71L789.406 438.115L790.829 440.716Z" fill="black"/>
<path d="M774.163 448.826L775.569 446.241L778.171 444.82L775.569 443.398L774.163 440.813L772.74 443.398L770.138 444.82L772.74 446.241L774.163 448.826Z" fill="black"/>
<path d="M785.219 448.826L786.642 446.241L789.228 444.82L786.642 443.398L785.219 440.813L783.797 443.398L781.21 444.82L783.797 446.241L785.219 448.826Z" fill="black"/>
<path d="M796.454 448.826L797.876 446.241L800.479 444.82L797.876 443.398L796.454 440.813L795.031 443.398L792.445 444.82L795.031 446.241L796.454 448.826Z" fill="black"/>
<path d="M768.521 456.952L769.944 454.367L772.53 452.945L769.944 451.524L768.521 448.939L767.099 451.524L764.513 452.945L767.099 454.367L768.521 456.952Z" fill="black"/>
<path d="M779.594 456.952L781 454.367L783.603 452.945L781 451.524L779.594 448.939L778.171 451.524L775.569 452.945L778.171 454.367L779.594 456.952Z" fill="black"/>
<path d="M790.829 456.952L792.251 454.367L794.837 452.945L792.251 451.524L790.829 448.939L789.406 451.524L786.82 452.945L789.406 454.367L790.829 456.952Z" fill="black"/>
<path d="M774.163 465.417L775.569 462.832L778.171 461.411L775.569 459.989L774.163 457.404L772.74 459.989L770.138 461.411L772.74 462.832L774.163 465.417Z" fill="black"/>
<path d="M785.219 465.417L786.642 462.832L789.228 461.411L786.642 459.989L785.219 457.404L783.797 459.989L781.21 461.411L783.797 462.832L785.219 465.417Z" fill="black"/>
<path d="M796.454 465.417L797.876 462.832L800.479 461.411L797.876 459.989L796.454 457.404L795.031 459.989L792.445 461.411L795.031 462.832L796.454 465.417Z" fill="black"/>
<path d="M768.521 473.543L769.944 470.958L772.53 469.536L769.944 468.115L768.521 465.514L767.099 468.115L764.513 469.536L767.099 470.958L768.521 473.543Z" fill="black"/>
<path d="M779.594 473.543L781 470.958L783.603 469.536L781 468.115L779.594 465.514L778.171 468.115L775.569 469.536L778.171 470.958L779.594 473.543Z" fill="black"/>
<path d="M790.829 473.543L792.251 470.958L794.837 469.536L792.251 468.115L790.829 465.514L789.406 468.115L786.82 469.536L789.406 470.958L790.829 473.543Z" fill="black"/>
<path d="M774.163 481.669L775.569 479.068L778.171 477.646L775.569 476.241L774.163 473.64L772.74 476.241L770.138 477.646L772.74 479.068L774.163 481.669Z" fill="black"/>
<path d="M785.219 481.669L786.642 479.068L789.228 477.646L786.642 476.241L785.219 473.64L783.797 476.241L781.21 477.646L783.797 479.068L785.219 481.669Z" fill="black"/>
<path d="M796.454 481.669L797.876 479.068L800.479 477.646L797.876 476.241L796.454 473.64L795.031 476.241L792.445 477.646L795.031 479.068L796.454 481.669Z" fill="black"/>
<path d="M768.521 489.795L769.944 487.194L772.53 485.772L769.944 484.35L768.521 481.766L767.099 484.35L764.513 485.772L767.099 487.194L768.521 489.795Z" fill="black"/>
<path d="M779.594 489.795L781 487.194L783.603 485.772L781 484.35L779.594 481.766L778.171 484.35L775.569 485.772L778.171 487.194L779.594 489.795Z" fill="black"/>
<path d="M790.829 489.795L792.251 487.194L794.837 485.772L792.251 484.35L790.829 481.766L789.406 484.35L786.82 485.772L789.406 487.194L790.829 489.795Z" fill="black"/>
<path d="M768.521 423.56L769.944 420.975L772.53 419.554L769.944 418.132L768.521 415.547L767.099 418.132L764.513 419.554L767.099 420.975L768.521 423.56Z" fill="black"/>
<path d="M779.594 423.56L781 420.975L783.603 419.554L781 418.132L779.594 415.547L778.171 418.132L775.569 419.554L778.171 420.975L779.594 423.56Z" fill="black"/>
<path d="M790.829 423.56L792.251 420.975L794.837 419.554L792.251 418.132L790.829 415.547L789.406 418.132L786.82 419.554L789.406 420.975L790.829 423.56Z" fill="black"/>
<path d="M715.971 564.785L717.394 562.184L719.98 560.778L717.394 559.357L715.971 556.756L714.549 559.357L711.962 560.778L714.549 562.184L715.971 564.785Z" fill="black"/>
<path d="M727.205 564.785L728.627 562.184L731.23 560.778L728.627 559.357L727.205 556.756L725.783 559.357L723.196 560.778L725.783 562.184L727.205 564.785Z" fill="black"/>
<path d="M710.346 572.911L711.752 570.31L714.354 568.888L711.752 567.483L710.346 564.882L708.923 567.483L706.321 568.888L708.923 570.31L710.346 572.911Z" fill="black"/>
<path d="M721.58 572.911L723.003 570.31L725.589 568.888L723.003 567.483L721.58 564.882L720.158 567.483L717.555 568.888L720.158 570.31L721.58 572.911Z" fill="black"/>
<path d="M715.971 498.566L717.394 495.966L719.98 494.544L717.394 493.139L715.971 490.538L714.549 493.139L711.962 494.544L714.549 495.966L715.971 498.566Z" fill="black"/>
<path d="M727.205 498.566L728.627 495.966L731.23 494.544L728.627 493.139L727.205 490.538L725.783 493.139L723.196 494.544L725.783 495.966L727.205 498.566Z" fill="black"/>
<path d="M710.346 506.692L711.752 504.092L714.354 502.67L711.752 501.248L710.346 498.664L708.923 501.248L706.321 502.67L708.923 504.092L710.346 506.692Z" fill="black"/>
<path d="M721.58 506.692L723.003 504.092L725.589 502.67L723.003 501.248L721.58 498.664L720.158 501.248L717.555 502.67L720.158 504.092L721.58 506.692Z" fill="black"/>
<path d="M715.971 514.802L717.394 512.217L719.98 510.795L717.394 509.374L715.971 506.773L714.549 509.374L711.962 510.795L714.549 512.217L715.971 514.802Z" fill="black"/>
<path d="M727.205 514.802L728.627 512.217L731.23 510.795L728.627 509.374L727.205 506.773L725.783 509.374L723.196 510.795L725.783 512.217L727.205 514.802Z" fill="black"/>
<path d="M710.346 522.928L711.752 520.327L714.354 518.921L711.752 517.5L710.346 514.899L708.923 517.5L706.321 518.921L708.923 520.327L710.346 522.928Z" fill="black"/>
<path d="M721.58 522.928L723.003 520.327L725.589 518.921L723.003 517.5L721.58 514.899L720.158 517.5L717.555 518.921L720.158 520.327L721.58 522.928Z" fill="black"/>
<path d="M715.971 531.393L717.394 528.792L719.98 527.386L717.394 525.965L715.971 523.364L714.549 525.965L711.962 527.386L714.549 528.792L715.971 531.393Z" fill="black"/>
<path d="M727.205 531.393L728.627 528.792L731.23 527.386L728.627 525.965L727.205 523.364L725.783 525.965L723.196 527.386L725.783 528.792L727.205 531.393Z" fill="black"/>
<path d="M710.346 539.519L711.752 536.918L714.354 535.496L711.752 534.091L710.346 531.49L708.923 534.091L706.321 535.496L708.923 536.918L710.346 539.519Z" fill="black"/>
<path d="M721.58 539.519L723.003 536.918L725.589 535.496L723.003 534.091L721.58 531.49L720.158 534.091L717.555 535.496L720.158 536.918L721.58 539.519Z" fill="black"/>
<path d="M715.971 547.628L717.394 545.044L719.98 543.622L717.394 542.2L715.971 539.616L714.549 542.2L711.962 543.622L714.549 545.044L715.971 547.628Z" fill="black"/>
<path d="M727.205 547.628L728.627 545.044L731.23 543.622L728.627 542.2L727.205 539.616L725.783 542.2L723.196 543.622L725.783 545.044L727.205 547.628Z" fill="black"/>
<path d="M710.346 555.754L711.752 553.169L714.354 551.748L711.752 550.326L710.346 547.725L708.923 550.326L706.321 551.748L708.923 553.169L710.346 555.754Z" fill="black"/>
<path d="M721.58 555.754L723.003 553.169L725.589 551.748L723.003 550.326L721.58 547.725L720.158 550.326L717.555 551.748L720.158 553.169L721.58 555.754Z" fill="black"/>
<path d="M715.971 432.59L717.394 430.006L719.98 428.584L717.394 427.162L715.971 424.562L714.549 427.162L711.962 428.584L714.549 430.006L715.971 432.59Z" fill="black"/>
<path d="M727.205 432.59L728.627 430.006L731.23 428.584L728.627 427.162L727.205 424.562L725.783 427.162L723.196 428.584L725.783 430.006L727.205 432.59Z" fill="black"/>
<path d="M710.346 440.716L711.752 438.115L714.354 436.71L711.752 435.288L710.346 432.688L708.923 435.288L706.321 436.71L708.923 438.115L710.346 440.716Z" fill="black"/>
<path d="M721.58 440.716L723.003 438.115L725.589 436.71L723.003 435.288L721.58 432.688L720.158 435.288L717.555 436.71L720.158 438.115L721.58 440.716Z" fill="black"/>
<path d="M715.971 448.826L717.394 446.241L719.98 444.82L717.394 443.398L715.971 440.813L714.549 443.398L711.962 444.82L714.549 446.241L715.971 448.826Z" fill="black"/>
<path d="M727.205 448.826L728.627 446.241L731.23 444.82L728.627 443.398L727.205 440.813L725.783 443.398L723.196 444.82L725.783 446.241L727.205 448.826Z" fill="black"/>
<path d="M710.346 456.952L711.752 454.367L714.354 452.945L711.752 451.524L710.346 448.939L708.923 451.524L706.321 452.945L708.923 454.367L710.346 456.952Z" fill="black"/>
<path d="M721.58 456.952L723.003 454.367L725.589 452.945L723.003 451.524L721.58 448.939L720.158 451.524L717.555 452.945L720.158 454.367L721.58 456.952Z" fill="black"/>
<path d="M715.971 465.417L717.394 462.832L719.98 461.411L717.394 459.989L715.971 457.404L714.549 459.989L711.962 461.411L714.549 462.832L715.971 465.417Z" fill="black"/>
<path d="M727.205 465.417L728.627 462.832L731.23 461.411L728.627 459.989L727.205 457.404L725.783 459.989L723.196 461.411L725.783 462.832L727.205 465.417Z" fill="black"/>
<path d="M710.346 473.543L711.752 470.958L714.354 469.536L711.752 468.115L710.346 465.514L708.923 468.115L706.321 469.536L708.923 470.958L710.346 473.543Z" fill="black"/>
<path d="M721.58 473.543L723.003 470.958L725.589 469.536L723.003 468.115L721.58 465.514L720.158 468.115L717.555 469.536L720.158 470.958L721.58 473.543Z" fill="black"/>
<path d="M715.971 481.669L717.394 479.068L719.98 477.646L717.394 476.241L715.971 473.64L714.549 476.241L711.962 477.646L714.549 479.068L715.971 481.669Z" fill="black"/>
<path d="M727.205 481.669L728.627 479.068L731.23 477.646L728.627 476.241L727.205 473.64L725.783 476.241L723.196 477.646L725.783 479.068L727.205 481.669Z" fill="black"/>
<path d="M710.346 489.795L711.752 487.194L714.354 485.772L711.752 484.35L710.346 481.766L708.923 484.35L706.321 485.772L708.923 487.194L710.346 489.795Z" fill="black"/>
<path d="M721.58 489.795L723.003 487.194L725.589 485.772L723.003 484.35L721.58 481.766L720.158 484.35L717.555 485.772L720.158 487.194L721.58 489.795Z" fill="black"/>
<path d="M710.346 423.56L711.752 420.975L714.354 419.554L711.752 418.132L710.346 415.547L708.923 418.132L706.321 419.554L708.923 420.975L710.346 423.56Z" fill="black"/>
<path d="M721.58 423.56L723.003 420.975L725.589 419.554L723.003 418.132L721.58 415.547L720.158 418.132L717.555 419.554L720.158 420.975L721.58 423.56Z" fill="black"/>
<path d="M830.173 470.312V470.393C830.173 471.992 830.059 473.543 829.833 475.045C829.72 475.837 829.591 476.629 829.429 477.404C828.896 479.892 828.103 482.267 827.101 484.577C826.843 485.174 826.584 485.772 826.293 486.354C825.97 487.032 825.63 487.711 825.275 488.373C825 488.89 824.709 489.407 824.418 489.924C824.062 490.538 823.691 491.168 823.319 491.798C823.012 492.299 822.705 492.816 822.381 493.316C822.026 493.898 821.654 494.447 821.266 495.013C820.959 495.465 820.652 495.933 820.345 496.386C820.312 496.434 820.264 496.483 820.231 496.531C819.86 497.016 819.439 497.597 818.971 498.26C818.631 498.744 818.259 499.294 817.855 499.891C817.532 500.376 817.192 500.909 816.853 501.458C816.497 502.024 816.142 502.622 815.77 503.235C815.431 503.801 815.091 504.382 814.752 505.012C814.622 505.239 814.493 505.465 814.38 505.691C813.911 506.531 813.442 507.436 812.957 508.389C812.941 508.405 812.925 508.437 812.925 508.453C811.988 510.327 811.018 512.363 810.096 514.592C810.064 514.657 810.048 514.705 810.015 514.77C809.708 515.497 809.417 516.24 809.11 516.999C808.884 517.597 808.641 518.211 808.415 518.841C808.173 519.503 807.93 520.182 807.704 520.876C807.623 521.086 807.558 521.28 807.494 521.49C805.716 526.773 804.212 532.782 803.259 539.47C802.774 542.895 802.434 546.514 802.273 550.31C801.545 551.99 800.43 553.46 799.072 554.64H781.97C780.661 553.525 779.594 552.12 778.867 550.52C778.705 546.417 778.333 542.507 777.784 538.824C774.389 516.014 764.48 501.216 760.811 496.386C754.976 487.808 750.967 480.279 750.967 470.28C750.967 448.422 768.699 430.701 790.554 430.701C795.354 430.701 799.977 431.557 804.245 433.124C804.455 433.205 804.681 433.285 804.875 433.366C806.039 433.819 807.187 434.319 808.302 434.885C808.561 435.014 808.819 435.143 809.062 435.289C809.757 435.644 810.436 436.032 811.098 436.436C811.664 436.791 812.214 437.146 812.763 437.502C814.218 438.487 815.592 439.553 816.902 440.717C817.37 441.137 817.839 441.557 818.276 442.009C818.809 442.526 819.326 443.075 819.843 443.624C820.199 444.028 820.571 444.448 820.926 444.868C821.363 445.402 821.816 445.951 822.236 446.516C822.575 446.952 822.899 447.405 823.206 447.857C823.61 448.439 823.998 449.02 824.369 449.634C824.677 450.135 824.968 450.636 825.242 451.153C825.646 451.896 826.051 452.655 826.406 453.414C826.681 453.98 826.94 454.561 827.166 455.143C828.12 457.421 828.863 459.828 829.364 462.299C829.526 463.075 829.671 463.866 829.768 464.658C829.995 466.176 830.124 467.727 830.156 469.31C830.173 469.65 830.173 469.973 830.173 470.312Z" fill="#FFDE16" stroke="black" stroke-width="3" stroke-miterlimit="10"/>
<path d="M782.261 522.152C782.261 522.152 784.88 504.043 777.088 489.585C777.088 489.585 775.003 486.208 777.379 485.481C780.855 484.415 782.536 488.809 784.282 488.809C787.628 488.809 784.104 483.656 787.207 483.656C790.392 483.656 788.517 488.034 790.957 488.034C793.398 488.034 792.057 483.656 794.675 483.656C797.52 483.656 795.516 488.034 797.52 488.034C799.525 488.034 801.173 484.738 803.743 485.804C805.619 486.58 804.422 488.809 804.422 488.809C804.422 488.809 797.342 504.641 800.042 522.152" fill="#FFDE16"/>
<path d="M782.261 522.152C782.261 522.152 784.88 504.043 777.088 489.585C777.088 489.585 775.003 486.208 777.379 485.481C780.855 484.415 782.536 488.809 784.282 488.809C787.628 488.809 784.104 483.656 787.207 483.656C790.392 483.656 788.517 488.034 790.957 488.034C793.398 488.034 792.057 483.656 794.675 483.656C797.52 483.656 795.516 488.034 797.52 488.034C799.525 488.034 801.173 484.738 803.743 485.804C805.619 486.58 804.422 488.809 804.422 488.809C804.422 488.809 797.342 504.641 800.042 522.152" stroke="black" stroke-width="3" stroke-miterlimit="10"/>
<path d="M803.921 536.53V546.789C803.921 548.549 803.55 550.229 802.887 551.764C802.127 553.525 800.963 555.092 799.508 556.336C797.31 558.226 794.449 559.373 791.329 559.373H789.697C786.593 559.373 783.716 558.226 781.517 556.336C780.143 555.157 779.012 553.67 778.252 552.007C777.525 550.423 777.104 548.646 777.104 546.805V536.546C777.104 533.929 777.913 531.49 779.303 529.471H801.707C803.113 531.474 803.921 533.913 803.921 536.53Z" fill="#00D384" stroke="black" stroke-width="3" stroke-miterlimit="10" stroke-linecap="round" stroke-linejoin="round"/>
<path d="M814.331 527.015C814.331 528.34 813.782 529.567 812.909 530.44C812.036 531.312 810.808 531.861 809.482 531.861H770.882C768.214 531.861 766.016 529.68 766.016 527.015C766.016 525.674 766.566 524.462 767.439 523.59C768.311 522.718 769.54 522.169 770.865 522.169H809.466C812.133 522.152 814.331 524.333 814.331 527.015Z" fill="#00D384" stroke="black" stroke-width="3" stroke-miterlimit="10" stroke-linecap="round" stroke-linejoin="round"/>
<path d="M805.667 541.619H774.68C772.013 541.619 769.814 539.438 769.814 536.757C769.814 534.091 771.997 531.894 774.68 531.894H805.667C808.334 531.894 810.533 534.075 810.533 536.757C810.516 539.438 808.334 541.619 805.667 541.619Z" fill="#00D384" stroke="black" stroke-width="3" stroke-miterlimit="10" stroke-linecap="round" stroke-linejoin="round"/>
<path d="M829.849 475.046C829.736 475.838 829.606 476.629 829.445 477.405L829.073 476.71L828.055 476.161L829.073 475.611L829.623 474.61L829.849 475.046Z" fill="black"/>
<path d="M830.172 470.313V470.393L830.156 470.41L829.607 471.411L829.057 470.41L828.039 469.86L829.057 469.311L829.607 468.31L830.156 469.311C830.172 469.65 830.172 469.973 830.172 470.313Z" fill="black"/>
<path d="M829.768 464.675L829.59 464.981L829.041 463.964L828.022 463.414L829.041 462.865L829.348 462.3C829.526 463.091 829.671 463.867 829.768 464.675Z" fill="black"/>
<path d="M825.242 451.169L824.773 452.026L824.224 451.008L823.222 450.459L824.224 449.909L824.369 449.651C824.66 450.152 824.967 450.653 825.242 451.169Z" fill="black"/>
<path d="M820.474 448.908L819.924 449.925L818.922 450.475L819.924 451.024L820.474 452.026L821.023 451.024L822.042 450.475L821.023 449.925L820.474 448.908Z" fill="black"/>
<path d="M823.205 447.874L822.656 448.875L822.106 447.857L821.104 447.308L822.106 446.759L822.236 446.533C822.575 446.969 822.898 447.421 823.205 447.874Z" fill="black"/>
<path d="M820.926 444.885L820.474 445.725L819.924 444.707L818.922 444.158L819.859 443.641C820.215 444.061 820.571 444.481 820.926 444.885Z" fill="black"/>
<path d="M824.773 474.61L824.224 475.611L823.222 476.161L824.224 476.71L824.773 477.728L825.323 476.71L826.325 476.161L825.323 475.611L824.773 474.61Z" fill="black"/>
<path d="M820.474 474.61L819.924 475.611L818.922 476.161L819.924 476.71L820.474 477.728L821.023 476.71L822.042 476.161L821.023 475.611L820.474 474.61Z" fill="black"/>
<path d="M826.956 471.459L826.406 472.461L825.404 473.01L826.406 473.56L826.956 474.577L827.505 473.56L828.523 473.01L827.505 472.461L826.956 471.459Z" fill="black"/>
<path d="M822.672 471.459L822.122 472.461L821.104 473.01L822.122 473.56L822.672 474.577L823.222 473.56L824.224 473.01L823.222 472.461L822.672 471.459Z" fill="black"/>
<path d="M824.773 468.309L824.224 469.311L823.222 469.86L824.224 470.409L824.773 471.427L825.323 470.409L826.325 469.86L825.323 469.311L824.773 468.309Z" fill="black"/>
<path d="M820.474 468.309L819.924 469.311L818.922 469.86L819.924 470.409L820.474 471.427L821.023 470.409L822.042 469.86L821.023 469.311L820.474 468.309Z" fill="black"/>
<path d="M826.956 465.159L826.406 466.161L825.404 466.71L826.406 467.259L826.956 468.277L827.505 467.259L828.523 466.71L827.505 466.161L826.956 465.159Z" fill="black"/>
<path d="M822.672 465.159L822.122 466.161L821.104 466.71L822.122 467.259L822.672 468.277L823.222 467.259L824.224 466.71L823.222 466.161L822.672 465.159Z" fill="black"/>
<path d="M824.773 461.864L824.224 462.882L823.222 463.431L824.224 463.98L824.773 464.982L825.323 463.98L826.325 463.431L825.323 462.882L824.773 461.864Z" fill="black"/>
<path d="M820.474 461.864L819.924 462.882L818.922 463.431L819.924 463.98L820.474 464.982L821.023 463.98L822.042 463.431L821.023 462.882L820.474 461.864Z" fill="black"/>
<path d="M826.956 458.713L826.406 459.731L825.404 460.28L826.406 460.83L826.956 461.831L827.505 460.83L828.523 460.28L827.505 459.731L826.956 458.713Z" fill="black"/>
<path d="M822.672 458.713L822.122 459.731L821.104 460.28L822.122 460.83L822.672 461.831L823.222 460.83L824.224 460.28L823.222 459.731L822.672 458.713Z" fill="black"/>
<path d="M824.773 455.563L824.224 456.581L823.222 457.131L824.224 457.68L824.773 458.681L825.323 457.68L826.325 457.131L825.323 456.581L824.773 455.563Z" fill="black"/>
<path d="M820.474 455.563L819.924 456.581L818.922 457.131L819.924 457.68L820.474 458.681L821.023 457.68L822.042 457.131L821.023 456.581L820.474 455.563Z" fill="black"/>
<path d="M827.166 455.159L826.956 455.531L826.406 454.529L825.388 453.98L826.39 453.431C826.665 453.996 826.923 454.578 827.166 455.159Z" fill="black"/>
<path d="M822.672 452.413L822.122 453.415L821.104 453.98L822.122 454.529L822.672 455.531L823.222 454.529L824.224 453.98L823.222 453.415L822.672 452.413Z" fill="black"/>
<path d="M821.266 495.045C820.959 495.497 820.651 495.966 820.344 496.418C820.312 496.466 820.264 496.515 820.231 496.563L819.924 496.014L818.922 495.465L819.924 494.916L820.474 493.914L821.023 494.916L821.266 495.045Z" fill="black"/>
<path d="M823.319 491.814C823.011 492.315 822.704 492.832 822.381 493.333L822.122 492.864L821.12 492.315L822.122 491.766L822.672 490.764L823.222 491.766L823.319 491.814Z" fill="black"/>
<path d="M825.275 488.39C825 488.907 824.709 489.424 824.418 489.94L824.224 489.585L823.222 489.036L824.224 488.487L824.773 487.469L825.275 488.39Z" fill="black"/>
<path d="M820.474 487.469L819.924 488.47L818.922 489.02L819.924 489.585L820.474 490.587L821.023 489.585L822.042 489.02L821.023 488.47L820.474 487.469Z" fill="black"/>
<path d="M827.101 484.577C826.842 485.175 826.584 485.772 826.293 486.354L825.404 485.869L826.422 485.32L826.972 484.302L827.101 484.577Z" fill="black"/>
<path d="M822.672 484.318L822.122 485.32L821.104 485.869L822.122 486.418L822.672 487.436L823.222 486.418L824.224 485.869L823.222 485.32L822.672 484.318Z" fill="black"/>
<path d="M824.773 481.168L824.224 482.17L823.222 482.719L824.224 483.269L824.773 484.286L825.323 483.269L826.325 482.719L825.323 482.17L824.773 481.168Z" fill="black"/>
<path d="M820.474 481.168L819.924 482.17L818.922 482.719L819.924 483.269L820.474 484.286L821.023 483.269L822.042 482.719L821.023 482.17L820.474 481.168Z" fill="black"/>
<path d="M826.956 478.018L826.406 479.02L825.404 479.569L826.406 480.118L826.956 481.136L827.505 480.118L828.523 479.569L827.505 479.02L826.956 478.018Z" fill="black"/>
<path d="M822.672 478.018L822.122 479.02L821.104 479.569L822.122 480.118L822.672 481.136L823.222 480.118L824.224 479.569L823.222 479.02L822.672 478.018Z" fill="black"/>
<path d="M802.903 549.05C802.79 549.841 802.661 550.633 802.499 551.408L802.127 550.714L801.109 550.165L802.127 549.615L802.677 548.614L802.903 549.05Z" fill="black"/>
<path d="M803.243 544.301V544.381L803.21 544.414L802.661 545.415L802.111 544.414L801.093 543.864L802.111 543.315L802.661 542.313L803.21 543.315C803.226 543.638 803.243 543.977 803.243 544.301Z" fill="black"/>
<path d="M797.828 548.598L797.278 549.615L796.276 550.165L797.278 550.714L797.828 551.716L798.377 550.714L799.396 550.165L798.377 549.615L797.828 548.598Z" fill="black"/>
<path d="M793.544 548.598L792.978 549.615L791.976 550.165L792.978 550.714L793.544 551.716L794.094 550.714L795.096 550.165L794.094 549.615L793.544 548.598Z" fill="black"/>
<path d="M800.01 545.448L799.46 546.465L798.458 547.015L799.46 547.564L800.01 548.566L800.559 547.564L801.578 547.015L800.559 546.465L800.01 545.448Z" fill="black"/>
<path d="M795.726 545.448L795.177 546.465L794.158 547.015L795.177 547.564L795.726 548.566L796.276 547.564L797.278 547.015L796.276 546.465L795.726 545.448Z" fill="black"/>
<path d="M797.828 542.297L797.278 543.315L796.276 543.864L797.278 544.414L797.828 545.415L798.377 544.414L799.396 543.864L798.377 543.315L797.828 542.297Z" fill="black"/>
<path d="M793.544 542.297L792.978 543.315L791.976 543.864L792.978 544.414L793.544 545.415L794.094 544.414L795.096 543.864L794.094 543.315L793.544 542.297Z" fill="black"/>
<path d="M797.828 555.157L797.278 556.175L796.276 556.724L797.278 557.273L797.424 557.548L798.377 557.273L799.396 556.724L798.377 556.175L797.828 555.157Z" fill="black"/>
<path d="M793.544 555.157L792.978 556.175L791.976 556.724L792.978 557.273L793.544 558.275L794.094 557.273L795.096 556.724L794.094 556.175L793.544 555.157Z" fill="black"/>
<path d="M800.01 552.007L799.46 553.025L798.458 553.574L799.46 554.123L800.01 555.125L800.559 554.123L801.578 553.574L800.559 553.025L800.01 552.007Z" fill="black"/>
<path d="M795.726 552.007L795.177 553.025L794.158 553.574L795.177 554.123L795.726 555.125L796.276 554.123L797.278 553.574L796.276 553.025L795.726 552.007Z" fill="black"/>
<path d="M809.757 529.019L809.207 530.036L808.205 530.586L809.207 531.135L809.757 532.136L810.306 531.135L811.325 530.586L810.306 530.036L809.757 529.019Z" fill="black"/>
<path d="M805.473 529.019L804.908 530.036L803.905 530.586L804.908 531.135L805.473 532.136L806.023 531.135L807.025 530.586L806.023 530.036L805.473 529.019Z" fill="black"/>
<path d="M811.939 525.869L811.389 526.886L810.387 527.436L811.389 527.985L811.939 528.986L812.489 527.985L813.507 527.436L812.489 526.886L811.939 525.869Z" fill="black"/>
<path d="M807.656 525.869L807.106 526.886L806.088 527.436L807.106 527.985L807.656 528.986L808.205 527.985L809.208 527.436L808.205 526.886L807.656 525.869Z" fill="black"/>
<path d="M809.757 522.718L809.207 523.736L808.205 524.285L809.207 524.835L809.757 525.836L810.306 524.835L811.325 524.285L810.306 523.736L809.757 522.718Z" fill="black"/>
<path d="M805.473 522.718L804.908 523.736L803.905 524.285L804.908 524.835L805.473 525.836L806.023 524.835L807.025 524.285L806.023 523.736L805.473 522.718Z" fill="black"/>
<path d="M809.757 535.577L809.207 536.595L808.205 537.144L809.207 537.693L809.353 537.968L810.306 537.693L811.325 537.144L810.306 536.595L809.757 535.577Z" fill="black"/>
<path d="M805.473 535.577L804.908 536.595L803.905 537.144L804.908 537.693L805.473 538.695L806.023 537.693L807.025 537.144L806.023 536.595L805.473 535.577Z" fill="black"/>
<path d="M807.655 532.427L807.106 533.445L806.087 533.994L807.106 534.543L807.655 535.545L808.205 534.543L809.207 533.994L808.205 533.445L807.655 532.427Z" fill="black"/>
<path d="M807.655 538.469L807.106 539.47L806.087 540.02L807.106 540.585L807.655 541.587L808.205 540.585L809.207 540.02L808.205 539.47L807.655 538.469Z" fill="black"/>
<path d="M815.819 448.908L815.253 449.925L814.251 450.475L815.253 451.024L815.819 452.026L816.368 451.024L817.371 450.475L816.368 449.925L815.819 448.908Z" fill="black"/>
<path d="M818.001 445.757L817.451 446.759L816.433 447.324L817.451 447.874L818.001 448.875L818.55 447.874L819.552 447.324L818.55 446.759L818.001 445.757Z" fill="black"/>
<path d="M813.636 445.757L813.087 446.759L812.084 447.324L813.087 447.874L813.636 448.875L814.186 447.874L815.188 447.324L814.186 446.759L813.636 445.757Z" fill="black"/>
<path d="M815.819 442.607L815.253 443.609L814.251 444.174L815.253 444.724L815.819 445.725L816.368 444.724L817.371 444.174L816.368 443.609L815.819 442.607Z" fill="black"/>
<path d="M811.454 442.607L810.905 443.609L809.886 444.174L810.905 444.724L811.454 445.725L812.004 444.724L813.006 444.174L812.004 443.609L811.454 442.607Z" fill="black"/>
<path d="M818.292 442.042L818.001 442.575L817.451 441.573L816.449 441.024L816.918 440.766C817.387 441.17 817.839 441.606 818.292 442.042Z" fill="black"/>
<path d="M813.636 439.457L813.087 440.459L812.084 441.008L813.087 441.557L813.636 442.575L814.186 441.557L815.188 441.008L814.186 440.459L813.636 439.457Z" fill="black"/>
<path d="M811.454 435.854L810.905 436.856L809.886 437.421L810.905 437.971L811.454 438.972L812.004 437.971L813.006 437.421L812.004 436.856L811.454 435.854Z" fill="black"/>
<path d="M818.001 471.459L817.452 472.461L816.433 473.01L817.452 473.56L818.001 474.577L818.551 473.56L819.553 473.01L818.551 472.461L818.001 471.459Z" fill="black"/>
<path d="M815.819 468.309L815.253 469.311L814.251 469.86L815.253 470.409L815.819 471.427L816.368 470.409L817.371 469.86L816.368 469.311L815.819 468.309Z" fill="black"/>
<path d="M818.001 465.159L817.452 466.161L816.433 466.71L817.452 467.259L818.001 468.277L818.551 467.259L819.553 466.71L818.551 466.161L818.001 465.159Z" fill="black"/>
<path d="M818.001 458.713L817.452 459.731L816.433 460.28L817.452 460.83L818.001 461.831L818.551 460.83L819.553 460.28L818.551 459.731L818.001 458.713Z" fill="black"/>
<path d="M815.819 455.563L815.253 456.581L814.251 457.13L815.253 457.68L815.819 458.681L816.368 457.68L817.371 457.13L816.368 456.581L815.819 455.563Z" fill="black"/>
<path d="M818.001 452.413L817.452 453.415L816.433 453.98L817.452 454.529L818.001 455.531L818.551 454.529L819.553 453.98L818.551 453.415L818.001 452.413Z" fill="black"/>
<path d="M815.819 500.215L815.253 501.216L814.251 501.766L815.253 502.315L815.819 503.316L816.368 502.315L817.371 501.766L816.368 501.216L815.819 500.215Z" fill="black"/>
<path d="M811.454 500.215L810.905 501.216L809.886 501.766L810.905 502.315L811.454 503.316L812.004 502.315L813.006 501.766L812.004 501.216L811.454 500.215Z" fill="black"/>
<path d="M818.001 497.064L817.451 498.066L816.433 498.615L817.451 499.165L818.001 500.166L818.55 499.165L819.552 498.615L818.55 498.066L818.001 497.064Z" fill="black"/>
<path d="M813.636 497.064L813.087 498.066L812.084 498.615L813.087 499.165L813.636 500.166L814.186 499.165L815.188 498.615L814.186 498.066L813.636 497.064Z" fill="black"/>
<path d="M815.819 493.914L815.253 494.916L814.251 495.465L815.253 496.014L815.819 497.016L816.368 496.014L817.371 495.465L816.368 494.916L815.819 493.914Z" fill="black"/>
<path d="M811.454 493.914L810.905 494.916L809.886 495.465L810.905 496.014L811.454 497.016L812.004 496.014L813.006 495.465L812.004 494.916L811.454 493.914Z" fill="black"/>
<path d="M818.001 490.748L817.451 491.766L816.433 492.315L817.451 492.864L818.001 493.866L818.55 492.864L819.552 492.315L818.55 491.766L818.001 490.748Z" fill="black"/>
<path d="M813.636 490.748L813.087 491.766L812.084 492.315L813.087 492.864L813.636 493.866L814.186 492.864L815.188 492.315L814.186 491.766L813.636 490.748Z" fill="black"/>
<path d="M815.819 487.469L815.253 488.47L814.251 489.02L815.253 489.585L815.819 490.587L816.368 489.585L817.371 489.02L816.368 488.47L815.819 487.469Z" fill="black"/>
<path d="M811.454 487.469L810.905 488.47L809.886 489.02L810.905 489.585L811.454 490.587L812.004 489.585L813.006 489.02L812.004 488.47L811.454 487.469Z" fill="black"/>
<path d="M818.001 484.318L817.451 485.32L816.433 485.869L817.451 486.418L818.001 487.436L818.55 486.418L819.552 485.869L818.55 485.32L818.001 484.318Z" fill="black"/>
<path d="M813.636 484.318L813.087 485.32L812.084 485.869L813.087 486.418L813.636 487.436L814.186 486.418L815.188 485.869L814.186 485.32L813.636 484.318Z" fill="black"/>
<path d="M815.819 481.168L815.253 482.17L814.251 482.719L815.253 483.269L815.819 484.286L816.368 483.269L817.371 482.719L816.368 482.17L815.819 481.168Z" fill="black"/>
<path d="M818.001 478.018L817.451 479.02L816.433 479.569L817.451 480.118L818.001 481.136L818.55 480.118L819.552 479.569L818.55 479.02L818.001 478.018Z" fill="black"/>
<path d="M810.096 514.608C810.064 514.673 810.048 514.722 810.015 514.786L809.886 514.721L810.096 514.608Z" fill="black"/>
<path d="M811.454 506.871L810.905 507.872L809.886 508.421L810.905 508.971L811.454 509.972L812.004 508.971L813.006 508.421L812.004 507.872L811.454 506.871Z" fill="black"/>
<path d="M813.636 503.72L813.087 504.722L812.084 505.271L813.087 505.82L813.636 506.822L814.186 505.82L815.188 505.271L814.186 504.722L813.636 503.72Z" fill="black"/>
<path d="M808.803 445.757L808.253 446.759L807.251 447.324L808.253 447.874L808.803 448.875L809.352 447.874L810.355 447.324L809.352 446.759L808.803 445.757Z" fill="black"/>
<path d="M806.621 442.607L806.071 443.609L805.053 444.174L806.071 444.724L806.621 445.725L807.17 444.724L808.172 444.174L807.17 443.609L806.621 442.607Z" fill="black"/>
<path d="M808.803 439.457L808.253 440.459L807.251 441.008L808.253 441.557L808.803 442.575L809.352 441.557L810.355 441.008L809.352 440.459L808.803 439.457Z" fill="black"/>
<path d="M806.621 435.854L806.071 436.856L805.053 437.421L806.071 437.971L806.621 438.972L807.17 437.971L808.172 437.421L807.17 436.856L806.621 435.854Z" fill="black"/>
<path d="M809.078 435.321L808.803 435.822L808.318 434.917C808.577 435.046 808.836 435.175 809.078 435.321Z" fill="black"/>
<path d="M804.503 432.704L803.954 433.706L802.952 434.255L803.954 434.82L804.503 435.822L805.053 434.82L806.071 434.255L805.053 433.706L804.503 432.704Z" fill="black"/>
<path d="M807.251 498.615L808.253 499.165L808.803 500.166L809.352 499.165L810.355 498.615L809.352 498.066L808.803 497.064" fill="black"/>
<path d="M807.72 520.909C807.639 521.119 807.574 521.312 807.51 521.522L807.17 521.7L806.621 522.718L806.071 521.7L805.069 521.151L806.071 520.602L806.621 519.6L807.17 520.602L807.72 520.909Z" fill="black"/>
<path d="M809.11 517.032C808.884 517.629 808.641 518.243 808.415 518.873L808.237 518.566L807.235 518.017L808.237 517.468L808.787 516.466L809.11 517.032Z" fill="black"/>
<path d="M806.621 513.171L806.071 514.172L805.053 514.722L806.071 515.271L806.621 516.289L807.17 515.271L808.172 514.722L807.17 514.172L806.621 513.171Z" fill="black"/>
<path d="M808.803 510.021L808.253 511.022L807.251 511.571L808.253 512.121L808.803 513.122L809.352 512.121L810.355 511.571L809.352 511.022L808.803 510.021Z" fill="black"/>
<path d="M806.621 506.871L806.071 507.872L805.053 508.421L806.071 508.971L806.621 509.972L807.17 508.971L808.172 508.421L807.17 507.872L806.621 506.871Z" fill="black"/>
<path d="M808.803 503.72L808.253 504.722L807.251 505.271L808.253 505.82L808.803 506.822L809.352 505.82L810.355 505.271L809.352 504.722L808.803 503.72Z" fill="black"/>
</svg>
