<svg width="398" height="485" viewBox="0 0 398 485" fill="none" xmlns="http://www.w3.org/2000/svg">
<path d="M291.938 290.822H331.599C346.637 290.822 358.942 303.109 358.942 318.124C358.942 333.139 346.637 345.426 331.599 345.426H208.741" stroke="black" stroke-width="3" stroke-miterlimit="10"/>
<path d="M318.776 290.822H294.382C275.299 290.822 259.67 275.23 259.67 256.163V193.264" stroke="black" stroke-width="3" stroke-miterlimit="10" stroke-linecap="round" stroke-linejoin="round"/>
<path d="M385.19 328.451C379.603 323.161 370.789 323.402 365.492 328.98C360.194 334.558 360.435 343.358 366.022 348.648C371.608 353.937 396.194 358.025 396.194 358.025C396.194 358.025 390.776 333.74 385.19 328.451Z" fill="#00D384" stroke="black" stroke-width="3" stroke-miterlimit="10" stroke-linecap="round" stroke-linejoin="round"/>
<path d="M374.197 338.381C374.197 338.381 373.246 333.32 365.492 328.992" stroke="black" stroke-width="3" stroke-miterlimit="10" stroke-linecap="round" stroke-linejoin="round"/>
<path d="M366.334 329.208C366.142 329.028 365.961 328.859 365.78 328.691C363.023 326.058 360.904 323.63 359.279 321.478" stroke="black" stroke-width="3" stroke-miterlimit="10" stroke-linecap="round" stroke-linejoin="round"/>
<path d="M371.499 303.505C367.526 306.403 366.659 311.969 369.561 315.924C372.462 319.891 378.037 320.757 381.998 317.859C385.959 314.962 391.378 300.007 391.378 300.007C391.378 300.007 375.472 300.608 371.499 303.505Z" fill="#00D384" stroke="black" stroke-width="3" stroke-miterlimit="10" stroke-linecap="round" stroke-linejoin="round"/>
<path d="M375.256 312.329C375.256 312.329 369.91 314.517 369.561 315.936" stroke="black" stroke-width="3" stroke-miterlimit="10" stroke-linecap="round" stroke-linejoin="round"/>
<path d="M369.934 315.154C369.729 315.311 369.513 315.455 369.32 315.599C366.226 317.823 364.504 318.941 362.084 320.143" stroke="black" stroke-width="3" stroke-miterlimit="10" stroke-linecap="round" stroke-linejoin="round"/>
<path d="M313.935 48.8211V190.271C313.935 197.989 307.662 204.252 299.933 204.252H82.8483C75.1064 204.252 68.8335 197.989 68.8335 190.271V48.8211C68.8335 40.7064 75.4195 34.1304 83.5345 34.1304H299.234C307.361 34.1304 313.935 40.7064 313.935 48.8211Z" fill="white" stroke="black" stroke-width="3" stroke-miterlimit="10" stroke-linecap="round" stroke-linejoin="round"/>
<path d="M313.935 48.8212V57.525H68.8335V48.8212C68.8335 40.7064 75.4195 34.1304 83.5345 34.1304H299.234C307.361 34.1304 313.935 40.7064 313.935 48.8212Z" fill="#ED684A" stroke="black" stroke-width="3" stroke-miterlimit="10" stroke-linecap="round" stroke-linejoin="round"/>
<path d="M323.507 58.2946V199.744C323.507 207.462 317.234 213.726 309.504 213.726H92.408C86.0508 213.726 80.6809 209.494 78.9712 203.7C80.1993 204.06 81.4996 204.241 82.8481 204.241H299.945C307.674 204.241 313.947 197.977 313.947 190.259V48.8093C313.947 47.2344 313.694 45.7076 313.237 44.2891C319.185 46.1765 323.507 51.7306 323.507 58.2946Z" fill="black" stroke="black" stroke-width="3" stroke-miterlimit="10"/>
<path d="M107.242 49.6868C109.349 49.6868 111.058 47.9806 111.058 45.8759C111.058 43.7712 109.349 42.0649 107.242 42.0649C105.134 42.0649 103.425 43.7712 103.425 45.8759C103.425 47.9806 105.134 49.6868 107.242 49.6868Z" fill="black"/>
<path d="M121.63 49.6868C123.738 49.6868 125.446 47.9806 125.446 45.8759C125.446 43.7712 123.738 42.0649 121.63 42.0649C119.522 42.0649 117.813 43.7712 117.813 45.8759C117.813 47.9806 119.522 49.6868 121.63 49.6868Z" fill="black"/>
<path d="M92.5526 49.6868C94.6605 49.6868 96.3693 47.9806 96.3693 45.8759C96.3693 43.7712 94.6605 42.0649 92.5526 42.0649C90.4447 42.0649 88.7358 43.7712 88.7358 45.8759C88.7358 47.9806 90.4447 49.6868 92.5526 49.6868Z" fill="black"/>
<path d="M315.645 57.5249H68.8457" stroke="black" stroke-width="3" stroke-miterlimit="10"/>
<path d="M312.057 197.184L312.43 197.881L313.129 198.254L312.43 198.638L312.057 199.324L311.684 198.638L310.985 198.254L311.684 197.881L312.057 197.184Z" fill="black"/>
<path d="M297.139 83.9014L297.982 82.3385L299.548 81.485L297.982 80.6434L297.139 79.0806L296.285 80.6434L294.731 81.485L296.285 82.3385L297.139 83.9014Z" fill="black"/>
<path d="M303.774 83.9014L304.629 82.3385L306.182 81.485L304.629 80.6434L303.774 79.0806L302.919 80.6434L301.366 81.485L302.919 82.3385L303.774 83.9014Z" fill="black"/>
<path d="M310.516 83.9014L311.371 82.3385L312.924 81.485L311.371 80.6434L310.516 79.0806L309.661 80.6434L308.108 81.485L309.661 82.3385L310.516 83.9014Z" fill="black"/>
<path d="M293.756 88.758L294.611 87.2072L296.164 86.3536L294.611 85.5121L293.756 83.9492L292.901 85.5121L291.348 86.3536L292.901 87.2072L293.756 88.758Z" fill="black"/>
<path d="M300.39 88.758L301.245 87.2072L302.798 86.3536L301.245 85.5121L300.39 83.9492L299.548 85.5121L297.982 86.3536L299.548 87.2072L300.39 88.758Z" fill="black"/>
<path d="M307.133 88.758L307.988 87.2072L309.541 86.3536L307.988 85.5121L307.133 83.9492L306.29 85.5121L304.725 86.3536L306.29 87.2072L307.133 88.758Z" fill="black"/>
<path d="M297.139 93.6271L297.982 92.0763L299.548 91.2227L297.982 90.3812L297.139 88.8184L296.285 90.3812L294.731 91.2227L296.285 92.0763L297.139 93.6271Z" fill="black"/>
<path d="M303.774 93.6271L304.629 92.0763L306.182 91.2227L304.629 90.3812L303.774 88.8184L302.919 90.3812L301.366 91.2227L302.919 92.0763L303.774 93.6271Z" fill="black"/>
<path d="M310.516 93.6271L311.371 92.0763L312.924 91.2227L311.371 90.3812L310.516 88.8184L309.661 90.3812L308.108 91.2227L309.661 92.0763L310.516 93.6271Z" fill="black"/>
<path d="M293.756 98.4958L294.611 96.945L296.164 96.0914L294.611 95.2499L293.756 93.687L292.901 95.2499L291.348 96.0914L292.901 96.945L293.756 98.4958Z" fill="black"/>
<path d="M300.39 98.4958L301.245 96.945L302.798 96.0914L301.245 95.2499L300.39 93.687L299.548 95.2499L297.982 96.0914L299.548 96.945L300.39 98.4958Z" fill="black"/>
<path d="M307.133 98.4958L307.988 96.945L309.541 96.0914L307.988 95.2499L307.133 93.687L306.29 95.2499L304.725 96.0914L306.29 96.945L307.133 98.4958Z" fill="black"/>
<path d="M297.139 103.569L297.982 102.018L299.548 101.165L297.982 100.323L297.139 98.7603L296.285 100.323L294.731 101.165L296.285 102.018L297.139 103.569Z" fill="black"/>
<path d="M303.774 103.569L304.629 102.018L306.182 101.165L304.629 100.323L303.774 98.7603L302.919 100.323L301.366 101.165L302.919 102.018L303.774 103.569Z" fill="black"/>
<path d="M310.516 103.569L311.371 102.018L312.924 101.165L311.371 100.323L310.516 98.7603L309.661 100.323L308.108 101.165L309.661 102.018L310.516 103.569Z" fill="black"/>
<path d="M293.756 108.438L294.611 106.887L296.164 106.034L294.611 105.192L293.756 103.629L292.901 105.192L291.348 106.034L292.901 106.887L293.756 108.438Z" fill="black"/>
<path d="M300.39 108.438L301.245 106.887L302.798 106.034L301.245 105.192L300.39 103.629L299.548 105.192L297.982 106.034L299.548 106.887L300.39 108.438Z" fill="black"/>
<path d="M307.133 108.438L307.988 106.887L309.541 106.034L307.988 105.192L307.133 103.629L306.29 105.192L304.725 106.034L306.29 106.887L307.133 108.438Z" fill="black"/>
<path d="M297.139 44.3488L297.982 42.798L299.548 41.9444L297.982 41.1029L297.139 39.54L296.285 41.1029L294.731 41.9444L296.285 42.798L297.139 44.3488Z" fill="black"/>
<path d="M303.774 44.3488L304.629 42.798L306.182 41.9444L304.629 41.1029L303.774 39.54L302.919 41.1029L301.366 41.9444L302.919 42.798L303.774 44.3488Z" fill="black"/>
<path d="M310.516 44.3488L311.371 42.798L312.924 41.9444L311.371 41.1029L310.516 39.54L309.661 41.1029L308.108 41.9444L309.661 42.798L310.516 44.3488Z" fill="black"/>
<path d="M293.756 49.2175L294.611 47.6666L296.164 46.8131L294.611 45.9595L293.756 44.4087L292.901 45.9595L291.348 46.8131L292.901 47.6666L293.756 49.2175Z" fill="black"/>
<path d="M300.39 49.2175L301.245 47.6666L302.798 46.8131L301.245 45.9595L300.39 44.4087L299.548 45.9595L297.982 46.8131L299.548 47.6666L300.39 49.2175Z" fill="black"/>
<path d="M307.133 49.2175L307.988 47.6666L309.541 46.8131L307.988 45.9595L307.133 44.4087L306.29 45.9595L304.725 46.8131L306.29 47.6666L307.133 49.2175Z" fill="black"/>
<path d="M297.139 54.0866L297.982 52.5358L299.548 51.6822L297.982 50.8287L297.139 49.2778L296.285 50.8287L294.731 51.6822L296.285 52.5358L297.139 54.0866Z" fill="black"/>
<path d="M303.774 54.0866L304.629 52.5358L306.182 51.6822L304.629 50.8287L303.774 49.2778L302.919 50.8287L301.366 51.6822L302.919 52.5358L303.774 54.0866Z" fill="black"/>
<path d="M310.516 54.0866L311.371 52.5358L312.924 51.6822L311.371 50.8287L310.516 49.2778L309.661 50.8287L308.108 51.6822L309.661 52.5358L310.516 54.0866Z" fill="black"/>
<path d="M293.756 58.9552L294.611 57.4044L296.164 56.5509L294.611 55.6973L293.756 54.1465L292.901 55.6973L291.348 56.5509L292.901 57.4044L293.756 58.9552Z" fill="black"/>
<path d="M300.39 58.9552L301.245 57.4044L302.798 56.5509L301.245 55.6973L300.39 54.1465L299.548 55.6973L297.982 56.5509L299.548 57.4044L300.39 58.9552Z" fill="black"/>
<path d="M307.133 58.9552L307.988 57.4044L309.541 56.5509L307.988 55.6973L307.133 54.1465L306.29 55.6973L304.725 56.5509L306.29 57.4044L307.133 58.9552Z" fill="black"/>
<path d="M297.139 64.029L297.982 62.4782L299.548 61.6246L297.982 60.771L297.139 59.2202L296.285 60.771L294.731 61.6246L296.285 62.4782L297.139 64.029Z" fill="black"/>
<path d="M303.774 64.029L304.629 62.4782L306.182 61.6246L304.629 60.771L303.774 59.2202L302.919 60.771L301.366 61.6246L302.919 62.4782L303.774 64.029Z" fill="black"/>
<path d="M310.516 64.029L311.371 62.4782L312.924 61.6246L311.371 60.771L310.516 59.2202L309.661 60.771L308.108 61.6246L309.661 62.4782L310.516 64.029Z" fill="black"/>
<path d="M293.756 68.8976L294.611 67.3468L296.164 66.4933L294.611 65.6397L293.756 64.0889L292.901 65.6397L291.348 66.4933L292.901 67.3468L293.756 68.8976Z" fill="black"/>
<path d="M300.39 68.8976L301.245 67.3468L302.798 66.4933L301.245 65.6397L300.39 64.0889L299.548 65.6397L297.982 66.4933L299.548 67.3468L300.39 68.8976Z" fill="black"/>
<path d="M307.133 68.8976L307.988 67.3468L309.541 66.4933L307.988 65.6397L307.133 64.0889L306.29 65.6397L304.725 66.4933L306.29 67.3468L307.133 68.8976Z" fill="black"/>
<path d="M297.139 73.7663L297.982 72.2154L299.548 71.3619L297.982 70.5083L297.139 68.9575L296.285 70.5083L294.731 71.3619L296.285 72.2154L297.139 73.7663Z" fill="black"/>
<path d="M303.774 73.7663L304.629 72.2154L306.182 71.3619L304.629 70.5083L303.774 68.9575L302.919 70.5083L301.366 71.3619L302.919 72.2154L303.774 73.7663Z" fill="black"/>
<path d="M310.516 73.7663L311.371 72.2154L312.924 71.3619L311.371 70.5083L310.516 68.9575L309.661 70.5083L308.108 71.3619L309.661 72.2154L310.516 73.7663Z" fill="black"/>
<path d="M293.756 78.6354L294.611 77.0846L296.164 76.231L294.611 75.3775L293.756 73.8267L292.901 75.3775L291.348 76.231L292.901 77.0846L293.756 78.6354Z" fill="black"/>
<path d="M300.39 78.6354L301.245 77.0846L302.798 76.231L301.245 75.3775L300.39 73.8267L299.548 75.3775L297.982 76.231L299.548 77.0846L300.39 78.6354Z" fill="black"/>
<path d="M307.133 78.6354L307.988 77.0846L309.541 76.231L307.988 75.3775L307.133 73.8267L306.29 75.3775L304.725 76.231L306.29 77.0846L307.133 78.6354Z" fill="black"/>
<path d="M293.756 38.9391L294.611 37.3883L296.164 36.5348L294.611 35.6812L293.756 34.1304L292.901 35.6812L291.348 36.5348L292.901 37.3883L293.756 38.9391Z" fill="black"/>
<path d="M300.39 38.9391L301.245 37.3883L302.798 36.5348L301.245 35.6812L300.39 34.1304L299.548 35.6812L297.982 36.5348L299.548 37.3883L300.39 38.9391Z" fill="black"/>
<path d="M307.133 38.9391L307.988 37.3883L309.541 36.5348L307.988 35.6812L307.133 34.1304L306.29 35.6812L304.725 36.5348L306.29 37.3883L307.133 38.9391Z" fill="black"/>
<path d="M318.222 83.9014L319.064 82.3385L320.63 81.4849L319.064 80.6434L318.222 79.0806L317.367 80.6434L315.813 81.4849L317.367 82.3385L318.222 83.9014Z" fill="black"/>
<path d="M314.838 88.758L315.693 87.2072L317.246 86.3536L315.693 85.5121L314.838 83.9492L313.983 85.5121L312.43 86.3536L313.983 87.2072L314.838 88.758Z" fill="black"/>
<path d="M321.472 88.758L322.327 87.2072L323.881 86.3536L322.327 85.5121L321.472 83.9492L320.63 85.5121L319.064 86.3536L320.63 87.2072L321.472 88.758Z" fill="black"/>
<path d="M318.222 93.6271L319.064 92.0763L320.63 91.2227L319.064 90.3812L318.222 88.8184L317.367 90.3812L315.813 91.2227L317.367 92.0763L318.222 93.6271Z" fill="black"/>
<path d="M314.838 98.4958L315.693 96.945L317.246 96.0914L315.693 95.2499L314.838 93.687L313.983 95.2499L312.43 96.0914L313.983 96.945L314.838 98.4958Z" fill="black"/>
<path d="M321.472 98.4958L322.327 96.945L323.881 96.0914L322.327 95.2499L321.472 93.687L320.63 95.2499L319.064 96.0914L320.63 96.945L321.472 98.4958Z" fill="black"/>
<path d="M318.222 103.57L319.064 102.019L320.63 101.165L319.064 100.324L318.222 98.7607L317.367 100.324L315.813 101.165L317.367 102.019L318.222 103.57Z" fill="black"/>
<path d="M314.838 108.438L315.693 106.887L317.246 106.034L315.693 105.192L314.838 103.629L313.983 105.192L312.43 106.034L313.983 106.887L314.838 108.438Z" fill="black"/>
<path d="M321.472 108.438L322.327 106.887L323.881 106.034L322.327 105.192L321.472 103.629L320.63 105.192L319.064 106.034L320.63 106.887L321.472 108.438Z" fill="black"/>
<path d="M314.838 49.2179L315.693 47.6671L317.246 46.8136L315.693 45.96L314.838 44.4092L313.983 45.96L312.43 46.8136L313.983 47.6671L314.838 49.2179Z" fill="black"/>
<path d="M318.222 54.0866L319.064 52.5358L320.63 51.6822L319.064 50.8287L318.222 49.2778L317.367 50.8287L315.813 51.6822L317.367 52.5358L318.222 54.0866Z" fill="black"/>
<path d="M314.838 58.9557L315.693 57.4049L317.246 56.5514L315.693 55.6978L314.838 54.147L313.983 55.6978L312.43 56.5514L313.983 57.4049L314.838 58.9557Z" fill="black"/>
<path d="M321.472 58.9557L322.327 57.4049L323.881 56.5514L322.327 55.6978L321.472 54.147L320.63 55.6978L319.064 56.5514L320.63 57.4049L321.472 58.9557Z" fill="black"/>
<path d="M318.222 64.029L319.064 62.4781L320.63 61.6246L319.064 60.771L318.222 59.2202L317.367 60.771L315.813 61.6246L317.367 62.4781L318.222 64.029Z" fill="black"/>
<path d="M314.838 68.8976L315.693 67.3468L317.246 66.4933L315.693 65.6397L314.838 64.0889L313.983 65.6397L312.43 66.4933L313.983 67.3468L314.838 68.8976Z" fill="black"/>
<path d="M321.472 68.8976L322.327 67.3468L323.881 66.4933L322.327 65.6397L321.472 64.0889L320.63 65.6397L319.064 66.4933L320.63 67.3468L321.472 68.8976Z" fill="black"/>
<path d="M318.222 73.7668L319.064 72.2159L320.63 71.3624L319.064 70.5088L318.222 68.958L317.367 70.5088L315.813 71.3624L317.367 72.2159L318.222 73.7668Z" fill="black"/>
<path d="M314.838 78.6354L315.693 77.0846L317.246 76.231L315.693 75.3775L314.838 73.8267L313.983 75.3775L312.43 76.231L313.983 77.0846L314.838 78.6354Z" fill="black"/>
<path d="M321.472 78.6354L322.327 77.0846L323.881 76.231L322.327 75.3775L321.472 73.8267L320.63 75.3775L319.064 76.231L320.63 77.0846L321.472 78.6354Z" fill="black"/>
<path d="M318.198 128.634L317.355 130.185L315.79 131.039L317.355 131.88L318.198 133.443L319.053 131.88L320.618 131.039L319.053 130.185L318.198 128.634Z" fill="black"/>
<path d="M311.467 128.634L310.613 130.185L309.047 131.039L310.613 131.88L311.467 133.443L312.31 131.88L313.875 131.039L312.31 130.185L311.467 128.634Z" fill="black"/>
<path d="M321.581 123.766L320.727 125.316L319.173 126.17L320.727 127.012L321.581 128.574L322.436 127.012L323.989 126.17L322.436 125.316L321.581 123.766Z" fill="black"/>
<path d="M314.839 123.766L313.984 125.316L312.431 126.17L313.984 127.012L314.839 128.574L315.694 127.012L317.247 126.17L315.694 125.316L314.839 123.766Z" fill="black"/>
<path d="M318.198 118.896L317.355 120.447L315.79 121.301L317.355 122.154L318.198 123.705L319.053 122.154L320.618 121.301L319.053 120.447L318.198 118.896Z" fill="black"/>
<path d="M311.467 118.896L310.613 120.447L309.047 121.301L310.613 122.154L311.467 123.705L312.31 122.154L313.875 121.301L312.31 120.447L311.467 118.896Z" fill="black"/>
<path d="M321.581 114.028L320.727 115.579L319.173 116.432L320.727 117.286L321.581 118.837L322.436 117.286L323.989 116.432L322.436 115.579L321.581 114.028Z" fill="black"/>
<path d="M314.839 114.028L313.984 115.579L312.431 116.432L313.984 117.286L314.839 118.837L315.694 117.286L317.247 116.432L315.694 115.579L314.839 114.028Z" fill="black"/>
<path d="M318.198 108.955L317.355 110.505L315.79 111.359L317.355 112.201L318.198 113.763L319.053 112.201L320.618 111.359L319.053 110.505L318.198 108.955Z" fill="black"/>
<path d="M311.467 108.955L310.613 110.505L309.047 111.359L310.613 112.201L311.467 113.763L312.31 112.201L313.875 111.359L312.31 110.505L311.467 108.955Z" fill="black"/>
<path d="M318.198 168.175L317.355 169.726L315.79 170.579L317.355 171.433L318.198 172.984L319.053 171.433L320.618 170.579L319.053 169.726L318.198 168.175Z" fill="black"/>
<path d="M311.467 168.175L310.613 169.726L309.047 170.579L310.613 171.433L311.467 172.984L312.31 171.433L313.875 170.579L312.31 169.726L311.467 168.175Z" fill="black"/>
<path d="M321.581 163.306L320.727 164.857L319.173 165.71L320.727 166.564L321.581 168.114L322.436 166.564L323.989 165.71L322.436 164.857L321.581 163.306Z" fill="black"/>
<path d="M314.839 163.306L313.984 164.857L312.431 165.71L313.984 166.564L314.839 168.114L315.694 166.564L317.247 165.71L315.694 164.857L314.839 163.306Z" fill="black"/>
<path d="M318.198 158.437L317.355 159.988L315.79 160.841L317.355 161.695L318.198 163.246L319.053 161.695L320.618 160.841L319.053 159.988L318.198 158.437Z" fill="black"/>
<path d="M311.467 158.437L310.613 159.988L309.047 160.841L310.613 161.695L311.467 163.246L312.31 161.695L313.875 160.841L312.31 159.988L311.467 158.437Z" fill="black"/>
<path d="M321.581 153.568L320.727 155.119L319.173 155.973L320.727 156.826L321.581 158.377L322.436 156.826L323.989 155.973L322.436 155.119L321.581 153.568Z" fill="black"/>
<path d="M314.839 153.568L313.984 155.119L312.431 155.973L313.984 156.826L314.839 158.377L315.694 156.826L317.247 155.973L315.694 155.119L314.839 153.568Z" fill="black"/>
<path d="M318.198 148.495L317.355 150.045L315.79 150.899L317.355 151.753L318.198 153.303L319.053 151.753L320.618 150.899L319.053 150.045L318.198 148.495Z" fill="black"/>
<path d="M311.467 148.495L310.613 150.045L309.047 150.899L310.613 151.753L311.467 153.303L312.31 151.753L313.875 150.899L312.31 150.045L311.467 148.495Z" fill="black"/>
<path d="M321.581 143.626L320.727 145.177L319.173 146.03L320.727 146.884L321.581 148.435L322.436 146.884L323.989 146.03L322.436 145.177L321.581 143.626Z" fill="black"/>
<path d="M314.839 143.626L313.984 145.177L312.431 146.03L313.984 146.884L314.839 148.435L315.694 146.884L317.247 146.03L315.694 145.177L314.839 143.626Z" fill="black"/>
<path d="M318.198 138.757L317.355 140.308L315.79 141.161L317.355 142.015L318.198 143.566L319.053 142.015L320.618 141.161L319.053 140.308L318.198 138.757Z" fill="black"/>
<path d="M311.467 138.757L310.613 140.308L309.047 141.161L310.613 142.015L311.467 143.566L312.31 142.015L313.875 141.161L312.31 140.308L311.467 138.757Z" fill="black"/>
<path d="M321.581 133.888L320.727 135.451L319.173 136.293L320.727 137.146L321.581 138.697L322.436 137.146L323.989 136.293L322.436 135.451L321.581 133.888Z" fill="black"/>
<path d="M314.839 133.888L313.984 135.451L312.431 136.293L313.984 137.146L314.839 138.697L315.694 137.146L317.247 136.293L315.694 135.451L314.839 133.888Z" fill="black"/>
<path d="M321.581 173.584L320.727 175.135L319.173 175.989L320.727 176.842L321.581 178.393L322.436 176.842L323.989 175.989L322.436 175.135L321.581 173.584Z" fill="black"/>
<path d="M314.839 173.584L313.984 175.135L312.431 175.989L313.984 176.842L314.839 178.393L315.694 176.842L317.247 175.989L315.694 175.135L314.839 173.584Z" fill="black"/>
<path d="M303.762 128.635L302.907 130.186L301.354 131.039L302.907 131.881L303.762 133.444L304.604 131.881L306.17 131.039L304.604 130.186L303.762 128.635Z" fill="black"/>
<path d="M297.116 128.635L296.273 130.186L294.708 131.039L296.273 131.881L297.116 133.444L297.97 131.881L299.524 131.039L297.97 130.186L297.116 128.635Z" fill="black"/>
<path d="M307.133 123.766L306.29 125.316L304.725 126.17L306.29 127.012L307.133 128.574L307.988 127.012L309.541 126.17L307.988 125.316L307.133 123.766Z" fill="black"/>
<path d="M300.499 123.766L299.644 125.316L298.091 126.17L299.644 127.012L300.499 128.574L301.354 127.012L302.907 126.17L301.354 125.316L300.499 123.766Z" fill="black"/>
<path d="M293.756 123.766L292.901 125.316L291.348 126.17L292.901 127.012L293.756 128.574L294.611 127.012L296.164 126.17L294.611 125.316L293.756 123.766Z" fill="black"/>
<path d="M303.762 118.896L302.907 120.447L301.354 121.301L302.907 122.154L303.762 123.705L304.604 122.154L306.17 121.301L304.604 120.447L303.762 118.896Z" fill="black"/>
<path d="M297.116 118.896L296.273 120.447L294.708 121.301L296.273 122.154L297.116 123.705L297.97 122.154L299.524 121.301L297.97 120.447L297.116 118.896Z" fill="black"/>
<path d="M307.133 114.028L306.29 115.579L304.725 116.432L306.29 117.286L307.133 118.837L307.988 117.286L309.541 116.432L307.988 115.579L307.133 114.028Z" fill="black"/>
<path d="M300.499 114.028L299.644 115.579L298.091 116.432L299.644 117.286L300.499 118.837L301.354 117.286L302.907 116.432L301.354 115.579L300.499 114.028Z" fill="black"/>
<path d="M293.756 114.028L292.901 115.579L291.348 116.432L292.901 117.286L293.756 118.837L294.611 117.286L296.164 116.432L294.611 115.579L293.756 114.028Z" fill="black"/>
<path d="M303.762 108.955L302.907 110.505L301.354 111.359L302.907 112.201L303.762 113.763L304.604 112.201L306.17 111.359L304.604 110.505L303.762 108.955Z" fill="black"/>
<path d="M297.116 108.955L296.273 110.505L294.708 111.359L296.273 112.201L297.116 113.763L297.97 112.201L299.524 111.359L297.97 110.505L297.116 108.955Z" fill="black"/>
<path d="M303.762 168.175L302.907 169.726L301.354 170.579L302.907 171.433L303.762 172.984L304.604 171.433L306.17 170.579L304.604 169.726L303.762 168.175Z" fill="black"/>
<path d="M297.116 168.175L296.273 169.726L294.708 170.579L296.273 171.433L297.116 172.984L297.97 171.433L299.524 170.579L297.97 169.726L297.116 168.175Z" fill="black"/>
<path d="M307.133 163.306L306.29 164.857L304.725 165.71L306.29 166.564L307.133 168.114L307.988 166.564L309.541 165.71L307.988 164.857L307.133 163.306Z" fill="black"/>
<path d="M300.499 163.306L299.644 164.857L298.091 165.71L299.644 166.564L300.499 168.114L301.354 166.564L302.907 165.71L301.354 164.857L300.499 163.306Z" fill="black"/>
<path d="M293.756 163.306L292.901 164.857L291.348 165.71L292.901 166.564L293.756 168.114L294.611 166.564L296.164 165.71L294.611 164.857L293.756 163.306Z" fill="black"/>
<path d="M303.762 158.437L302.907 159.988L301.354 160.841L302.907 161.695L303.762 163.246L304.604 161.695L306.17 160.841L304.604 159.988L303.762 158.437Z" fill="black"/>
<path d="M297.116 158.437L296.273 159.988L294.708 160.841L296.273 161.695L297.116 163.246L297.97 161.695L299.524 160.841L297.97 159.988L297.116 158.437Z" fill="black"/>
<path d="M307.133 153.568L306.29 155.119L304.725 155.973L306.29 156.826L307.133 158.377L307.988 156.826L309.541 155.973L307.988 155.119L307.133 153.568Z" fill="black"/>
<path d="M300.499 153.568L299.644 155.119L298.091 155.973L299.644 156.826L300.499 158.377L301.354 156.826L302.907 155.973L301.354 155.119L300.499 153.568Z" fill="black"/>
<path d="M293.756 153.568L292.901 155.119L291.348 155.973L292.901 156.826L293.756 158.377L294.611 156.826L296.164 155.973L294.611 155.119L293.756 153.568Z" fill="black"/>
<path d="M303.762 148.495L302.907 150.045L301.354 150.899L302.907 151.753L303.762 153.303L304.604 151.753L306.17 150.899L304.604 150.045L303.762 148.495Z" fill="black"/>
<path d="M297.116 148.495L296.273 150.045L294.708 150.899L296.273 151.753L297.116 153.303L297.97 151.753L299.524 150.899L297.97 150.045L297.116 148.495Z" fill="black"/>
<path d="M307.133 143.626L306.29 145.177L304.725 146.03L306.29 146.884L307.133 148.435L307.988 146.884L309.541 146.03L307.988 145.177L307.133 143.626Z" fill="black"/>
<path d="M300.499 143.626L299.644 145.177L298.091 146.03L299.644 146.884L300.499 148.435L301.354 146.884L302.907 146.03L301.354 145.177L300.499 143.626Z" fill="black"/>
<path d="M293.756 143.626L292.901 145.177L291.348 146.03L292.901 146.884L293.756 148.435L294.611 146.884L296.164 146.03L294.611 145.177L293.756 143.626Z" fill="black"/>
<path d="M303.762 138.757L302.907 140.308L301.354 141.161L302.907 142.015L303.762 143.566L304.604 142.015L306.17 141.161L304.604 140.308L303.762 138.757Z" fill="black"/>
<path d="M297.116 138.757L296.273 140.308L294.708 141.161L296.273 142.015L297.116 143.566L297.97 142.015L299.524 141.161L297.97 140.308L297.116 138.757Z" fill="black"/>
<path d="M307.133 133.888L306.29 135.451L304.725 136.293L306.29 137.146L307.133 138.697L307.988 137.146L309.541 136.293L307.988 135.451L307.133 133.888Z" fill="black"/>
<path d="M300.499 133.888L299.644 135.451L298.091 136.293L299.644 137.146L300.499 138.697L301.354 137.146L302.907 136.293L301.354 135.451L300.499 133.888Z" fill="black"/>
<path d="M293.756 133.888L292.901 135.451L291.348 136.293L292.901 137.146L293.756 138.697L294.611 137.146L296.164 136.293L294.611 135.451L293.756 133.888Z" fill="black"/>
<path d="M307.133 173.584L306.29 175.135L304.725 175.989L306.29 176.842L307.133 178.393L307.988 176.842L309.541 175.989L307.988 175.135L307.133 173.584Z" fill="black"/>
<path d="M300.499 173.584L299.644 175.135L298.091 175.989L299.644 176.842L300.499 178.393L301.354 176.842L302.907 175.989L301.354 175.135L300.499 173.584Z" fill="black"/>
<path d="M293.756 173.584L292.901 175.135L291.348 175.989L292.901 176.842L293.756 178.393L294.611 176.842L296.164 175.989L294.611 175.135L293.756 173.584Z" fill="black"/>
<path d="M293.756 189.37L294.611 187.807L296.164 186.965L294.611 186.112L293.756 184.561L292.901 186.112L291.348 186.965L292.901 187.807L293.756 189.37Z" fill="black"/>
<path d="M300.39 189.37L301.245 187.807L302.798 186.965L301.245 186.112L300.39 184.561L299.548 186.112L297.982 186.965L299.548 187.807L300.39 189.37Z" fill="black"/>
<path d="M307.133 189.37L307.988 187.807L309.541 186.965L307.988 186.112L307.133 184.561L306.29 186.112L304.725 186.965L306.29 187.807L307.133 189.37Z" fill="black"/>
<path d="M290.373 194.238L291.228 192.676L292.781 191.834L291.228 190.981L290.373 189.43L289.53 190.981L287.965 191.834L289.53 192.676L290.373 194.238Z" fill="black"/>
<path d="M297.019 194.238L297.874 192.676L299.427 191.834L297.874 190.981L297.019 189.43L296.164 190.981L294.611 191.834L296.164 192.676L297.019 194.238Z" fill="black"/>
<path d="M303.762 194.238L304.604 192.676L306.17 191.834L304.604 190.981L303.762 189.43L302.907 190.981L301.354 191.834L302.907 192.676L303.762 194.238Z" fill="black"/>
<path d="M293.756 199.107L294.611 197.545L296.164 196.703L294.611 195.849L293.756 194.287L292.901 195.849L291.348 196.703L292.901 197.545L293.756 199.107Z" fill="black"/>
<path d="M300.39 199.107L301.245 197.545L302.798 196.703L301.245 195.849L300.39 194.287L299.548 195.849L297.982 196.703L299.548 197.545L300.39 199.107Z" fill="black"/>
<path d="M307.133 199.107L307.988 197.545L309.541 196.703L307.988 195.849L307.133 194.287L306.29 195.849L304.725 196.703L306.29 197.545L307.133 199.107Z" fill="black"/>
<path d="M290.373 203.977L291.228 202.414L292.781 201.572L291.228 200.719L290.373 199.156L289.53 200.719L287.965 201.572L289.53 202.414L290.373 203.977Z" fill="black"/>
<path d="M297.019 203.977L297.874 202.414L299.427 201.572L297.874 200.719L297.019 199.156L296.164 200.719L294.611 201.572L296.164 202.414L297.019 203.977Z" fill="black"/>
<path d="M303.762 203.977L304.604 202.414L306.17 201.572L304.604 200.719L303.762 199.156L302.907 200.719L301.354 201.572L302.907 202.414L303.762 203.977Z" fill="black"/>
<path d="M293.756 209.05L294.611 207.487L296.164 206.646L294.611 205.792L293.756 204.241L292.901 205.792L291.348 206.646L292.901 207.487L293.756 209.05Z" fill="black"/>
<path d="M300.39 209.05L301.245 207.487L302.798 206.646L301.245 205.792L300.39 204.241L299.548 205.792L297.982 206.646L299.548 207.487L300.39 209.05Z" fill="black"/>
<path d="M307.133 209.05L307.988 207.487L309.541 206.646L307.988 205.792L307.133 204.241L306.29 205.792L304.725 206.646L306.29 207.487L307.133 209.05Z" fill="black"/>
<path d="M290.373 213.919L291.228 212.356L292.781 211.514L291.228 210.661L290.373 209.11L289.53 210.661L287.965 211.514L289.53 212.356L290.373 213.919Z" fill="black"/>
<path d="M297.019 213.919L297.874 212.356L299.427 211.514L297.874 210.661L297.019 209.11L296.164 210.661L294.611 211.514L296.164 212.356L297.019 213.919Z" fill="black"/>
<path d="M303.762 213.919L304.604 212.356L306.17 211.514L304.604 210.661L303.762 209.11L302.907 210.661L301.354 211.514L302.907 212.356L303.762 213.919Z" fill="black"/>
<path d="M290.373 183.96L291.228 182.397L292.781 181.555L291.228 180.702L290.373 179.151L289.53 180.702L287.965 181.555L289.53 182.397L290.373 183.96Z" fill="black"/>
<path d="M297.019 183.96L297.874 182.397L299.427 181.555L297.874 180.702L297.019 179.151L296.164 180.702L294.611 181.555L296.164 182.397L297.019 183.96Z" fill="black"/>
<path d="M303.762 183.96L304.604 182.397L306.17 181.555L304.604 180.702L303.762 179.151L302.907 180.702L301.354 181.555L302.907 182.397L303.762 183.96Z" fill="black"/>
<path d="M314.838 189.369L315.693 187.806L317.246 186.965L315.693 186.111L314.838 184.561L313.983 186.111L312.43 186.965L313.983 187.806L314.838 189.369Z" fill="black"/>
<path d="M321.473 189.369L322.327 187.806L323.881 186.965L322.327 186.111L321.473 184.561L320.63 186.111L319.064 186.965L320.63 187.806L321.473 189.369Z" fill="black"/>
<path d="M311.467 194.238L312.31 192.675L313.875 191.834L312.31 190.98L311.467 189.429L310.612 190.98L309.047 191.834L310.612 192.675L311.467 194.238Z" fill="black"/>
<path d="M318.101 194.238L318.956 192.675L320.509 191.834L318.956 190.98L318.101 189.429L317.246 190.98L315.693 191.834L317.246 192.675L318.101 194.238Z" fill="black"/>
<path d="M314.838 199.107L315.693 197.544L317.246 196.703L315.693 195.849L314.838 194.286L313.983 195.849L312.43 196.703L313.983 197.544L314.838 199.107Z" fill="black"/>
<path d="M321.473 199.107L322.327 197.544L323.881 196.703L322.327 195.849L321.473 194.286L320.63 195.849L319.064 196.703L320.63 197.544L321.473 199.107Z" fill="black"/>
<path d="M311.467 203.976L312.31 202.413L313.875 201.572L312.31 200.718L311.467 199.155L310.612 200.718L309.047 201.572L310.612 202.413L311.467 203.976Z" fill="black"/>
<path d="M318.101 203.976L318.956 202.413L320.509 201.572L318.956 200.718L318.101 199.155L317.246 200.718L315.693 201.572L317.246 202.413L318.101 203.976Z" fill="black"/>
<path d="M314.838 209.049L315.693 207.486L317.246 206.645L315.693 205.791L314.838 204.24L313.983 205.791L312.43 206.645L313.983 207.486L314.838 209.049Z" fill="black"/>
<path d="M321.473 209.049L322.327 207.486L323.881 206.645L322.327 205.791L321.473 204.24L320.63 205.791L319.064 206.645L320.63 207.486L321.473 209.049Z" fill="black"/>
<path d="M311.467 213.918L312.31 212.355L313.875 211.514L312.31 210.66L311.467 209.109L310.612 210.66L309.047 211.514L310.612 212.355L311.467 213.918Z" fill="black"/>
<path d="M318.101 213.918L318.956 212.355L320.509 211.514L318.956 210.66L318.101 209.109L317.246 210.66L315.693 211.514L317.246 212.355L318.101 213.918Z" fill="black"/>
<path d="M311.467 183.96L312.31 182.397L313.875 181.555L312.31 180.702L311.467 179.151L310.612 180.702L309.047 181.555L310.612 182.397L311.467 183.96Z" fill="black"/>
<path d="M318.101 183.96L318.956 182.397L320.509 181.555L318.956 180.702L318.101 179.151L317.246 180.702L315.693 181.555L317.246 182.397L318.101 183.96Z" fill="black"/>
<path d="M290.144 130.979C290.144 143.121 285.087 154.097 276.936 161.875C269.242 169.281 258.767 173.825 247.233 173.825C235.145 173.825 224.248 168.836 216.446 160.817C208.933 153.087 204.322 142.58 204.322 130.979C204.322 107.32 223.538 88.1328 247.233 88.1328C270.928 88.1328 290.144 107.32 290.144 130.979Z" stroke="black" stroke-width="3" stroke-miterlimit="10" stroke-linecap="round" stroke-linejoin="round"/>
<path d="M272.806 125.449C272.83 125.088 272.866 124.74 272.866 124.367C272.866 113.343 263.824 104.314 252.783 104.314H241.694C230.653 104.314 221.611 113.343 221.611 124.367C221.611 124.728 221.647 125.088 221.671 125.449C216.314 129.056 212.762 135.175 212.762 142.087C212.762 153.111 221.804 162.14 232.845 162.14H261.633C272.674 162.14 281.716 153.111 281.716 142.087C281.704 135.175 278.164 129.056 272.806 125.449Z" fill="#FFDE16" stroke="black" stroke-width="3" stroke-miterlimit="10" stroke-linecap="round" stroke-linejoin="round"/>
<path d="M255.348 122.684C257.828 124.92 259.382 128.166 259.382 131.76C259.382 138.492 253.915 143.974 247.173 143.974C240.406 143.974 234.94 138.492 234.94 131.76C234.94 129.163 235.759 126.723 237.155 124.751" fill="white"/>
<path d="M255.348 122.684C257.828 124.92 259.381 128.166 259.381 131.76C259.381 138.492 253.915 143.974 247.173 143.974C240.406 143.974 234.94 138.492 234.94 131.76C234.94 129.163 235.759 126.723 237.155 124.751" stroke="black" stroke-width="3" stroke-miterlimit="10" stroke-linecap="round" stroke-linejoin="round"/>
<path d="M232.556 123.441C232.556 123.441 246.342 129.572 261.019 119.558" stroke="black" stroke-width="3" stroke-miterlimit="10" stroke-linecap="round" stroke-linejoin="round"/>
<path d="M276.936 161.875C269.242 169.281 258.768 173.825 247.233 173.825C235.145 173.825 224.248 168.836 216.446 160.817C221.094 154.939 229.474 149.084 244.596 149.084H249.34C249.34 149.084 268.653 150.454 276.936 161.875Z" fill="#25AAE1" stroke="black" stroke-width="3" stroke-miterlimit="10"/>
<path d="M182.674 130.907C182.674 140.669 179.339 149.685 173.728 156.802C172.488 158.377 171.139 159.868 169.707 161.25C162.145 168.511 151.851 172.995 140.533 172.995C128.662 172.995 117.97 168.091 110.324 160.192C108.892 158.725 107.591 157.175 106.387 155.54C101.354 148.627 98.3926 140.128 98.3926 130.907C98.3926 107.656 117.284 88.8301 140.533 88.8301C163.783 88.8181 182.674 107.656 182.674 130.907Z" stroke="black" stroke-width="3" stroke-miterlimit="10" stroke-linecap="round" stroke-linejoin="round"/>
<path d="M155.595 121.626C155.595 125.857 153.838 129.668 150.996 132.373C148.323 134.946 144.675 136.533 140.666 136.533C136.464 136.533 132.671 134.802 129.95 132.001C127.337 129.308 125.736 125.653 125.736 121.614C125.736 113.379 132.418 106.707 140.666 106.707C148.913 106.719 155.595 113.391 155.595 121.626Z" fill="black" stroke="black" stroke-width="3" stroke-miterlimit="10" stroke-linecap="round" stroke-linejoin="round"/>
<path d="M150.647 112.501C153.693 115.254 155.595 119.245 155.595 123.657C155.595 131.928 148.865 138.673 140.581 138.673C132.261 138.673 125.543 131.928 125.543 123.657C125.543 120.459 126.554 117.466 128.276 115.038" fill="white"/>
<path d="M150.647 112.501C153.693 115.254 155.595 119.245 155.595 123.657C155.595 131.928 148.865 138.673 140.581 138.673C132.261 138.673 125.543 131.928 125.543 123.657C125.543 120.459 126.554 117.466 128.276 115.038" stroke="black" stroke-width="3" stroke-miterlimit="10" stroke-linecap="round" stroke-linejoin="round"/>
<path d="M133.863 112.633C133.863 112.633 139.919 115.326 146.361 110.926" stroke="black" stroke-width="3" stroke-miterlimit="10" stroke-linecap="round" stroke-linejoin="round"/>
<path d="M173.728 156.79C172.488 158.365 171.139 159.856 169.706 161.238C162.145 168.499 151.851 172.984 140.533 172.984C128.662 172.984 117.97 168.079 110.324 160.18C108.892 158.714 107.591 157.163 106.387 155.528C112.516 149.781 122.172 144.937 137.439 144.937H143.278C143.266 144.937 162.434 146.319 173.728 156.79Z" fill="#25AAE1" stroke="black" stroke-width="3" stroke-miterlimit="10"/>
<path d="M375.088 1.80322H297.814C290.18 1.80322 283.919 8.0426 283.919 15.6765V41.8362V53.2089V78.5992C283.919 80.7992 286.472 82.0014 288.17 80.6189L304.833 67.0822H375.076C382.709 67.0822 388.97 60.8428 388.97 53.2089V15.6765C388.982 8.0426 382.721 1.80322 375.088 1.80322Z" fill="#00D384" stroke="black" stroke-width="3" stroke-miterlimit="10" stroke-linecap="round" stroke-linejoin="round"/>
<path d="M370.814 26.5202H303.834C302.714 26.5202 301.799 25.6065 301.799 24.4885V20.0644C301.799 18.9464 302.714 18.0327 303.834 18.0327H370.814C371.933 18.0327 372.848 18.9464 372.848 20.0644V24.4885C372.86 25.5945 371.933 26.5202 370.814 26.5202Z" fill="#9E6CFF" stroke="black" stroke-width="3" stroke-miterlimit="10" stroke-linecap="round" stroke-linejoin="round"/>
<path d="M370.814 45.3825H303.834C302.714 45.3825 301.799 44.4688 301.799 43.3508V38.9267C301.799 37.8087 302.714 36.895 303.834 36.895H370.814C371.933 36.895 372.848 37.8087 372.848 38.9267V43.3508C372.86 44.4688 371.933 45.3825 370.814 45.3825Z" fill="#9E6CFF" stroke="black" stroke-width="3" stroke-miterlimit="10" stroke-linecap="round" stroke-linejoin="round"/>
<path d="M382.022 20.6056L382.636 19.4995L383.756 18.8864L382.636 18.2733L382.022 17.1553L381.408 18.2733L380.289 18.8864L381.408 19.4995L382.022 20.6056Z" fill="black"/>
<path d="M386.79 20.6056L387.404 19.4995L388.524 18.8864L387.404 18.2733L386.79 17.1553L386.176 18.2733L385.057 18.8864L386.176 19.4995L386.79 20.6056Z" fill="black"/>
<path d="M379.59 24.1041L380.204 22.9981L381.324 22.385L380.204 21.7718L379.59 20.6538L378.976 21.7718L377.869 22.385L378.976 22.9981L379.59 24.1041Z" fill="black"/>
<path d="M384.358 24.1041L384.972 22.9981L386.092 22.385L384.972 21.7718L384.358 20.6538L383.756 21.7718L382.637 22.385L383.756 22.9981L384.358 24.1041Z" fill="black"/>
<path d="M389.21 24.1041L389.824 22.9981L390.944 22.385L389.824 21.7718L389.21 20.6538L388.596 21.7718L387.477 22.385L388.596 22.9981L389.21 24.1041Z" fill="black"/>
<path d="M382.022 27.6021L382.636 26.4841L383.756 25.883L382.636 25.2699L382.022 24.1519L381.408 25.2699L380.289 25.883L381.408 26.4841L382.022 27.6021Z" fill="black"/>
<path d="M386.79 27.6021L387.404 26.4841L388.524 25.883L387.404 25.2699L386.79 24.1519L386.176 25.2699L385.057 25.883L386.176 26.4841L386.79 27.6021Z" fill="black"/>
<path d="M379.59 31.1007L380.204 29.9826L381.324 29.3815L380.204 28.7684L379.59 27.6504L378.976 28.7684L377.869 29.3815L378.976 29.9826L379.59 31.1007Z" fill="black"/>
<path d="M384.358 31.1007L384.972 29.9826L386.092 29.3815L384.972 28.7684L384.358 27.6504L383.756 28.7684L382.637 29.3815L383.756 29.9826L384.358 31.1007Z" fill="black"/>
<path d="M389.21 31.1007L389.824 29.9826L390.944 29.3815L389.824 28.7684L389.21 27.6504L388.596 28.7684L387.477 29.3815L388.596 29.9826L389.21 31.1007Z" fill="black"/>
<path d="M382.022 34.7553L382.636 33.6372L383.756 33.0241L382.636 32.411L382.022 31.293L381.408 32.411L380.289 33.0241L381.408 33.6372L382.022 34.7553Z" fill="black"/>
<path d="M386.79 34.7553L387.404 33.6372L388.524 33.0241L387.404 32.411L386.79 31.293L386.176 32.411L385.057 33.0241L386.176 33.6372L386.79 34.7553Z" fill="black"/>
<path d="M379.59 38.2538L380.204 37.1358L381.324 36.5227L380.204 35.9095L379.59 34.7915L378.976 35.9095L377.869 36.5227L378.976 37.1358L379.59 38.2538Z" fill="black"/>
<path d="M384.358 38.2538L384.972 37.1358L386.092 36.5227L384.972 35.9095L384.358 34.7915L383.756 35.9095L382.637 36.5227L383.756 37.1358L384.358 38.2538Z" fill="black"/>
<path d="M389.21 38.2538L389.824 37.1358L390.944 36.5227L389.824 35.9095L389.21 34.7915L388.596 35.9095L387.477 36.5227L388.596 37.1358L389.21 38.2538Z" fill="black"/>
<path d="M382.022 6.33554L382.636 5.2175L383.756 4.60439L382.636 4.00329L382.022 2.88525L381.408 4.00329L380.289 4.60439L381.408 5.2175L382.022 6.33554Z" fill="black"/>
<path d="M379.59 9.83408L380.204 8.71604L381.324 8.10292L380.204 7.50183L379.59 6.38379L378.976 7.50183L377.869 8.10292L378.976 8.71604L379.59 9.83408Z" fill="black"/>
<path d="M384.358 9.83408L384.972 8.71604L386.092 8.10292L384.972 7.50183L384.358 6.38379L383.756 7.50183L382.637 8.10292L383.756 8.71604L384.358 9.83408Z" fill="black"/>
<path d="M382.022 13.3321L382.636 12.2141L383.756 11.601L382.636 10.9879L382.022 9.88184L381.408 10.9879L380.289 11.601L381.408 12.2141L382.022 13.3321Z" fill="black"/>
<path d="M386.79 13.3321L387.404 12.2141L388.524 11.601L387.404 10.9879L386.79 9.88184L386.176 10.9879L385.057 11.601L386.176 12.2141L386.79 13.3321Z" fill="black"/>
<path d="M379.59 16.8307L380.204 15.7126L381.324 15.0995L380.204 14.4864L379.59 13.3804L378.976 14.4864L377.869 15.0995L378.976 15.7126L379.59 16.8307Z" fill="black"/>
<path d="M384.358 16.8307L384.972 15.7126L386.092 15.0995L384.972 14.4864L384.358 13.3804L383.756 14.4864L382.637 15.0995L383.756 15.7126L384.358 16.8307Z" fill="black"/>
<path d="M389.21 16.8307L389.824 15.7126L390.944 15.0995L389.824 14.4864L389.21 13.3804L388.596 14.4864L387.477 15.0995L388.596 15.7126L389.21 16.8307Z" fill="black"/>
<path d="M386.778 52.752L386.164 53.87L385.044 54.4831L386.164 55.0962L386.778 56.2142L387.392 55.0962L388.512 54.4831L387.392 53.87L386.778 52.752Z" fill="black"/>
<path d="M382.011 52.752L381.397 53.87L380.277 54.4831L381.397 55.0962L382.011 56.2142L382.625 55.0962L383.744 54.4831L382.625 53.87L382.011 52.752Z" fill="black"/>
<path d="M389.21 49.2534L388.596 50.3715L387.477 50.9846L388.596 51.5977L389.21 52.7157L389.824 51.5977L390.944 50.9846L389.824 50.3715L389.21 49.2534Z" fill="black"/>
<path d="M384.443 49.2534L383.829 50.3715L382.709 50.9846L383.829 51.5977L384.443 52.7157L385.045 51.5977L386.165 50.9846L385.045 50.3715L384.443 49.2534Z" fill="black"/>
<path d="M379.59 49.2534L378.976 50.3715L377.869 50.9846L378.976 51.5977L379.59 52.7157L380.204 51.5977L381.324 50.9846L380.204 50.3715L379.59 49.2534Z" fill="black"/>
<path d="M386.778 45.7554L386.164 46.8734L385.044 47.4865L386.164 48.0996L386.778 49.2177L387.392 48.0996L388.512 47.4865L387.392 46.8734L386.778 45.7554Z" fill="black"/>
<path d="M382.011 45.7554L381.397 46.8734L380.277 47.4865L381.397 48.0996L382.011 49.2177L382.625 48.0996L383.744 47.4865L382.625 46.8734L382.011 45.7554Z" fill="black"/>
<path d="M389.21 42.2568L388.596 43.3749L387.477 43.988L388.596 44.6011L389.21 45.7191L389.824 44.6011L390.944 43.988L389.824 43.3749L389.21 42.2568Z" fill="black"/>
<path d="M384.443 42.2568L383.829 43.3749L382.709 43.988L383.829 44.6011L384.443 45.7191L385.045 44.6011L386.165 43.988L385.045 43.3749L384.443 42.2568Z" fill="black"/>
<path d="M379.59 42.2568L378.976 43.3749L377.869 43.988L378.976 44.6011L379.59 45.7191L380.204 44.6011L381.324 43.988L380.204 43.3749L379.59 42.2568Z" fill="black"/>
<path d="M386.778 38.6143L386.164 39.7323L385.044 40.3454L386.164 40.9585L386.778 42.0766L387.392 40.9585L388.512 40.3454L387.392 39.7323L386.778 38.6143Z" fill="black"/>
<path d="M382.011 38.6143L381.397 39.7323L380.277 40.3454L381.397 40.9585L382.011 42.0766L382.625 40.9585L383.744 40.3454L382.625 39.7323L382.011 38.6143Z" fill="black"/>
<path d="M379.59 63.5356L378.976 64.6417L377.869 65.2548L378.976 65.8679L379.59 66.9859L380.204 65.8679L381.324 65.2548L380.204 64.6417L379.59 63.5356Z" fill="black"/>
<path d="M386.778 60.0376L386.164 61.1556L385.044 61.7567L386.164 62.3699L386.778 63.4879L387.392 62.3699L388.512 61.7567L387.392 61.1556L386.778 60.0376Z" fill="black"/>
<path d="M382.011 60.0376L381.397 61.1556L380.277 61.7567L381.397 62.3699L382.011 63.4879L382.625 62.3699L383.744 61.7567L382.625 61.1556L382.011 60.0376Z" fill="black"/>
<path d="M384.443 56.5391L383.829 57.6571L382.709 58.2582L383.829 58.8713L384.443 59.9894L385.045 58.8713L386.165 58.2582L385.045 57.6571L384.443 56.5391Z" fill="black"/>
<path d="M379.59 56.5391L378.976 57.6571L377.869 58.2582L378.976 58.8713L379.59 59.9894L380.204 58.8713L381.324 58.2582L380.204 57.6571L379.59 56.5391Z" fill="black"/>
<path d="M15.3995 248.865H91.0479C98.5249 248.865 104.641 242.758 104.641 235.292V209.674V198.541V173.692C104.641 171.54 102.149 170.362 100.475 171.709L84.1609 184.969H15.3995C7.92256 184.969 1.80615 191.076 1.80615 198.541V235.28C1.80615 242.758 7.92256 248.865 15.3995 248.865Z" fill="#00D384" stroke="black" stroke-width="3" stroke-miterlimit="10" stroke-linecap="round" stroke-linejoin="round"/>
<path d="M19.6256 224.677H85.1121C86.2319 224.677 87.1469 225.591 87.1469 226.709V230.953C87.1469 232.071 86.2319 232.984 85.1121 232.984H19.6256C18.5059 232.984 17.5908 232.071 17.5908 230.953V226.709C17.5908 225.591 18.5059 224.677 19.6256 224.677Z" fill="#9E6CFF" stroke="black" stroke-width="3" stroke-miterlimit="10" stroke-linecap="round" stroke-linejoin="round"/>
<path d="M19.6256 206.211H85.1121C86.2319 206.211 87.1469 207.125 87.1469 208.243V212.487C87.1469 213.605 86.2319 214.519 85.1121 214.519H19.6256C18.5059 214.519 17.5908 213.605 17.5908 212.487V208.243C17.5908 207.125 18.5059 206.211 19.6256 206.211Z" fill="#9E6CFF" stroke="black" stroke-width="3" stroke-miterlimit="10" stroke-linecap="round" stroke-linejoin="round"/>
<path d="M98.055 224.028L98.9099 225.579L100.463 226.433L98.9099 227.274L98.055 228.837L97.2122 227.274L95.647 226.433L97.2122 225.579L98.055 224.028Z" fill="black"/>
<path d="M104.701 224.028L105.544 225.579L107.11 226.433L105.544 227.274L104.701 228.837L103.847 227.274L102.293 226.433L103.847 225.579L104.701 224.028Z" fill="black"/>
<path d="M94.6839 219.16L95.5267 220.71L97.0919 221.564L95.5267 222.406L94.6839 223.968L93.8291 222.406L92.2759 221.564L93.8291 220.71L94.6839 219.16Z" fill="black"/>
<path d="M101.318 219.16L102.173 220.71L103.726 221.564L102.173 222.406L101.318 223.968L100.463 222.406L98.9102 221.564L100.463 220.71L101.318 219.16Z" fill="black"/>
<path d="M98.055 214.291L98.9099 215.841L100.463 216.695L98.9099 217.548L98.055 219.099L97.2122 217.548L95.647 216.695L97.2122 215.841L98.055 214.291Z" fill="black"/>
<path d="M104.701 214.291L105.544 215.841L107.11 216.695L105.544 217.548L104.701 219.099L103.847 217.548L102.293 216.695L103.847 215.841L104.701 214.291Z" fill="black"/>
<path d="M94.6839 209.421L95.5267 210.972L97.0919 211.826L95.5267 212.679L94.6839 214.23L93.8291 212.679L92.2759 211.826L93.8291 210.972L94.6839 209.421Z" fill="black"/>
<path d="M101.318 209.421L102.173 210.972L103.726 211.826L102.173 212.679L101.318 214.23L100.463 212.679L98.9102 211.826L100.463 210.972L101.318 209.421Z" fill="black"/>
<path d="M98.055 204.348L98.9099 205.899L100.463 206.753L98.9099 207.606L98.055 209.157L97.2122 207.606L95.647 206.753L97.2122 205.899L98.055 204.348Z" fill="black"/>
<path d="M104.701 204.348L105.544 205.899L107.11 206.753L105.544 207.606L104.701 209.157L103.847 207.606L102.293 206.753L103.847 205.899L104.701 204.348Z" fill="black"/>
<path d="M94.6839 199.479L95.5267 201.03L97.0919 201.884L95.5267 202.737L94.6839 204.288L93.8291 202.737L92.2759 201.884L93.8291 201.03L94.6839 199.479Z" fill="black"/>
<path d="M101.318 199.479L102.173 201.03L103.726 201.884L102.173 202.737L101.318 204.288L100.463 202.737L98.9102 201.884L100.463 201.03L101.318 199.479Z" fill="black"/>
<path d="M98.055 243.888L98.9099 245.439L100.463 246.293L98.9099 247.146L98.055 248.697L97.2122 247.146L95.647 246.293L97.2122 245.439L98.055 243.888Z" fill="black"/>
<path d="M94.6839 239.02L95.5267 240.57L97.0919 241.424L95.5267 242.277L94.6839 243.828L93.8291 242.277L92.2759 241.424L93.8291 240.57L94.6839 239.02Z" fill="black"/>
<path d="M101.318 239.02L102.173 240.57L103.726 241.424L102.173 242.277L101.318 243.828L100.463 242.277L98.9102 241.424L100.463 240.57L101.318 239.02Z" fill="black"/>
<path d="M98.055 234.15L98.9099 235.713L100.463 236.555L98.9099 237.408L98.055 238.959L97.2122 237.408L95.647 236.555L97.2122 235.713L98.055 234.15Z" fill="black"/>
<path d="M104.701 234.15L105.544 235.713L107.11 236.555L105.544 237.408L104.701 238.959L103.847 237.408L102.293 236.555L103.847 235.713L104.701 234.15Z" fill="black"/>
<path d="M94.6839 229.282L95.5267 230.845L97.0919 231.686L95.5267 232.54L94.6839 234.09L93.8291 232.54L92.2759 231.686L93.8291 230.845L94.6839 229.282Z" fill="black"/>
<path d="M101.318 229.282L102.173 230.845L103.726 231.686L102.173 232.54L101.318 234.09L100.463 232.54L98.9102 231.686L100.463 230.845L101.318 229.282Z" fill="black"/>
<path d="M104.677 179.294L103.834 177.732L102.269 176.89L103.834 176.036L104.677 174.474L105.532 176.036L107.097 176.89L105.532 177.732L104.677 179.294Z" fill="black"/>
<path d="M98.0433 179.294L97.1884 177.732L95.6353 176.89L97.1884 176.036L98.0433 174.474L98.8981 176.036L100.451 176.89L98.8981 177.732L98.0433 179.294Z" fill="black"/>
<path d="M101.427 184.163L100.572 182.6L99.0186 181.759L100.572 180.905L101.427 179.342L102.269 180.905L103.835 181.759L102.269 182.6L101.427 184.163Z" fill="black"/>
<path d="M94.6839 184.163L93.8291 182.6L92.2759 181.759L93.8291 180.905L94.6839 179.342L95.5267 180.905L97.0919 181.759L95.5267 182.6L94.6839 184.163Z" fill="black"/>
<path d="M104.677 189.02L103.834 187.469L102.269 186.616L103.834 185.774L104.677 184.211L105.532 185.774L107.097 186.616L105.532 187.469L104.677 189.02Z" fill="black"/>
<path d="M98.0433 189.02L97.1884 187.469L95.6353 186.616L97.1884 185.774L98.0433 184.211L98.8981 185.774L100.451 186.616L98.8981 187.469L98.0433 189.02Z" fill="black"/>
<path d="M101.427 193.889L100.572 192.338L99.0186 191.484L100.572 190.643L101.427 189.08L102.269 190.643L103.835 191.484L102.269 192.338L101.427 193.889Z" fill="black"/>
<path d="M94.6839 193.889L93.8291 192.338L92.2759 191.484L93.8291 190.643L94.6839 189.08L95.5267 190.643L97.0919 191.484L95.5267 192.338L94.6839 193.889Z" fill="black"/>
<path d="M104.677 198.962L103.834 197.411L102.269 196.558L103.834 195.716L104.677 194.153L105.532 195.716L107.097 196.558L105.532 197.411L104.677 198.962Z" fill="black"/>
<path d="M98.0433 198.962L97.1884 197.411L95.6353 196.558L97.1884 195.716L98.0433 194.153L98.8981 195.716L100.451 196.558L98.8981 197.411L98.0433 198.962Z" fill="black"/>
<path d="M101.427 174.029L100.572 172.478L99.0186 171.625L100.572 170.771L101.427 169.22L102.269 170.771L103.835 171.625L102.269 172.478L101.427 174.029Z" fill="black"/>
<path d="M284.221 330.35V436.395C284.221 442.178 279.525 446.878 273.721 446.878H110.962C105.159 446.878 100.463 442.19 100.463 436.395V330.35C100.463 324.267 105.4 319.338 111.48 319.338H273.192C279.284 319.338 284.221 324.267 284.221 330.35Z" fill="white" stroke="black" stroke-width="3" stroke-miterlimit="10" stroke-linecap="round" stroke-linejoin="round"/>
<path d="M284.22 330.35V336.878H100.451V330.35C100.451 324.267 105.388 319.338 111.468 319.338H273.192C279.284 319.338 284.22 324.267 284.22 330.35Z" fill="#25AAE1" stroke="black" stroke-width="3" stroke-miterlimit="10"/>
<path d="M291.384 337.455V443.512C291.384 449.307 286.688 453.996 280.885 453.996H118.126C113.358 453.996 109.337 450.822 108.048 446.482C108.975 446.746 109.951 446.891 110.95 446.891H273.721C279.525 446.891 284.22 442.202 284.22 436.407V330.35C284.22 329.172 284.04 328.03 283.69 326.96C288.145 328.355 291.384 332.526 291.384 337.455Z" fill="black" stroke="black" stroke-width="3" stroke-miterlimit="10"/>
<path d="M129.239 330.987C130.815 330.987 132.093 329.711 132.093 328.138C132.093 326.564 130.815 325.289 129.239 325.289C127.663 325.289 126.386 326.564 126.386 328.138C126.386 329.711 127.663 330.987 129.239 330.987Z" fill="black"/>
<path d="M140.027 330.987C141.603 330.987 142.881 329.711 142.881 328.138C142.881 326.564 141.603 325.289 140.027 325.289C138.451 325.289 137.174 326.564 137.174 328.138C137.174 329.711 138.451 330.987 140.027 330.987Z" fill="black"/>
<path d="M118.234 330.987C119.81 330.987 121.088 329.711 121.088 328.138C121.088 326.564 119.81 325.289 118.234 325.289C116.658 325.289 115.381 326.564 115.381 328.138C115.381 329.711 116.658 330.987 118.234 330.987Z" fill="black"/>
<path d="M285.497 336.866H100.451" stroke="black" stroke-width="3" stroke-miterlimit="10"/>
<path d="M282.812 441.589L283.088 442.106L283.606 442.382L283.088 442.671L282.812 443.188L282.523 442.671L282.005 442.382L282.523 442.106L282.812 441.589Z" fill="black"/>
<path d="M274.841 371.489L275.684 369.926L277.249 369.085L275.684 368.231L274.841 366.68L273.986 368.231L272.421 369.085L273.986 369.926L274.841 371.489Z" fill="black"/>
<path d="M281.475 371.489L282.33 369.926L283.883 369.085L282.33 368.231L281.475 366.68L280.621 368.231L279.067 369.085L280.621 369.926L281.475 371.489Z" fill="black"/>
<path d="M288.218 371.489L289.072 369.926L290.626 369.085L289.072 368.231L288.218 366.68L287.363 368.231L285.81 369.085L287.363 369.926L288.218 371.489Z" fill="black"/>
<path d="M271.458 376.358L272.313 374.795L273.866 373.953L272.313 373.1L271.458 371.549L270.603 373.1L269.05 373.953L270.603 374.795L271.458 376.358Z" fill="black"/>
<path d="M278.092 376.358L278.947 374.795L280.5 373.953L278.947 373.1L278.092 371.549L277.249 373.1L275.684 373.953L277.249 374.795L278.092 376.358Z" fill="black"/>
<path d="M284.834 376.358L285.689 374.795L287.242 373.953L285.689 373.1L284.834 371.549L283.991 373.1L282.426 373.953L283.991 374.795L284.834 376.358Z" fill="black"/>
<path d="M274.841 381.227L275.684 379.664L277.249 378.822L275.684 377.969L274.841 376.418L273.986 377.969L272.421 378.822L273.986 379.664L274.841 381.227Z" fill="black"/>
<path d="M281.475 381.227L282.33 379.664L283.883 378.822L282.33 377.969L281.475 376.418L280.621 377.969L279.067 378.822L280.621 379.664L281.475 381.227Z" fill="black"/>
<path d="M288.218 381.227L289.072 379.664L290.626 378.822L289.072 377.969L288.218 376.418L287.363 377.969L285.81 378.822L287.363 379.664L288.218 381.227Z" fill="black"/>
<path d="M271.458 386.096L272.313 384.533L273.866 383.691L272.313 382.838L271.458 381.275L270.603 382.838L269.05 383.691L270.603 384.533L271.458 386.096Z" fill="black"/>
<path d="M278.092 386.096L278.947 384.533L280.5 383.691L278.947 382.838L278.092 381.275L277.249 382.838L275.684 383.691L277.249 384.533L278.092 386.096Z" fill="black"/>
<path d="M284.834 386.096L285.689 384.533L287.242 383.691L285.689 382.838L284.834 381.275L283.991 382.838L282.426 383.691L283.991 384.533L284.834 386.096Z" fill="black"/>
<path d="M274.841 391.169L275.684 389.606L277.249 388.765L275.684 387.911L274.841 386.36L273.986 387.911L272.421 388.765L273.986 389.606L274.841 391.169Z" fill="black"/>
<path d="M281.475 391.169L282.33 389.606L283.883 388.765L282.33 387.911L281.475 386.36L280.621 387.911L279.067 388.765L280.621 389.606L281.475 391.169Z" fill="black"/>
<path d="M288.218 391.169L289.072 389.606L290.626 388.765L289.072 387.911L288.218 386.36L287.363 387.911L285.81 388.765L287.363 389.606L288.218 391.169Z" fill="black"/>
<path d="M271.458 396.038L272.313 394.475L273.866 393.633L272.313 392.78L271.458 391.229L270.603 392.78L269.05 393.633L270.603 394.475L271.458 396.038Z" fill="black"/>
<path d="M278.092 396.038L278.947 394.475L280.5 393.633L278.947 392.78L278.092 391.229L277.249 392.78L275.684 393.633L277.249 394.475L278.092 396.038Z" fill="black"/>
<path d="M284.834 396.038L285.689 394.475L287.242 393.633L285.689 392.78L284.834 391.229L283.991 392.78L282.426 393.633L283.991 394.475L284.834 396.038Z" fill="black"/>
<path d="M274.841 331.949L275.684 330.386L277.249 329.532L275.684 328.691L274.841 327.128L273.986 328.691L272.421 329.532L273.986 330.386L274.841 331.949Z" fill="black"/>
<path d="M281.475 331.949L282.33 330.386L283.883 329.532L282.33 328.691L281.475 327.128L280.621 328.691L279.067 329.532L280.621 330.386L281.475 331.949Z" fill="black"/>
<path d="M271.458 336.817L272.313 335.255L273.866 334.401L272.313 333.559L271.458 331.997L270.603 333.559L269.05 334.401L270.603 335.255L271.458 336.817Z" fill="black"/>
<path d="M278.092 336.817L278.947 335.255L280.5 334.401L278.947 333.559L278.092 331.997L277.249 333.559L275.684 334.401L277.249 335.255L278.092 336.817Z" fill="black"/>
<path d="M284.834 336.817L285.689 335.255L287.242 334.401L285.689 333.559L284.834 331.997L283.991 333.559L282.426 334.401L283.991 335.255L284.834 336.817Z" fill="black"/>
<path d="M274.841 341.674L275.684 340.124L277.249 339.27L275.684 338.429L274.841 336.866L273.986 338.429L272.421 339.27L273.986 340.124L274.841 341.674Z" fill="black"/>
<path d="M281.475 341.674L282.33 340.124L283.883 339.27L282.33 338.429L281.475 336.866L280.621 338.429L279.067 339.27L280.621 340.124L281.475 341.674Z" fill="black"/>
<path d="M288.218 341.674L289.072 340.124L290.626 339.27L289.072 338.429L288.218 336.866L287.363 338.429L285.81 339.27L287.363 340.124L288.218 341.674Z" fill="black"/>
<path d="M271.458 346.543L272.313 344.992L273.866 344.139L272.313 343.297L271.458 341.734L270.603 343.297L269.05 344.139L270.603 344.992L271.458 346.543Z" fill="black"/>
<path d="M278.092 346.543L278.947 344.992L280.5 344.139L278.947 343.297L278.092 341.734L277.249 343.297L275.684 344.139L277.249 344.992L278.092 346.543Z" fill="black"/>
<path d="M284.834 346.543L285.689 344.992L287.242 344.139L285.689 343.297L284.834 341.734L283.991 343.297L282.426 344.139L283.991 344.992L284.834 346.543Z" fill="black"/>
<path d="M274.841 351.617L275.684 350.066L277.249 349.212L275.684 348.371L274.841 346.808L273.986 348.371L272.421 349.212L273.986 350.066L274.841 351.617Z" fill="black"/>
<path d="M281.475 351.617L282.33 350.066L283.883 349.212L282.33 348.371L281.475 346.808L280.621 348.371L279.067 349.212L280.621 350.066L281.475 351.617Z" fill="black"/>
<path d="M288.218 351.617L289.072 350.066L290.626 349.212L289.072 348.371L288.218 346.808L287.363 348.371L285.81 349.212L287.363 350.066L288.218 351.617Z" fill="black"/>
<path d="M271.458 356.486L272.313 354.935L273.866 354.081L272.313 353.24L271.458 351.677L270.603 353.24L269.05 354.081L270.603 354.935L271.458 356.486Z" fill="black"/>
<path d="M278.092 356.486L278.947 354.935L280.5 354.081L278.947 353.24L278.092 351.677L277.249 353.24L275.684 354.081L277.249 354.935L278.092 356.486Z" fill="black"/>
<path d="M284.834 356.486L285.689 354.935L287.242 354.081L285.689 353.24L284.834 351.677L283.991 353.24L282.426 354.081L283.991 354.935L284.834 356.486Z" fill="black"/>
<path d="M274.841 361.354L275.684 359.803L277.249 358.95L275.684 358.096L274.841 356.545L273.986 358.096L272.421 358.95L273.986 359.803L274.841 361.354Z" fill="black"/>
<path d="M281.475 361.354L282.33 359.803L283.883 358.95L282.33 358.096L281.475 356.545L280.621 358.096L279.067 358.95L280.621 359.803L281.475 361.354Z" fill="black"/>
<path d="M288.218 361.354L289.072 359.803L290.626 358.95L289.072 358.096L288.218 356.545L287.363 358.096L285.81 358.95L287.363 359.803L288.218 361.354Z" fill="black"/>
<path d="M271.458 366.223L272.313 364.672L273.866 363.819L272.313 362.965L271.458 361.415L270.603 362.965L269.05 363.819L270.603 364.672L271.458 366.223Z" fill="black"/>
<path d="M278.092 366.223L278.947 364.672L280.5 363.819L278.947 362.965L278.092 361.415L277.249 362.965L275.684 363.819L277.249 364.672L278.092 366.223Z" fill="black"/>
<path d="M284.834 366.223L285.689 364.672L287.242 363.819L285.689 362.965L284.834 361.415L283.991 362.965L282.426 363.819L283.991 364.672L284.834 366.223Z" fill="black"/>
<path d="M271.458 326.527L272.313 324.976L273.866 324.123L272.313 323.281L271.458 321.718L270.603 323.281L269.05 324.123L270.603 324.976L271.458 326.527Z" fill="black"/>
<path d="M278.092 326.527L278.947 324.976L280.5 324.123L278.947 323.281L278.092 321.718L277.249 323.281L275.684 324.123L277.249 324.976L278.092 326.527Z" fill="black"/>
<path d="M281.463 416.223L280.608 417.773L279.055 418.627L280.608 419.481L281.463 421.031L282.306 419.481L283.871 418.627L282.306 417.773L281.463 416.223Z" fill="black"/>
<path d="M274.817 416.223L273.974 417.773L272.409 418.627L273.974 419.481L274.817 421.031L275.672 419.481L277.225 418.627L275.672 417.773L274.817 416.223Z" fill="black"/>
<path d="M284.834 411.354L283.991 412.904L282.426 413.758L283.991 414.611L284.834 416.162L285.689 414.611L287.242 413.758L285.689 412.904L284.834 411.354Z" fill="black"/>
<path d="M278.201 411.354L277.346 412.904L275.792 413.758L277.346 414.611L278.201 416.162L279.055 414.611L280.609 413.758L279.055 412.904L278.201 411.354Z" fill="black"/>
<path d="M271.458 411.354L270.603 412.904L269.05 413.758L270.603 414.611L271.458 416.162L272.313 414.611L273.866 413.758L272.313 412.904L271.458 411.354Z" fill="black"/>
<path d="M281.463 406.484L280.608 408.035L279.055 408.889L280.608 409.742L281.463 411.293L282.306 409.742L283.871 408.889L282.306 408.035L281.463 406.484Z" fill="black"/>
<path d="M274.817 406.484L273.974 408.035L272.409 408.889L273.974 409.742L274.817 411.293L275.672 409.742L277.225 408.889L275.672 408.035L274.817 406.484Z" fill="black"/>
<path d="M284.834 401.616L283.991 403.167L282.426 404.02L283.991 404.874L284.834 406.424L285.689 404.874L287.242 404.02L285.689 403.167L284.834 401.616Z" fill="black"/>
<path d="M278.201 401.616L277.346 403.167L275.792 404.02L277.346 404.874L278.201 406.424L279.055 404.874L280.609 404.02L279.055 403.167L278.201 401.616Z" fill="black"/>
<path d="M271.458 401.616L270.603 403.167L269.05 404.02L270.603 404.874L271.458 406.424L272.313 404.874L273.866 404.02L272.313 403.167L271.458 401.616Z" fill="black"/>
<path d="M281.463 396.542L280.608 398.093L279.055 398.947L280.608 399.8L281.463 401.351L282.306 399.8L283.871 398.947L282.306 398.093L281.463 396.542Z" fill="black"/>
<path d="M274.817 396.542L273.974 398.093L272.409 398.947L273.974 399.8L274.817 401.351L275.672 399.8L277.225 398.947L275.672 398.093L274.817 396.542Z" fill="black"/>
<path d="M281.463 446.024L280.608 447.587L279.055 448.429L280.608 449.282L281.463 450.833L282.306 449.282L283.871 448.429L282.306 447.587L281.463 446.024Z" fill="black"/>
<path d="M274.817 446.024L273.974 447.587L272.409 448.429L273.974 449.282L274.817 450.833L275.672 449.282L277.225 448.429L275.672 447.587L274.817 446.024Z" fill="black"/>
<path d="M284.834 441.155L283.991 442.718L282.426 443.56L283.991 444.413L284.834 445.964L285.689 444.413L287.242 443.56L285.689 442.718L284.834 441.155Z" fill="black"/>
<path d="M278.201 441.155L277.346 442.718L275.792 443.56L277.346 444.413L278.201 445.964L279.055 444.413L280.609 443.56L279.055 442.718L278.201 441.155Z" fill="black"/>
<path d="M271.458 441.155L270.603 442.718L269.05 443.56L270.603 444.413L271.458 445.964L272.313 444.413L273.866 443.56L272.313 442.718L271.458 441.155Z" fill="black"/>
<path d="M281.463 436.082L280.608 437.645L279.055 438.486L280.608 439.34L281.463 440.891L282.306 439.34L283.871 438.486L282.306 437.645L281.463 436.082Z" fill="black"/>
<path d="M274.817 436.082L273.974 437.645L272.409 438.486L273.974 439.34L274.817 440.891L275.672 439.34L277.225 438.486L275.672 437.645L274.817 436.082Z" fill="black"/>
<path d="M284.834 431.213L283.991 432.776L282.426 433.618L283.991 434.471L284.834 436.022L285.689 434.471L287.242 433.618L285.689 432.776L284.834 431.213Z" fill="black"/>
<path d="M278.201 431.213L277.346 432.776L275.792 433.618L277.346 434.471L278.201 436.022L279.055 434.471L280.609 433.618L279.055 432.776L278.201 431.213Z" fill="black"/>
<path d="M271.458 431.213L270.603 432.776L269.05 433.618L270.603 434.471L271.458 436.022L272.313 434.471L273.866 433.618L272.313 432.776L271.458 431.213Z" fill="black"/>
<path d="M281.463 426.344L280.608 427.907L279.055 428.749L280.608 429.602L281.463 431.153L282.306 429.602L283.871 428.749L282.306 427.907L281.463 426.344Z" fill="black"/>
<path d="M274.817 426.344L273.974 427.907L272.409 428.749L273.974 429.602L274.817 431.153L275.672 429.602L277.225 428.749L275.672 427.907L274.817 426.344Z" fill="black"/>
<path d="M284.834 421.476L283.991 423.038L282.426 423.88L283.991 424.734L284.834 426.296L285.689 424.734L287.242 423.88L285.689 423.038L284.834 421.476Z" fill="black"/>
<path d="M278.201 421.476L277.346 423.038L275.792 423.88L277.346 424.734L278.201 426.296L279.055 424.734L280.609 423.88L279.055 423.038L278.201 421.476Z" fill="black"/>
<path d="M271.458 421.476L270.603 423.038L269.05 423.88L270.603 424.734L271.458 426.296L272.313 424.734L273.866 423.88L272.313 423.038L271.458 421.476Z" fill="black"/>
<path d="M192.896 377.392C192.896 377.392 166.239 373.954 154.403 358.253C154.403 358.253 147.661 372.006 159.496 383.523L151.562 380.986C151.562 380.986 153.055 394.74 162.049 398.178H155.463C155.463 398.178 160.399 413.277 176.882 412.832C176.882 412.832 162.506 423.448 147.384 419.865C147.384 419.865 185.72 442.743 214.773 412.832C214.773 412.832 232.147 396.831 230.642 372.463L238.576 364.384L230.04 366.332L234.386 358.253L225.404 360.645C225.404 360.645 218.818 350.775 206.682 355.26C194.545 359.756 191.704 371.273 192.896 377.392Z" fill="#25AAE1" stroke="black" stroke-width="3" stroke-miterlimit="10" stroke-linecap="round" stroke-linejoin="round"/>
<path d="M283.63 483.209C302.156 483.209 317.174 468.213 317.174 449.716C317.174 431.218 302.156 416.223 283.63 416.223C265.105 416.223 250.086 431.218 250.086 449.716C250.086 468.213 265.105 483.209 283.63 483.209Z" fill="#25AAE1" stroke="black" stroke-width="3" stroke-miterlimit="10" stroke-linecap="round" stroke-linejoin="round"/>
<path d="M291.974 445.544H287.772V441.348C287.772 439.052 285.894 437.177 283.594 437.177C281.294 437.177 279.416 439.052 279.416 441.348V445.544H275.214C272.914 445.544 271.036 447.419 271.036 449.716C271.036 452.012 272.914 453.887 275.214 453.887H279.416V458.083C279.416 460.379 281.294 462.254 283.594 462.254C285.894 462.254 287.772 460.379 287.772 458.083V453.887H291.974C294.274 453.887 296.152 452.012 296.152 449.716C296.152 447.419 294.274 445.544 291.974 445.544Z" fill="black"/>
</svg>
