<svg width="439" height="234" viewBox="0 0 439 234" fill="none" xmlns="http://www.w3.org/2000/svg">
<g clip-path="url(#clip0intro2)">
<path d="M212.491 50.0801H99.8159V192.836H212.491V50.0801Z" fill="#00D384" stroke="black" stroke-width="3" stroke-miterlimit="10"/>
<path d="M425.983 19.5519V30.6171H64.895V19.5459C64.895 9.25063 73.2447 0.89502 83.5459 0.89502H407.326C417.627 0.89502 425.983 9.25063 425.983 19.5519Z" fill="#9E6CFF" stroke="black" stroke-width="3" stroke-miterlimit="10" stroke-linecap="round" stroke-linejoin="round"/>
<path d="M425.983 19.5579V199.293C425.983 209.105 418.021 217.061 408.209 217.061H82.6626C72.8508 217.061 64.895 209.111 64.895 199.293V19.5459C64.895 9.25063 73.2447 0.89502 83.5459 0.89502H407.32C417.633 0.89502 425.983 9.25063 425.983 19.5579Z" stroke="black" stroke-width="3" stroke-miterlimit="10"/>
<path d="M438.104 31.602V211.337C438.104 221.149 430.149 229.105 420.337 229.105H94.7901C86.7269 229.105 79.9171 223.733 77.7446 216.368C79.3024 216.822 80.9556 217.061 82.6625 217.061H408.215C418.027 217.061 425.983 209.105 425.983 199.293V19.552C425.983 17.5467 425.666 15.6189 425.082 13.8105C432.625 16.1919 438.104 23.2584 438.104 31.602Z" fill="black" stroke="black" stroke-width="3" stroke-miterlimit="10"/>
<path d="M113.608 20.6559C116.278 20.6559 118.443 18.4915 118.443 15.8216C118.443 13.1517 116.278 10.9873 113.608 10.9873C110.938 10.9873 108.774 13.1517 108.774 15.8216C108.774 18.4915 110.938 20.6559 113.608 20.6559Z" stroke="black" stroke-width="3" stroke-miterlimit="10"/>
<path d="M131.866 20.6559C134.535 20.6559 136.7 18.4915 136.7 15.8216C136.7 13.1517 134.535 10.9873 131.866 10.9873C129.196 10.9873 127.031 13.1517 127.031 15.8216C127.031 18.4915 129.196 20.6559 131.866 20.6559Z" stroke="black" stroke-width="3" stroke-miterlimit="10"/>
<path d="M94.9813 20.6559C97.6512 20.6559 99.8156 18.4915 99.8156 15.8216C99.8156 13.1517 97.6512 10.9873 94.9813 10.9873C92.3114 10.9873 90.147 13.1517 90.147 15.8216C90.147 18.4915 92.3114 20.6559 94.9813 20.6559Z" stroke="black" stroke-width="3" stroke-miterlimit="10"/>
<path d="M425.983 30.6172H64.895" stroke="black" stroke-width="3" stroke-miterlimit="10"/>
<path d="M423.584 208.084L424.067 208.962L424.945 209.439L424.067 209.917L423.584 210.794L423.106 209.917L422.229 209.439L423.106 208.962L423.584 208.084Z" fill="black"/>
<path d="M179.642 176.59H129.228C126.267 176.59 123.844 174.167 123.844 171.206V71.7149C123.844 68.7547 126.267 66.3315 129.228 66.3315H183.092C186.052 66.3315 188.475 68.7547 188.475 71.7149V167.763C188.475 172.615 184.5 176.59 179.642 176.59Z" fill="#9E6CFF" stroke="black" stroke-width="3" stroke-miterlimit="10"/>
<path d="M151.053 137.772H146.219V132.938C146.219 132.502 145.861 132.138 145.419 132.138H141.313C140.878 132.138 140.513 132.496 140.513 132.938V137.772H135.679C135.243 137.772 134.879 138.13 134.879 138.572V142.678C134.879 143.114 135.237 143.478 135.679 143.478H140.513V148.312C140.513 148.748 140.872 149.112 141.313 149.112H145.419C145.855 149.112 146.219 148.754 146.219 148.312V143.478H151.053C151.489 143.478 151.853 143.12 151.853 142.678V138.572C151.847 138.136 151.489 137.772 151.053 137.772Z" fill="black" stroke="black" stroke-width="3" stroke-miterlimit="10"/>
<path d="M161.116 153.63C163.569 153.63 165.557 151.642 165.557 149.189C165.557 146.737 163.569 144.749 161.116 144.749C158.664 144.749 156.676 146.737 156.676 149.189C156.676 151.642 158.664 153.63 161.116 153.63Z" fill="white" stroke="black" stroke-width="3" stroke-miterlimit="10"/>
<path d="M173.369 146.527C175.821 146.527 177.81 144.539 177.81 142.087C177.81 139.635 175.821 137.646 173.369 137.646C170.917 137.646 168.929 139.635 168.929 142.087C168.929 144.539 170.917 146.527 173.369 146.527Z" fill="white" stroke="black" stroke-width="3" stroke-miterlimit="10"/>
<path d="M174.67 122.601H133.393C132.737 122.601 132.2 122.063 132.2 121.407V80.6912C132.2 80.0347 132.737 79.4976 133.393 79.4976H179.451C180.107 79.4976 180.644 80.0347 180.644 80.6912V116.626C180.644 119.915 177.953 122.601 174.67 122.601Z" fill="black" stroke="black" stroke-width="3" stroke-miterlimit="10"/>
<path d="M171.346 86.1226H141.493V115.976H171.346V86.1226Z" fill="white" stroke="black" stroke-width="3" stroke-miterlimit="10"/>
<path d="M166.351 161.239L172.689 168.151" stroke="black" stroke-width="3" stroke-miterlimit="10" stroke-linecap="round" stroke-linejoin="round"/>
<path d="M174.05 153.284L180.388 160.189" stroke="black" stroke-width="3" stroke-miterlimit="10" stroke-linecap="round" stroke-linejoin="round"/>
<path d="M171.806 158.876L178.15 165.781" stroke="black" stroke-width="3" stroke-miterlimit="10" stroke-linecap="round" stroke-linejoin="round"/>
<path d="M381.848 82.47H249.065C244.624 82.47 240.99 78.8353 240.99 74.3949C240.99 69.9545 244.624 66.3198 249.065 66.3198H381.848C386.288 66.3198 389.923 69.9545 389.923 74.3949C389.917 78.8353 386.288 82.47 381.848 82.47Z" fill="#25AAE1" stroke="black" stroke-width="3" stroke-miterlimit="10" stroke-linecap="round" stroke-linejoin="round"/>
<path d="M381.848 117.51H249.065C244.624 117.51 240.99 113.875 240.99 109.434C240.99 104.994 244.624 101.359 249.065 101.359H381.848C386.288 101.359 389.923 104.994 389.923 109.434C389.917 113.875 386.288 117.51 381.848 117.51Z" fill="#25AAE1" stroke="black" stroke-width="3" stroke-miterlimit="10" stroke-linecap="round" stroke-linejoin="round"/>
<path d="M339.383 169.004H291.524C282.559 169.004 275.224 161.669 275.224 152.705C275.224 143.74 282.559 136.405 291.524 136.405H339.383C348.348 136.405 355.683 143.74 355.683 152.705C355.683 161.663 348.348 169.004 339.383 169.004Z" fill="#FFDE16" stroke="black" stroke-width="3" stroke-miterlimit="10"/>
<path d="M331.087 159.234L319.586 156.155L308.086 153.075C306.593 152.675 305.227 154.042 305.627 155.534L308.706 167.035L311.786 178.536C312.186 180.028 314.054 180.529 315.146 179.437L319.927 174.656L324.636 179.365C325.268 179.998 326.307 179.998 326.939 179.365L331.917 174.388C332.55 173.755 332.55 172.716 331.917 172.084L327.208 167.375L331.989 162.594C333.081 161.496 332.579 159.634 331.087 159.234Z" fill="#25AAE1" stroke="black" stroke-width="3" stroke-miterlimit="10"/>
<path d="M330.639 173.48L330.442 173.833L330.09 174.024L330.442 174.221L330.639 174.573L330.83 174.221L331.183 174.024L330.83 173.833L330.639 173.48Z" fill="black"/>
<path d="M329.112 173.48L328.915 173.833L328.562 174.024L328.915 174.221L329.112 174.573L329.303 174.221L329.655 174.024L329.303 173.833L329.112 173.48Z" fill="black"/>
<path d="M331.404 172.376L331.213 172.729L330.854 172.92L331.213 173.117L331.404 173.469L331.595 173.117L331.947 172.92L331.595 172.729L331.404 172.376Z" fill="black"/>
<path d="M329.876 172.376L329.685 172.729L329.333 172.92L329.685 173.117L329.876 173.469L330.067 173.117L330.419 172.92L330.067 172.729L329.876 172.376Z" fill="black"/>
<path d="M330.639 171.272L330.442 171.625L330.09 171.816L330.442 172.013L330.639 172.365L330.83 172.013L331.183 171.816L330.83 171.625L330.639 171.272Z" fill="black"/>
<path d="M329.112 171.272L328.915 171.625L328.562 171.816L328.915 172.013L329.112 172.365L329.303 172.013L329.655 171.816L329.303 171.625L329.112 171.272Z" fill="black"/>
<path d="M329.876 170.168L329.685 170.52L329.333 170.711L329.685 170.902L329.876 171.26L330.067 170.902L330.419 170.711L330.067 170.52L329.876 170.168Z" fill="black"/>
<path d="M329.112 169.016L328.915 169.368L328.562 169.559L328.915 169.756L329.112 170.108L329.303 169.756L329.655 169.559L329.303 169.368L329.112 169.016Z" fill="black"/>
<path d="M329.112 175.814L328.915 176.166L328.562 176.357L328.915 176.548L329.112 176.906L329.303 176.548L329.655 176.357L329.303 176.166L329.112 175.814Z" fill="black"/>
<path d="M329.876 174.71L329.685 175.062L329.333 175.253L329.685 175.444L329.876 175.796L330.067 175.444L330.419 175.253L330.067 175.062L329.876 174.71Z" fill="black"/>
<path d="M327.417 173.48L327.226 173.833L326.874 174.024L327.226 174.221L327.417 174.573L327.608 174.221L327.966 174.024L327.608 173.833L327.417 173.48Z" fill="black"/>
<path d="M325.913 173.48L325.722 173.833L325.37 174.024L325.722 174.221L325.913 174.573L326.104 174.221L326.462 174.024L326.104 173.833L325.913 173.48Z" fill="black"/>
<path d="M328.181 172.376L327.99 172.729L327.638 172.92L327.99 173.117L328.181 173.469L328.378 173.117L328.73 172.92L328.378 172.729L328.181 172.376Z" fill="black"/>
<path d="M326.677 172.376L326.486 172.729L326.134 172.92L326.486 173.117L326.677 173.469L326.874 173.117L327.226 172.92L326.874 172.729L326.677 172.376Z" fill="black"/>
<path d="M327.417 171.272L327.226 171.625L326.874 171.816L327.226 172.013L327.417 172.365L327.608 172.013L327.966 171.816L327.608 171.625L327.417 171.272Z" fill="black"/>
<path d="M325.913 171.272L325.722 171.625L325.37 171.816L325.722 172.013L325.913 172.365L326.104 172.013L326.462 171.816L326.104 171.625L325.913 171.272Z" fill="black"/>
<path d="M328.181 170.168L327.99 170.521L327.638 170.712L327.99 170.903L328.181 171.261L328.378 170.903L328.73 170.712L328.378 170.521L328.181 170.168Z" fill="black"/>
<path d="M326.677 170.168L326.486 170.521L326.134 170.712L326.486 170.903L326.677 171.261L326.874 170.903L327.226 170.712L326.874 170.521L326.677 170.168Z" fill="black"/>
<path d="M327.417 169.016L327.226 169.368L326.874 169.559L327.226 169.756L327.417 170.108L327.608 169.756L327.966 169.559L327.608 169.368L327.417 169.016Z" fill="black"/>
<path d="M325.913 169.016L325.722 169.368L325.37 169.559L325.722 169.756L325.913 170.108L326.104 169.756L326.462 169.559L326.104 169.368L325.913 169.016Z" fill="black"/>
<path d="M328.181 167.912L327.99 168.264L327.638 168.455L327.99 168.646L328.181 169.004L328.378 168.646L328.73 168.455L328.378 168.264L328.181 167.912Z" fill="black"/>
<path d="M326.677 167.912L326.486 168.264L326.134 168.455L326.486 168.646L326.677 169.004L326.874 168.646L327.226 168.455L326.874 168.264L326.677 167.912Z" fill="black"/>
<path d="M327.417 178.022L327.226 178.375L326.874 178.566L327.226 178.763L327.417 179.115L327.608 178.763L327.966 178.566L327.608 178.375L327.417 178.022Z" fill="black"/>
<path d="M325.913 178.022L325.722 178.375L325.37 178.566L325.722 178.763L325.913 179.115L326.104 178.763L326.462 178.566L326.104 178.375L325.913 178.022Z" fill="black"/>
<path d="M328.181 176.918L327.99 177.27L327.638 177.461L327.99 177.652L328.181 178.01L328.378 177.652L328.73 177.461L328.378 177.27L328.181 176.918Z" fill="black"/>
<path d="M326.677 176.918L326.486 177.27L326.134 177.461L326.486 177.652L326.677 178.01L326.874 177.652L327.226 177.461L326.874 177.27L326.677 176.918Z" fill="black"/>
<path d="M327.417 175.814L327.226 176.166L326.874 176.357L327.226 176.548L327.417 176.906L327.608 176.548L327.966 176.357L327.608 176.166L327.417 175.814Z" fill="black"/>
<path d="M325.913 175.814L325.722 176.166L325.37 176.357L325.722 176.548L325.913 176.906L326.104 176.548L326.462 176.357L326.104 176.166L325.913 175.814Z" fill="black"/>
<path d="M328.181 174.71L327.99 175.062L327.638 175.253L327.99 175.444L328.181 175.796L328.378 175.444L328.73 175.253L328.378 175.062L328.181 174.71Z" fill="black"/>
<path d="M326.677 174.71L326.486 175.062L326.134 175.253L326.486 175.444L326.677 175.796L326.874 175.444L327.226 175.253L326.874 175.062L326.677 174.71Z" fill="black"/>
<path d="M324.373 173.481L324.182 173.833L323.83 174.024L324.182 174.221L324.373 174.573L324.564 174.221L324.916 174.024L324.564 173.833L324.373 173.481Z" fill="black"/>
<path d="M322.845 173.481L322.654 173.833L322.302 174.024L322.654 174.221L322.845 174.573L323.036 174.221L323.394 174.024L323.036 173.833L322.845 173.481Z" fill="black"/>
<path d="M325.137 172.376L324.946 172.729L324.594 172.92L324.946 173.117L325.137 173.469L325.334 173.117L325.686 172.92L325.334 172.729L325.137 172.376Z" fill="black"/>
<path d="M323.61 172.376L323.419 172.729L323.066 172.92L323.419 173.117L323.61 173.469L323.806 173.117L324.159 172.92L323.806 172.729L323.61 172.376Z" fill="black"/>
<path d="M324.373 171.272L324.182 171.625L323.83 171.816L324.182 172.013L324.373 172.365L324.564 172.013L324.916 171.816L324.564 171.625L324.373 171.272Z" fill="black"/>
<path d="M325.137 170.168L324.946 170.521L324.594 170.712L324.946 170.903L325.137 171.261L325.334 170.903L325.686 170.712L325.334 170.521L325.137 170.168Z" fill="black"/>
<path d="M324.373 178.023L324.182 178.375L323.83 178.566L324.182 178.763L324.373 179.115L324.564 178.763L324.916 178.566L324.564 178.375L324.373 178.023Z" fill="black"/>
<path d="M325.137 176.918L324.946 177.271L324.594 177.462L324.946 177.653L325.137 178.011L325.334 177.653L325.686 177.462L325.334 177.271L325.137 176.918Z" fill="black"/>
<path d="M323.61 176.918L323.419 177.271L323.066 177.462L323.419 177.653L323.61 178.011L323.806 177.653L324.159 177.462L323.806 177.271L323.61 176.918Z" fill="black"/>
<path d="M324.373 175.814L324.182 176.167L323.83 176.358L324.182 176.549L324.373 176.907L324.564 176.549L324.916 176.358L324.564 176.167L324.373 175.814Z" fill="black"/>
<path d="M322.845 175.814L322.654 176.167L322.302 176.358L322.654 176.549L322.845 176.907L323.036 176.549L323.394 176.358L323.036 176.167L322.845 175.814Z" fill="black"/>
<path d="M325.137 174.71L324.946 175.063L324.594 175.254L324.946 175.445L325.137 175.797L325.334 175.445L325.686 175.254L325.334 175.063L325.137 174.71Z" fill="black"/>
<path d="M323.61 174.71L323.419 175.063L323.066 175.254L323.419 175.445L323.61 175.797L323.806 175.445L324.159 175.254L323.806 175.063L323.61 174.71Z" fill="black"/>
<path d="M321.92 174.71L321.723 175.063L321.371 175.254L321.723 175.445L321.92 175.797L322.111 175.445L322.463 175.254L322.111 175.063L321.92 174.71Z" fill="black"/>
</g>
<path d="M33.3732 179.091C36.9358 183.526 37.042 195.88 36.865 201.993C36.806 203.87 35.0837 205.243 33.2316 204.879C27.2035 203.694 15.1236 200.832 11.561 196.397C7.80966 191.715 3.51565 172.814 1.81692 164.73C1.48661 163.181 3.07917 161.926 4.51837 162.583C12.0565 166.044 29.6218 174.409 33.3732 179.091Z" fill="#08B56E" stroke="black" stroke-width="3" stroke-miterlimit="10" stroke-linecap="round" stroke-linejoin="round"/>
<path d="M44.627 179.091C41.0644 183.526 40.9582 195.88 41.1352 201.993C41.1942 203.87 42.9165 205.243 44.7686 204.879C50.7967 203.694 62.8766 200.832 66.4392 196.397C70.1905 191.727 74.4727 172.826 76.1833 164.742C76.5136 163.193 74.921 161.938 73.4818 162.595C65.9319 166.044 48.3666 174.409 44.627 179.091Z" fill="#08B56E" stroke="black" stroke-width="3" stroke-miterlimit="10" stroke-linecap="round" stroke-linejoin="round"/>
<path d="M58.6535 172.65C58.6535 180.651 47.8713 194.355 42.2679 200.926C40.5456 202.944 37.4312 202.944 35.7089 200.926C30.1173 194.355 19.3232 180.651 19.3232 172.65C19.3232 164.226 31.2851 139.657 36.5465 129.262C37.5492 127.267 40.404 127.267 41.4185 129.262C46.6917 139.657 58.6535 164.226 58.6535 172.65Z" fill="#08B56E" stroke="black" stroke-width="3" stroke-miterlimit="10" stroke-linecap="round" stroke-linejoin="round"/>
<path d="M53.9585 232.24H24.3369L18.5093 201.184H59.4911L53.9585 232.24Z" fill="#25AAE1" stroke="black" stroke-width="3" stroke-miterlimit="10" stroke-linecap="round" stroke-linejoin="round"/>
<path d="M45.8778 155.355L46.385 154.429L47.317 153.924L46.385 153.408L45.8778 152.481L45.3587 153.408L44.4268 153.924L45.3587 154.429L45.8778 155.355Z" fill="black"/>
<path d="M49.9123 155.355L50.4196 154.429L51.3633 153.924L50.4196 153.408L49.9123 152.481L49.4051 153.408L48.4731 153.924L49.4051 154.429L49.9123 155.355Z" fill="black"/>
<path d="M43.8489 158.265L44.3561 157.338L45.2881 156.822L44.3561 156.318L43.8489 155.391L43.3416 156.318L42.4097 156.822L43.3416 157.338L43.8489 158.265Z" fill="black"/>
<path d="M47.8948 158.265L48.4021 157.338L49.334 156.822L48.4021 156.318L47.8948 155.391L47.3758 156.318L46.4438 156.822L47.3758 157.338L47.8948 158.265Z" fill="black"/>
<path d="M45.8778 161.163L46.385 160.236L47.317 159.732L46.385 159.227L45.8778 158.3L45.3587 159.227L44.4268 159.732L45.3587 160.236L45.8778 161.163Z" fill="black"/>
<path d="M49.9123 161.163L50.4196 160.236L51.3633 159.732L50.4196 159.227L49.9123 158.3L49.4051 159.227L48.4731 159.732L49.4051 160.236L49.9123 161.163Z" fill="black"/>
<path d="M43.8489 164.073L44.3561 163.146L45.2881 162.641L44.3561 162.137L43.8489 161.198L43.3416 162.137L42.4097 162.641L43.3416 163.146L43.8489 164.073Z" fill="black"/>
<path d="M47.8948 164.073L48.4021 163.146L49.334 162.641L48.4021 162.137L47.8948 161.198L47.3758 162.137L46.4438 162.641L47.3758 163.146L47.8948 164.073Z" fill="black"/>
<path d="M41.8909 167.1L42.4099 166.173L43.3419 165.669L42.4099 165.164L41.8909 164.237L41.3836 165.164L40.4517 165.669L41.3836 166.173L41.8909 167.1Z" fill="black"/>
<path d="M45.8778 167.1L46.385 166.173L47.317 165.669L46.385 165.164L45.8778 164.237L45.3587 165.164L44.4268 165.669L45.3587 166.173L45.8778 167.1Z" fill="black"/>
<path d="M49.9123 167.1L50.4196 166.173L51.3633 165.669L50.4196 165.164L49.9123 164.237L49.4051 165.164L48.4731 165.669L49.4051 166.173L49.9123 167.1Z" fill="black"/>
<path d="M39.8734 170.01L40.3806 169.083L41.3126 168.578L40.3806 168.062L39.8734 167.135L39.3543 168.062L38.4224 168.578L39.3543 169.083L39.8734 170.01Z" fill="black"/>
<path d="M43.8489 170.01L44.3561 169.083L45.2881 168.578L44.3561 168.062L43.8489 167.135L43.3416 168.062L42.4097 168.578L43.3416 169.083L43.8489 170.01Z" fill="black"/>
<path d="M47.8948 170.01L48.4021 169.083L49.334 168.578L48.4021 168.062L47.8948 167.135L47.3758 168.062L46.4438 168.578L47.3758 169.083L47.8948 170.01Z" fill="black"/>
<path d="M41.8909 131.75L42.4099 130.823L43.3419 130.318L42.4099 129.802L41.8909 128.875L41.3836 129.802L40.4517 130.318L41.3836 130.823L41.8909 131.75Z" fill="black"/>
<path d="M39.8734 134.659L40.3806 133.732L41.3126 133.216L40.3806 132.712L39.8734 131.785L39.3543 132.712L38.4224 133.216L39.3543 133.732L39.8734 134.659Z" fill="black"/>
<path d="M43.8489 134.659L44.3561 133.732L45.2881 133.216L44.3561 132.712L43.8489 131.785L43.3416 132.712L42.4097 133.216L43.3416 133.732L43.8489 134.659Z" fill="black"/>
<path d="M41.8909 137.557L42.4099 136.63L43.3419 136.126L42.4099 135.621L41.8909 134.694L41.3836 135.621L40.4517 136.126L41.3836 136.63L41.8909 137.557Z" fill="black"/>
<path d="M39.8734 140.467L40.3806 139.54L41.3126 139.035L40.3806 138.519L39.8734 137.592L39.3543 138.519L38.4224 139.035L39.3543 139.54L39.8734 140.467Z" fill="black"/>
<path d="M43.8489 140.467L44.3561 139.54L45.2881 139.035L44.3561 138.519L43.8489 137.592L43.3416 138.519L42.4097 139.035L43.3416 139.54L43.8489 140.467Z" fill="black"/>
<path d="M41.8909 143.494L42.4099 142.567L43.3419 142.063L42.4099 141.558L41.8909 140.631L41.3836 141.558L40.4517 142.063L41.3836 142.567L41.8909 143.494Z" fill="black"/>
<path d="M45.8778 143.494L46.385 142.567L47.317 142.063L46.385 141.558L45.8778 140.631L45.3587 141.558L44.4268 142.063L45.3587 142.567L45.8778 143.494Z" fill="black"/>
<path d="M39.8734 146.404L40.3806 145.477L41.3126 144.972L40.3806 144.456L39.8734 143.529L39.3543 144.456L38.4224 144.972L39.3543 145.477L39.8734 146.404Z" fill="black"/>
<path d="M43.8489 146.404L44.3561 145.477L45.2881 144.972L44.3561 144.456L43.8489 143.529L43.3416 144.456L42.4097 144.972L43.3416 145.477L43.8489 146.404Z" fill="black"/>
<path d="M47.8948 146.404L48.4021 145.477L49.334 144.972L48.4021 144.456L47.8948 143.529L47.3758 144.456L46.4438 144.972L47.3758 145.477L47.8948 146.404Z" fill="black"/>
<path d="M41.8909 149.313L42.4099 148.387L43.3419 147.87L42.4099 147.366L41.8909 146.439L41.3836 147.366L40.4517 147.87L41.3836 148.387L41.8909 149.313Z" fill="black"/>
<path d="M45.8778 149.313L46.385 148.387L47.317 147.87L46.385 147.366L45.8778 146.439L45.3587 147.366L44.4268 147.87L45.3587 148.387L45.8778 149.313Z" fill="black"/>
<path d="M49.9123 149.313L50.4196 148.387L51.3633 147.87L50.4196 147.366L49.9123 146.439L49.4051 147.366L48.4731 147.87L49.4051 148.387L49.9123 149.313Z" fill="black"/>
<path d="M43.8489 152.211L44.3561 151.285L45.2881 150.78L44.3561 150.276L43.8489 149.349L43.3416 150.276L42.4097 150.78L43.3416 151.285L43.8489 152.211Z" fill="black"/>
<path d="M47.8948 152.211L48.4021 151.285L49.334 150.78L48.4021 150.276L47.8948 149.349L47.3758 150.276L46.4438 150.78L47.3758 151.285L47.8948 152.211Z" fill="black"/>
<path d="M39.8734 128.523L40.3806 127.596L41.3126 127.08L40.3806 126.575V127.596L39.3543 126.575L38.4224 127.08L39.3543 127.596L39.8734 128.523Z" fill="black"/>
<path d="M52.5076 158.265L53.0149 157.338L53.9468 156.822L53.0149 156.318L52.5076 155.391L52.0004 156.318L51.0566 156.822L52.0004 157.338L52.5076 158.265Z" fill="black"/>
<path d="M54.5251 161.163L55.0442 160.236L55.9761 159.732L55.0442 159.227L54.5251 158.3L54.0179 159.227L53.0859 159.732L54.0179 160.236L54.5251 161.163Z" fill="black"/>
<path d="M52.5076 164.073L53.0149 163.146L53.9468 162.641L53.0149 162.137L52.5076 161.198L52.0004 162.137L51.0566 162.641L52.0004 163.146L52.5076 164.073Z" fill="black"/>
<path d="M56.4831 164.073L56.9904 163.146L57.9223 162.641L56.9904 162.137L56.4831 161.198L55.9759 162.137L55.0439 162.641L55.9759 163.146L56.4831 164.073Z" fill="black"/>
<path d="M54.5251 167.1L55.0442 166.173L55.9761 165.669L55.0442 165.164L54.5251 164.237L54.0179 165.164L53.0859 165.669L54.0179 166.173L54.5251 167.1Z" fill="black"/>
<path d="M52.5076 170.009L53.0149 169.082L53.9468 168.578L53.0149 168.062L52.5076 167.135L52.0004 168.062L51.0566 168.578L52.0004 169.082L52.5076 170.009Z" fill="black"/>
<path d="M56.4831 170.009L56.9904 169.082L57.9223 168.578L56.9904 168.062L56.4831 167.135L55.9759 168.062L55.0439 168.578L55.9759 169.082L56.4831 170.009Z" fill="black"/>
<path d="M60.5291 170.009L61.0364 169.082L61.9683 168.578L61.0364 168.062L60.5291 167.135L60.0101 168.062L59.0781 168.578L60.0101 169.082L60.5291 170.009Z" fill="black"/>
<path d="M58.5002 182.059L57.993 182.986L57.061 183.502L57.993 184.007L58.5002 184.934L59.0075 184.007L59.9394 183.502L59.0075 182.986L58.5002 182.059Z" fill="black"/>
<path d="M54.5252 182.059L54.0062 182.986L53.0742 183.502L54.0062 184.007L54.5252 184.934L55.0325 184.007L55.9644 183.502L55.0325 182.986L54.5252 182.059Z" fill="black"/>
<path d="M50.4788 182.059L49.9715 182.986L49.0396 183.502L49.9715 184.007L50.4788 184.934L50.986 184.007L51.9297 183.502L50.986 182.986L50.4788 182.059Z" fill="black"/>
<path d="M60.5296 179.162L60.0106 180.089L59.0786 180.593L60.0106 181.098L60.5296 182.024L61.0369 181.098L61.9688 180.593L61.0369 180.089L60.5296 179.162Z" fill="black"/>
<path d="M56.5422 179.162L56.035 180.089L55.103 180.593L56.035 181.098L56.5422 182.024L57.0613 181.098L57.9932 180.593L57.0613 180.089L56.5422 179.162Z" fill="black"/>
<path d="M52.5076 179.162L52.0004 180.089L51.0566 180.593L52.0004 181.098L52.5076 182.024L53.0149 181.098L53.9468 180.593L53.0149 180.089L52.5076 179.162Z" fill="black"/>
<path d="M58.5002 176.252L57.993 177.179L57.061 177.683L57.993 178.2L58.5002 179.126L59.0075 178.2L59.9394 177.683L59.0075 177.179L58.5002 176.252Z" fill="black"/>
<path d="M54.5252 176.252L54.0062 177.179L53.0742 177.683L54.0062 178.2L54.5252 179.126L55.0325 178.2L55.9644 177.683L55.0325 177.179L54.5252 176.252Z" fill="black"/>
<path d="M50.4788 176.252L49.9715 177.179L49.0396 177.683L49.9715 178.2L50.4788 179.126L50.986 178.2L51.9297 177.683L50.986 177.179L50.4788 176.252Z" fill="black"/>
<path d="M60.5296 173.342L60.0106 174.269L59.0786 174.785L60.0106 175.289L60.5296 176.216L61.0369 175.289L61.9688 174.785L61.0369 174.269L60.5296 173.342Z" fill="black"/>
<path d="M56.5422 173.342L56.035 174.269L55.103 174.785L56.035 175.289L56.5422 176.216L57.0613 175.289L57.9932 174.785L57.0613 174.269L56.5422 173.342Z" fill="black"/>
<path d="M52.5076 173.342L52.0004 174.269L51.0566 174.785L52.0004 175.289L52.5076 176.216L53.0149 175.289L53.9468 174.785L53.0149 174.269L52.5076 173.342Z" fill="black"/>
<path d="M58.5002 170.315L57.993 171.242L57.061 171.746L57.993 172.263L58.5002 173.189L59.0075 172.263L59.9394 171.746L59.0075 171.242L58.5002 170.315Z" fill="black"/>
<path d="M54.5252 170.315L54.0062 171.242L53.0742 171.746L54.0062 172.263L54.5252 173.189L55.0325 172.263L55.9644 171.746L55.0325 171.242L54.5252 170.315Z" fill="black"/>
<path d="M50.4788 170.315L49.9715 171.242L49.0396 171.746L49.9715 172.263L50.4788 173.189L50.986 172.263L51.9297 171.746L50.986 171.242L50.4788 170.315Z" fill="black"/>
<path d="M58.5002 205.666L57.993 206.592L57.061 207.109L57.993 207.613L58.5002 208.54L59.0075 207.613L59.9394 207.109L59.0075 206.592L58.5002 205.666Z" fill="black"/>
<path d="M54.5252 205.666L54.0062 206.592L53.0742 207.109L54.0062 207.613L54.5252 208.54L55.0325 207.613L55.9644 207.109L55.0325 206.592L54.5252 205.666Z" fill="black"/>
<path d="M50.4788 205.666L49.9715 206.592L49.0396 207.109L49.9715 207.613L50.4788 208.54L50.986 207.613L51.9297 207.109L50.986 206.592L50.4788 205.666Z" fill="black"/>
<path d="M56.5422 202.768L56.035 203.694L55.103 204.199L56.035 204.703L56.5422 205.63L57.0613 204.703L57.9932 204.199L57.0613 203.694L56.5422 202.768Z" fill="black"/>
<path d="M52.5076 202.768L52.0004 203.694L51.0566 204.199L52.0004 204.703L52.5076 205.63L53.0149 204.703L53.9468 204.199L53.0149 203.694L52.5076 202.768Z" fill="black"/>
<path d="M58.5002 199.858L57.993 200.785L57.061 201.289L57.993 201.806L58.5002 202.732L59.0075 201.806L59.9394 201.289L59.0075 200.785L58.5002 199.858Z" fill="black"/>
<path d="M54.5252 199.858L54.0062 200.785L53.0742 201.289L54.0062 201.806L54.5252 202.732L55.0325 201.806L55.9644 201.289L55.0325 200.785L54.5252 199.858Z" fill="black"/>
<path d="M50.4788 199.858L49.9715 200.785L49.0396 201.289L49.9715 201.806L50.4788 202.732L50.986 201.806L51.9297 201.289L50.986 200.785L50.4788 199.858Z" fill="black"/>
<path d="M60.5296 196.948L60.0106 197.875L59.0786 198.391L60.0106 198.895L60.5296 199.822L61.0369 198.895L61.9688 198.391L61.0369 197.875L60.5296 196.948Z" fill="black"/>
<path d="M56.5422 196.948L56.035 197.875L55.103 198.391L56.035 198.895L56.5422 199.822L57.0613 198.895L57.9932 198.391L57.0613 197.875L56.5422 196.948Z" fill="black"/>
<path d="M52.5076 196.948L52.0004 197.875L51.0566 198.391L52.0004 198.895L52.5076 199.822L53.0149 198.895L53.9468 198.391L53.0149 197.875L52.5076 196.948Z" fill="black"/>
<path d="M58.5002 193.921L57.993 194.848L57.061 195.352L57.993 195.869L58.5002 196.795L59.0075 195.869L59.9394 195.352L59.0075 194.848L58.5002 193.921Z" fill="black"/>
<path d="M54.5252 193.921L54.0062 194.848L53.0742 195.352L54.0062 195.869L54.5252 196.795L55.0325 195.869L55.9644 195.352L55.0325 194.848L54.5252 193.921Z" fill="black"/>
<path d="M50.4788 193.921L49.9715 194.848L49.0396 195.352L49.9715 195.869L50.4788 196.795L50.986 195.869L51.9297 195.352L50.986 194.848L50.4788 193.921Z" fill="black"/>
<path d="M60.5296 191.011L60.0106 191.938L59.0786 192.454L60.0106 192.959L60.5296 193.886L61.0369 192.959L61.9688 192.454L61.0369 191.938L60.5296 191.011Z" fill="black"/>
<path d="M56.5422 191.011L56.035 191.938L55.103 192.454L56.035 192.959L56.5422 193.886L57.0613 192.959L57.9932 192.454L57.0613 191.938L56.5422 191.011Z" fill="black"/>
<path d="M52.5076 191.011L52.0004 191.938L51.0566 192.454L52.0004 192.959L52.5076 193.886L53.0149 192.959L53.9468 192.454L53.0149 191.938L52.5076 191.011Z" fill="black"/>
<path d="M58.5002 188.113L57.993 189.04L57.061 189.545L57.993 190.049L58.5002 190.976L59.0075 190.049L59.9394 189.545L59.0075 189.04L58.5002 188.113Z" fill="black"/>
<path d="M54.5252 188.113L54.0062 189.04L53.0742 189.545L54.0062 190.049L54.5252 190.976L55.0325 190.049L55.9644 189.545L55.0325 189.04L54.5252 188.113Z" fill="black"/>
<path d="M50.4788 188.113L49.9715 189.04L49.0396 189.545L49.9715 190.049L50.4788 190.976L50.986 190.049L51.9297 189.545L50.986 189.04L50.4788 188.113Z" fill="black"/>
<path d="M60.5296 185.204L60.0106 186.131L59.0786 186.635L60.0106 187.151L60.5296 188.078L61.0369 187.151L61.9688 186.635L61.0369 186.131L60.5296 185.204Z" fill="black"/>
<path d="M56.5422 185.204L56.035 186.131L55.103 186.635L56.035 187.151L56.5422 188.078L57.0613 187.151L57.9932 186.635L57.0613 186.131L56.5422 185.204Z" fill="black"/>
<path d="M52.5076 185.204L52.0004 186.131L51.0566 186.635L52.0004 187.151L52.5076 188.078L53.0149 187.151L53.9468 186.635L53.0149 186.131L52.5076 185.204Z" fill="black"/>
<path d="M56.5422 208.904L56.035 209.831L55.103 210.335L56.035 210.84L56.5422 211.767L57.0613 210.84L57.9932 210.335L57.0613 209.831L56.5422 208.904Z" fill="black"/>
<path d="M52.5076 208.904L52.0004 209.831L51.0566 210.335L52.0004 210.84L52.5076 211.767L53.0149 210.84L53.9468 210.335L53.0149 209.831L52.5076 208.904Z" fill="black"/>
<path d="M45.8665 182.059L45.3592 182.986L44.4272 183.502L45.3592 184.007L45.8665 184.934L46.3737 184.007L47.3057 183.502L46.3737 182.986L45.8665 182.059Z" fill="black"/>
<path d="M47.8953 179.162L47.3763 180.089L46.4443 180.593L47.3763 181.098L47.8953 182.024L48.4026 181.098L49.3345 180.593L48.4026 180.089L47.8953 179.162Z" fill="black"/>
<path d="M45.8665 176.252L45.3592 177.179L44.4272 177.683L45.3592 178.2L45.8665 179.126L46.3737 178.2L47.3057 177.683L46.3737 177.179L45.8665 176.252Z" fill="black"/>
<path d="M47.8953 173.342L47.3763 174.269L46.4443 174.785L47.3763 175.289L47.8953 176.216L48.4026 175.289L49.3345 174.785L48.4026 174.269L47.8953 173.342Z" fill="black"/>
<path d="M43.9079 173.342L43.4007 174.269L42.4688 174.785L43.4007 175.289L43.9079 176.216L44.427 175.289L45.3589 174.785L44.427 174.269L43.9079 173.342Z" fill="black"/>
<path d="M45.8665 170.315L45.3592 171.242L44.4272 171.746L45.3592 172.263L45.8665 173.189L46.3737 172.263L47.3057 171.746L46.3737 171.242L45.8665 170.315Z" fill="black"/>
<path d="M45.866 205.666L45.3587 206.592L44.4268 207.109L45.3587 207.613L45.866 208.54L46.3732 207.613L47.3052 207.109L46.3732 206.592L45.866 205.666Z" fill="black"/>
<path d="M41.8904 205.666L41.3714 206.592L40.4395 207.109L41.3714 207.613L41.8904 208.54L42.3977 207.613L43.3297 207.109L42.3977 206.592L41.8904 205.666Z" fill="black"/>
<path d="M47.8948 202.768L47.3758 203.694L46.4438 204.199L47.3758 204.703L47.8948 205.63L48.4021 204.703L49.334 204.199L48.4021 203.694L47.8948 202.768Z" fill="black"/>
<path d="M43.9079 202.768L43.4007 203.694L42.4688 204.199L43.4007 204.703L43.9079 205.63L44.427 204.703L45.3589 204.199L44.427 203.694L43.9079 202.768Z" fill="black"/>
<path d="M39.8734 202.768L39.3543 203.694L38.4224 204.199L39.3543 204.703L39.8734 205.63L40.3806 204.703L41.3126 204.199L40.3806 203.694L39.8734 202.768Z" fill="black"/>
<path d="M45.866 199.858L45.3587 200.785L44.4268 201.289L45.3587 201.806L45.866 202.732L46.3732 201.806L47.3052 201.289L46.3732 200.785L45.866 199.858Z" fill="black"/>
<path d="M41.8904 199.858L41.3714 200.785L40.4395 201.289L41.3714 201.806L41.8904 202.732L42.3977 201.806L43.3297 201.289L42.3977 200.785L41.8904 199.858Z" fill="black"/>
<path d="M47.8948 196.948L47.3758 197.875L46.4438 198.391L47.3758 198.895L47.8948 199.822L48.4021 198.895L49.334 198.391L48.4021 197.875L47.8948 196.948Z" fill="black"/>
<path d="M43.9079 196.948L43.4007 197.875L42.4688 198.391L43.4007 198.895L43.9079 199.822L44.427 198.895L45.3589 198.391L44.427 197.875L43.9079 196.948Z" fill="black"/>
<path d="M39.8734 196.948L39.3543 197.875L38.4224 198.391L39.3543 198.895L39.8734 199.822L40.3806 198.895L41.3126 198.391L40.3806 197.875L39.8734 196.948Z" fill="black"/>
<path d="M45.866 193.921L45.3587 194.848L44.4268 195.352L45.3587 195.869L45.866 196.795L46.3732 195.869L47.3052 195.352L46.3732 194.848L45.866 193.921Z" fill="black"/>
<path d="M41.8904 193.921L41.3714 194.848L40.4395 195.352L41.3714 195.869L41.8904 196.795L42.3977 195.869L43.3297 195.352L42.3977 194.848L41.8904 193.921Z" fill="black"/>
<path d="M47.8948 191.011L47.3758 191.938L46.4438 192.454L47.3758 192.959L47.8948 193.886L48.4021 192.959L49.334 192.454L48.4021 191.938L47.8948 191.011Z" fill="black"/>
<path d="M43.9079 191.011L43.4007 191.938L42.4688 192.454L43.4007 192.959L43.9079 193.886L44.427 192.959L45.3589 192.454L44.427 191.938L43.9079 191.011Z" fill="black"/>
<path d="M39.8734 191.011L39.3543 191.938L38.4224 192.454L39.3543 192.959L39.8734 193.886L40.3806 192.959L41.3126 192.454L40.3806 191.938L39.8734 191.011Z" fill="black"/>
<path d="M45.866 188.113L45.3587 189.04L44.4268 189.545L45.3587 190.049L45.866 190.976L46.3732 190.049L47.3052 189.545L46.3732 189.04L45.866 188.113Z" fill="black"/>
<path d="M41.8904 188.113L41.3714 189.04L40.4395 189.545L41.3714 190.049L41.8904 190.976L42.3977 190.049L43.3297 189.545L42.3977 189.04L41.8904 188.113Z" fill="black"/>
<path d="M47.8948 185.204L47.3758 186.131L46.4438 186.635L47.3758 187.151L47.8948 188.078L48.4021 187.151L49.334 186.635L48.4021 186.131L47.8948 185.204Z" fill="black"/>
<path d="M43.9079 185.204L43.4007 186.131L42.4688 186.635L43.4007 187.151L43.9079 188.078L44.427 187.151L45.3589 186.635L44.427 186.131L43.9079 185.204Z" fill="black"/>
<path d="M47.8948 208.904L47.3758 209.831L46.4438 210.335L47.3758 210.84L47.8948 211.767L48.4021 210.84L49.334 210.335L48.4021 209.831L47.8948 208.904Z" fill="black"/>
<path d="M43.9079 208.904L43.4007 209.831L42.4688 210.335L43.4007 210.84L43.9079 211.767L44.427 210.84L45.3589 210.335L44.427 209.831L43.9079 208.904Z" fill="black"/>
<path d="M39.8734 208.904L39.3543 209.831L38.4224 210.335L39.3543 210.84L39.8734 211.767L40.3806 210.84L41.3126 210.335L40.3806 209.831L39.8734 208.904Z" fill="black"/>
<path d="M49.9123 229.589L49.4051 230.516L48.4731 231.02L49.4051 231.536L49.9123 232.463L50.4196 231.536L51.3633 231.02L50.4196 230.516L49.9123 229.589Z" fill="black"/>
<path d="M45.9368 229.589L45.4295 230.516L44.4976 231.02L45.4295 231.536L45.9368 232.463L46.444 231.536L47.376 231.02L46.444 230.516L45.9368 229.589Z" fill="black"/>
<path d="M41.8904 229.589L41.3831 230.516L40.4512 231.02L41.3831 231.536L41.8904 232.463L42.4094 231.536L43.3414 231.02L42.4094 230.516L41.8904 229.589Z" fill="black"/>
<path d="M47.8948 226.679L47.3758 227.618L46.4438 228.122L47.3758 228.627L47.8948 229.554L48.4021 228.627L49.334 228.122L48.4021 227.618L47.8948 226.679Z" fill="black"/>
<path d="M43.9075 226.679L43.4002 227.618L42.4683 228.122L43.4002 228.627L43.9075 229.554L44.4265 228.627L45.3585 228.122L44.4265 227.618L43.9075 226.679Z" fill="black"/>
<path d="M49.9123 223.781L49.4051 224.708L48.4731 225.213L49.4051 225.717L49.9123 226.644L50.4196 225.717L51.3633 225.213L50.4196 224.708L49.9123 223.781Z" fill="black"/>
<path d="M45.9368 223.781L45.4295 224.708L44.4976 225.213L45.4295 225.717L45.9368 226.644L46.444 225.717L47.376 225.213L46.444 224.708L45.9368 223.781Z" fill="black"/>
<path d="M41.8904 223.781L41.3831 224.708L40.4512 225.213L41.3831 225.717L41.8904 226.644L42.4094 225.717L43.3414 225.213L42.4094 224.708L41.8904 223.781Z" fill="black"/>
<path d="M47.8948 220.742L47.3758 221.681L46.4438 222.185L47.3758 222.69L47.8948 223.617L48.4021 222.69L49.334 222.185L48.4021 221.681L47.8948 220.742Z" fill="black"/>
<path d="M43.9075 220.742L43.4002 221.681L42.4683 222.185L43.4002 222.69L43.9075 223.617L44.4265 222.69L45.3585 222.185L44.4265 221.681L43.9075 220.742Z" fill="black"/>
<path d="M49.9123 217.844L49.4051 218.771L48.4731 219.276L49.4051 219.78L49.9123 220.707L50.4196 219.78L51.3633 219.276L50.4196 218.771L49.9123 217.844Z" fill="black"/>
<path d="M45.9368 217.844L45.4295 218.771L44.4976 219.276L45.4295 219.78L45.9368 220.707L46.444 219.78L47.376 219.276L46.444 218.771L45.9368 217.844Z" fill="black"/>
<path d="M41.8904 217.844L41.3831 218.771L40.4512 219.276L41.3831 219.78L41.8904 220.707L42.4094 219.78L43.3414 219.276L42.4094 218.771L41.8904 217.844Z" fill="black"/>
<path d="M47.8948 214.935L47.3758 215.861L46.4438 216.366L47.3758 216.882L47.8948 217.809L48.4021 216.882L49.334 216.366L48.4021 215.861L47.8948 214.935Z" fill="black"/>
<path d="M43.9075 214.935L43.4002 215.861L42.4683 216.366L43.4002 216.882L43.9075 217.809L44.4265 216.882L45.3585 216.366L44.4265 215.861L43.9075 214.935Z" fill="black"/>
<path d="M49.9123 212.025L49.4051 212.952L48.4731 213.468L49.4051 213.973L49.9123 214.899L50.4196 213.973L51.3633 213.468L50.4196 212.952L49.9123 212.025Z" fill="black"/>
<path d="M45.9368 212.025L45.4295 212.952L44.4976 213.468L45.4295 213.973L45.9368 214.899L46.444 213.973L47.376 213.468L46.444 212.952L45.9368 212.025Z" fill="black"/>
<path d="M41.2298 212.025L40.7225 212.952L39.7788 213.468L40.7225 213.973L41.2298 214.899L41.7371 213.973L42.669 213.468L41.7371 212.952L41.2298 212.025Z" fill="black"/>
<path d="M54.0056 229.425L53.4983 230.352L52.5664 230.856L53.4983 231.372L54.0056 232.299L54.5247 231.372L55.4566 230.856L54.5247 230.352L54.0056 229.425Z" fill="black"/>
<path d="M52.0003 226.515L51.4813 227.442L50.5493 227.958L51.4813 228.463L52.0003 229.39L52.5076 228.463L53.4395 227.958L52.5076 227.442L52.0003 226.515Z" fill="black"/>
<path d="M54.0056 223.617L53.4983 224.544L52.5664 225.049L53.4983 225.553L54.0056 226.48L54.5247 225.553L55.4566 225.049L54.5247 224.544L54.0056 223.617Z" fill="black"/>
<path d="M52.0003 220.707L51.4813 221.634L50.5493 222.138L51.4813 222.643L52.0003 223.582L52.5076 222.643L53.4395 222.138L52.5076 221.634L52.0003 220.707Z" fill="black"/>
<path d="M54.0056 217.68L53.4983 218.607L52.5664 219.112L53.4983 219.616L54.0056 220.543L54.5247 219.616L55.4566 219.112L54.5247 218.607L54.0056 217.68Z" fill="black"/>
<path d="M56.0349 214.771L55.5276 215.697L54.5957 216.202L55.5276 216.706L56.0349 217.645L56.5422 216.706L57.4741 216.202L56.5422 215.697L56.0349 214.771Z" fill="black"/>
<path d="M52.0003 214.771L51.4813 215.697L50.5493 216.202L51.4813 216.706L52.0003 217.645L52.5076 216.706L53.4395 216.202L52.5076 215.697L52.0003 214.771Z" fill="black"/>
<path d="M54.0056 211.861L53.4983 212.788L52.5664 213.304L53.4983 213.808L54.0056 214.735L54.5247 213.808L55.4566 213.304L54.5247 212.788L54.0056 211.861Z" fill="black"/>
<path d="M56.0349 208.963L55.5276 209.89L54.5957 210.394L55.5276 210.899L56.0349 211.826L56.5422 210.899L57.4741 210.394L56.5422 209.89L56.0349 208.963Z" fill="black"/>
<path d="M72.7859 163.932L73.3049 163.005L74.2369 162.501L73.3049 161.985L72.7859 161.058L72.2786 161.985L71.3467 162.501L72.2786 163.005L72.7859 163.932Z" fill="black"/>
<path d="M66.7224 166.842L67.2297 165.915L68.1734 165.399L67.2297 164.894L66.7224 163.967L66.2151 164.894L65.2832 165.399L66.2151 165.915L66.7224 166.842Z" fill="black"/>
<path d="M70.7689 166.842L71.2761 165.915L72.2081 165.399L71.2761 164.894L70.7689 163.967L70.2498 164.894L69.3179 165.399L70.2498 165.915L70.7689 166.842Z" fill="black"/>
<path d="M75.3811 166.842L75.8884 165.915L76.8203 165.399L75.8884 164.894L75.3811 163.967L74.8738 164.894L73.9419 165.399L74.8738 165.915L75.3811 166.842Z" fill="black"/>
<path d="M73.3528 173.084L72.8455 174.011L71.9136 174.515L72.8455 175.02L73.3528 175.947L73.8718 175.02L74.8038 174.515L73.8718 174.011L73.3528 173.084Z" fill="black"/>
<path d="M73.3528 167.147L72.8455 168.074L71.9136 168.578L72.8455 169.083L73.3528 170.01L73.8718 169.083L74.8038 168.578L73.8718 168.074L73.3528 167.147Z" fill="black"/>
<path d="M68.74 178.891L68.2327 179.818L67.3008 180.323L68.2327 180.839L68.74 181.766L69.2472 180.839L70.1792 180.323L69.2472 179.818L68.74 178.891Z" fill="black"/>
<path d="M64.7645 178.891L64.2572 179.818L63.3135 180.323L64.2572 180.839L64.7645 181.766L65.2717 180.839L66.2037 180.323L65.2717 179.818L64.7645 178.891Z" fill="black"/>
<path d="M70.7689 175.981L70.2498 176.908L69.3179 177.425L70.2498 177.929L70.7689 178.856L71.2761 177.929L72.2081 177.425L71.2761 176.908L70.7689 175.981Z" fill="black"/>
<path d="M66.782 175.981L66.2747 176.908L65.3428 177.425L66.2747 177.929L66.782 178.856L67.301 177.929L68.233 177.425L67.301 176.908L66.782 175.981Z" fill="black"/>
<path d="M62.7473 175.981L62.24 176.908L61.3081 177.425L62.24 177.929L62.7473 178.856L63.2546 177.929L64.1865 177.425L63.2546 176.908L62.7473 175.981Z" fill="black"/>
<path d="M68.74 173.084L68.2327 174.011L67.3008 174.515L68.2327 175.02L68.74 175.947L69.2472 175.02L70.1792 174.515L69.2472 174.011L68.74 173.084Z" fill="black"/>
<path d="M64.7645 173.084L64.2572 174.011L63.3135 174.515L64.2572 175.02L64.7645 175.947L65.2717 175.02L66.2037 174.515L65.2717 174.011L64.7645 173.084Z" fill="black"/>
<path d="M70.7689 170.174L70.2498 171.101L69.3179 171.605L70.2498 172.11L70.7689 173.048L71.2761 172.11L72.2081 171.605L71.2761 171.101L70.7689 170.174Z" fill="black"/>
<path d="M66.782 170.174L66.2747 171.101L65.3428 171.605L66.2747 172.11L66.782 173.048L67.301 172.11L68.233 171.605L67.301 171.101L66.782 170.174Z" fill="black"/>
<path d="M62.7473 170.174L62.24 171.101L61.3081 171.605L62.24 172.11L62.7473 173.048L63.2546 172.11L64.1865 171.605L63.2546 171.101L62.7473 170.174Z" fill="black"/>
<path d="M68.74 167.147L68.2327 168.074L67.3008 168.578L68.2327 169.083L68.74 170.01L69.2472 169.083L70.1792 168.578L69.2472 168.074L68.74 167.147Z" fill="black"/>
<path d="M64.7645 167.147L64.2572 168.074L63.3135 168.578L64.2572 169.083L64.7645 170.01L65.2717 169.083L66.2037 168.578L65.2717 168.074L64.7645 167.147Z" fill="black"/>
<path d="M64.7645 196.69L64.2572 197.617L63.3135 198.121L64.2572 198.626L64.7645 199.553L65.2717 198.626L66.2037 198.121L65.2717 197.617L64.7645 196.69Z" fill="black"/>
<path d="M66.782 193.78L66.2747 194.707L65.3428 195.211L66.2747 195.716L66.782 196.654L67.301 195.716L68.233 195.211L67.301 194.707L66.782 193.78Z" fill="black"/>
<path d="M62.7473 193.78L62.24 194.707L61.3081 195.211L62.24 195.716L62.7473 196.654L63.2546 195.716L64.1865 195.211L63.2546 194.707L62.7473 193.78Z" fill="black"/>
<path d="M68.74 190.753L68.2327 191.68L67.3008 192.184L68.2327 192.689L68.74 193.616L69.2472 192.689L70.1792 192.184L69.2472 191.68L68.74 190.753Z" fill="black"/>
<path d="M64.7645 190.753L64.2572 191.68L63.3135 192.184L64.2572 192.689L64.7645 193.616L65.2717 192.689L66.2037 192.184L65.2717 191.68L64.7645 190.753Z" fill="black"/>
<path d="M66.782 187.843L66.2747 188.77L65.3428 189.275L66.2747 189.791L66.782 190.718L67.301 189.791L68.233 189.275L67.301 188.77L66.782 187.843Z" fill="black"/>
<path d="M62.7473 187.843L62.24 188.77L61.3081 189.275L62.24 189.791L62.7473 190.718L63.2546 189.791L64.1865 189.275L63.2546 188.77L62.7473 187.843Z" fill="black"/>
<path d="M68.74 184.934L68.2327 185.86L67.3008 186.377L68.2327 186.881L68.74 187.808L69.2472 186.881L70.1792 186.377L69.2472 185.86L68.74 184.934Z" fill="black"/>
<path d="M64.7645 184.934L64.2572 185.86L63.3135 186.377L64.2572 186.881L64.7645 187.808L65.2717 186.881L66.2037 186.377L65.2717 185.86L64.7645 184.934Z" fill="black"/>
<path d="M70.7689 182.036L70.2498 182.963L69.3179 183.467L70.2498 183.972L70.7689 184.898L71.2761 183.972L72.2081 183.467L71.2761 182.963L70.7689 182.036Z" fill="black"/>
<path d="M66.782 182.036L66.2747 182.963L65.3428 183.467L66.2747 183.972L66.782 184.898L67.301 183.972L68.233 183.467L67.301 182.963L66.782 182.036Z" fill="black"/>
<path d="M62.7473 182.036L62.24 182.963L61.3081 183.467L62.24 183.972L62.7473 184.898L63.2546 183.972L64.1865 183.467L63.2546 182.963L62.7473 182.036Z" fill="black"/>
<defs>
<clipPath id="clip0intro2">
<rect width="375" height="230" fill="white" transform="translate(64)"/>
</clipPath>
</defs>
</svg>
