<svg width="411" height="291" viewBox="0 0 411 291" fill="none" xmlns="http://www.w3.org/2000/svg">
<path d="M395.191 23.1864V226.831C395.191 237.939 386.172 246.96 375.036 246.96H62.5948C51.4587 246.96 42.4268 237.953 42.4268 226.831V23.1864C42.4268 11.5044 51.9096 2.04688 63.5787 2.04688H374.025C385.722 2.04688 395.191 11.5181 395.191 23.1864Z" fill="white" stroke="black" stroke-width="3" stroke-miterlimit="10" stroke-linecap="round" stroke-linejoin="round"/>
<path d="M395.191 23.1864V35.7146H42.4268V23.1864C42.4268 11.5044 51.9096 2.04688 63.5787 2.04688H374.025C385.722 2.04688 395.191 11.5181 395.191 23.1864Z" fill="#ED684A" stroke="black" stroke-width="3" stroke-miterlimit="10" stroke-linecap="round" stroke-linejoin="round"/>
<path d="M408.95 36.8337V240.478C408.95 251.6 399.932 260.607 388.796 260.607H76.3404C67.1992 260.607 59.4654 254.521 57.0059 246.182C58.7685 246.687 60.6541 246.96 62.5808 246.96H375.036C386.172 246.96 395.19 237.953 395.19 226.831V23.1865C395.19 20.921 394.835 18.7238 394.165 16.6768C402.733 19.3789 408.95 27.3898 408.95 36.8337Z" fill="black" stroke="black" stroke-width="3" stroke-miterlimit="10"/>
<path d="M97.6843 24.4421C100.718 24.4421 103.177 21.9859 103.177 18.9559C103.177 15.926 100.718 13.4697 97.6843 13.4697C94.6507 13.4697 92.1914 15.926 92.1914 18.9559C92.1914 21.9859 94.6507 24.4421 97.6843 24.4421Z" fill="black"/>
<path d="M118.399 24.4421C121.433 24.4421 123.892 21.9859 123.892 18.9559C123.892 15.926 121.433 13.4697 118.399 13.4697C115.366 13.4697 112.906 15.926 112.906 18.9559C112.906 21.9859 115.366 24.4421 118.399 24.4421Z" fill="black"/>
<path d="M76.5593 24.4421C79.593 24.4421 82.0523 21.9859 82.0523 18.9559C82.0523 15.926 79.593 13.4697 76.5593 13.4697C73.5257 13.4697 71.0664 15.926 71.0664 18.9559C71.0664 21.9859 73.5257 24.4421 76.5593 24.4421Z" fill="black"/>
<path d="M397.637 35.7285H42.4268" stroke="black" stroke-width="3" stroke-miterlimit="10"/>
<path d="M392.485 236.793L393.018 237.789L394.016 238.335L393.018 238.881L392.485 239.864L391.939 238.881L390.941 238.335L391.939 237.789L392.485 236.793Z" fill="black"/>
<path d="M371.005 73.695L372.221 71.4569L374.462 70.2286L372.221 69.0004L371.005 66.7622L369.775 69.0004L367.534 70.2286L369.775 71.4569L371.005 73.695Z" fill="black"/>
<path d="M380.556 73.695L381.785 71.4569L384.026 70.2286L381.785 69.0004L380.556 66.7622L379.326 69.0004L377.085 70.2286L379.326 71.4569L380.556 73.695Z" fill="black"/>
<path d="M390.258 73.695L391.488 71.4569L393.728 70.2286L391.488 69.0004L390.258 66.7622L389.028 69.0004L386.787 70.2286L389.028 71.4569L390.258 73.695Z" fill="black"/>
<path d="M366.141 80.696L367.37 78.4579L369.611 77.2432L367.37 76.015L366.141 73.7769L364.911 76.015L362.67 77.2432L364.911 78.4579L366.141 80.696Z" fill="black"/>
<path d="M375.691 80.696L376.921 78.4579L379.162 77.2432L376.921 76.015L375.691 73.7769L374.462 76.015L372.221 77.2432L374.462 78.4579L375.691 80.696Z" fill="black"/>
<path d="M385.393 80.696L386.622 78.4579L388.863 77.2432L386.622 76.015L385.393 73.7769L384.176 76.015L381.936 77.2432L384.176 78.4579L385.393 80.696Z" fill="black"/>
<path d="M371.005 87.7106L372.221 85.4725L374.462 84.2442L372.221 83.016L371.005 80.7778L369.775 83.016L367.534 84.2442L369.775 85.4725L371.005 87.7106Z" fill="black"/>
<path d="M380.556 87.7106L381.785 85.4725L384.026 84.2442L381.785 83.016L380.556 80.7778L379.326 83.016L377.085 84.2442L379.326 85.4725L380.556 87.7106Z" fill="black"/>
<path d="M390.258 87.7106L391.488 85.4725L393.728 84.2442L391.488 83.016L390.258 80.7778L389.028 83.016L386.787 84.2442L389.028 85.4725L390.258 87.7106Z" fill="black"/>
<path d="M366.141 94.7116L367.37 92.4735L369.611 91.2589L367.37 90.0306L366.141 87.7925L364.911 90.0306L362.67 91.2589L364.911 92.4735L366.141 94.7116Z" fill="black"/>
<path d="M375.691 94.7116L376.921 92.4735L379.162 91.2589L376.921 90.0306L375.691 87.7925L374.462 90.0306L372.221 91.2589L374.462 92.4735L375.691 94.7116Z" fill="black"/>
<path d="M385.393 94.7116L386.622 92.4735L388.863 91.2589L386.622 90.0306L385.393 87.7925L384.176 90.0306L381.936 91.2589L384.176 92.4735L385.393 94.7116Z" fill="black"/>
<path d="M371.005 102.027L372.221 99.7884L374.462 98.5601L372.221 97.3319L371.005 95.0938L369.775 97.3319L367.534 98.5601L369.775 99.7884L371.005 102.027Z" fill="black"/>
<path d="M380.556 102.027L381.785 99.7884L384.026 98.5601L381.785 97.3319L380.556 95.0938L379.326 97.3319L377.085 98.5601L379.326 99.7884L380.556 102.027Z" fill="black"/>
<path d="M390.258 102.027L391.488 99.7884L393.728 98.5601L391.488 97.3319L390.258 95.0938L389.028 97.3319L386.787 98.5601L389.028 99.7884L390.258 102.027Z" fill="black"/>
<path d="M366.141 109.028L367.37 106.789L369.611 105.575L367.37 104.347L366.141 102.108L364.911 104.347L362.67 105.575L364.911 106.789L366.141 109.028Z" fill="black"/>
<path d="M375.691 109.028L376.921 106.789L379.162 105.575L376.921 104.347L375.691 102.108L374.462 104.347L372.221 105.575L374.462 106.789L375.691 109.028Z" fill="black"/>
<path d="M385.393 109.028L386.622 106.789L388.863 105.575L386.622 104.347L385.393 102.108L384.176 104.347L381.936 105.575L384.176 106.789L385.393 109.028Z" fill="black"/>
<path d="M371.005 16.7585L372.221 14.5204L374.462 13.3058L372.221 12.0775L371.005 9.83936L369.775 12.0775L367.534 13.3058L369.775 14.5204L371.005 16.7585Z" fill="black"/>
<path d="M380.556 16.7585L381.785 14.5204L384.026 13.3058L381.785 12.0775L380.556 9.83936L379.326 12.0775L377.085 13.3058L379.326 14.5204L380.556 16.7585Z" fill="black"/>
<path d="M390.258 16.7585L391.488 14.5204L393.728 13.3058L391.488 12.0775L390.258 9.83936L389.028 12.0775L386.787 13.3058L389.028 14.5204L390.258 16.7585Z" fill="black"/>
<path d="M366.141 23.7731L367.37 21.535L369.611 20.3067L367.37 19.0785L366.141 16.8403L364.911 19.0785L362.67 20.3067L364.911 21.535L366.141 23.7731Z" fill="black"/>
<path d="M375.691 23.7731L376.921 21.535L379.162 20.3067L376.921 19.0785L375.691 16.8403L374.462 19.0785L372.221 20.3067L374.462 21.535L375.691 23.7731Z" fill="black"/>
<path d="M385.393 23.7731L386.622 21.535L388.863 20.3067L386.622 19.0785L385.393 16.8403L384.176 19.0785L381.936 20.3067L384.176 21.535L385.393 23.7731Z" fill="black"/>
<path d="M371.005 30.7741L372.221 28.536L374.462 27.3214L372.221 26.0931L371.005 23.855L369.775 26.0931L367.534 27.3214L369.775 28.536L371.005 30.7741Z" fill="black"/>
<path d="M380.556 30.7741L381.785 28.536L384.026 27.3214L381.785 26.0931L380.556 23.855L379.326 26.0931L377.085 27.3214L379.326 28.536L380.556 30.7741Z" fill="black"/>
<path d="M390.258 30.7741L391.488 28.536L393.728 27.3214L391.488 26.0931L390.258 23.855L389.028 26.0931L386.787 27.3214L389.028 28.536L390.258 30.7741Z" fill="black"/>
<path d="M366.141 37.7888L367.37 35.5506L369.611 34.3224L367.37 33.0941L366.141 30.856L364.911 33.0941L362.67 34.3224L364.911 35.5506L366.141 37.7888Z" fill="black"/>
<path d="M375.691 37.7888L376.921 35.5506L379.162 34.3224L376.921 33.0941L375.691 30.856L374.462 33.0941L372.221 34.3224L374.462 35.5506L375.691 37.7888Z" fill="black"/>
<path d="M385.393 37.7888L386.622 35.5506L388.863 34.3224L386.622 33.0941L385.393 30.856L384.176 33.0941L381.936 34.3224L384.176 35.5506L385.393 37.7888Z" fill="black"/>
<path d="M371.005 45.09L372.221 42.8519L374.462 41.6237L372.221 40.409L371.005 38.1709L369.775 40.409L367.534 41.6237L369.775 42.8519L371.005 45.09Z" fill="black"/>
<path d="M380.556 45.09L381.785 42.8519L384.026 41.6237L381.785 40.409L380.556 38.1709L379.326 40.409L377.085 41.6237L379.326 42.8519L380.556 45.09Z" fill="black"/>
<path d="M390.258 45.09L391.488 42.8519L393.728 41.6237L391.488 40.409L390.258 38.1709L389.028 40.409L386.787 41.6237L389.028 42.8519L390.258 45.09Z" fill="black"/>
<path d="M366.141 52.1047L367.37 49.8665L369.611 48.6383L367.37 47.41L366.141 45.1719L364.911 47.41L362.67 48.6383L364.911 49.8665L366.141 52.1047Z" fill="black"/>
<path d="M375.691 52.1047L376.921 49.8665L379.162 48.6383L376.921 47.41L375.691 45.1719L374.462 47.41L372.221 48.6383L374.462 49.8665L375.691 52.1047Z" fill="black"/>
<path d="M385.393 52.1047L386.622 49.8665L388.863 48.6383L386.622 47.41L385.393 45.1719L384.176 47.41L381.936 48.6383L384.176 49.8665L385.393 52.1047Z" fill="black"/>
<path d="M371.005 59.1057L372.221 56.8675L374.462 55.6393L372.221 54.4247L371.005 52.1865L369.775 54.4247L367.534 55.6393L369.775 56.8675L371.005 59.1057Z" fill="black"/>
<path d="M380.556 59.1057L381.785 56.8675L384.026 55.6393L381.785 54.4247L380.556 52.1865L379.326 54.4247L377.085 55.6393L379.326 56.8675L380.556 59.1057Z" fill="black"/>
<path d="M390.258 59.1057L391.488 56.8675L393.728 55.6393L391.488 54.4247L390.258 52.1865L389.028 54.4247L386.787 55.6393L389.028 56.8675L390.258 59.1057Z" fill="black"/>
<path d="M366.141 66.1208L367.37 63.8826L369.611 62.6544L367.37 61.4261L366.141 59.188L364.911 61.4261L362.67 62.6544L364.911 63.8826L366.141 66.1208Z" fill="black"/>
<path d="M375.691 66.1208L376.921 63.8826L379.162 62.6544L376.921 61.4261L375.691 59.188L374.462 61.4261L372.221 62.6544L374.462 63.8826L375.691 66.1208Z" fill="black"/>
<path d="M385.393 66.1208L386.622 63.8826L388.863 62.6544L386.622 61.4261L385.393 59.188L384.176 61.4261L381.936 62.6544L384.176 63.8826L385.393 66.1208Z" fill="black"/>
<path d="M366.141 8.96602L367.37 6.72788L369.611 5.51327L367.37 4.28502L366.141 2.04688L364.911 4.28502L362.67 5.51327L364.911 6.72788L366.141 8.96602Z" fill="black"/>
<path d="M375.691 8.96602L376.921 6.72788L379.162 5.51327L376.921 4.28502L375.691 2.04688L374.462 4.28502L372.221 5.51327L374.462 6.72788L375.691 8.96602Z" fill="black"/>
<path d="M385.393 8.96602L386.622 6.72788L388.863 5.51327L386.622 4.28502L385.393 2.04688L384.176 4.28502L381.936 5.51327L384.176 6.72788L385.393 8.96602Z" fill="black"/>
<path d="M401.339 73.6945L402.569 71.4564L404.81 70.2281L402.569 68.9999L401.339 66.7617L400.123 68.9999L397.882 70.2281L400.123 71.4564L401.339 73.6945Z" fill="black"/>
<path d="M396.488 80.6955L397.704 78.4574L399.945 77.2428L397.704 76.0145L396.488 73.7764L395.258 76.0145L393.018 77.2428L395.258 78.4574L396.488 80.6955Z" fill="black"/>
<path d="M406.039 80.6955L407.255 78.4574L409.496 77.2428L407.255 76.0145L406.039 73.7764L404.809 76.0145L402.568 77.2428L404.809 78.4574L406.039 80.6955Z" fill="black"/>
<path d="M401.339 87.7101L402.569 85.472L404.81 84.2437L402.569 83.0155L401.339 80.7773L400.123 83.0155L397.882 84.2437L400.123 85.472L401.339 87.7101Z" fill="black"/>
<path d="M396.488 94.7111L397.704 92.473L399.945 91.2584L397.704 90.0301L396.488 87.792L395.258 90.0301L393.018 91.2584L395.258 92.473L396.488 94.7111Z" fill="black"/>
<path d="M406.039 94.7111L407.255 92.473L409.496 91.2584L407.255 90.0301L406.039 87.792L404.809 90.0301L402.568 91.2584L404.809 92.473L406.039 94.7111Z" fill="black"/>
<path d="M401.339 102.026L402.569 99.7879L404.81 98.5597L402.569 97.3314L401.339 95.0933L400.123 97.3314L397.882 98.5597L400.123 99.7879L401.339 102.026Z" fill="black"/>
<path d="M396.488 109.027L397.704 106.789L399.945 105.574L397.704 104.346L396.488 102.108L395.258 104.346L393.018 105.574L395.258 106.789L396.488 109.027Z" fill="black"/>
<path d="M406.039 109.027L407.255 106.789L409.496 105.574L407.255 104.346L406.039 102.108L404.809 104.346L402.568 105.574L404.809 106.789L406.039 109.027Z" fill="black"/>
<path d="M396.488 23.7731L397.704 21.535L399.945 20.3067L397.704 19.0785L396.488 16.8403L395.258 19.0785L393.018 20.3067L395.258 21.535L396.488 23.7731Z" fill="black"/>
<path d="M401.339 30.7741L402.569 28.536L404.81 27.3214L402.569 26.0931L401.339 23.855L400.123 26.0931L397.882 27.3214L400.123 28.536L401.339 30.7741Z" fill="black"/>
<path d="M396.488 37.7888L397.704 35.5506L399.945 34.3224L397.704 33.0941L396.488 30.856L395.258 33.0941L393.018 34.3224L395.258 35.5506L396.488 37.7888Z" fill="black"/>
<path d="M406.039 37.7888L407.255 35.5506L409.496 34.3224L407.255 33.0941L406.039 30.856L404.809 33.0941L402.568 34.3224L404.809 35.5506L406.039 37.7888Z" fill="black"/>
<path d="M401.339 45.09L402.569 42.8519L404.81 41.6236L402.569 40.409L401.339 38.1709L400.123 40.409L397.882 41.6236L400.123 42.8519L401.339 45.09Z" fill="black"/>
<path d="M396.488 52.1047L397.704 49.8665L399.945 48.6383L397.704 47.41L396.488 45.1719L395.258 47.41L393.018 48.6383L395.258 49.8665L396.488 52.1047Z" fill="black"/>
<path d="M406.039 52.1047L407.255 49.8665L409.496 48.6383L407.255 47.41L406.039 45.1719L404.809 47.41L402.568 48.6383L404.809 49.8665L406.039 52.1047Z" fill="black"/>
<path d="M401.339 59.1057L402.569 56.8675L404.81 55.6393L402.569 54.4247L401.339 52.1865L400.123 54.4247L397.882 55.6393L400.123 56.8675L401.339 59.1057Z" fill="black"/>
<path d="M396.488 66.1203L397.704 63.8822L399.945 62.6539L397.704 61.4256L396.488 59.1875L395.258 61.4256L393.018 62.6539L395.258 63.8822L396.488 66.1203Z" fill="black"/>
<path d="M406.039 66.1203L407.255 63.8822L409.496 62.6539L407.255 61.4256L406.039 59.1875L404.809 61.4256L402.568 62.6539L404.809 63.8822L406.039 66.1203Z" fill="black"/>
<path d="M401.325 138.096L400.095 140.334L397.854 141.563L400.095 142.777L401.325 145.015L402.555 142.777L404.796 141.563L402.555 140.334L401.325 138.096Z" fill="black"/>
<path d="M391.624 138.096L390.394 140.334L388.153 141.563L390.394 142.777L391.624 145.015L392.84 142.777L395.081 141.563L392.84 140.334L391.624 138.096Z" fill="black"/>
<path d="M406.189 131.082L404.96 133.32L402.719 134.548L404.96 135.776L406.189 138.014L407.405 135.776L409.646 134.548L407.405 133.32L406.189 131.082Z" fill="black"/>
<path d="M396.488 131.082L395.258 133.32L393.018 134.548L395.258 135.776L396.488 138.014L397.704 135.776L399.945 134.548L397.704 133.32L396.488 131.082Z" fill="black"/>
<path d="M401.325 124.081L400.095 126.319L397.854 127.547L400.095 128.762L401.325 131L402.555 128.762L404.796 127.547L402.555 126.319L401.325 124.081Z" fill="black"/>
<path d="M391.624 124.081L390.394 126.319L388.153 127.547L390.394 128.762L391.624 131L392.84 128.762L395.081 127.547L392.84 126.319L391.624 124.081Z" fill="black"/>
<path d="M406.189 117.066L404.96 119.304L402.719 120.532L404.96 121.761L406.189 123.999L407.405 121.761L409.646 120.532L407.405 119.304L406.189 117.066Z" fill="black"/>
<path d="M396.488 117.066L395.258 119.304L393.018 120.532L395.258 121.761L396.488 123.999L397.704 121.761L399.945 120.532L397.704 119.304L396.488 117.066Z" fill="black"/>
<path d="M401.325 109.765L400.095 112.003L397.854 113.231L400.095 114.446L401.325 116.684L402.555 114.446L404.796 113.231L402.555 112.003L401.325 109.765Z" fill="black"/>
<path d="M391.624 109.765L390.394 112.003L388.153 113.231L390.394 114.446L391.624 116.684L392.84 114.446L395.081 113.231L392.84 112.003L391.624 109.765Z" fill="black"/>
<path d="M401.325 195.019L400.095 197.257L397.854 198.485L400.095 199.714L401.325 201.952L402.555 199.714L404.796 198.485L402.555 197.257L401.325 195.019Z" fill="black"/>
<path d="M391.624 195.019L390.394 197.257L388.153 198.485L390.394 199.714L391.624 201.952L392.84 199.714L395.081 198.485L392.84 197.257L391.624 195.019Z" fill="black"/>
<path d="M406.189 188.018L404.96 190.256L402.719 191.47L404.96 192.699L406.189 194.937L407.405 192.699L409.646 191.47L407.405 190.256L406.189 188.018Z" fill="black"/>
<path d="M396.488 188.018L395.258 190.256L393.018 191.47L395.258 192.699L396.488 194.937L397.704 192.699L399.945 191.47L397.704 190.256L396.488 188.018Z" fill="black"/>
<path d="M401.325 181.003L400.095 183.241L397.854 184.469L400.095 185.698L401.325 187.936L402.555 185.698L404.796 184.469L402.555 183.241L401.325 181.003Z" fill="black"/>
<path d="M391.624 181.003L390.394 183.241L388.153 184.469L390.394 185.698L391.624 187.936L392.84 185.698L395.081 184.469L392.84 183.241L391.624 181.003Z" fill="black"/>
<path d="M406.189 174.002L404.96 176.24L402.719 177.455L404.96 178.683L406.189 180.921L407.405 178.683L409.646 177.455L407.405 176.24L406.189 174.002Z" fill="black"/>
<path d="M396.488 174.002L395.258 176.24L393.018 177.455L395.258 178.683L396.488 180.921L397.704 178.683L399.945 177.455L397.704 176.24L396.488 174.002Z" fill="black"/>
<path d="M401.325 166.687L400.095 168.925L397.854 170.153L400.095 171.382L401.325 173.62L402.555 171.382L404.796 170.153L402.555 168.925L401.325 166.687Z" fill="black"/>
<path d="M391.624 166.687L390.394 168.925L388.153 170.153L390.394 171.382L391.624 173.62L392.84 171.382L395.081 170.153L392.84 168.925L391.624 166.687Z" fill="black"/>
<path d="M406.189 159.686L404.96 161.924L402.719 163.139L404.96 164.367L406.189 166.605L407.405 164.367L409.646 163.139L407.405 161.924L406.189 159.686Z" fill="black"/>
<path d="M396.488 159.686L395.258 161.924L393.018 163.139L395.258 164.367L396.488 166.605L397.704 164.367L399.945 163.139L397.704 161.924L396.488 159.686Z" fill="black"/>
<path d="M401.325 152.671L400.095 154.91L397.854 156.138L400.095 157.366L401.325 159.604L402.555 157.366L404.796 156.138L402.555 154.91L401.325 152.671Z" fill="black"/>
<path d="M391.624 152.671L390.394 154.91L388.153 156.138L390.394 157.366L391.624 159.604L392.84 157.366L395.081 156.138L392.84 154.91L391.624 152.671Z" fill="black"/>
<path d="M406.189 145.67L404.96 147.909L402.719 149.123L404.96 150.351L406.189 152.59L407.405 150.351L409.646 149.123L407.405 147.909L406.189 145.67Z" fill="black"/>
<path d="M396.488 145.67L395.258 147.909L393.018 149.123L395.258 150.351L396.488 152.59L397.704 150.351L399.945 149.123L397.704 147.909L396.488 145.67Z" fill="black"/>
<path d="M406.189 202.812L404.96 205.05L402.719 206.278L404.96 207.506L406.189 209.744L407.406 207.506L409.646 206.278L407.406 205.05L406.189 202.812Z" fill="black"/>
<path d="M396.488 202.812L395.258 205.05L393.018 206.278L395.258 207.506L396.488 209.744L397.704 207.506L399.945 206.278L397.704 205.05L396.488 202.812Z" fill="black"/>
<path d="M380.528 138.096L379.312 140.334L377.071 141.563L379.312 142.777L380.528 145.015L381.758 142.777L383.999 141.563L381.758 140.334L380.528 138.096Z" fill="black"/>
<path d="M370.978 138.096L369.748 140.334L367.507 141.563L369.748 142.777L370.978 145.015L372.207 142.777L374.448 141.563L372.207 140.334L370.978 138.096Z" fill="black"/>
<path d="M385.393 131.082L384.176 133.32L381.936 134.548L384.176 135.776L385.393 138.014L386.622 135.776L388.863 134.548L386.622 133.32L385.393 131.082Z" fill="black"/>
<path d="M375.842 131.082L374.612 133.32L372.371 134.548L374.612 135.776L375.842 138.014L377.072 135.776L379.312 134.548L377.072 133.32L375.842 131.082Z" fill="black"/>
<path d="M366.141 131.082L364.911 133.32L362.67 134.548L364.911 135.776L366.141 138.014L367.37 135.776L369.611 134.548L367.37 133.32L366.141 131.082Z" fill="black"/>
<path d="M380.528 124.081L379.312 126.319L377.071 127.547L379.312 128.762L380.528 131L381.758 128.762L383.999 127.547L381.758 126.319L380.528 124.081Z" fill="black"/>
<path d="M370.978 124.081L369.748 126.319L367.507 127.547L369.748 128.762L370.978 131L372.207 128.762L374.448 127.547L372.207 126.319L370.978 124.081Z" fill="black"/>
<path d="M385.393 117.066L384.176 119.304L381.936 120.532L384.176 121.761L385.393 123.999L386.622 121.761L388.863 120.532L386.622 119.304L385.393 117.066Z" fill="black"/>
<path d="M375.842 117.066L374.612 119.304L372.371 120.532L374.612 121.761L375.842 123.999L377.072 121.761L379.312 120.532L377.072 119.304L375.842 117.066Z" fill="black"/>
<path d="M366.141 117.066L364.911 119.304L362.67 120.532L364.911 121.761L366.141 123.999L367.37 121.761L369.611 120.532L367.37 119.304L366.141 117.066Z" fill="black"/>
<path d="M380.528 109.765L379.312 112.003L377.071 113.231L379.312 114.446L380.528 116.684L381.758 114.446L383.999 113.231L381.758 112.003L380.528 109.765Z" fill="black"/>
<path d="M370.978 109.765L369.748 112.003L367.507 113.231L369.748 114.446L370.978 116.684L372.207 114.446L374.448 113.231L372.207 112.003L370.978 109.765Z" fill="black"/>
<path d="M380.529 195.019L379.313 197.257L377.072 198.485L379.313 199.714L380.529 201.952L381.759 199.714L384 198.485L381.759 197.257L380.529 195.019Z" fill="black"/>
<path d="M370.978 195.019L369.748 197.257L367.507 198.485L369.748 199.714L370.978 201.952L372.207 199.714L374.448 198.485L372.207 197.257L370.978 195.019Z" fill="black"/>
<path d="M385.393 188.018L384.176 190.256L381.936 191.47L384.176 192.699L385.393 194.937L386.622 192.699L388.863 191.47L386.622 190.256L385.393 188.018Z" fill="black"/>
<path d="M375.842 188.018L374.612 190.256L372.371 191.47L374.612 192.699L375.842 194.937L377.072 192.699L379.312 191.47L377.072 190.256L375.842 188.018Z" fill="black"/>
<path d="M366.141 188.018L364.911 190.256L362.67 191.47L364.911 192.699L366.141 194.937L367.37 192.699L369.611 191.47L367.37 190.256L366.141 188.018Z" fill="black"/>
<path d="M380.529 181.003L379.313 183.241L377.072 184.469L379.313 185.698L380.529 187.936L381.759 185.698L384 184.469L381.759 183.241L380.529 181.003Z" fill="black"/>
<path d="M370.978 181.003L369.748 183.241L367.507 184.469L369.748 185.698L370.978 187.936L372.207 185.698L374.448 184.469L372.207 183.241L370.978 181.003Z" fill="black"/>
<path d="M385.393 174.002L384.176 176.24L381.936 177.455L384.176 178.683L385.393 180.921L386.622 178.683L388.863 177.455L386.622 176.24L385.393 174.002Z" fill="black"/>
<path d="M375.842 174.002L374.612 176.24L372.371 177.455L374.612 178.683L375.842 180.921L377.072 178.683L379.312 177.455L377.072 176.24L375.842 174.002Z" fill="black"/>
<path d="M366.141 174.002L364.911 176.24L362.67 177.455L364.911 178.683L366.141 180.921L367.37 178.683L369.611 177.455L367.37 176.24L366.141 174.002Z" fill="black"/>
<path d="M380.529 166.687L379.313 168.925L377.072 170.153L379.313 171.382L380.529 173.62L381.759 171.382L384 170.153L381.759 168.925L380.529 166.687Z" fill="black"/>
<path d="M370.978 166.687L369.748 168.925L367.507 170.153L369.748 171.382L370.978 173.62L372.207 171.382L374.448 170.153L372.207 168.925L370.978 166.687Z" fill="black"/>
<path d="M385.393 159.686L384.176 161.924L381.936 163.139L384.176 164.367L385.393 166.605L386.622 164.367L388.863 163.139L386.622 161.924L385.393 159.686Z" fill="black"/>
<path d="M375.842 159.686L374.612 161.924L372.371 163.139L374.612 164.367L375.842 166.605L377.072 164.367L379.312 163.139L377.072 161.924L375.842 159.686Z" fill="black"/>
<path d="M366.141 159.686L364.911 161.924L362.67 163.139L364.911 164.367L366.141 166.605L367.37 164.367L369.611 163.139L367.37 161.924L366.141 159.686Z" fill="black"/>
<path d="M380.529 152.671L379.313 154.91L377.072 156.138L379.313 157.366L380.529 159.604L381.759 157.366L384 156.138L381.759 154.91L380.529 152.671Z" fill="black"/>
<path d="M370.978 152.671L369.748 154.91L367.507 156.138L369.748 157.366L370.978 159.604L372.207 157.366L374.448 156.138L372.207 154.91L370.978 152.671Z" fill="black"/>
<path d="M385.393 145.67L384.176 147.909L381.936 149.123L384.176 150.351L385.393 152.59L386.622 150.351L388.863 149.123L386.622 147.909L385.393 145.67Z" fill="black"/>
<path d="M375.842 145.67L374.612 147.909L372.371 149.123L374.612 150.351L375.842 152.59L377.072 150.351L379.312 149.123L377.072 147.909L375.842 145.67Z" fill="black"/>
<path d="M366.141 145.67L364.911 147.909L362.67 149.123L364.911 150.351L366.141 152.59L367.37 150.351L369.611 149.123L367.37 147.909L366.141 145.67Z" fill="black"/>
<path d="M385.393 202.812L384.176 205.05L381.936 206.278L384.176 207.506L385.393 209.744L386.622 207.506L388.863 206.278L386.622 205.05L385.393 202.812Z" fill="black"/>
<path d="M375.842 202.812L374.612 205.05L372.371 206.278L374.612 207.506L375.842 209.744L377.072 207.506L379.312 206.278L377.072 205.05L375.842 202.812Z" fill="black"/>
<path d="M366.141 202.812L364.911 205.05L362.67 206.278L364.911 207.506L366.141 209.744L367.37 207.506L369.611 206.278L367.37 205.05L366.141 202.812Z" fill="black"/>
<path d="M366.141 225.534L367.37 223.296L369.611 222.067L367.37 220.853L366.141 218.615L364.911 220.853L362.67 222.067L364.911 223.296L366.141 225.534Z" fill="black"/>
<path d="M375.691 225.534L376.921 223.296L379.162 222.067L376.921 220.853L375.691 218.615L374.462 220.853L372.221 222.067L374.462 223.296L375.691 225.534Z" fill="black"/>
<path d="M385.394 225.534L386.623 223.296L388.864 222.067L386.623 220.853L385.394 218.615L384.177 220.853L381.937 222.067L384.177 223.296L385.394 225.534Z" fill="black"/>
<path d="M361.276 232.549L362.506 230.31L364.747 229.082L362.506 227.854L361.276 225.616L360.047 227.854L357.806 229.082L360.047 230.31L361.276 232.549Z" fill="black"/>
<path d="M370.827 232.549L372.057 230.31L374.298 229.082L372.057 227.854L370.827 225.616L369.611 227.854L367.37 229.082L369.611 230.31L370.827 232.549Z" fill="black"/>
<path d="M380.529 232.549L381.759 230.31L384 229.082L381.759 227.854L380.529 225.616L379.313 227.854L377.072 229.082L379.313 230.31L380.529 232.549Z" fill="black"/>
<path d="M366.141 239.549L367.37 237.311L369.611 236.083L367.37 234.869L366.141 232.63L364.911 234.869L362.67 236.083L364.911 237.311L366.141 239.549Z" fill="black"/>
<path d="M375.691 239.549L376.921 237.311L379.162 236.083L376.921 234.869L375.691 232.63L374.462 234.869L372.221 236.083L374.462 237.311L375.691 239.549Z" fill="black"/>
<path d="M385.394 239.549L386.623 237.311L388.864 236.083L386.623 234.869L385.394 232.63L384.177 234.869L381.937 236.083L384.177 237.311L385.394 239.549Z" fill="black"/>
<path d="M361.276 246.564L362.506 244.326L364.747 243.098L362.506 241.869L361.276 239.631L360.047 241.869L357.806 243.098L360.047 244.326L361.276 246.564Z" fill="black"/>
<path d="M370.827 246.564L372.057 244.326L374.298 243.098L372.057 241.869L370.827 239.631L369.611 241.869L367.37 243.098L369.611 244.326L370.827 246.564Z" fill="black"/>
<path d="M380.529 246.564L381.759 244.326L384 243.098L381.759 241.869L380.529 239.631L379.313 241.869L377.072 243.098L379.313 244.326L380.529 246.564Z" fill="black"/>
<path d="M366.141 253.865L367.37 251.627L369.611 250.399L367.37 249.184L366.141 246.946L364.911 249.184L362.67 250.399L364.911 251.627L366.141 253.865Z" fill="black"/>
<path d="M375.691 253.865L376.921 251.627L379.162 250.399L376.921 249.184L375.691 246.946L374.462 249.184L372.221 250.399L374.462 251.627L375.691 253.865Z" fill="black"/>
<path d="M385.394 253.865L386.623 251.627L388.864 250.399L386.623 249.184L385.394 246.946L384.177 249.184L381.937 250.399L384.177 251.627L385.394 253.865Z" fill="black"/>
<path d="M361.276 260.88L362.506 258.642L364.747 257.414L362.506 256.185L361.276 253.947L360.047 256.185L357.806 257.414L360.047 258.642L361.276 260.88Z" fill="black"/>
<path d="M370.827 260.88L372.057 258.642L374.298 257.414L372.057 256.185L370.827 253.947L369.611 256.185L367.37 257.414L369.611 258.642L370.827 260.88Z" fill="black"/>
<path d="M380.529 260.88L381.759 258.642L384 257.414L381.759 256.185L380.529 253.947L379.313 256.185L377.072 257.414L379.313 258.642L380.529 260.88Z" fill="black"/>
<path d="M361.276 217.741L362.506 215.503L364.747 214.275L362.506 213.06L361.276 210.822L360.047 213.06L357.806 214.275L360.047 215.503L361.276 217.741Z" fill="black"/>
<path d="M370.827 217.741L372.057 215.503L374.298 214.275L372.057 213.06L370.827 210.822L369.611 213.06L367.37 214.275L369.611 215.503L370.827 217.741Z" fill="black"/>
<path d="M380.529 217.741L381.759 215.503L384 214.275L381.759 213.06L380.529 210.822L379.313 213.06L377.072 214.275L379.313 215.503L380.529 217.741Z" fill="black"/>
<path d="M396.488 225.534L397.704 223.296L399.945 222.067L397.704 220.853L396.488 218.615L395.258 220.853L393.018 222.067L395.258 223.296L396.488 225.534Z" fill="black"/>
<path d="M406.039 225.534L407.255 223.296L409.496 222.067L407.255 220.853L406.039 218.615L404.809 220.853L402.568 222.067L404.809 223.296L406.039 225.534Z" fill="black"/>
<path d="M391.624 232.549L392.84 230.31L395.081 229.082L392.84 227.854L391.624 225.616L390.394 227.854L388.153 229.082L390.394 230.31L391.624 232.549Z" fill="black"/>
<path d="M401.175 232.549L402.405 230.31L404.645 229.082L402.405 227.854L401.175 225.616L399.945 227.854L397.704 229.082L399.945 230.31L401.175 232.549Z" fill="black"/>
<path d="M396.488 239.549L397.704 237.311L399.945 236.083L397.704 234.869L396.488 232.63L395.258 234.869L393.018 236.083L395.258 237.311L396.488 239.549Z" fill="black"/>
<path d="M406.039 239.549L407.255 237.311L409.496 236.083L407.255 234.869L406.039 232.63L404.809 234.869L402.568 236.083L404.809 237.311L406.039 239.549Z" fill="black"/>
<path d="M391.624 246.564L392.84 244.326L395.081 243.098L392.84 241.869L391.624 239.631L390.394 241.869L388.153 243.098L390.394 244.326L391.624 246.564Z" fill="black"/>
<path d="M401.175 246.564L402.405 244.326L404.645 243.098L402.405 241.869L401.175 239.631L399.945 241.869L397.704 243.098L399.945 244.326L401.175 246.564Z" fill="black"/>
<path d="M396.488 253.865L397.704 251.627L399.945 250.399L397.704 249.184L396.488 246.946L395.258 249.184L393.018 250.399L395.258 251.627L396.488 253.865Z" fill="black"/>
<path d="M406.039 253.865L407.255 251.627L409.496 250.399L407.255 249.184L406.039 246.946L404.809 249.184L402.568 250.399L404.809 251.627L406.039 253.865Z" fill="black"/>
<path d="M391.624 260.88L392.84 258.642L395.081 257.414L392.84 256.185L391.624 253.947L390.394 256.185L388.153 257.414L390.394 258.642L391.624 260.88Z" fill="black"/>
<path d="M401.175 260.88L402.405 258.642L404.645 257.414L402.405 256.185L401.175 253.947L399.945 256.185L397.704 257.414L399.945 258.642L401.175 260.88Z" fill="black"/>
<path d="M391.624 217.741L392.84 215.503L395.081 214.275L392.84 213.06L391.624 210.822L390.394 213.06L388.153 214.275L390.394 215.503L391.624 217.741Z" fill="black"/>
<path d="M401.175 217.741L402.405 215.503L404.645 214.275L402.405 213.06L401.175 210.822L399.945 213.06L397.704 214.275L399.945 215.503L401.175 217.741Z" fill="black"/>
<path d="M326.788 35.7285H120.271V246.96H326.788V35.7285Z" fill="#00D384" stroke="black" stroke-width="3" stroke-miterlimit="10" stroke-linecap="round" stroke-linejoin="round"/>
<path d="M326.788 180.307H120.271V238.417H326.788V180.307Z" fill="#25AAE1" stroke="black" stroke-width="3" stroke-miterlimit="10"/>
<path d="M290.525 136.391H265.971V168.448H290.525V136.391Z" fill="#9E6CFF" stroke="black" stroke-width="3" stroke-miterlimit="10"/>
<path d="M197.24 141.563L195.149 90.9316C195.149 90.9043 195.135 90.8906 195.135 90.8633C195.135 90.8224 195.122 90.7815 195.122 90.7542C195.108 90.7132 195.108 90.6859 195.094 90.645C195.081 90.604 195.067 90.5767 195.053 90.5358C195.04 90.4949 195.026 90.4676 194.999 90.4266C194.985 90.3993 194.958 90.3584 194.944 90.3311C194.917 90.3038 194.903 90.2629 194.876 90.2356C194.848 90.2083 194.835 90.181 194.807 90.1537C194.78 90.1264 194.739 90.0991 194.712 90.0718C194.698 90.0582 194.684 90.0445 194.657 90.0309C194.643 90.0309 194.643 90.0172 194.63 90.0172C194.589 89.9899 194.548 89.9763 194.52 89.949C194.493 89.9353 194.466 89.9217 194.439 89.908C194.398 89.8944 194.37 89.8807 194.329 89.8671C194.288 89.8534 194.261 89.8398 194.22 89.8398C194.193 89.8262 194.152 89.8262 194.124 89.8262C194.083 89.8262 194.042 89.8125 194.001 89.8125H193.988H186.404C185.803 89.8125 185.311 90.2629 185.243 90.8497L179.804 140.007C179.476 140.375 179.435 140.894 179.654 141.317L179.517 142.504C179.449 143.146 179.914 143.719 180.556 143.801C180.597 143.801 180.638 143.815 180.693 143.815C181.28 143.815 181.786 143.378 181.854 142.777L182.045 141.017L188.631 133.497L194.917 142.245L194.93 142.696C194.958 143.337 195.504 143.856 196.147 143.815C196.789 143.787 197.294 143.241 197.267 142.6L197.24 142.109C197.294 141.904 197.294 141.74 197.24 141.563ZM184.969 114.691L187.388 117.271L184.354 120.259L184.969 114.691ZM187.265 93.9067L188.85 96.0493L186.691 99.0107L187.265 93.9067ZM188.577 100.416L190.326 98.0145L192.102 100.416H188.577ZM191.624 102.764L190.121 104.279L188.823 102.764H191.624ZM193.359 104.32L193.523 108.236L191.651 106.053L193.359 104.32ZM193.099 97.8371L191.76 96.0356L192.949 94.398L193.099 97.8371ZM190.298 94.0568L188.877 92.1462H191.692L190.298 94.0568ZM186.226 103.323L188.467 105.944L185.612 108.823L186.226 103.323ZM185.707 112.057L189.998 107.731L193.236 111.512L189.055 115.633L185.707 112.057ZM193.769 114.255L194.042 120.942L190.654 117.325L193.769 114.255ZM182.51 136.923L183.658 126.551L187.238 131.532L182.51 136.923ZM184.368 123.521L189 118.977L193.783 124.067L188.836 129.717L184.368 123.521ZM190.216 131.669L194.288 127.015L194.739 137.974L190.216 131.669Z" fill="black"/>
<path d="M267.774 110.707H259.794V138.424H267.774V110.707Z" fill="#25AAE1" stroke="black" stroke-width="3" stroke-miterlimit="10"/>
<path d="M255.599 110.707H247.619V138.424H255.599V110.707Z" fill="#25AAE1" stroke="black" stroke-width="3" stroke-miterlimit="10"/>
<path d="M239.065 137.51L233.217 57.5643C233.217 57.5233 233.203 57.496 233.203 57.4551C233.19 57.4005 233.19 57.3323 233.176 57.2777C233.162 57.2231 233.149 57.1685 233.121 57.1002C233.108 57.0457 233.081 56.9911 233.053 56.9365C233.026 56.8819 232.999 56.8273 232.971 56.7727C232.944 56.7181 232.917 56.6772 232.876 56.6226C232.835 56.568 232.807 56.5271 232.766 56.4725C232.725 56.4315 232.698 56.3906 232.657 56.3497C232.602 56.3087 232.548 56.2541 232.493 56.2132C232.466 56.1859 232.438 56.1586 232.411 56.1449C232.397 56.1313 232.384 56.1313 232.37 56.1176C232.315 56.0767 232.247 56.0494 232.179 56.0221C232.138 55.9948 232.083 55.9675 232.042 55.9539C231.987 55.9266 231.919 55.9129 231.864 55.8993C231.81 55.8856 231.755 55.8583 231.687 55.8583C231.632 55.8447 231.577 55.8447 231.536 55.8447C231.468 55.8447 231.4 55.8311 231.332 55.8311C231.318 55.8311 231.318 55.8311 231.304 55.8311L219.321 56.2132C218.378 56.2405 217.613 56.9774 217.531 57.9191L211.409 135.899C210.917 136.514 210.876 137.332 211.245 137.974L211.095 139.857C211.013 140.881 211.778 141.768 212.803 141.85C212.871 141.85 212.94 141.863 213.008 141.85C213.937 141.822 214.716 141.099 214.798 140.144L215.017 137.346L225.046 125.132L235.431 138.642L235.485 139.352C235.554 140.376 236.456 141.154 237.467 141.058C238.491 140.99 239.257 140.103 239.175 139.079L239.12 138.301C239.161 138.056 239.147 137.769 239.065 137.51ZM218.296 95.6264L222.245 99.5704L217.599 104.443L218.296 95.6264ZM220.892 62.6683L223.516 65.971L220.25 70.7748L220.892 62.6683ZM223.283 72.8901L225.921 69.0143L228.858 72.7127L223.283 72.8901ZM228.216 76.4384L225.921 78.9085L223.789 76.5749L228.216 76.4384ZM231.058 78.8266L231.509 85.0225L228.435 81.6516L231.058 78.8266ZM230.307 68.5776L228.107 65.7935L229.91 63.1323L230.307 68.5776ZM225.688 62.7639L223.352 59.8161L227.793 59.6796L225.688 62.7639ZM219.717 77.5984L223.393 81.6243L219.034 86.319L219.717 77.5984ZM219.335 91.4367L225.893 84.3674L231.209 90.1811L224.8 96.8956L219.335 91.4367ZM232.206 94.5073L232.971 105.057L227.424 99.5159L232.206 94.5073ZM215.522 130.904L216.82 114.446L222.737 122.129L215.522 130.904ZM217.79 109.628L224.868 102.204L232.684 110.024L225.142 119.209L217.79 109.628ZM227.465 122.211L233.682 114.651L234.952 131.942L227.465 122.211Z" fill="black"/>
<path d="M274.114 128.366H208.021V168.448H274.114V128.366Z" fill="white" stroke="black" stroke-width="3" stroke-miterlimit="10"/>
<path d="M229.501 136.595H217.203V148.414H229.501V136.595Z" fill="#25AAE1" stroke="black" stroke-width="3" stroke-miterlimit="10"/>
<path d="M248.043 136.595H235.745V148.414H248.043V136.595Z" fill="#25AAE1" stroke="black" stroke-width="3" stroke-miterlimit="10"/>
<path d="M202.706 139.175H175.091V168.448H202.706V139.175Z" fill="white" stroke="black" stroke-width="3" stroke-miterlimit="10"/>
<path d="M180.584 167.056H152.969V222.423H180.584V167.056Z" fill="white" stroke="black" stroke-width="3" stroke-miterlimit="10"/>
<path d="M188.892 211.464H144.634V227.2H188.892V211.464Z" fill="#9E6CFF" stroke="black" stroke-width="3" stroke-miterlimit="10"/>
<path d="M282.066 167.056H254.451V222.423H282.066V167.056Z" fill="white" stroke="black" stroke-width="3" stroke-miterlimit="10"/>
<path d="M290.388 211.464H246.13V227.2H290.388V211.464Z" fill="#9E6CFF" stroke="black" stroke-width="3" stroke-miterlimit="10"/>
<path d="M184.081 147.145H163.981V168.448H184.081V147.145Z" fill="#9E6CFF" stroke="black" stroke-width="3" stroke-miterlimit="10"/>
<path d="M298.067 163.48H139.359V173.443H298.067V163.48Z" fill="#25AAE1" stroke="black" stroke-width="3" stroke-miterlimit="10"/>
<path d="M70.9439 93.9883C47.1685 93.9883 27.7109 113.422 27.7109 137.168V193.982C27.7109 217.728 47.1685 237.161 70.9439 237.161C82.8179 237.161 93.6398 232.317 101.456 224.483C109.271 216.65 114.15 205.868 114.15 193.982V137.168C114.15 113.422 94.7056 93.9883 70.9439 93.9883ZM89.4586 173.047C89.4586 178.137 87.368 182.764 84.0204 186.107C80.659 189.464 76.0406 191.539 70.9439 191.539C60.7369 191.539 52.4155 183.228 52.4155 173.033V138.779C52.4155 128.611 60.7369 120.273 70.9439 120.273C81.1236 120.273 89.4723 128.611 89.4723 138.779V173.047H89.4586Z" fill="#00D384" stroke="black" stroke-width="3" stroke-miterlimit="10" stroke-linecap="round" stroke-linejoin="round"/>
<path d="M139.81 171.75H2.0498V288.966H139.81V171.75Z" fill="#00D384" stroke="black" stroke-width="3" stroke-miterlimit="10" stroke-linecap="round" stroke-linejoin="round"/>
<path d="M72.6793 234.377C80.5578 234.377 86.9445 227.998 86.9445 220.13C86.9445 212.261 80.5578 205.882 72.6793 205.882C64.8008 205.882 58.4141 212.261 58.4141 220.13C58.4141 227.998 64.8008 234.377 72.6793 234.377Z" fill="black" stroke="black" stroke-width="3" stroke-miterlimit="10" stroke-linecap="round" stroke-linejoin="round"/>
<path d="M75.4943 251.437H69.9057C68.471 251.437 67.2959 250.263 67.2959 248.83V222.464C67.2959 221.031 68.471 219.857 69.9057 219.857H75.4943C76.929 219.857 78.1041 221.031 78.1041 222.464V248.83C78.0905 250.263 76.929 251.437 75.4943 251.437Z" fill="black" stroke="black" stroke-width="3" stroke-miterlimit="10" stroke-linecap="round" stroke-linejoin="round"/>
<path d="M120.818 195.292L121.802 193.504L123.592 192.521L121.802 191.539L120.818 189.751L119.834 191.539L118.044 192.521L119.834 193.504L120.818 195.292Z" fill="black"/>
<path d="M128.455 195.292L129.439 193.504L131.229 192.521L129.439 191.539L128.455 189.751L127.485 191.539L125.682 192.521L127.485 193.504L128.455 195.292Z" fill="black"/>
<path d="M136.231 195.292L137.215 193.504L139.005 192.521L137.215 191.539L136.231 189.751L135.247 191.539L133.457 192.521L135.247 193.504L136.231 195.292Z" fill="black"/>
<path d="M116.923 200.901L117.907 199.113L119.697 198.13L117.907 197.148L116.923 195.36L115.939 197.148L114.149 198.13L115.939 199.113L116.923 200.901Z" fill="black"/>
<path d="M124.575 200.901L125.545 199.113L127.348 198.13L125.545 197.148L124.575 195.36L123.591 197.148L121.801 198.13L123.591 199.113L124.575 200.901Z" fill="black"/>
<path d="M132.336 200.901L133.32 199.113L135.11 198.13L133.32 197.148L132.336 195.36L131.352 197.148L129.562 198.13L131.352 199.113L132.336 200.901Z" fill="black"/>
<path d="M120.818 206.51L121.802 204.709L123.592 203.74L121.802 202.757L120.818 200.969L119.834 202.757L118.044 203.74L119.834 204.709L120.818 206.51Z" fill="black"/>
<path d="M128.455 206.51L129.439 204.709L131.229 203.74L129.439 202.757L128.455 200.969L127.485 202.757L125.682 203.74L127.485 204.709L128.455 206.51Z" fill="black"/>
<path d="M136.231 206.51L137.215 204.709L139.005 203.74L137.215 202.757L136.231 200.969L135.247 202.757L133.457 203.74L135.247 204.709L136.231 206.51Z" fill="black"/>
<path d="M116.923 212.119L117.907 210.317L119.697 209.349L117.907 208.366L116.923 206.578L115.939 208.366L114.149 209.349L115.939 210.317L116.923 212.119Z" fill="black"/>
<path d="M124.575 212.119L125.545 210.317L127.348 209.349L125.545 208.366L124.575 206.578L123.591 208.366L121.801 209.349L123.591 210.317L124.575 212.119Z" fill="black"/>
<path d="M132.336 212.119L133.32 210.317L135.11 209.349L133.32 208.366L132.336 206.578L131.352 208.366L129.562 209.349L131.352 210.317L132.336 212.119Z" fill="black"/>
<path d="M120.818 217.96L121.802 216.172L123.592 215.189L121.802 214.207L120.818 212.419L119.834 214.207L118.044 215.189L119.834 216.172L120.818 217.96Z" fill="black"/>
<path d="M128.455 217.96L129.439 216.172L131.229 215.189L129.439 214.207L128.455 212.419L127.485 214.207L125.682 215.189L127.485 216.172L128.455 217.96Z" fill="black"/>
<path d="M136.231 217.96L137.215 216.172L139.005 215.189L137.215 214.207L136.231 212.419L135.247 214.207L133.457 215.189L135.247 216.172L136.231 217.96Z" fill="black"/>
<path d="M116.923 223.569L117.907 221.781L119.697 220.799L117.907 219.816L116.923 218.028L115.939 219.816L114.149 220.799L115.939 221.781L116.923 223.569Z" fill="black"/>
<path d="M124.575 223.569L125.545 221.781L127.348 220.799L125.545 219.816L124.575 218.028L123.591 219.816L121.801 220.799L123.591 221.781L124.575 223.569Z" fill="black"/>
<path d="M132.336 223.569L133.32 221.781L135.11 220.799L133.32 219.816L132.336 218.028L131.352 219.816L129.562 220.799L131.352 221.781L132.336 223.569Z" fill="black"/>
<path d="M116.923 178.014L117.907 176.227L119.697 175.244L117.907 174.261L116.923 172.474L115.939 174.261L114.149 175.244L115.939 176.227L116.923 178.014Z" fill="black"/>
<path d="M124.575 178.014L125.545 176.227L127.348 175.244L125.545 174.261L124.575 172.474L123.591 174.261L121.801 175.244L123.591 176.227L124.575 178.014Z" fill="black"/>
<path d="M132.336 178.014L133.32 176.227L135.11 175.244L133.32 174.261L132.336 172.474L131.352 174.261L129.562 175.244L131.352 176.227L132.336 178.014Z" fill="black"/>
<path d="M120.818 183.623L121.802 181.822L123.592 180.853L121.802 179.87L120.818 178.083L119.834 179.87L118.044 180.853L119.834 181.822L120.818 183.623Z" fill="black"/>
<path d="M128.455 183.623L129.439 181.822L131.229 180.853L129.439 179.87L128.455 178.083L127.485 179.87L125.682 180.853L127.485 181.822L128.455 183.623Z" fill="black"/>
<path d="M136.231 183.623L137.215 181.822L139.005 180.853L137.215 179.87L136.231 178.083L135.247 179.87L133.457 180.853L135.247 181.822L136.231 183.623Z" fill="black"/>
<path d="M116.923 189.233L117.907 187.431L119.697 186.462L117.907 185.48L116.923 183.692L115.939 185.48L114.149 186.462L115.939 187.431L116.923 189.233Z" fill="black"/>
<path d="M124.575 189.233L125.545 187.431L127.348 186.462L125.545 185.48L124.575 183.692L123.591 185.48L121.801 186.462L123.591 187.431L124.575 189.233Z" fill="black"/>
<path d="M132.336 189.233L133.32 187.431L135.11 186.462L133.32 185.48L132.336 183.692L131.352 185.48L129.562 186.462L131.352 187.431L132.336 189.233Z" fill="black"/>
<path d="M137.31 246.824L136.34 248.625L134.536 249.594L136.34 250.577L137.31 252.365L138.294 250.577L140.084 249.594L138.294 248.625L137.31 246.824Z" fill="black"/>
<path d="M137.31 235.606L136.34 237.407L134.536 238.376L136.34 239.359L137.31 241.147L138.294 239.359L140.084 238.376L138.294 237.407L137.31 235.606Z" fill="black"/>
<path d="M137.31 224.156L136.34 225.944L134.536 226.926L136.34 227.909L137.31 229.697L138.294 227.909L140.084 226.926L138.294 225.944L137.31 224.156Z" fill="black"/>
<path d="M137.31 281.174L136.34 282.962L134.536 283.944L136.34 284.913L137.31 286.715L138.294 284.913L140.084 283.944L138.294 282.962L137.31 281.174Z" fill="black"/>
<path d="M137.31 269.71L136.34 271.498L134.536 272.481L136.34 273.463L137.31 275.251L138.294 273.463L140.084 272.481L138.294 271.498L137.31 269.71Z" fill="black"/>
<path d="M137.31 258.492L136.34 260.294L134.536 261.263L136.34 262.245L137.31 264.033L138.294 262.245L140.084 261.263L138.294 260.294L137.31 258.492Z" fill="black"/>
<path d="M128.442 246.824L127.458 248.625L125.668 249.594L127.458 250.577L128.442 252.365L129.426 250.577L131.216 249.594L129.426 248.625L128.442 246.824Z" fill="black"/>
<path d="M120.804 246.824L119.82 248.625L118.03 249.594L119.82 250.577L120.804 252.365L121.774 250.577L123.578 249.594L121.774 248.625L120.804 246.824Z" fill="black"/>
<path d="M132.336 241.215L131.352 243.016L129.562 243.985L131.352 244.968L132.336 246.756L133.32 244.968L135.11 243.985L133.32 243.016L132.336 241.215Z" fill="black"/>
<path d="M124.684 241.215L123.714 243.016L121.91 243.985L123.714 244.968L124.684 246.756L125.668 244.968L127.458 243.985L125.668 243.016L124.684 241.215Z" fill="black"/>
<path d="M116.923 241.215L115.939 243.016L114.149 243.985L115.939 244.968L116.923 246.756L117.907 244.968L119.697 243.985L117.907 243.016L116.923 241.215Z" fill="black"/>
<path d="M128.442 235.606L127.458 237.407L125.668 238.376L127.458 239.359L128.442 241.147L129.426 239.359L131.216 238.376L129.426 237.407L128.442 235.606Z" fill="black"/>
<path d="M120.804 235.606L119.82 237.407L118.03 238.376L119.82 239.359L120.804 241.147L121.774 239.359L123.578 238.376L121.774 237.407L120.804 235.606Z" fill="black"/>
<path d="M132.336 229.997L131.352 231.798L129.562 232.767L131.352 233.75L132.336 235.537L133.32 233.75L135.11 232.767L133.32 231.798L132.336 229.997Z" fill="black"/>
<path d="M124.684 229.997L123.714 231.798L121.91 232.767L123.714 233.75L124.684 235.537L125.668 233.75L127.458 232.767L125.668 231.798L124.684 229.997Z" fill="black"/>
<path d="M116.923 229.997L115.939 231.798L114.149 232.767L115.939 233.75L116.923 235.537L117.907 233.75L119.697 232.767L117.907 231.798L116.923 229.997Z" fill="black"/>
<path d="M128.442 224.156L127.458 225.944L125.668 226.926L127.458 227.909L128.442 229.697L129.426 227.909L131.216 226.926L129.426 225.944L128.442 224.156Z" fill="black"/>
<path d="M120.804 224.156L119.82 225.944L118.03 226.926L119.82 227.909L120.804 229.697L121.774 227.909L123.578 226.926L121.774 225.944L120.804 224.156Z" fill="black"/>
<path d="M128.442 281.174L127.458 282.962L125.668 283.944L127.458 284.913L128.442 286.715L129.426 284.913L131.216 283.944L129.426 282.962L128.442 281.174Z" fill="black"/>
<path d="M120.804 281.174L119.82 282.962L118.03 283.944L119.82 284.913L120.804 286.715L121.774 284.913L123.578 283.944L121.774 282.962L120.804 281.174Z" fill="black"/>
<path d="M132.336 275.565L131.352 277.353L129.562 278.335L131.352 279.304L132.336 281.106L133.32 279.304L135.11 278.335L133.32 277.353L132.336 275.565Z" fill="black"/>
<path d="M124.684 275.565L123.714 277.353L121.91 278.335L123.714 279.304L124.684 281.106L125.668 279.304L127.458 278.335L125.668 277.353L124.684 275.565Z" fill="black"/>
<path d="M116.923 275.565L115.939 277.353L114.149 278.335L115.939 279.304L116.923 281.106L117.907 279.304L119.697 278.335L117.907 277.353L116.923 275.565Z" fill="black"/>
<path d="M128.442 269.71L127.458 271.498L125.668 272.481L127.458 273.463L128.442 275.251L129.426 273.463L131.216 272.481L129.426 271.498L128.442 269.71Z" fill="black"/>
<path d="M120.804 269.71L119.82 271.498L118.03 272.481L119.82 273.463L120.804 275.251L121.774 273.463L123.578 272.481L121.774 271.498L120.804 269.71Z" fill="black"/>
<path d="M132.336 264.102L131.352 265.889L129.562 266.872L131.352 267.855L132.336 269.642L133.32 267.855L135.11 266.872L133.32 265.889L132.336 264.102Z" fill="black"/>
<path d="M124.684 264.102L123.714 265.889L121.91 266.872L123.714 267.855L124.684 269.642L125.668 267.855L127.458 266.872L125.668 265.889L124.684 264.102Z" fill="black"/>
<path d="M116.923 264.102L115.939 265.889L114.149 266.872L115.939 267.855L116.923 269.642L117.907 267.855L119.697 266.872L117.907 265.889L116.923 264.102Z" fill="black"/>
<path d="M128.442 258.492L127.458 260.294L125.668 261.263L127.458 262.245L128.442 264.033L129.426 262.245L131.216 261.263L129.426 260.294L128.442 258.492Z" fill="black"/>
<path d="M120.804 258.492L119.82 260.294L118.03 261.263L119.82 262.245L120.804 264.033L121.774 262.245L123.578 261.263L121.774 260.294L120.804 258.492Z" fill="black"/>
<path d="M132.336 252.883L131.352 254.685L129.562 255.654L131.352 256.636L132.336 258.424L133.32 256.636L135.11 255.654L133.32 254.685L132.336 252.883Z" fill="black"/>
<path d="M124.684 252.883L123.714 254.685L121.91 255.654L123.714 256.636L124.684 258.424L125.668 256.636L127.458 255.654L125.668 254.685L124.684 252.883Z" fill="black"/>
<path d="M116.923 252.883L115.939 254.685L114.149 255.654L115.939 256.636L116.923 258.424L117.907 256.636L119.697 255.654L117.907 254.685L116.923 252.883Z" fill="black"/>
</svg>
