<svg width="539" height="398" viewBox="0 0 539 398" fill="none" xmlns="http://www.w3.org/2000/svg">
<path d="M80.6275 215.257C69.9923 215.257 61.292 206.558 61.292 195.924V181.49" stroke="black" stroke-width="3" stroke-miterlimit="10" stroke-linecap="round" stroke-linejoin="round"/>
<path d="M80.5439 215.257H137.882" stroke="black" stroke-width="3" stroke-miterlimit="10" stroke-linecap="round" stroke-linejoin="round"/>
<path d="M60.4285 140.818C71.8375 140.818 81.0864 131.571 81.0864 120.163C81.0864 108.755 71.8375 99.5068 60.4285 99.5068C49.0194 99.5068 39.7705 108.755 39.7705 120.163C39.7705 131.571 49.0194 140.818 60.4285 140.818Z" fill="black" stroke="black" stroke-width="3" stroke-miterlimit="10" stroke-linecap="round" stroke-linejoin="round"/>
<path d="M118.992 123.072C118.992 139.635 112.101 154.598 101.007 165.219C90.5245 175.324 76.2561 181.518 60.5399 181.518C44.072 181.518 29.2189 174.711 18.5975 163.771C8.36601 153.234 2.08789 138.898 2.08789 123.072C2.08789 90.7937 28.2583 64.626 60.5399 64.626C92.8214 64.626 118.992 90.7937 118.992 123.072Z" stroke="black" stroke-width="3" stroke-miterlimit="10" stroke-linecap="round" stroke-linejoin="round"/>
<path d="M71.5933 111.77C74.9621 114.818 77.078 119.258 77.078 124.157C77.078 133.344 69.6306 140.818 60.4431 140.818C51.2277 140.818 43.7803 133.33 43.7803 124.157C43.7803 120.608 44.8939 117.295 46.801 114.595" fill="white"/>
<path d="M71.5933 111.77C74.9621 114.818 77.078 119.258 77.078 124.157C77.078 133.344 69.6306 140.818 60.4431 140.818C51.2277 140.818 43.7803 133.33 43.7803 124.157C43.7803 120.608 44.8939 117.295 46.801 114.595" stroke="black" stroke-width="3" stroke-miterlimit="10" stroke-linecap="round" stroke-linejoin="round"/>
<path d="M42.8193 112.285C42.8193 112.285 59.4125 117.532 77.0497 108.958" stroke="black" stroke-width="3" stroke-miterlimit="10" stroke-linecap="round" stroke-linejoin="round"/>
<path d="M101.007 165.219C90.5246 175.324 76.2562 181.518 60.54 181.518C44.0721 181.518 29.219 174.711 18.5977 163.771C24.9315 155.754 36.3462 147.764 56.9346 147.764H63.3937C63.4076 147.764 89.7173 149.643 101.007 165.219Z" fill="#E399C3" stroke="black" stroke-width="3" stroke-miterlimit="10" stroke-linecap="round" stroke-linejoin="round"/>
<path d="M43.7793 122.793H77.0492" stroke="black" stroke-width="3" stroke-miterlimit="10" stroke-linecap="round" stroke-linejoin="round"/>
<path d="M53.761 126.719C56.2442 126.719 58.2573 124.706 58.2573 122.223C58.2573 119.74 56.2442 117.727 53.761 117.727C51.2777 117.727 49.2646 119.74 49.2646 122.223C49.2646 124.706 51.2777 126.719 53.761 126.719Z" fill="#25AAE1" stroke="black" stroke-width="3" stroke-miterlimit="10" stroke-linecap="round" stroke-linejoin="round"/>
<path d="M67.4445 126.719C69.9278 126.719 71.9409 124.706 71.9409 122.223C71.9409 119.74 69.9278 117.727 67.4445 117.727C64.9613 117.727 62.9482 119.74 62.9482 122.223C62.9482 124.706 64.9613 126.719 67.4445 126.719Z" fill="#25AAE1" stroke="black" stroke-width="3" stroke-miterlimit="10" stroke-linecap="round" stroke-linejoin="round"/>
<path d="M463.176 188.603H491.225C501.86 188.603 510.561 197.302 510.561 207.936C510.561 218.57 501.86 227.27 491.225 227.27H404.348" stroke="black" stroke-width="3" stroke-miterlimit="10" stroke-linecap="round" stroke-linejoin="round"/>
<path d="M482.149 188.602H464.901C451.398 188.602 440.359 177.565 440.359 164.063V119.522" stroke="black" stroke-width="3" stroke-miterlimit="10" stroke-linecap="round" stroke-linejoin="round"/>
<path d="M299.958 349.089H255.009C251.946 349.089 249.44 346.583 249.44 343.521V223.929C249.44 220.867 251.946 218.361 255.009 218.361H299.958C303.02 218.361 305.526 220.867 305.526 223.929V343.521C305.526 346.583 303.02 349.089 299.958 349.089Z" fill="#7F53EA" stroke="black" stroke-width="3" stroke-miterlimit="10" stroke-linecap="round" stroke-linejoin="round"/>
<path d="M291.077 349.089H233.21C230.147 349.089 227.642 346.583 227.642 343.521V223.929C227.642 220.867 230.147 218.361 233.21 218.361H291.077C294.14 218.361 296.645 220.867 296.645 223.929V343.521C296.645 346.583 294.14 349.089 291.077 349.089Z" fill="#9E6CFF" stroke="black" stroke-width="3" stroke-miterlimit="10" stroke-linecap="round" stroke-linejoin="round"/>
<path d="M338.698 352.568H294.334C291.271 352.568 288.766 350.063 288.766 347.001V344.328C288.766 341.266 291.271 338.761 294.334 338.761H338.698C341.761 338.761 344.266 341.266 344.266 344.328V347.001C344.266 350.063 341.761 352.568 338.698 352.568Z" fill="#7F53EA" stroke="black" stroke-width="3" stroke-miterlimit="10" stroke-linecap="round" stroke-linejoin="round"/>
<path d="M330.416 352.568H190.139C187.077 352.568 184.571 350.063 184.571 347.001V344.328C184.571 341.266 187.077 338.761 190.139 338.761H330.416C333.478 338.761 335.984 341.266 335.984 344.328V347.001C335.984 350.063 333.478 352.568 330.416 352.568Z" fill="#9E6CFF" stroke="black" stroke-width="3" stroke-miterlimit="10" stroke-linecap="round" stroke-linejoin="round"/>
<path d="M394.742 314.848H161.296C156.02 314.848 151.705 310.533 151.705 305.258V178.038C151.705 172.763 156.02 168.448 161.296 168.448H394.742C400.018 168.448 404.333 172.763 404.333 178.038V305.258C404.333 310.533 400.018 314.848 394.742 314.848Z" fill="#7F53EA" stroke="black" stroke-width="3" stroke-miterlimit="10" stroke-linecap="round" stroke-linejoin="round"/>
<path d="M380.056 314.848H144.229C136.35 314.848 129.905 308.404 129.905 300.525V182.785C129.905 174.906 136.35 168.462 144.229 168.462H380.056C387.935 168.462 394.38 174.906 394.38 182.785V300.525C394.38 308.39 387.935 314.848 380.056 314.848Z" fill="#9E6CFF" stroke="black" stroke-width="3" stroke-miterlimit="10" stroke-linecap="round" stroke-linejoin="round"/>
<path d="M374.126 185.61H147.376V290.392H374.126V185.61Z" fill="#25AAE1" stroke="black" stroke-width="3" stroke-miterlimit="10" stroke-linecap="round" stroke-linejoin="round"/>
<path d="M288.78 186H147.376V290.392H288.78V186Z" fill="white" stroke="black" stroke-width="3" stroke-miterlimit="10" stroke-linecap="round" stroke-linejoin="round"/>
<path d="M261.467 306.441C263.236 306.441 264.669 305.008 264.669 303.239C264.669 301.471 263.236 300.038 261.467 300.038C259.699 300.038 258.266 301.471 258.266 303.239C258.266 305.008 259.699 306.441 261.467 306.441Z" fill="black" stroke="black" stroke-width="3" stroke-miterlimit="10" stroke-linecap="round" stroke-linejoin="round"/>
<path d="M397.442 395.912H122.305C119.242 395.912 116.736 393.407 116.736 390.344V384.735C116.736 381.673 119.242 379.167 122.305 379.167H397.456C400.519 379.167 403.024 381.673 403.024 384.735V390.344C403.01 393.407 400.505 395.912 397.442 395.912Z" fill="#7F53EA" stroke="black" stroke-width="3" stroke-miterlimit="10" stroke-linecap="round" stroke-linejoin="round"/>
<path d="M386.543 395.912H111.405C108.343 395.912 105.837 393.407 105.837 390.344V384.735C105.837 381.673 108.343 379.167 111.405 379.167H386.557C389.619 379.167 392.125 381.673 392.125 384.735V390.344C392.111 393.407 389.605 395.912 386.543 395.912Z" fill="#9E6CFF" stroke="black" stroke-width="3" stroke-miterlimit="10" stroke-linecap="round" stroke-linejoin="round"/>
<path d="M118.06 379.168L121.345 368.854H136.448L139.121 379.168H118.06Z" fill="#7F53EA" stroke="black" stroke-width="3" stroke-miterlimit="10" stroke-linecap="round" stroke-linejoin="round"/>
<path d="M147.919 379.168L151.204 368.854H166.308L168.981 379.168H147.919Z" fill="#7F53EA" stroke="black" stroke-width="3" stroke-miterlimit="10" stroke-linecap="round" stroke-linejoin="round"/>
<path d="M177.055 379.168L180.354 368.854H195.458L198.116 379.168H177.055Z" fill="#7F53EA" stroke="black" stroke-width="3" stroke-miterlimit="10" stroke-linecap="round" stroke-linejoin="round"/>
<path d="M206.914 379.168L210.199 368.854H225.303L227.976 379.168H206.914Z" fill="#7F53EA" stroke="black" stroke-width="3" stroke-miterlimit="10" stroke-linecap="round" stroke-linejoin="round"/>
<path d="M235.521 379.168L238.82 368.854H253.923L256.582 379.168H235.521Z" fill="#7F53EA" stroke="black" stroke-width="3" stroke-miterlimit="10" stroke-linecap="round" stroke-linejoin="round"/>
<path d="M265.38 379.168L268.665 368.854H283.769L286.442 379.168H265.38Z" fill="#7F53EA" stroke="black" stroke-width="3" stroke-miterlimit="10" stroke-linecap="round" stroke-linejoin="round"/>
<path d="M263.737 379.168L267.023 368.854H342.778L345.436 379.168H263.737Z" fill="#7F53EA" stroke="black" stroke-width="3" stroke-miterlimit="10" stroke-linecap="round" stroke-linejoin="round"/>
<path d="M352.814 379.168L356.1 368.854H371.203L373.876 379.168H352.814Z" fill="#7F53EA" stroke="black" stroke-width="3" stroke-miterlimit="10" stroke-linecap="round" stroke-linejoin="round"/>
<path d="M112.992 379.167H392.111" stroke="black" stroke-width="3" stroke-miterlimit="10" stroke-linecap="round" stroke-linejoin="round"/>
<path d="M480.826 395.314V395.648H413.326V395.314C413.326 380.699 428.43 368.854 447.083 368.854C465.737 368.854 480.826 380.699 480.826 395.314Z" fill="#9E6CFF" stroke="black" stroke-width="3" stroke-miterlimit="10" stroke-linecap="round" stroke-linejoin="round"/>
<path d="M428.249 395.648L434.527 370.747" stroke="black" stroke-width="3" stroke-miterlimit="10" stroke-linecap="round" stroke-linejoin="round"/>
<path d="M45.3664 297.95C50.0855 303.866 50.2386 320.346 49.988 328.488C49.9184 330.994 47.6216 332.817 45.1576 332.33C37.1673 330.743 21.1309 326.93 16.4119 321.014C11.4423 314.778 5.74883 289.585 3.47979 278.798C3.04826 276.738 5.15025 275.053 7.05735 275.944C17.094 280.551 40.3968 291.714 45.3664 297.95Z" fill="#08B56E" stroke="black" stroke-width="3" stroke-miterlimit="10" stroke-linecap="round" stroke-linejoin="round"/>
<path d="M60.3033 297.95C55.5843 303.866 55.4312 320.346 55.6817 328.488C55.7514 330.994 58.0482 332.817 60.5121 332.33C68.5025 330.743 84.5389 326.93 89.2579 321.014C94.2275 314.778 99.921 289.585 102.19 278.798C102.622 276.738 100.52 275.053 98.6124 275.944C88.5758 280.551 65.2729 291.714 60.3033 297.95Z" fill="#08B56E" stroke="black" stroke-width="3" stroke-miterlimit="10" stroke-linecap="round" stroke-linejoin="round"/>
<path d="M78.9148 289.362C78.9148 300.024 64.6046 318.314 57.185 327.069C54.902 329.755 50.7677 329.755 48.4847 327.069C41.0651 318.314 26.7549 300.024 26.7549 289.362C26.7549 278.13 42.6242 245.364 49.5983 231.487C50.9347 228.829 54.7211 228.829 56.0574 231.487C63.0455 245.364 78.9148 278.13 78.9148 289.362Z" fill="#08B56E" stroke="black" stroke-width="3" stroke-miterlimit="10" stroke-linecap="round" stroke-linejoin="round"/>
<path d="M72.6786 368.854H33.3811L25.6553 327.417H80.0286L72.6786 368.854Z" fill="#25AAE1" stroke="black" stroke-width="3" stroke-miterlimit="10" stroke-linecap="round" stroke-linejoin="round"/>
<path d="M61.9601 266.298L62.6283 265.06L63.8672 264.392L62.6283 263.709L61.9601 262.471L61.278 263.709L60.0391 264.392L61.278 265.06L61.9601 266.298Z" fill="black"/>
<path d="M67.3195 266.298L68.0016 265.06L69.2266 264.392L68.0016 263.709L67.3195 262.471L66.6374 263.709L65.3984 264.392L66.6374 265.06L67.3195 266.298Z" fill="black"/>
<path d="M59.2726 270.182L59.9408 268.943L61.1797 268.261L59.9408 267.593L59.2726 266.354L58.5905 267.593L57.3516 268.261L58.5905 268.943L59.2726 270.182Z" fill="black"/>
<path d="M64.632 270.182L65.3141 268.943L66.5391 268.261L65.3141 267.593L64.632 266.354L63.9499 267.593L62.7109 268.261L63.9499 268.943L64.632 270.182Z" fill="black"/>
<path d="M61.9601 274.051L62.6283 272.813L63.8672 272.144L62.6283 271.462L61.9601 270.224L61.278 271.462L60.0391 272.144L61.278 272.813L61.9601 274.051Z" fill="black"/>
<path d="M67.3195 274.051L68.0016 272.813L69.2266 272.144L68.0016 271.462L67.3195 270.224L66.6374 271.462L65.3984 272.144L66.6374 272.813L67.3195 274.051Z" fill="black"/>
<path d="M59.2726 277.935L59.9408 276.696L61.1797 276.014L59.9408 275.332L59.2726 274.107L58.5905 275.332L57.3516 276.014L58.5905 276.696L59.2726 277.935Z" fill="black"/>
<path d="M64.632 277.935L65.3141 276.696L66.5391 276.014L65.3141 275.332L64.632 274.107L63.9499 275.332L62.7109 276.014L63.9499 276.696L64.632 277.935Z" fill="black"/>
<path d="M56.6837 281.971L57.3519 280.732L58.5908 280.05L57.3519 279.382L56.6837 278.144L56.0016 279.382L54.7627 280.05L56.0016 280.732L56.6837 281.971Z" fill="black"/>
<path d="M61.9601 281.971L62.6283 280.732L63.8672 280.05L62.6283 279.382L61.9601 278.144L61.278 279.382L60.0391 280.05L61.278 280.732L61.9601 281.971Z" fill="black"/>
<path d="M67.3195 281.971L68.0016 280.732L69.2266 280.05L68.0016 279.382L67.3195 278.144L66.6374 279.382L65.3984 280.05L66.6374 280.732L67.3195 281.971Z" fill="black"/>
<path d="M53.9972 285.841L54.6654 284.602L55.9043 283.934L54.6654 283.252L53.9972 282.013L53.3151 283.252L52.0762 283.934L53.3151 284.602L53.9972 285.841Z" fill="black"/>
<path d="M59.2726 285.841L59.9408 284.602L61.1797 283.934L59.9408 283.252L59.2726 282.013L58.5905 283.252L57.3516 283.934L58.5905 284.602L59.2726 285.841Z" fill="black"/>
<path d="M64.632 285.841L65.3141 284.602L66.5391 283.934L65.3141 283.252L64.632 282.013L63.9499 283.252L62.7109 283.934L63.9499 284.602L64.632 285.841Z" fill="black"/>
<path d="M56.6837 234.814L57.3519 233.575L58.5908 232.907L57.3519 232.225L56.6837 230.986L56.0016 232.225L54.7627 232.907L56.0016 233.575L56.6837 234.814Z" fill="black"/>
<path d="M53.9972 238.697L54.6654 237.458L55.9043 236.776L54.6654 236.108L53.9972 234.869L53.3151 236.108L52.0762 236.776L53.3151 237.458L53.9972 238.697Z" fill="black"/>
<path d="M59.2726 238.697L59.9408 237.458L61.1797 236.776L59.9408 236.108L59.2726 234.869L58.5905 236.108L57.3516 236.776L58.5905 237.458L59.2726 238.697Z" fill="black"/>
<path d="M56.6837 242.566L57.3519 241.328L58.5908 240.66L57.3519 239.978L56.6837 238.739L56.0016 239.978L54.7627 240.66L56.0016 241.328L56.6837 242.566Z" fill="black"/>
<path d="M53.9972 246.45L54.6654 245.211L55.9043 244.529L54.6654 243.861L53.9972 242.622L53.3151 243.861L52.0762 244.529L53.3151 245.211L53.9972 246.45Z" fill="black"/>
<path d="M59.2726 246.45L59.9408 245.211L61.1797 244.529L59.9408 243.861L59.2726 242.622L58.5905 243.861L57.3516 244.529L58.5905 245.211L59.2726 246.45Z" fill="black"/>
<path d="M56.6837 250.486L57.3519 249.248L58.5908 248.566L57.3519 247.897L56.6837 246.659L56.0016 247.897L54.7627 248.566L56.0016 249.248L56.6837 250.486Z" fill="black"/>
<path d="M61.9601 250.486L62.6283 249.248L63.8672 248.566L62.6283 247.897L61.9601 246.659L61.278 247.897L60.0391 248.566L61.278 249.248L61.9601 250.486Z" fill="black"/>
<path d="M53.9972 254.356L54.6654 253.131L55.9043 252.449L54.6654 251.767L53.9972 250.528L53.3151 251.767L52.0762 252.449L53.3151 253.131L53.9972 254.356Z" fill="black"/>
<path d="M59.2726 254.356L59.9408 253.131L61.1797 252.449L59.9408 251.767L59.2726 250.528L58.5905 251.767L57.3516 252.449L58.5905 253.131L59.2726 254.356Z" fill="black"/>
<path d="M64.632 254.356L65.3141 253.131L66.5391 252.449L65.3141 251.767L64.632 250.528L63.9499 251.767L62.7109 252.449L63.9499 253.131L64.632 254.356Z" fill="black"/>
<path d="M56.6837 258.239L57.3519 257.001L58.5908 256.319L57.3519 255.65L56.6837 254.412L56.0016 255.65L54.7627 256.319L56.0016 257.001L56.6837 258.239Z" fill="black"/>
<path d="M61.9601 258.239L62.6283 257.001L63.8672 256.319L62.6283 255.65L61.9601 254.412L61.278 255.65L60.0391 256.319L61.278 257.001L61.9601 258.239Z" fill="black"/>
<path d="M67.3195 258.239L68.0016 257.001L69.2266 256.319L68.0016 255.65L67.3195 254.412L66.6374 255.65L65.3984 256.319L66.6374 257.001L67.3195 258.239Z" fill="black"/>
<path d="M59.2726 262.108L59.9408 260.87L61.1797 260.202L59.9408 259.52L59.2726 258.281L58.5905 259.52L57.3516 260.202L58.5905 260.87L59.2726 262.108Z" fill="black"/>
<path d="M64.632 262.108L65.3141 260.87L66.5391 260.202L65.3141 259.52L64.632 258.281L63.9499 259.52L62.7109 260.202L63.9499 260.87L64.632 262.108Z" fill="black"/>
<path d="M53.9972 230.513L54.6654 229.274L55.9043 228.592L54.6654 227.924V229.274L53.3151 227.924L52.0762 228.592L53.3151 229.274L53.9972 230.513Z" fill="black"/>
<path d="M70.7579 270.182L71.4261 268.943L72.665 268.261L71.4261 267.593L70.7579 266.354L70.0758 267.593L68.8369 268.261L70.0758 268.943L70.7579 270.182Z" fill="black"/>
<path d="M73.4445 274.051L74.1126 272.813L75.3516 272.144L74.1126 271.462L73.4445 270.224L72.7624 271.462L71.5234 272.144L72.7624 272.813L73.4445 274.051Z" fill="black"/>
<path d="M70.7579 277.935L71.4261 276.696L72.665 276.014L71.4261 275.332L70.7579 274.107L70.0758 275.332L68.8369 276.014L70.0758 276.696L70.7579 277.935Z" fill="black"/>
<path d="M76.0343 277.935L76.7164 276.696L77.9553 276.014L76.7164 275.332L76.0343 274.107L75.3522 275.332L74.1133 276.014L75.3522 276.696L76.0343 277.935Z" fill="black"/>
<path d="M73.4445 281.971L74.1126 280.732L75.3516 280.05L74.1126 279.382L73.4445 278.144L72.7624 279.382L71.5234 280.05L72.7624 280.732L73.4445 281.971Z" fill="black"/>
<path d="M70.7579 285.84L71.4261 284.602L72.665 283.934L71.4261 283.251L70.7579 282.013L70.0758 283.251L68.8369 283.934L70.0758 284.602L70.7579 285.84Z" fill="black"/>
<path d="M76.0343 285.84L76.7164 284.602L77.9553 283.934L76.7164 283.251L76.0343 282.013L75.3522 283.251L74.1133 283.934L75.3522 284.602L76.0343 285.84Z" fill="black"/>
<path d="M81.3934 285.84L82.0755 284.602L83.3144 283.934L82.0755 283.251L81.3934 282.013L80.7113 283.251L79.4863 283.934L80.7113 284.602L81.3934 285.84Z" fill="black"/>
<path d="M78.7059 301.917L78.0238 303.156L76.7988 303.838L78.0238 304.506L78.7059 305.745L79.388 304.506L80.627 303.838L79.388 303.156L78.7059 301.917Z" fill="black"/>
<path d="M73.4298 301.917L72.7477 303.156L71.5088 303.838L72.7477 304.506L73.4298 305.745L74.1119 304.506L75.3508 303.838L74.1119 303.156L73.4298 301.917Z" fill="black"/>
<path d="M68.0704 301.917L67.3883 303.156L66.1494 303.838L67.3883 304.506L68.0704 305.745L68.7525 304.506L69.9775 303.838L68.7525 303.156L68.0704 301.917Z" fill="black"/>
<path d="M81.3925 298.048L80.7104 299.287L79.4854 299.955L80.7104 300.637L81.3925 301.876L82.0746 300.637L83.3135 299.955L82.0746 299.287L81.3925 298.048Z" fill="black"/>
<path d="M76.1163 298.048L75.4342 299.287L74.1953 299.955L75.4342 300.637L76.1163 301.876L76.7984 300.637L78.0234 299.955L76.7984 299.287L76.1163 298.048Z" fill="black"/>
<path d="M70.757 298.048L70.0749 299.287L68.8359 299.955L70.0749 300.637L70.757 301.876L71.4251 300.637L72.6641 299.955L71.4251 299.287L70.757 298.048Z" fill="black"/>
<path d="M78.7059 294.165L78.0238 295.403L76.7988 296.085L78.0238 296.753L78.7059 297.992L79.388 296.753L80.627 296.085L79.388 295.403L78.7059 294.165Z" fill="black"/>
<path d="M73.4298 294.165L72.7477 295.403L71.5088 296.085L72.7477 296.753L73.4298 297.992L74.1119 296.753L75.3508 296.085L74.1119 295.403L73.4298 294.165Z" fill="black"/>
<path d="M68.0704 294.165L67.3883 295.403L66.1494 296.085L67.3883 296.753L68.0704 297.992L68.7525 296.753L69.9775 296.085L68.7525 295.403L68.0704 294.165Z" fill="black"/>
<path d="M81.3925 290.295L80.7104 291.534L79.4854 292.202L80.7104 292.884L81.3925 294.123L82.0746 292.884L83.3135 292.202L82.0746 291.534L81.3925 290.295Z" fill="black"/>
<path d="M76.1163 290.295L75.4342 291.534L74.1953 292.202L75.4342 292.884L76.1163 294.123L76.7984 292.884L78.0234 292.202L76.7984 291.534L76.1163 290.295Z" fill="black"/>
<path d="M70.757 290.295L70.0749 291.534L68.8359 292.202L70.0749 292.884L70.757 294.123L71.4251 292.884L72.6641 292.202L71.4251 291.534L70.757 290.295Z" fill="black"/>
<path d="M78.7059 286.258L78.0238 287.483L76.7988 288.165L78.0238 288.847L78.7059 290.086L79.388 288.847L80.627 288.165L79.388 287.483L78.7059 286.258Z" fill="black"/>
<path d="M73.4298 286.258L72.7477 287.483L71.5088 288.165L72.7477 288.847L73.4298 290.086L74.1119 288.847L75.3508 288.165L74.1119 287.483L73.4298 286.258Z" fill="black"/>
<path d="M68.0704 286.258L67.3883 287.483L66.1494 288.165L67.3883 288.847L68.0704 290.086L68.7525 288.847L69.9775 288.165L68.7525 287.483L68.0704 286.258Z" fill="black"/>
<path d="M78.7059 333.401L78.0238 334.64L76.7988 335.322L78.0238 335.99L78.7059 337.229L79.388 335.99L80.627 335.322L79.388 334.64L78.7059 333.401Z" fill="black"/>
<path d="M73.4298 333.401L72.7477 334.64L71.5088 335.322L72.7477 335.99L73.4298 337.229L74.1119 335.99L75.3508 335.322L74.1119 334.64L73.4298 333.401Z" fill="black"/>
<path d="M68.0704 333.401L67.3883 334.64L66.1494 335.322L67.3883 335.99L68.0704 337.229L68.7525 335.99L69.9775 335.322L68.7525 334.64L68.0704 333.401Z" fill="black"/>
<path d="M76.1163 329.532L75.4342 330.771L74.1953 331.439L75.4342 332.121L76.1163 333.36L76.7984 332.121L78.0234 331.439L76.7984 330.771L76.1163 329.532Z" fill="black"/>
<path d="M70.757 329.532L70.0749 330.771L68.8359 331.439L70.0749 332.121L70.757 333.36L71.4251 332.121L72.6641 331.439L71.4251 330.771L70.757 329.532Z" fill="black"/>
<path d="M78.7059 325.649L78.0238 326.888L76.7988 327.57L78.0238 328.238L78.7059 329.477L79.388 328.238L80.627 327.57L79.388 326.888L78.7059 325.649Z" fill="black"/>
<path d="M73.4298 325.649L72.7477 326.888L71.5088 327.57L72.7477 328.238L73.4298 329.477L74.1119 328.238L75.3508 327.57L74.1119 326.888L73.4298 325.649Z" fill="black"/>
<path d="M68.0704 325.649L67.3883 326.888L66.1494 327.57L67.3883 328.238L68.0704 329.477L68.7525 328.238L69.9775 327.57L68.7525 326.888L68.0704 325.649Z" fill="black"/>
<path d="M81.3925 321.779L80.7104 323.018L79.4854 323.686L80.7104 324.368L81.3925 325.607L82.0746 324.368L83.3135 323.686L82.0746 323.018L81.3925 321.779Z" fill="black"/>
<path d="M76.1163 321.779L75.4342 323.018L74.1953 323.686L75.4342 324.368L76.1163 325.607L76.7984 324.368L78.0234 323.686L76.7984 323.018L76.1163 321.779Z" fill="black"/>
<path d="M70.757 321.779L70.0749 323.018L68.8359 323.686L70.0749 324.368L70.757 325.607L71.4251 324.368L72.6641 323.686L71.4251 323.018L70.757 321.779Z" fill="black"/>
<path d="M78.7059 317.729L78.0238 318.968L76.7988 319.65L78.0238 320.332L78.7059 321.571L79.388 320.332L80.627 319.65L79.388 318.968L78.7059 317.729Z" fill="black"/>
<path d="M73.4298 317.729L72.7477 318.968L71.5088 319.65L72.7477 320.332L73.4298 321.571L74.1119 320.332L75.3508 319.65L74.1119 318.968L73.4298 317.729Z" fill="black"/>
<path d="M68.0704 317.729L67.3883 318.968L66.1494 319.65L67.3883 320.332L68.0704 321.571L68.7525 320.332L69.9775 319.65L68.7525 318.968L68.0704 317.729Z" fill="black"/>
<path d="M81.3925 313.859L80.7104 315.098L79.4854 315.766L80.7104 316.448L81.3925 317.687L82.0746 316.448L83.3135 315.766L82.0746 315.098L81.3925 313.859Z" fill="black"/>
<path d="M76.1163 313.859L75.4342 315.098L74.1953 315.766L75.4342 316.448L76.1163 317.687L76.7984 316.448L78.0234 315.766L76.7984 315.098L76.1163 313.859Z" fill="black"/>
<path d="M70.757 313.859L70.0749 315.098L68.8359 315.766L70.0749 316.448L70.757 317.687L71.4251 316.448L72.6641 315.766L71.4251 315.098L70.757 313.859Z" fill="black"/>
<path d="M78.7059 309.99L78.0238 311.215L76.7988 311.897L78.0238 312.579L78.7059 313.817L79.388 312.579L80.627 311.897L79.388 311.215L78.7059 309.99Z" fill="black"/>
<path d="M73.4298 309.99L72.7477 311.215L71.5088 311.897L72.7477 312.579L73.4298 313.817L74.1119 312.579L75.3508 311.897L74.1119 311.215L73.4298 309.99Z" fill="black"/>
<path d="M68.0704 309.99L67.3883 311.215L66.1494 311.897L67.3883 312.579L68.0704 313.817L68.7525 312.579L69.9775 311.897L68.7525 311.215L68.0704 309.99Z" fill="black"/>
<path d="M81.3925 306.106L80.7104 307.345L79.4854 308.027L80.7104 308.695L81.3925 309.934L82.0746 308.695L83.3135 308.027L82.0746 307.345L81.3925 306.106Z" fill="black"/>
<path d="M76.1163 306.106L75.4342 307.345L74.1953 308.027L75.4342 308.695L76.1163 309.934L76.7984 308.695L78.0234 308.027L76.7984 307.345L76.1163 306.106Z" fill="black"/>
<path d="M70.757 306.106L70.0749 307.345L68.8359 308.027L70.0749 308.695L70.757 309.934L71.4251 308.695L72.6641 308.027L71.4251 307.345L70.757 306.106Z" fill="black"/>
<path d="M76.1163 337.717L75.4342 338.956L74.1953 339.624L75.4342 340.306L76.1163 341.545L76.7984 340.306L78.0234 339.624L76.7984 338.956L76.1163 337.717Z" fill="black"/>
<path d="M70.757 337.717L70.0749 338.956L68.8359 339.624L70.0749 340.306L70.757 341.545L71.4251 340.306L72.6641 339.624L71.4251 338.956L70.757 337.717Z" fill="black"/>
<path d="M61.9454 301.917L61.2633 303.156L60.0244 303.838L61.2633 304.506L61.9454 305.745L62.6275 304.506L63.8665 303.838L62.6275 303.156L61.9454 301.917Z" fill="black"/>
<path d="M64.632 298.048L63.9499 299.287L62.7109 299.955L63.9499 300.637L64.632 301.876L65.3141 300.637L66.5391 299.955L65.3141 299.287L64.632 298.048Z" fill="black"/>
<path d="M61.9454 294.165L61.2633 295.403L60.0244 296.085L61.2633 296.753L61.9454 297.992L62.6275 296.753L63.8665 296.085L62.6275 295.403L61.9454 294.165Z" fill="black"/>
<path d="M64.632 290.295L63.9499 291.534L62.7109 292.202L63.9499 292.884L64.632 294.123L65.3141 292.884L66.5391 292.202L65.3141 291.534L64.632 290.295Z" fill="black"/>
<path d="M59.3566 290.295L58.6745 291.534L57.4355 292.202L58.6745 292.884L59.3566 294.123L60.0248 292.884L61.2637 292.202L60.0248 291.534L59.3566 290.295Z" fill="black"/>
<path d="M61.9454 286.258L61.2633 287.483L60.0244 288.165L61.2633 288.847L61.9454 290.086L62.6275 288.847L63.8665 288.165L62.6275 287.483L61.9454 286.258Z" fill="black"/>
<path d="M61.9454 333.401L61.2633 334.64L60.0244 335.322L61.2633 335.99L61.9454 337.229L62.6275 335.99L63.8665 335.322L62.6275 334.64L61.9454 333.401Z" fill="black"/>
<path d="M56.67 333.401L55.9879 334.64L54.749 335.322L55.9879 335.99L56.67 337.229L57.3382 335.99L58.5772 335.322L57.3382 334.64L56.67 333.401Z" fill="black"/>
<path d="M64.632 329.532L63.9499 330.771L62.7109 331.439L63.9499 332.121L64.632 333.36L65.3141 332.121L66.5391 331.439L65.3141 330.771L64.632 329.532Z" fill="black"/>
<path d="M59.3566 329.532L58.6745 330.771L57.4355 331.439L58.6745 332.121L59.3566 333.36L60.0248 332.121L61.2637 331.439L60.0248 330.771L59.3566 329.532Z" fill="black"/>
<path d="M53.9972 329.532L53.3151 330.771L52.0762 331.439L53.3151 332.121L53.9972 333.36L54.6654 332.121L55.9043 331.439L54.6654 330.771L53.9972 329.532Z" fill="black"/>
<path d="M61.9454 325.649L61.2633 326.888L60.0244 327.57L61.2633 328.238L61.9454 329.477L62.6275 328.238L63.8665 327.57L62.6275 326.888L61.9454 325.649Z" fill="black"/>
<path d="M56.67 325.649L55.9879 326.888L54.749 327.57L55.9879 328.238L56.67 329.477L57.3382 328.238L58.5772 327.57L57.3382 326.888L56.67 325.649Z" fill="black"/>
<path d="M64.632 321.779L63.9499 323.018L62.7109 323.686L63.9499 324.368L64.632 325.607L65.3141 324.368L66.5391 323.686L65.3141 323.018L64.632 321.779Z" fill="black"/>
<path d="M59.3566 321.779L58.6745 323.018L57.4355 323.686L58.6745 324.368L59.3566 325.607L60.0248 324.368L61.2637 323.686L60.0248 323.018L59.3566 321.779Z" fill="black"/>
<path d="M53.9972 321.779L53.3151 323.018L52.0762 323.686L53.3151 324.368L53.9972 325.607L54.6654 324.368L55.9043 323.686L54.6654 323.018L53.9972 321.779Z" fill="black"/>
<path d="M61.9454 317.729L61.2633 318.968L60.0244 319.65L61.2633 320.332L61.9454 321.571L62.6275 320.332L63.8665 319.65L62.6275 318.968L61.9454 317.729Z" fill="black"/>
<path d="M56.67 317.729L55.9879 318.968L54.749 319.65L55.9879 320.332L56.67 321.571L57.3382 320.332L58.5772 319.65L57.3382 318.968L56.67 317.729Z" fill="black"/>
<path d="M64.632 313.859L63.9499 315.098L62.7109 315.766L63.9499 316.448L64.632 317.687L65.3141 316.448L66.5391 315.766L65.3141 315.098L64.632 313.859Z" fill="black"/>
<path d="M59.3566 313.859L58.6745 315.098L57.4355 315.766L58.6745 316.448L59.3566 317.687L60.0248 316.448L61.2637 315.766L60.0248 315.098L59.3566 313.859Z" fill="black"/>
<path d="M53.9972 313.859L53.3151 315.098L52.0762 315.766L53.3151 316.448L53.9972 317.687L54.6654 316.448L55.9043 315.766L54.6654 315.098L53.9972 313.859Z" fill="black"/>
<path d="M61.9454 309.99L61.2633 311.215L60.0244 311.897L61.2633 312.579L61.9454 313.817L62.6275 312.579L63.8665 311.897L62.6275 311.215L61.9454 309.99Z" fill="black"/>
<path d="M56.67 309.99L55.9879 311.215L54.749 311.897L55.9879 312.579L56.67 313.817L57.3382 312.579L58.5772 311.897L57.3382 311.215L56.67 309.99Z" fill="black"/>
<path d="M64.632 306.106L63.9499 307.345L62.7109 308.027L63.9499 308.695L64.632 309.934L65.3141 308.695L66.5391 308.027L65.3141 307.345L64.632 306.106Z" fill="black"/>
<path d="M59.3566 306.106L58.6745 307.345L57.4355 308.027L58.6745 308.695L59.3566 309.934L60.0248 308.695L61.2637 308.027L60.0248 307.345L59.3566 306.106Z" fill="black"/>
<path d="M64.632 337.717L63.9499 338.956L62.7109 339.624L63.9499 340.306L64.632 341.545L65.3141 340.306L66.5391 339.624L65.3141 338.956L64.632 337.717Z" fill="black"/>
<path d="M59.3566 337.717L58.6745 338.956L57.4355 339.624L58.6745 340.306L59.3566 341.545L60.0248 340.306L61.2637 339.624L60.0248 338.956L59.3566 337.717Z" fill="black"/>
<path d="M53.9972 337.717L53.3151 338.956L52.0762 339.624L53.3151 340.306L53.9972 341.545L54.6654 340.306L55.9043 339.624L54.6654 338.956L53.9972 337.717Z" fill="black"/>
<path d="M67.3185 365.304L66.6364 366.543L65.3975 367.225L66.6364 367.893L67.3185 369.132L68.0006 367.893L69.2256 367.225L68.0006 366.543L67.3185 365.304Z" fill="black"/>
<path d="M62.0431 365.304L61.361 366.543L60.1221 367.225L61.361 367.893L62.0431 369.132L62.7113 367.893L63.9502 367.225L62.7113 366.543L62.0431 365.304Z" fill="black"/>
<path d="M56.6837 365.304L56.0016 366.543L54.7627 367.225L56.0016 367.893L56.6837 369.132L57.3519 367.893L58.5908 367.225L57.3519 366.543L56.6837 365.304Z" fill="black"/>
<path d="M64.632 361.435L63.9499 362.674L62.7109 363.342L63.9499 364.024L64.632 365.263L65.3141 364.024L66.5391 363.342L65.3141 362.674L64.632 361.435Z" fill="black"/>
<path d="M59.3566 361.435L58.6745 362.674L57.4355 363.342L58.6745 364.024L59.3566 365.263L60.0248 364.024L61.2637 363.342L60.0248 362.674L59.3566 361.435Z" fill="black"/>
<path d="M67.3185 357.551L66.6364 358.79L65.3975 359.472L66.6364 360.14L67.3185 361.379L68.0006 360.14L69.2256 359.472L68.0006 358.79L67.3185 357.551Z" fill="black"/>
<path d="M62.0431 357.551L61.361 358.79L60.1221 359.472L61.361 360.14L62.0431 361.379L62.7113 360.14L63.9502 359.472L62.7113 358.79L62.0431 357.551Z" fill="black"/>
<path d="M56.6837 357.551L56.0016 358.79L54.7627 359.472L56.0016 360.14L56.6837 361.379L57.3519 360.14L58.5908 359.472L57.3519 358.79L56.6837 357.551Z" fill="black"/>
<path d="M64.632 353.515L63.9499 354.754L62.7109 355.422L63.9499 356.104L64.632 357.343L65.3141 356.104L66.5391 355.422L65.3141 354.754L64.632 353.515Z" fill="black"/>
<path d="M59.3566 353.515L58.6745 354.754L57.4355 355.422L58.6745 356.104L59.3566 357.343L60.0248 356.104L61.2637 355.422L60.0248 354.754L59.3566 353.515Z" fill="black"/>
<path d="M67.3185 349.631L66.6364 350.87L65.3975 351.552L66.6364 352.234L67.3185 353.473L68.0006 352.234L69.2256 351.552L68.0006 350.87L67.3185 349.631Z" fill="black"/>
<path d="M62.0431 349.631L61.361 350.87L60.1221 351.552L61.361 352.234L62.0431 353.473L62.7113 352.234L63.9502 351.552L62.7113 350.87L62.0431 349.631Z" fill="black"/>
<path d="M56.6837 349.631L56.0016 350.87L54.7627 351.552L56.0016 352.234L56.6837 353.473L57.3519 352.234L58.5908 351.552L57.3519 350.87L56.6837 349.631Z" fill="black"/>
<path d="M64.632 345.762L63.9499 347.001L62.7109 347.683L63.9499 348.351L64.632 349.589L65.3141 348.351L66.5391 347.683L65.3141 347.001L64.632 345.762Z" fill="black"/>
<path d="M59.3566 345.762L58.6745 347.001L57.4355 347.683L58.6745 348.351L59.3566 349.589L60.0248 348.351L61.2637 347.683L60.0248 347.001L59.3566 345.762Z" fill="black"/>
<path d="M67.3185 341.893L66.6364 343.117L65.3975 343.799L66.6364 344.482L67.3185 345.72L68.0006 344.482L69.2256 343.799L68.0006 343.117L67.3185 341.893Z" fill="black"/>
<path d="M62.0431 341.893L61.361 343.117L60.1221 343.799L61.361 344.482L62.0431 345.72L62.7113 344.482L63.9502 343.799L62.7113 343.117L62.0431 341.893Z" fill="black"/>
<path d="M55.7929 341.893L55.1107 343.117L53.8857 343.799L55.1107 344.482L55.7929 345.72L56.475 344.482L57.7139 343.799L56.475 343.117L55.7929 341.893Z" fill="black"/>
<path d="M72.7479 365.082L72.0797 366.32L70.8408 367.002L72.0797 367.671L72.7479 368.909L73.43 367.671L74.6689 367.002L73.43 366.32L72.7479 365.082Z" fill="black"/>
<path d="M70.0751 361.212L69.4069 362.451L68.168 363.119L69.4069 363.801L70.0751 365.04L70.7572 363.801L71.9961 363.119L70.7572 362.451L70.0751 361.212Z" fill="black"/>
<path d="M72.7479 357.329L72.0797 358.568L70.8408 359.25L72.0797 359.918L72.7479 361.157L73.43 359.918L74.6689 359.25L73.43 358.568L72.7479 357.329Z" fill="black"/>
<path d="M70.0751 353.459L69.4069 354.698L68.168 355.366L69.4069 356.048L70.0751 357.287L70.7572 356.048L71.9961 355.366L70.7572 354.698L70.0751 353.459Z" fill="black"/>
<path d="M72.7479 349.423L72.0797 350.648L70.8408 351.33L72.0797 352.012L72.7479 353.251L73.43 352.012L74.6689 351.33L73.43 350.648L72.7479 349.423Z" fill="black"/>
<path d="M75.4344 345.54L74.7663 346.778L73.5273 347.46L74.7663 348.129L75.4344 349.367L76.1165 348.129L77.3555 347.46L76.1165 346.778L75.4344 345.54Z" fill="black"/>
<path d="M70.0751 345.54L69.4069 346.778L68.168 347.46L69.4069 348.129L70.0751 349.367L70.7572 348.129L71.9961 347.46L70.7572 346.778L70.0751 345.54Z" fill="black"/>
<path d="M72.7479 341.67L72.0797 342.909L70.8408 343.577L72.0797 344.259L72.7479 345.498L73.43 344.259L74.6689 343.577L73.43 342.909L72.7479 341.67Z" fill="black"/>
<path d="M75.4344 337.787L74.7663 339.025L73.5273 339.707L74.7663 340.376L75.4344 341.614L76.1165 340.376L77.3555 339.707L76.1165 339.025L75.4344 337.787Z" fill="black"/>
<path d="M97.6652 277.74L98.3473 276.501L99.5862 275.819L98.3473 275.151L97.6652 273.912L96.9831 275.151L95.7441 275.819L96.9831 276.501L97.6652 277.74Z" fill="black"/>
<path d="M89.6193 281.609L90.3014 280.385L91.5264 279.703L90.3014 279.021L89.6193 277.782L88.9372 279.021L87.6982 279.703L88.9372 280.385L89.6193 281.609Z" fill="black"/>
<path d="M94.9786 281.609L95.6607 280.385L96.8997 279.703L95.6607 279.021L94.9786 277.782L94.2965 279.021L93.0576 279.703L94.2965 280.385L94.9786 281.609Z" fill="black"/>
<path d="M101.104 281.609L101.786 280.385L103.011 279.703L101.786 279.021L101.104 277.782L100.422 279.021L99.1826 279.703L100.422 280.385L101.104 281.609Z" fill="black"/>
<path d="M98.4171 289.933L97.735 291.172L96.4961 291.854L97.735 292.536L98.4171 293.761L99.0992 292.536L100.338 291.854L99.0992 291.172L98.4171 289.933Z" fill="black"/>
<path d="M98.4171 282.027L97.735 283.266L96.4961 283.934L97.735 284.616L98.4171 285.855L99.0992 284.616L100.338 283.934L99.0992 283.266L98.4171 282.027Z" fill="black"/>
<path d="M92.2921 297.686L91.61 298.924L90.3711 299.606L91.61 300.274L92.2921 301.513L92.9742 300.274L94.2131 299.606L92.9742 298.924L92.2921 297.686Z" fill="black"/>
<path d="M87.0167 297.686L86.3346 298.924L85.0957 299.606L86.3346 300.274L87.0167 301.513L87.6988 300.274L88.9238 299.606L87.6988 298.924L87.0167 297.686Z" fill="black"/>
<path d="M94.9786 293.816L94.2965 295.055L93.0576 295.723L94.2965 296.405L94.9786 297.644L95.6607 296.405L96.8997 295.723L95.6607 295.055L94.9786 293.816Z" fill="black"/>
<path d="M89.7032 293.816L89.0211 295.055L87.7822 295.723L89.0211 296.405L89.7032 297.644L90.3714 296.405L91.6103 295.723L90.3714 295.055L89.7032 293.816Z" fill="black"/>
<path d="M84.3439 293.816L83.6618 295.055L82.4229 295.723L83.6618 296.405L84.3439 297.644L85.0121 296.405L86.251 295.723L85.0121 295.055L84.3439 293.816Z" fill="black"/>
<path d="M92.2921 289.933L91.61 291.172L90.3711 291.854L91.61 292.536L92.2921 293.761L92.9742 292.536L94.2131 291.854L92.9742 291.172L92.2921 289.933Z" fill="black"/>
<path d="M87.0167 289.933L86.3346 291.172L85.0957 291.854L86.3346 292.536L87.0167 293.761L87.6988 292.536L88.9238 291.854L87.6988 291.172L87.0167 289.933Z" fill="black"/>
<path d="M94.9786 286.063L94.2965 287.302L93.0576 287.97L94.2965 288.652L94.9786 289.891L95.6607 288.652L96.8997 287.97L95.6607 287.302L94.9786 286.063Z" fill="black"/>
<path d="M89.7032 286.063L89.0211 287.302L87.7822 287.97L89.0211 288.652L89.7032 289.891L90.3714 288.652L91.6103 287.97L90.3714 287.302L89.7032 286.063Z" fill="black"/>
<path d="M84.3439 286.063L83.6618 287.302L82.4229 287.97L83.6618 288.652L84.3439 289.891L85.0121 288.652L86.251 287.97L85.0121 287.302L84.3439 286.063Z" fill="black"/>
<path d="M92.2921 282.027L91.61 283.266L90.3711 283.934L91.61 284.616L92.2921 285.855L92.9742 284.616L94.2131 283.934L92.9742 283.266L92.2921 282.027Z" fill="black"/>
<path d="M87.0167 282.027L86.3346 283.266L85.0957 283.934L86.3346 284.616L87.0167 285.855L87.6988 284.616L88.9238 283.934L87.6988 283.266L87.0167 282.027Z" fill="black"/>
<path d="M87.0167 321.418L86.3346 322.657L85.0957 323.339L86.3346 324.021L87.0167 325.246L87.6988 324.021L88.9238 323.339L87.6988 322.657L87.0167 321.418Z" fill="black"/>
<path d="M89.7032 317.548L89.0211 318.787L87.7822 319.455L89.0211 320.137L89.7032 321.376L90.3714 320.137L91.6103 319.455L90.3714 318.787L89.7032 317.548Z" fill="black"/>
<path d="M84.3439 317.548L83.6618 318.787L82.4229 319.455L83.6618 320.137L84.3439 321.376L85.0121 320.137L86.251 319.455L85.0121 318.787L84.3439 317.548Z" fill="black"/>
<path d="M92.2921 313.512L91.61 314.737L90.3711 315.419L91.61 316.101L92.2921 317.339L92.9742 316.101L94.2131 315.419L92.9742 314.737L92.2921 313.512Z" fill="black"/>
<path d="M87.0167 313.512L86.3346 314.737L85.0957 315.419L86.3346 316.101L87.0167 317.339L87.6988 316.101L88.9238 315.419L87.6988 314.737L87.0167 313.512Z" fill="black"/>
<path d="M89.7032 309.628L89.0211 310.867L87.7822 311.549L89.0211 312.217L89.7032 313.456L90.3714 312.217L91.6103 311.549L90.3714 310.867L89.7032 309.628Z" fill="black"/>
<path d="M84.3439 309.628L83.6618 310.867L82.4229 311.549L83.6618 312.217L84.3439 313.456L85.0121 312.217L86.251 311.549L85.0121 310.867L84.3439 309.628Z" fill="black"/>
<path d="M92.2921 305.759L91.61 306.998L90.3711 307.666L91.61 308.348L92.2921 309.587L92.9742 308.348L94.2131 307.666L92.9742 306.998L92.2921 305.759Z" fill="black"/>
<path d="M87.0167 305.759L86.3346 306.998L85.0957 307.666L86.3346 308.348L87.0167 309.587L87.6988 308.348L88.9238 307.666L87.6988 306.998L87.0167 305.759Z" fill="black"/>
<path d="M94.9786 301.875L94.2965 303.114L93.0576 303.796L94.2965 304.464L94.9786 305.703L95.6607 304.464L96.8997 303.796L95.6607 303.114L94.9786 301.875Z" fill="black"/>
<path d="M89.7032 301.875L89.0211 303.114L87.7822 303.796L89.0211 304.464L89.7032 305.703L90.3714 304.464L91.6103 303.796L90.3714 303.114L89.7032 301.875Z" fill="black"/>
<path d="M84.3439 301.875L83.6618 303.114L82.4229 303.796L83.6618 304.464L84.3439 305.703L85.0121 304.464L86.251 303.796L85.0121 303.114L84.3439 301.875Z" fill="black"/>
<path d="M479.073 314.472H469.83C466.35 314.472 463.176 315.892 460.879 318.189C458.582 320.485 457.162 323.659 457.162 327.138C457.162 334.112 462.87 339.805 469.83 339.805H479.073C482.553 339.805 485.713 338.371 488.01 336.088C490.307 333.792 491.727 330.632 491.727 327.152C491.741 320.179 486.047 314.472 479.073 314.472ZM482.289 330.187C481.509 330.966 480.437 331.453 479.254 331.453H474.855C472.489 331.453 470.54 329.505 470.54 327.138C470.54 325.955 471.027 324.87 471.806 324.104C472.586 323.325 473.658 322.838 474.841 322.838H479.24C481.606 322.838 483.555 324.786 483.555 327.152C483.555 328.322 483.068 329.407 482.289 330.187Z" fill="#ED684A" stroke="black" stroke-width="3" stroke-miterlimit="10" stroke-linecap="round" stroke-linejoin="round"/>
<path d="M468.006 352.499H435.557C432.23 352.499 429.516 349.785 429.516 346.458V305.481C429.516 304.437 430.379 303.574 431.423 303.574H472.14C473.184 303.574 474.047 304.437 474.047 305.481V346.458C474.047 349.785 471.333 352.499 468.006 352.499Z" fill="#ED684A" stroke="black" stroke-width="3" stroke-miterlimit="10" stroke-linecap="round" stroke-linejoin="round"/>
<path d="M444.897 278.018H454.948C458.762 278.018 461.88 281.136 461.88 284.95C461.88 288.764 458.762 291.881 454.948 291.881C454.948 291.881 450.062 292.257 450.062 298.145" stroke="black" stroke-width="3" stroke-miterlimit="10" stroke-linecap="round" stroke-linejoin="round"/>
<path d="M451.69 278.018H445.51C440.679 278.018 436.712 274.065 436.712 269.222C436.712 264.392 440.665 260.425 445.51 260.425H459.876" stroke="black" stroke-width="3" stroke-miterlimit="10" stroke-linecap="round" stroke-linejoin="round"/>
<path d="M529.13 215.258C525.177 211.514 518.94 211.681 515.196 215.634C511.451 219.587 511.618 225.822 515.571 229.567C519.525 233.311 536.911 236.206 536.911 236.206C536.911 236.206 533.083 219.002 529.13 215.258Z" fill="#00D384" stroke="black" stroke-width="3" stroke-miterlimit="10" stroke-linecap="round" stroke-linejoin="round"/>
<path d="M521.348 222.287C521.348 222.287 520.666 218.696 515.195 215.634" stroke="black" stroke-width="3" stroke-miterlimit="10" stroke-linecap="round" stroke-linejoin="round"/>
<path d="M515.794 215.8C515.669 215.675 515.53 215.55 515.405 215.425C513.456 213.56 511.952 211.847 510.797 210.316" stroke="black" stroke-width="3" stroke-miterlimit="10" stroke-linecap="round" stroke-linejoin="round"/>
<path d="M519.441 197.594C516.629 199.64 516.017 203.579 518.077 206.391C520.137 209.202 524.063 209.815 526.875 207.755C529.687 205.709 533.515 195.103 533.515 195.103C533.515 195.103 522.253 195.534 519.441 197.594Z" fill="#00D384" stroke="black" stroke-width="3" stroke-miterlimit="10" stroke-linecap="round" stroke-linejoin="round"/>
<path d="M522.1 203.844C522.1 203.844 518.314 205.389 518.077 206.391" stroke="black" stroke-width="3" stroke-miterlimit="10" stroke-linecap="round" stroke-linejoin="round"/>
<path d="M518.341 205.834C518.188 205.945 518.049 206.043 517.91 206.154C515.724 207.727 514.499 208.52 512.787 209.369" stroke="black" stroke-width="3" stroke-miterlimit="10" stroke-linecap="round" stroke-linejoin="round"/>
<path d="M206.941 205.055L198.603 211.972L206.941 219.127" stroke="black" stroke-width="3" stroke-miterlimit="10" stroke-linecap="round" stroke-linejoin="round"/>
<path d="M180.492 186V290.392" stroke="black" stroke-width="3" stroke-miterlimit="10" stroke-linecap="round" stroke-linejoin="round"/>
<path d="M155.561 197.455H173.267" stroke="black" stroke-width="3" stroke-miterlimit="10" stroke-linecap="round" stroke-linejoin="round"/>
<path d="M155.561 203.287H173.267" stroke="black" stroke-width="3" stroke-miterlimit="10" stroke-linecap="round" stroke-linejoin="round"/>
<path d="M155.561 214.575H173.267" stroke="black" stroke-width="3" stroke-miterlimit="10" stroke-linecap="round" stroke-linejoin="round"/>
<path d="M202.778 242.622H211.59" stroke="black" stroke-width="3" stroke-miterlimit="10" stroke-linecap="round" stroke-linejoin="round"/>
<path d="M218.745 242.622H256.818" stroke="black" stroke-width="3" stroke-miterlimit="10" stroke-linecap="round" stroke-linejoin="round"/>
<path d="M202.778 262.512H211.59" stroke="black" stroke-width="3" stroke-miterlimit="10" stroke-linecap="round" stroke-linejoin="round"/>
<path d="M218.745 262.512H256.818" stroke="black" stroke-width="3" stroke-miterlimit="10" stroke-linecap="round" stroke-linejoin="round"/>
<path d="M202.778 252.018H230.188" stroke="black" stroke-width="3" stroke-miterlimit="10" stroke-linecap="round" stroke-linejoin="round"/>
<path d="M236.634 252.018H274.706" stroke="black" stroke-width="3" stroke-miterlimit="10" stroke-linecap="round" stroke-linejoin="round"/>
<path d="M202.778 274.427H230.188" stroke="black" stroke-width="3" stroke-miterlimit="10" stroke-linecap="round" stroke-linejoin="round"/>
<path d="M236.634 274.427H249.023" stroke="black" stroke-width="3" stroke-miterlimit="10" stroke-linecap="round" stroke-linejoin="round"/>
<path d="M160.962 227.422H167.866" stroke="black" stroke-width="3" stroke-miterlimit="10" stroke-linecap="round" stroke-linejoin="round"/>
<path d="M155.561 220.407H173.267" stroke="black" stroke-width="3" stroke-miterlimit="10" stroke-linecap="round" stroke-linejoin="round"/>
<path d="M155.561 242.218H173.267" stroke="black" stroke-width="3" stroke-miterlimit="10" stroke-linecap="round" stroke-linejoin="round"/>
<path d="M288.779 185.61V289.014" stroke="black" stroke-width="3" stroke-miterlimit="10" stroke-linecap="round" stroke-linejoin="round"/>
<path d="M312.18 217.665C317.031 217.665 320.964 213.733 320.964 208.883C320.964 204.032 317.031 200.1 312.18 200.1C307.329 200.1 303.396 204.032 303.396 208.883C303.396 213.733 307.329 217.665 312.18 217.665Z" fill="#FFDE16" stroke="black" stroke-width="3" stroke-miterlimit="10" stroke-linecap="round" stroke-linejoin="round"/>
<path d="M312.18 217.652C314.379 217.652 316.162 215.869 316.162 213.671C316.162 211.472 314.379 209.69 312.18 209.69C309.982 209.69 308.199 211.472 308.199 213.671C308.199 215.869 309.982 217.652 312.18 217.652Z" fill="black"/>
<path d="M312.18 210.497C313.487 210.497 314.546 209.438 314.546 208.131C314.546 206.824 313.487 205.765 312.18 205.765C310.873 205.765 309.813 206.824 309.813 208.131C309.813 209.438 310.873 210.497 312.18 210.497Z" fill="black"/>
<path d="M357.24 213.963H333.088C330.735 213.963 328.814 212.042 328.814 209.69C328.814 207.337 330.735 205.417 333.088 205.417H357.24C359.593 205.417 361.514 207.337 361.514 209.69C361.514 212.042 359.593 213.963 357.24 213.963Z" fill="black"/>
<path d="M312.18 247.591C317.031 247.591 320.964 243.659 320.964 238.808C320.964 233.958 317.031 230.025 312.18 230.025C307.329 230.025 303.396 233.958 303.396 238.808C303.396 243.659 307.329 247.591 312.18 247.591Z" fill="#FFDE16" stroke="black" stroke-width="3" stroke-miterlimit="10" stroke-linecap="round" stroke-linejoin="round"/>
<path d="M312.18 247.577C314.379 247.577 316.162 245.795 316.162 243.597C316.162 241.398 314.379 239.616 312.18 239.616C309.982 239.616 308.199 241.398 308.199 243.597C308.199 245.795 309.982 247.577 312.18 247.577Z" fill="black"/>
<path d="M312.18 240.409C313.487 240.409 314.546 239.35 314.546 238.043C314.546 236.736 313.487 235.677 312.18 235.677C310.873 235.677 309.813 236.736 309.813 238.043C309.813 239.35 310.873 240.409 312.18 240.409Z" fill="black"/>
<path d="M357.24 243.875H333.088C330.735 243.875 328.814 241.954 328.814 239.602C328.814 237.249 330.735 235.329 333.088 235.329H357.24C359.593 235.329 361.514 237.249 361.514 239.602C361.514 241.954 359.593 243.875 357.24 243.875Z" fill="black"/>
<path d="M312.18 276.181C317.031 276.181 320.964 272.249 320.964 267.398C320.964 262.547 317.031 258.615 312.18 258.615C307.329 258.615 303.396 262.547 303.396 267.398C303.396 272.249 307.329 276.181 312.18 276.181Z" fill="#FFDE16" stroke="black" stroke-width="3" stroke-miterlimit="10" stroke-linecap="round" stroke-linejoin="round"/>
<path d="M312.18 276.167C314.379 276.167 316.162 274.385 316.162 272.186C316.162 269.988 314.379 268.206 312.18 268.206C309.982 268.206 308.199 269.988 308.199 272.186C308.199 274.385 309.982 276.167 312.18 276.167Z" fill="black"/>
<path d="M312.18 269.013C313.487 269.013 314.546 267.953 314.546 266.647C314.546 265.34 313.487 264.28 312.18 264.28C310.873 264.28 309.813 265.34 309.813 266.647C309.813 267.953 310.873 269.013 312.18 269.013Z" fill="black"/>
<path d="M357.24 272.478H333.088C330.735 272.478 328.814 270.558 328.814 268.205C328.814 265.853 330.735 263.932 333.088 263.932H357.24C359.593 263.932 361.514 265.853 361.514 268.205C361.514 270.558 359.593 272.478 357.24 272.478Z" fill="black"/>
<path d="M498.769 60.5338C498.769 77.0974 491.879 92.0603 480.784 102.681C470.302 112.786 456.034 118.98 440.317 118.98C423.85 118.98 408.996 112.173 398.375 101.233C388.13 90.6963 381.852 76.3458 381.852 60.5338C381.852 28.2556 408.022 2.08789 440.304 2.08789C472.585 2.08789 498.769 28.2556 498.769 60.5338Z" stroke="black" stroke-width="3" stroke-miterlimit="10" stroke-linecap="round" stroke-linejoin="round"/>
<path d="M475.146 52.9898C475.174 52.5027 475.216 52.0155 475.216 51.5144C475.216 36.468 462.91 24.1636 447.862 24.1636H432.745C417.697 24.1636 405.391 36.468 405.391 51.5144C405.391 52.0155 405.433 52.4887 405.461 52.9898C398.152 57.9172 393.336 66.2546 393.336 75.6778C393.336 90.7242 405.642 103.029 420.69 103.029H459.917C474.966 103.029 487.271 90.7242 487.271 75.6778C487.271 66.2546 482.455 57.9032 475.146 52.9898Z" fill="#FFDE16" stroke="black" stroke-width="3" stroke-miterlimit="10" stroke-linecap="round" stroke-linejoin="round"/>
<path d="M451.37 49.2173C454.738 52.2655 456.854 56.7057 456.854 61.6052C456.854 70.7917 449.407 78.2662 440.219 78.2662C431.004 78.2662 423.557 70.7778 423.557 61.6052C423.557 58.0558 424.67 54.7431 426.577 52.0428" fill="white"/>
<path d="M451.37 49.2173C454.738 52.2655 456.854 56.7057 456.854 61.6052C456.854 70.7917 449.407 78.2662 440.219 78.2662C431.004 78.2662 423.557 70.7778 423.557 61.6052C423.557 58.0558 424.67 54.7431 426.577 52.0428" stroke="black" stroke-width="3" stroke-miterlimit="10" stroke-linecap="round" stroke-linejoin="round"/>
<path d="M420.327 50.2475C420.327 50.2475 439.12 58.6128 459.096 44.9443" stroke="black" stroke-width="3" stroke-miterlimit="10" stroke-linecap="round" stroke-linejoin="round"/>
<path d="M480.77 102.68C470.288 112.786 456.02 118.98 440.304 118.98C423.836 118.98 408.983 112.173 398.361 101.233C404.695 93.2156 416.11 85.2261 436.698 85.2261H443.157C443.185 85.2261 469.481 87.1051 480.77 102.68Z" fill="#ED684A" stroke="black" stroke-width="3" stroke-miterlimit="10" stroke-linecap="round" stroke-linejoin="round"/>
<path d="M397.121 203.691L397.72 202.591L398.82 201.993L397.72 201.38L397.121 200.281L396.509 201.38L395.409 201.993L396.509 202.591L397.121 203.691Z" fill="black"/>
<path d="M401.814 203.691L402.412 202.591L403.512 201.993L402.412 201.38L401.814 200.281L401.215 201.38L400.115 201.993L401.215 202.591L401.814 203.691Z" fill="black"/>
<path d="M394.728 207.143L395.326 206.043L396.426 205.431L395.326 204.832L394.728 203.732L394.129 204.832L393.029 205.431L394.129 206.043L394.728 207.143Z" fill="black"/>
<path d="M399.419 207.143L400.031 206.043L401.131 205.431L400.031 204.832L399.419 203.732L398.82 204.832L397.721 205.431L398.82 206.043L399.419 207.143Z" fill="black"/>
<path d="M404.194 207.143L404.792 206.043L405.892 205.431L404.792 204.832L404.194 203.732L403.595 204.832L402.481 205.431L403.595 206.043L404.194 207.143Z" fill="black"/>
<path d="M397.121 210.581L397.72 209.481L398.82 208.883L397.72 208.284L397.121 207.185L396.509 208.284L395.409 208.883L396.509 209.481L397.121 210.581Z" fill="black"/>
<path d="M401.814 210.581L402.412 209.481L403.512 208.883L402.412 208.284L401.814 207.185L401.215 208.284L400.115 208.883L401.215 209.481L401.814 210.581Z" fill="black"/>
<path d="M394.728 214.033L395.326 212.933L396.426 212.335L395.326 211.722L394.728 210.623L394.129 211.722L393.029 212.335L394.129 212.933L394.728 214.033Z" fill="black"/>
<path d="M399.419 214.033L400.031 212.933L401.131 212.335L400.031 211.722L399.419 210.623L398.82 211.722L397.721 212.335L398.82 212.933L399.419 214.033Z" fill="black"/>
<path d="M404.194 214.033L404.792 212.933L405.892 212.335L404.792 211.722L404.194 210.623L403.595 211.722L402.481 212.335L403.595 212.933L404.194 214.033Z" fill="black"/>
<path d="M397.121 217.624L397.72 216.524L398.82 215.926L397.72 215.327L397.121 214.228L396.509 215.327L395.409 215.926L396.509 216.524L397.121 217.624Z" fill="black"/>
<path d="M401.814 217.624L402.412 216.524L403.512 215.926L402.412 215.327L401.814 214.228L401.215 215.327L400.115 215.926L401.215 216.524L401.814 217.624Z" fill="black"/>
<path d="M394.728 221.076L395.326 219.976L396.426 219.378L395.326 218.765L394.728 217.666L394.129 218.765L393.029 219.378L394.129 219.976L394.728 221.076Z" fill="black"/>
<path d="M399.419 221.076L400.031 219.976L401.131 219.378L400.031 218.765L399.419 217.666L398.82 218.765L397.721 219.378L398.82 219.976L399.419 221.076Z" fill="black"/>
<path d="M404.194 221.076L404.792 219.976L405.892 219.378L404.792 218.765L404.194 217.666L403.595 218.765L402.481 219.378L403.595 219.976L404.194 221.076Z" fill="black"/>
<path d="M397.121 175.686L397.72 174.586L398.82 173.987L397.72 173.375L397.121 172.275L396.509 173.375L395.409 173.987L396.509 174.586L397.121 175.686Z" fill="black"/>
<path d="M401.814 175.686L402.412 174.586L403.512 173.987L402.412 173.375L401.814 172.275L401.215 173.375L400.115 173.987L401.215 174.586L401.814 175.686Z" fill="black"/>
<path d="M394.728 179.138L395.326 178.038L396.426 177.426L395.326 176.827L394.728 175.728L394.129 176.827L393.029 177.426L394.129 178.038L394.728 179.138Z" fill="black"/>
<path d="M399.419 179.138L400.031 178.038L401.131 177.426L400.031 176.827L399.419 175.728L398.82 176.827L397.721 177.426L398.82 178.038L399.419 179.138Z" fill="black"/>
<path d="M404.194 179.138L404.792 178.038L405.892 177.426L404.792 176.827L404.194 175.728L403.595 176.827L402.481 177.426L403.595 178.038L404.194 179.138Z" fill="black"/>
<path d="M397.121 182.575L397.72 181.476L398.82 180.877L397.72 180.279L397.121 179.179L396.509 180.279L395.409 180.877L396.509 181.476L397.121 182.575Z" fill="black"/>
<path d="M401.814 182.575L402.412 181.476L403.512 180.877L402.412 180.279L401.814 179.179L401.215 180.279L400.115 180.877L401.215 181.476L401.814 182.575Z" fill="black"/>
<path d="M394.728 186.027L395.326 184.928L396.426 184.329L395.326 183.717L394.728 182.617L394.129 183.717L393.029 184.329L394.129 184.928L394.728 186.027Z" fill="black"/>
<path d="M399.419 186.027L400.031 184.928L401.131 184.329L400.031 183.717L399.419 182.617L398.82 183.717L397.721 184.329L398.82 184.928L399.419 186.027Z" fill="black"/>
<path d="M404.194 186.027L404.792 184.928L405.892 184.329L404.792 183.717L404.194 182.617L403.595 183.717L402.481 184.329L403.595 184.928L404.194 186.027Z" fill="black"/>
<path d="M397.121 189.618L397.72 188.519L398.82 187.92L397.72 187.322L397.121 186.222L396.509 187.322L395.409 187.92L396.509 188.519L397.121 189.618Z" fill="black"/>
<path d="M401.814 189.618L402.412 188.519L403.512 187.92L402.412 187.322L401.814 186.222L401.215 187.322L400.115 187.92L401.215 188.519L401.814 189.618Z" fill="black"/>
<path d="M394.728 193.07L395.326 191.971L396.426 191.372L395.326 190.76L394.728 189.66L394.129 190.76L393.029 191.372L394.129 191.971L394.728 193.07Z" fill="black"/>
<path d="M399.419 193.07L400.031 191.971L401.131 191.372L400.031 190.76L399.419 189.66L398.82 190.76L397.721 191.372L398.82 191.971L399.419 193.07Z" fill="black"/>
<path d="M404.194 193.07L404.792 191.971L405.892 191.372L404.792 190.76L404.194 189.66L403.595 190.76L402.481 191.372L403.595 191.971L404.194 193.07Z" fill="black"/>
<path d="M397.121 196.522L397.72 195.409L398.82 194.81L397.72 194.212L397.121 193.112L396.509 194.212L395.409 194.81L396.509 195.409L397.121 196.522Z" fill="black"/>
<path d="M401.814 196.522L402.412 195.409L403.512 194.81L402.412 194.212L401.814 193.112L401.215 194.212L400.115 194.81L401.215 195.409L401.814 196.522Z" fill="black"/>
<path d="M394.728 199.96L395.326 198.861L396.426 198.262L395.326 197.664L394.728 196.564L394.129 197.664L393.029 198.262L394.129 198.861L394.728 199.96Z" fill="black"/>
<path d="M399.419 199.96L400.031 198.861L401.131 198.262L400.031 197.664L399.419 196.564L398.82 197.664L397.721 198.262L398.82 198.861L399.419 199.96Z" fill="black"/>
<path d="M404.194 199.96L404.792 198.861L405.892 198.262L404.792 197.664L404.194 196.564L403.595 197.664L402.481 198.262L403.595 198.861L404.194 199.96Z" fill="black"/>
<path d="M394.728 171.858L395.326 170.758L396.426 170.146L395.326 169.547L394.728 168.448L394.129 169.547L393.029 170.146L394.129 170.758L394.728 171.858Z" fill="black"/>
<path d="M399.419 171.858L400.031 170.758L401.131 170.146L400.031 169.547L399.419 168.448L398.82 169.547L397.721 170.146L398.82 170.758L399.419 171.858Z" fill="black"/>
<path d="M395.076 305.383L395.689 304.284L396.788 303.671L395.689 303.073L395.076 301.973L394.478 303.073L393.378 303.671L394.478 304.284L395.076 305.383Z" fill="black"/>
<path d="M399.782 305.383L400.38 304.284L401.48 303.671L400.38 303.073L399.782 301.973L399.169 303.073L398.069 303.671L399.169 304.284L399.782 305.383Z" fill="black"/>
<path d="M404.542 305.383L405.141 304.284L406.24 303.671L405.141 303.073L404.542 301.973L403.943 303.073L402.844 303.671L403.943 304.284L404.542 305.383Z" fill="black"/>
<path d="M392.696 308.822L393.294 307.722L394.394 307.123L393.294 306.525L392.696 305.425L392.083 306.525L390.983 307.123L392.083 307.722L392.696 308.822Z" fill="black"/>
<path d="M397.387 308.822L397.985 307.722L399.085 307.123L397.985 306.525L397.387 305.425L396.788 306.525L395.688 307.123L396.788 307.722L397.387 308.822Z" fill="black"/>
<path d="M402.148 308.822L402.76 307.722L403.86 307.123L402.76 306.525L402.148 305.425L401.549 306.525L400.449 307.123L401.549 307.722L402.148 308.822Z" fill="black"/>
<path d="M395.076 312.273L395.689 311.174L396.788 310.575L395.689 309.963L395.076 308.863L394.478 309.963L393.378 310.575L394.478 311.174L395.076 312.273Z" fill="black"/>
<path d="M399.782 312.273L400.38 311.174L401.48 310.575L400.38 309.963L399.782 308.863L399.169 309.963L398.069 310.575L399.169 311.174L399.782 312.273Z" fill="black"/>
<path d="M392.696 315.725L393.294 314.625L394.394 314.013L393.294 313.415L392.696 312.315L392.083 313.415L390.983 314.013L392.083 314.625L392.696 315.725Z" fill="black"/>
<path d="M397.387 315.725L397.985 314.625L399.085 314.013L397.985 313.415L397.387 312.315L396.788 313.415L395.688 314.013L396.788 314.625L397.387 315.725Z" fill="black"/>
<path d="M395.076 277.378L395.689 276.278L396.788 275.666L395.689 275.067L395.076 273.968L394.478 275.067L393.378 275.666L394.478 276.278L395.076 277.378Z" fill="black"/>
<path d="M399.782 277.378L400.38 276.278L401.48 275.666L400.38 275.067L399.782 273.968L399.169 275.067L398.069 275.666L399.169 276.278L399.782 277.378Z" fill="black"/>
<path d="M404.542 277.378L405.141 276.278L406.24 275.666L405.141 275.067L404.542 273.968L403.943 275.067L402.844 275.666L403.943 276.278L404.542 277.378Z" fill="black"/>
<path d="M397.387 280.816L397.985 279.717L399.085 279.118L397.985 278.52L397.387 277.42L396.788 278.52L395.688 279.118L396.788 279.717L397.387 280.816Z" fill="black"/>
<path d="M402.148 280.816L402.76 279.717L403.86 279.118L402.76 278.52L402.148 277.42L401.549 278.52L400.449 279.118L401.549 279.717L402.148 280.816Z" fill="black"/>
<path d="M395.076 284.268L395.689 283.168L396.788 282.57L395.689 281.958L395.076 280.858L394.478 281.958L393.378 282.57L394.478 283.168L395.076 284.268Z" fill="black"/>
<path d="M399.782 284.268L400.38 283.168L401.48 282.57L400.38 281.958L399.782 280.858L399.169 281.958L398.069 282.57L399.169 283.168L399.782 284.268Z" fill="black"/>
<path d="M404.542 284.268L405.141 283.168L406.24 282.57L405.141 281.958L404.542 280.858L403.943 281.958L402.844 282.57L403.943 283.168L404.542 284.268Z" fill="black"/>
<path d="M397.387 287.72L397.985 286.62L399.085 286.008L397.985 285.409L397.387 284.31L396.788 285.409L395.688 286.008L396.788 286.62L397.387 287.72Z" fill="black"/>
<path d="M402.148 287.72L402.76 286.62L403.86 286.008L402.76 285.409L402.148 284.31L401.549 285.409L400.449 286.008L401.549 286.62L402.148 287.72Z" fill="black"/>
<path d="M395.076 291.311L395.689 290.211L396.788 289.612L395.689 289L395.076 287.9L394.478 289L393.378 289.612L394.478 290.211L395.076 291.311Z" fill="black"/>
<path d="M399.782 291.311L400.38 290.211L401.48 289.612L400.38 289L399.782 287.9L399.169 289L398.069 289.612L399.169 290.211L399.782 291.311Z" fill="black"/>
<path d="M404.542 291.311L405.141 290.211L406.24 289.612L405.141 289L404.542 287.9L403.943 289L402.844 289.612L403.943 290.211L404.542 291.311Z" fill="black"/>
<path d="M397.387 294.763L397.985 293.663L399.085 293.051L397.985 292.452L397.387 291.353L396.788 292.452L395.688 293.051L396.788 293.663L397.387 294.763Z" fill="black"/>
<path d="M402.148 294.763L402.76 293.663L403.86 293.051L402.76 292.452L402.148 291.353L401.549 292.452L400.449 293.051L401.549 293.663L402.148 294.763Z" fill="black"/>
<path d="M395.076 298.201L395.689 297.101L396.788 296.503L395.689 295.904L395.076 294.805L394.478 295.904L393.378 296.503L394.478 297.101L395.076 298.201Z" fill="black"/>
<path d="M399.782 298.201L400.38 297.101L401.48 296.503L400.38 295.904L399.782 294.805L399.169 295.904L398.069 296.503L399.169 297.101L399.782 298.201Z" fill="black"/>
<path d="M404.542 298.201L405.141 297.101L406.24 296.503L405.141 295.904L404.542 294.805L403.943 295.904L402.844 296.503L403.943 297.101L404.542 298.201Z" fill="black"/>
<path d="M397.387 301.653L397.985 300.553L399.085 299.955L397.985 299.342L397.387 298.243L396.788 299.342L395.688 299.955L396.788 300.553L397.387 301.653Z" fill="black"/>
<path d="M402.148 301.653L402.76 300.553L403.86 299.955L402.76 299.342L402.148 298.243L401.549 299.342L400.449 299.955L401.549 300.553L402.148 301.653Z" fill="black"/>
<path d="M397.387 273.536L397.985 272.437L399.085 271.838L397.985 271.24L397.387 270.14L396.788 271.24L395.688 271.838L396.788 272.437L397.387 273.536Z" fill="black"/>
<path d="M402.148 273.536L402.76 272.437L403.86 271.838L402.76 271.24L402.148 270.14L401.549 271.24L400.449 271.838L401.549 272.437L402.148 273.536Z" fill="black"/>
<path d="M401.799 235.37L401.2 236.47L400.101 237.082L401.2 237.681L401.799 238.78L402.397 237.681L403.511 237.082L402.397 236.47L401.799 235.37Z" fill="black"/>
<path d="M397.107 235.37L396.509 236.47L395.409 237.082L396.509 237.681L397.107 238.78L397.706 237.681L398.806 237.082L397.706 236.47L397.107 235.37Z" fill="black"/>
<path d="M404.194 231.918L403.595 233.032L402.481 233.631L403.595 234.229L404.194 235.329L404.792 234.229L405.892 233.631L404.792 233.032L404.194 231.918Z" fill="black"/>
<path d="M399.502 231.918L398.89 233.032L397.79 233.631L398.89 234.229L399.502 235.329L400.101 234.229L401.201 233.631L400.101 233.032L399.502 231.918Z" fill="black"/>
<path d="M394.728 231.918L394.129 233.032L393.029 233.631L394.129 234.229L394.728 235.329L395.326 234.229L396.426 233.631L395.326 233.032L394.728 231.918Z" fill="black"/>
<path d="M401.799 228.48L401.2 229.58L400.101 230.179L401.2 230.777L401.799 231.891L402.397 230.777L403.511 230.179L402.397 229.58L401.799 228.48Z" fill="black"/>
<path d="M397.107 228.48L396.509 229.58L395.409 230.179L396.509 230.777L397.107 231.891L397.706 230.777L398.806 230.179L397.706 229.58L397.107 228.48Z" fill="black"/>
<path d="M404.194 225.029L403.595 226.128L402.481 226.727L403.595 227.339L404.194 228.439L404.792 227.339L405.892 226.727L404.792 226.128L404.194 225.029Z" fill="black"/>
<path d="M399.502 225.029L398.89 226.128L397.79 226.727L398.89 227.339L399.502 228.439L400.101 227.339L401.201 226.727L400.101 226.128L399.502 225.029Z" fill="black"/>
<path d="M394.728 225.029L394.129 226.128L393.029 226.727L394.129 227.339L394.728 228.439L395.326 227.339L396.426 226.727L395.326 226.128L394.728 225.029Z" fill="black"/>
<path d="M401.799 221.438L401.2 222.537L400.101 223.136L401.2 223.734L401.799 224.848L402.397 223.734L403.511 223.136L402.397 222.537L401.799 221.438Z" fill="black"/>
<path d="M397.107 221.438L396.509 222.537L395.409 223.136L396.509 223.734L397.107 224.848L397.706 223.734L398.806 223.136L397.706 222.537L397.107 221.438Z" fill="black"/>
<path d="M401.799 263.375L401.2 264.475L400.101 265.088L401.2 265.686L401.799 266.786L402.397 265.686L403.511 265.088L402.397 264.475L401.799 263.375Z" fill="black"/>
<path d="M397.107 263.375L396.509 264.475L395.409 265.088L396.509 265.686L397.107 266.786L397.706 265.686L398.806 265.088L397.706 264.475L397.107 263.375Z" fill="black"/>
<path d="M404.194 259.923L403.595 261.037L402.481 261.635L403.595 262.234L404.194 263.333L404.792 262.234L405.892 261.635L404.792 261.037L404.194 259.923Z" fill="black"/>
<path d="M399.502 259.923L398.89 261.037L397.79 261.635L398.89 262.234L399.502 263.333L400.101 262.234L401.201 261.635L400.101 261.037L399.502 259.923Z" fill="black"/>
<path d="M394.728 259.923L394.129 261.037L393.029 261.635L394.129 262.234L394.728 263.333L395.326 262.234L396.426 261.635L395.326 261.037L394.728 259.923Z" fill="black"/>
<path d="M401.799 256.485L401.2 257.585L400.101 258.183L401.2 258.782L401.799 259.896L402.397 258.782L403.511 258.183L402.397 257.585L401.799 256.485Z" fill="black"/>
<path d="M397.107 256.485L396.509 257.585L395.409 258.183L396.509 258.782L397.107 259.896L397.706 258.782L398.806 258.183L397.706 257.585L397.107 256.485Z" fill="black"/>
<path d="M404.194 253.033L403.595 254.133L402.481 254.731L403.595 255.344L404.194 256.443L404.792 255.344L405.892 254.731L404.792 254.133L404.194 253.033Z" fill="black"/>
<path d="M399.502 253.033L398.89 254.133L397.79 254.731L398.89 255.344L399.502 256.443L400.101 255.344L401.201 254.731L400.101 254.133L399.502 253.033Z" fill="black"/>
<path d="M394.728 253.033L394.129 254.133L393.029 254.731L394.129 255.344L394.728 256.443L395.326 255.344L396.426 254.731L395.326 254.133L394.728 253.033Z" fill="black"/>
<path d="M401.799 249.442L401.2 250.542L400.101 251.14L401.2 251.753L401.799 252.853L402.397 251.753L403.511 251.14L402.397 250.542L401.799 249.442Z" fill="black"/>
<path d="M397.107 249.442L396.509 250.542L395.409 251.14L396.509 251.753L397.107 252.853L397.706 251.753L398.806 251.14L397.706 250.542L397.107 249.442Z" fill="black"/>
<path d="M404.194 245.991L403.595 247.09L402.481 247.703L403.595 248.301L404.194 249.401L404.792 248.301L405.892 247.703L404.792 247.09L404.194 245.991Z" fill="black"/>
<path d="M399.502 245.991L398.89 247.09L397.79 247.703L398.89 248.301L399.502 249.401L400.101 248.301L401.201 247.703L400.101 247.09L399.502 245.991Z" fill="black"/>
<path d="M394.728 245.991L394.129 247.09L393.029 247.703L394.129 248.301L394.728 249.401L395.326 248.301L396.426 247.703L395.326 247.09L394.728 245.991Z" fill="black"/>
<path d="M401.799 242.552L401.2 243.652L400.101 244.25L401.2 244.849L401.799 245.948L402.397 244.849L403.511 244.25L402.397 243.652L401.799 242.552Z" fill="black"/>
<path d="M397.107 242.552L396.509 243.652L395.409 244.25L396.509 244.849L397.107 245.948L397.706 244.849L398.806 244.25L397.706 243.652L397.107 242.552Z" fill="black"/>
<path d="M404.194 239.101L403.595 240.2L402.481 240.799L403.595 241.397L404.194 242.511L404.792 241.397L405.892 240.799L404.792 240.2L404.194 239.101Z" fill="black"/>
<path d="M399.502 239.101L398.89 240.2L397.79 240.799L398.89 241.397L399.502 242.511L400.101 241.397L401.201 240.799L400.101 240.2L399.502 239.101Z" fill="black"/>
<path d="M394.728 239.101L394.129 240.2L393.029 240.799L394.129 241.397L394.728 242.511L395.326 241.397L396.426 240.799L395.326 240.2L394.728 239.101Z" fill="black"/>
<path d="M404.194 267.217L403.595 268.316L402.481 268.915L403.595 269.513L404.194 270.613L404.792 269.513L405.892 268.915L404.792 268.316L404.194 267.217Z" fill="black"/>
<path d="M399.502 267.217L398.89 268.316L397.79 268.915L398.89 269.513L399.502 270.613L400.101 269.513L401.201 268.915L400.101 268.316L399.502 267.217Z" fill="black"/>
<path d="M394.728 267.217L394.129 268.316L393.029 268.915L394.129 269.513L394.728 270.613L395.326 269.513L396.426 268.915L395.326 268.316L394.728 267.217Z" fill="black"/>
<path d="M302.046 319.873L302.658 318.773L303.758 318.174L302.658 317.576L302.046 316.462L301.447 317.576L300.348 318.174L301.447 318.773L302.046 319.873Z" fill="black"/>
<path d="M299.665 323.324L300.264 322.225L301.364 321.612L300.264 321.014L299.665 319.914L299.053 321.014L297.953 321.612L299.053 322.225L299.665 323.324Z" fill="black"/>
<path d="M304.356 323.324L304.955 322.225L306.055 321.612L304.955 321.014L304.356 319.914L303.758 321.014L302.658 321.612L303.758 322.225L304.356 323.324Z" fill="black"/>
<path d="M304.426 334.167L303.827 335.267L302.728 335.879L303.827 336.478L304.426 337.578L305.024 336.478L306.138 335.879L305.024 335.267L304.426 334.167Z" fill="black"/>
<path d="M299.665 334.167L299.053 335.267L297.953 335.879L299.053 336.478L299.665 337.578L300.264 336.478L301.364 335.879L300.264 335.267L299.665 334.167Z" fill="black"/>
<path d="M302.046 330.729L301.434 331.829L300.334 332.428L301.434 333.026L302.046 334.126L302.645 333.026L303.745 332.428L302.645 331.829L302.046 330.729Z" fill="black"/>
<path d="M304.426 327.278L303.827 328.377L302.728 328.976L303.827 329.588L304.426 330.688L305.024 329.588L306.138 328.976L305.024 328.377L304.426 327.278Z" fill="black"/>
<path d="M299.665 327.278L299.053 328.377L297.953 328.976L299.053 329.588L299.665 330.688L300.264 329.588L301.364 328.976L300.264 328.377L299.665 327.278Z" fill="black"/>
<path d="M302.046 323.687L301.434 324.786L300.334 325.385L301.434 325.983L302.046 327.083L302.645 325.983L303.745 325.385L302.645 324.786L302.046 323.687Z" fill="black"/>
<path d="M468.089 308.153L468.743 306.97L469.927 306.329L468.743 305.675L468.089 304.492L467.449 305.675L466.266 306.329L467.449 306.97L468.089 308.153Z" fill="black"/>
<path d="M465.528 311.856L466.168 310.672L467.351 310.032L466.168 309.378L465.528 308.195L464.873 309.378L463.704 310.032L464.873 310.672L465.528 311.856Z" fill="black"/>
<path d="M470.567 311.856L471.207 310.672L472.39 310.032L471.207 309.378L470.567 308.195L469.926 309.378L468.743 310.032L469.926 310.672L470.567 311.856Z" fill="black"/>
<path d="M470.65 323.505L469.996 324.689L468.812 325.329L469.996 325.983L470.65 327.166L471.29 325.983L472.474 325.329L471.29 324.689L470.65 323.505Z" fill="black"/>
<path d="M465.528 323.505L464.873 324.689L463.704 325.329L464.873 325.983L465.528 327.166L466.168 325.983L467.351 325.329L466.168 324.689L465.528 323.505Z" fill="black"/>
<path d="M468.076 319.803L467.435 320.986L466.252 321.641L467.435 322.281L468.076 323.464L468.73 322.281L469.913 321.641L468.73 320.986L468.076 319.803Z" fill="black"/>
<path d="M470.65 316.101L469.996 317.284L468.812 317.938L469.996 318.578L470.65 319.761L471.29 318.578L472.474 317.938L471.29 317.284L470.65 316.101Z" fill="black"/>
<path d="M465.528 316.101L464.873 317.284L463.704 317.938L464.873 318.578L465.528 319.761L466.168 318.578L467.351 317.938L466.168 317.284L465.528 316.101Z" fill="black"/>
<path d="M468.076 312.245L467.435 313.428L466.252 314.068L467.435 314.723L468.076 315.906L468.73 314.723L469.913 314.068L468.73 313.428L468.076 312.245Z" fill="black"/>
<path d="M468.089 331.091L468.743 329.908L469.927 329.254L468.743 328.614L468.089 327.431L467.449 328.614L466.266 329.254L467.449 329.908L468.089 331.091Z" fill="black"/>
<path d="M465.528 334.794L466.168 333.611L467.351 332.957L466.168 332.316L465.528 331.133L464.873 332.316L463.704 332.957L464.873 333.611L465.528 334.794Z" fill="black"/>
<path d="M470.567 334.794L471.207 333.611L472.39 332.957L471.207 332.316L470.567 331.133L469.926 332.316L468.743 332.957L469.926 333.611L470.567 334.794Z" fill="black"/>
<path d="M470.65 346.43L469.996 347.613L468.812 348.267L469.996 348.908L470.65 350.091L471.29 348.908L472.474 348.267L471.29 347.613L470.65 346.43Z" fill="black"/>
<path d="M465.528 346.43L464.873 347.613L463.704 348.267L464.873 348.908L465.528 350.091L466.168 348.908L467.351 348.267L466.168 347.613L465.528 346.43Z" fill="black"/>
<path d="M468.076 342.742L467.435 343.925L466.252 344.565L467.435 345.205L468.076 346.388L468.73 345.205L469.913 344.565L468.73 343.925L468.076 342.742Z" fill="black"/>
<path d="M470.65 339.04L469.996 340.223L468.812 340.863L469.996 341.503L470.65 342.686L471.29 341.503L472.474 340.863L471.29 340.223L470.65 339.04Z" fill="black"/>
<path d="M465.528 339.04L464.873 340.223L463.704 340.863L464.873 341.503L465.528 342.686L466.168 341.503L467.351 340.863L466.168 340.223L465.528 339.04Z" fill="black"/>
<path d="M468.076 335.17L467.435 336.353L466.252 337.007L467.435 337.648L468.076 338.831L468.73 337.648L469.913 337.007L468.73 336.353L468.076 335.17Z" fill="black"/>
<path d="M342.29 348.198L341.692 349.298L340.592 349.896L341.692 350.495L342.29 351.608L342.903 350.495L344.002 349.896L342.903 349.298L342.29 348.198Z" fill="black"/>
<path d="M337.53 348.198L336.917 349.298L335.817 349.896L336.917 350.495L337.53 351.608L338.128 350.495L339.228 349.896L338.128 349.298L337.53 348.198Z" fill="black"/>
<path d="M339.909 344.746L339.297 345.846L338.197 346.458L339.297 347.057L339.909 348.156L340.508 347.057L341.608 346.458L340.508 345.846L339.909 344.746Z" fill="black"/>
<path d="M342.29 341.294L341.692 342.408L340.592 343.006L341.692 343.605L342.29 344.705L342.903 343.605L344.002 343.006L342.903 342.408L342.29 341.294Z" fill="black"/>
<path d="M337.53 341.294L336.917 342.408L335.817 343.006L336.917 343.605L337.53 344.705L338.128 343.605L339.228 343.006L338.128 342.408L337.53 341.294Z" fill="black"/>
<path d="M339.909 337.703L339.297 338.803L338.197 339.415L339.297 340.014L339.909 341.113L340.508 340.014L341.608 339.415L340.508 338.803L339.909 337.703Z" fill="black"/>
<path d="M399.168 390.191L398.569 391.291L397.47 391.903L398.569 392.502L399.168 393.602L399.781 392.502L400.88 391.903L399.781 391.291L399.168 390.191Z" fill="black"/>
<path d="M394.408 390.191L393.795 391.291L392.695 391.903L393.795 392.502L394.408 393.602L395.006 392.502L396.106 391.903L395.006 391.291L394.408 390.191Z" fill="black"/>
<path d="M396.788 386.753L396.176 387.853L395.076 388.452L396.176 389.05L396.788 390.15L397.387 389.05L398.487 388.452L397.387 387.853L396.788 386.753Z" fill="black"/>
<path d="M399.168 383.302L398.569 384.401L397.47 385L398.569 385.612L399.168 386.712L399.781 385.612L400.88 385L399.781 384.401L399.168 383.302Z" fill="black"/>
<path d="M394.408 383.302L393.795 384.401L392.695 385L393.795 385.612L394.408 386.712L395.006 385.612L396.106 385L395.006 384.401L394.408 383.302Z" fill="black"/>
<path d="M396.788 379.71L396.176 380.81L395.076 381.409L396.176 382.007L396.788 383.107L397.387 382.007L398.487 381.409L397.387 380.81L396.788 379.71Z" fill="black"/>
<path d="M476.442 391.083L475.829 392.182L474.729 392.781L475.829 393.379L476.442 394.479L477.04 393.379L478.14 392.781L477.04 392.182L476.442 391.083Z" fill="black"/>
<path d="M471.667 391.083L471.068 392.182L469.969 392.781L471.068 393.379L471.667 394.479L472.266 393.379L473.379 392.781L472.266 392.182L471.667 391.083Z" fill="black"/>
<path d="M474.048 387.63L473.449 388.73L472.35 389.328L473.449 389.941L474.048 391.041L474.646 389.941L475.746 389.328L474.646 388.73L474.048 387.63Z" fill="black"/>
<path d="M476.442 384.179L475.829 385.278L474.729 385.891L475.829 386.489L476.442 387.589L477.04 386.489L478.14 385.891L477.04 385.278L476.442 384.179Z" fill="black"/>
<path d="M471.667 384.179L471.068 385.278L469.969 385.891L471.068 386.489L471.667 387.589L472.266 386.489L473.379 385.891L472.266 385.278L471.667 384.179Z" fill="black"/>
<path d="M474.048 380.587L473.449 381.687L472.35 382.286L473.449 382.898L474.048 383.998L474.646 382.898L475.746 382.286L474.646 381.687L474.048 380.587Z" fill="black"/>
<path d="M468.465 387.895L467.866 388.995L466.767 389.593L467.866 390.192L468.465 391.291L469.063 390.192L470.163 389.593L469.063 388.995L468.465 387.895Z" fill="black"/>
<path d="M463.704 387.895L463.092 388.995L461.992 389.593L463.092 390.192L463.704 391.291L464.303 390.192L465.403 389.593L464.303 388.995L463.704 387.895Z" fill="black"/>
<path d="M466.071 384.443L465.473 385.542L464.373 386.141L465.473 386.753L466.071 387.853L466.684 386.753L467.784 386.141L466.684 385.542L466.071 384.443Z" fill="black"/>
<path d="M468.465 380.991L467.866 382.091L466.767 382.703L467.866 383.302L468.465 384.401L469.063 383.302L470.163 382.703L469.063 382.091L468.465 380.991Z" fill="black"/>
<path d="M463.704 380.991L463.092 382.091L461.992 382.703L463.092 383.302L463.704 384.401L464.303 383.302L465.403 382.703L464.303 382.091L463.704 380.991Z" fill="black"/>
<path d="M466.071 377.4L465.473 378.499L464.373 379.098L465.473 379.71L466.071 380.81L466.684 379.71L467.784 379.098L466.684 378.499L466.071 377.4Z" fill="black"/>
<path d="M306.431 63.2759C306.431 73.8961 302.812 83.6951 296.715 91.448C295.378 93.16 293.903 94.7886 292.344 96.2918C284.13 104.198 272.952 109.069 260.647 109.069C247.742 109.069 236.133 103.725 227.822 95.1365C226.263 93.5498 224.857 91.8517 223.549 90.084C218.078 82.5538 214.862 73.3116 214.862 63.2899C214.862 37.999 235.381 17.5103 260.647 17.5103C285.912 17.4963 306.431 37.9712 306.431 63.2759Z" stroke="black" stroke-width="3" stroke-miterlimit="10" stroke-linecap="round" stroke-linejoin="round"/>
<path d="M277.017 53.1707C277.017 57.764 275.11 61.9258 272.019 64.8627C269.11 67.6604 265.157 69.3864 260.786 69.3864C256.22 69.3864 252.099 67.4934 249.148 64.459C246.308 61.536 244.568 57.5552 244.568 53.1707C244.568 44.2069 251.835 36.9551 260.786 36.9551C269.737 36.9551 277.017 44.2208 277.017 53.1707Z" fill="black" stroke="black" stroke-width="3" stroke-miterlimit="10" stroke-linecap="round" stroke-linejoin="round"/>
<path d="M271.643 43.2466C274.957 46.2392 277.017 50.5819 277.017 55.384C277.017 64.3895 269.709 71.7249 260.702 71.7249C251.668 71.7249 244.359 64.3895 244.359 55.384C244.359 51.9042 245.459 48.6472 247.324 46.0025" fill="white"/>
<path d="M271.643 43.2466C274.957 46.2392 277.017 50.5819 277.017 55.384C277.017 64.3895 269.709 71.7249 260.702 71.7249C251.668 71.7249 244.359 64.3895 244.359 55.384C244.359 51.9042 245.459 48.6472 247.324 46.0025" stroke="black" stroke-width="3" stroke-miterlimit="10" stroke-linecap="round" stroke-linejoin="round"/>
<path d="M248.703 44.36C248.703 44.36 259.784 47.2969 271.574 42.5088" stroke="black" stroke-width="3" stroke-miterlimit="10" stroke-linecap="round" stroke-linejoin="round"/>
<path d="M296.728 91.4339C295.392 93.146 293.916 94.7745 292.357 96.2777C284.144 104.184 272.966 109.055 260.66 109.055C247.756 109.055 236.147 103.71 227.836 95.1224C226.277 93.5357 224.871 91.8376 223.562 90.0699C230.216 83.8202 240.712 78.5449 257.292 78.5449H263.626C263.626 78.5449 284.451 80.0343 296.728 91.4339Z" fill="#25AAE1" stroke="black" stroke-width="3" stroke-miterlimit="10" stroke-linecap="round" stroke-linejoin="round"/>
<path d="M216.282 100.607C216.282 100.607 217.646 97.0294 217.521 88.5527" stroke="black" stroke-width="3" stroke-miterlimit="10" stroke-linecap="round" stroke-linejoin="round"/>
<path d="M216.811 97.0851C216.811 97.0851 227.32 91.7124 218.217 77.0835C218.203 77.0835 207.901 83.8064 216.811 97.0851Z" fill="#00D384" stroke="black" stroke-width="3" stroke-miterlimit="10" stroke-linecap="round" stroke-linejoin="round"/>
<path d="M203.531 78.5591C208.25 82.3868 208.96 89.3184 205.132 94.037C201.304 98.7555 194.371 99.4654 189.652 95.6377C184.933 91.81 179.212 72.9775 179.212 72.9775C179.212 72.9775 198.812 74.7313 203.531 78.5591Z" fill="#00D384" stroke="black" stroke-width="3" stroke-miterlimit="10" stroke-linecap="round" stroke-linejoin="round"/>
<path d="M192.27 84.9199C192.27 84.9199 201.944 86.7851 205.132 94.023" stroke="black" stroke-width="3" stroke-miterlimit="10" stroke-linecap="round" stroke-linejoin="round"/>
<path d="M236.606 103.85C236.606 103.85 221.753 109.195 204.867 93.3965" stroke="black" stroke-width="3" stroke-miterlimit="10" stroke-linecap="round" stroke-linejoin="round"/>
<path d="M260.744 168.448V109.042" stroke="black" stroke-width="3" stroke-miterlimit="10" stroke-linecap="round" stroke-linejoin="round"/>
</svg>
