<svg width="587" height="430" viewBox="0 0 587 430" fill="none" xmlns="http://www.w3.org/2000/svg">
<g clip-path="url(#clip0energeautonomy)">
<path d="M525.797 92.6857V102.256H0.77832V92.6805C0.77832 83.769 8.0037 76.5391 16.916 76.5391H509.649C518.566 76.5391 525.797 83.769 525.797 92.6857Z" fill="#00D384" stroke="black" stroke-width="3" stroke-miterlimit="10" stroke-linecap="round" stroke-linejoin="round"/>
<path d="M525.797 92.6857V403.426C525.797 411.917 518.909 418.799 510.417 418.799H16.153C7.66112 418.799 0.77832 411.917 0.77832 403.426V92.6805C0.77832 83.769 8.0037 76.5391 16.916 76.5391H509.649C518.566 76.5391 525.797 83.769 525.797 92.6857Z" stroke="black" stroke-width="3" stroke-miterlimit="10"/>
<path d="M536.287 103.108V413.843C536.287 422.334 529.404 429.221 520.907 429.221H26.6483C19.6721 429.221 13.7755 424.571 11.8965 418.197C13.2461 418.587 14.6735 418.794 16.1528 418.794H510.417C518.909 418.794 525.797 411.912 525.797 403.416V92.6807C525.797 90.9472 525.521 89.2759 525.018 87.7085C531.548 89.7794 536.287 95.8934 536.287 103.108Z" fill="black" stroke="black" stroke-width="3" stroke-miterlimit="10"/>
<path d="M42.9366 93.6356C45.2472 93.6356 47.1203 91.7627 47.1203 89.4523C47.1203 87.142 45.2472 85.269 42.9366 85.269C40.626 85.269 38.7529 87.142 38.7529 89.4523C38.7529 91.7627 40.626 93.6356 42.9366 93.6356Z" stroke="black" stroke-width="3" stroke-miterlimit="10"/>
<path d="M58.7315 93.6356C61.0421 93.6356 62.9152 91.7627 62.9152 89.4523C62.9152 87.142 61.0421 85.269 58.7315 85.269C56.4209 85.269 54.5479 87.142 54.5479 89.4523C54.5479 91.7627 56.4209 93.6356 58.7315 93.6356Z" stroke="black" stroke-width="3" stroke-miterlimit="10"/>
<path d="M26.8145 93.6356C29.1251 93.6356 30.9982 91.7627 30.9982 89.4523C30.9982 87.142 29.1251 85.269 26.8145 85.269C24.504 85.269 22.6309 87.142 22.6309 89.4523C22.6309 91.7627 24.504 93.6356 26.8145 93.6356Z" stroke="black" stroke-width="3" stroke-miterlimit="10"/>
<path d="M527.655 102.256H0.77832" stroke="black" stroke-width="3" stroke-miterlimit="10"/>
<path d="M523.721 411.035L524.136 411.792L524.894 412.208L524.136 412.623L523.721 413.381L523.306 412.623L522.548 412.208L523.306 411.792L523.721 411.035Z" fill="black"/>
<path d="M578.378 7.84717H481.92C477.586 7.84717 474.077 11.3609 474.077 15.6895V123.084C474.077 127.418 477.591 130.927 481.92 130.927H578.378C582.712 130.927 586.221 127.413 586.221 123.084V15.6895C586.221 11.3557 582.712 7.84717 578.378 7.84717Z" fill="black" stroke="black" stroke-width="3" stroke-miterlimit="10"/>
<path d="M574.469 123.863H471.305C468.824 123.863 466.815 121.854 466.815 119.374V5.26781C466.815 2.78691 468.824 0.77832 471.305 0.77832H574.475C576.956 0.77832 578.965 2.78691 578.965 5.26781V119.374C578.959 121.849 576.951 123.863 574.469 123.863Z" fill="white" stroke="black" stroke-width="3" stroke-miterlimit="10"/>
<path d="M568.22 23.2827H477.555V112.362H568.22V23.2827Z" fill="#25AAE1" stroke="black" stroke-width="3" stroke-miterlimit="10" stroke-linecap="round" stroke-linejoin="round"/>
<path d="M533.744 107.462L534.543 106.009L535.997 105.21L534.543 104.416L533.744 102.962L532.95 104.416L531.491 105.21L532.95 106.009L533.744 107.462Z" fill="black"/>
<path d="M539.952 107.462L540.751 106.009L542.205 105.21L540.751 104.416L539.952 102.962L539.158 104.416L537.699 105.21L539.158 106.009L539.952 107.462Z" fill="black"/>
<path d="M546.259 107.462L547.053 106.009L548.511 105.21L547.053 104.416L546.259 102.962L545.464 104.416L544.006 105.21L545.464 106.009L546.259 107.462Z" fill="black"/>
<path d="M530.588 112.025L531.382 110.566L532.835 109.772L531.382 108.978L530.588 107.52L529.788 108.978L528.335 109.772L529.788 110.566L530.588 112.025Z" fill="black"/>
<path d="M536.796 112.025L537.59 110.566L539.043 109.772L537.59 108.978L536.796 107.52L535.996 108.978L534.543 109.772L535.996 110.566L536.796 112.025Z" fill="black"/>
<path d="M543.098 112.025L543.897 110.566L545.35 109.772L543.897 108.978L543.098 107.52L542.303 108.978L540.845 109.772L542.303 110.566L543.098 112.025Z" fill="black"/>
<path d="M533.744 70.2902L534.543 68.8318L535.997 68.0377L534.543 67.2436L533.744 65.7852L532.95 67.2436L531.491 68.0377L532.95 68.8318L533.744 70.2902Z" fill="black"/>
<path d="M539.952 70.2902L540.751 68.8318L542.205 68.0377L540.751 67.2436L539.952 65.7852L539.158 67.2436L537.699 68.0377L539.158 68.8318L539.952 70.2902Z" fill="black"/>
<path d="M546.259 70.2902L547.053 68.8318L548.511 68.0377L547.053 67.2436L546.259 65.7852L545.464 67.2436L544.006 68.0377L545.464 68.8318L546.259 70.2902Z" fill="black"/>
<path d="M530.588 74.847L531.382 73.3938L532.835 72.5997L531.382 71.8004L530.588 70.3472L529.788 71.8004L528.335 72.5997L529.788 73.3938L530.588 74.847Z" fill="black"/>
<path d="M536.796 74.847L537.59 73.3938L539.043 72.5997L537.59 71.8004L536.796 70.3472L535.996 71.8004L534.543 72.5997L535.996 73.3938L536.796 74.847Z" fill="black"/>
<path d="M543.098 74.847L543.897 73.3938L545.35 72.5997L543.897 71.8004L543.098 70.3472L542.303 71.8004L540.845 72.5997L542.303 73.3938L543.098 74.847Z" fill="black"/>
<path d="M533.744 79.4093L534.543 77.9509L535.997 77.1568L534.543 76.3575L533.744 74.9043L532.95 76.3575L531.491 77.1568L532.95 77.9509L533.744 79.4093Z" fill="black"/>
<path d="M539.952 79.4093L540.751 77.9509L542.205 77.1568L540.751 76.3575L539.952 74.9043L539.158 76.3575L537.699 77.1568L539.158 77.9509L539.952 79.4093Z" fill="black"/>
<path d="M546.259 79.4093L547.053 77.9509L548.511 77.1568L547.053 76.3575L546.259 74.9043L545.464 76.3575L544.006 77.1568L545.464 77.9509L546.259 79.4093Z" fill="black"/>
<path d="M530.588 83.9665L531.382 82.5132L532.835 81.714L531.382 80.9199L530.588 79.4614L529.788 80.9199L528.335 81.714L529.788 82.5132L530.588 83.9665Z" fill="black"/>
<path d="M536.796 83.9665L537.59 82.5132L539.043 81.714L537.59 80.9199L536.796 79.4614L535.996 80.9199L534.543 81.714L535.996 82.5132L536.796 83.9665Z" fill="black"/>
<path d="M543.098 83.9665L543.897 82.5132L545.35 81.714L543.897 80.9199L543.098 79.4614L542.303 80.9199L540.845 81.714L542.303 82.5132L543.098 83.9665Z" fill="black"/>
<path d="M533.744 88.7204L534.543 87.262L535.997 86.4679L534.543 85.6686L533.744 84.2153L532.95 85.6686L531.491 86.4679L532.95 87.262L533.744 88.7204Z" fill="black"/>
<path d="M539.952 88.7204L540.751 87.262L542.205 86.4679L540.751 85.6686L539.952 84.2153L539.158 85.6686L537.699 86.4679L539.158 87.262L539.952 88.7204Z" fill="black"/>
<path d="M546.259 88.7204L547.053 87.262L548.511 86.4679L547.053 85.6686L546.259 84.2153L545.464 85.6686L544.006 86.4679L545.464 87.262L546.259 88.7204Z" fill="black"/>
<path d="M530.588 93.2775L531.382 91.8243L532.835 91.025L531.382 90.2309L530.588 88.7725L529.788 90.2309L528.335 91.025L529.788 91.8243L530.588 93.2775Z" fill="black"/>
<path d="M536.796 93.2775L537.59 91.8243L539.043 91.025L537.59 90.2309L536.796 88.7725L535.996 90.2309L534.543 91.025L535.996 91.8243L536.796 93.2775Z" fill="black"/>
<path d="M543.098 93.2775L543.897 91.8243L545.35 91.025L543.897 90.2309L543.098 88.7725L542.303 90.2309L540.845 91.025L542.303 91.8243L543.098 93.2775Z" fill="black"/>
<path d="M533.744 97.8344L534.543 96.3811L535.997 95.587L534.543 94.7877L533.744 93.3345L532.95 94.7877L531.491 95.587L532.95 96.3811L533.744 97.8344Z" fill="black"/>
<path d="M539.952 97.8344L540.751 96.3811L542.205 95.587L540.751 94.7877L539.952 93.3345L539.158 94.7877L537.699 95.587L539.158 96.3811L539.952 97.8344Z" fill="black"/>
<path d="M546.259 97.8344L547.053 96.3811L548.511 95.587L547.053 94.7877L546.259 93.3345L545.464 94.7877L544.006 95.587L545.464 96.3811L546.259 97.8344Z" fill="black"/>
<path d="M530.588 102.397L531.382 100.938L532.835 100.144L531.382 99.35L530.588 97.8916L529.788 99.35L528.335 100.144L529.788 100.938L530.588 102.397Z" fill="black"/>
<path d="M536.796 102.397L537.59 100.938L539.043 100.144L537.59 99.35L536.796 97.8916L535.996 99.35L534.543 100.144L535.996 100.938L536.796 102.397Z" fill="black"/>
<path d="M543.098 102.397L543.897 100.938L545.35 100.144L543.897 99.35L543.098 97.8916L542.303 99.35L540.845 100.144L542.303 100.938L543.098 102.397Z" fill="black"/>
<path d="M533.744 33.2585L534.543 31.8L535.997 31.006L534.543 30.2067L533.744 28.7534L532.95 30.2067L531.491 31.006L532.95 31.8L533.744 33.2585Z" fill="black"/>
<path d="M539.952 33.2585L540.751 31.8L542.205 31.006L540.751 30.2067L539.952 28.7534L539.158 30.2067L537.699 31.006L539.158 31.8L539.952 33.2585Z" fill="black"/>
<path d="M546.259 33.2585L547.053 31.8L548.511 31.006L547.053 30.2067L546.259 28.7534L545.464 30.2067L544.006 31.006L545.464 31.8L546.259 33.2585Z" fill="black"/>
<path d="M530.588 37.8156L531.382 36.3624L532.835 35.5631L531.382 34.769L530.588 33.3105L529.788 34.769L528.335 35.5631L529.788 36.3624L530.588 37.8156Z" fill="black"/>
<path d="M536.796 37.8156L537.59 36.3624L539.043 35.5631L537.59 34.769L536.796 33.3105L535.996 34.769L534.543 35.5631L535.996 36.3624L536.796 37.8156Z" fill="black"/>
<path d="M543.098 37.8156L543.897 36.3624L545.35 35.5631L543.897 34.769L543.098 33.3105L542.303 34.769L540.845 35.5631L542.303 36.3624L543.098 37.8156Z" fill="black"/>
<path d="M533.744 42.3724L534.543 40.9192L535.997 40.1199L534.543 39.3258L533.744 37.8726L532.95 39.3258L531.491 40.1199L532.95 40.9192L533.744 42.3724Z" fill="black"/>
<path d="M539.952 42.3724L540.751 40.9192L542.205 40.1199L540.751 39.3258L539.952 37.8726L539.158 39.3258L537.699 40.1199L539.158 40.9192L539.952 42.3724Z" fill="black"/>
<path d="M546.259 42.3724L547.053 40.9192L548.511 40.1199L547.053 39.3258L546.259 37.8726L545.464 39.3258L544.006 40.1199L545.464 40.9192L546.259 42.3724Z" fill="black"/>
<path d="M530.588 46.9347L531.382 45.4763L532.835 44.6822L531.382 43.8881L530.588 42.4297L529.788 43.8881L528.335 44.6822L529.788 45.4763L530.588 46.9347Z" fill="black"/>
<path d="M536.796 46.9347L537.59 45.4763L539.043 44.6822L537.59 43.8881L536.796 42.4297L535.996 43.8881L534.543 44.6822L535.996 45.4763L536.796 46.9347Z" fill="black"/>
<path d="M543.098 46.9347L543.897 45.4763L545.35 44.6822L543.897 43.8881L543.098 42.4297L542.303 43.8881L540.845 44.6822L542.303 45.4763L543.098 46.9347Z" fill="black"/>
<path d="M533.744 51.6887L534.543 50.2302L535.997 49.4361L534.543 48.6368L533.744 47.1836L532.95 48.6368L531.491 49.4361L532.95 50.2302L533.744 51.6887Z" fill="black"/>
<path d="M539.952 51.6887L540.751 50.2302L542.205 49.4361L540.751 48.6368L539.952 47.1836L539.158 48.6368L537.699 49.4361L539.158 50.2302L539.952 51.6887Z" fill="black"/>
<path d="M546.259 51.6887L547.053 50.2302L548.511 49.4361L547.053 48.6368L546.259 47.1836L545.464 48.6368L544.006 49.4361L545.464 50.2302L546.259 51.6887Z" fill="black"/>
<path d="M530.588 56.2458L531.382 54.7925L532.835 53.9933L531.382 53.1992L530.588 51.7407L529.788 53.1992L528.335 53.9933L529.788 54.7925L530.588 56.2458Z" fill="black"/>
<path d="M536.796 56.2458L537.59 54.7925L539.043 53.9933L537.59 53.1992L536.796 51.7407L535.996 53.1992L534.543 53.9933L535.996 54.7925L536.796 56.2458Z" fill="black"/>
<path d="M543.098 56.2458L543.897 54.7925L545.35 53.9933L543.897 53.1992L543.098 51.7407L542.303 53.1992L540.845 53.9933L542.303 54.7925L543.098 56.2458Z" fill="black"/>
<path d="M533.744 60.8029L534.543 59.3497L535.997 58.5504L534.543 57.7563L533.744 56.2979L532.95 57.7563L531.491 58.5504L532.95 59.3497L533.744 60.8029Z" fill="black"/>
<path d="M539.952 60.8029L540.751 59.3497L542.205 58.5504L540.751 57.7563L539.952 56.2979L539.158 57.7563L537.699 58.5504L539.158 59.3497L539.952 60.8029Z" fill="black"/>
<path d="M546.259 60.8029L547.053 59.3497L548.511 58.5504L547.053 57.7563L546.259 56.2979L545.464 57.7563L544.006 58.5504L545.464 59.3497L546.259 60.8029Z" fill="black"/>
<path d="M530.588 65.3649L531.382 63.9065L532.835 63.1124L531.382 62.3131L530.588 60.8599L529.788 62.3131L528.335 63.1124L529.788 63.9065L530.588 65.3649Z" fill="black"/>
<path d="M536.796 65.3649L537.59 63.9065L539.043 63.1124L537.59 62.3131L536.796 60.8599L535.996 62.3131L534.543 63.1124L535.996 63.9065L536.796 65.3649Z" fill="black"/>
<path d="M543.098 65.3649L543.897 63.9065L545.35 63.1124L543.897 62.3131L543.098 60.8599L542.303 62.3131L540.845 63.1124L542.303 63.9065L543.098 65.3649Z" fill="black"/>
<path d="M530.588 28.1877L531.382 26.7344L532.835 25.9351L531.382 25.1411L530.588 23.6826L529.788 25.1411L528.335 25.9351L529.788 26.7344L530.588 28.1877Z" fill="black"/>
<path d="M536.796 28.1877L537.59 26.7344L539.043 25.9351L537.59 25.1411L536.796 23.6826L535.996 25.1411L534.543 25.9351L535.996 26.7344L536.796 28.1877Z" fill="black"/>
<path d="M543.098 28.1877L543.897 26.7344L545.35 25.9351L543.897 25.1411L543.098 23.6826L542.303 25.1411L540.845 25.9351L542.303 26.7344L543.098 28.1877Z" fill="black"/>
<path d="M553.463 107.462L554.257 106.009L555.715 105.21L554.257 104.416L553.463 102.962L552.663 104.416L551.21 105.21L552.663 106.009L553.463 107.462Z" fill="black"/>
<path d="M559.671 107.462L560.465 106.009L561.923 105.21L560.465 104.416L559.671 102.962L558.871 104.416L557.418 105.21L558.871 106.009L559.671 107.462Z" fill="black"/>
<path d="M565.972 107.462L566.772 106.009L568.225 105.21L566.772 104.416L565.972 102.962L565.178 104.416L563.725 105.21L565.178 106.009L565.972 107.462Z" fill="black"/>
<path d="M550.302 112.025L551.096 110.566L552.554 109.772L551.096 108.978L550.302 107.52L549.507 108.978L548.049 109.772L549.507 110.566L550.302 112.025Z" fill="black"/>
<path d="M556.51 112.025L557.304 110.566L558.762 109.772L557.304 108.978L556.51 107.52L555.715 108.978L554.257 109.772L555.715 110.566L556.51 112.025Z" fill="black"/>
<path d="M562.816 112.025L563.61 110.566L565.069 109.772L563.61 108.978L562.816 107.52L562.017 108.978L560.563 109.772L562.017 110.566L562.816 112.025Z" fill="black"/>
<path d="M553.463 70.2902L554.257 68.8318L555.715 68.0377L554.257 67.2436L553.463 65.7852L552.663 67.2436L551.21 68.0377L552.663 68.8318L553.463 70.2902Z" fill="black"/>
<path d="M559.671 70.2902L560.465 68.8318L561.923 68.0377L560.465 67.2436L559.671 65.7852L558.871 67.2436L557.418 68.0377L558.871 68.8318L559.671 70.2902Z" fill="black"/>
<path d="M565.972 70.2902L566.772 68.8318L568.225 68.0377L566.772 67.2436L565.972 65.7852L565.178 67.2436L563.725 68.0377L565.178 68.8318L565.972 70.2902Z" fill="black"/>
<path d="M550.302 74.847L551.096 73.3938L552.554 72.5997L551.096 71.8004L550.302 70.3472L549.507 71.8004L548.049 72.5997L549.507 73.3938L550.302 74.847Z" fill="black"/>
<path d="M556.51 74.847L557.304 73.3938L558.762 72.5997L557.304 71.8004L556.51 70.3472L555.715 71.8004L554.257 72.5997L555.715 73.3938L556.51 74.847Z" fill="black"/>
<path d="M562.816 74.847L563.61 73.3938L565.069 72.5997L563.61 71.8004L562.816 70.3472L562.017 71.8004L560.563 72.5997L562.017 73.3938L562.816 74.847Z" fill="black"/>
<path d="M553.463 79.4093L554.257 77.9509L555.715 77.1568L554.257 76.3575L553.463 74.9043L552.663 76.3575L551.21 77.1568L552.663 77.9509L553.463 79.4093Z" fill="black"/>
<path d="M559.671 79.4093L560.465 77.9509L561.923 77.1568L560.465 76.3575L559.671 74.9043L558.871 76.3575L557.418 77.1568L558.871 77.9509L559.671 79.4093Z" fill="black"/>
<path d="M565.972 79.4093L566.772 77.9509L568.225 77.1568L566.772 76.3575L565.972 74.9043L565.178 76.3575L563.725 77.1568L565.178 77.9509L565.972 79.4093Z" fill="black"/>
<path d="M550.302 83.9665L551.096 82.5132L552.554 81.714L551.096 80.9199L550.302 79.4614L549.507 80.9199L548.049 81.714L549.507 82.5132L550.302 83.9665Z" fill="black"/>
<path d="M556.51 83.9665L557.304 82.5132L558.762 81.714L557.304 80.9199L556.51 79.4614L555.715 80.9199L554.257 81.714L555.715 82.5132L556.51 83.9665Z" fill="black"/>
<path d="M562.816 83.9665L563.61 82.5132L565.069 81.714L563.61 80.9199L562.816 79.4614L562.017 80.9199L560.563 81.714L562.017 82.5132L562.816 83.9665Z" fill="black"/>
<path d="M553.463 88.7204L554.257 87.262L555.715 86.4679L554.257 85.6686L553.463 84.2153L552.663 85.6686L551.21 86.4679L552.663 87.262L553.463 88.7204Z" fill="black"/>
<path d="M559.671 88.7204L560.465 87.262L561.923 86.4679L560.465 85.6686L559.671 84.2153L558.871 85.6686L557.418 86.4679L558.871 87.262L559.671 88.7204Z" fill="black"/>
<path d="M565.972 88.7204L566.772 87.262L568.225 86.4679L566.772 85.6686L565.972 84.2153L565.178 85.6686L563.725 86.4679L565.178 87.262L565.972 88.7204Z" fill="black"/>
<path d="M550.302 93.2775L551.096 91.8243L552.554 91.025L551.096 90.2309L550.302 88.7725L549.507 90.2309L548.049 91.025L549.507 91.8243L550.302 93.2775Z" fill="black"/>
<path d="M556.51 93.2775L557.304 91.8243L558.762 91.025L557.304 90.2309L556.51 88.7725L555.715 90.2309L554.257 91.025L555.715 91.8243L556.51 93.2775Z" fill="black"/>
<path d="M562.816 93.2775L563.61 91.8243L565.069 91.025L563.61 90.2309L562.816 88.7725L562.017 90.2309L560.563 91.025L562.017 91.8243L562.816 93.2775Z" fill="black"/>
<path d="M553.463 97.8344L554.257 96.3811L555.715 95.587L554.257 94.7877L553.463 93.3345L552.663 94.7877L551.21 95.587L552.663 96.3811L553.463 97.8344Z" fill="black"/>
<path d="M559.671 97.8344L560.465 96.3811L561.923 95.587L560.465 94.7877L559.671 93.3345L558.871 94.7877L557.418 95.587L558.871 96.3811L559.671 97.8344Z" fill="black"/>
<path d="M565.972 97.8344L566.772 96.3811L568.225 95.587L566.772 94.7877L565.972 93.3345L565.178 94.7877L563.725 95.587L565.178 96.3811L565.972 97.8344Z" fill="black"/>
<path d="M550.302 102.397L551.096 100.938L552.554 100.144L551.096 99.35L550.302 97.8916L549.507 99.35L548.049 100.144L549.507 100.938L550.302 102.397Z" fill="black"/>
<path d="M556.51 102.397L557.304 100.938L558.762 100.144L557.304 99.35L556.51 97.8916L555.715 99.35L554.257 100.144L555.715 100.938L556.51 102.397Z" fill="black"/>
<path d="M562.816 102.397L563.61 100.938L565.069 100.144L563.61 99.35L562.816 97.8916L562.017 99.35L560.563 100.144L562.017 100.938L562.816 102.397Z" fill="black"/>
<path d="M553.463 33.2585L554.257 31.8L555.715 31.006L554.257 30.2067L553.463 28.7534L552.663 30.2067L551.21 31.006L552.663 31.8L553.463 33.2585Z" fill="black"/>
<path d="M559.671 33.2585L560.465 31.8L561.923 31.006L560.465 30.2067L559.671 28.7534L558.871 30.2067L557.418 31.006L558.871 31.8L559.671 33.2585Z" fill="black"/>
<path d="M565.972 33.2585L566.772 31.8L568.225 31.006L566.772 30.2067L565.972 28.7534L565.178 30.2067L563.725 31.006L565.178 31.8L565.972 33.2585Z" fill="black"/>
<path d="M550.302 37.8156L551.096 36.3624L552.554 35.5631L551.096 34.769L550.302 33.3105L549.507 34.769L548.049 35.5631L549.507 36.3624L550.302 37.8156Z" fill="black"/>
<path d="M556.51 37.8156L557.304 36.3624L558.762 35.5631L557.304 34.769L556.51 33.3105L555.715 34.769L554.257 35.5631L555.715 36.3624L556.51 37.8156Z" fill="black"/>
<path d="M562.816 37.8156L563.61 36.3624L565.069 35.5631L563.61 34.769L562.816 33.3105L562.017 34.769L560.563 35.5631L562.017 36.3624L562.816 37.8156Z" fill="black"/>
<path d="M553.463 42.3724L554.257 40.9192L555.715 40.1199L554.257 39.3258L553.463 37.8726L552.663 39.3258L551.21 40.1199L552.663 40.9192L553.463 42.3724Z" fill="black"/>
<path d="M559.671 42.3724L560.465 40.9192L561.923 40.1199L560.465 39.3258L559.671 37.8726L558.871 39.3258L557.418 40.1199L558.871 40.9192L559.671 42.3724Z" fill="black"/>
<path d="M565.972 42.3724L566.772 40.9192L568.225 40.1199L566.772 39.3258L565.972 37.8726L565.178 39.3258L563.725 40.1199L565.178 40.9192L565.972 42.3724Z" fill="black"/>
<path d="M550.302 46.9347L551.096 45.4763L552.554 44.6822L551.096 43.8881L550.302 42.4297L549.507 43.8881L548.049 44.6822L549.507 45.4763L550.302 46.9347Z" fill="black"/>
<path d="M556.51 46.9347L557.304 45.4763L558.762 44.6822L557.304 43.8881L556.51 42.4297L555.715 43.8881L554.257 44.6822L555.715 45.4763L556.51 46.9347Z" fill="black"/>
<path d="M562.816 46.9347L563.61 45.4763L565.069 44.6822L563.61 43.8881L562.816 42.4297L562.017 43.8881L560.563 44.6822L562.017 45.4763L562.816 46.9347Z" fill="black"/>
<path d="M553.463 51.6887L554.257 50.2302L555.715 49.4361L554.257 48.6368L553.463 47.1836L552.663 48.6368L551.21 49.4361L552.663 50.2302L553.463 51.6887Z" fill="black"/>
<path d="M559.671 51.6887L560.465 50.2302L561.923 49.4361L560.465 48.6368L559.671 47.1836L558.871 48.6368L557.418 49.4361L558.871 50.2302L559.671 51.6887Z" fill="black"/>
<path d="M565.972 51.6887L566.772 50.2302L568.225 49.4361L566.772 48.6368L565.972 47.1836L565.178 48.6368L563.725 49.4361L565.178 50.2302L565.972 51.6887Z" fill="black"/>
<path d="M550.302 56.2458L551.096 54.7925L552.554 53.9933L551.096 53.1992L550.302 51.7407L549.507 53.1992L548.049 53.9933L549.507 54.7925L550.302 56.2458Z" fill="black"/>
<path d="M556.51 56.2458L557.304 54.7925L558.762 53.9933L557.304 53.1992L556.51 51.7407L555.715 53.1992L554.257 53.9933L555.715 54.7925L556.51 56.2458Z" fill="black"/>
<path d="M562.816 56.2458L563.61 54.7925L565.069 53.9933L563.61 53.1992L562.816 51.7407L562.017 53.1992L560.563 53.9933L562.017 54.7925L562.816 56.2458Z" fill="black"/>
<path d="M553.463 60.8029L554.257 59.3497L555.715 58.5504L554.257 57.7563L553.463 56.2979L552.663 57.7563L551.21 58.5504L552.663 59.3497L553.463 60.8029Z" fill="black"/>
<path d="M559.671 60.8029L560.465 59.3497L561.923 58.5504L560.465 57.7563L559.671 56.2979L558.871 57.7563L557.418 58.5504L558.871 59.3497L559.671 60.8029Z" fill="black"/>
<path d="M565.972 60.8029L566.772 59.3497L568.225 58.5504L566.772 57.7563L565.972 56.2979L565.178 57.7563L563.725 58.5504L565.178 59.3497L565.972 60.8029Z" fill="black"/>
<path d="M550.302 65.3649L551.096 63.9065L552.554 63.1124L551.096 62.3131L550.302 60.8599L549.507 62.3131L548.049 63.1124L549.507 63.9065L550.302 65.3649Z" fill="black"/>
<path d="M556.51 65.3649L557.304 63.9065L558.762 63.1124L557.304 62.3131L556.51 60.8599L555.715 62.3131L554.257 63.1124L555.715 63.9065L556.51 65.3649Z" fill="black"/>
<path d="M562.816 65.3649L563.61 63.9065L565.069 63.1124L563.61 62.3131L562.816 60.8599L562.017 62.3131L560.563 63.1124L562.017 63.9065L562.816 65.3649Z" fill="black"/>
<path d="M550.302 28.1877L551.096 26.7344L552.554 25.9351L551.096 25.1411L550.302 23.6826L549.507 25.1411L548.049 25.9351L549.507 26.7344L550.302 28.1877Z" fill="black"/>
<path d="M556.51 28.1877L557.304 26.7344L558.762 25.9351L557.304 25.1411L556.51 23.6826L555.715 25.1411L554.257 25.9351L555.715 26.7344L556.51 28.1877Z" fill="black"/>
<path d="M562.816 28.1877L563.61 26.7344L565.069 25.9351L563.61 25.1411L562.816 23.6826L562.017 25.1411L560.563 25.9351L562.017 26.7344L562.816 28.1877Z" fill="black"/>
<path d="M495.478 107.462L496.278 106.009L497.731 105.21L496.278 104.416L495.478 102.962L494.684 104.416L493.226 105.21L494.684 106.009L495.478 107.462Z" fill="black"/>
<path d="M501.686 107.462L502.486 106.009L503.939 105.21L502.486 104.416L501.686 102.962L500.892 104.416L499.434 105.21L500.892 106.009L501.686 107.462Z" fill="black"/>
<path d="M507.992 107.462L508.786 106.009L510.245 105.21L508.786 104.416L507.992 102.962L507.198 104.416L505.739 105.21L507.198 106.009L507.992 107.462Z" fill="black"/>
<path d="M492.322 112.025L493.116 110.566L494.57 109.772L493.116 108.978L492.322 107.52L491.523 108.978L490.069 109.772L491.523 110.566L492.322 112.025Z" fill="black"/>
<path d="M498.53 112.025L499.324 110.566L500.778 109.772L499.324 108.978L498.53 107.52L497.731 108.978L496.277 109.772L497.731 110.566L498.53 112.025Z" fill="black"/>
<path d="M504.832 112.025L505.631 110.566L507.085 109.772L505.631 108.978L504.832 107.52L504.038 108.978L502.579 109.772L504.038 110.566L504.832 112.025Z" fill="black"/>
<path d="M495.478 70.2902L496.278 68.8318L497.731 68.0377L496.278 67.2436L495.478 65.7852L494.684 67.2436L493.226 68.0377L494.684 68.8318L495.478 70.2902Z" fill="black"/>
<path d="M501.686 70.2902L502.486 68.8318L503.939 68.0377L502.486 67.2436L501.686 65.7852L500.892 67.2436L499.434 68.0377L500.892 68.8318L501.686 70.2902Z" fill="black"/>
<path d="M507.992 70.2902L508.786 68.8318L510.245 68.0377L508.786 67.2436L507.992 65.7852L507.198 67.2436L505.739 68.0377L507.198 68.8318L507.992 70.2902Z" fill="black"/>
<path d="M492.322 74.847L493.116 73.3938L494.57 72.5997L493.116 71.8004L492.322 70.3472L491.523 71.8004L490.069 72.5997L491.523 73.3938L492.322 74.847Z" fill="black"/>
<path d="M498.53 74.847L499.324 73.3938L500.778 72.5997L499.324 71.8004L498.53 70.3472L497.731 71.8004L496.277 72.5997L497.731 73.3938L498.53 74.847Z" fill="black"/>
<path d="M504.832 74.847L505.631 73.3938L507.085 72.5997L505.631 71.8004L504.832 70.3472L504.038 71.8004L502.579 72.5997L504.038 73.3938L504.832 74.847Z" fill="black"/>
<path d="M495.478 79.4093L496.278 77.9509L497.731 77.1568L496.278 76.3575L495.478 74.9043L494.684 76.3575L493.226 77.1568L494.684 77.9509L495.478 79.4093Z" fill="black"/>
<path d="M501.686 79.4093L502.486 77.9509L503.939 77.1568L502.486 76.3575L501.686 74.9043L500.892 76.3575L499.434 77.1568L500.892 77.9509L501.686 79.4093Z" fill="black"/>
<path d="M507.992 79.4093L508.786 77.9509L510.245 77.1568L508.786 76.3575L507.992 74.9043L507.198 76.3575L505.739 77.1568L507.198 77.9509L507.992 79.4093Z" fill="black"/>
<path d="M492.322 83.9665L493.116 82.5132L494.57 81.714L493.116 80.9199L492.322 79.4614L491.523 80.9199L490.069 81.714L491.523 82.5132L492.322 83.9665Z" fill="black"/>
<path d="M498.53 83.9665L499.324 82.5132L500.778 81.714L499.324 80.9199L498.53 79.4614L497.731 80.9199L496.277 81.714L497.731 82.5132L498.53 83.9665Z" fill="black"/>
<path d="M504.832 83.9665L505.631 82.5132L507.085 81.714L505.631 80.9199L504.832 79.4614L504.038 80.9199L502.579 81.714L504.038 82.5132L504.832 83.9665Z" fill="black"/>
<path d="M495.478 88.7204L496.278 87.262L497.731 86.4679L496.278 85.6686L495.478 84.2153L494.684 85.6686L493.226 86.4679L494.684 87.262L495.478 88.7204Z" fill="black"/>
<path d="M501.686 88.7204L502.486 87.262L503.939 86.4679L502.486 85.6686L501.686 84.2153L500.892 85.6686L499.434 86.4679L500.892 87.262L501.686 88.7204Z" fill="black"/>
<path d="M507.992 88.7204L508.786 87.262L510.245 86.4679L508.786 85.6686L507.992 84.2153L507.198 85.6686L505.739 86.4679L507.198 87.262L507.992 88.7204Z" fill="black"/>
<path d="M492.322 93.2775L493.116 91.8243L494.57 91.025L493.116 90.2309L492.322 88.7725L491.523 90.2309L490.069 91.025L491.523 91.8243L492.322 93.2775Z" fill="black"/>
<path d="M498.53 93.2775L499.324 91.8243L500.778 91.025L499.324 90.2309L498.53 88.7725L497.731 90.2309L496.277 91.025L497.731 91.8243L498.53 93.2775Z" fill="black"/>
<path d="M504.832 93.2775L505.631 91.8243L507.085 91.025L505.631 90.2309L504.832 88.7725L504.038 90.2309L502.579 91.025L504.038 91.8243L504.832 93.2775Z" fill="black"/>
<path d="M495.478 97.8344L496.278 96.3811L497.731 95.587L496.278 94.7877L495.478 93.3345L494.684 94.7877L493.226 95.587L494.684 96.3811L495.478 97.8344Z" fill="black"/>
<path d="M501.686 97.8344L502.486 96.3811L503.939 95.587L502.486 94.7877L501.686 93.3345L500.892 94.7877L499.434 95.587L500.892 96.3811L501.686 97.8344Z" fill="black"/>
<path d="M507.992 97.8344L508.786 96.3811L510.245 95.587L508.786 94.7877L507.992 93.3345L507.198 94.7877L505.739 95.587L507.198 96.3811L507.992 97.8344Z" fill="black"/>
<path d="M492.322 102.397L493.116 100.938L494.57 100.144L493.116 99.35L492.322 97.8916L491.523 99.35L490.069 100.144L491.523 100.938L492.322 102.397Z" fill="black"/>
<path d="M498.53 102.397L499.324 100.938L500.778 100.144L499.324 99.35L498.53 97.8916L497.731 99.35L496.277 100.144L497.731 100.938L498.53 102.397Z" fill="black"/>
<path d="M504.832 102.397L505.631 100.938L507.085 100.144L505.631 99.35L504.832 97.8916L504.038 99.35L502.579 100.144L504.038 100.938L504.832 102.397Z" fill="black"/>
<path d="M495.478 33.2585L496.278 31.8L497.731 31.006L496.278 30.2067L495.478 28.7534L494.684 30.2067L493.226 31.006L494.684 31.8L495.478 33.2585Z" fill="black"/>
<path d="M501.686 33.2585L502.486 31.8L503.939 31.006L502.486 30.2067L501.686 28.7534L500.892 30.2067L499.434 31.006L500.892 31.8L501.686 33.2585Z" fill="black"/>
<path d="M507.992 33.2585L508.786 31.8L510.245 31.006L508.786 30.2067L507.992 28.7534L507.198 30.2067L505.739 31.006L507.198 31.8L507.992 33.2585Z" fill="black"/>
<path d="M492.322 37.8156L493.116 36.3624L494.57 35.5631L493.116 34.769L492.322 33.3105L491.523 34.769L490.069 35.5631L491.523 36.3624L492.322 37.8156Z" fill="black"/>
<path d="M498.53 37.8156L499.324 36.3624L500.778 35.5631L499.324 34.769L498.53 33.3105L497.731 34.769L496.277 35.5631L497.731 36.3624L498.53 37.8156Z" fill="black"/>
<path d="M504.832 37.8156L505.631 36.3624L507.085 35.5631L505.631 34.769L504.832 33.3105L504.038 34.769L502.579 35.5631L504.038 36.3624L504.832 37.8156Z" fill="black"/>
<path d="M495.478 42.3724L496.278 40.9192L497.731 40.1199L496.278 39.3258L495.478 37.8726L494.684 39.3258L493.226 40.1199L494.684 40.9192L495.478 42.3724Z" fill="black"/>
<path d="M501.686 42.3724L502.486 40.9192L503.939 40.1199L502.486 39.3258L501.686 37.8726L500.892 39.3258L499.434 40.1199L500.892 40.9192L501.686 42.3724Z" fill="black"/>
<path d="M507.992 42.3724L508.786 40.9192L510.245 40.1199L508.786 39.3258L507.992 37.8726L507.198 39.3258L505.739 40.1199L507.198 40.9192L507.992 42.3724Z" fill="black"/>
<path d="M492.322 46.9347L493.116 45.4763L494.57 44.6822L493.116 43.8881L492.322 42.4297L491.523 43.8881L490.069 44.6822L491.523 45.4763L492.322 46.9347Z" fill="black"/>
<path d="M498.53 46.9347L499.324 45.4763L500.778 44.6822L499.324 43.8881L498.53 42.4297L497.731 43.8881L496.277 44.6822L497.731 45.4763L498.53 46.9347Z" fill="black"/>
<path d="M504.832 46.9347L505.631 45.4763L507.085 44.6822L505.631 43.8881L504.832 42.4297L504.038 43.8881L502.579 44.6822L504.038 45.4763L504.832 46.9347Z" fill="black"/>
<path d="M495.478 51.6887L496.278 50.2302L497.731 49.4361L496.278 48.6368L495.478 47.1836L494.684 48.6368L493.226 49.4361L494.684 50.2302L495.478 51.6887Z" fill="black"/>
<path d="M501.686 51.6887L502.486 50.2302L503.939 49.4361L502.486 48.6368L501.686 47.1836L500.892 48.6368L499.434 49.4361L500.892 50.2302L501.686 51.6887Z" fill="black"/>
<path d="M507.992 51.6887L508.786 50.2302L510.245 49.4361L508.786 48.6368L507.992 47.1836L507.198 48.6368L505.739 49.4361L507.198 50.2302L507.992 51.6887Z" fill="black"/>
<path d="M492.322 56.2458L493.116 54.7925L494.57 53.9933L493.116 53.1992L492.322 51.7407L491.523 53.1992L490.069 53.9933L491.523 54.7925L492.322 56.2458Z" fill="black"/>
<path d="M498.53 56.2458L499.324 54.7925L500.778 53.9933L499.324 53.1992L498.53 51.7407L497.731 53.1992L496.277 53.9933L497.731 54.7925L498.53 56.2458Z" fill="black"/>
<path d="M504.832 56.2458L505.631 54.7925L507.085 53.9933L505.631 53.1992L504.832 51.7407L504.038 53.1992L502.579 53.9933L504.038 54.7925L504.832 56.2458Z" fill="black"/>
<path d="M495.478 60.8029L496.278 59.3497L497.731 58.5504L496.278 57.7563L495.478 56.2979L494.684 57.7563L493.226 58.5504L494.684 59.3497L495.478 60.8029Z" fill="black"/>
<path d="M501.686 60.8029L502.486 59.3497L503.939 58.5504L502.486 57.7563L501.686 56.2979L500.892 57.7563L499.434 58.5504L500.892 59.3497L501.686 60.8029Z" fill="black"/>
<path d="M507.992 60.8029L508.786 59.3497L510.245 58.5504L508.786 57.7563L507.992 56.2979L507.198 57.7563L505.739 58.5504L507.198 59.3497L507.992 60.8029Z" fill="black"/>
<path d="M492.322 65.3649L493.116 63.9065L494.57 63.1124L493.116 62.3131L492.322 60.8599L491.523 62.3131L490.069 63.1124L491.523 63.9065L492.322 65.3649Z" fill="black"/>
<path d="M498.53 65.3649L499.324 63.9065L500.778 63.1124L499.324 62.3131L498.53 60.8599L497.731 62.3131L496.277 63.1124L497.731 63.9065L498.53 65.3649Z" fill="black"/>
<path d="M504.832 65.3649L505.631 63.9065L507.085 63.1124L505.631 62.3131L504.832 60.8599L504.038 62.3131L502.579 63.1124L504.038 63.9065L504.832 65.3649Z" fill="black"/>
<path d="M492.322 28.1877L493.116 26.7344L494.57 25.9351L493.116 25.1411L492.322 23.6826L491.523 25.1411L490.069 25.9351L491.523 26.7344L492.322 28.1877Z" fill="black"/>
<path d="M498.53 28.1877L499.324 26.7344L500.778 25.9351L499.324 25.1411L498.53 23.6826L497.731 25.1411L496.277 25.9351L497.731 26.7344L498.53 28.1877Z" fill="black"/>
<path d="M504.832 28.1877L505.631 26.7344L507.085 25.9351L505.631 25.1411L504.832 23.6826L504.038 25.1411L502.579 25.9351L504.038 26.7344L504.832 28.1877Z" fill="black"/>
<path d="M515.197 107.462L515.991 106.009L517.45 105.21L515.991 104.416L515.197 102.962L514.398 104.416L512.944 105.21L514.398 106.009L515.197 107.462Z" fill="black"/>
<path d="M521.405 107.462L522.199 106.009L523.658 105.21L522.199 104.416L521.405 102.962L520.606 104.416L519.152 105.21L520.606 106.009L521.405 107.462Z" fill="black"/>
<path d="M527.707 107.462L528.506 106.009L529.959 105.21L528.506 104.416L527.707 102.962L526.912 104.416L525.459 105.21L526.912 106.009L527.707 107.462Z" fill="black"/>
<path d="M512.036 112.025L512.83 110.566L514.289 109.772L512.83 108.978L512.036 107.52L511.242 108.978L509.783 109.772L511.242 110.566L512.036 112.025Z" fill="black"/>
<path d="M518.244 112.025L519.038 110.566L520.497 109.772L519.038 108.978L518.244 107.52L517.45 108.978L515.991 109.772L517.45 110.566L518.244 112.025Z" fill="black"/>
<path d="M524.551 112.025L525.345 110.566L526.803 109.772L525.345 108.978L524.551 107.52L523.751 108.978L522.298 109.772L523.751 110.566L524.551 112.025Z" fill="black"/>
<path d="M515.197 70.2902L515.991 68.8318L517.45 68.0377L515.991 67.2436L515.197 65.7852L514.398 67.2436L512.944 68.0377L514.398 68.8318L515.197 70.2902Z" fill="black"/>
<path d="M521.405 70.2902L522.199 68.8318L523.658 68.0377L522.199 67.2436L521.405 65.7852L520.606 67.2436L519.152 68.0377L520.606 68.8318L521.405 70.2902Z" fill="black"/>
<path d="M527.707 70.2902L528.506 68.8318L529.959 68.0377L528.506 67.2436L527.707 65.7852L526.912 67.2436L525.459 68.0377L526.912 68.8318L527.707 70.2902Z" fill="black"/>
<path d="M512.036 74.847L512.83 73.3938L514.289 72.5997L512.83 71.8004L512.036 70.3472L511.242 71.8004L509.783 72.5997L511.242 73.3938L512.036 74.847Z" fill="black"/>
<path d="M518.244 74.847L519.038 73.3938L520.497 72.5997L519.038 71.8004L518.244 70.3472L517.45 71.8004L515.991 72.5997L517.45 73.3938L518.244 74.847Z" fill="black"/>
<path d="M524.551 74.847L525.345 73.3938L526.803 72.5997L525.345 71.8004L524.551 70.3472L523.751 71.8004L522.298 72.5997L523.751 73.3938L524.551 74.847Z" fill="black"/>
<path d="M515.197 79.4093L515.991 77.9509L517.45 77.1568L515.991 76.3575L515.197 74.9043L514.398 76.3575L512.944 77.1568L514.398 77.9509L515.197 79.4093Z" fill="black"/>
<path d="M521.405 79.4093L522.199 77.9509L523.658 77.1568L522.199 76.3575L521.405 74.9043L520.606 76.3575L519.152 77.1568L520.606 77.9509L521.405 79.4093Z" fill="black"/>
<path d="M527.707 79.4093L528.506 77.9509L529.959 77.1568L528.506 76.3575L527.707 74.9043L526.912 76.3575L525.459 77.1568L526.912 77.9509L527.707 79.4093Z" fill="black"/>
<path d="M512.036 83.9665L512.83 82.5132L514.289 81.714L512.83 80.9199L512.036 79.4614L511.242 80.9199L509.783 81.714L511.242 82.5132L512.036 83.9665Z" fill="black"/>
<path d="M518.244 83.9665L519.038 82.5132L520.497 81.714L519.038 80.9199L518.244 79.4614L517.45 80.9199L515.991 81.714L517.45 82.5132L518.244 83.9665Z" fill="black"/>
<path d="M524.551 83.9665L525.345 82.5132L526.803 81.714L525.345 80.9199L524.551 79.4614L523.751 80.9199L522.298 81.714L523.751 82.5132L524.551 83.9665Z" fill="black"/>
<path d="M515.197 88.7204L515.991 87.262L517.45 86.4679L515.991 85.6686L515.197 84.2153L514.398 85.6686L512.944 86.4679L514.398 87.262L515.197 88.7204Z" fill="black"/>
<path d="M521.405 88.7204L522.199 87.262L523.658 86.4679L522.199 85.6686L521.405 84.2153L520.606 85.6686L519.152 86.4679L520.606 87.262L521.405 88.7204Z" fill="black"/>
<path d="M527.707 88.7204L528.506 87.262L529.959 86.4679L528.506 85.6686L527.707 84.2153L526.912 85.6686L525.459 86.4679L526.912 87.262L527.707 88.7204Z" fill="black"/>
<path d="M512.036 93.2775L512.83 91.8243L514.289 91.025L512.83 90.2309L512.036 88.7725L511.242 90.2309L509.783 91.025L511.242 91.8243L512.036 93.2775Z" fill="black"/>
<path d="M518.244 93.2775L519.038 91.8243L520.497 91.025L519.038 90.2309L518.244 88.7725L517.45 90.2309L515.991 91.025L517.45 91.8243L518.244 93.2775Z" fill="black"/>
<path d="M524.551 93.2775L525.345 91.8243L526.803 91.025L525.345 90.2309L524.551 88.7725L523.751 90.2309L522.298 91.025L523.751 91.8243L524.551 93.2775Z" fill="black"/>
<path d="M515.197 97.8344L515.991 96.3811L517.45 95.587L515.991 94.7877L515.197 93.3345L514.398 94.7877L512.944 95.587L514.398 96.3811L515.197 97.8344Z" fill="black"/>
<path d="M521.405 97.8344L522.199 96.3811L523.658 95.587L522.199 94.7877L521.405 93.3345L520.606 94.7877L519.152 95.587L520.606 96.3811L521.405 97.8344Z" fill="black"/>
<path d="M527.707 97.8344L528.506 96.3811L529.959 95.587L528.506 94.7877L527.707 93.3345L526.912 94.7877L525.459 95.587L526.912 96.3811L527.707 97.8344Z" fill="black"/>
<path d="M512.036 102.397L512.83 100.938L514.289 100.144L512.83 99.35L512.036 97.8916L511.242 99.35L509.783 100.144L511.242 100.938L512.036 102.397Z" fill="black"/>
<path d="M518.244 102.397L519.038 100.938L520.497 100.144L519.038 99.35L518.244 97.8916L517.45 99.35L515.991 100.144L517.45 100.938L518.244 102.397Z" fill="black"/>
<path d="M524.551 102.397L525.345 100.938L526.803 100.144L525.345 99.35L524.551 97.8916L523.751 99.35L522.298 100.144L523.751 100.938L524.551 102.397Z" fill="black"/>
<path d="M515.197 33.2585L515.991 31.8L517.45 31.006L515.991 30.2067L515.197 28.7534L514.398 30.2067L512.944 31.006L514.398 31.8L515.197 33.2585Z" fill="black"/>
<path d="M521.405 33.2585L522.199 31.8L523.658 31.006L522.199 30.2067L521.405 28.7534L520.606 30.2067L519.152 31.006L520.606 31.8L521.405 33.2585Z" fill="black"/>
<path d="M527.707 33.2585L528.506 31.8L529.959 31.006L528.506 30.2067L527.707 28.7534L526.912 30.2067L525.459 31.006L526.912 31.8L527.707 33.2585Z" fill="black"/>
<path d="M512.036 37.8156L512.83 36.3624L514.289 35.5631L512.83 34.769L512.036 33.3105L511.242 34.769L509.783 35.5631L511.242 36.3624L512.036 37.8156Z" fill="black"/>
<path d="M518.244 37.8156L519.038 36.3624L520.497 35.5631L519.038 34.769L518.244 33.3105L517.45 34.769L515.991 35.5631L517.45 36.3624L518.244 37.8156Z" fill="black"/>
<path d="M524.551 37.8156L525.345 36.3624L526.803 35.5631L525.345 34.769L524.551 33.3105L523.751 34.769L522.298 35.5631L523.751 36.3624L524.551 37.8156Z" fill="black"/>
<path d="M515.197 42.3724L515.991 40.9192L517.45 40.1199L515.991 39.3258L515.197 37.8726L514.398 39.3258L512.944 40.1199L514.398 40.9192L515.197 42.3724Z" fill="black"/>
<path d="M521.405 42.3724L522.199 40.9192L523.658 40.1199L522.199 39.3258L521.405 37.8726L520.606 39.3258L519.152 40.1199L520.606 40.9192L521.405 42.3724Z" fill="black"/>
<path d="M527.707 42.3724L528.506 40.9192L529.959 40.1199L528.506 39.3258L527.707 37.8726L526.912 39.3258L525.459 40.1199L526.912 40.9192L527.707 42.3724Z" fill="black"/>
<path d="M512.036 46.9347L512.83 45.4763L514.289 44.6822L512.83 43.8881L512.036 42.4297L511.242 43.8881L509.783 44.6822L511.242 45.4763L512.036 46.9347Z" fill="black"/>
<path d="M518.244 46.9347L519.038 45.4763L520.497 44.6822L519.038 43.8881L518.244 42.4297L517.45 43.8881L515.991 44.6822L517.45 45.4763L518.244 46.9347Z" fill="black"/>
<path d="M524.551 46.9347L525.345 45.4763L526.803 44.6822L525.345 43.8881L524.551 42.4297L523.751 43.8881L522.298 44.6822L523.751 45.4763L524.551 46.9347Z" fill="black"/>
<path d="M515.197 51.6887L515.991 50.2302L517.45 49.4361L515.991 48.6368L515.197 47.1836L514.398 48.6368L512.944 49.4361L514.398 50.2302L515.197 51.6887Z" fill="black"/>
<path d="M521.405 51.6887L522.199 50.2302L523.658 49.4361L522.199 48.6368L521.405 47.1836L520.606 48.6368L519.152 49.4361L520.606 50.2302L521.405 51.6887Z" fill="black"/>
<path d="M527.707 51.6887L528.506 50.2302L529.959 49.4361L528.506 48.6368L527.707 47.1836L526.912 48.6368L525.459 49.4361L526.912 50.2302L527.707 51.6887Z" fill="black"/>
<path d="M512.036 56.2458L512.83 54.7925L514.289 53.9933L512.83 53.1992L512.036 51.7407L511.242 53.1992L509.783 53.9933L511.242 54.7925L512.036 56.2458Z" fill="black"/>
<path d="M518.244 56.2458L519.038 54.7925L520.497 53.9933L519.038 53.1992L518.244 51.7407L517.45 53.1992L515.991 53.9933L517.45 54.7925L518.244 56.2458Z" fill="black"/>
<path d="M524.551 56.2458L525.345 54.7925L526.803 53.9933L525.345 53.1992L524.551 51.7407L523.751 53.1992L522.298 53.9933L523.751 54.7925L524.551 56.2458Z" fill="black"/>
<path d="M515.197 60.8029L515.991 59.3497L517.45 58.5504L515.991 57.7563L515.197 56.2979L514.398 57.7563L512.944 58.5504L514.398 59.3497L515.197 60.8029Z" fill="black"/>
<path d="M521.405 60.8029L522.199 59.3497L523.658 58.5504L522.199 57.7563L521.405 56.2979L520.606 57.7563L519.152 58.5504L520.606 59.3497L521.405 60.8029Z" fill="black"/>
<path d="M527.707 60.8029L528.506 59.3497L529.959 58.5504L528.506 57.7563L527.707 56.2979L526.912 57.7563L525.459 58.5504L526.912 59.3497L527.707 60.8029Z" fill="black"/>
<path d="M512.036 65.3649L512.83 63.9065L514.289 63.1124L512.83 62.3131L512.036 60.8599L511.242 62.3131L509.783 63.1124L511.242 63.9065L512.036 65.3649Z" fill="black"/>
<path d="M518.244 65.3649L519.038 63.9065L520.497 63.1124L519.038 62.3131L518.244 60.8599L517.45 62.3131L515.991 63.1124L517.45 63.9065L518.244 65.3649Z" fill="black"/>
<path d="M524.551 65.3649L525.345 63.9065L526.803 63.1124L525.345 62.3131L524.551 60.8599L523.751 62.3131L522.298 63.1124L523.751 63.9065L524.551 65.3649Z" fill="black"/>
<path d="M512.036 28.1877L512.83 26.7344L514.289 25.9351L512.83 25.1411L512.036 23.6826L511.242 25.1411L509.783 25.9351L511.242 26.7344L512.036 28.1877Z" fill="black"/>
<path d="M518.244 28.1877L519.038 26.7344L520.497 25.9351L519.038 25.1411L518.244 23.6826L517.45 25.1411L515.991 25.9351L517.45 26.7344L518.244 28.1877Z" fill="black"/>
<path d="M524.551 28.1877L525.345 26.7344L526.803 25.9351L525.345 25.1411L524.551 23.6826L523.751 25.1411L522.298 25.9351L523.751 26.7344L524.551 28.1877Z" fill="black"/>
<path d="M482.549 107.462L483.348 106.009L484.801 105.21L483.348 104.416L482.549 102.962L481.754 104.416L480.296 105.21L481.754 106.009L482.549 107.462Z" fill="black"/>
<path d="M488.854 107.462L489.648 106.009L491.107 105.21L489.648 104.416L488.854 102.962L488.06 104.416L486.602 105.21L488.06 106.009L488.854 107.462Z" fill="black"/>
<path d="M479.392 112.025L480.187 110.566L481.645 109.772L480.187 108.978L479.392 107.52L478.593 108.978L477.14 109.772L478.593 110.566L479.392 112.025Z" fill="black"/>
<path d="M485.694 112.025L486.494 110.566L487.947 109.772L486.494 108.978L485.694 107.52L484.9 108.978L483.441 109.772L484.9 110.566L485.694 112.025Z" fill="black"/>
<path d="M482.549 70.2902L483.348 68.8318L484.801 68.0377L483.348 67.2436L482.549 65.7852L481.754 67.2436L480.296 68.0377L481.754 68.8318L482.549 70.2902Z" fill="black"/>
<path d="M488.854 70.2902L489.648 68.8318L491.107 68.0377L489.648 67.2436L488.854 65.7852L488.06 67.2436L486.602 68.0377L488.06 68.8318L488.854 70.2902Z" fill="black"/>
<path d="M479.392 74.847L480.187 73.3938L481.645 72.5997L480.187 71.8004L479.392 70.3472L478.593 71.8004L477.14 72.5997L478.593 73.3938L479.392 74.847Z" fill="black"/>
<path d="M485.694 74.847L486.494 73.3938L487.947 72.5997L486.494 71.8004L485.694 70.3472L484.9 71.8004L483.441 72.5997L484.9 73.3938L485.694 74.847Z" fill="black"/>
<path d="M482.549 79.4093L483.348 77.9509L484.801 77.1568L483.348 76.3575L482.549 74.9043L481.754 76.3575L480.296 77.1568L481.754 77.9509L482.549 79.4093Z" fill="black"/>
<path d="M488.854 79.4093L489.648 77.9509L491.107 77.1568L489.648 76.3575L488.854 74.9043L488.06 76.3575L486.602 77.1568L488.06 77.9509L488.854 79.4093Z" fill="black"/>
<path d="M479.392 83.9665L480.187 82.5132L481.645 81.714L480.187 80.9199L479.392 79.4614L478.593 80.9199L477.14 81.714L478.593 82.5132L479.392 83.9665Z" fill="black"/>
<path d="M485.694 83.9665L486.494 82.5132L487.947 81.714L486.494 80.9199L485.694 79.4614L484.9 80.9199L483.441 81.714L484.9 82.5132L485.694 83.9665Z" fill="black"/>
<path d="M482.549 88.7204L483.348 87.262L484.801 86.4679L483.348 85.6686L482.549 84.2153L481.754 85.6686L480.296 86.4679L481.754 87.262L482.549 88.7204Z" fill="black"/>
<path d="M488.854 88.7204L489.648 87.262L491.107 86.4679L489.648 85.6686L488.854 84.2153L488.06 85.6686L486.602 86.4679L488.06 87.262L488.854 88.7204Z" fill="black"/>
<path d="M479.392 93.2775L480.187 91.8243L481.645 91.025L480.187 90.2309L479.392 88.7725L478.593 90.2309L477.14 91.025L478.593 91.8243L479.392 93.2775Z" fill="black"/>
<path d="M485.694 93.2775L486.494 91.8243L487.947 91.025L486.494 90.2309L485.694 88.7725L484.9 90.2309L483.441 91.025L484.9 91.8243L485.694 93.2775Z" fill="black"/>
<path d="M482.549 97.8344L483.348 96.3811L484.801 95.587L483.348 94.7877L482.549 93.3345L481.754 94.7877L480.296 95.587L481.754 96.3811L482.549 97.8344Z" fill="black"/>
<path d="M488.854 97.8344L489.648 96.3811L491.107 95.587L489.648 94.7877L488.854 93.3345L488.06 94.7877L486.602 95.587L488.06 96.3811L488.854 97.8344Z" fill="black"/>
<path d="M479.392 102.397L480.187 100.938L481.645 100.144L480.187 99.35L479.392 97.8916L478.593 99.35L477.14 100.144L478.593 100.938L479.392 102.397Z" fill="black"/>
<path d="M485.694 102.397L486.494 100.938L487.947 100.144L486.494 99.35L485.694 97.8916L484.9 99.35L483.441 100.144L484.9 100.938L485.694 102.397Z" fill="black"/>
<path d="M482.549 33.2585L483.348 31.8L484.801 31.006L483.348 30.2067L482.549 28.7534L481.754 30.2067L480.296 31.006L481.754 31.8L482.549 33.2585Z" fill="black"/>
<path d="M488.854 33.2585L489.648 31.8L491.107 31.006L489.648 30.2067L488.854 28.7534L488.06 30.2067L486.602 31.006L488.06 31.8L488.854 33.2585Z" fill="black"/>
<path d="M479.392 37.8156L480.187 36.3624L481.645 35.5631L480.187 34.769L479.392 33.3105L478.593 34.769L477.14 35.5631L478.593 36.3624L479.392 37.8156Z" fill="black"/>
<path d="M485.694 37.8156L486.494 36.3624L487.947 35.5631L486.494 34.769L485.694 33.3105L484.9 34.769L483.441 35.5631L484.9 36.3624L485.694 37.8156Z" fill="black"/>
<path d="M482.549 42.3724L483.348 40.9192L484.801 40.1199L483.348 39.3258L482.549 37.8726L481.754 39.3258L480.296 40.1199L481.754 40.9192L482.549 42.3724Z" fill="black"/>
<path d="M488.854 42.3724L489.648 40.9192L491.107 40.1199L489.648 39.3258L488.854 37.8726L488.06 39.3258L486.602 40.1199L488.06 40.9192L488.854 42.3724Z" fill="black"/>
<path d="M479.392 46.9347L480.187 45.4763L481.645 44.6822L480.187 43.8881L479.392 42.4297L478.593 43.8881L477.14 44.6822L478.593 45.4763L479.392 46.9347Z" fill="black"/>
<path d="M485.694 46.9347L486.494 45.4763L487.947 44.6822L486.494 43.8881L485.694 42.4297L484.9 43.8881L483.441 44.6822L484.9 45.4763L485.694 46.9347Z" fill="black"/>
<path d="M482.549 51.6887L483.348 50.2302L484.801 49.4361L483.348 48.6368L482.549 47.1836L481.754 48.6368L480.296 49.4361L481.754 50.2302L482.549 51.6887Z" fill="black"/>
<path d="M488.854 51.6887L489.648 50.2302L491.107 49.4361L489.648 48.6368L488.854 47.1836L488.06 48.6368L486.602 49.4361L488.06 50.2302L488.854 51.6887Z" fill="black"/>
<path d="M479.392 56.2458L480.187 54.7925L481.645 53.9933L480.187 53.1992L479.392 51.7407L478.593 53.1992L477.14 53.9933L478.593 54.7925L479.392 56.2458Z" fill="black"/>
<path d="M485.694 56.2458L486.494 54.7925L487.947 53.9933L486.494 53.1992L485.694 51.7407L484.9 53.1992L483.441 53.9933L484.9 54.7925L485.694 56.2458Z" fill="black"/>
<path d="M482.549 60.8029L483.348 59.3497L484.801 58.5504L483.348 57.7563L482.549 56.2979L481.754 57.7563L480.296 58.5504L481.754 59.3497L482.549 60.8029Z" fill="black"/>
<path d="M488.854 60.8029L489.648 59.3497L491.107 58.5504L489.648 57.7563L488.854 56.2979L488.06 57.7563L486.602 58.5504L488.06 59.3497L488.854 60.8029Z" fill="black"/>
<path d="M479.392 65.3649L480.187 63.9065L481.645 63.1124L480.187 62.3131L479.392 60.8599L478.593 62.3131L477.14 63.1124L478.593 63.9065L479.392 65.3649Z" fill="black"/>
<path d="M485.694 65.3649L486.494 63.9065L487.947 63.1124L486.494 62.3131L485.694 60.8599L484.9 62.3131L483.441 63.1124L484.9 63.9065L485.694 65.3649Z" fill="black"/>
<path d="M479.392 28.1877L480.187 26.7344L481.645 25.9351L480.187 25.1411L479.392 23.6826L478.593 25.1411L477.14 25.9351L478.593 26.7344L479.392 28.1877Z" fill="black"/>
<path d="M485.694 28.1877L486.494 26.7344L487.947 25.9351L486.494 25.1411L485.694 23.6826L484.9 25.1411L483.441 25.9351L484.9 26.7344L485.694 28.1877Z" fill="black"/>
<path d="M523.139 107.13C521.883 107.13 520.855 106.103 520.855 104.847V94.4663C520.855 93.2103 521.883 92.1826 523.139 92.1826C524.396 92.1826 525.423 93.2103 525.423 94.4663V104.847C525.423 106.103 524.396 107.13 523.139 107.13Z" fill="#FFDE16" stroke="black" stroke-width="3" stroke-miterlimit="10"/>
<path d="M523.139 88.8762C534.483 88.8762 543.678 79.6813 543.678 68.3387C543.678 56.9962 534.483 47.8013 523.139 47.8013C511.795 47.8013 502.6 56.9962 502.6 68.3387C502.6 79.6813 511.795 88.8762 523.139 88.8762Z" fill="#FFDE16" stroke="black" stroke-width="3" stroke-miterlimit="10"/>
<path d="M523.139 43.8984C521.883 43.8984 520.855 42.8707 520.855 41.6147V31.2344C520.855 29.9783 521.883 28.9507 523.139 28.9507C524.396 28.9507 525.423 29.9783 525.423 31.2344V41.6147C525.423 42.8707 524.396 43.8984 523.139 43.8984Z" fill="#FFDE16" stroke="black" stroke-width="3" stroke-miterlimit="10"/>
<path d="M540.211 50.9675C539.323 50.08 539.323 48.6267 540.211 47.734L547.55 40.3951C548.438 39.5076 549.891 39.5076 550.784 40.3951C551.672 41.2826 551.672 42.7359 550.784 43.6286L543.444 50.9675C542.552 51.855 541.098 51.855 540.211 50.9675Z" fill="#FFDE16" stroke="black" stroke-width="3" stroke-miterlimit="10"/>
<path d="M495.494 95.6809C494.606 94.7934 494.606 93.3401 495.494 92.4474L502.833 85.1085C503.721 84.221 505.174 84.221 506.067 85.1085C506.955 85.996 506.955 87.4493 506.067 88.342L498.728 95.6809C497.835 96.5684 496.381 96.5684 495.494 95.6809Z" fill="#FFDE16" stroke="black" stroke-width="3" stroke-miterlimit="10"/>
<path d="M506.067 50.9675C505.18 51.855 503.726 51.855 502.833 50.9675L495.494 43.6286C494.606 42.7411 494.606 41.2878 495.494 40.3951C496.381 39.5076 497.835 39.5076 498.728 40.3951L506.067 47.734C506.955 48.6267 506.955 50.08 506.067 50.9675Z" fill="#FFDE16" stroke="black" stroke-width="3" stroke-miterlimit="10"/>
<path d="M550.779 95.6809C549.891 96.5684 548.438 96.5684 547.545 95.6809L540.206 88.342C539.318 87.4545 539.318 86.0012 540.206 85.1085C541.093 84.221 542.547 84.221 543.439 85.1085L550.779 92.4474C551.672 93.3349 551.672 94.7934 550.779 95.6809Z" fill="#FFDE16" stroke="black" stroke-width="3" stroke-miterlimit="10"/>
<path d="M498.992 68.0376C498.992 69.2936 497.964 70.3213 496.708 70.3213H486.327C485.071 70.3213 484.043 69.2936 484.043 68.0376C484.043 66.7816 485.071 65.7539 486.327 65.7539H496.708C497.964 65.7539 498.992 66.7816 498.992 68.0376Z" fill="#FFDE16" stroke="black" stroke-width="3" stroke-miterlimit="10"/>
<path d="M562.229 68.0376C562.229 69.2936 561.202 70.3213 559.945 70.3213H549.564C548.308 70.3213 547.28 69.2936 547.28 68.0376C547.28 66.7816 548.308 65.7539 549.564 65.7539H559.945C561.202 65.7539 562.229 66.7816 562.229 68.0376Z" fill="#FFDE16" stroke="black" stroke-width="3" stroke-miterlimit="10"/>
<path d="M251.648 194.397H229.816C226.208 194.397 223.255 191.444 223.255 187.837V166.007C223.255 162.4 226.208 159.447 229.816 159.447H251.648C255.255 159.447 258.209 162.4 258.209 166.007V187.837C258.209 191.444 255.255 194.397 251.648 194.397Z" fill="#25AAE1" stroke="black" stroke-width="3" stroke-miterlimit="10"/>
<path d="M344.348 194.397H322.516C318.909 194.397 315.955 191.444 315.955 187.837V166.007C315.955 162.4 318.909 159.447 322.516 159.447H344.348C347.955 159.447 350.909 162.4 350.909 166.007V187.837C350.909 191.444 347.955 194.397 344.348 194.397Z" fill="#25AAE1" stroke="black" stroke-width="3" stroke-miterlimit="10"/>
<path d="M345.183 233.111H227.049C224.293 233.111 222.04 230.858 222.04 228.102C222.04 225.346 224.293 223.094 227.049 223.094H345.178C347.934 223.094 350.187 225.346 350.187 228.102C350.192 230.853 347.939 233.111 345.183 233.111Z" fill="#25AAE1" stroke="black" stroke-width="3" stroke-miterlimit="10" stroke-linecap="round" stroke-linejoin="round"/>
<path d="M345.183 258.662H227.049C224.293 258.662 222.04 256.41 222.04 253.654C222.04 250.898 224.293 248.645 227.049 248.645H345.178C347.934 248.645 350.187 250.898 350.187 253.654C350.192 256.404 347.939 258.662 345.183 258.662Z" fill="#25AAE1" stroke="black" stroke-width="3" stroke-miterlimit="10" stroke-linecap="round" stroke-linejoin="round"/>
<path d="M345.183 282.21H227.049C224.293 282.21 222.04 279.957 222.04 277.201C222.04 274.445 224.293 272.193 227.049 272.193H345.178C347.934 272.193 350.187 274.445 350.187 277.201C350.192 279.957 347.939 282.21 345.183 282.21Z" fill="#25AAE1" stroke="black" stroke-width="3" stroke-miterlimit="10" stroke-linecap="round" stroke-linejoin="round"/>
<path d="M160.557 261.953C160.557 263.333 159.991 264.584 159.083 265.493C158.175 266.401 156.924 266.967 155.543 266.967H61.4572C58.701 266.967 56.4482 264.714 56.4482 261.958C56.4482 260.577 57.014 259.327 57.9224 258.418C58.8307 257.51 60.0817 256.944 61.4624 256.944H155.553C158.304 256.939 160.557 259.192 160.557 261.953Z" fill="#9E6CFF" stroke="black" stroke-width="3" stroke-miterlimit="10" stroke-linecap="round" stroke-linejoin="round"/>
<path d="M131.495 261.953C131.495 263.333 130.929 264.584 130.02 265.493C129.112 266.401 127.861 266.967 126.48 266.967H61.4572C58.701 266.967 56.4482 264.714 56.4482 261.958C56.4482 260.577 57.014 259.327 57.9224 258.418C58.8307 257.51 60.0817 256.944 61.4624 256.944H126.491C129.242 256.939 131.495 259.192 131.495 261.953Z" fill="#ED684A" stroke="black" stroke-width="3" stroke-miterlimit="10" stroke-linecap="round" stroke-linejoin="round"/>
<path d="M105.858 237.315C78.55 237.315 56.334 215.101 56.334 187.796C56.334 185.626 58.0936 183.872 60.2581 183.872C62.4278 183.872 64.1822 185.631 64.1822 187.796C64.1822 210.772 82.879 229.467 105.858 229.467C128.837 229.467 147.534 210.772 147.534 187.796C147.534 164.819 128.837 146.124 105.858 146.124C92.9748 146.124 81.0155 151.947 73.0531 162.094C71.7139 163.801 69.2483 164.097 67.5406 162.758C65.8329 161.419 65.537 158.954 66.8762 157.246C76.3387 145.184 90.5455 138.271 105.858 138.271C133.166 138.271 155.382 160.485 155.382 187.79C155.382 215.096 133.166 237.315 105.858 237.315Z" fill="#FFDE16" stroke="black" stroke-width="3" stroke-miterlimit="10"/>
<path d="M83.9121 295.99H56.1006V377.657H83.9121V295.99Z" fill="#00D384" stroke="black" stroke-width="3" stroke-miterlimit="10" stroke-linecap="round" stroke-linejoin="round"/>
<path d="M120.491 314.025H92.6797V377.657H120.491V314.025Z" fill="#00D384" stroke="black" stroke-width="3" stroke-miterlimit="10" stroke-linecap="round" stroke-linejoin="round"/>
<path d="M155.61 339.577H127.799V377.657H155.61V339.577Z" fill="#00D384" stroke="black" stroke-width="3" stroke-miterlimit="10" stroke-linecap="round" stroke-linejoin="round"/>
<path d="M107.68 216.585H107.379C106.544 216.585 105.858 215.9 105.858 215.065V207.176C105.858 206.34 106.544 205.655 107.379 205.655H107.68C108.516 205.655 109.201 206.34 109.201 207.176V215.065C109.196 215.9 108.516 216.585 107.68 216.585Z" fill="#FFDE16" stroke="black" stroke-width="3" stroke-miterlimit="10"/>
<path d="M107.525 203.246C115.816 203.246 122.536 196.526 122.536 188.237C122.536 179.947 115.816 173.227 107.525 173.227C99.2345 173.227 92.5137 179.947 92.5137 188.237C92.5137 196.526 99.2345 203.246 107.525 203.246Z" fill="#FFDE16" stroke="black" stroke-width="3" stroke-miterlimit="10"/>
<path d="M107.68 170.377H107.379C106.544 170.377 105.858 169.692 105.858 168.857V160.968C105.858 160.132 106.544 159.447 107.379 159.447H107.68C108.516 159.447 109.201 160.132 109.201 160.968V168.857C109.196 169.692 108.516 170.377 107.68 170.377Z" fill="#FFDE16" stroke="black" stroke-width="3" stroke-miterlimit="10"/>
<path d="M120.112 175.65L119.899 175.438C119.307 174.846 119.307 173.88 119.899 173.289L125.479 167.709C126.071 167.118 127.036 167.118 127.628 167.709L127.841 167.922C128.432 168.514 128.432 169.479 127.841 170.071L122.261 175.65C121.669 176.242 120.698 176.242 120.112 175.65Z" fill="#FFDE16" stroke="black" stroke-width="3" stroke-miterlimit="10"/>
<path d="M87.432 208.323L87.2192 208.11C86.6275 207.518 86.6275 206.553 87.2192 205.961L92.7991 200.382C93.3909 199.79 94.3563 199.79 94.9481 200.382L95.1609 200.595C95.7526 201.186 95.7526 202.152 95.1609 202.743L89.5809 208.323C88.9892 208.914 88.0237 208.914 87.432 208.323Z" fill="#FFDE16" stroke="black" stroke-width="3" stroke-miterlimit="10"/>
<path d="M95.1609 175.438L94.9481 175.65C94.3563 176.242 93.3909 176.242 92.7991 175.65L87.2192 170.071C86.6275 169.479 86.6275 168.514 87.2192 167.922L87.432 167.709C88.0237 167.118 88.9892 167.118 89.5809 167.709L95.1609 173.289C95.7474 173.88 95.7474 174.846 95.1609 175.438Z" fill="#FFDE16" stroke="black" stroke-width="3" stroke-miterlimit="10"/>
<path d="M127.836 208.11L127.623 208.323C127.031 208.914 126.066 208.914 125.474 208.323L119.894 202.743C119.302 202.152 119.302 201.186 119.894 200.595L120.107 200.382C120.699 199.79 121.664 199.79 122.256 200.382L127.836 205.961C128.427 206.553 128.427 207.518 127.836 208.11Z" fill="#FFDE16" stroke="black" stroke-width="3" stroke-miterlimit="10"/>
<path d="M89.8817 187.868V188.169C89.8817 189.005 89.1965 189.69 88.3608 189.69H80.4711C79.6354 189.69 78.9502 189.005 78.9502 188.169V187.868C78.9502 187.032 79.6354 186.347 80.4711 186.347H88.3608C89.2017 186.347 89.8817 187.032 89.8817 187.868Z" fill="#FFDE16" stroke="black" stroke-width="3" stroke-miterlimit="10"/>
<path d="M136.094 187.868V188.169C136.094 189.005 135.408 189.69 134.573 189.69H126.683C125.847 189.69 125.162 189.005 125.162 188.169V187.868C125.162 187.032 125.847 186.347 126.683 186.347H134.573C135.414 186.347 136.094 187.032 136.094 187.868Z" fill="#FFDE16" stroke="black" stroke-width="3" stroke-miterlimit="10"/>
<path d="M481.473 225.58L479.807 221.547C479.335 220.406 478.011 219.85 476.864 220.323L473.386 221.76C470.988 218.319 467.511 215.682 463.436 214.349L463.664 210.861C463.742 209.626 462.797 208.546 461.562 208.468L457.207 208.183C455.972 208.105 454.892 209.049 454.814 210.285L454.601 213.575C450.636 214.125 447.049 215.875 444.22 218.438L441.666 216.705C440.638 216.004 439.232 216.279 438.541 217.302L436.086 220.909C435.386 221.937 435.661 223.343 436.683 224.039L439.164 225.731C438.282 227.962 437.789 230.391 437.789 232.935C437.789 234.102 437.898 235.244 438.095 236.355L435.302 237.507C434.155 237.979 433.605 239.303 434.078 240.45L435.738 244.483C436.211 245.625 437.534 246.18 438.687 245.708L441.583 244.509C444.142 247.991 447.833 250.586 452.099 251.775L451.881 255.169C451.798 256.405 452.743 257.479 453.984 257.562L458.339 257.842C459.574 257.925 460.648 256.981 460.732 255.745L460.97 252.143C464.708 251.443 468.061 249.683 470.729 247.182L473.879 249.33C474.907 250.021 476.314 249.756 477.009 248.733L479.465 245.121C480.155 244.104 479.89 242.687 478.868 241.997L475.649 239.812C476.454 237.673 476.9 235.358 476.9 232.935C476.9 231.938 476.823 230.962 476.682 230.007L480.254 228.533C481.396 228.045 481.946 226.722 481.473 225.58ZM457.342 243.455C451.528 243.455 446.815 238.742 446.815 232.929C446.815 227.116 451.528 222.409 457.342 222.409C463.156 222.409 467.863 227.116 467.863 232.929C467.869 238.737 463.156 243.455 457.342 243.455Z" fill="#9E6CFF" stroke="black" stroke-width="2" stroke-miterlimit="10" stroke-linecap="round" stroke-linejoin="round"/>
<path d="M454.825 179.881H451.456C450.74 176.969 449.572 174.234 448.025 171.763L450.454 169.334C451.337 168.452 451.337 167.004 450.454 166.116L444.459 160.122C443.571 159.239 442.123 159.239 441.241 160.122L438.77 162.592C436.304 161.092 433.585 159.966 430.693 159.281V155.746C430.693 154.496 429.666 153.473 428.415 153.473H419.938C418.687 153.473 417.66 154.496 417.66 155.746V159.281C414.769 159.966 412.054 161.092 409.588 162.592L407.112 160.122C406.23 159.239 404.782 159.239 403.894 160.122L397.899 166.116C397.016 167.004 397.016 168.452 397.899 169.334L400.328 171.763C398.781 174.234 397.613 176.969 396.897 179.881H393.528C392.277 179.881 391.255 180.908 391.255 182.159V190.635C391.255 191.886 392.277 192.913 393.528 192.913H396.798C397.478 195.882 398.626 198.674 400.162 201.202L397.899 203.465C397.016 204.347 397.016 205.795 397.899 206.683L403.894 212.677C404.782 213.56 406.23 213.56 407.112 212.677L409.324 210.466C411.862 212.049 414.665 213.233 417.66 213.944V217.047C417.66 218.298 418.687 219.321 419.938 219.321H428.415C429.666 219.321 430.693 218.298 430.693 217.047V213.944C433.688 213.233 436.491 212.049 439.03 210.466L441.241 212.677C442.123 213.56 443.571 213.56 444.459 212.677L450.454 206.683C451.337 205.795 451.337 204.347 450.454 203.465L448.191 201.202C449.733 198.674 450.875 195.882 451.555 192.913H454.825C456.076 192.913 457.098 191.886 457.098 190.635V182.159C457.098 180.908 456.076 179.881 454.825 179.881ZM424.174 200.641C416.31 200.641 409.931 194.263 409.931 186.4C409.931 178.536 416.31 172.158 424.174 172.158C432.038 172.158 438.417 178.536 438.417 186.4C438.417 194.263 432.038 200.641 424.174 200.641Z" fill="#9E6CFF" stroke="black" stroke-width="2" stroke-miterlimit="10" stroke-linecap="round" stroke-linejoin="round"/>
<path d="M447.548 164.933L447.185 165.592L446.525 165.956L447.185 166.314L447.548 166.973L447.906 166.314L448.565 165.956L447.906 165.592L447.548 164.933Z" fill="black"/>
<path d="M444.693 164.933L444.33 165.592L443.671 165.956L444.33 166.314L444.693 166.973L445.052 166.314L445.711 165.956L445.052 165.592L444.693 164.933Z" fill="black"/>
<path d="M446.121 162.868L445.763 163.527L445.104 163.89L445.763 164.248L446.121 164.907L446.484 164.248L447.143 163.89L446.484 163.527L446.121 162.868Z" fill="black"/>
<path d="M444.693 160.807L444.33 161.466L443.671 161.824L444.33 162.188L444.693 162.847L445.052 162.188L445.711 161.824L445.052 161.466L444.693 160.807Z" fill="black"/>
<path d="M447.548 181.765L447.185 182.429L446.525 182.788L447.185 183.146L447.548 183.805L447.906 183.146L448.565 182.788L447.906 182.429L447.548 181.765Z" fill="black"/>
<path d="M448.976 179.705L448.618 180.364L447.959 180.722L448.618 181.085L448.976 181.744L449.34 181.085L449.999 180.722L449.34 180.364L448.976 179.705Z" fill="black"/>
<path d="M447.548 177.639L447.185 178.298L446.525 178.662L447.185 179.02L447.548 179.679L447.906 179.02L448.565 178.662L447.906 178.298L447.548 177.639Z" fill="black"/>
<path d="M448.976 175.573L448.618 176.232L447.959 176.596L448.618 176.954L448.976 177.613L449.34 176.954L449.999 176.596L449.34 176.232L448.976 175.573Z" fill="black"/>
<path d="M446.121 175.573L445.763 176.232L445.104 176.596L445.763 176.954L446.121 177.613L446.484 176.954L447.143 176.596L446.484 176.232L446.121 175.573Z" fill="black"/>
<path d="M447.548 173.425L447.185 174.084L446.525 174.442L447.185 174.805L447.548 175.465L447.906 174.805L448.565 174.442L447.906 174.084L447.548 173.425Z" fill="black"/>
<path d="M444.693 173.425L444.33 174.084L443.671 174.442L444.33 174.805L444.693 175.465L445.052 174.805L445.711 174.442L445.052 174.084L444.693 173.425Z" fill="black"/>
<path d="M446.121 171.359L445.763 172.018L445.104 172.376L445.763 172.739L446.121 173.399L446.484 172.739L447.143 172.376L446.484 172.018L446.121 171.359Z" fill="black"/>
<path d="M447.548 169.293L447.185 169.952L446.525 170.315L447.185 170.674L447.548 171.333L447.906 170.674L448.565 170.315L447.906 169.952L447.548 169.293Z" fill="black"/>
<path d="M444.693 169.293L444.33 169.952L443.671 170.315L444.33 170.674L444.693 171.333L445.052 170.674L445.711 170.315L445.052 169.952L444.693 169.293Z" fill="black"/>
<path d="M448.976 167.228L448.618 167.887L447.959 168.25L448.618 168.608L448.976 169.267L449.34 168.608L449.999 168.25L449.34 167.887L448.976 167.228Z" fill="black"/>
<path d="M446.121 167.228L445.763 167.887L445.104 168.25L445.763 168.608L446.121 169.267L446.484 168.608L447.143 168.25L446.484 167.887L446.121 167.228Z" fill="black"/>
<path d="M447.548 198.54L447.185 199.199L446.525 199.557L447.185 199.92L447.548 200.579L447.906 199.92L448.565 199.557L447.906 199.199L447.548 198.54Z" fill="black"/>
<path d="M444.693 198.54L444.33 199.199L443.671 199.557L444.33 199.92L444.693 200.579L445.052 199.92L445.711 199.557L445.052 199.199L444.693 198.54Z" fill="black"/>
<path d="M448.976 196.474L448.618 197.133L447.959 197.491L448.618 197.854L448.976 198.513L449.34 197.854L449.999 197.491L449.34 197.133L448.976 196.474Z" fill="black"/>
<path d="M446.121 196.474L445.763 197.133L445.104 197.491L445.763 197.854L446.121 198.513L446.484 197.854L447.143 197.491L446.484 197.133L446.121 196.474Z" fill="black"/>
<path d="M447.548 194.408L447.185 195.067L446.525 195.431L447.185 195.789L447.548 196.448L447.906 195.789L448.565 195.431L447.906 195.067L447.548 194.408Z" fill="black"/>
<path d="M448.976 192.342L448.618 193.001L447.959 193.365L448.618 193.723L448.976 194.382L449.34 193.723L449.999 193.365L449.34 193.001L448.976 192.342Z" fill="black"/>
<path d="M448.976 188.128L448.618 188.787L447.959 189.145L448.618 189.509L448.976 190.168L449.34 189.509L449.999 189.145L449.34 188.787L448.976 188.128Z" fill="black"/>
<path d="M448.976 183.997L448.618 184.656L447.959 185.019L448.618 185.377L448.976 186.036L449.34 185.377L449.999 185.019L449.34 184.656L448.976 183.997Z" fill="black"/>
<path d="M444.693 211.245L444.33 211.904L443.671 212.262L444.33 212.62L444.693 213.285L445.052 212.62L445.711 212.262L445.052 211.904L444.693 211.245Z" fill="black"/>
<path d="M446.121 209.179L445.763 209.838L445.104 210.196L445.763 210.56L446.121 211.219L446.484 210.56L447.143 210.196L446.484 209.838L446.121 209.179Z" fill="black"/>
<path d="M447.548 207.025L447.185 207.685L446.525 208.048L447.185 208.406L447.548 209.065L447.906 208.406L448.565 208.048L447.906 207.685L447.548 207.025Z" fill="black"/>
<path d="M444.693 207.025L444.33 207.685L443.671 208.048L444.33 208.406L444.693 209.065L445.052 208.406L445.711 208.048L445.052 207.685L444.693 207.025Z" fill="black"/>
<path d="M448.976 204.959L448.618 205.619L447.959 205.982L448.618 206.34L448.976 206.999L449.34 206.34L449.999 205.982L449.34 205.619L448.976 204.959Z" fill="black"/>
<path d="M446.121 204.959L445.763 205.619L445.104 205.982L445.763 206.34L446.121 206.999L446.484 206.34L447.143 205.982L446.484 205.619L446.121 204.959Z" fill="black"/>
<path d="M447.548 202.899L447.185 203.559L446.525 203.917L447.185 204.28L447.548 204.939L447.906 204.28L448.565 203.917L447.906 203.559L447.548 202.899Z" fill="black"/>
<path d="M448.976 200.833L448.618 201.493L447.959 201.851L448.618 202.214L448.976 202.873L449.34 202.214L449.999 201.851L449.34 201.493L448.976 200.833Z" fill="black"/>
<path d="M446.121 200.833L445.763 201.493L445.104 201.851L445.763 202.214L446.121 202.873L446.484 202.214L447.143 201.851L446.484 201.493L446.121 200.833Z" fill="black"/>
<path d="M453.309 181.765L452.951 182.429L452.292 182.787L452.951 183.145L453.309 183.804L453.673 183.145L454.332 182.787L453.673 182.429L453.309 181.765Z" fill="black"/>
<path d="M450.455 181.765L450.097 182.429L449.438 182.787L450.097 183.145L450.455 183.804L450.818 183.145L451.477 182.787L450.818 182.429L450.455 181.765Z" fill="black"/>
<path d="M454.742 179.704L454.384 180.363L453.725 180.721L454.384 181.085L454.742 181.744L455.105 181.085L455.765 180.721L455.105 180.363L454.742 179.704Z" fill="black"/>
<path d="M451.888 179.704L451.53 180.363L450.865 180.721L451.53 181.085L451.888 181.744L452.246 181.085L452.905 180.721L452.246 180.363L451.888 179.704Z" fill="black"/>
<path d="M450.455 177.639L450.097 178.298L449.438 178.661L450.097 179.019L450.455 179.678L450.818 179.019L451.477 178.661L450.818 178.298L450.455 177.639Z" fill="black"/>
<path d="M450.455 194.408L450.097 195.067L449.438 195.431L450.097 195.789L450.455 196.448L450.818 195.789L451.477 195.431L450.818 195.067L450.455 194.408Z" fill="black"/>
<path d="M451.888 192.342L451.53 193.001L450.865 193.365L451.53 193.723L451.888 194.382L452.246 193.723L452.905 193.365L452.246 193.001L451.888 192.342Z" fill="black"/>
<path d="M453.309 190.194L452.951 190.853L452.292 191.211L452.951 191.574L453.309 192.234L453.673 191.574L454.332 191.211L453.673 190.853L453.309 190.194Z" fill="black"/>
<path d="M450.455 190.194L450.097 190.853L449.438 191.211L450.097 191.574L450.455 192.234L450.818 191.574L451.477 191.211L450.818 190.853L450.455 190.194Z" fill="black"/>
<path d="M454.742 188.128L454.384 188.787L453.725 189.145L454.384 189.509L454.742 190.168L455.105 189.509L455.765 189.145L455.105 188.787L454.742 188.128Z" fill="black"/>
<path d="M451.888 188.128L451.53 188.787L450.865 189.145L451.53 189.509L451.888 190.168L452.246 189.509L452.905 189.145L452.246 188.787L451.888 188.128Z" fill="black"/>
<path d="M453.309 186.062L452.951 186.722L452.292 187.085L452.951 187.443L453.309 188.102L453.673 187.443L454.332 187.085L453.673 186.722L453.309 186.062Z" fill="black"/>
<path d="M450.455 186.062L450.097 186.722L449.438 187.085L450.097 187.443L450.455 188.102L450.818 187.443L451.477 187.085L450.818 186.722L450.455 186.062Z" fill="black"/>
<path d="M454.742 183.997L454.384 184.656L453.725 185.019L454.384 185.377L454.742 186.036L455.105 185.377L455.765 185.019L455.105 184.656L454.742 183.997Z" fill="black"/>
<path d="M451.888 183.997L451.53 184.656L450.865 185.019L451.53 185.377L451.888 186.036L452.246 185.377L452.905 185.019L452.246 184.656L451.888 183.997Z" fill="black"/>
<path d="M450.455 202.899L450.097 203.559L449.438 203.917L450.097 204.28L450.455 204.939L450.818 204.28L451.477 203.917L450.818 203.559L450.455 202.899Z" fill="black"/>
<path d="M456.247 190.064L455.884 190.723L455.225 191.081L455.884 191.445L456.247 192.104L456.605 191.445L457.265 191.081L456.605 190.723L456.247 190.064Z" fill="black"/>
<path d="M456.247 185.933L455.884 186.592L455.225 186.955L455.884 187.313L456.247 187.972L456.605 187.313L457.265 186.955L456.605 186.592L456.247 185.933Z" fill="black"/>
<path d="M456.247 181.718L455.884 182.377L455.225 182.736L455.884 183.099L456.247 183.758L456.605 183.099L457.265 182.736L456.605 182.377L456.247 181.718Z" fill="black"/>
<path d="M441.527 164.933L441.169 165.592L440.51 165.956L441.169 166.314L441.527 166.973L441.89 166.314L442.55 165.956L441.89 165.592L441.527 164.933Z" fill="black"/>
<path d="M442.959 162.867L442.596 163.526L441.937 163.89L442.596 164.248L442.959 164.907L443.317 164.248L443.977 163.89L443.317 163.526L442.959 162.867Z" fill="black"/>
<path d="M440.146 162.867L439.788 163.526L439.129 163.89L439.788 164.248L440.146 164.907L440.51 164.248L441.169 163.89L440.51 163.526L440.146 162.867Z" fill="black"/>
<path d="M441.527 160.807L441.169 161.466L440.51 161.824L441.169 162.188L441.527 162.847L441.89 162.188L442.55 161.824L441.89 161.466L441.527 160.807Z" fill="black"/>
<path d="M442.959 159.463L442.596 159.4L441.937 159.759L442.596 160.122L442.959 160.781L443.317 160.122L443.977 159.759L443.317 159.4L442.959 159.463Z" fill="black"/>
<path d="M442.959 171.358L442.596 172.018L441.937 172.376L442.596 172.739L442.959 173.398L443.317 172.739L443.977 172.376L443.317 172.018L442.959 171.358Z" fill="black"/>
<path d="M442.959 167.227L442.596 167.886L441.937 168.25L442.596 168.608L442.959 169.267L443.317 168.608L443.977 168.25L443.317 167.886L442.959 167.227Z" fill="black"/>
<path d="M441.527 211.245L441.169 211.904L440.51 212.262L441.169 212.62L441.527 213.285L441.89 212.62L442.55 212.262L441.89 211.904L441.527 211.245Z" fill="black"/>
<path d="M442.959 209.179L442.596 209.838L441.937 210.196L442.596 210.56L442.959 211.219L443.317 210.56L443.977 210.196L443.317 209.838L442.959 209.179Z" fill="black"/>
<path d="M440.146 209.179L439.788 209.838L439.129 210.196L439.788 210.56L440.146 211.219L440.51 210.56L441.169 210.196L440.51 209.838L440.146 209.179Z" fill="black"/>
<path d="M478.884 226.27L478.525 226.929L477.866 227.292L478.525 227.651L478.884 228.31L479.247 227.651L479.906 227.292L479.247 226.929L478.884 226.27Z" fill="black"/>
<path d="M476.029 226.27L475.671 226.929L475.012 227.292L475.671 227.651L476.029 228.31L476.392 227.651L477.052 227.292L476.392 226.929L476.029 226.27Z" fill="black"/>
<path d="M480.316 224.204L479.953 224.863L479.294 225.227L479.953 225.585L480.316 226.244L480.675 225.585L481.334 225.227L480.675 224.863L480.316 224.204Z" fill="black"/>
<path d="M477.462 224.204L477.099 224.863L476.439 225.227L477.099 225.585L477.462 226.244L477.82 225.585L478.479 225.227L477.82 224.863L477.462 224.204Z" fill="black"/>
<path d="M478.884 222.144L478.525 222.803L477.866 223.161L478.525 223.525L478.884 224.184L479.247 223.525L479.906 223.161L479.247 222.803L478.884 222.144Z" fill="black"/>
<path d="M476.029 222.144L475.671 222.803L475.012 223.161L475.671 223.525L476.029 224.184L476.392 223.525L477.052 223.161L476.392 222.803L476.029 222.144Z" fill="black"/>
<path d="M477.462 220.078L477.099 220.737L476.439 221.095L477.099 221.459L477.462 222.118L477.82 221.459L478.479 221.095L477.82 220.737L477.462 220.078Z" fill="black"/>
<path d="M478.884 243.04L478.525 243.699L477.866 244.062L478.525 244.42L478.884 245.079L479.247 244.42L479.906 244.062L479.247 243.699L478.884 243.04Z" fill="black"/>
<path d="M476.029 243.04L475.671 243.699L475.012 244.062L475.671 244.42L476.029 245.079L476.392 244.42L477.052 244.062L476.392 243.699L476.029 243.04Z" fill="black"/>
<path d="M477.462 240.974L477.099 241.633L476.439 241.997L477.099 242.355L477.462 243.014L477.82 242.355L478.479 241.997L477.82 241.633L477.462 240.974Z" fill="black"/>
<path d="M476.029 238.914L475.671 239.573L475.012 239.931L475.671 240.294L476.029 240.953L476.392 240.294L477.052 239.931L476.392 239.573L476.029 238.914Z" fill="black"/>
<path d="M476.029 234.694L475.671 235.353L475.012 235.716L475.671 236.074L476.029 236.734L476.392 236.074L477.052 235.716L476.392 235.353L476.029 234.694Z" fill="black"/>
<path d="M476.029 230.567L475.671 231.227L475.012 231.585L475.671 231.948L476.029 232.607L476.392 231.948L477.052 231.585L476.392 231.227L476.029 230.567Z" fill="black"/>
<path d="M477.462 228.502L477.099 229.161L476.439 229.519L477.099 229.883L477.462 230.542L477.82 229.883L478.479 229.519L477.82 229.161L477.462 228.502Z" fill="black"/>
<path d="M476.029 247.399L475.671 248.059L475.012 248.422L475.671 248.78L476.029 249.439L476.392 248.78L477.052 248.422L476.392 248.059L476.029 247.399Z" fill="black"/>
<path d="M477.462 245.333L477.099 245.993L476.439 246.356L477.099 246.714L477.462 247.373L477.82 246.714L478.479 246.356L477.82 245.993L477.462 245.333Z" fill="black"/>
<path d="M472.867 226.27L472.504 226.929L471.845 227.292L472.504 227.651L472.867 228.31L473.225 227.651L473.885 227.292L473.225 226.929L472.867 226.27Z" fill="black"/>
<path d="M474.296 224.204L473.938 224.863L473.278 225.227L473.938 225.585L474.296 226.244L474.659 225.585L475.318 225.227L474.659 224.863L474.296 224.204Z" fill="black"/>
<path d="M472.867 222.144L472.504 222.803L471.845 223.161L472.504 223.525L472.867 224.184L473.225 223.525L473.885 223.161L473.225 222.803L472.867 222.144Z" fill="black"/>
<path d="M471.487 220.078L471.124 220.737L470.465 221.095L471.124 221.459L471.487 222.118L471.846 221.459L472.505 221.095L471.846 220.737L471.487 220.078Z" fill="black"/>
<path d="M470.054 217.924L469.696 218.583L469.037 218.947L469.696 219.305L470.054 219.964L470.418 219.305L471.077 218.947L470.418 218.583L470.054 217.924Z" fill="black"/>
<path d="M472.868 243.04L472.505 243.699L471.846 244.062L472.505 244.42L472.868 245.079L473.226 244.42L473.886 244.062L473.226 243.699L472.868 243.04Z" fill="black"/>
<path d="M474.296 240.974L473.938 241.633L473.278 241.997L473.938 242.355L474.296 243.014L474.659 242.355L475.318 241.997L474.659 241.633L474.296 240.974Z" fill="black"/>
<path d="M472.868 238.914L472.505 239.573L471.846 239.931L472.505 240.294L472.868 240.953L473.226 240.294L473.886 239.931L473.226 239.573L472.868 238.914Z" fill="black"/>
<path d="M474.296 236.848L473.938 237.507L473.278 237.865L473.938 238.228L474.296 238.887L474.659 238.228L475.318 237.865L474.659 237.507L474.296 236.848Z" fill="black"/>
<path d="M474.296 232.628L473.938 233.287L473.278 233.65L473.938 234.009L474.296 234.668L474.659 234.009L475.318 233.65L474.659 233.287L474.296 232.628Z" fill="black"/>
<path d="M474.296 228.502L473.938 229.161L473.278 229.519L473.938 229.883L474.296 230.542L474.659 229.883L475.318 229.519L474.659 229.161L474.296 228.502Z" fill="black"/>
<path d="M472.868 247.399L472.505 248.059L471.846 248.422L472.505 248.78L472.868 249.439L473.226 248.78L473.886 248.422L473.226 248.059L472.868 247.399Z" fill="black"/>
<path d="M474.296 245.333L473.938 245.993L473.278 246.356L473.938 246.714L474.296 247.373L474.659 246.714L475.318 246.356L474.659 245.993L474.296 245.333Z" fill="black"/>
<path d="M471.487 245.333L471.124 245.993L470.465 246.356L471.124 246.714L471.487 247.373L471.846 246.714L472.505 246.356L471.846 245.993L471.487 245.333Z" fill="black"/>
<path d="M196.29 373.328C205.552 373.328 213.061 365.82 213.061 356.559C213.061 347.297 205.552 339.79 196.29 339.79C187.027 339.79 179.519 347.297 179.519 356.559C179.519 365.82 187.027 373.328 196.29 373.328Z" fill="#00D384" stroke="black" stroke-width="3" stroke-miterlimit="10" stroke-linecap="round" stroke-linejoin="round"/>
<path d="M189.163 359.33L192.568 363.337L205.446 351.561" fill="#00D384"/>
<path d="M189.163 359.33L192.568 363.337L205.446 351.561" stroke="black" stroke-width="3" stroke-miterlimit="10" stroke-linecap="round" stroke-linejoin="round"/>
<path d="M300.798 363.337H229.987C226.411 363.337 223.488 360.415 223.488 356.839C223.488 353.263 226.411 350.341 229.987 350.341H300.798C304.374 350.341 307.296 353.263 307.296 356.839C307.291 360.415 304.369 363.337 300.798 363.337Z" fill="#00D384" stroke="black" stroke-width="3" stroke-miterlimit="10" stroke-linecap="round" stroke-linejoin="round"/>
<path d="M342.401 373.328C351.663 373.328 359.172 365.82 359.172 356.559C359.172 347.297 351.663 339.79 342.401 339.79C333.139 339.79 325.63 347.297 325.63 356.559C325.63 365.82 333.139 373.328 342.401 373.328Z" fill="#00D384" stroke="black" stroke-width="3" stroke-miterlimit="10" stroke-linecap="round" stroke-linejoin="round"/>
<path d="M335.279 359.33L338.684 363.337L351.562 351.561" fill="#00D384"/>
<path d="M335.279 359.33L338.684 363.337L351.562 351.561" stroke="black" stroke-width="3" stroke-miterlimit="10" stroke-linecap="round" stroke-linejoin="round"/>
<path d="M446.91 363.337H376.099C372.523 363.337 369.601 360.415 369.601 356.839C369.601 353.263 372.523 350.341 376.099 350.341H446.91C450.486 350.341 453.409 353.263 453.409 356.839C453.409 360.415 450.486 363.337 446.91 363.337Z" fill="#00D384" stroke="black" stroke-width="3" stroke-miterlimit="10" stroke-linecap="round" stroke-linejoin="round"/>
</g>
<defs>
<clipPath id="clip0energeautonomy">
<rect width="587" height="430" fill="white"/>
</clipPath>
</defs>
</svg>
