<svg width="260" height="480" viewBox="0 0 260 480" fill="none" xmlns="http://www.w3.org/2000/svg">
<path d="M180.499 76.1398L159.754 82.1045C156.623 82.1045 154.064 73.5788 154.064 70.4513V28.8667C154.064 25.7392 156.623 15.7621 159.754 15.7621L180.499 23.1782C184.047 24.4236 186.188 26.404 186.188 30.393V68.5972C186.188 73.2744 184.112 74.8335 180.499 76.1398Z" fill="#9E6CFF" stroke="black" stroke-width="2" stroke-miterlimit="10"/>
<path d="M148.412 90.0075H74.6357V102.747H148.412V90.0075Z" fill="#B394FF" stroke="black" stroke-width="2" stroke-miterlimit="10"/>
<path d="M158.259 90.0075H148.412V102.747H158.259V90.0075Z" fill="#9E6CFF" stroke="black" stroke-width="2" stroke-miterlimit="10"/>
<path d="M159.862 90.0075H81.7268C80.1379 90.0075 78.835 88.706 78.835 87.1188V4.13691C78.835 2.54975 80.1379 1.24818 81.7268 1.24818H159.862C162.534 1.24818 164.718 3.42995 164.718 6.09863V85.1524C164.718 87.8211 162.534 90.0075 159.862 90.0075Z" fill="#9E6CFF" stroke="black" stroke-width="2" stroke-miterlimit="10"/>
<path d="M185.41 125H80.4049C78.741 125 77.3818 123.642 77.3818 121.98V101.408C77.3818 99.7459 78.741 98.3881 80.4049 98.3881H186.629C189.408 98.3881 191.681 100.659 191.681 103.435V118.736C191.676 122.182 188.86 125 185.41 125Z" fill="#9E6CFF" stroke="black" stroke-width="2" stroke-miterlimit="10"/>
<path d="M141.011 90.0075H66.3772C63.2839 90.0075 60.7529 87.4793 60.7529 84.3893V6.86646C60.7529 3.77641 63.2839 1.24818 66.3772 1.24818H141.011C144.105 1.24818 146.636 3.77641 146.636 6.86646V84.3893C146.636 87.4793 144.105 90.0075 141.011 90.0075Z" fill="#B394FF" stroke="black" stroke-width="2" stroke-miterlimit="10"/>
<path d="M130.354 84.9277C132.66 84.9277 134.53 83.06 134.53 80.7561C134.53 78.4522 132.66 76.5845 130.354 76.5845C128.047 76.5845 126.178 78.4522 126.178 80.7561C126.178 83.06 128.047 84.9277 130.354 84.9277Z" fill="black" stroke="black" stroke-width="2" stroke-miterlimit="10"/>
<path d="M156.286 125H54.0133C50.7043 125 48 122.299 48 118.993V104.4C48 101.094 50.7043 98.3928 54.0133 98.3928H156.286C159.595 98.3928 162.299 101.094 162.299 104.4V118.993C162.299 122.299 159.59 125 156.286 125Z" fill="#B394FF" stroke="black" stroke-width="2" stroke-miterlimit="10"/>
<path d="M164.718 80.4284L180.499 75.8916H180.503C184.117 74.59 186.193 73.031 186.193 68.3491V30.1495C186.193 26.1558 184.047 24.1801 180.503 22.9347L164.722 17.293" stroke="black" stroke-width="2" stroke-miterlimit="10"/>
<path d="M83.072 98.1446H74.6356H53.7602C50.5919 98.1446 48 100.734 48 103.899V118.998C48 122.163 50.5919 124.752 53.7602 124.752H83.072H156.534C159.703 124.752 162.295 122.163 162.295 118.998V103.828C162.295 101.277 160.589 99.0997 158.259 98.3881C157.734 98.2289 157.176 98.1399 156.605 98.1399H148.417" stroke="black" stroke-width="2" stroke-miterlimit="10"/>
<path d="M83.0723 124.757H156.605H185.917C189.085 124.757 191.677 122.167 191.677 119.002V103.903C191.677 100.738 189.085 98.1493 185.917 98.1493H158.259H156.605H148.417" stroke="black" stroke-width="2" stroke-miterlimit="10"/>
<path d="M74.6357 98.1446V90.073C74.6357 90.0356 74.6685 90.0028 74.706 90.0028H84.5251H140.946H148.347C148.384 90.0028 148.417 90.0356 148.417 90.073V98.0791C148.417 98.1165 148.384 98.1493 148.347 98.1493H83.0721" stroke="black" stroke-width="2" stroke-miterlimit="10"/>
<path d="M140.974 89.7593H66.4196C63.3028 89.7593 60.7578 87.2124 60.7578 84.1036V6.65573C60.7578 3.54227 63.3075 1 66.4196 1H140.979C144.095 1 146.64 3.54695 146.64 6.65573V84.0989C146.64 87.2124 144.091 89.7593 140.974 89.7593Z" stroke="black" stroke-width="2" stroke-miterlimit="10"/>
<path d="M137.337 68.4708H69.1098C69.0863 68.4708 69.0723 68.452 69.0723 68.4333V13.4164C69.0723 13.393 69.091 13.3789 69.1098 13.3789H137.337C137.36 13.3789 137.374 13.3976 137.374 13.4164V68.4333C137.374 68.4567 137.36 68.4708 137.337 68.4708Z" fill="#25AAE1" stroke="black" stroke-width="2" stroke-miterlimit="10"/>
<path d="M77.3818 81.8563H71.5185C70.881 81.8563 70.2577 81.4817 70.089 80.8684C69.9484 80.3534 70.103 79.8477 70.4405 79.52C70.6889 79.2672 71.031 79.1174 71.406 79.1174H77.3818" fill="black"/>
<path d="M77.3818 81.8563H71.5185C70.881 81.8563 70.2577 81.4817 70.089 80.8684C69.9484 80.3534 70.103 79.8477 70.4405 79.52C70.6889 79.2672 71.031 79.1174 71.406 79.1174H77.3818" stroke="black" stroke-width="2" stroke-miterlimit="10"/>
<path d="M85.0498 79.1174H90.2241C90.8616 79.1174 91.4849 79.4919 91.6536 80.1052C91.7942 80.6203 91.6396 81.1259 91.3021 81.4536C91.0537 81.7064 90.7116 81.8563 90.3366 81.8563H85.0498" fill="black"/>
<path d="M85.0498 79.1174H90.2241C90.8616 79.1174 91.4849 79.4919 91.6536 80.1052C91.7942 80.6203 91.6396 81.1259 91.3021 81.4536C91.0537 81.7064 90.7116 81.8563 90.3366 81.8563H85.0498" stroke="black" stroke-width="2" stroke-miterlimit="10"/>
<path d="M85.0121 83.832H77.4193C77.3959 83.832 77.3818 83.8133 77.3818 83.7946V77.2212C77.3818 77.1978 77.4006 77.1838 77.4193 77.1838H85.0121C85.0355 77.1838 85.0496 77.2025 85.0496 77.2212V83.7946C85.0496 83.8133 85.0308 83.832 85.0121 83.832Z" stroke="black" stroke-width="2" stroke-miterlimit="10"/>
<path d="M130.354 84.6795C132.66 84.6795 134.53 82.8118 134.53 80.5079C134.53 78.204 132.66 76.3363 130.354 76.3363C128.047 76.3363 126.178 78.204 126.178 80.5079C126.178 82.8118 128.047 84.6795 130.354 84.6795Z" stroke="black" stroke-width="2" stroke-miterlimit="10"/>
<path d="M98.773 105.359V118.263C98.773 119.082 98.1028 119.752 97.2826 119.752H60.6311C59.8109 119.752 59.1406 119.082 59.1406 118.263V105.359C59.1406 104.54 59.8109 103.871 60.6311 103.871H97.2826C98.1028 103.871 98.773 104.54 98.773 105.359Z" fill="#9E6CFF" stroke="black" stroke-width="2" stroke-miterlimit="10"/>
<path d="M94.7188 115.978H63.1947C63.1713 115.978 63.1572 115.959 63.1572 115.941V107.799C63.1572 107.775 63.176 107.761 63.1947 107.761H94.7188C94.7422 107.761 94.7563 107.78 94.7563 107.799V115.941C94.7563 115.964 94.7422 115.978 94.7188 115.978Z" fill="#9E6CFF" stroke="black" stroke-width="2" stroke-miterlimit="10"/>
<path d="M85.0872 112.42H66.6771C66.5271 112.42 66.4053 112.298 66.4053 112.148V111.722C66.4053 111.572 66.5271 111.451 66.6771 111.451H85.0872C85.2372 111.451 85.3591 111.572 85.3591 111.722V112.148C85.3591 112.298 85.2372 112.42 85.0872 112.42Z" fill="black"/>
<path d="M91.6823 113.983H87.5297C87.5062 113.983 87.4922 113.965 87.4922 113.946V109.798C87.4922 109.774 87.5109 109.76 87.5297 109.76H91.6823C91.7057 109.76 91.7198 109.779 91.7198 109.798V113.946C91.7198 113.965 91.701 113.983 91.6823 113.983Z" fill="black"/>
<path d="M167.831 71.7902L168.238 71.0411L168.988 70.6338L168.238 70.2265L167.831 69.482L167.423 70.2265L166.673 70.6338L167.423 71.0411L167.831 71.7902Z" fill="black"/>
<path d="M171.017 71.7902L171.425 71.0411L172.175 70.6338L171.425 70.2265L171.017 69.482L170.609 70.2265L169.859 70.6338L170.609 71.0411L171.017 71.7902Z" fill="black"/>
<path d="M174.256 71.7902L174.664 71.0411L175.409 70.6338L174.664 70.2265L174.256 69.482L173.844 70.2265L173.099 70.6338L173.844 71.0411L174.256 71.7902Z" fill="black"/>
<path d="M166.208 74.1265L166.616 73.3821L167.366 72.9747L166.616 72.5627L166.208 71.8183L165.801 72.5627L165.051 72.9747L165.801 73.3821L166.208 74.1265Z" fill="black"/>
<path d="M169.396 74.1265L169.804 73.3821L170.554 72.9747L169.804 72.5627L169.396 71.8183L168.988 72.5627L168.238 72.9747L168.988 73.3821L169.396 74.1265Z" fill="black"/>
<path d="M172.63 74.1265L173.042 73.3821L173.787 72.9747L173.042 72.5627L172.63 71.8183L172.222 72.5627L171.477 72.9747L172.222 73.3821L172.63 74.1265Z" fill="black"/>
<path d="M167.831 76.4674L168.238 75.7183L168.988 75.311L168.238 74.9037L167.831 74.1546L167.423 74.9037L166.673 75.311L167.423 75.7183L167.831 76.4674Z" fill="black"/>
<path d="M171.017 76.4674L171.425 75.7183L172.175 75.311L171.425 74.9037L171.017 74.1546L170.609 74.9037L169.859 75.311L170.609 75.7183L171.017 76.4674Z" fill="black"/>
<path d="M174.256 76.4674L174.664 75.7183L175.409 75.311L174.664 74.9037L174.256 74.1546L173.844 74.9037L173.099 75.311L173.844 75.7183L174.256 76.4674Z" fill="black"/>
<path d="M166.208 78.8037L166.616 78.0593L167.366 77.6473L166.616 77.24L166.208 76.4955L165.801 77.24L165.051 77.6473L165.801 78.0593L166.208 78.8037Z" fill="black"/>
<path d="M169.396 78.8037L169.804 78.0593L170.554 77.6473L169.804 77.24L169.396 76.4955L168.988 77.24L168.238 77.6473L168.988 78.0593L169.396 78.8037Z" fill="black"/>
<path d="M167.831 52.7256L168.238 51.9812L168.988 51.5692L168.238 51.1618L167.831 50.4174L167.423 51.1618L166.673 51.5692L167.423 51.9812L167.831 52.7256Z" fill="black"/>
<path d="M171.017 52.7256L171.425 51.9812L172.175 51.5692L171.425 51.1618L171.017 50.4174L170.609 51.1618L169.859 51.5692L170.609 51.9812L171.017 52.7256Z" fill="black"/>
<path d="M174.256 52.7256L174.664 51.9812L175.409 51.5692L174.664 51.1618L174.256 50.4174L173.844 51.1618L173.099 51.5692L173.844 51.9812L174.256 52.7256Z" fill="black"/>
<path d="M166.208 55.0665L166.616 54.3174L167.366 53.9101L166.616 53.5028L166.208 52.7537L165.801 53.5028L165.051 53.9101L165.801 54.3174L166.208 55.0665Z" fill="black"/>
<path d="M169.396 55.0665L169.804 54.3174L170.554 53.9101L169.804 53.5028L169.396 52.7537L168.988 53.5028L168.238 53.9101L168.988 54.3174L169.396 55.0665Z" fill="black"/>
<path d="M172.63 55.0665L173.042 54.3174L173.787 53.9101L173.042 53.5028L172.63 52.7537L172.222 53.5028L171.477 53.9101L172.222 54.3174L172.63 55.0665Z" fill="black"/>
<path d="M167.831 57.4028L168.238 56.6537L168.988 56.2464L168.238 55.839L167.831 55.0899L167.423 55.839L166.673 56.2464L167.423 56.6537L167.831 57.4028Z" fill="black"/>
<path d="M171.017 57.4028L171.425 56.6537L172.175 56.2464L171.425 55.839L171.017 55.0899L170.609 55.839L169.859 56.2464L170.609 56.6537L171.017 57.4028Z" fill="black"/>
<path d="M174.256 57.4028L174.664 56.6537L175.409 56.2464L174.664 55.839L174.256 55.0899L173.844 55.839L173.099 56.2464L173.844 56.6537L174.256 57.4028Z" fill="black"/>
<path d="M166.208 59.7391L166.616 58.9947L167.366 58.5826L166.616 58.1753L166.208 57.4309L165.801 58.1753L165.051 58.5826L165.801 58.9947L166.208 59.7391Z" fill="black"/>
<path d="M169.396 59.7391L169.804 58.9947L170.554 58.5826L169.804 58.1753L169.396 57.4309L168.988 58.1753L168.238 58.5826L168.988 58.9947L169.396 59.7391Z" fill="black"/>
<path d="M172.63 59.7391L173.042 58.9947L173.787 58.5826L173.042 58.1753L172.63 57.4309L172.222 58.1753L171.477 58.5826L172.222 58.9947L172.63 59.7391Z" fill="black"/>
<path d="M167.831 62.1783L168.238 61.4292L168.988 61.0219L168.238 60.6146L167.831 59.8655L167.423 60.6146L166.673 61.0219L167.423 61.4292L167.831 62.1783Z" fill="black"/>
<path d="M171.017 62.1783L171.425 61.4292L172.175 61.0219L171.425 60.6146L171.017 59.8655L170.609 60.6146L169.859 61.0219L170.609 61.4292L171.017 62.1783Z" fill="black"/>
<path d="M174.256 62.1783L174.664 61.4292L175.409 61.0219L174.664 60.6146L174.256 59.8655L173.844 60.6146L173.099 61.0219L173.844 61.4292L174.256 62.1783Z" fill="black"/>
<path d="M166.208 64.5146L166.616 63.7701L167.366 63.3628L166.616 62.9508L166.208 62.2064L165.801 62.9508L165.051 63.3628L165.801 63.7701L166.208 64.5146Z" fill="black"/>
<path d="M169.396 64.5146L169.804 63.7701L170.554 63.3628L169.804 62.9508L169.396 62.2064L168.988 62.9508L168.238 63.3628L168.988 63.7701L169.396 64.5146Z" fill="black"/>
<path d="M172.63 64.5146L173.042 63.7701L173.787 63.3628L173.042 62.9508L172.63 62.2064L172.222 62.9508L171.477 63.3628L172.222 63.7701L172.63 64.5146Z" fill="black"/>
<path d="M167.831 66.8509L168.238 66.1065L168.988 65.6991L168.238 65.2918L167.831 64.5427L167.423 65.2918L166.673 65.6991L167.423 66.1065L167.831 66.8509Z" fill="black"/>
<path d="M171.017 66.8509L171.425 66.1065L172.175 65.6991L171.425 65.2918L171.017 64.5427L170.609 65.2918L169.859 65.6991L170.609 66.1065L171.017 66.8509Z" fill="black"/>
<path d="M174.256 66.8509L174.664 66.1065L175.409 65.6991L174.664 65.2918L174.256 64.5427L173.844 65.2918L173.099 65.6991L173.844 66.1065L174.256 66.8509Z" fill="black"/>
<path d="M166.208 69.1918L166.616 68.4427L167.366 68.0354L166.616 67.628L166.208 66.8789L165.801 67.628L165.051 68.0354L165.801 68.4427L166.208 69.1918Z" fill="black"/>
<path d="M169.396 69.1918L169.804 68.4427L170.554 68.0354L169.804 67.628L169.396 66.8789L168.988 67.628L168.238 68.0354L168.988 68.4427L169.396 69.1918Z" fill="black"/>
<path d="M172.63 69.1918L173.042 68.4427L173.787 68.0354L173.042 67.628L172.63 66.8789L172.222 67.628L171.477 68.0354L172.222 68.4427L172.63 69.1918Z" fill="black"/>
<path d="M167.831 33.7358L168.238 32.9867L168.988 32.5794L168.238 32.172L167.831 31.4229L167.423 32.172L166.673 32.5794L167.423 32.9867L167.831 33.7358Z" fill="black"/>
<path d="M171.017 33.7358L171.425 32.9867L172.175 32.5794L171.425 32.172L171.017 31.4229L170.609 32.172L169.859 32.5794L170.609 32.9867L171.017 33.7358Z" fill="black"/>
<path d="M174.256 33.7358L174.664 32.9867L175.409 32.5794L174.664 32.172L174.256 31.4229L173.844 32.172L173.099 32.5794L173.844 32.9867L174.256 33.7358Z" fill="black"/>
<path d="M166.208 36.0721L166.616 35.3276L167.366 34.9156L166.616 34.5083L166.208 33.7639L165.801 34.5083L165.051 34.9156L165.801 35.3276L166.208 36.0721Z" fill="black"/>
<path d="M169.396 36.0721L169.804 35.3276L170.554 34.9156L169.804 34.5083L169.396 33.7639L168.988 34.5083L168.238 34.9156L168.988 35.3276L169.396 36.0721Z" fill="black"/>
<path d="M172.63 36.0721L173.042 35.3276L173.787 34.9156L173.042 34.5083L172.63 33.7639L172.222 34.5083L171.477 34.9156L172.222 35.3276L172.63 36.0721Z" fill="black"/>
<path d="M167.831 38.4083L168.238 37.6639L168.988 37.2565L168.238 36.8445L167.831 36.1001L167.423 36.8445L166.673 37.2565L167.423 37.6639L167.831 38.4083Z" fill="black"/>
<path d="M171.017 38.4083L171.425 37.6639L172.175 37.2565L171.425 36.8445L171.017 36.1001L170.609 36.8445L169.859 37.2565L170.609 37.6639L171.017 38.4083Z" fill="black"/>
<path d="M174.256 38.4083L174.664 37.6639L175.409 37.2565L174.664 36.8445L174.256 36.1001L173.844 36.8445L173.099 37.2565L173.844 37.6639L174.256 38.4083Z" fill="black"/>
<path d="M166.208 40.7493L166.616 40.0002L167.366 39.5929L166.616 39.1855L166.208 38.4364L165.801 39.1855L165.051 39.5929L165.801 40.0002L166.208 40.7493Z" fill="black"/>
<path d="M169.396 40.7493L169.804 40.0002L170.554 39.5929L169.804 39.1855L169.396 38.4364L168.988 39.1855L168.238 39.5929L168.988 40.0002L169.396 40.7493Z" fill="black"/>
<path d="M172.63 40.7493L173.042 40.0002L173.787 39.5929L173.042 39.1855L172.63 38.4364L172.222 39.1855L171.477 39.5929L172.222 40.0002L172.63 40.7493Z" fill="black"/>
<path d="M167.831 43.1839L168.238 42.4395L168.988 42.0321L168.238 41.6201L167.831 40.8757L167.423 41.6201L166.673 42.0321L167.423 42.4395L167.831 43.1839Z" fill="black"/>
<path d="M171.017 43.1839L171.425 42.4395L172.175 42.0321L171.425 41.6201L171.017 40.8757L170.609 41.6201L169.859 42.0321L170.609 42.4395L171.017 43.1839Z" fill="black"/>
<path d="M174.256 43.1839L174.664 42.4395L175.409 42.0321L174.664 41.6201L174.256 40.8757L173.844 41.6201L173.099 42.0321L173.844 42.4395L174.256 43.1839Z" fill="black"/>
<path d="M166.208 45.5248L166.616 44.7757L167.366 44.3683L166.616 43.961L166.208 43.2119L165.801 43.961L165.051 44.3683L165.801 44.7757L166.208 45.5248Z" fill="black"/>
<path d="M169.396 45.5248L169.804 44.7757L170.554 44.3683L169.804 43.961L169.396 43.2119L168.988 43.961L168.238 44.3683L168.988 44.7757L169.396 45.5248Z" fill="black"/>
<path d="M172.63 45.5248L173.042 44.7757L173.787 44.3683L173.042 43.961L172.63 43.2119L172.222 43.961L171.477 44.3683L172.222 44.7757L172.63 45.5248Z" fill="black"/>
<path d="M167.831 47.861L168.238 47.1166L168.988 46.7046L168.238 46.2973L167.831 45.5529L167.423 46.2973L166.673 46.7046L167.423 47.1166L167.831 47.861Z" fill="black"/>
<path d="M171.017 47.861L171.425 47.1166L172.175 46.7046L171.425 46.2973L171.017 45.5529L170.609 46.2973L169.859 46.7046L170.609 47.1166L171.017 47.861Z" fill="black"/>
<path d="M174.256 47.861L174.664 47.1166L175.409 46.7046L174.664 46.2973L174.256 45.5529L173.844 46.2973L173.099 46.7046L173.844 47.1166L174.256 47.861Z" fill="black"/>
<path d="M166.208 50.1974L166.616 49.4529L167.366 49.0456L166.616 48.6383L166.208 47.8892L165.801 48.6383L165.051 49.0456L165.801 49.4529L166.208 50.1974Z" fill="black"/>
<path d="M169.396 50.1974L169.804 49.4529L170.554 49.0456L169.804 48.6383L169.396 47.8892L168.988 48.6383L168.238 49.0456L168.988 49.4529L169.396 50.1974Z" fill="black"/>
<path d="M172.63 50.1974L173.042 49.4529L173.787 49.0456L173.042 48.6383L172.63 47.8892L172.222 48.6383L171.477 49.0456L172.222 49.4529L172.63 50.1974Z" fill="black"/>
<path d="M166.208 21.6846L166.616 20.9355L167.366 20.5282L166.616 20.1208L166.208 19.3764L165.801 20.1208L165.051 20.5282L165.801 20.9355L166.208 21.6846Z" fill="black"/>
<path d="M169.396 21.6846L169.804 20.9355L170.554 20.5282L169.804 20.1208L169.396 19.3764L168.988 20.1208L168.238 20.5282L168.988 20.9355L169.396 21.6846Z" fill="black"/>
<path d="M167.831 24.1192L168.238 23.3747L168.988 22.9674L168.238 22.5601L167.831 21.811L167.423 22.5601L166.673 22.9674L167.423 23.3747L167.831 24.1192Z" fill="black"/>
<path d="M171.017 24.1192L171.425 23.3747L172.175 22.9674L171.425 22.5601L171.017 21.811L170.609 22.5601L169.859 22.9674L170.609 23.3747L171.017 24.1192Z" fill="black"/>
<path d="M174.256 24.1192L174.664 23.3747L175.409 22.9674L174.664 22.5601L174.256 21.811L173.844 22.5601L173.099 22.9674L173.844 23.3747L174.256 24.1192Z" fill="black"/>
<path d="M166.208 26.4601L166.616 25.711L167.366 25.3037L166.616 24.8964L166.208 24.1519L165.801 24.8964L165.051 25.3037L165.801 25.711L166.208 26.4601Z" fill="black"/>
<path d="M169.396 26.4601L169.804 25.711L170.554 25.3037L169.804 24.8964L169.396 24.1519L168.988 24.8964L168.238 25.3037L168.988 25.711L169.396 26.4601Z" fill="black"/>
<path d="M172.63 26.4601L173.042 25.711L173.787 25.3037L173.042 24.8964L172.63 24.1519L172.222 24.8964L171.477 25.3037L172.222 25.711L172.63 26.4601Z" fill="black"/>
<path d="M167.831 28.7964L168.238 28.052L168.988 27.64L168.238 27.2326L167.831 26.4882L167.423 27.2326L166.673 27.64L167.423 28.052L167.831 28.7964Z" fill="black"/>
<path d="M171.017 28.7964L171.425 28.052L172.175 27.64L171.425 27.2326L171.017 26.4882L170.609 27.2326L169.859 27.64L170.609 28.052L171.017 28.7964Z" fill="black"/>
<path d="M174.256 28.7964L174.664 28.052L175.409 27.64L174.664 27.2326L174.256 26.4882L173.844 27.2326L173.099 27.64L173.844 28.052L174.256 28.7964Z" fill="black"/>
<path d="M166.208 31.1374L166.616 30.3882L167.366 29.9809L166.616 29.5736L166.208 28.8245L165.801 29.5736L165.051 29.9809L165.801 30.3882L166.208 31.1374Z" fill="black"/>
<path d="M169.396 31.1374L169.804 30.3882L170.554 29.9809L169.804 29.5736L169.396 28.8245L168.988 29.5736L168.238 29.9809L168.988 30.3882L169.396 31.1374Z" fill="black"/>
<path d="M172.63 31.1374L173.042 30.3882L173.787 29.9809L173.042 29.5736L172.63 28.8245L172.222 29.5736L171.477 29.9809L172.222 30.3882L172.63 31.1374Z" fill="black"/>
<path d="M177.95 71.7902L178.362 71.041L179.108 70.6337L178.362 70.2264L177.95 69.482L177.542 70.2264L176.797 70.6337L177.542 71.041L177.95 71.7902Z" fill="black"/>
<path d="M181.136 71.7902L181.549 71.041L182.294 70.6337L181.549 70.2264L181.136 69.482L180.729 70.2264L179.983 70.6337L180.729 71.041L181.136 71.7902Z" fill="black"/>
<path d="M184.375 71.7902L184.783 71.041L185.533 70.6337L184.783 70.2264L184.375 69.482L183.968 70.2264L183.218 70.6337L183.968 71.041L184.375 71.7902Z" fill="black"/>
<path d="M176.328 74.1264L176.74 73.382L177.485 72.9747L176.74 72.5627L176.328 71.8182L175.92 72.5627L175.175 72.9747L175.92 73.382L176.328 74.1264Z" fill="black"/>
<path d="M179.515 74.1264L179.928 73.382L180.673 72.9747L179.928 72.5627L179.515 71.8182L179.108 72.5627L178.362 72.9747L179.108 73.382L179.515 74.1264Z" fill="black"/>
<path d="M182.753 74.1264L183.161 73.382L183.911 72.9747L183.161 72.5627L182.753 71.8182L182.346 72.5627L181.596 72.9747L182.346 73.382L182.753 74.1264Z" fill="black"/>
<path d="M177.95 76.4674L178.362 75.7183L179.108 75.3109L178.362 74.9036L177.95 74.1545L177.542 74.9036L176.797 75.3109L177.542 75.7183L177.95 76.4674Z" fill="black"/>
<path d="M181.136 76.4674L181.549 75.7183L182.294 75.3109L181.549 74.9036L181.136 74.1545L180.729 74.9036L179.983 75.3109L180.729 75.7183L181.136 76.4674Z" fill="black"/>
<path d="M177.95 52.7255L178.362 51.9811L179.108 51.5691L178.362 51.1618L177.95 50.4173L177.542 51.1618L176.797 51.5691L177.542 51.9811L177.95 52.7255Z" fill="black"/>
<path d="M181.136 52.7255L181.549 51.9811L182.294 51.5691L181.549 51.1618L181.136 50.4173L180.729 51.1618L179.983 51.5691L180.729 51.9811L181.136 52.7255Z" fill="black"/>
<path d="M184.375 52.7255L184.783 51.9811L185.533 51.5691L184.783 51.1618L184.375 50.4173L183.968 51.1618L183.218 51.5691L183.968 51.9811L184.375 52.7255Z" fill="black"/>
<path d="M176.328 55.0664L176.74 54.3173L177.485 53.91L176.74 53.5027L176.328 52.7536L175.92 53.5027L175.175 53.91L175.92 54.3173L176.328 55.0664Z" fill="black"/>
<path d="M179.515 55.0664L179.928 54.3173L180.673 53.91L179.928 53.5027L179.515 52.7536L179.108 53.5027L178.362 53.91L179.108 54.3173L179.515 55.0664Z" fill="black"/>
<path d="M182.753 55.0664L183.161 54.3173L183.911 53.91L183.161 53.5027L182.753 52.7536L182.346 53.5027L181.596 53.91L182.346 54.3173L182.753 55.0664Z" fill="black"/>
<path d="M177.95 57.4027L178.362 56.6536L179.108 56.2463L178.362 55.839L177.95 55.0899L177.542 55.839L176.797 56.2463L177.542 56.6536L177.95 57.4027Z" fill="black"/>
<path d="M181.136 57.4027L181.549 56.6536L182.294 56.2463L181.549 55.839L181.136 55.0899L180.729 55.839L179.983 56.2463L180.729 56.6536L181.136 57.4027Z" fill="black"/>
<path d="M184.375 57.4027L184.783 56.6536L185.533 56.2463L184.783 55.839L184.375 55.0899L183.968 55.839L183.218 56.2463L183.968 56.6536L184.375 57.4027Z" fill="black"/>
<path d="M176.328 59.739L176.74 58.9946L177.485 58.5826L176.74 58.1752L176.328 57.4308L175.92 58.1752L175.175 58.5826L175.92 58.9946L176.328 59.739Z" fill="black"/>
<path d="M179.515 59.739L179.928 58.9946L180.673 58.5826L179.928 58.1752L179.515 57.4308L179.108 58.1752L178.362 58.5826L179.108 58.9946L179.515 59.739Z" fill="black"/>
<path d="M182.753 59.739L183.161 58.9946L183.911 58.5826L183.161 58.1752L182.753 57.4308L182.346 58.1752L181.596 58.5826L182.346 58.9946L182.753 59.739Z" fill="black"/>
<path d="M177.95 62.1783L178.362 61.4292L179.108 61.0218L178.362 60.6145L177.95 59.8654L177.542 60.6145L176.797 61.0218L177.542 61.4292L177.95 62.1783Z" fill="black"/>
<path d="M181.136 62.1783L181.549 61.4292L182.294 61.0218L181.549 60.6145L181.136 59.8654L180.729 60.6145L179.983 61.0218L180.729 61.4292L181.136 62.1783Z" fill="black"/>
<path d="M184.375 62.1783L184.783 61.4292L185.533 61.0218L184.783 60.6145L184.375 59.8654L183.968 60.6145L183.218 61.0218L183.968 61.4292L184.375 62.1783Z" fill="black"/>
<path d="M176.328 64.5145L176.74 63.7701L177.485 63.3627L176.74 62.9507L176.328 62.2063L175.92 62.9507L175.175 63.3627L175.92 63.7701L176.328 64.5145Z" fill="black"/>
<path d="M179.515 64.5145L179.928 63.7701L180.673 63.3627L179.928 62.9507L179.515 62.2063L179.108 62.9507L178.362 63.3627L179.108 63.7701L179.515 64.5145Z" fill="black"/>
<path d="M182.753 64.5145L183.161 63.7701L183.911 63.3627L183.161 62.9507L182.753 62.2063L182.346 62.9507L181.596 63.3627L182.346 63.7701L182.753 64.5145Z" fill="black"/>
<path d="M177.95 66.8508L178.362 66.1064L179.108 65.6991L178.362 65.2917L177.95 64.5426L177.542 65.2917L176.797 65.6991L177.542 66.1064L177.95 66.8508Z" fill="black"/>
<path d="M181.136 66.8508L181.549 66.1064L182.294 65.6991L181.549 65.2917L181.136 64.5426L180.729 65.2917L179.983 65.6991L180.729 66.1064L181.136 66.8508Z" fill="black"/>
<path d="M184.375 66.8508L184.783 66.1064L185.533 65.6991L184.783 65.2917L184.375 64.5426L183.968 65.2917L183.218 65.6991L183.968 66.1064L184.375 66.8508Z" fill="black"/>
<path d="M176.328 69.1917L176.74 68.4426L177.485 68.0353L176.74 67.628L176.328 66.8789L175.92 67.628L175.175 68.0353L175.92 68.4426L176.328 69.1917Z" fill="black"/>
<path d="M179.515 69.1917L179.928 68.4426L180.673 68.0353L179.928 67.628L179.515 66.8789L179.108 67.628L178.362 68.0353L179.108 68.4426L179.515 69.1917Z" fill="black"/>
<path d="M182.753 69.1917L183.161 68.4426L183.911 68.0353L183.161 67.628L182.753 66.8789L182.346 67.628L181.596 68.0353L182.346 68.4426L182.753 69.1917Z" fill="black"/>
<path d="M177.95 33.7358L178.362 32.9867L179.108 32.5794L178.362 32.172L177.95 31.4229L177.542 32.172L176.797 32.5794L177.542 32.9867L177.95 33.7358Z" fill="black"/>
<path d="M181.136 33.7358L181.549 32.9867L182.294 32.5794L181.549 32.172L181.136 31.4229L180.729 32.172L179.983 32.5794L180.729 32.9867L181.136 33.7358Z" fill="black"/>
<path d="M184.375 33.7358L184.783 32.9867L185.533 32.5794L184.783 32.172L184.375 31.4229L183.968 32.172L183.218 32.5794L183.968 32.9867L184.375 33.7358Z" fill="black"/>
<path d="M176.328 36.0721L176.74 35.3276L177.485 34.9156L176.74 34.5083L176.328 33.7639L175.92 34.5083L175.175 34.9156L175.92 35.3276L176.328 36.0721Z" fill="black"/>
<path d="M179.515 36.0721L179.928 35.3276L180.673 34.9156L179.928 34.5083L179.515 33.7639L179.108 34.5083L178.362 34.9156L179.108 35.3276L179.515 36.0721Z" fill="black"/>
<path d="M182.753 36.0721L183.161 35.3276L183.911 34.9156L183.161 34.5083L182.753 33.7639L182.346 34.5083L181.596 34.9156L182.346 35.3276L182.753 36.0721Z" fill="black"/>
<path d="M177.95 38.4083L178.362 37.6639L179.108 37.2565L178.362 36.8445L177.95 36.1001L177.542 36.8445L176.797 37.2565L177.542 37.6639L177.95 38.4083Z" fill="black"/>
<path d="M181.136 38.4083L181.549 37.6639L182.294 37.2565L181.549 36.8445L181.136 36.1001L180.729 36.8445L179.983 37.2565L180.729 37.6639L181.136 38.4083Z" fill="black"/>
<path d="M184.375 38.4083L184.783 37.6639L185.533 37.2565L184.783 36.8445L184.375 36.1001L183.968 36.8445L183.218 37.2565L183.968 37.6639L184.375 38.4083Z" fill="black"/>
<path d="M176.328 40.7493L176.74 40.0002L177.485 39.5929L176.74 39.1855L176.328 38.4364L175.92 39.1855L175.175 39.5929L175.92 40.0002L176.328 40.7493Z" fill="black"/>
<path d="M179.515 40.7493L179.928 40.0002L180.673 39.5929L179.928 39.1855L179.515 38.4364L179.108 39.1855L178.362 39.5929L179.108 40.0002L179.515 40.7493Z" fill="black"/>
<path d="M182.753 40.7493L183.161 40.0002L183.911 39.5929L183.161 39.1855L182.753 38.4364L182.346 39.1855L181.596 39.5929L182.346 40.0002L182.753 40.7493Z" fill="black"/>
<path d="M177.95 43.1839L178.362 42.4394L179.108 42.0321L178.362 41.6201L177.95 40.8757L177.542 41.6201L176.797 42.0321L177.542 42.4394L177.95 43.1839Z" fill="black"/>
<path d="M181.136 43.1839L181.549 42.4394L182.294 42.0321L181.549 41.6201L181.136 40.8757L180.729 41.6201L179.983 42.0321L180.729 42.4394L181.136 43.1839Z" fill="black"/>
<path d="M184.375 43.1839L184.783 42.4394L185.533 42.0321L184.783 41.6201L184.375 40.8757L183.968 41.6201L183.218 42.0321L183.968 42.4394L184.375 43.1839Z" fill="black"/>
<path d="M176.328 45.5248L176.74 44.7757L177.485 44.3683L176.74 43.961L176.328 43.2119L175.92 43.961L175.175 44.3683L175.92 44.7757L176.328 45.5248Z" fill="black"/>
<path d="M179.515 45.5248L179.928 44.7757L180.673 44.3683L179.928 43.961L179.515 43.2119L179.108 43.961L178.362 44.3683L179.108 44.7757L179.515 45.5248Z" fill="black"/>
<path d="M182.753 45.5248L183.161 44.7757L183.911 44.3683L183.161 43.961L182.753 43.2119L182.346 43.961L181.596 44.3683L182.346 44.7757L182.753 45.5248Z" fill="black"/>
<path d="M177.95 47.861L178.362 47.1166L179.108 46.7046L178.362 46.2973L177.95 45.5529L177.542 46.2973L176.797 46.7046L177.542 47.1166L177.95 47.861Z" fill="black"/>
<path d="M181.136 47.861L181.549 47.1166L182.294 46.7046L181.549 46.2973L181.136 45.5529L180.729 46.2973L179.983 46.7046L180.729 47.1166L181.136 47.861Z" fill="black"/>
<path d="M184.375 47.861L184.783 47.1166L185.533 46.7046L184.783 46.2973L184.375 45.5529L183.968 46.2973L183.218 46.7046L183.968 47.1166L184.375 47.861Z" fill="black"/>
<path d="M176.328 50.1974L176.74 49.4529L177.485 49.0456L176.74 48.6383L176.328 47.8892L175.92 48.6383L175.175 49.0456L175.92 49.4529L176.328 50.1974Z" fill="black"/>
<path d="M179.515 50.1974L179.928 49.4529L180.673 49.0456L179.928 48.6383L179.515 47.8892L179.108 48.6383L178.362 49.0456L179.108 49.4529L179.515 50.1974Z" fill="black"/>
<path d="M182.753 50.1974L183.161 49.4529L183.911 49.0456L183.161 48.6383L182.753 47.8892L182.346 48.6383L181.596 49.0456L182.346 49.4529L182.753 50.1974Z" fill="black"/>
<path d="M177.95 24.1192L178.362 23.3747L179.108 22.9674L178.362 22.5601L177.95 21.811L177.542 22.5601L176.797 22.9674L177.542 23.3747L177.95 24.1192Z" fill="black"/>
<path d="M176.328 26.4601L176.74 25.711L177.485 25.3037L176.74 24.8964L176.328 24.1519L175.92 24.8964L175.175 25.3037L175.92 25.711L176.328 26.4601Z" fill="black"/>
<path d="M179.515 26.4601L179.928 25.711L180.673 25.3037L179.928 24.8964L179.515 24.1519L179.108 24.8964L178.362 25.3037L179.108 25.711L179.515 26.4601Z" fill="black"/>
<path d="M182.753 26.4601L183.161 25.711L183.911 25.3037L183.161 24.8964L182.753 24.1519L182.346 24.8964L181.596 25.3037L182.346 25.711L182.753 26.4601Z" fill="black"/>
<path d="M177.95 28.7963L178.362 28.0519L179.108 27.6399L178.362 27.2326L177.95 26.4882L177.542 27.2326L176.797 27.6399L177.542 28.0519L177.95 28.7963Z" fill="black"/>
<path d="M181.136 28.7963L181.549 28.0519L182.294 27.6399L181.549 27.2326L181.136 26.4882L180.729 27.2326L179.983 27.6399L180.729 28.0519L181.136 28.7963Z" fill="black"/>
<path d="M184.375 28.7963L184.783 28.0519L185.533 27.6399L184.783 27.2326L184.375 26.4882L183.968 27.2326L183.218 27.6399L183.968 28.0519L184.375 28.7963Z" fill="black"/>
<path d="M176.328 31.1373L176.74 30.3882L177.485 29.9809L176.74 29.5736L176.328 28.8245L175.92 29.5736L175.175 29.9809L175.92 30.3882L176.328 31.1373Z" fill="black"/>
<path d="M179.515 31.1373L179.928 30.3882L180.673 29.9809L179.928 29.5736L179.515 28.8245L179.108 29.5736L178.362 29.9809L179.108 30.3882L179.515 31.1373Z" fill="black"/>
<path d="M182.753 31.1373L183.161 30.3882L183.911 29.9809L183.161 29.5736L182.753 28.8245L182.346 29.5736L181.596 29.9809L182.346 30.3882L182.753 31.1373Z" fill="black"/>
<path d="M164.713 110.519L165.121 109.774L165.866 109.362L165.121 108.955L164.713 108.211L164.301 108.955L163.556 109.362L164.301 109.774L164.713 110.519Z" fill="black"/>
<path d="M167.9 110.519L168.308 109.774L169.053 109.362L168.308 108.955L167.9 108.211L167.487 108.955L166.742 109.362L167.487 109.774L167.9 110.519Z" fill="black"/>
<path d="M171.134 110.519L171.542 109.774L172.292 109.362L171.542 108.955L171.134 108.211L170.727 108.955L169.981 109.362L170.727 109.774L171.134 110.519Z" fill="black"/>
<path d="M163.091 112.86L163.499 112.111L164.244 111.703L163.499 111.296L163.091 110.547L162.679 111.296L161.934 111.703L162.679 112.111L163.091 112.86Z" fill="black"/>
<path d="M166.279 112.86L166.687 112.111L167.432 111.703L166.687 111.296L166.279 110.547L165.866 111.296L165.121 111.703L165.866 112.111L166.279 112.86Z" fill="black"/>
<path d="M169.512 112.86L169.92 112.111L170.67 111.703L169.92 111.296L169.512 110.547L169.104 111.296L168.354 111.703L169.104 112.111L169.512 112.86Z" fill="black"/>
<path d="M164.713 115.196L165.121 114.447L165.866 114.04L165.121 113.632L164.713 112.883L164.301 113.632L163.556 114.04L164.301 114.447L164.713 115.196Z" fill="black"/>
<path d="M167.9 115.196L168.308 114.447L169.053 114.04L168.308 113.632L167.9 112.883L167.487 113.632L166.742 114.04L167.487 114.447L167.9 115.196Z" fill="black"/>
<path d="M171.134 115.196L171.542 114.447L172.292 114.04L171.542 113.632L171.134 112.883L170.727 113.632L169.981 114.04L170.727 114.447L171.134 115.196Z" fill="black"/>
<path d="M163.091 117.532L163.499 116.788L164.244 116.381L163.499 115.969L163.091 115.224L162.679 115.969L161.934 116.381L162.679 116.788L163.091 117.532Z" fill="black"/>
<path d="M166.279 117.532L166.687 116.788L167.432 116.381L166.687 115.969L166.279 115.224L165.866 115.969L165.121 116.381L165.866 116.788L166.279 117.532Z" fill="black"/>
<path d="M169.512 117.532L169.92 116.788L170.67 116.381L169.92 115.969L169.512 115.224L169.104 115.969L168.354 116.381L169.104 116.788L169.512 117.532Z" fill="black"/>
<path d="M164.713 119.972L165.121 119.222L165.866 118.815L165.121 118.408L164.713 117.659L164.301 118.408L163.556 118.815L164.301 119.222L164.713 119.972Z" fill="black"/>
<path d="M167.9 119.972L168.308 119.222L169.053 118.815L168.308 118.408L167.9 117.659L167.487 118.408L166.742 118.815L167.487 119.222L167.9 119.972Z" fill="black"/>
<path d="M171.134 119.972L171.542 119.222L172.292 118.815L171.542 118.408L171.134 117.659L170.727 118.408L169.981 118.815L170.727 119.222L171.134 119.972Z" fill="black"/>
<path d="M163.091 122.308L163.499 121.563L164.244 121.156L163.499 120.744L163.091 120L162.679 120.744L161.934 121.156L162.679 121.563L163.091 122.308Z" fill="black"/>
<path d="M166.279 122.308L166.687 121.563L167.432 121.156L166.687 120.744L166.279 120L165.866 120.744L165.121 121.156L165.866 121.563L166.279 122.308Z" fill="black"/>
<path d="M169.512 122.308L169.92 121.563L170.67 121.156L169.92 120.744L169.512 120L169.104 120.744L168.354 121.156L169.104 121.563L169.512 122.308Z" fill="black"/>
<path d="M164.713 124.644L165.121 123.9L165.866 123.492L165.121 123.085L164.713 122.336L164.301 123.085L163.556 123.492L164.301 123.9L164.713 124.644Z" fill="black"/>
<path d="M167.9 124.644L168.308 123.9L169.053 123.492L168.308 123.085L167.9 122.336L167.487 123.085L166.742 123.492L167.487 123.9L167.9 124.644Z" fill="black"/>
<path d="M171.134 124.644L171.542 123.9L172.292 123.492L171.542 123.085L171.134 122.336L170.727 123.085L169.981 123.492L170.727 123.9L171.134 124.644Z" fill="black"/>
<path d="M164.713 100.977L165.121 100.233L165.866 99.8254L165.121 99.4181L164.713 98.669L164.301 99.4181L163.556 99.8254L164.301 100.233L164.713 100.977Z" fill="black"/>
<path d="M167.9 100.977L168.308 100.233L169.053 99.8254L168.308 99.4181L167.9 98.669L167.487 99.4181L166.742 99.8254L167.487 100.233L167.9 100.977Z" fill="black"/>
<path d="M171.134 100.977L171.542 100.233L172.292 99.8254L171.542 99.4181L171.134 98.669L170.727 99.4181L169.981 99.8254L170.727 100.233L171.134 100.977Z" fill="black"/>
<path d="M163.091 103.318L163.499 102.569L164.244 102.162L163.499 101.754L163.091 101.005L162.679 101.754L161.934 102.162L162.679 102.569L163.091 103.318Z" fill="black"/>
<path d="M166.279 103.318L166.687 102.569L167.432 102.162L166.687 101.754L166.279 101.005L165.866 101.754L165.121 102.162L165.866 102.569L166.279 103.318Z" fill="black"/>
<path d="M169.512 103.318L169.92 102.569L170.67 102.162L169.92 101.754L169.512 101.005L169.104 101.754L168.354 102.162L169.104 102.569L169.512 103.318Z" fill="black"/>
<path d="M164.713 105.654L165.121 104.91L165.866 104.498L165.121 104.091L164.713 103.346L164.301 104.091L163.556 104.498L164.301 104.91L164.713 105.654Z" fill="black"/>
<path d="M167.9 105.654L168.308 104.91L169.053 104.498L168.308 104.091L167.9 103.346L167.487 104.091L166.742 104.498L167.487 104.91L167.9 105.654Z" fill="black"/>
<path d="M171.134 105.654L171.542 104.91L172.292 104.498L171.542 104.091L171.134 103.346L170.727 104.091L169.981 104.498L170.727 104.91L171.134 105.654Z" fill="black"/>
<path d="M163.091 107.995L163.499 107.246L164.244 106.839L163.499 106.432L163.091 105.682L162.679 106.432L161.934 106.839L162.679 107.246L163.091 107.995Z" fill="black"/>
<path d="M166.279 107.995L166.687 107.246L167.432 106.839L166.687 106.432L166.279 105.682L165.866 106.432L165.121 106.839L165.866 107.246L166.279 107.995Z" fill="black"/>
<path d="M169.512 107.995L169.92 107.246L170.67 106.839L169.92 106.432L169.512 105.682L169.104 106.432L168.354 106.839L169.104 107.246L169.512 107.995Z" fill="black"/>
<path d="M174.832 110.519L175.24 109.774L175.99 109.362L175.24 108.955L174.832 108.211L174.425 108.955L173.675 109.362L174.425 109.774L174.832 110.519Z" fill="black"/>
<path d="M178.019 110.519L178.427 109.774L179.177 109.362L178.427 108.955L178.019 108.211L177.611 108.955L176.861 109.362L177.611 109.774L178.019 110.519Z" fill="black"/>
<path d="M181.258 110.519L181.666 109.774L182.411 109.362L181.666 108.955L181.258 108.211L180.846 108.955L180.101 109.362L180.846 109.774L181.258 110.519Z" fill="black"/>
<path d="M173.21 112.86L173.618 112.111L174.368 111.703L173.618 111.296L173.21 110.547L172.803 111.296L172.053 111.703L172.803 112.111L173.21 112.86Z" fill="black"/>
<path d="M176.398 112.86L176.806 112.111L177.556 111.703L176.806 111.296L176.398 110.547L175.99 111.296L175.24 111.703L175.99 112.111L176.398 112.86Z" fill="black"/>
<path d="M179.636 112.86L180.044 112.111L180.789 111.703L180.044 111.296L179.636 110.547L179.224 111.296L178.479 111.703L179.224 112.111L179.636 112.86Z" fill="black"/>
<path d="M174.832 115.196L175.24 114.447L175.99 114.04L175.24 113.632L174.832 112.883L174.425 113.632L173.675 114.04L174.425 114.447L174.832 115.196Z" fill="black"/>
<path d="M178.019 115.196L178.427 114.447L179.177 114.04L178.427 113.632L178.019 112.883L177.611 113.632L176.861 114.04L177.611 114.447L178.019 115.196Z" fill="black"/>
<path d="M181.258 115.196L181.666 114.447L182.411 114.04L181.666 113.632L181.258 112.883L180.846 113.632L180.101 114.04L180.846 114.447L181.258 115.196Z" fill="black"/>
<path d="M173.21 117.532L173.618 116.788L174.368 116.381L173.618 115.969L173.21 115.224L172.803 115.969L172.053 116.381L172.803 116.788L173.21 117.532Z" fill="black"/>
<path d="M176.398 117.532L176.806 116.788L177.556 116.381L176.806 115.969L176.398 115.224L175.99 115.969L175.24 116.381L175.99 116.788L176.398 117.532Z" fill="black"/>
<path d="M179.636 117.532L180.044 116.788L180.789 116.381L180.044 115.969L179.636 115.224L179.224 115.969L178.479 116.381L179.224 116.788L179.636 117.532Z" fill="black"/>
<path d="M174.832 119.972L175.24 119.222L175.99 118.815L175.24 118.408L174.832 117.659L174.425 118.408L173.675 118.815L174.425 119.222L174.832 119.972Z" fill="black"/>
<path d="M178.019 119.972L178.427 119.222L179.177 118.815L178.427 118.408L178.019 117.659L177.611 118.408L176.861 118.815L177.611 119.222L178.019 119.972Z" fill="black"/>
<path d="M181.258 119.972L181.666 119.222L182.411 118.815L181.666 118.408L181.258 117.659L180.846 118.408L180.101 118.815L180.846 119.222L181.258 119.972Z" fill="black"/>
<path d="M173.21 122.308L173.618 121.563L174.368 121.156L173.618 120.744L173.21 120L172.803 120.744L172.053 121.156L172.803 121.563L173.21 122.308Z" fill="black"/>
<path d="M176.398 122.308L176.806 121.563L177.556 121.156L176.806 120.744L176.398 120L175.99 120.744L175.24 121.156L175.99 121.563L176.398 122.308Z" fill="black"/>
<path d="M179.636 122.308L180.044 121.563L180.789 121.156L180.044 120.744L179.636 120L179.224 120.744L178.479 121.156L179.224 121.563L179.636 122.308Z" fill="black"/>
<path d="M174.832 124.644L175.24 123.9L175.99 123.492L175.24 123.085L174.832 122.336L174.425 123.085L173.675 123.492L174.425 123.9L174.832 124.644Z" fill="black"/>
<path d="M178.019 124.644L178.427 123.9L179.177 123.492L178.427 123.085L178.019 122.336L177.611 123.085L176.861 123.492L177.611 123.9L178.019 124.644Z" fill="black"/>
<path d="M181.258 124.644L181.666 123.9L182.411 123.492L181.666 123.085L181.258 122.336L180.846 123.085L180.101 123.492L180.846 123.9L181.258 124.644Z" fill="black"/>
<path d="M174.832 100.977L175.24 100.233L175.99 99.8254L175.24 99.4181L174.832 98.669L174.425 99.4181L173.675 99.8254L174.425 100.233L174.832 100.977Z" fill="black"/>
<path d="M178.019 100.977L178.427 100.233L179.177 99.8254L178.427 99.4181L178.019 98.669L177.611 99.4181L176.861 99.8254L177.611 100.233L178.019 100.977Z" fill="black"/>
<path d="M181.258 100.977L181.666 100.233L182.411 99.8254L181.666 99.4181L181.258 98.669L180.846 99.4181L180.101 99.8254L180.846 100.233L181.258 100.977Z" fill="black"/>
<path d="M173.21 103.318L173.618 102.569L174.368 102.162L173.618 101.754L173.21 101.005L172.803 101.754L172.053 102.162L172.803 102.569L173.21 103.318Z" fill="black"/>
<path d="M176.398 103.318L176.806 102.569L177.556 102.162L176.806 101.754L176.398 101.005L175.99 101.754L175.24 102.162L175.99 102.569L176.398 103.318Z" fill="black"/>
<path d="M179.636 103.318L180.044 102.569L180.789 102.162L180.044 101.754L179.636 101.005L179.224 101.754L178.479 102.162L179.224 102.569L179.636 103.318Z" fill="black"/>
<path d="M174.832 105.654L175.24 104.91L175.99 104.498L175.24 104.091L174.832 103.346L174.425 104.091L173.675 104.498L174.425 104.91L174.832 105.654Z" fill="black"/>
<path d="M178.019 105.654L178.427 104.91L179.177 104.498L178.427 104.091L178.019 103.346L177.611 104.091L176.861 104.498L177.611 104.91L178.019 105.654Z" fill="black"/>
<path d="M181.258 105.654L181.666 104.91L182.411 104.498L181.666 104.091L181.258 103.346L180.846 104.091L180.101 104.498L180.846 104.91L181.258 105.654Z" fill="black"/>
<path d="M173.21 107.995L173.618 107.246L174.368 106.839L173.618 106.432L173.21 105.682L172.803 106.432L172.053 106.839L172.803 107.246L173.21 107.995Z" fill="black"/>
<path d="M176.398 107.995L176.806 107.246L177.556 106.839L176.806 106.432L176.398 105.682L175.99 106.432L175.24 106.839L175.99 107.246L176.398 107.995Z" fill="black"/>
<path d="M179.636 107.995L180.044 107.246L180.789 106.839L180.044 106.432L179.636 105.682L179.224 106.432L178.479 106.839L179.224 107.246L179.636 107.995Z" fill="black"/>
<path d="M184.421 110.519L184.829 109.774L185.574 109.362L184.829 108.955L184.421 108.211L184.009 108.955L183.264 109.362L184.009 109.774L184.421 110.519Z" fill="black"/>
<path d="M187.608 110.519L188.016 109.774L188.761 109.362L188.016 108.955L187.608 108.211L187.195 108.955L186.45 109.362L187.195 109.774L187.608 110.519Z" fill="black"/>
<path d="M190.842 110.519L191.25 109.774L192 109.362L191.25 108.955L190.842 108.211L190.434 108.955L189.685 109.362L190.434 109.774L190.842 110.519Z" fill="black"/>
<path d="M182.799 112.86L183.207 112.111L183.952 111.703L183.207 111.296L182.799 110.547L182.387 111.296L181.642 111.703L182.387 112.111L182.799 112.86Z" fill="black"/>
<path d="M185.987 112.86L186.395 112.111L187.14 111.703L186.395 111.296L185.987 110.547L185.574 111.296L184.829 111.703L185.574 112.111L185.987 112.86Z" fill="black"/>
<path d="M189.22 112.86L189.628 112.111L190.378 111.703L189.628 111.296L189.22 110.547L188.812 111.296L188.062 111.703L188.812 112.111L189.22 112.86Z" fill="black"/>
<path d="M184.421 115.196L184.829 114.447L185.574 114.04L184.829 113.632L184.421 112.883L184.009 113.632L183.264 114.04L184.009 114.447L184.421 115.196Z" fill="black"/>
<path d="M187.608 115.196L188.016 114.447L188.761 114.04L188.016 113.632L187.608 112.883L187.195 113.632L186.45 114.04L187.195 114.447L187.608 115.196Z" fill="black"/>
<path d="M190.842 115.196L191.25 114.447L192 114.04L191.25 113.632L190.842 112.883L190.434 113.632L189.685 114.04L190.434 114.447L190.842 115.196Z" fill="black"/>
<path d="M182.799 117.532L183.207 116.788L183.952 116.381L183.207 115.969L182.799 115.224L182.387 115.969L181.642 116.381L182.387 116.788L182.799 117.532Z" fill="black"/>
<path d="M185.987 117.532L186.395 116.788L187.14 116.381L186.395 115.969L185.987 115.224L185.574 115.969L184.829 116.381L185.574 116.788L185.987 117.532Z" fill="black"/>
<path d="M189.22 117.532L189.628 116.788L190.378 116.381L189.628 115.969L189.22 115.224L188.812 115.969L188.062 116.381L188.812 116.788L189.22 117.532Z" fill="black"/>
<path d="M184.421 119.972L184.829 119.222L185.574 118.815L184.829 118.408L184.421 117.659L184.009 118.408L183.264 118.815L184.009 119.222L184.421 119.972Z" fill="black"/>
<path d="M187.608 119.972L188.016 119.222L188.761 118.815L188.016 118.408L187.608 117.659L187.195 118.408L186.45 118.815L187.195 119.222L187.608 119.972Z" fill="black"/>
<path d="M190.842 119.972L191.25 119.222L192 118.815L191.25 118.408L190.842 117.659L190.434 118.408L189.685 118.815L190.434 119.222L190.842 119.972Z" fill="black"/>
<path d="M182.799 122.308L183.207 121.563L183.952 121.156L183.207 120.744L182.799 120L182.387 120.744L181.642 121.156L182.387 121.563L182.799 122.308Z" fill="black"/>
<path d="M185.987 122.308L186.395 121.563L187.14 121.156L186.395 120.744L185.987 120L185.574 120.744L184.829 121.156L185.574 121.563L185.987 122.308Z" fill="black"/>
<path d="M189.22 122.308L189.628 121.563L190.378 121.156L189.628 120.744L189.22 120L188.812 120.744L188.062 121.156L188.812 121.563L189.22 122.308Z" fill="black"/>
<path d="M184.421 124.644L184.829 123.9L185.574 123.492L184.829 123.085L184.421 122.336L184.009 123.085L183.264 123.492L184.009 123.9L184.421 124.644Z" fill="black"/>
<path d="M187.608 124.644L188.016 123.9L188.761 123.492L188.016 123.085L187.608 122.336L187.195 123.085L186.45 123.492L187.195 123.9L187.608 124.644Z" fill="black"/>
<path d="M184.421 100.977L184.829 100.233L185.574 99.8254L184.829 99.4181L184.421 98.669L184.009 99.4181L183.264 99.8254L184.009 100.233L184.421 100.977Z" fill="black"/>
<path d="M187.608 100.977L188.016 100.233L188.761 99.8254L188.016 99.4181L187.608 98.669L187.195 99.4181L186.45 99.8254L187.195 100.233L187.608 100.977Z" fill="black"/>
<path d="M182.799 103.318L183.207 102.569L183.952 102.162L183.207 101.754L182.799 101.005L182.387 101.754L181.642 102.162L182.387 102.569L182.799 103.318Z" fill="black"/>
<path d="M185.987 103.318L186.395 102.569L187.14 102.162L186.395 101.754L185.987 101.005L185.574 101.754L184.829 102.162L185.574 102.569L185.987 103.318Z" fill="black"/>
<path d="M189.22 103.318L189.628 102.569L190.378 102.162L189.628 101.754L189.22 101.005L188.812 101.754L188.062 102.162L188.812 102.569L189.22 103.318Z" fill="black"/>
<path d="M184.421 105.654L184.829 104.91L185.574 104.498L184.829 104.091L184.421 103.346L184.009 104.091L183.264 104.498L184.009 104.91L184.421 105.654Z" fill="black"/>
<path d="M187.608 105.654L188.016 104.91L188.761 104.498L188.016 104.091L187.608 103.346L187.195 104.091L186.45 104.498L187.195 104.91L187.608 105.654Z" fill="black"/>
<path d="M190.842 105.654L191.25 104.91L192 104.498L191.25 104.091L190.842 103.346L190.434 104.091L189.685 104.498L190.434 104.91L190.842 105.654Z" fill="black"/>
<path d="M182.799 107.995L183.207 107.246L183.952 106.839L183.207 106.432L182.799 105.682L182.387 106.432L181.642 106.839L182.387 107.246L182.799 107.995Z" fill="black"/>
<path d="M185.987 107.995L186.395 107.246L187.14 106.839L186.395 106.432L185.987 105.682L185.574 106.432L184.829 106.839L185.574 107.246L185.987 107.995Z" fill="black"/>
<path d="M189.22 107.995L189.628 107.246L190.378 106.839L189.628 106.432L189.22 105.682L188.812 106.432L188.062 106.839L188.812 107.246L189.22 107.995Z" fill="black"/>
<path d="M107.547 56.9533C107.547 57.3513 107.383 57.7118 107.12 57.9739C106.858 58.2361 106.497 58.4 106.099 58.4H78.9709C78.1741 58.4 77.5273 57.7492 77.5273 56.958C77.5273 56.56 77.6914 56.1995 77.9539 55.9373C78.2163 55.6751 78.5772 55.5113 78.9756 55.5113H106.103C106.9 55.5066 107.547 56.1574 107.547 56.9533Z" fill="#9E6CFF" stroke="black" stroke-width="1.5" stroke-miterlimit="10" stroke-linecap="round" stroke-linejoin="round"/>
<path d="M99.1667 56.9533C99.1667 57.3513 99.0027 57.7118 98.7402 57.9739C98.4778 58.2361 98.1169 58.4 97.7185 58.4H78.9709C78.1741 58.4 77.5273 57.7492 77.5273 56.958C77.5273 56.56 77.6914 56.1995 77.9539 55.9373C78.2163 55.6751 78.5772 55.5113 78.9756 55.5113H97.7279C98.5199 55.5066 99.1667 56.1574 99.1667 56.9533Z" fill="#ED684A" stroke="black" stroke-width="1.5" stroke-miterlimit="10" stroke-linecap="round" stroke-linejoin="round"/>
<path d="M131.675 26.6895C131.675 27.0875 131.511 27.448 131.248 27.7102C130.986 27.9724 130.625 28.1363 130.227 28.1363H113.195C112.398 28.1363 111.751 27.4855 111.751 26.6942C111.751 26.2963 111.915 25.9358 112.177 25.6736C112.44 25.4114 112.801 25.2475 113.199 25.2475H130.231C131.023 25.2475 131.675 25.8936 131.675 26.6895Z" fill="#9E6CFF" stroke="black" stroke-width="1.5" stroke-miterlimit="10" stroke-linecap="round" stroke-linejoin="round"/>
<path d="M123.295 26.6895C123.295 27.0875 123.131 27.448 122.868 27.7102C122.606 27.9724 122.245 28.1363 121.847 28.1363H113.195C112.398 28.1363 111.751 27.4855 111.751 26.6942C111.751 26.2963 111.915 25.9358 112.177 25.6736C112.44 25.4114 112.801 25.2475 113.199 25.2475H121.851C122.643 25.2475 123.295 25.8936 123.295 26.6895Z" fill="#ED684A" stroke="black" stroke-width="1.5" stroke-miterlimit="10" stroke-linecap="round" stroke-linejoin="round"/>
<path d="M131.675 35.0982C131.675 35.4962 131.511 35.8567 131.248 36.1189C130.986 36.3811 130.625 36.5449 130.227 36.5449H113.195C112.398 36.5449 111.751 35.8941 111.751 35.1029C111.751 34.7049 111.915 34.3444 112.177 34.0823C112.44 33.8201 112.801 33.6562 113.199 33.6562H130.231C131.023 33.6562 131.675 34.3023 131.675 35.0982Z" fill="#9E6CFF" stroke="black" stroke-width="1.5" stroke-miterlimit="10" stroke-linecap="round" stroke-linejoin="round"/>
<path d="M123.295 35.0982C123.295 35.4962 123.131 35.8567 122.868 36.1189C122.606 36.3811 122.245 36.5449 121.847 36.5449H113.195C112.398 36.5449 111.751 35.8941 111.751 35.1029C111.751 34.7049 111.915 34.3444 112.177 34.0823C112.44 33.8201 112.801 33.6562 113.199 33.6562H121.851C122.643 33.6562 123.295 34.3023 123.295 35.0982Z" fill="#ED684A" stroke="black" stroke-width="1.5" stroke-miterlimit="10" stroke-linecap="round" stroke-linejoin="round"/>
<path d="M131.675 43.7691C131.675 44.1671 131.511 44.5276 131.248 44.7898C130.986 45.052 130.625 45.2158 130.227 45.2158H113.195C112.398 45.2158 111.751 44.565 111.751 43.7738C111.751 43.3758 111.915 43.0153 112.177 42.7531C112.44 42.491 112.801 42.3271 113.199 42.3271H130.231C131.023 42.3271 131.675 42.9732 131.675 43.7691Z" fill="#9E6CFF" stroke="black" stroke-width="1.5" stroke-miterlimit="10" stroke-linecap="round" stroke-linejoin="round"/>
<path d="M123.295 43.7691C123.295 44.1671 123.131 44.5276 122.868 44.7898C122.606 45.052 122.245 45.2158 121.847 45.2158H113.195C112.398 45.2158 111.751 44.565 111.751 43.7738C111.751 43.3758 111.915 43.0153 112.177 42.7531C112.44 42.491 112.801 42.3271 113.199 42.3271H121.851C122.643 42.3271 123.295 42.9732 123.295 43.7691Z" fill="#ED684A" stroke="black" stroke-width="1.5" stroke-miterlimit="10" stroke-linecap="round" stroke-linejoin="round"/>
<path d="M91.7751 49.8556C83.9011 49.8556 77.4941 43.4554 77.4941 35.5898C77.4941 34.9671 78.0003 34.4615 78.6237 34.4615C79.247 34.4615 79.7532 34.9671 79.7532 35.5898C79.7532 42.21 85.1432 47.5942 91.7704 47.5942C98.3977 47.5942 103.788 42.21 103.788 35.5898C103.788 28.9696 98.3977 23.5855 91.7704 23.5855C88.0537 23.5855 84.6088 25.2616 82.3123 28.1878C81.9279 28.6794 81.2155 28.7636 80.7234 28.3797C80.2313 27.9958 80.1469 27.2841 80.5312 26.7925C83.259 23.3186 87.3554 21.3241 91.7704 21.3241C99.6444 21.3241 106.051 27.7242 106.051 35.5898C106.051 43.4554 99.6491 49.8556 91.7751 49.8556Z" fill="#FFDE16" stroke="black" stroke-width="1.5" stroke-miterlimit="10"/>
<path d="M91.7894 43.8814C91.5222 43.8814 91.3066 43.6661 91.3066 43.3992V41.2128C91.3066 40.9459 91.5222 40.7305 91.7894 40.7305C92.0565 40.7305 92.2721 40.9459 92.2721 41.2128V43.3992C92.2721 43.6661 92.0519 43.8814 91.7894 43.8814Z" fill="#FFDE16" stroke="black" stroke-width="1.5" stroke-miterlimit="10"/>
<path d="M91.7889 40.0376C94.1781 40.0376 96.1149 38.1029 96.1149 35.7162C96.1149 33.3296 94.1781 31.3948 91.7889 31.3948C89.3997 31.3948 87.4629 33.3296 87.4629 35.7162C87.4629 38.1029 89.3997 40.0376 91.7889 40.0376Z" fill="#FFDE16" stroke="black" stroke-width="1.5" stroke-miterlimit="10"/>
<path d="M91.7894 30.5708C91.5222 30.5708 91.3066 30.3555 91.3066 30.0886V27.9022C91.3066 27.6353 91.5222 27.4199 91.7894 27.4199C92.0565 27.4199 92.2721 27.6353 92.2721 27.9022V30.0886C92.2721 30.3555 92.0519 30.5708 91.7894 30.5708Z" fill="#FFDE16" stroke="black" stroke-width="1.5" stroke-miterlimit="10"/>
<path d="M95.3838 32.0597C95.1963 31.8724 95.1963 31.5681 95.3838 31.3808L96.9304 29.8358C97.1179 29.6485 97.4226 29.6485 97.61 29.8358C97.7975 30.0231 97.7975 30.3274 97.61 30.5147L96.0634 32.0597C95.8806 32.247 95.5712 32.247 95.3838 32.0597Z" fill="#FFDE16" stroke="black" stroke-width="1.5" stroke-miterlimit="10"/>
<path d="M85.9638 41.4749C85.7764 41.2877 85.7764 40.9833 85.9638 40.7961L87.5105 39.251C87.698 39.0638 88.0026 39.0638 88.1901 39.251C88.3776 39.4383 88.3776 39.7426 88.1901 39.9299L86.6434 41.4749C86.456 41.6622 86.1513 41.6622 85.9638 41.4749Z" fill="#FFDE16" stroke="black" stroke-width="1.5" stroke-miterlimit="10"/>
<path d="M88.1901 32.0597C88.0026 32.247 87.698 32.247 87.5105 32.0597L85.9638 30.5147C85.7764 30.3274 85.7764 30.0231 85.9638 29.8358C86.1513 29.6485 86.456 29.6485 86.6434 29.8358L88.1901 31.3808C88.3776 31.5681 88.3776 31.8724 88.1901 32.0597Z" fill="#FFDE16" stroke="black" stroke-width="1.5" stroke-miterlimit="10"/>
<path d="M97.6149 41.4749C97.4274 41.6622 97.1228 41.6622 96.9353 41.4749L95.3887 39.9299C95.2012 39.7426 95.2012 39.4383 95.3887 39.251C95.5761 39.0638 95.8808 39.0638 96.0683 39.251L97.6149 40.7961C97.8024 40.9787 97.8024 41.2877 97.6149 41.4749Z" fill="#FFDE16" stroke="black" stroke-width="1.5" stroke-miterlimit="10"/>
<path d="M86.6992 35.6554C86.6992 35.9222 86.4836 36.1376 86.2165 36.1376H84.0277C83.7605 36.1376 83.5449 35.9222 83.5449 35.6554C83.5449 35.3885 83.7605 35.1731 84.0277 35.1731H86.2165C86.4836 35.1731 86.6992 35.3885 86.6992 35.6554Z" fill="#FFDE16" stroke="black" stroke-width="1.5" stroke-miterlimit="10"/>
<path d="M100.024 35.6554C100.024 35.9222 99.8088 36.1376 99.5416 36.1376H97.3529C97.0857 36.1376 96.8701 35.9222 96.8701 35.6554C96.8701 35.3885 97.0857 35.1731 97.3529 35.1731H99.5416C99.8088 35.1731 100.024 35.3885 100.024 35.6554Z" fill="#FFDE16" stroke="black" stroke-width="1.5" stroke-miterlimit="10"/>
<path d="M118.58 51.5691H111.751V58.3906H118.58V51.5691Z" fill="#00D384" stroke="black" stroke-width="1.5" stroke-miterlimit="10"/>
<path d="M131.671 51.5691H124.842V58.3906H131.671V51.5691Z" fill="#00D384" stroke="black" stroke-width="1.5" stroke-miterlimit="10"/>
<path d="M232.148 330.115V334.332H1V330.115C1 326.187 4.18344 323 8.10777 323H225.04C228.964 323 232.148 326.187 232.148 330.115Z" fill="#00D384" stroke="black" stroke-width="2" stroke-miterlimit="10" stroke-linecap="round" stroke-linejoin="round"/>
<path d="M232.148 330.115V467.065C232.148 470.807 229.115 473.837 225.376 473.837H7.77215C4.03304 473.837 1.00586 470.801 1.00586 467.065V330.115C1.00586 326.187 4.18933 323 8.11367 323H225.046C228.965 323 232.148 326.187 232.148 330.115Z" stroke="black" stroke-width="2" stroke-miterlimit="10"/>
<path d="M236.768 334.709V471.659C236.768 475.402 233.735 478.437 229.995 478.437H12.3917C9.31825 478.437 6.72516 476.386 5.89746 473.582C6.49364 473.756 7.11875 473.843 7.7728 473.843H225.377C229.116 473.843 232.149 470.807 232.149 467.065V330.115C232.149 329.35 232.027 328.614 231.807 327.925C234.684 328.834 236.768 331.528 236.768 334.709Z" fill="black" stroke="black" stroke-width="2" stroke-miterlimit="10"/>
<path d="M19.5633 330.532C20.5798 330.532 21.4039 329.707 21.4039 328.689C21.4039 327.672 20.5798 326.847 19.5633 326.847C18.5467 326.847 17.7227 327.672 17.7227 328.689C17.7227 329.707 18.5467 330.532 19.5633 330.532Z" stroke="black" stroke-width="2" stroke-miterlimit="10"/>
<path d="M26.5193 330.532C27.5359 330.532 28.36 329.707 28.36 328.689C28.36 327.672 27.5359 326.847 26.5193 326.847C25.5028 326.847 24.6787 327.672 24.6787 328.689C24.6787 329.707 25.5028 330.532 26.5193 330.532Z" stroke="black" stroke-width="2" stroke-miterlimit="10"/>
<path d="M12.4675 330.532C13.4841 330.532 14.3081 329.707 14.3081 328.689C14.3081 327.672 13.4841 326.847 12.4675 326.847C11.451 326.847 10.627 327.672 10.627 328.689C10.627 329.707 11.451 330.532 12.4675 330.532Z" stroke="black" stroke-width="2" stroke-miterlimit="10"/>
<path d="M232.97 334.338H1" stroke="black" stroke-width="2" stroke-miterlimit="10"/>
<path d="M231.235 470.419L231.42 470.755L231.756 470.94L231.42 471.12L231.235 471.456L231.055 471.12L230.72 470.94L231.055 470.755L231.235 470.419Z" fill="black"/>
<path d="M149.992 392.002H103.253C102.038 392.002 101.048 391.006 101.048 389.795C101.048 388.578 102.043 387.587 103.253 387.587H149.992C151.208 387.587 152.197 388.584 152.197 389.795C152.203 391.012 151.208 392.002 149.992 392.002Z" fill="#25AAE1" stroke="black" stroke-width="1.5" stroke-miterlimit="10" stroke-linecap="round" stroke-linejoin="round"/>
<path d="M149.992 403.265H103.253C102.038 403.265 101.048 402.269 101.048 401.058C101.048 399.841 102.043 398.85 103.253 398.85H149.992C151.208 398.85 152.197 399.847 152.197 401.058C152.203 402.274 151.208 403.265 149.992 403.265Z" fill="#25AAE1" stroke="black" stroke-width="1.5" stroke-miterlimit="10" stroke-linecap="round" stroke-linejoin="round"/>
<path d="M149.992 413.647H103.253C102.038 413.647 101.048 412.651 101.048 411.44C101.048 410.223 102.043 409.233 103.253 409.233H149.992C151.208 409.233 152.197 410.229 152.197 411.44C152.203 412.651 151.208 413.647 149.992 413.647Z" fill="#25AAE1" stroke="black" stroke-width="1.5" stroke-miterlimit="10" stroke-linecap="round" stroke-linejoin="round"/>
<path d="M71.3487 404.713C71.3487 405.322 71.0998 405.872 70.7004 406.272C70.301 406.672 69.7511 406.921 69.1434 406.921H27.718C26.5025 406.921 25.5127 405.93 25.5127 404.713C25.5127 404.105 25.7616 403.555 26.161 403.155C26.5603 402.755 27.1102 402.506 27.718 402.506H69.1434C70.3531 402.506 71.3487 403.503 71.3487 404.713Z" fill="#9E6CFF" stroke="black" stroke-width="1.5" stroke-miterlimit="10" stroke-linecap="round" stroke-linejoin="round"/>
<path d="M58.5512 404.713C58.5512 405.322 58.3023 405.872 57.9029 406.272C57.5035 406.672 56.9536 406.921 56.3459 406.921H27.718C26.5025 406.921 25.5127 405.93 25.5127 404.713C25.5127 404.105 25.7616 403.555 26.161 403.155C26.5603 402.755 27.1102 402.506 27.718 402.506H56.3459C57.5614 402.506 58.5512 403.503 58.5512 404.713Z" fill="#ED684A" stroke="black" stroke-width="1.5" stroke-miterlimit="10" stroke-linecap="round" stroke-linejoin="round"/>
<path d="M47.2638 393.856C35.2419 393.856 25.46 384.065 25.46 372.032C25.46 371.076 26.2356 370.299 27.1906 370.299C28.1457 370.299 28.9213 371.076 28.9213 372.032C28.9213 382.159 37.152 390.397 47.2696 390.397C57.3872 390.397 65.6178 382.159 65.6178 372.032C65.6178 361.904 57.3872 353.666 47.2696 353.666C41.5972 353.666 36.33 356.232 32.8282 360.705C32.2379 361.458 31.1555 361.586 30.403 361C29.6506 360.41 29.5232 359.326 30.1078 358.573C34.2753 353.26 40.5322 350.207 47.2696 350.207C59.2915 350.207 69.0733 359.998 69.0733 372.032C69.0733 384.065 59.2857 393.856 47.2638 393.856Z" fill="#FFDE16" stroke="black" stroke-width="1.5" stroke-miterlimit="10"/>
<path d="M116.965 425.988H104.723V461.984H116.965V425.988Z" fill="#00D384" stroke="black" stroke-width="1.5" stroke-miterlimit="10" stroke-linecap="round" stroke-linejoin="round"/>
<path d="M133.067 433.937H120.825V461.984H133.067V433.937Z" fill="#00D384" stroke="black" stroke-width="1.5" stroke-miterlimit="10" stroke-linecap="round" stroke-linejoin="round"/>
<path d="M148.528 445.199H136.286V461.984H148.528V445.199Z" fill="#00D384" stroke="black" stroke-width="1.5" stroke-miterlimit="10" stroke-linecap="round" stroke-linejoin="round"/>
<path d="M47.5007 384.72C47.0956 384.72 46.7656 384.389 46.7656 383.984V380.641C46.7656 380.235 47.0956 379.905 47.5007 379.905C47.9059 379.905 48.2358 380.235 48.2358 380.641V383.984C48.2358 384.389 47.9001 384.72 47.5007 384.72Z" fill="#FFDE16" stroke="black" stroke-width="1.5" stroke-miterlimit="10"/>
<path d="M47.5016 378.845C51.1522 378.845 54.1116 375.883 54.1116 372.229C54.1116 368.574 51.1522 365.612 47.5016 365.612C43.851 365.612 40.8916 368.574 40.8916 372.229C40.8916 375.883 43.851 378.845 47.5016 378.845Z" fill="#FFDE16" stroke="black" stroke-width="1.5" stroke-miterlimit="10"/>
<path d="M47.5007 364.355C47.0956 364.355 46.7656 364.025 46.7656 363.619V360.276C46.7656 359.871 47.0956 359.54 47.5007 359.54C47.9059 359.54 48.2358 359.871 48.2358 360.276V363.619C48.2358 364.025 47.9001 364.355 47.5007 364.355Z" fill="#FFDE16" stroke="black" stroke-width="1.5" stroke-miterlimit="10"/>
<path d="M52.9881 366.632C52.7045 366.348 52.7045 365.879 52.9881 365.589L55.3496 363.225C55.6332 362.941 56.1021 362.941 56.3915 363.225C56.6751 363.509 56.6751 363.978 56.3915 364.268L54.03 366.632C53.7464 366.922 53.2775 366.922 52.9881 366.632Z" fill="#FFDE16" stroke="black" stroke-width="1.5" stroke-miterlimit="10"/>
<path d="M38.6043 381.035C38.3207 380.751 38.3207 380.282 38.6043 379.992L40.9659 377.628C41.2495 377.344 41.7183 377.344 42.0077 377.628C42.2914 377.912 42.2914 378.381 42.0077 378.671L39.6462 381.035C39.3568 381.319 38.8879 381.319 38.6043 381.035Z" fill="#FFDE16" stroke="black" stroke-width="1.5" stroke-miterlimit="10"/>
<path d="M42.0077 366.632C41.7241 366.916 41.2553 366.916 40.9659 366.632L38.6043 364.268C38.3207 363.984 38.3207 363.515 38.6043 363.225C38.8879 362.941 39.3568 362.941 39.6462 363.225L42.0077 365.589C42.2914 365.879 42.2914 366.348 42.0077 366.632Z" fill="#FFDE16" stroke="black" stroke-width="1.5" stroke-miterlimit="10"/>
<path d="M56.3915 381.035C56.1079 381.319 55.639 381.319 55.3496 381.035L52.9881 378.671C52.7045 378.387 52.7045 377.918 52.9881 377.628C53.2717 377.344 53.7406 377.344 54.03 377.628L56.3915 379.992C56.6809 380.282 56.6809 380.745 56.3915 381.035Z" fill="#FFDE16" stroke="black" stroke-width="1.5" stroke-miterlimit="10"/>
<path d="M39.7337 372.13C39.7337 372.536 39.4038 372.866 38.9986 372.866H35.6589C35.2538 372.866 34.9238 372.536 34.9238 372.13C34.9238 371.725 35.2538 371.394 35.6589 371.394H38.9986C39.398 371.394 39.7337 371.725 39.7337 372.13Z" fill="#FFDE16" stroke="black" stroke-width="1.5" stroke-miterlimit="10"/>
<path d="M60.0784 372.13C60.0784 372.536 59.7485 372.866 59.3434 372.866H56.0036C55.5985 372.866 55.2686 372.536 55.2686 372.13C55.2686 371.725 55.5985 371.394 56.0036 371.394H59.3434C59.7485 371.394 60.0784 371.725 60.0784 372.13Z" fill="#FFDE16" stroke="black" stroke-width="1.5" stroke-miterlimit="10"/>
<path d="M46.4543 445.385L45.7192 443.606C45.5108 443.102 44.9262 442.859 44.4227 443.067L42.8946 443.699C41.8354 442.181 40.3074 441.022 38.5131 440.431L38.6172 438.896C38.652 438.351 38.2352 437.876 37.6911 437.841L35.7753 437.714C35.2312 437.679 34.7566 438.096 34.7218 438.641L34.6292 440.089C32.8812 440.333 31.3011 441.103 30.0567 442.233L28.9338 441.468C28.4823 441.161 27.863 441.277 27.5562 441.729L26.4738 443.316C26.1671 443.768 26.2828 444.388 26.7343 444.695L27.8283 445.443C27.4405 446.428 27.2205 447.494 27.2205 448.618C27.2205 449.133 27.2668 449.637 27.3536 450.124L26.1208 450.634C25.6172 450.842 25.3741 451.428 25.5825 451.932L26.3118 453.71C26.5202 454.214 27.1047 454.458 27.6083 454.249L28.8817 453.722C30.0104 455.257 31.631 456.398 33.5122 456.926L33.4138 458.42C33.379 458.965 33.7958 459.44 34.3398 459.475L36.2557 459.597C36.7998 459.631 37.2744 459.214 37.3091 458.675L37.4133 457.088C39.0571 456.781 40.5331 456.005 41.708 454.898L43.0972 455.842C43.5487 456.149 44.168 456.033 44.4748 455.582L45.5571 453.988C45.8639 453.536 45.7481 452.917 45.2967 452.609L43.8786 451.648C44.2317 450.703 44.4285 449.684 44.4285 448.618C44.4285 448.177 44.3937 447.749 44.3301 447.326L45.9044 446.677C46.4195 446.474 46.6627 445.889 46.4543 445.385ZM35.8274 453.264C33.2691 453.264 31.1911 451.184 31.1911 448.623C31.1911 446.063 33.2691 443.989 35.8274 443.989C38.3857 443.989 40.4578 446.063 40.4578 448.623C40.4636 451.184 38.3857 453.264 35.8274 453.264Z" fill="#9E6CFF" stroke="black" stroke-width="1.5" stroke-miterlimit="10" stroke-linecap="round" stroke-linejoin="round"/>
<path d="M142.218 375.606C147.732 375.606 152.202 371.132 152.202 365.612C152.202 360.093 147.732 355.618 142.218 355.618C136.704 355.618 132.233 360.093 132.233 365.612C132.233 371.132 136.704 375.606 142.218 375.606Z" fill="#00D384" stroke="black" stroke-width="1.5" stroke-miterlimit="10" stroke-linecap="round" stroke-linejoin="round"/>
<path d="M137.975 367.263L140 369.656L147.67 362.634" fill="#00D384"/>
<path d="M137.975 367.263L140 369.656L147.67 362.634" stroke="black" stroke-width="1.5" stroke-miterlimit="10" stroke-linecap="round" stroke-linejoin="round"/>
<path d="M59.494 420.779H28.3193C26.7449 420.779 25.46 419.493 25.46 417.917C25.46 416.341 26.7449 415.055 28.3193 415.055H59.494C61.0684 415.055 62.3534 416.341 62.3534 417.917C62.3592 419.493 61.0684 420.779 59.494 420.779Z" fill="#00D384" stroke="black" stroke-width="1.5" stroke-miterlimit="10" stroke-linecap="round" stroke-linejoin="round"/>
<path d="M59.494 431.347H28.3193C26.7449 431.347 25.46 430.061 25.46 428.485C25.46 426.909 26.7449 425.623 28.3193 425.623H59.494C61.0684 425.623 62.3534 426.909 62.3534 428.485C62.3592 430.055 61.0684 431.347 59.494 431.347Z" fill="#00D384" stroke="black" stroke-width="1.5" stroke-miterlimit="10" stroke-linecap="round" stroke-linejoin="round"/>
<path d="M111.037 375.606C116.551 375.606 121.022 371.132 121.022 365.612C121.022 360.093 116.551 355.618 111.037 355.618C105.523 355.618 101.053 360.093 101.053 365.612C101.053 371.132 105.523 375.606 111.037 375.606Z" fill="#FF6CE0" stroke="black" stroke-width="1.5" stroke-miterlimit="10" stroke-linecap="round" stroke-linejoin="round"/>
<path d="M111.037 361.03V366.823" stroke="black" stroke-width="1.5" stroke-miterlimit="10" stroke-linecap="round" stroke-linejoin="round"/>
<path d="M111.037 369.668V370.328" stroke="black" stroke-width="1.5" stroke-miterlimit="10" stroke-linecap="round" stroke-linejoin="round"/>
<path d="M214.263 382.084C214.263 392.622 206.269 401.289 196.019 402.338C195.33 402.408 194.63 402.442 193.923 402.442C182.689 402.442 173.584 393.329 173.584 382.084C173.584 370.838 182.689 361.725 193.923 361.725C203.346 361.725 211.27 368.138 213.58 376.835C214.025 378.515 214.263 380.27 214.263 382.084Z" fill="#9E6CFF" stroke="black" stroke-width="1.5" stroke-miterlimit="10" stroke-linecap="round" stroke-linejoin="round"/>
<path d="M213.572 376.835L193.916 382.084V361.725C203.339 361.725 211.263 368.138 213.572 376.835Z" fill="#FF6CE0" stroke="black" stroke-width="1.5" stroke-miterlimit="10" stroke-linecap="round" stroke-linejoin="round"/>
<path d="M214.262 382.084C214.262 392.622 206.269 401.289 196.018 402.338L193.923 382.084L213.579 376.835C214.025 378.515 214.262 380.27 214.262 382.084Z" fill="#FFDE16" stroke="black" stroke-width="1.5" stroke-miterlimit="10" stroke-linecap="round" stroke-linejoin="round"/>
<path d="M175.789 425.623C178.704 425.623 181.067 423.257 181.067 420.339C181.067 417.421 178.704 415.055 175.789 415.055C172.873 415.055 170.51 417.421 170.51 420.339C170.51 423.257 172.873 425.623 175.789 425.623Z" fill="#00D384" stroke="black" stroke-width="1.5" stroke-miterlimit="10" stroke-linecap="round" stroke-linejoin="round"/>
<path d="M192.9 425.623C195.815 425.623 198.179 423.257 198.179 420.339C198.179 417.421 195.815 415.055 192.9 415.055C189.984 415.055 187.621 417.421 187.621 420.339C187.621 423.257 189.984 425.623 192.9 425.623Z" fill="#00D384" stroke="black" stroke-width="1.5" stroke-miterlimit="10" stroke-linecap="round" stroke-linejoin="round"/>
<path d="M209.366 425.623C212.281 425.623 214.644 423.257 214.644 420.339C214.644 417.421 212.281 415.055 209.366 415.055C206.45 415.055 204.087 417.421 204.087 420.339C204.087 423.257 206.45 425.623 209.366 425.623Z" fill="#00D384" stroke="black" stroke-width="1.5" stroke-miterlimit="10" stroke-linecap="round" stroke-linejoin="round"/>
<path d="M175.789 441.723C178.704 441.723 181.067 439.358 181.067 436.439C181.067 433.521 178.704 431.156 175.789 431.156C172.873 431.156 170.51 433.521 170.51 436.439C170.51 439.358 172.873 441.723 175.789 441.723Z" fill="#00D384" stroke="black" stroke-width="1.5" stroke-miterlimit="10" stroke-linecap="round" stroke-linejoin="round"/>
<path d="M192.9 441.723C195.815 441.723 198.179 439.358 198.179 436.439C198.179 433.521 195.815 431.156 192.9 431.156C189.984 431.156 187.621 433.521 187.621 436.439C187.621 439.358 189.984 441.723 192.9 441.723Z" fill="#00D384" stroke="black" stroke-width="1.5" stroke-miterlimit="10" stroke-linecap="round" stroke-linejoin="round"/>
<path d="M209.366 441.723C212.281 441.723 214.644 439.358 214.644 436.439C214.644 433.521 212.281 431.156 209.366 431.156C206.45 431.156 204.087 433.521 204.087 436.439C204.087 439.358 206.45 441.723 209.366 441.723Z" fill="#00D384" stroke="black" stroke-width="1.5" stroke-miterlimit="10" stroke-linecap="round" stroke-linejoin="round"/>
<path d="M175.789 457.569C178.704 457.569 181.067 455.203 181.067 452.285C181.067 449.367 178.704 447.001 175.789 447.001C172.873 447.001 170.51 449.367 170.51 452.285C170.51 455.203 172.873 457.569 175.789 457.569Z" fill="#00D384" stroke="black" stroke-width="1.5" stroke-miterlimit="10" stroke-linecap="round" stroke-linejoin="round"/>
<path d="M192.9 457.569C195.815 457.569 198.179 455.203 198.179 452.285C198.179 449.367 195.815 447.001 192.9 447.001C189.984 447.001 187.621 449.367 187.621 452.285C187.621 455.203 189.984 457.569 192.9 457.569Z" fill="#00D384" stroke="black" stroke-width="1.5" stroke-miterlimit="10" stroke-linecap="round" stroke-linejoin="round"/>
<path d="M209.366 457.569C212.281 457.569 214.644 455.203 214.644 452.285C214.644 449.367 212.281 447.001 209.366 447.001C206.45 447.001 204.087 449.367 204.087 452.285C204.087 455.203 206.45 457.569 209.366 457.569Z" fill="#00D384" stroke="black" stroke-width="1.5" stroke-miterlimit="10" stroke-linecap="round" stroke-linejoin="round"/>
<g clip-path="url(#clip0intro)">
<path d="M249.734 310.091C247.89 311.67 247.665 314.457 249.232 316.314C250.8 318.171 253.567 318.399 255.41 316.82C257.253 315.241 259.373 307.632 259.373 307.632C259.373 307.632 251.581 308.507 249.734 310.091Z" fill="#00D384" stroke="black" stroke-width="2" stroke-miterlimit="10" stroke-linecap="round" stroke-linejoin="round"/>
<path d="M252.472 313.893C252.472 313.893 250.854 314.024 249.232 316.314" stroke="black" stroke-width="2" stroke-miterlimit="10" stroke-linecap="round" stroke-linejoin="round"/>
<path d="M249.333 316.057C249.27 316.112 249.207 316.163 249.149 316.213C248.229 316.992 247.397 317.578 246.666 318.016" stroke="black" stroke-width="2" stroke-miterlimit="10" stroke-linecap="round" stroke-linejoin="round"/>
<path d="M240.781 315.999C241.964 317.005 243.732 316.853 244.731 315.662C245.73 314.47 245.58 312.689 244.397 311.682C243.214 310.676 238.231 310.133 238.231 310.133C238.231 310.133 239.598 314.996 240.781 315.999Z" fill="#00D384" stroke="black" stroke-width="2" stroke-miterlimit="10" stroke-linecap="round" stroke-linejoin="round"/>
<path d="M243.201 314.184C243.201 314.184 244.271 315.666 244.727 315.666" stroke="black" stroke-width="2" stroke-miterlimit="10" stroke-linecap="round" stroke-linejoin="round"/>
<path d="M244.459 315.607C244.522 315.662 244.584 315.712 244.643 315.763C245.554 316.55 246.022 316.997 246.574 317.649" stroke="black" stroke-width="2" stroke-miterlimit="10" stroke-linecap="round" stroke-linejoin="round"/>
<path d="M246.67 318.213C246.67 326.547 239.903 333.368 231.627 333.368" stroke="black" stroke-width="2" stroke-miterlimit="10" stroke-linecap="round" stroke-linejoin="round"/>
</g>
<defs>
<clipPath id="clip0intro">
<rect width="29" height="27" fill="white" transform="translate(231 307)"/>
</clipPath>
</defs>
</svg>
