<svg width="790" height="236" viewBox="0 0 790 236" fill="none" xmlns="http://www.w3.org/2000/svg">
<g clip-path="url(#clip0energeintro)">
<path d="M204.525 159.735L172.673 168.914C167.866 168.914 163.937 155.795 163.937 150.982V86.9935C163.937 82.181 167.866 66.8286 172.673 66.8286L204.525 78.2402C209.973 80.1566 213.262 83.204 213.262 89.3421V148.129C213.262 155.326 210.074 157.725 204.525 159.735Z" fill="#9E6CFF" stroke="black" stroke-width="3" stroke-miterlimit="10"/>
<path d="M155.257 181.074H41.9766V200.677H155.257V181.074Z" fill="#B394FF" stroke="black" stroke-width="3" stroke-miterlimit="10"/>
<path d="M170.378 181.074H155.258V200.677H170.378V181.074Z" fill="#9E6CFF" stroke="black" stroke-width="3" stroke-miterlimit="10"/>
<path d="M172.839 181.074H52.8651C50.4254 181.074 48.4248 179.071 48.4248 176.629V48.9402C48.4248 46.4979 50.4254 44.4951 52.8651 44.4951H172.839C176.941 44.4951 180.294 47.8523 180.294 51.9588V173.603C180.294 177.71 176.941 181.074 172.839 181.074Z" fill="#9E6CFF" stroke="black" stroke-width="3" stroke-miterlimit="10"/>
<path d="M212.068 234.919H50.8361C48.2813 234.919 46.1943 232.83 46.1943 230.272V198.616C46.1943 196.059 48.2813 193.97 50.8361 193.97H213.939C218.206 193.97 221.697 197.464 221.697 201.736V225.28C221.689 230.582 217.364 234.919 212.068 234.919Z" fill="#9E6CFF" stroke="black" stroke-width="3" stroke-miterlimit="10"/>
<path d="M143.895 181.074H29.297C24.5473 181.074 20.6611 177.184 20.6611 172.429V53.1403C20.6611 48.3854 24.5473 44.4951 29.297 44.4951H143.895C148.645 44.4951 152.531 48.3854 152.531 53.1403V172.429C152.531 177.184 148.645 181.074 143.895 181.074Z" fill="#B394FF" stroke="black" stroke-width="3" stroke-miterlimit="10"/>
<path d="M127.529 173.258C131.071 173.258 133.941 170.384 133.941 166.838C133.941 163.293 131.071 160.419 127.529 160.419C123.988 160.419 121.117 163.293 121.117 166.838C121.117 170.384 123.988 173.258 127.529 173.258Z" fill="black" stroke="black" stroke-width="3" stroke-miterlimit="10"/>
<path d="M167.348 234.919H10.3123C5.23151 234.919 1.0791 230.762 1.0791 225.676V203.22C1.0791 198.134 5.23151 193.977 10.3123 193.977H167.348C172.429 193.977 176.581 198.134 176.581 203.22V225.676C176.581 230.762 172.422 234.919 167.348 234.919Z" fill="#B394FF" stroke="black" stroke-width="3" stroke-miterlimit="10"/>
<path d="M180.295 166.334L204.526 159.353H204.533C210.081 157.35 213.27 154.951 213.27 147.747V88.9671C213.27 82.8218 209.973 79.7816 204.533 77.8653L180.302 69.1841" stroke="black" stroke-width="3" stroke-miterlimit="10"/>
<path d="M54.9309 193.595H41.9771H9.92366C5.05879 193.595 1.0791 197.579 1.0791 202.449V225.683C1.0791 230.553 5.05879 234.537 9.92366 234.537H54.9309H167.73C172.594 234.537 176.574 230.553 176.574 225.683V202.341C176.574 198.415 173.955 195.065 170.378 193.97C169.572 193.725 168.715 193.588 167.837 193.588H155.265" stroke="black" stroke-width="3" stroke-miterlimit="10"/>
<path d="M54.9307 234.545H167.837H212.844C217.709 234.545 221.689 230.561 221.689 225.691V202.457C221.689 197.587 217.709 193.603 212.844 193.603H170.378H167.837H155.265" stroke="black" stroke-width="3" stroke-miterlimit="10"/>
<path d="M41.9766 193.595V181.175C41.9766 181.117 42.0269 181.067 42.0845 181.067H57.1613H143.793H155.157C155.214 181.067 155.265 181.117 155.265 181.175V193.494C155.265 193.552 155.214 193.602 155.157 193.602H54.9303" stroke="black" stroke-width="3" stroke-miterlimit="10"/>
<path d="M143.837 180.692H29.3614C24.5757 180.692 20.668 176.773 20.668 171.99V52.8161C20.668 48.0252 24.5829 44.1133 29.3614 44.1133H143.844C148.63 44.1133 152.537 48.0324 152.537 52.8161V171.982C152.537 176.773 148.623 180.692 143.837 180.692Z" stroke="black" stroke-width="3" stroke-miterlimit="10"/>
<path d="M138.252 147.935H33.4921C33.4562 147.935 33.4346 147.906 33.4346 147.877V63.2193C33.4346 63.1832 33.4634 63.1616 33.4921 63.1616H138.252C138.288 63.1616 138.31 63.1904 138.31 63.2193V147.877C138.31 147.913 138.288 147.935 138.252 147.935Z" fill="#25AAE1" stroke="black" stroke-width="3" stroke-miterlimit="10"/>
<path d="M46.1944 168.531H37.1916C36.2128 168.531 35.2557 167.955 34.9966 167.011C34.7807 166.219 35.0182 165.441 35.5363 164.936C35.9178 164.547 36.4431 164.317 37.0188 164.317H46.1944" fill="black"/>
<path d="M46.1944 168.531H37.1916C36.2128 168.531 35.2557 167.955 34.9966 167.011C34.7807 166.219 35.0182 165.441 35.5363 164.936C35.9178 164.547 36.4431 164.317 37.0188 164.317H46.1944" stroke="black" stroke-width="3" stroke-miterlimit="10"/>
<path d="M57.9678 164.317H65.9128C66.8915 164.317 67.8486 164.893 68.1077 165.837C68.3236 166.629 68.0861 167.408 67.568 167.912C67.1865 168.301 66.6612 168.531 66.0855 168.531H57.9678" fill="black"/>
<path d="M57.9678 164.317H65.9128C66.8915 164.317 67.8486 164.893 68.1077 165.837C68.3236 166.629 68.0861 167.408 67.568 167.912C67.1865 168.301 66.6612 168.531 66.0855 168.531H57.9678" stroke="black" stroke-width="3" stroke-miterlimit="10"/>
<path d="M57.9103 171.572H46.2519C46.2159 171.572 46.1943 171.543 46.1943 171.514V161.399C46.1943 161.363 46.2231 161.342 46.2519 161.342H57.9103C57.9463 161.342 57.9679 161.371 57.9679 161.399V171.514C57.9679 171.543 57.9391 171.572 57.9103 171.572Z" stroke="black" stroke-width="3" stroke-miterlimit="10"/>
<path d="M127.529 172.876C131.071 172.876 133.941 170.002 133.941 166.457C133.941 162.911 131.071 160.038 127.529 160.038C123.988 160.038 121.117 162.911 121.117 166.457C121.117 170.002 123.988 172.876 127.529 172.876Z" stroke="black" stroke-width="3" stroke-miterlimit="10"/>
<path d="M79.0395 204.697V224.552C79.0395 225.813 78.0104 226.843 76.751 226.843H20.474C19.2147 226.843 18.1855 225.813 18.1855 224.552V204.697C18.1855 203.436 19.2147 202.406 20.474 202.406H76.751C78.0104 202.406 79.0395 203.436 79.0395 204.697Z" fill="#9E6CFF" stroke="black" stroke-width="3" stroke-miterlimit="10"/>
<path d="M72.8141 221.037H24.4101C24.3741 221.037 24.3525 221.008 24.3525 220.979V208.451C24.3525 208.415 24.3813 208.393 24.4101 208.393H72.8141C72.8501 208.393 72.8717 208.422 72.8717 208.451V220.979C72.8717 221.015 72.8501 221.037 72.8141 221.037Z" fill="#9E6CFF" stroke="black" stroke-width="3" stroke-miterlimit="10"/>
<path d="M58.0253 215.561H29.7572C29.527 215.561 29.3398 215.374 29.3398 215.143V214.488C29.3398 214.257 29.527 214.07 29.7572 214.07H58.0253C58.2556 214.07 58.4427 214.257 58.4427 214.488V215.143C58.4427 215.374 58.2556 215.561 58.0253 215.561Z" fill="black"/>
<path d="M68.1505 217.968H61.7744C61.7384 217.968 61.7168 217.939 61.7168 217.91V211.527C61.7168 211.491 61.7456 211.469 61.7744 211.469H68.1505C68.1865 211.469 68.2081 211.498 68.2081 211.527V217.91C68.2081 217.939 68.1793 217.968 68.1505 217.968Z" fill="black"/>
<path d="M229.339 208.667H221.689V220.02H229.339V208.667Z" fill="white" stroke="black" stroke-width="3" stroke-miterlimit="10"/>
<path d="M263.436 163.352H300.743C314.891 163.352 326.471 174.943 326.471 189.107C326.471 203.271 314.891 214.862 300.743 214.862H229.339" stroke="black" stroke-width="3" stroke-miterlimit="10"/>
<path d="M288.682 163.352H265.74C247.784 163.352 233.089 148.641 233.089 130.666C233.089 112.691 247.784 97.98 265.74 97.98H319.088H425.863" stroke="black" stroke-width="3" stroke-miterlimit="10" stroke-linecap="round" stroke-linejoin="round"/>
<path d="M185.073 153.042L185.7 151.89L186.851 151.263L185.7 150.636L185.073 149.491L184.447 150.636L183.296 151.263L184.447 151.89L185.073 153.042Z" fill="black"/>
<path d="M189.967 153.042L190.593 151.89L191.745 151.263L190.593 150.636L189.967 149.491L189.341 150.636L188.189 151.263L189.341 151.89L189.967 153.042Z" fill="black"/>
<path d="M194.94 153.042L195.566 151.89L196.71 151.263L195.566 150.636L194.94 149.491L194.306 150.636L193.162 151.263L194.306 151.89L194.94 153.042Z" fill="black"/>
<path d="M182.583 156.637L183.209 155.492L184.361 154.865L183.209 154.231L182.583 153.085L181.957 154.231L180.806 154.865L181.957 155.492L182.583 156.637Z" fill="black"/>
<path d="M187.477 156.637L188.103 155.492L189.254 154.865L188.103 154.231L187.477 153.085L186.851 154.231L185.699 154.865L186.851 155.492L187.477 156.637Z" fill="black"/>
<path d="M192.442 156.637L193.076 155.492L194.22 154.865L193.076 154.231L192.442 153.085L191.816 154.231L190.672 154.865L191.816 155.492L192.442 156.637Z" fill="black"/>
<path d="M185.073 160.24L185.7 159.087L186.851 158.46L185.7 157.833L185.073 156.681L184.447 157.833L183.296 158.46L184.447 159.087L185.073 160.24Z" fill="black"/>
<path d="M189.967 160.24L190.593 159.087L191.745 158.46L190.593 157.833L189.967 156.681L189.341 157.833L188.189 158.46L189.341 159.087L189.967 160.24Z" fill="black"/>
<path d="M194.94 160.24L195.566 159.087L196.71 158.46L195.566 157.833L194.94 156.681L194.306 157.833L193.162 158.46L194.306 159.087L194.94 160.24Z" fill="black"/>
<path d="M182.583 163.834L183.209 162.689L184.361 162.055L183.209 161.428L182.583 160.283L181.957 161.428L180.806 162.055L181.957 162.689L182.583 163.834Z" fill="black"/>
<path d="M187.477 163.834L188.103 162.689L189.254 162.055L188.103 161.428L187.477 160.283L186.851 161.428L185.699 162.055L186.851 162.689L187.477 163.834Z" fill="black"/>
<path d="M185.073 123.707L185.7 122.561L186.851 121.927L185.7 121.3L185.073 120.155L184.447 121.3L183.296 121.927L184.447 122.561L185.073 123.707Z" fill="black"/>
<path d="M189.967 123.707L190.593 122.561L191.745 121.927L190.593 121.3L189.967 120.155L189.341 121.3L188.189 121.927L189.341 122.561L189.967 123.707Z" fill="black"/>
<path d="M194.94 123.707L195.566 122.561L196.71 121.927L195.566 121.3L194.94 120.155L194.306 121.3L193.162 121.927L194.306 122.561L194.94 123.707Z" fill="black"/>
<path d="M182.583 127.308L183.209 126.156L184.361 125.529L183.209 124.902L182.583 123.75L181.957 124.902L180.806 125.529L181.957 126.156L182.583 127.308Z" fill="black"/>
<path d="M187.477 127.308L188.103 126.156L189.254 125.529L188.103 124.902L187.477 123.75L186.851 124.902L185.699 125.529L186.851 126.156L187.477 127.308Z" fill="black"/>
<path d="M192.442 127.308L193.076 126.156L194.22 125.529L193.076 124.902L192.442 123.75L191.816 124.902L190.672 125.529L191.816 126.156L192.442 127.308Z" fill="black"/>
<path d="M185.073 130.904L185.7 129.751L186.851 129.124L185.7 128.497L185.073 127.345L184.447 128.497L183.296 129.124L184.447 129.751L185.073 130.904Z" fill="black"/>
<path d="M189.967 130.904L190.593 129.751L191.745 129.124L190.593 128.497L189.967 127.345L189.341 128.497L188.189 129.124L189.341 129.751L189.967 130.904Z" fill="black"/>
<path d="M194.94 130.904L195.566 129.751L196.71 129.124L195.566 128.497L194.94 127.345L194.306 128.497L193.162 129.124L194.306 129.751L194.94 130.904Z" fill="black"/>
<path d="M182.583 134.499L183.209 133.353L184.361 132.719L183.209 132.092L182.583 130.947L181.957 132.092L180.806 132.719L181.957 133.353L182.583 134.499Z" fill="black"/>
<path d="M187.477 134.499L188.103 133.353L189.254 132.719L188.103 132.092L187.477 130.947L186.851 132.092L185.699 132.719L186.851 133.353L187.477 134.499Z" fill="black"/>
<path d="M192.442 134.499L193.076 133.353L194.22 132.719L193.076 132.092L192.442 130.947L191.816 132.092L190.672 132.719L191.816 133.353L192.442 134.499Z" fill="black"/>
<path d="M185.073 138.252L185.7 137.099L186.851 136.472L185.7 135.846L185.073 134.693L184.447 135.846L183.296 136.472L184.447 137.099L185.073 138.252Z" fill="black"/>
<path d="M189.967 138.252L190.593 137.099L191.745 136.472L190.593 135.846L189.967 134.693L189.341 135.846L188.189 136.472L189.341 137.099L189.967 138.252Z" fill="black"/>
<path d="M194.94 138.252L195.566 137.099L196.71 136.472L195.566 135.846L194.94 134.693L194.306 135.846L193.162 136.472L194.306 137.099L194.94 138.252Z" fill="black"/>
<path d="M182.583 141.847L183.209 140.701L184.361 140.074L183.209 139.44L182.583 138.295L181.957 139.44L180.806 140.074L181.957 140.701L182.583 141.847Z" fill="black"/>
<path d="M187.477 141.847L188.103 140.701L189.254 140.074L188.103 139.44L187.477 138.295L186.851 139.44L185.699 140.074L186.851 140.701L187.477 141.847Z" fill="black"/>
<path d="M192.442 141.847L193.076 140.701L194.22 140.074L193.076 139.44L192.442 138.295L191.816 139.44L190.672 140.074L191.816 140.701L192.442 141.847Z" fill="black"/>
<path d="M185.073 145.442L185.7 144.296L186.851 143.67L185.7 143.043L185.073 141.89L184.447 143.043L183.296 143.67L184.447 144.296L185.073 145.442Z" fill="black"/>
<path d="M189.967 145.442L190.593 144.296L191.745 143.67L190.593 143.043L189.967 141.89L189.341 143.043L188.189 143.67L189.341 144.296L189.967 145.442Z" fill="black"/>
<path d="M194.94 145.442L195.566 144.296L196.71 143.67L195.566 143.043L194.94 141.89L194.306 143.043L193.162 143.67L194.306 144.296L194.94 145.442Z" fill="black"/>
<path d="M182.583 149.044L183.209 147.891L184.361 147.264L183.209 146.638L182.583 145.485L181.957 146.638L180.806 147.264L181.957 147.891L182.583 149.044Z" fill="black"/>
<path d="M187.477 149.044L188.103 147.891L189.254 147.264L188.103 146.638L187.477 145.485L186.851 146.638L185.699 147.264L186.851 147.891L187.477 149.044Z" fill="black"/>
<path d="M192.442 149.044L193.076 147.891L194.22 147.264L193.076 146.638L192.442 145.485L191.816 146.638L190.672 147.264L191.816 147.891L192.442 149.044Z" fill="black"/>
<path d="M185.073 94.4857L185.7 93.333L186.851 92.7062L185.7 92.0794L185.073 90.9268L184.447 92.0794L183.296 92.7062L184.447 93.333L185.073 94.4857Z" fill="black"/>
<path d="M189.967 94.4857L190.593 93.333L191.745 92.7062L190.593 92.0794L189.967 90.9268L189.341 92.0794L188.189 92.7062L189.341 93.333L189.967 94.4857Z" fill="black"/>
<path d="M194.94 94.4857L195.566 93.333L196.71 92.7062L195.566 92.0794L194.94 90.9268L194.306 92.0794L193.162 92.7062L194.306 93.333L194.94 94.4857Z" fill="black"/>
<path d="M182.583 98.0805L183.209 96.935L184.361 96.3011L183.209 95.6743L182.583 94.5288L181.957 95.6743L180.806 96.3011L181.957 96.935L182.583 98.0805Z" fill="black"/>
<path d="M187.477 98.0805L188.103 96.935L189.254 96.3011L188.103 95.6743L187.477 94.5288L186.851 95.6743L185.699 96.3011L186.851 96.935L187.477 98.0805Z" fill="black"/>
<path d="M192.442 98.0805L193.076 96.935L194.22 96.3011L193.076 95.6743L192.442 94.5288L191.816 95.6743L190.672 96.3011L191.816 96.935L192.442 98.0805Z" fill="black"/>
<path d="M185.073 101.676L185.7 100.53L186.851 99.9035L185.7 99.2695L185.073 98.124L184.447 99.2695L183.296 99.9035L184.447 100.53L185.073 101.676Z" fill="black"/>
<path d="M189.967 101.676L190.593 100.53L191.745 99.9035L190.593 99.2695L189.967 98.124L189.341 99.2695L188.189 99.9035L189.341 100.53L189.967 101.676Z" fill="black"/>
<path d="M194.94 101.676L195.566 100.53L196.71 99.9035L195.566 99.2695L194.94 98.124L194.306 99.2695L193.162 99.9035L194.306 100.53L194.94 101.676Z" fill="black"/>
<path d="M182.583 105.278L183.209 104.125L184.361 103.498L183.209 102.871L182.583 101.719L181.957 102.871L180.806 103.498L181.957 104.125L182.583 105.278Z" fill="black"/>
<path d="M187.477 105.278L188.103 104.125L189.254 103.498L188.103 102.871L187.477 101.719L186.851 102.871L185.699 103.498L186.851 104.125L187.477 105.278Z" fill="black"/>
<path d="M192.442 105.278L193.076 104.125L194.22 103.498L193.076 102.871L192.442 101.719L191.816 102.871L190.672 103.498L191.816 104.125L192.442 105.278Z" fill="black"/>
<path d="M185.073 109.024L185.7 107.878L186.851 107.252L185.7 106.618L185.073 105.472L184.447 106.618L183.296 107.252L184.447 107.878L185.073 109.024Z" fill="black"/>
<path d="M189.967 109.024L190.593 107.878L191.745 107.252L190.593 106.618L189.967 105.472L189.341 106.618L188.189 107.252L189.341 107.878L189.967 109.024Z" fill="black"/>
<path d="M194.94 109.024L195.566 107.878L196.71 107.252L195.566 106.618L194.94 105.472L194.306 106.618L193.162 107.252L194.306 107.878L194.94 109.024Z" fill="black"/>
<path d="M182.583 112.626L183.209 111.473L184.361 110.846L183.209 110.22L182.583 109.067L181.957 110.22L180.806 110.846L181.957 111.473L182.583 112.626Z" fill="black"/>
<path d="M187.477 112.626L188.103 111.473L189.254 110.846L188.103 110.22L187.477 109.067L186.851 110.22L185.699 110.846L186.851 111.473L187.477 112.626Z" fill="black"/>
<path d="M192.442 112.626L193.076 111.473L194.22 110.846L193.076 110.22L192.442 109.067L191.816 110.22L190.672 110.846L191.816 111.473L192.442 112.626Z" fill="black"/>
<path d="M185.073 116.221L185.7 115.076L186.851 114.442L185.7 113.815L185.073 112.669L184.447 113.815L183.296 114.442L184.447 115.076L185.073 116.221Z" fill="black"/>
<path d="M189.967 116.221L190.593 115.076L191.745 114.442L190.593 113.815L189.967 112.669L189.341 113.815L188.189 114.442L189.341 115.076L189.967 116.221Z" fill="black"/>
<path d="M194.94 116.221L195.566 115.076L196.71 114.442L195.566 113.815L194.94 112.669L194.306 113.815L193.162 114.442L194.306 115.076L194.94 116.221Z" fill="black"/>
<path d="M182.583 119.816L183.209 118.67L184.361 118.044L183.209 117.417L182.583 116.264L181.957 117.417L180.806 118.044L181.957 118.67L182.583 119.816Z" fill="black"/>
<path d="M187.477 119.816L188.103 118.67L189.254 118.044L188.103 117.417L187.477 116.264L186.851 117.417L185.699 118.044L186.851 118.67L187.477 119.816Z" fill="black"/>
<path d="M192.442 119.816L193.076 118.67L194.22 118.044L193.076 117.417L192.442 116.264L191.816 117.417L190.672 118.044L191.816 118.67L192.442 119.816Z" fill="black"/>
<path d="M182.583 75.9419L183.209 74.7892L184.361 74.1624L183.209 73.5356L182.583 72.3901L181.957 73.5356L180.806 74.1624L181.957 74.7892L182.583 75.9419Z" fill="black"/>
<path d="M187.477 75.9419L188.103 74.7892L189.254 74.1624L188.103 73.5356L187.477 72.3901L186.851 73.5356L185.699 74.1624L186.851 74.7892L187.477 75.9419Z" fill="black"/>
<path d="M185.073 79.688L185.7 78.5425L186.851 77.9157L185.7 77.2889L185.073 76.1362L184.447 77.2889L183.296 77.9157L184.447 78.5425L185.073 79.688Z" fill="black"/>
<path d="M189.967 79.688L190.593 78.5425L191.745 77.9157L190.593 77.2889L189.967 76.1362L189.341 77.2889L188.189 77.9157L189.341 78.5425L189.967 79.688Z" fill="black"/>
<path d="M194.94 79.688L195.566 78.5425L196.71 77.9157L195.566 77.2889L194.94 76.1362L194.306 77.2889L193.162 77.9157L194.306 78.5425L194.94 79.688Z" fill="black"/>
<path d="M182.583 83.29L183.209 82.1373L184.361 81.5105L183.209 80.8838L182.583 79.7383L181.957 80.8838L180.806 81.5105L181.957 82.1373L182.583 83.29Z" fill="black"/>
<path d="M187.477 83.29L188.103 82.1373L189.254 81.5105L188.103 80.8838L187.477 79.7383L186.851 80.8838L185.699 81.5105L186.851 82.1373L187.477 83.29Z" fill="black"/>
<path d="M192.442 83.29L193.076 82.1373L194.22 81.5105L193.076 80.8838L192.442 79.7383L191.816 80.8838L190.672 81.5105L191.816 82.1373L192.442 83.29Z" fill="black"/>
<path d="M185.073 86.8852L185.7 85.7397L186.851 85.1058L185.7 84.479L185.073 83.3335L184.447 84.479L183.296 85.1058L184.447 85.7397L185.073 86.8852Z" fill="black"/>
<path d="M189.967 86.8852L190.593 85.7397L191.745 85.1058L190.593 84.479L189.967 83.3335L189.341 84.479L188.189 85.1058L189.341 85.7397L189.967 86.8852Z" fill="black"/>
<path d="M194.94 86.8852L195.566 85.7397L196.71 85.1058L195.566 84.479L194.94 83.3335L194.306 84.479L193.162 85.1058L194.306 85.7397L194.94 86.8852Z" fill="black"/>
<path d="M182.583 90.4871L183.209 89.3345L184.361 88.7077L183.209 88.0809L182.583 86.9282L181.957 88.0809L180.806 88.7077L181.957 89.3345L182.583 90.4871Z" fill="black"/>
<path d="M187.477 90.4871L188.103 89.3345L189.254 88.7077L188.103 88.0809L187.477 86.9282L186.851 88.0809L185.699 88.7077L186.851 89.3345L187.477 90.4871Z" fill="black"/>
<path d="M192.442 90.4871L193.076 89.3345L194.22 88.7077L193.076 88.0809L192.442 86.9282L191.816 88.0809L190.672 88.7077L191.816 89.3345L192.442 90.4871Z" fill="black"/>
<path d="M200.611 153.042L201.244 151.889L202.389 151.262L201.244 150.636L200.611 149.49L199.985 150.636L198.841 151.262L199.985 151.889L200.611 153.042Z" fill="black"/>
<path d="M205.505 153.042L206.138 151.889L207.282 151.262L206.138 150.636L205.505 149.49L204.879 150.636L203.734 151.262L204.879 151.889L205.505 153.042Z" fill="black"/>
<path d="M210.478 153.042L211.104 151.889L212.255 151.262L211.104 150.636L210.478 149.49L209.852 150.636L208.7 151.262L209.852 151.889L210.478 153.042Z" fill="black"/>
<path d="M198.121 156.637L198.754 155.491L199.898 154.864L198.754 154.23L198.121 153.085L197.495 154.23L196.351 154.864L197.495 155.491L198.121 156.637Z" fill="black"/>
<path d="M203.014 156.637L203.648 155.491L204.792 154.864L203.648 154.23L203.014 153.085L202.388 154.23L201.244 154.864L202.388 155.491L203.014 156.637Z" fill="black"/>
<path d="M207.988 156.637L208.614 155.491L209.765 154.864L208.614 154.23L207.988 153.085L207.361 154.23L206.21 154.864L207.361 155.491L207.988 156.637Z" fill="black"/>
<path d="M200.611 160.239L201.244 159.086L202.389 158.46L201.244 157.833L200.611 156.68L199.985 157.833L198.841 158.46L199.985 159.086L200.611 160.239Z" fill="black"/>
<path d="M205.505 160.239L206.138 159.086L207.282 158.46L206.138 157.833L205.505 156.68L204.879 157.833L203.734 158.46L204.879 159.086L205.505 160.239Z" fill="black"/>
<path d="M200.611 123.706L201.244 122.561L202.389 121.927L201.244 121.3L200.611 120.154L199.985 121.3L198.841 121.927L199.985 122.561L200.611 123.706Z" fill="black"/>
<path d="M205.505 123.706L206.138 122.561L207.282 121.927L206.138 121.3L205.505 120.154L204.879 121.3L203.734 121.927L204.879 122.561L205.505 123.706Z" fill="black"/>
<path d="M210.478 123.706L211.104 122.561L212.255 121.927L211.104 121.3L210.478 120.154L209.852 121.3L208.7 121.927L209.852 122.561L210.478 123.706Z" fill="black"/>
<path d="M198.121 127.308L198.754 126.155L199.898 125.528L198.754 124.902L198.121 123.749L197.495 124.902L196.351 125.528L197.495 126.155L198.121 127.308Z" fill="black"/>
<path d="M203.014 127.308L203.648 126.155L204.792 125.528L203.648 124.902L203.014 123.749L202.388 124.902L201.244 125.528L202.388 126.155L203.014 127.308Z" fill="black"/>
<path d="M207.988 127.308L208.614 126.155L209.765 125.528L208.614 124.902L207.988 123.749L207.361 124.902L206.21 125.528L207.361 126.155L207.988 127.308Z" fill="black"/>
<path d="M200.611 130.903L201.244 129.75L202.389 129.124L201.244 128.497L200.611 127.344L199.985 128.497L198.841 129.124L199.985 129.75L200.611 130.903Z" fill="black"/>
<path d="M205.505 130.903L206.138 129.75L207.282 129.124L206.138 128.497L205.505 127.344L204.879 128.497L203.734 129.124L204.879 129.75L205.505 130.903Z" fill="black"/>
<path d="M210.478 130.903L211.104 129.75L212.255 129.124L211.104 128.497L210.478 127.344L209.852 128.497L208.7 129.124L209.852 129.75L210.478 130.903Z" fill="black"/>
<path d="M198.121 134.498L198.754 133.353L199.898 132.719L198.754 132.092L198.121 130.946L197.495 132.092L196.351 132.719L197.495 133.353L198.121 134.498Z" fill="black"/>
<path d="M203.014 134.498L203.648 133.353L204.792 132.719L203.648 132.092L203.014 130.946L202.388 132.092L201.244 132.719L202.388 133.353L203.014 134.498Z" fill="black"/>
<path d="M207.988 134.498L208.614 133.353L209.765 132.719L208.614 132.092L207.988 130.946L207.361 132.092L206.21 132.719L207.361 133.353L207.988 134.498Z" fill="black"/>
<path d="M200.611 138.251L201.244 137.099L202.389 136.472L201.244 135.845L200.611 134.692L199.985 135.845L198.841 136.472L199.985 137.099L200.611 138.251Z" fill="black"/>
<path d="M205.505 138.251L206.138 137.099L207.282 136.472L206.138 135.845L205.505 134.692L204.879 135.845L203.734 136.472L204.879 137.099L205.505 138.251Z" fill="black"/>
<path d="M210.478 138.251L211.104 137.099L212.255 136.472L211.104 135.845L210.478 134.692L209.852 135.845L208.7 136.472L209.852 137.099L210.478 138.251Z" fill="black"/>
<path d="M198.121 141.847L198.754 140.701L199.898 140.074L198.754 139.44L198.121 138.295L197.495 139.44L196.351 140.074L197.495 140.701L198.121 141.847Z" fill="black"/>
<path d="M203.014 141.847L203.648 140.701L204.792 140.074L203.648 139.44L203.014 138.295L202.388 139.44L201.244 140.074L202.388 140.701L203.014 141.847Z" fill="black"/>
<path d="M207.988 141.847L208.614 140.701L209.765 140.074L208.614 139.44L207.988 138.295L207.361 139.44L206.21 140.074L207.361 140.701L207.988 141.847Z" fill="black"/>
<path d="M200.611 145.441L201.244 144.296L202.389 143.669L201.244 143.042L200.611 141.89L199.985 143.042L198.841 143.669L199.985 144.296L200.611 145.441Z" fill="black"/>
<path d="M205.505 145.441L206.138 144.296L207.282 143.669L206.138 143.042L205.505 141.89L204.879 143.042L203.734 143.669L204.879 144.296L205.505 145.441Z" fill="black"/>
<path d="M210.478 145.441L211.104 144.296L212.255 143.669L211.104 143.042L210.478 141.89L209.852 143.042L208.7 143.669L209.852 144.296L210.478 145.441Z" fill="black"/>
<path d="M198.121 149.043L198.754 147.891L199.898 147.264L198.754 146.637L198.121 145.484L197.495 146.637L196.351 147.264L197.495 147.891L198.121 149.043Z" fill="black"/>
<path d="M203.014 149.043L203.648 147.891L204.792 147.264L203.648 146.637L203.014 145.484L202.388 146.637L201.244 147.264L202.388 147.891L203.014 149.043Z" fill="black"/>
<path d="M207.988 149.043L208.614 147.891L209.765 147.264L208.614 146.637L207.988 145.484L207.361 146.637L206.21 147.264L207.361 147.891L207.988 149.043Z" fill="black"/>
<path d="M200.611 94.4857L201.244 93.333L202.389 92.7062L201.244 92.0794L200.611 90.9268L199.985 92.0794L198.841 92.7062L199.985 93.333L200.611 94.4857Z" fill="black"/>
<path d="M205.505 94.4857L206.138 93.333L207.282 92.7062L206.138 92.0794L205.505 90.9268L204.879 92.0794L203.734 92.7062L204.879 93.333L205.505 94.4857Z" fill="black"/>
<path d="M210.478 94.4857L211.104 93.333L212.255 92.7062L211.104 92.0794L210.478 90.9268L209.852 92.0794L208.7 92.7062L209.852 93.333L210.478 94.4857Z" fill="black"/>
<path d="M198.121 98.0805L198.754 96.935L199.898 96.3011L198.754 95.6743L198.121 94.5288L197.495 95.6743L196.351 96.3011L197.495 96.935L198.121 98.0805Z" fill="black"/>
<path d="M203.014 98.0805L203.648 96.935L204.792 96.3011L203.648 95.6743L203.014 94.5288L202.388 95.6743L201.244 96.3011L202.388 96.935L203.014 98.0805Z" fill="black"/>
<path d="M207.988 98.0805L208.614 96.935L209.765 96.3011L208.614 95.6743L207.988 94.5288L207.361 95.6743L206.21 96.3011L207.361 96.935L207.988 98.0805Z" fill="black"/>
<path d="M200.611 101.676L201.244 100.53L202.389 99.9035L201.244 99.2695L200.611 98.124L199.985 99.2695L198.841 99.9035L199.985 100.53L200.611 101.676Z" fill="black"/>
<path d="M205.505 101.676L206.138 100.53L207.282 99.9035L206.138 99.2695L205.505 98.124L204.879 99.2695L203.734 99.9035L204.879 100.53L205.505 101.676Z" fill="black"/>
<path d="M210.478 101.676L211.104 100.53L212.255 99.9035L211.104 99.2695L210.478 98.124L209.852 99.2695L208.7 99.9035L209.852 100.53L210.478 101.676Z" fill="black"/>
<path d="M198.121 105.278L198.754 104.125L199.898 103.498L198.754 102.871L198.121 101.719L197.495 102.871L196.351 103.498L197.495 104.125L198.121 105.278Z" fill="black"/>
<path d="M203.014 105.278L203.648 104.125L204.792 103.498L203.648 102.871L203.014 101.719L202.388 102.871L201.244 103.498L202.388 104.125L203.014 105.278Z" fill="black"/>
<path d="M207.988 105.278L208.614 104.125L209.765 103.498L208.614 102.871L207.988 101.719L207.361 102.871L206.21 103.498L207.361 104.125L207.988 105.278Z" fill="black"/>
<path d="M200.611 109.024L201.244 107.878L202.389 107.252L201.244 106.618L200.611 105.472L199.985 106.618L198.841 107.252L199.985 107.878L200.611 109.024Z" fill="black"/>
<path d="M205.505 109.024L206.138 107.878L207.282 107.252L206.138 106.618L205.505 105.472L204.879 106.618L203.734 107.252L204.879 107.878L205.505 109.024Z" fill="black"/>
<path d="M210.478 109.024L211.104 107.878L212.255 107.252L211.104 106.618L210.478 105.472L209.852 106.618L208.7 107.252L209.852 107.878L210.478 109.024Z" fill="black"/>
<path d="M198.121 112.626L198.754 111.473L199.898 110.846L198.754 110.22L198.121 109.067L197.495 110.22L196.351 110.846L197.495 111.473L198.121 112.626Z" fill="black"/>
<path d="M203.014 112.626L203.648 111.473L204.792 110.846L203.648 110.22L203.014 109.067L202.388 110.22L201.244 110.846L202.388 111.473L203.014 112.626Z" fill="black"/>
<path d="M207.988 112.626L208.614 111.473L209.765 110.846L208.614 110.22L207.988 109.067L207.361 110.22L206.21 110.846L207.361 111.473L207.988 112.626Z" fill="black"/>
<path d="M200.611 116.221L201.244 115.076L202.389 114.442L201.244 113.815L200.611 112.669L199.985 113.815L198.841 114.442L199.985 115.076L200.611 116.221Z" fill="black"/>
<path d="M205.505 116.221L206.138 115.076L207.282 114.442L206.138 113.815L205.505 112.669L204.879 113.815L203.734 114.442L204.879 115.076L205.505 116.221Z" fill="black"/>
<path d="M210.478 116.221L211.104 115.076L212.255 114.442L211.104 113.815L210.478 112.669L209.852 113.815L208.7 114.442L209.852 115.076L210.478 116.221Z" fill="black"/>
<path d="M198.121 119.816L198.754 118.67L199.898 118.044L198.754 117.417L198.121 116.264L197.495 117.417L196.351 118.044L197.495 118.67L198.121 119.816Z" fill="black"/>
<path d="M203.014 119.816L203.648 118.67L204.792 118.044L203.648 117.417L203.014 116.264L202.388 117.417L201.244 118.044L202.388 118.67L203.014 119.816Z" fill="black"/>
<path d="M207.988 119.816L208.614 118.67L209.765 118.044L208.614 117.417L207.988 116.264L207.361 117.417L206.21 118.044L207.361 118.67L207.988 119.816Z" fill="black"/>
<path d="M200.611 79.688L201.244 78.5425L202.389 77.9157L201.244 77.2889L200.611 76.1362L199.985 77.2889L198.841 77.9157L199.985 78.5425L200.611 79.688Z" fill="black"/>
<path d="M198.121 83.29L198.754 82.1373L199.898 81.5105L198.754 80.8838L198.121 79.7383L197.495 80.8838L196.351 81.5105L197.495 82.1373L198.121 83.29Z" fill="black"/>
<path d="M203.014 83.29L203.648 82.1373L204.792 81.5105L203.648 80.8838L203.014 79.7383L202.388 80.8838L201.244 81.5105L202.388 82.1373L203.014 83.29Z" fill="black"/>
<path d="M207.988 83.29L208.614 82.1373L209.765 81.5105L208.614 80.8838L207.988 79.7383L207.361 80.8838L206.21 81.5105L207.361 82.1373L207.988 83.29Z" fill="black"/>
<path d="M200.611 86.8852L201.244 85.7397L202.389 85.1058L201.244 84.479L200.611 83.3335L199.985 84.479L198.841 85.1058L199.985 85.7397L200.611 86.8852Z" fill="black"/>
<path d="M205.505 86.8852L206.138 85.7397L207.282 85.1058L206.138 84.479L205.505 83.3335L204.879 84.479L203.734 85.1058L204.879 85.7397L205.505 86.8852Z" fill="black"/>
<path d="M210.478 86.8852L211.104 85.7397L212.255 85.1058L211.104 84.479L210.478 83.3335L209.852 84.479L208.7 85.1058L209.852 85.7397L210.478 86.8852Z" fill="black"/>
<path d="M198.121 90.4871L198.754 89.3345L199.898 88.7077L198.754 88.0809L198.121 86.9282L197.495 88.0809L196.351 88.7077L197.495 89.3345L198.121 90.4871Z" fill="black"/>
<path d="M203.014 90.4871L203.648 89.3345L204.792 88.7077L203.648 88.0809L203.014 86.9282L202.388 88.0809L201.244 88.7077L202.388 89.3345L203.014 90.4871Z" fill="black"/>
<path d="M207.988 90.4871L208.614 89.3345L209.765 88.7077L208.614 88.0809L207.988 86.9282L207.361 88.0809L206.21 88.7077L207.361 89.3345L207.988 90.4871Z" fill="black"/>
<path d="M180.287 212.636L180.913 211.491L182.058 210.857L180.913 210.23L180.287 209.084L179.654 210.23L178.51 210.857L179.654 211.491L180.287 212.636Z" fill="black"/>
<path d="M185.181 212.636L185.807 211.491L186.951 210.857L185.807 210.23L185.181 209.084L184.548 210.23L183.403 210.857L184.548 211.491L185.181 212.636Z" fill="black"/>
<path d="M190.146 212.636L190.772 211.491L191.924 210.857L190.772 210.23L190.146 209.084L189.52 210.23L188.376 210.857L189.52 211.491L190.146 212.636Z" fill="black"/>
<path d="M177.797 216.238L178.423 215.085L179.567 214.459L178.423 213.832L177.797 212.679L177.164 213.832L176.02 214.459L177.164 215.085L177.797 216.238Z" fill="black"/>
<path d="M182.691 216.238L183.317 215.085L184.461 214.459L183.317 213.832L182.691 212.679L182.057 213.832L180.913 214.459L182.057 215.085L182.691 216.238Z" fill="black"/>
<path d="M187.656 216.238L188.283 215.085L189.434 214.459L188.283 213.832L187.656 212.679L187.03 213.832L185.879 214.459L187.03 215.085L187.656 216.238Z" fill="black"/>
<path d="M180.287 219.833L180.913 218.681L182.058 218.054L180.913 217.427L180.287 216.274L179.654 217.427L178.51 218.054L179.654 218.681L180.287 219.833Z" fill="black"/>
<path d="M185.181 219.833L185.807 218.681L186.951 218.054L185.807 217.427L185.181 216.274L184.548 217.427L183.403 218.054L184.548 218.681L185.181 219.833Z" fill="black"/>
<path d="M190.146 219.833L190.772 218.681L191.924 218.054L190.772 217.427L190.146 216.274L189.52 217.427L188.376 218.054L189.52 218.681L190.146 219.833Z" fill="black"/>
<path d="M177.797 223.428L178.423 222.283L179.567 221.656L178.423 221.022L177.797 219.876L177.164 221.022L176.02 221.656L177.164 222.283L177.797 223.428Z" fill="black"/>
<path d="M182.691 223.428L183.317 222.283L184.461 221.656L183.317 221.022L182.691 219.876L182.057 221.022L180.913 221.656L182.057 222.283L182.691 223.428Z" fill="black"/>
<path d="M187.656 223.428L188.283 222.283L189.434 221.656L188.283 221.022L187.656 219.876L187.03 221.022L185.879 221.656L187.03 222.283L187.656 223.428Z" fill="black"/>
<path d="M180.287 227.181L180.913 226.029L182.058 225.402L180.913 224.775L180.287 223.623L179.654 224.775L178.51 225.402L179.654 226.029L180.287 227.181Z" fill="black"/>
<path d="M185.181 227.181L185.807 226.029L186.951 225.402L185.807 224.775L185.181 223.623L184.548 224.775L183.403 225.402L184.548 226.029L185.181 227.181Z" fill="black"/>
<path d="M190.146 227.181L190.772 226.029L191.924 225.402L190.772 224.775L190.146 223.623L189.52 224.775L188.376 225.402L189.52 226.029L190.146 227.181Z" fill="black"/>
<path d="M177.797 230.777L178.423 229.631L179.567 229.005L178.423 228.371L177.797 227.225L177.164 228.371L176.02 229.005L177.164 229.631L177.797 230.777Z" fill="black"/>
<path d="M182.691 230.777L183.317 229.631L184.461 229.005L183.317 228.371L182.691 227.225L182.057 228.371L180.913 229.005L182.057 229.631L182.691 230.777Z" fill="black"/>
<path d="M187.656 230.777L188.283 229.631L189.434 229.005L188.283 228.371L187.656 227.225L187.03 228.371L185.879 229.005L187.03 229.631L187.656 230.777Z" fill="black"/>
<path d="M180.287 234.372L180.913 233.226L182.058 232.599L180.913 231.973L180.287 230.82L179.654 231.973L178.51 232.599L179.654 233.226L180.287 234.372Z" fill="black"/>
<path d="M185.181 234.372L185.807 233.226L186.951 232.599L185.807 231.973L185.181 230.82L184.548 231.973L183.403 232.599L184.548 233.226L185.181 234.372Z" fill="black"/>
<path d="M190.146 234.372L190.772 233.226L191.924 232.599L190.772 231.973L190.146 230.82L189.52 231.973L188.376 232.599L189.52 233.226L190.146 234.372Z" fill="black"/>
<path d="M180.287 197.954L180.913 196.809L182.058 196.182L180.913 195.555L180.287 194.402L179.654 195.555L178.51 196.182L179.654 196.809L180.287 197.954Z" fill="black"/>
<path d="M185.181 197.954L185.807 196.809L186.951 196.182L185.807 195.555L185.181 194.402L184.548 195.555L183.403 196.182L184.548 196.809L185.181 197.954Z" fill="black"/>
<path d="M190.146 197.954L190.772 196.809L191.924 196.182L190.772 195.555L190.146 194.402L189.52 195.555L188.376 196.182L189.52 196.809L190.146 197.954Z" fill="black"/>
<path d="M177.797 201.556L178.423 200.403L179.567 199.777L178.423 199.15L177.797 197.997L177.164 199.15L176.02 199.777L177.164 200.403L177.797 201.556Z" fill="black"/>
<path d="M182.691 201.556L183.317 200.403L184.461 199.777L183.317 199.15L182.691 197.997L182.057 199.15L180.913 199.777L182.057 200.403L182.691 201.556Z" fill="black"/>
<path d="M187.656 201.556L188.283 200.403L189.434 199.777L188.283 199.15L187.656 197.997L187.03 199.15L185.879 199.777L187.03 200.403L187.656 201.556Z" fill="black"/>
<path d="M180.287 205.151L180.913 204.006L182.058 203.372L180.913 202.745L180.287 201.6L179.654 202.745L178.51 203.372L179.654 204.006L180.287 205.151Z" fill="black"/>
<path d="M185.181 205.151L185.807 204.006L186.951 203.372L185.807 202.745L185.181 201.6L184.548 202.745L183.403 203.372L184.548 204.006L185.181 205.151Z" fill="black"/>
<path d="M190.146 205.151L190.772 204.006L191.924 203.372L190.772 202.745L190.146 201.6L189.52 202.745L188.376 203.372L189.52 204.006L190.146 205.151Z" fill="black"/>
<path d="M177.797 208.753L178.423 207.601L179.567 206.974L178.423 206.347L177.797 205.194L177.164 206.347L176.02 206.974L177.164 207.601L177.797 208.753Z" fill="black"/>
<path d="M182.691 208.753L183.317 207.601L184.461 206.974L183.317 206.347L182.691 205.194L182.057 206.347L180.913 206.974L182.057 207.601L182.691 208.753Z" fill="black"/>
<path d="M187.656 208.753L188.283 207.601L189.434 206.974L188.283 206.347L187.656 205.194L187.03 206.347L185.879 206.974L187.03 207.601L187.656 208.753Z" fill="black"/>
<path d="M195.824 212.637L196.451 211.491L197.602 210.857L196.451 210.23L195.824 209.085L195.198 210.23L194.047 210.857L195.198 211.491L195.824 212.637Z" fill="black"/>
<path d="M200.718 212.637L201.344 211.491L202.496 210.857L201.344 210.23L200.718 209.085L200.092 210.23L198.94 210.857L200.092 211.491L200.718 212.637Z" fill="black"/>
<path d="M205.691 212.637L206.317 211.491L207.461 210.857L206.317 210.23L205.691 209.085L205.057 210.23L203.913 210.857L205.057 211.491L205.691 212.637Z" fill="black"/>
<path d="M193.334 216.239L193.96 215.086L195.112 214.459L193.96 213.832L193.334 212.68L192.708 213.832L191.557 214.459L192.708 215.086L193.334 216.239Z" fill="black"/>
<path d="M198.228 216.239L198.854 215.086L200.005 214.459L198.854 213.832L198.228 212.68L197.602 213.832L196.45 214.459L197.602 215.086L198.228 216.239Z" fill="black"/>
<path d="M203.2 216.239L203.826 215.086L204.971 214.459L203.826 213.832L203.2 212.68L202.567 213.832L201.423 214.459L202.567 215.086L203.2 216.239Z" fill="black"/>
<path d="M195.824 219.834L196.451 218.681L197.602 218.054L196.451 217.428L195.824 216.275L195.198 217.428L194.047 218.054L195.198 218.681L195.824 219.834Z" fill="black"/>
<path d="M200.718 219.834L201.344 218.681L202.496 218.054L201.344 217.428L200.718 216.275L200.092 217.428L198.94 218.054L200.092 218.681L200.718 219.834Z" fill="black"/>
<path d="M205.691 219.834L206.317 218.681L207.461 218.054L206.317 217.428L205.691 216.275L205.057 217.428L203.913 218.054L205.057 218.681L205.691 219.834Z" fill="black"/>
<path d="M193.334 223.429L193.96 222.283L195.112 221.656L193.96 221.022L193.334 219.877L192.708 221.022L191.557 221.656L192.708 222.283L193.334 223.429Z" fill="black"/>
<path d="M198.228 223.429L198.854 222.283L200.005 221.656L198.854 221.022L198.228 219.877L197.602 221.022L196.45 221.656L197.602 222.283L198.228 223.429Z" fill="black"/>
<path d="M203.2 223.429L203.826 222.283L204.971 221.656L203.826 221.022L203.2 219.877L202.567 221.022L201.423 221.656L202.567 222.283L203.2 223.429Z" fill="black"/>
<path d="M195.824 227.182L196.451 226.029L197.602 225.403L196.451 224.776L195.824 223.623L195.198 224.776L194.047 225.403L195.198 226.029L195.824 227.182Z" fill="black"/>
<path d="M200.718 227.182L201.344 226.029L202.496 225.403L201.344 224.776L200.718 223.623L200.092 224.776L198.94 225.403L200.092 226.029L200.718 227.182Z" fill="black"/>
<path d="M205.691 227.182L206.317 226.029L207.461 225.403L206.317 224.776L205.691 223.623L205.057 224.776L203.913 225.403L205.057 226.029L205.691 227.182Z" fill="black"/>
<path d="M193.334 230.777L193.96 229.632L195.112 229.005L193.96 228.371L193.334 227.226L192.708 228.371L191.557 229.005L192.708 229.632L193.334 230.777Z" fill="black"/>
<path d="M198.228 230.777L198.854 229.632L200.005 229.005L198.854 228.371L198.228 227.226L197.602 228.371L196.45 229.005L197.602 229.632L198.228 230.777Z" fill="black"/>
<path d="M203.2 230.777L203.826 229.632L204.971 229.005L203.826 228.371L203.2 227.226L202.567 228.371L201.423 229.005L202.567 229.632L203.2 230.777Z" fill="black"/>
<path d="M195.824 234.372L196.451 233.227L197.602 232.6L196.451 231.973L195.824 230.82L195.198 231.973L194.047 232.6L195.198 233.227L195.824 234.372Z" fill="black"/>
<path d="M200.718 234.372L201.344 233.227L202.496 232.6L201.344 231.973L200.718 230.82L200.092 231.973L198.94 232.6L200.092 233.227L200.718 234.372Z" fill="black"/>
<path d="M205.691 234.372L206.317 233.227L207.461 232.6L206.317 231.973L205.691 230.82L205.057 231.973L203.913 232.6L205.057 233.227L205.691 234.372Z" fill="black"/>
<path d="M195.824 197.954L196.451 196.809L197.602 196.182L196.451 195.555L195.824 194.402L195.198 195.555L194.047 196.182L195.198 196.809L195.824 197.954Z" fill="black"/>
<path d="M200.718 197.954L201.344 196.809L202.496 196.182L201.344 195.555L200.718 194.402L200.092 195.555L198.94 196.182L200.092 196.809L200.718 197.954Z" fill="black"/>
<path d="M205.691 197.954L206.317 196.809L207.461 196.182L206.317 195.555L205.691 194.402L205.057 195.555L203.913 196.182L205.057 196.809L205.691 197.954Z" fill="black"/>
<path d="M193.334 201.556L193.96 200.403L195.112 199.777L193.96 199.15L193.334 197.997L192.708 199.15L191.557 199.777L192.708 200.403L193.334 201.556Z" fill="black"/>
<path d="M198.228 201.556L198.854 200.403L200.005 199.777L198.854 199.15L198.228 197.997L197.602 199.15L196.45 199.777L197.602 200.403L198.228 201.556Z" fill="black"/>
<path d="M203.2 201.556L203.826 200.403L204.971 199.777L203.826 199.15L203.2 197.997L202.567 199.15L201.423 199.777L202.567 200.403L203.2 201.556Z" fill="black"/>
<path d="M195.824 205.151L196.451 204.006L197.602 203.372L196.451 202.745L195.824 201.6L195.198 202.745L194.047 203.372L195.198 204.006L195.824 205.151Z" fill="black"/>
<path d="M200.718 205.151L201.344 204.006L202.496 203.372L201.344 202.745L200.718 201.6L200.092 202.745L198.94 203.372L200.092 204.006L200.718 205.151Z" fill="black"/>
<path d="M205.691 205.151L206.317 204.006L207.461 203.372L206.317 202.745L205.691 201.6L205.057 202.745L203.913 203.372L205.057 204.006L205.691 205.151Z" fill="black"/>
<path d="M193.334 208.753L193.96 207.601L195.112 206.974L193.96 206.347L193.334 205.194L192.708 206.347L191.557 206.974L192.708 207.601L193.334 208.753Z" fill="black"/>
<path d="M198.228 208.753L198.854 207.601L200.005 206.974L198.854 206.347L198.228 205.194L197.602 206.347L196.45 206.974L197.602 207.601L198.228 208.753Z" fill="black"/>
<path d="M203.2 208.753L203.826 207.601L204.971 206.974L203.826 206.347L203.2 205.194L202.567 206.347L201.423 206.974L202.567 207.601L203.2 208.753Z" fill="black"/>
<path d="M210.549 212.637L211.175 211.491L212.319 210.857L211.175 210.23L210.549 209.085L209.916 210.23L208.771 210.857L209.916 211.491L210.549 212.637Z" fill="black"/>
<path d="M215.443 212.637L216.069 211.491L217.213 210.857L216.069 210.23L215.443 209.085L214.809 210.23L213.665 210.857L214.809 211.491L215.443 212.637Z" fill="black"/>
<path d="M220.408 212.637L221.035 211.491L222.186 210.857L221.035 210.23L220.408 209.085L219.782 210.23L218.631 210.857L219.782 211.491L220.408 212.637Z" fill="black"/>
<path d="M208.059 216.239L208.685 215.086L209.829 214.459L208.685 213.832L208.059 212.68L207.425 213.832L206.281 214.459L207.425 215.086L208.059 216.239Z" fill="black"/>
<path d="M212.952 216.239L213.578 215.086L214.723 214.459L213.578 213.832L212.952 212.68L212.319 213.832L211.175 214.459L212.319 215.086L212.952 216.239Z" fill="black"/>
<path d="M217.918 216.239L218.544 215.086L219.696 214.459L218.544 213.832L217.918 212.68L217.292 213.832L216.141 214.459L217.292 215.086L217.918 216.239Z" fill="black"/>
<path d="M210.549 219.834L211.175 218.681L212.319 218.054L211.175 217.428L210.549 216.275L209.916 217.428L208.771 218.054L209.916 218.681L210.549 219.834Z" fill="black"/>
<path d="M215.443 219.834L216.069 218.681L217.213 218.054L216.069 217.428L215.443 216.275L214.809 217.428L213.665 218.054L214.809 218.681L215.443 219.834Z" fill="black"/>
<path d="M220.408 219.834L221.035 218.681L222.186 218.054L221.035 217.428L220.408 216.275L219.782 217.428L218.631 218.054L219.782 218.681L220.408 219.834Z" fill="black"/>
<path d="M208.059 223.429L208.685 222.283L209.829 221.656L208.685 221.022L208.059 219.877L207.425 221.022L206.281 221.656L207.425 222.283L208.059 223.429Z" fill="black"/>
<path d="M212.952 223.429L213.578 222.283L214.723 221.656L213.578 221.022L212.952 219.877L212.319 221.022L211.175 221.656L212.319 222.283L212.952 223.429Z" fill="black"/>
<path d="M217.918 223.429L218.544 222.283L219.696 221.656L218.544 221.022L217.918 219.877L217.292 221.022L216.141 221.656L217.292 222.283L217.918 223.429Z" fill="black"/>
<path d="M210.549 227.182L211.175 226.029L212.319 225.403L211.175 224.776L210.549 223.623L209.916 224.776L208.771 225.403L209.916 226.029L210.549 227.182Z" fill="black"/>
<path d="M215.443 227.182L216.069 226.029L217.213 225.403L216.069 224.776L215.443 223.623L214.809 224.776L213.665 225.403L214.809 226.029L215.443 227.182Z" fill="black"/>
<path d="M220.408 227.182L221.035 226.029L222.186 225.403L221.035 224.776L220.408 223.623L219.782 224.776L218.631 225.403L219.782 226.029L220.408 227.182Z" fill="black"/>
<path d="M208.059 230.777L208.685 229.632L209.829 229.005L208.685 228.371L208.059 227.226L207.425 228.371L206.281 229.005L207.425 229.632L208.059 230.777Z" fill="black"/>
<path d="M212.952 230.777L213.578 229.632L214.723 229.005L213.578 228.371L212.952 227.226L212.319 228.371L211.175 229.005L212.319 229.632L212.952 230.777Z" fill="black"/>
<path d="M217.918 230.777L218.544 229.632L219.696 229.005L218.544 228.371L217.918 227.226L217.292 228.371L216.141 229.005L217.292 229.632L217.918 230.777Z" fill="black"/>
<path d="M210.549 234.372L211.175 233.227L212.319 232.6L211.175 231.973L210.549 230.82L209.916 231.973L208.771 232.6L209.916 233.227L210.549 234.372Z" fill="black"/>
<path d="M215.443 234.372L216.069 233.227L217.213 232.6L216.069 231.973L215.443 230.82L214.809 231.973L213.665 232.6L214.809 233.227L215.443 234.372Z" fill="black"/>
<path d="M210.549 197.954L211.175 196.809L212.319 196.182L211.175 195.555L210.549 194.402L209.916 195.555L208.771 196.182L209.916 196.809L210.549 197.954Z" fill="black"/>
<path d="M215.443 197.954L216.069 196.809L217.213 196.182L216.069 195.555L215.443 194.402L214.809 195.555L213.665 196.182L214.809 196.809L215.443 197.954Z" fill="black"/>
<path d="M208.059 201.556L208.685 200.403L209.829 199.777L208.685 199.15L208.059 197.997L207.425 199.15L206.281 199.777L207.425 200.403L208.059 201.556Z" fill="black"/>
<path d="M212.952 201.556L213.578 200.403L214.723 199.777L213.578 199.15L212.952 197.997L212.319 199.15L211.175 199.777L212.319 200.403L212.952 201.556Z" fill="black"/>
<path d="M217.918 201.556L218.544 200.403L219.696 199.777L218.544 199.15L217.918 197.997L217.292 199.15L216.141 199.777L217.292 200.403L217.918 201.556Z" fill="black"/>
<path d="M210.549 205.151L211.175 204.006L212.319 203.372L211.175 202.745L210.549 201.6L209.916 202.745L208.771 203.372L209.916 204.006L210.549 205.151Z" fill="black"/>
<path d="M215.443 205.151L216.069 204.006L217.213 203.372L216.069 202.745L215.443 201.6L214.809 202.745L213.665 203.372L214.809 204.006L215.443 205.151Z" fill="black"/>
<path d="M220.408 205.151L221.035 204.006L222.186 203.372L221.035 202.745L220.408 201.6L219.782 202.745L218.631 203.372L219.782 204.006L220.408 205.151Z" fill="black"/>
<path d="M208.059 208.753L208.685 207.601L209.829 206.974L208.685 206.347L208.059 205.194L207.425 206.347L206.281 206.974L207.425 207.601L208.059 208.753Z" fill="black"/>
<path d="M212.952 208.753L213.578 207.601L214.723 206.974L213.578 206.347L212.952 205.194L212.319 206.347L211.175 206.974L212.319 207.601L212.952 208.753Z" fill="black"/>
<path d="M217.918 208.753L218.544 207.601L219.696 206.974L218.544 206.347L217.918 205.194L217.292 206.347L216.141 206.974L217.292 207.601L217.918 208.753Z" fill="black"/>
<path d="M92.5109 130.212C92.5109 130.824 92.259 131.379 91.856 131.783C91.453 132.186 90.8988 132.438 90.2871 132.438H48.6335C47.4101 132.438 46.417 131.437 46.417 130.219C46.417 129.607 46.6689 129.052 47.0719 128.649C47.4749 128.245 48.029 127.993 48.6407 127.993H90.2943C91.5177 127.986 92.5109 128.987 92.5109 130.212Z" fill="#9E6CFF" stroke="black" stroke-width="3" stroke-miterlimit="10" stroke-linecap="round" stroke-linejoin="round"/>
<path d="M79.6434 130.212C79.6434 130.824 79.3916 131.379 78.9886 131.783C78.5856 132.186 78.0314 132.438 77.4197 132.438H48.6335C47.4101 132.438 46.417 131.437 46.417 130.219C46.417 129.607 46.6689 129.052 47.0719 128.649C47.4749 128.245 48.029 127.993 48.6407 127.993H77.4341C78.6503 127.986 79.6434 128.987 79.6434 130.212Z" fill="#ED684A" stroke="black" stroke-width="3" stroke-miterlimit="10" stroke-linecap="round" stroke-linejoin="round"/>
<path d="M129.559 83.6432C129.559 84.2556 129.307 84.8103 128.904 85.2138C128.501 85.6172 127.947 85.8694 127.336 85.8694H101.183C99.9599 85.8694 98.9668 84.868 98.9668 83.6504C98.9668 83.0381 99.2187 82.4833 99.6217 82.0799C100.025 81.6765 100.579 81.4243 101.191 81.4243H127.343C128.559 81.4243 129.559 82.4185 129.559 83.6432Z" fill="#9E6CFF" stroke="black" stroke-width="3" stroke-miterlimit="10" stroke-linecap="round" stroke-linejoin="round"/>
<path d="M116.692 83.6432C116.692 84.2556 116.44 84.8103 116.037 85.2138C115.634 85.6172 115.08 85.8694 114.468 85.8694H101.183C99.9599 85.8694 98.9668 84.868 98.9668 83.6504C98.9668 83.0381 99.2187 82.4833 99.6217 82.0799C100.025 81.6765 100.579 81.4243 101.191 81.4243H114.475C115.692 81.4243 116.692 82.4185 116.692 83.6432Z" fill="#ED684A" stroke="black" stroke-width="3" stroke-miterlimit="10" stroke-linecap="round" stroke-linejoin="round"/>
<path d="M129.559 96.5822C129.559 97.1946 129.307 97.7493 128.904 98.1527C128.501 98.5562 127.947 98.8083 127.336 98.8083H101.183C99.9599 98.8083 98.9668 97.8069 98.9668 96.5894C98.9668 95.977 99.2187 95.4223 99.6217 95.0189C100.025 94.6154 100.579 94.3633 101.191 94.3633H127.343C128.559 94.3633 129.559 95.3575 129.559 96.5822Z" fill="#9E6CFF" stroke="black" stroke-width="3" stroke-miterlimit="10" stroke-linecap="round" stroke-linejoin="round"/>
<path d="M116.692 96.5822C116.692 97.1946 116.44 97.7493 116.037 98.1527C115.634 98.5562 115.08 98.8083 114.468 98.8083H101.183C99.9599 98.8083 98.9668 97.8069 98.9668 96.5894C98.9668 95.977 99.2187 95.4223 99.6217 95.0189C100.025 94.6154 100.579 94.3633 101.191 94.3633H114.475C115.692 94.3633 116.692 95.3575 116.692 96.5822Z" fill="#ED684A" stroke="black" stroke-width="3" stroke-miterlimit="10" stroke-linecap="round" stroke-linejoin="round"/>
<path d="M129.559 109.924C129.559 110.537 129.307 111.092 128.904 111.495C128.501 111.898 127.947 112.151 127.336 112.151H101.183C99.9599 112.151 98.9668 111.149 98.9668 109.932C98.9668 109.319 99.2187 108.765 99.6217 108.361C100.025 107.958 100.579 107.706 101.191 107.706H127.343C128.559 107.706 129.559 108.7 129.559 109.924Z" fill="#9E6CFF" stroke="black" stroke-width="3" stroke-miterlimit="10" stroke-linecap="round" stroke-linejoin="round"/>
<path d="M116.692 109.924C116.692 110.537 116.44 111.092 116.037 111.495C115.634 111.898 115.08 112.151 114.468 112.151H101.183C99.9599 112.151 98.9668 111.149 98.9668 109.932C98.9668 109.319 99.2187 108.765 99.6217 108.361C100.025 107.958 100.579 107.706 101.191 107.706H114.475C115.692 107.706 116.692 108.7 116.692 109.924Z" fill="#ED684A" stroke="black" stroke-width="3" stroke-miterlimit="10" stroke-linecap="round" stroke-linejoin="round"/>
<path d="M68.2951 119.29C56.2049 119.29 46.3672 109.442 46.3672 97.3387C46.3672 96.3805 47.1444 95.6025 48.1016 95.6025C49.0587 95.6025 49.8359 96.3805 49.8359 97.3387C49.8359 107.526 58.1119 115.811 68.2879 115.811C78.4638 115.811 86.7398 107.526 86.7398 97.3387C86.7398 87.1518 78.4638 78.8669 68.2879 78.8669C62.581 78.8669 57.2915 81.446 53.7652 85.9487C53.1751 86.7052 52.0812 86.8348 51.3256 86.2441C50.57 85.6533 50.4404 84.5583 51.0306 83.8018C55.2189 78.4562 61.5087 75.3872 68.2879 75.3872C80.3781 75.3872 90.2157 85.2355 90.2157 97.3387C90.2157 109.442 80.3853 119.29 68.2951 119.29Z" fill="#FFDE16" stroke="black" stroke-width="3" stroke-miterlimit="10"/>
<path d="M68.3174 110.098C67.9072 110.098 67.5762 109.766 67.5762 109.355V105.991C67.5762 105.58 67.9072 105.249 68.3174 105.249C68.7276 105.249 69.0587 105.58 69.0587 105.991V109.355C69.0587 109.766 68.7204 110.098 68.3174 110.098Z" fill="#FFDE16" stroke="black" stroke-width="3" stroke-miterlimit="10"/>
<path d="M68.3172 104.182C71.9857 104.182 74.9596 101.205 74.9596 97.5329C74.9596 93.8604 71.9857 90.8833 68.3172 90.8833C64.6487 90.8833 61.6748 93.8604 61.6748 97.5329C61.6748 101.205 64.6487 104.182 68.3172 104.182Z" fill="#FFDE16" stroke="black" stroke-width="3" stroke-miterlimit="10"/>
<path d="M68.3174 89.6156C67.9072 89.6156 67.5762 89.2842 67.5762 88.8735V85.5091C67.5762 85.0985 67.9072 84.7671 68.3174 84.7671C68.7276 84.7671 69.0587 85.0985 69.0587 85.5091V88.8735C69.0587 89.2842 68.7204 89.6156 68.3174 89.6156Z" fill="#FFDE16" stroke="black" stroke-width="3" stroke-miterlimit="10"/>
<path d="M73.837 91.9067C73.5491 91.6186 73.5491 91.1503 73.837 90.8621L76.2119 88.4847C76.4997 88.1965 76.9675 88.1965 77.2553 88.4847C77.5432 88.7729 77.5432 89.2411 77.2553 89.5293L74.8805 91.9067C74.5998 92.1949 74.1249 92.1949 73.837 91.9067Z" fill="#FFDE16" stroke="black" stroke-width="3" stroke-miterlimit="10"/>
<path d="M59.3712 106.395C59.0833 106.106 59.0833 105.638 59.3712 105.35L61.746 102.972C62.0339 102.684 62.5017 102.684 62.7895 102.972C63.0774 103.261 63.0774 103.729 62.7895 104.017L60.4147 106.395C60.1268 106.683 59.659 106.683 59.3712 106.395Z" fill="#FFDE16" stroke="black" stroke-width="3" stroke-miterlimit="10"/>
<path d="M62.7895 91.9067C62.5017 92.1949 62.0339 92.1949 61.746 91.9067L59.3712 89.5293C59.0833 89.2411 59.0833 88.7729 59.3712 88.4847C59.659 88.1965 60.1268 88.1965 60.4147 88.4847L62.7895 90.8621C63.0774 91.1503 63.0774 91.6186 62.7895 91.9067Z" fill="#FFDE16" stroke="black" stroke-width="3" stroke-miterlimit="10"/>
<path d="M77.2622 106.395C76.9743 106.683 76.5065 106.683 76.2187 106.395L73.8438 104.017C73.556 103.729 73.556 103.261 73.8438 102.972C74.1317 102.684 74.5995 102.684 74.8873 102.972L77.2622 105.35C77.55 105.631 77.55 106.106 77.2622 106.395Z" fill="#FFDE16" stroke="black" stroke-width="3" stroke-miterlimit="10"/>
<path d="M60.5015 97.4393C60.5015 97.85 60.1704 98.1814 59.7602 98.1814H56.3995C55.9892 98.1814 55.6582 97.85 55.6582 97.4393C55.6582 97.0287 55.9892 96.6973 56.3995 96.6973H59.7602C60.1704 96.6973 60.5015 97.0287 60.5015 97.4393Z" fill="#FFDE16" stroke="black" stroke-width="3" stroke-miterlimit="10"/>
<path d="M80.9614 97.4393C80.9614 97.85 80.6304 98.1814 80.2202 98.1814H76.8594C76.4492 98.1814 76.1182 97.85 76.1182 97.4393C76.1182 97.0287 76.4492 96.6973 76.8594 96.6973H80.2202C80.6304 96.6973 80.9614 97.0287 80.9614 97.4393Z" fill="#FFDE16" stroke="black" stroke-width="3" stroke-miterlimit="10"/>
<path d="M109.452 121.927H98.9668V132.423H109.452V121.927Z" fill="#00D384" stroke="black" stroke-width="3" stroke-miterlimit="10"/>
<path d="M129.552 121.927H119.066V132.423H129.552V121.927Z" fill="#00D384" stroke="black" stroke-width="3" stroke-miterlimit="10"/>
<path d="M713.177 44.9274V50.1722H425.783V44.9274C425.783 40.0429 429.741 36.0806 434.621 36.0806H704.34C709.219 36.0806 713.177 40.0429 713.177 44.9274Z" fill="#00D384" stroke="black" stroke-width="3" stroke-miterlimit="10" stroke-linecap="round" stroke-linejoin="round"/>
<path d="M713.177 44.9274V215.223C713.177 219.877 709.406 223.645 704.757 223.645H434.203C429.554 223.645 425.79 219.869 425.79 215.223V44.9274C425.79 40.0429 429.748 36.0806 434.627 36.0806H704.347C709.219 36.0806 713.177 40.0429 713.177 44.9274Z" stroke="black" stroke-width="3" stroke-miterlimit="10"/>
<path d="M718.92 50.6403V220.936C718.92 225.59 715.149 229.365 710.5 229.365H439.946C436.124 229.365 432.9 226.814 431.871 223.327C432.612 223.544 433.39 223.652 434.203 223.652H704.757C709.406 223.652 713.177 219.877 713.177 215.223V44.9273C713.177 43.9764 713.026 43.0614 712.752 42.2041C716.329 43.3352 718.92 46.6852 718.92 50.6403Z" fill="black" stroke="black" stroke-width="3" stroke-miterlimit="10"/>
<path d="M448.863 45.4462C450.127 45.4462 451.151 44.4205 451.151 43.1552C451.151 41.89 450.127 40.8643 448.863 40.8643C447.599 40.8643 446.574 41.89 446.574 43.1552C446.574 44.4205 447.599 45.4462 448.863 45.4462Z" stroke="black" stroke-width="3" stroke-miterlimit="10"/>
<path d="M457.513 45.4462C458.777 45.4462 459.802 44.4205 459.802 43.1552C459.802 41.89 458.777 40.8643 457.513 40.8643C456.249 40.8643 455.225 41.89 455.225 43.1552C455.225 44.4205 456.249 45.4462 457.513 45.4462Z" stroke="black" stroke-width="3" stroke-miterlimit="10"/>
<path d="M440.039 45.4462C441.303 45.4462 442.328 44.4205 442.328 43.1552C442.328 41.89 441.303 40.8643 440.039 40.8643C438.776 40.8643 437.751 41.89 437.751 43.1552C437.751 44.4205 438.776 45.4462 440.039 45.4462Z" stroke="black" stroke-width="3" stroke-miterlimit="10"/>
<path d="M714.199 50.1792H425.783" stroke="black" stroke-width="3" stroke-miterlimit="10"/>
<path d="M712.04 219.394L712.27 219.812L712.688 220.042L712.27 220.266L712.04 220.684L711.817 220.266L711.399 220.042L711.817 219.812L712.04 219.394Z" fill="black"/>
<path d="M611.03 121.884H552.918C551.406 121.884 550.176 120.645 550.176 119.139C550.176 117.626 551.414 116.394 552.918 116.394H611.03C612.541 116.394 613.772 117.633 613.772 119.139C613.779 120.652 612.541 121.884 611.03 121.884Z" fill="#25AAE1" stroke="black" stroke-width="3" stroke-miterlimit="10" stroke-linecap="round" stroke-linejoin="round"/>
<path d="M611.03 135.889H552.918C551.406 135.889 550.176 134.65 550.176 133.144C550.176 131.631 551.414 130.399 552.918 130.399H611.03C612.541 130.399 613.772 131.639 613.772 133.144C613.779 134.657 612.541 135.889 611.03 135.889Z" fill="#25AAE1" stroke="black" stroke-width="3" stroke-miterlimit="10" stroke-linecap="round" stroke-linejoin="round"/>
<path d="M611.03 148.799H552.918C551.406 148.799 550.176 147.56 550.176 146.054C550.176 144.542 551.414 143.31 552.918 143.31H611.03C612.541 143.31 613.772 144.549 613.772 146.054C613.779 147.56 612.541 148.799 611.03 148.799Z" fill="#25AAE1" stroke="black" stroke-width="3" stroke-miterlimit="10" stroke-linecap="round" stroke-linejoin="round"/>
<path d="M513.25 137.69C513.25 138.447 512.941 139.131 512.444 139.628C511.948 140.125 511.264 140.435 510.508 140.435H459.003C457.491 140.435 456.261 139.203 456.261 137.69C456.261 136.934 456.57 136.249 457.067 135.752C457.563 135.255 458.247 134.945 459.003 134.945H510.508C512.012 134.945 513.25 136.184 513.25 137.69Z" fill="#9E6CFF" stroke="black" stroke-width="3" stroke-miterlimit="10" stroke-linecap="round" stroke-linejoin="round"/>
<path d="M497.339 137.69C497.339 138.447 497.029 139.131 496.533 139.628C496.036 140.125 495.352 140.435 494.597 140.435H459.003C457.491 140.435 456.261 139.203 456.261 137.69C456.261 136.934 456.57 136.249 457.067 135.752C457.563 135.255 458.247 134.945 459.003 134.945H494.597C496.108 134.945 497.339 136.184 497.339 137.69Z" fill="#ED684A" stroke="black" stroke-width="3" stroke-miterlimit="10" stroke-linecap="round" stroke-linejoin="round"/>
<path d="M483.306 124.189C468.358 124.189 456.196 112.014 456.196 97.0507C456.196 95.862 457.161 94.8966 458.348 94.8966C459.536 94.8966 460.5 95.862 460.5 97.0507C460.5 109.644 470.733 119.888 483.313 119.888C495.892 119.888 506.126 109.644 506.126 97.0507C506.126 84.4576 495.892 74.2131 483.313 74.2131C476.26 74.2131 469.711 77.4046 465.358 82.9663C464.623 83.9029 463.278 84.0614 462.342 83.3337C461.407 82.5989 461.248 81.2517 461.975 80.3151C467.157 73.7088 474.936 69.9121 483.313 69.9121C498.26 69.9121 510.422 82.0874 510.422 97.0507C510.422 112.014 498.253 124.189 483.306 124.189Z" fill="#FFDE16" stroke="black" stroke-width="3" stroke-miterlimit="10"/>
<path d="M569.967 164.145H554.746V208.905H569.967V164.145Z" fill="#00D384" stroke="black" stroke-width="3" stroke-miterlimit="10" stroke-linecap="round" stroke-linejoin="round"/>
<path d="M589.987 174.029H574.767V208.905H589.987V174.029Z" fill="#00D384" stroke="black" stroke-width="3" stroke-miterlimit="10" stroke-linecap="round" stroke-linejoin="round"/>
<path d="M609.209 188.034H593.988V208.905H609.209V188.034Z" fill="#00D384" stroke="black" stroke-width="3" stroke-miterlimit="10" stroke-linecap="round" stroke-linejoin="round"/>
<path d="M483.601 112.828C483.097 112.828 482.687 112.417 482.687 111.913V107.756C482.687 107.252 483.097 106.841 483.601 106.841C484.104 106.841 484.514 107.252 484.514 107.756V111.913C484.514 112.417 484.097 112.828 483.601 112.828Z" fill="#FFDE16" stroke="black" stroke-width="3" stroke-miterlimit="10"/>
<path d="M483.601 105.523C488.14 105.523 491.82 101.839 491.82 97.2957C491.82 92.7519 488.14 89.0684 483.601 89.0684C479.062 89.0684 475.383 92.7519 475.383 97.2957C475.383 101.839 479.062 105.523 483.601 105.523Z" fill="#FFDE16" stroke="black" stroke-width="3" stroke-miterlimit="10"/>
<path d="M483.601 87.5048C483.097 87.5048 482.687 87.0942 482.687 86.5899V82.433C482.687 81.9287 483.097 81.5181 483.601 81.5181C484.104 81.5181 484.514 81.9287 484.514 82.433V86.5899C484.514 87.0942 484.097 87.5048 483.601 87.5048Z" fill="#FFDE16" stroke="black" stroke-width="3" stroke-miterlimit="10"/>
<path d="M490.424 90.3363C490.071 89.9833 490.071 89.3998 490.424 89.0396L493.36 86.1002C493.712 85.7472 494.295 85.7472 494.655 86.1002C495.008 86.4532 495.008 87.0368 494.655 87.397L491.719 90.3363C491.366 90.6965 490.783 90.6965 490.424 90.3363Z" fill="#FFDE16" stroke="black" stroke-width="3" stroke-miterlimit="10"/>
<path d="M472.54 108.246C472.187 107.893 472.187 107.309 472.54 106.949L475.476 104.01C475.829 103.657 476.412 103.657 476.771 104.01C477.124 104.363 477.124 104.946 476.771 105.307L473.835 108.246C473.475 108.599 472.892 108.599 472.54 108.246Z" fill="#FFDE16" stroke="black" stroke-width="3" stroke-miterlimit="10"/>
<path d="M476.771 90.3363C476.419 90.6893 475.836 90.6893 475.476 90.3363L472.54 87.397C472.187 87.044 472.187 86.4604 472.54 86.1002C472.892 85.7472 473.475 85.7472 473.835 86.1002L476.771 89.0396C477.124 89.3998 477.124 89.9833 476.771 90.3363Z" fill="#FFDE16" stroke="black" stroke-width="3" stroke-miterlimit="10"/>
<path d="M494.655 108.246C494.303 108.599 493.72 108.599 493.36 108.246L490.424 105.307C490.071 104.954 490.071 104.37 490.424 104.01C490.776 103.657 491.359 103.657 491.719 104.01L494.655 106.949C495.015 107.309 495.015 107.886 494.655 108.246Z" fill="#FFDE16" stroke="black" stroke-width="3" stroke-miterlimit="10"/>
<path d="M473.943 97.1733C473.943 97.6776 473.533 98.0882 473.029 98.0882H468.877C468.373 98.0882 467.963 97.6776 467.963 97.1733C467.963 96.6689 468.373 96.2583 468.877 96.2583H473.029C473.526 96.2583 473.943 96.6689 473.943 97.1733Z" fill="#FFDE16" stroke="black" stroke-width="3" stroke-miterlimit="10"/>
<path d="M499.239 97.1733C499.239 97.6776 498.829 98.0882 498.325 98.0882H494.173C493.669 98.0882 493.259 97.6776 493.259 97.1733C493.259 96.6689 493.669 96.2583 494.173 96.2583H498.325C498.829 96.2583 499.239 96.6689 499.239 97.1733Z" fill="#FFDE16" stroke="black" stroke-width="3" stroke-miterlimit="10"/>
<path d="M482.298 188.264L481.384 186.052C481.125 185.426 480.399 185.123 479.772 185.382L477.873 186.168C476.556 184.28 474.656 182.839 472.425 182.104L472.554 180.195C472.597 179.518 472.079 178.927 471.403 178.884L469.021 178.726C468.344 178.682 467.754 179.201 467.711 179.878L467.596 181.679C465.423 181.982 463.458 182.94 461.911 184.345L460.514 183.394C459.953 183.012 459.183 183.156 458.802 183.718L457.456 185.692C457.075 186.254 457.218 187.025 457.78 187.407L459.14 188.336C458.658 189.561 458.384 190.887 458.384 192.284C458.384 192.925 458.442 193.552 458.55 194.157L457.017 194.791C456.391 195.051 456.089 195.778 456.348 196.405L457.254 198.617C457.514 199.244 458.24 199.546 458.867 199.287L460.45 198.631C461.853 200.54 463.868 201.96 466.207 202.615L466.085 204.474C466.041 205.151 466.56 205.742 467.236 205.785L469.618 205.936C470.295 205.98 470.885 205.461 470.928 204.791L471.057 202.817C473.101 202.435 474.936 201.47 476.397 200.094L478.124 201.268C478.686 201.65 479.456 201.506 479.837 200.944L481.183 198.963C481.564 198.401 481.42 197.63 480.859 197.248L479.096 196.052C479.535 194.878 479.78 193.61 479.78 192.284C479.78 191.737 479.736 191.204 479.657 190.678L481.615 189.871C482.255 189.619 482.557 188.891 482.298 188.264ZM469.086 198.062C465.905 198.062 463.321 195.476 463.321 192.291C463.321 189.107 465.905 186.528 469.086 186.528C472.266 186.528 474.843 189.107 474.843 192.291C474.85 195.476 472.266 198.062 469.086 198.062Z" fill="#9E6CFF" stroke="black" stroke-width="2" stroke-miterlimit="10" stroke-linecap="round" stroke-linejoin="round"/>
<path d="M601.365 101.496C608.221 101.496 613.779 95.932 613.779 89.0685C613.779 82.2051 608.221 76.6411 601.365 76.6411C594.509 76.6411 588.951 82.2051 588.951 89.0685C588.951 95.932 594.509 101.496 601.365 101.496Z" fill="#00D384" stroke="black" stroke-width="3" stroke-miterlimit="10" stroke-linecap="round" stroke-linejoin="round"/>
<path d="M596.09 91.1215L598.609 94.0968L608.144 85.3652" fill="#00D384"/>
<path d="M596.09 91.1215L598.609 94.0968L608.144 85.3652" stroke="black" stroke-width="3" stroke-miterlimit="10" stroke-linecap="round" stroke-linejoin="round"/>
<path d="M498.512 157.668H459.751C457.794 157.668 456.196 156.068 456.196 154.109C456.196 152.149 457.794 150.55 459.751 150.55H498.512C500.47 150.55 502.067 152.149 502.067 154.109C502.074 156.068 500.47 157.668 498.512 157.668Z" fill="#00D384" stroke="black" stroke-width="3" stroke-miterlimit="10" stroke-linecap="round" stroke-linejoin="round"/>
<path d="M498.512 170.808H459.751C457.794 170.808 456.196 169.209 456.196 167.249C456.196 165.29 457.794 163.69 459.751 163.69H498.512C500.47 163.69 502.067 165.29 502.067 167.249C502.074 169.202 500.47 170.808 498.512 170.808Z" fill="#00D384" stroke="black" stroke-width="3" stroke-miterlimit="10" stroke-linecap="round" stroke-linejoin="round"/>
<path d="M562.598 101.496C569.454 101.496 575.012 95.932 575.012 89.0685C575.012 82.2051 569.454 76.6411 562.598 76.6411C555.742 76.6411 550.184 82.2051 550.184 89.0685C550.184 95.932 555.742 101.496 562.598 101.496Z" fill="#FF6CE0" stroke="black" stroke-width="3" stroke-miterlimit="10" stroke-linecap="round" stroke-linejoin="round"/>
<path d="M562.598 83.3701V90.5744" stroke="black" stroke-width="3" stroke-miterlimit="10" stroke-linecap="round" stroke-linejoin="round"/>
<path d="M562.598 94.1113V94.9326" stroke="black" stroke-width="3" stroke-miterlimit="10" stroke-linecap="round" stroke-linejoin="round"/>
<path d="M690.941 109.55C690.941 122.655 681.002 133.433 668.257 134.737C667.401 134.823 666.53 134.866 665.652 134.866C651.683 134.866 640.363 123.534 640.363 109.55C640.363 95.5667 651.683 84.2344 665.652 84.2344C677.368 84.2344 687.22 92.2095 690.091 103.023C690.646 105.112 690.941 107.295 690.941 109.55Z" fill="#9E6CFF" stroke="black" stroke-width="3" stroke-miterlimit="10" stroke-linecap="round" stroke-linejoin="round"/>
<path d="M690.084 103.023L665.645 109.55V84.2344C677.361 84.2344 687.213 92.2095 690.084 103.023Z" fill="#FF6CE0" stroke="black" stroke-width="3" stroke-miterlimit="10" stroke-linecap="round" stroke-linejoin="round"/>
<path d="M690.94 109.55C690.94 122.655 681.002 133.432 668.257 134.736L665.651 109.55L690.091 103.023C690.645 105.112 690.94 107.295 690.94 109.55Z" fill="#FFDE16" stroke="black" stroke-width="3" stroke-miterlimit="10" stroke-linecap="round" stroke-linejoin="round"/>
<path d="M643.105 163.69C646.73 163.69 649.668 160.749 649.668 157.12C649.668 153.491 646.73 150.55 643.105 150.55C639.48 150.55 636.542 153.491 636.542 157.12C636.542 160.749 639.48 163.69 643.105 163.69Z" fill="#00D384" stroke="black" stroke-width="3" stroke-miterlimit="10" stroke-linecap="round" stroke-linejoin="round"/>
<path d="M664.378 163.69C668.003 163.69 670.941 160.749 670.941 157.12C670.941 153.491 668.003 150.55 664.378 150.55C660.753 150.55 657.814 153.491 657.814 157.12C657.814 160.749 660.753 163.69 664.378 163.69Z" fill="#00D384" stroke="black" stroke-width="3" stroke-miterlimit="10" stroke-linecap="round" stroke-linejoin="round"/>
<path d="M684.852 163.69C688.477 163.69 691.416 160.749 691.416 157.12C691.416 153.491 688.477 150.55 684.852 150.55C681.228 150.55 678.289 153.491 678.289 157.12C678.289 160.749 681.228 163.69 684.852 163.69Z" fill="#00D384" stroke="black" stroke-width="3" stroke-miterlimit="10" stroke-linecap="round" stroke-linejoin="round"/>
<path d="M643.105 183.711C646.73 183.711 649.668 180.77 649.668 177.141C649.668 173.512 646.73 170.571 643.105 170.571C639.48 170.571 636.542 173.512 636.542 177.141C636.542 180.77 639.48 183.711 643.105 183.711Z" fill="#00D384" stroke="black" stroke-width="3" stroke-miterlimit="10" stroke-linecap="round" stroke-linejoin="round"/>
<path d="M664.378 183.711C668.003 183.711 670.941 180.77 670.941 177.141C670.941 173.512 668.003 170.571 664.378 170.571C660.753 170.571 657.814 173.512 657.814 177.141C657.814 180.77 660.753 183.711 664.378 183.711Z" fill="#00D384" stroke="black" stroke-width="3" stroke-miterlimit="10" stroke-linecap="round" stroke-linejoin="round"/>
<path d="M684.852 183.711C688.477 183.711 691.416 180.77 691.416 177.141C691.416 173.512 688.477 170.571 684.852 170.571C681.228 170.571 678.289 173.512 678.289 177.141C678.289 180.77 681.228 183.711 684.852 183.711Z" fill="#00D384" stroke="black" stroke-width="3" stroke-miterlimit="10" stroke-linecap="round" stroke-linejoin="round"/>
<path d="M643.105 203.415C646.73 203.415 649.668 200.473 649.668 196.845C649.668 193.216 646.73 190.274 643.105 190.274C639.48 190.274 636.542 193.216 636.542 196.845C636.542 200.473 639.48 203.415 643.105 203.415Z" fill="#00D384" stroke="black" stroke-width="3" stroke-miterlimit="10" stroke-linecap="round" stroke-linejoin="round"/>
<path d="M664.378 203.415C668.003 203.415 670.941 200.473 670.941 196.845C670.941 193.216 668.003 190.274 664.378 190.274C660.753 190.274 657.814 193.216 657.814 196.845C657.814 200.473 660.753 203.415 664.378 203.415Z" fill="#00D384" stroke="black" stroke-width="3" stroke-miterlimit="10" stroke-linecap="round" stroke-linejoin="round"/>
<path d="M684.852 203.415C688.477 203.415 691.416 200.473 691.416 196.845C691.416 193.216 688.477 190.274 684.852 190.274C681.228 190.274 678.289 193.216 678.289 196.845C678.289 200.473 681.228 203.415 684.852 203.415Z" fill="#00D384" stroke="black" stroke-width="3" stroke-miterlimit="10" stroke-linecap="round" stroke-linejoin="round"/>
</g>
<g clip-path="url(#clip1energeintro)">
<path d="M764.159 7.66969C759.519 11.5881 758.951 18.5055 762.896 23.1135C766.842 27.7216 773.807 28.2859 778.448 24.3674C783.088 20.449 788.422 1.56738 788.422 1.56738C788.422 1.56738 768.81 3.74081 764.159 7.66969Z" fill="#00D384" stroke="black" stroke-width="3" stroke-miterlimit="10" stroke-linecap="round" stroke-linejoin="round"/>
<path d="M771.051 17.1055C771.051 17.1055 766.979 17.4294 762.896 23.1137" stroke="black" stroke-width="3" stroke-miterlimit="10" stroke-linecap="round" stroke-linejoin="round"/>
<path d="M763.148 22.4761C762.991 22.6119 762.833 22.7373 762.685 22.8627C760.371 24.7958 758.277 26.2482 756.436 27.3349" stroke="black" stroke-width="3" stroke-miterlimit="10" stroke-linecap="round" stroke-linejoin="round"/>
<path d="M741.62 22.3301C744.598 24.8274 749.049 24.4513 751.563 21.4942C754.078 18.537 753.699 14.117 750.722 11.6197C747.744 9.12235 735.202 7.77441 735.202 7.77441C735.202 7.77441 738.643 19.8432 741.62 22.3301Z" fill="#00D384" stroke="black" stroke-width="3" stroke-miterlimit="10" stroke-linecap="round" stroke-linejoin="round"/>
<path d="M747.713 17.8267C747.713 17.8267 750.406 21.5048 751.553 21.5048" stroke="black" stroke-width="3" stroke-miterlimit="10" stroke-linecap="round" stroke-linejoin="round"/>
<path d="M750.88 21.3584C751.038 21.4942 751.196 21.6196 751.343 21.745C753.637 23.699 754.815 24.8066 756.204 26.4262" stroke="black" stroke-width="3" stroke-miterlimit="10" stroke-linecap="round" stroke-linejoin="round"/>
<path d="M756.446 27.8262C756.446 48.505 739.411 65.4327 718.578 65.4327" stroke="black" stroke-width="3" stroke-miterlimit="10" stroke-linecap="round" stroke-linejoin="round"/>
</g>
<defs>
<clipPath id="clip0energeintro">
<rect width="720" height="201" fill="white" transform="translate(0 35)"/>
</clipPath>
<clipPath id="clip1energeintro">
<rect width="73" height="67" fill="white" transform="translate(717)"/>
</clipPath>
</defs>
</svg>
