<svg width="56" height="79" viewBox="0 0 56 79" fill="none" xmlns="http://www.w3.org/2000/svg">
<g clip-path="url(#clip0fold)">
<path d="M48.9216 3.38336V46.6099C48.9216 47.8994 47.8288 48.9532 46.4915 48.9532H8.50859C7.17132 48.9532 6.07849 47.8994 6.07849 46.6099V3.38336C6.07849 2.09384 7.17132 1.04004 8.50859 1.04004H46.4843C47.8288 1.04004 48.9216 2.09384 48.9216 3.38336Z" fill="white" stroke="black" stroke-width="3" stroke-miterlimit="10" stroke-linecap="round" stroke-linejoin="round"/>
<path d="M48.9216 3.38336V13.7064H38.3456C37.0084 13.7064 35.9155 12.6526 35.9155 11.3631V1.04004H46.4987C47.8288 1.04004 48.9216 2.09384 48.9216 3.38336Z" fill="white" stroke="black" stroke-width="3" stroke-miterlimit="10" stroke-linecap="round" stroke-linejoin="round"/>
<path d="M16.1224 25H38.9208" stroke="black" stroke-width="3" stroke-miterlimit="10" stroke-linecap="round" stroke-linejoin="round"/>
<path d="M16.1224 33.2852H38.9208" stroke="black" stroke-width="3" stroke-miterlimit="10" stroke-linecap="round" stroke-linejoin="round"/>
<path d="M9.9538 44.0379L10.5865 42.9217L11.7368 42.3116L10.5865 41.7085L9.9538 40.5923L9.32111 41.7085L8.16357 42.3116L9.32111 42.9217L9.9538 44.0379Z" fill="black"/>
<path d="M14.8714 44.0379L15.5041 42.9217L16.6616 42.3116L15.5041 41.7085L14.8714 40.5923L14.2387 41.7085L13.0884 42.3116L14.2387 42.9217L14.8714 44.0379Z" fill="black"/>
<path d="M19.8681 44.0379L20.5008 42.9217L21.6583 42.3116L20.5008 41.7085L19.8681 40.5923L19.2426 41.7085L18.0851 42.3116L19.2426 42.9217L19.8681 44.0379Z" fill="black"/>
<path d="M7.44453 47.5252L8.07722 46.409L9.23475 45.7989L8.07722 45.1889L7.44453 44.0796L6.81903 45.1889L5.6615 45.7989L6.81903 46.409L7.44453 47.5252Z" fill="black"/>
<path d="M12.3695 47.5252L13.0021 46.409L14.1525 45.7989L13.0021 45.1889L12.3695 44.0796L11.7368 45.1889L10.5864 45.7989L11.7368 46.409L12.3695 47.5252Z" fill="black"/>
<path d="M17.3663 47.5252L17.999 46.409L19.1493 45.7989L17.999 45.1889L17.3663 44.0796L16.7336 45.1889L15.5833 45.7989L16.7336 46.409L17.3663 47.5252Z" fill="black"/>
<path d="M9.9538 48.9813L10.5865 49.8964L11.7368 49.2863L10.5865 48.6763L9.9538 47.5601L9.32111 48.6763L8.16357 49.2863L9.32111 49.8964L9.9538 48.9813Z" fill="black"/>
<path d="M14.8714 48.9813L15.5041 49.8964L16.6616 49.2863L15.5041 48.6763L14.8714 47.5601L14.2387 48.6763L13.0884 49.2863L14.2387 49.8964L14.8714 48.9813Z" fill="black"/>
<path d="M19.8681 48.9813L20.5008 49.8964L21.6583 49.2863L20.5008 48.6763L19.8681 47.5601L19.2426 48.6763L18.0851 49.2863L19.2426 49.8964L19.8681 48.9813Z" fill="black"/>
<path d="M25.5842 44.0379L26.2097 42.9217L27.3672 42.3116L26.2097 41.7085L25.5842 40.5923L24.9515 41.7085L23.7939 42.3116L24.9515 42.9217L25.5842 44.0379Z" fill="black"/>
<path d="M30.5018 44.0379L31.1345 42.9217L32.292 42.3116L31.1345 41.7085L30.5018 40.5923L29.8691 41.7085L28.7188 42.3116L29.8691 42.9217L30.5018 44.0379Z" fill="black"/>
<path d="M35.4985 44.0379L36.1312 42.9217L37.2887 42.3116L36.1312 41.7085L35.4985 40.5923L34.873 41.7085L33.7155 42.3116L34.873 42.9217L35.4985 44.0379Z" fill="black"/>
<path d="M23.0749 47.5252L23.7076 46.409L24.8651 45.7989L23.7076 45.1889L23.0749 44.0796L22.4494 45.1889L21.2919 45.7989L22.4494 46.409L23.0749 47.5252Z" fill="black"/>
<path d="M27.9998 47.5252L28.6325 46.409L29.7828 45.7989L28.6325 45.1889L27.9998 44.0796L27.3671 45.1889L26.2096 45.7989L27.3671 46.409L27.9998 47.5252Z" fill="black"/>
<path d="M32.9967 47.5252L33.6293 46.409L34.7797 45.7989L33.6293 45.1889L32.9967 44.0796L32.364 45.1889L31.2136 45.7989L32.364 46.409L32.9967 47.5252Z" fill="black"/>
<path d="M25.5842 48.9813L26.2097 49.8964L27.3672 49.2863L26.2097 48.6763L25.5842 47.5601L24.9515 48.6763L23.7939 49.2863L24.9515 49.8964L25.5842 48.9813Z" fill="black"/>
<path d="M30.5018 48.9813L31.1345 49.8964L32.292 49.2863L31.1345 48.6763L30.5018 47.5601L29.8691 48.6763L28.7188 49.2863L29.8691 49.8964L30.5018 48.9813Z" fill="black"/>
<path d="M35.4985 48.9813L36.1312 49.8964L37.2887 49.2863L36.1312 48.6763L35.4985 47.5601L34.873 48.6763L33.7155 49.2863L34.873 49.8964L35.4985 48.9813Z" fill="black"/>
<path d="M40.8476 44.0379L41.4803 42.9217L42.6306 42.3116L41.4803 41.7085L40.8476 40.5923L40.2149 41.7085L39.0646 42.3116L40.2149 42.9217L40.8476 44.0379Z" fill="black"/>
<path d="M45.7725 44.0379L46.398 42.9217L47.5555 42.3116L46.398 41.7085L45.7725 40.5923L45.1398 41.7085L43.9823 42.3116L45.1398 42.9217L45.7725 44.0379Z" fill="black"/>
<path d="M38.3456 47.5252L38.9783 46.409L40.1287 45.7989L38.9783 45.1889L38.3456 44.0796L37.713 45.1889L36.5554 45.7989L37.713 46.409L38.3456 47.5252Z" fill="black"/>
<path d="M43.2634 47.5252L43.8961 46.409L45.0536 45.7989L43.8961 45.1889L43.2634 44.0796L42.6307 45.1889L41.4803 45.7989L42.6307 46.409L43.2634 47.5252Z" fill="black"/>
<path d="M48.2602 44.0796L47.6347 45.1889L46.4772 45.7989L47.6347 46.409L48.2602 47.5252" fill="black"/>
<path d="M40.8476 48.9813L41.4803 49.8964L42.6306 49.2863L41.4803 48.6763L40.8476 47.5601L40.2149 48.6763L39.0646 49.2863L40.2149 49.8964L40.8476 48.9813Z" fill="black"/>
<path d="M45.7725 48.9813L46.398 49.8964L47.5555 49.2863L46.398 48.6763L45.7725 47.5601L45.1398 48.6763L43.9823 49.2863L45.1398 49.8964L45.7725 48.9813Z" fill="black"/>
</g>
<g clip-path="url(#clip1fold)">
<path d="M52.0325 40.1611H25.9932V34.9514C25.9932 33.4092 24.7297 32.1509 23.1812 32.1509H3.96758C2.41909 32.1509 1.15564 33.4092 1.15564 34.9514V42.9616V56.2046V75.0486C1.15564 76.5908 2.41909 77.8491 3.96758 77.8491H52.0325C53.581 77.8491 54.8445 76.5908 54.8445 75.0486V42.9616C54.8445 41.4194 53.581 40.1611 52.0325 40.1611Z" fill="#00D384" stroke="black" stroke-width="3" stroke-miterlimit="10" stroke-linecap="round" stroke-linejoin="round"/>
<path d="M26.1858 71.5804L26.8638 70.3451L28.1041 69.6699L26.8638 68.9947L26.1858 67.7671L25.5156 68.9947L24.2753 69.6699L25.5156 70.3451L26.1858 71.5804Z" fill="black"/>
<path d="M31.4629 71.5804L32.1409 70.3451L33.3735 69.6699L32.1409 68.9947L31.4629 67.7671L30.785 68.9947L29.5524 69.6699L30.785 70.3451L31.4629 71.5804Z" fill="black"/>
<path d="M36.8172 71.5804L37.4951 70.3451L38.7278 69.6699L37.4951 68.9947L36.8172 67.7671L36.1392 68.9947L34.9066 69.6699L36.1392 70.3451L36.8172 71.5804Z" fill="black"/>
<path d="M23.5048 75.4321L24.1828 74.2045L25.4154 73.5293L24.1828 72.8541L23.5048 71.6265L22.8269 72.8541L21.5942 73.5293L22.8269 74.2045L23.5048 75.4321Z" fill="black"/>
<path d="M28.7821 75.4321L29.4523 74.2045L30.6926 73.5293L29.4523 72.8541L28.7821 71.6265L28.1041 72.8541L26.8638 73.5293L28.1041 74.2045L28.7821 75.4321Z" fill="black"/>
<path d="M34.1363 75.4321L34.8142 74.2045L36.0469 73.5293L34.8142 72.8541L34.1363 71.6265L33.4584 72.8541L32.218 73.5293L33.4584 74.2045L34.1363 75.4321Z" fill="black"/>
<path d="M26.1858 77.0509L26.8638 78.056L28.1041 77.3885L26.8638 76.7133L26.1858 75.478L25.5156 76.7133L24.2753 77.3885L25.5156 78.056L26.1858 77.0509Z" fill="black"/>
<path d="M31.4629 77.0509L32.1409 78.056L33.3735 77.3885L32.1409 76.7133L31.4629 75.478L30.785 76.7133L29.5524 77.3885L30.785 78.056L31.4629 77.0509Z" fill="black"/>
<path d="M36.8172 77.0509L37.4951 78.056L38.7278 77.3885L37.4951 76.7133L36.8172 75.478L36.1392 76.7133L34.9066 77.3885L36.1392 78.056L36.8172 77.0509Z" fill="black"/>
<path d="M23.5048 44.1048L24.1828 42.8695L25.4154 42.1943L24.1828 41.5268L23.5048 40.2915L22.8269 41.5268L21.5942 42.1943L22.8269 42.8695L23.5048 44.1048Z" fill="black"/>
<path d="M28.7821 44.1048L29.4523 42.8695L30.6926 42.1943L29.4523 41.5268L28.7821 40.2915L28.1041 41.5268L26.8638 42.1943L28.1041 42.8695L28.7821 44.1048Z" fill="black"/>
<path d="M34.1363 44.1048L34.8142 42.8695L36.0469 42.1943L34.8142 41.5268L34.1363 40.2915L33.4584 41.5268L32.218 42.1943L33.4584 42.8695L34.1363 44.1048Z" fill="black"/>
<path d="M26.1858 47.9565L26.8638 46.7289L28.1041 46.0537L26.8638 45.3785L26.1858 44.1509L25.5156 45.3785L24.2753 46.0537L25.5156 46.7289L26.1858 47.9565Z" fill="black"/>
<path d="M31.4629 47.9565L32.1409 46.7289L33.3735 46.0537L32.1409 45.3785L31.4629 44.1509L30.785 45.3785L29.5524 46.0537L30.785 46.7289L31.4629 47.9565Z" fill="black"/>
<path d="M36.8172 47.9565L37.4951 46.7289L38.7278 46.0537L37.4951 45.3785L36.8172 44.1509L36.1392 45.3785L34.9066 46.0537L36.1392 46.7289L36.8172 47.9565Z" fill="black"/>
<path d="M23.5048 51.8157L24.1828 50.5881L25.4154 49.9129L24.1828 49.2377L23.5048 48.0024L22.8269 49.2377L21.5942 49.9129L22.8269 50.5881L23.5048 51.8157Z" fill="black"/>
<path d="M28.7821 51.8157L29.4523 50.5881L30.6926 49.9129L29.4523 49.2377L28.7821 48.0024L28.1041 49.2377L26.8638 49.9129L28.1041 50.5881L28.7821 51.8157Z" fill="black"/>
<path d="M34.1363 51.8157L34.8142 50.5881L36.0469 49.9129L34.8142 49.2377L34.1363 48.0024L33.4584 49.2377L32.218 49.9129L33.4584 50.5881L34.1363 51.8157Z" fill="black"/>
<path d="M26.1858 55.8362L26.8638 54.6086L28.1041 53.9334L26.8638 53.2582L26.1858 52.0229L25.5156 53.2582L24.2753 53.9334L25.5156 54.6086L26.1858 55.8362Z" fill="black"/>
<path d="M31.4629 55.8362L32.1409 54.6086L33.3735 53.9334L32.1409 53.2582L31.4629 52.0229L30.785 53.2582L29.5524 53.9334L30.785 54.6086L31.4629 55.8362Z" fill="black"/>
<path d="M36.8172 55.8362L37.4951 54.6086L38.7278 53.9334L37.4951 53.2582L36.8172 52.0229L36.1392 53.2582L34.9066 53.9334L36.1392 54.6086L36.8172 55.8362Z" fill="black"/>
<path d="M23.5048 59.6956L24.1828 58.4603L25.4154 57.7928L24.1828 57.1176L23.5048 55.8823L22.8269 57.1176L21.5942 57.7928L22.8269 58.4603L23.5048 59.6956Z" fill="black"/>
<path d="M28.7821 59.6956L29.4523 58.4603L30.6926 57.7928L29.4523 57.1176L28.7821 55.8823L28.1041 57.1176L26.8638 57.7928L28.1041 58.4603L28.7821 59.6956Z" fill="black"/>
<path d="M34.1363 59.6956L34.8142 58.4603L36.0469 57.7928L34.8142 57.1176L34.1363 55.8823L33.4584 57.1176L32.218 57.7928L33.4584 58.4603L34.1363 59.6956Z" fill="black"/>
<path d="M26.1858 63.555L26.8638 62.3197L28.1041 61.6445L26.8638 60.9693L26.1858 59.7417L25.5156 60.9693L24.2753 61.6445L25.5156 62.3197L26.1858 63.555Z" fill="black"/>
<path d="M31.4629 63.555L32.1409 62.3197L33.3735 61.6445L32.1409 60.9693L31.4629 59.7417L30.785 60.9693L29.5524 61.6445L30.785 62.3197L31.4629 63.555Z" fill="black"/>
<path d="M36.8172 63.555L37.4951 62.3197L38.7278 61.6445L37.4951 60.9693L36.8172 59.7417L36.1392 60.9693L34.9066 61.6445L36.1392 62.3197L36.8172 63.555Z" fill="black"/>
<path d="M23.5048 67.4067L24.1828 66.1791L25.4154 65.5039L24.1828 64.8287L23.5048 63.6011L22.8269 64.8287L21.5942 65.5039L22.8269 66.1791L23.5048 67.4067Z" fill="black"/>
<path d="M28.7821 67.4067L29.4523 66.1791L30.6926 65.5039L29.4523 64.8287L28.7821 63.6011L28.1041 64.8287L26.8638 65.5039L28.1041 66.1791L28.7821 67.4067Z" fill="black"/>
<path d="M34.1363 67.4067L34.8142 66.1791L36.0469 65.5039L34.8142 64.8287L34.1363 63.6011L33.4584 64.8287L32.218 65.5039L33.4584 66.1791L34.1363 67.4067Z" fill="black"/>
<path d="M42.9343 71.5804L43.6122 70.3451L44.8525 69.6699L43.6122 68.9947L42.9343 67.7671L42.264 68.9947L41.0237 69.6699L42.264 70.3451L42.9343 71.5804Z" fill="black"/>
<path d="M48.2114 71.5804L48.8893 70.3451L50.1219 69.6699L48.8893 68.9947L48.2114 67.7671L47.5334 68.9947L46.3008 69.6699L47.5334 70.3451L48.2114 71.5804Z" fill="black"/>
<path d="M53.5656 71.5804L54.2436 70.3451L55.4762 69.6699L54.2436 68.9947L53.5656 67.7671L52.8877 68.9947L51.655 69.6699L52.8877 70.3451L53.5656 71.5804Z" fill="black"/>
<path d="M40.2532 75.4321L40.9312 74.2045L42.1638 73.5293L40.9312 72.8541L40.2532 71.6265L39.5753 72.8541L38.3427 73.5293L39.5753 74.2045L40.2532 75.4321Z" fill="black"/>
<path d="M45.5305 75.4321L46.2007 74.2045L47.441 73.5293L46.2007 72.8541L45.5305 71.6265L44.8525 72.8541L43.6122 73.5293L44.8525 74.2045L45.5305 75.4321Z" fill="black"/>
<path d="M50.8847 75.4321L51.5627 74.2045L52.7953 73.5293L51.5627 72.8541L50.8847 71.6265L50.2068 72.8541L48.9664 73.5293L50.2068 74.2045L50.8847 75.4321Z" fill="black"/>
<path d="M42.9343 77.0509L43.6122 78.056L44.8525 77.3885L43.6122 76.7133L42.9343 75.478L42.264 76.7133L41.0237 77.3885L42.264 78.056L42.9343 77.0509Z" fill="black"/>
<path d="M48.2114 77.0509L48.8893 78.056L50.1219 77.3885L48.8893 76.7133L48.2114 75.478L47.5334 76.7133L46.3008 77.3885L47.5334 78.056L48.2114 77.0509Z" fill="black"/>
<path d="M53.5656 77.0509L54.2436 78.056L55.4762 77.3885L54.2436 76.7133L53.5656 75.478L52.8877 76.7133L51.655 77.3885L52.8877 78.056L53.5656 77.0509Z" fill="black"/>
<path d="M40.2532 44.1048L40.9312 42.8695L42.1638 42.1943L40.9312 41.5268L40.2532 40.2915L39.5753 41.5268L38.3427 42.1943L39.5753 42.8695L40.2532 44.1048Z" fill="black"/>
<path d="M45.5305 44.1048L46.2007 42.8695L47.441 42.1943L46.2007 41.5268L45.5305 40.2915L44.8525 41.5268L43.6122 42.1943L44.8525 42.8695L45.5305 44.1048Z" fill="black"/>
<path d="M50.8847 44.1048L51.5627 42.8695L52.7953 42.1943L51.5627 41.5268L50.8847 40.2915L50.2068 41.5268L48.9664 42.1943L50.2068 42.8695L50.8847 44.1048Z" fill="black"/>
<path d="M42.9343 47.9565L43.6122 46.7289L44.8525 46.0537L43.6122 45.3785L42.9343 44.1509L42.264 45.3785L41.0237 46.0537L42.264 46.7289L42.9343 47.9565Z" fill="black"/>
<path d="M48.2114 47.9565L48.8893 46.7289L50.1219 46.0537L48.8893 45.3785L48.2114 44.1509L47.5334 45.3785L46.3008 46.0537L47.5334 46.7289L48.2114 47.9565Z" fill="black"/>
<path d="M53.5656 47.9565L54.2436 46.7289L55.4762 46.0537L54.2436 45.3785L53.5656 44.1509L52.8877 45.3785L51.655 46.0537L52.8877 46.7289L53.5656 47.9565Z" fill="black"/>
<path d="M40.2532 51.8157L40.9312 50.5881L42.1638 49.9129L40.9312 49.2377L40.2532 48.0024L39.5753 49.2377L38.3427 49.9129L39.5753 50.5881L40.2532 51.8157Z" fill="black"/>
<path d="M45.5305 51.8157L46.2007 50.5881L47.441 49.9129L46.2007 49.2377L45.5305 48.0024L44.8525 49.2377L43.6122 49.9129L44.8525 50.5881L45.5305 51.8157Z" fill="black"/>
<path d="M50.8847 51.8157L51.5627 50.5881L52.7953 49.9129L51.5627 49.2377L50.8847 48.0024L50.2068 49.2377L48.9664 49.9129L50.2068 50.5881L50.8847 51.8157Z" fill="black"/>
<path d="M42.9343 55.8362L43.6122 54.6086L44.8525 53.9334L43.6122 53.2582L42.9343 52.0229L42.264 53.2582L41.0237 53.9334L42.264 54.6086L42.9343 55.8362Z" fill="black"/>
<path d="M48.2114 55.8362L48.8893 54.6086L50.1219 53.9334L48.8893 53.2582L48.2114 52.0229L47.5334 53.2582L46.3008 53.9334L47.5334 54.6086L48.2114 55.8362Z" fill="black"/>
<path d="M53.5656 55.8362L54.2436 54.6086L55.4762 53.9334L54.2436 53.2582L53.5656 52.0229L52.8877 53.2582L51.655 53.9334L52.8877 54.6086L53.5656 55.8362Z" fill="black"/>
<path d="M40.2532 59.6956L40.9312 58.4603L42.1638 57.7928L40.9312 57.1176L40.2532 55.8823L39.5753 57.1176L38.3427 57.7928L39.5753 58.4603L40.2532 59.6956Z" fill="black"/>
<path d="M45.5305 59.6956L46.2007 58.4603L47.441 57.7928L46.2007 57.1176L45.5305 55.8823L44.8525 57.1176L43.6122 57.7928L44.8525 58.4603L45.5305 59.6956Z" fill="black"/>
<path d="M50.8847 59.6956L51.5627 58.4603L52.7953 57.7928L51.5627 57.1176L50.8847 55.8823L50.2068 57.1176L48.9664 57.7928L50.2068 58.4603L50.8847 59.6956Z" fill="black"/>
<path d="M42.9343 63.555L43.6122 62.3197L44.8525 61.6445L43.6122 60.9693L42.9343 59.7417L42.264 60.9693L41.0237 61.6445L42.264 62.3197L42.9343 63.555Z" fill="black"/>
<path d="M48.2114 63.555L48.8893 62.3197L50.1219 61.6445L48.8893 60.9693L48.2114 59.7417L47.5334 60.9693L46.3008 61.6445L47.5334 62.3197L48.2114 63.555Z" fill="black"/>
<path d="M53.5656 63.555L54.2436 62.3197L55.4762 61.6445L54.2436 60.9693L53.5656 59.7417L52.8877 60.9693L51.655 61.6445L52.8877 62.3197L53.5656 63.555Z" fill="black"/>
<path d="M40.2532 67.4067L40.9312 66.1791L42.1638 65.5039L40.9312 64.8287L40.2532 63.6011L39.5753 64.8287L38.3427 65.5039L39.5753 66.1791L40.2532 67.4067Z" fill="black"/>
<path d="M45.5305 67.4067L46.2007 66.1791L47.441 65.5039L46.2007 64.8287L45.5305 63.6011L44.8525 64.8287L43.6122 65.5039L44.8525 66.1791L45.5305 67.4067Z" fill="black"/>
<path d="M50.8847 67.4067L51.5627 66.1791L52.7953 65.5039L51.5627 64.8287L50.8847 63.6011L50.2068 64.8287L48.9664 65.5039L50.2068 66.1791L50.8847 67.4067Z" fill="black"/>
</g>
<defs>
<clipPath id="clip0fold">
<rect width="45" height="50" fill="white" transform="translate(5)"/>
</clipPath>
<clipPath id="clip1fold">
<rect width="56" height="48" fill="white" transform="translate(0 31)"/>
</clipPath>
</defs>
</svg>
