<svg width="51" height="86" viewBox="0 0 51 86" fill="none" xmlns="http://www.w3.org/2000/svg">
<path d="M36.8597 85.1018H8.97312C4.53133 85.1018 0.895508 81.4553 0.895508 77.0003V8.99969C0.895508 4.54476 4.53133 0.898178 8.97312 0.898178H42.0268C46.4686 0.898178 50.1045 4.54476 50.1045 8.99969V71.8089C50.1045 79.12 44.1403 85.1018 36.8597 85.1018Z" fill="#9E6CFF" stroke="black" stroke-width="2" stroke-miterlimit="10"/>
<path d="M21.6181 55.4622H17.9375V51.7707C17.9375 51.4383 17.6689 51.1599 17.3286 51.1599H14.2032C13.8719 51.1599 13.5942 51.4294 13.5942 51.7707V55.4622H9.91364C9.5823 55.4622 9.30469 55.7316 9.30469 56.0729V59.2075C9.30469 59.5399 9.57334 59.8183 9.91364 59.8183H13.5942V63.5098C13.5942 63.8421 13.8629 64.1205 14.2032 64.1205H17.3286C17.6599 64.1205 17.9375 63.8511 17.9375 63.5098V59.8183H21.6181C21.9495 59.8183 22.2271 59.5488 22.2271 59.2075V56.0729C22.2181 55.7316 21.9495 55.4622 21.6181 55.4622Z" fill="black" stroke="black" stroke-width="2" stroke-miterlimit="10"/>
<path d="M29.2746 67.5695C31.1391 67.5695 32.6507 66.0535 32.6507 64.1834C32.6507 62.3133 31.1391 60.7973 29.2746 60.7973C27.41 60.7973 25.8984 62.3133 25.8984 64.1834C25.8984 66.0535 27.41 67.5695 29.2746 67.5695Z" fill="white" stroke="black" stroke-width="2" stroke-miterlimit="10"/>
<path d="M38.6061 62.1445C40.4707 62.1445 41.9822 60.6285 41.9822 58.7584C41.9822 56.8883 40.4707 55.3723 38.6061 55.3723C36.7415 55.3723 35.23 56.8883 35.23 58.7584C35.23 60.6285 36.7415 62.1445 38.6061 62.1445Z" fill="white" stroke="black" stroke-width="2" stroke-miterlimit="10"/>
<path d="M35.1763 43.8757H9.04495C8.05988 43.8757 7.25391 43.0674 7.25391 42.0794V12.754C7.25391 11.7661 8.05988 10.9577 9.04495 10.9577H42.3494C43.3345 10.9577 44.1405 11.7661 44.1405 12.754V34.885C44.1405 39.825 40.1106 43.8757 35.1763 43.8757Z" fill="black" stroke="black" stroke-width="2" stroke-miterlimit="10"/>
<path d="M37.0658 16.0144H14.3374V38.81H37.0658V16.0144Z" fill="white" stroke="black" stroke-width="2" stroke-miterlimit="10"/>
<path d="M33.2598 73.3807L38.0866 78.6619" stroke="black" stroke-width="2" stroke-miterlimit="10" stroke-linecap="round" stroke-linejoin="round"/>
<path d="M39.1255 67.3L43.9524 72.5813" stroke="black" stroke-width="2" stroke-miterlimit="10" stroke-linecap="round" stroke-linejoin="round"/>
<path d="M37.415 71.5753L42.2419 76.8476" stroke="black" stroke-width="2" stroke-miterlimit="10" stroke-linecap="round" stroke-linejoin="round"/>
</svg>
