<svg width="86" height="81" viewBox="0 0 86 81" fill="none" xmlns="http://www.w3.org/2000/svg">
<g clip-path="url(#clip0)">
<path d="M80.3416 15.9317V17.5577C80.3416 19.2815 81.7742 20.6943 83.5221 20.6943H85.0989V76.966C85.0989 78.6898 83.6663 80.1026 81.9184 80.1026H4.08139C2.33346 80.1115 0.900879 78.6987 0.900879 76.966V20.6943H2.36049C4.10842 20.6943 5.54101 19.2815 5.54101 17.5577V15.9317C5.54101 14.2079 4.10842 12.7951 2.36049 12.7951H0.900879V7.89919L8.93776 0.88855H81.9184C83.6663 0.88855 85.0989 2.30134 85.0989 4.02512V12.7951H83.5221C81.7742 12.7951 80.3416 14.2079 80.3416 15.9317Z" fill="#9E6CFF" stroke="black" stroke-width="2" stroke-miterlimit="10"/>
<path d="M74.7286 64.3308V80.1026H11.2715V64.3308C11.2715 62.847 12.7041 61.6385 14.452 61.6385H71.5391C73.296 61.6385 74.7286 62.847 74.7286 64.3308Z" fill="black" stroke="black" stroke-width="2" stroke-miterlimit="10"/>
<path d="M42.9954 53.2418C49.106 53.2418 54.0596 48.3566 54.0596 42.3304C54.0596 36.3042 49.106 31.419 42.9954 31.419C36.8848 31.419 31.9312 36.3042 31.9312 42.3304C31.9312 48.3566 36.8848 53.2418 42.9954 53.2418Z" fill="white" stroke="black" stroke-width="2" stroke-miterlimit="10"/>
<path d="M41.5956 39.8353L40.4688 38.636L38.2945 40.623L39.4213 41.8222L41.5956 39.8353Z" fill="white" stroke="black" stroke-width="2" stroke-miterlimit="10"/>
<path d="M45.5364 44.0808H44.1309V45.467H45.5364V44.0808Z" fill="white" stroke="black" stroke-width="2" stroke-miterlimit="10"/>
<path d="M66.7999 0.995178V21.9738C66.7999 23.6976 65.3673 25.1104 63.6194 25.1104H48.2935C50.0414 25.1104 51.474 23.6976 51.474 21.9738V0.995178H66.7999Z" fill="black" stroke="black" stroke-width="2" stroke-miterlimit="10"/>
<path d="M52.5552 0.995178V21.9738C52.5552 23.6976 51.1226 25.1104 49.3747 25.1104H22.9124C21.1645 25.1104 19.7319 23.6976 19.7319 21.9738V0.995178H52.5552Z" fill="white" stroke="black" stroke-width="2" stroke-miterlimit="10"/>
<path d="M33.3638 5.11804H26.5522V19.7702H33.3638V5.11804Z" fill="white" stroke="black" stroke-width="2" stroke-miterlimit="10"/>
</g>
<defs>
<clipPath id="clip0">
<rect width="86" height="81" fill="white"/>
</clipPath>
</defs>
</svg>
