<svg width="125" height="61" viewBox="0 0 125 61" fill="none" xmlns="http://www.w3.org/2000/svg">
<g clip-path="url(#clip0)">
<path d="M115.687 9.53906H66.8094C61.9788 9.53906 58.0225 13.541 58.0225 18.4351V35.2178V42.5074V58.7926C58.0225 60.2 59.6373 60.9784 60.715 60.0898L71.2537 51.4035H115.687C120.517 51.4035 124.474 47.4015 124.474 42.5074V18.4351C124.474 13.541 120.521 9.53906 115.687 9.53906Z" fill="#00D384" stroke="black" stroke-width="3" stroke-miterlimit="10" stroke-linecap="round" stroke-linejoin="round"/>
<path d="M111.587 25.3908H72.0192C70.5412 25.3908 69.3301 24.1646 69.3301 22.6683C69.3301 21.172 70.5412 19.9458 72.0192 19.9458H111.587C113.064 19.9458 114.276 21.172 114.276 22.6683C114.276 24.1646 113.064 25.3908 111.587 25.3908Z" fill="#9E6CFF" stroke="black" stroke-width="3" stroke-miterlimit="10" stroke-linecap="round" stroke-linejoin="round"/>
<path d="M111.587 37.4889H72.0192C70.5412 37.4889 69.3301 36.2627 69.3301 34.7664C69.3301 33.2701 70.5412 32.0439 72.0192 32.0439H111.587C113.064 32.0439 114.276 33.2701 114.276 34.7664C114.276 36.2627 113.064 37.4889 111.587 37.4889Z" fill="#9E6CFF" stroke="black" stroke-width="3" stroke-miterlimit="10" stroke-linecap="round" stroke-linejoin="round"/>
<path d="M123.133 19.729L122.848 19.2065L122.567 19.729L122.051 20.0169L122.567 20.3012L122.848 20.8237L123.133 20.3012L123.649 20.0169L123.133 19.729Z" fill="black"/>
<path d="M120.893 19.729L120.612 19.2065L120.328 19.729L119.812 20.0169L120.328 20.3012L120.612 20.8237L120.893 20.3012L121.412 20.0169L120.893 19.729Z" fill="black"/>
<path d="M123.687 18.6626L123.972 19.185L124.253 18.6626L124.772 18.3747L124.253 18.0903L123.972 17.5679L123.687 18.0903L123.171 18.3747L123.687 18.6626Z" fill="black"/>
<path d="M122.016 18.0903L121.732 17.5679L121.451 18.0903L120.935 18.3747L121.451 18.6626L121.732 19.185L122.016 18.6626L122.532 18.3747L122.016 18.0903Z" fill="black"/>
<path d="M122.567 17.0244L122.848 17.5468L123.133 17.0244L123.649 16.7365L123.133 16.4521L122.848 15.9297L122.567 16.4521L122.051 16.7365L122.567 17.0244Z" fill="black"/>
<path d="M120.612 15.9297L120.328 16.4521L119.812 16.7365L120.328 17.0244L120.612 17.5468L120.893 17.0244L121.412 16.7365L120.893 16.4521L120.612 15.9297Z" fill="black"/>
<path d="M121.451 15.3857L121.732 15.9082L122.016 15.3857L122.532 15.0978L122.016 14.8135L121.732 14.291L121.451 14.8135L120.935 15.0978L121.451 15.3857Z" fill="black"/>
<path d="M120.328 13.5126L120.612 14.0351L120.893 13.5126L121.412 13.2283L120.893 12.9404L120.612 12.418L120.328 12.9404L119.812 13.2283L120.328 13.5126Z" fill="black"/>
<path d="M123.133 33.0928L122.848 32.5703L122.567 33.0928L122.051 33.3771L122.567 33.665L122.848 34.1875L123.133 33.665L123.649 33.3771L123.133 33.0928Z" fill="black"/>
<path d="M120.893 33.0928L120.612 32.5703L120.328 33.0928L119.812 33.3771L120.328 33.665L120.612 34.1875L120.893 33.665L121.412 33.3771L120.893 33.0928Z" fill="black"/>
<path d="M123.972 30.9282L123.687 31.4542L123.171 31.7386L123.687 32.0265L123.972 32.5489L124.253 32.0265L124.772 31.7386L124.253 31.4542L123.972 30.9282Z" fill="black"/>
<path d="M122.016 31.4542L121.732 30.9282L121.451 31.4542L120.935 31.7386L121.451 32.0265L121.732 32.5489L122.016 32.0265L122.532 31.7386L122.016 31.4542Z" fill="black"/>
<path d="M123.133 29.8156L122.848 29.2896L122.567 29.8156L122.051 30.0999L122.567 30.3878L122.848 30.9102L123.133 30.3878L123.649 30.0999L123.133 29.8156Z" fill="black"/>
<path d="M120.893 29.8156L120.612 29.2896L120.328 29.8156L119.812 30.0999L120.328 30.3878L120.612 30.9102L120.893 30.3878L121.412 30.0999L120.893 29.8156Z" fill="black"/>
<path d="M123.972 27.6509L123.687 28.1769L123.171 28.4612L123.687 28.7491L123.972 29.2716L124.253 28.7491L124.772 28.4612L124.253 28.1769L123.972 27.6509Z" fill="black"/>
<path d="M122.016 28.1769L121.732 27.6509L121.451 28.1769L120.935 28.4612L121.451 28.7491L121.732 29.2716L122.016 28.7491L122.532 28.4612L122.016 28.1769Z" fill="black"/>
<path d="M123.133 26.4678L122.848 25.9453L122.567 26.4678L122.051 26.7521L122.567 27.04L122.848 27.5625L123.133 27.04L123.649 26.7521L123.133 26.4678Z" fill="black"/>
<path d="M120.893 26.4678L120.612 25.9453L120.328 26.4678L119.812 26.7521L120.328 27.04L120.612 27.5625L120.893 27.04L121.412 26.7521L120.893 26.4678Z" fill="black"/>
<path d="M123.972 24.3032L123.687 24.8292L123.171 25.1136L123.687 25.4015L123.972 25.9239L124.253 25.4015L124.772 25.1136L124.253 24.8292L123.972 24.3032Z" fill="black"/>
<path d="M122.016 24.8292L121.732 24.3032L121.451 24.8292L120.935 25.1136L121.451 25.4015L121.732 25.9239L122.016 25.4015L122.532 25.1136L122.016 24.8292Z" fill="black"/>
<path d="M123.133 23.1911L122.848 22.665L122.567 23.1911L122.051 23.4754L122.567 23.7633L122.848 24.2857L123.133 23.7633L123.649 23.4754L123.133 23.1911Z" fill="black"/>
<path d="M120.893 23.1911L120.612 22.665L120.328 23.1911L119.812 23.4754L120.328 23.7633L120.612 24.2857L120.893 23.7633L121.412 23.4754L120.893 23.1911Z" fill="black"/>
<path d="M123.972 21.0264L123.687 21.5524L123.171 21.8367L123.687 22.1246L123.972 22.6471L124.253 22.1246L124.772 21.8367L124.253 21.5524L123.972 21.0264Z" fill="black"/>
<path d="M122.016 21.5524L121.732 21.0264L121.451 21.5524L120.935 21.8367L121.451 22.1246L121.732 22.6471L122.016 22.1246L122.532 21.8367L122.016 21.5524Z" fill="black"/>
<path d="M123.133 46.4028L122.848 45.8804L122.567 46.4028L122.051 46.6907L122.567 46.9751L122.848 47.4975L123.133 46.9751L123.649 46.6907L123.133 46.4028Z" fill="black"/>
<path d="M120.893 46.4028L120.612 45.8804L120.328 46.4028L119.812 46.6907L120.328 46.9751L120.612 47.4975L120.893 46.9751L121.412 46.6907L120.893 46.4028Z" fill="black"/>
<path d="M123.972 44.2422L123.687 44.7646L123.171 45.0525L123.687 45.3369L123.972 45.8593L124.253 45.3369L124.474 45.216L124.253 44.7646L123.972 44.2422Z" fill="black"/>
<path d="M122.016 44.7646L121.732 44.2422L121.451 44.7646L120.935 45.0525L121.451 45.3369L121.732 45.8593L122.016 45.3369L122.532 45.0525L122.016 44.7646Z" fill="black"/>
<path d="M123.133 43.126L122.848 42.6035L122.567 43.126L122.051 43.4139L122.567 43.6982L122.848 44.2206L123.133 43.6982L123.649 43.4139L123.133 43.126Z" fill="black"/>
<path d="M120.893 43.126L120.612 42.6035L120.328 43.126L119.812 43.4139L120.328 43.6982L120.612 44.2206L120.893 43.6982L121.412 43.4139L120.893 43.126Z" fill="black"/>
<path d="M123.972 40.9648L123.687 41.4873L123.171 41.7716L123.687 42.0595L123.972 42.582L124.253 42.0595L124.772 41.7716L124.253 41.4873L123.972 40.9648Z" fill="black"/>
<path d="M122.016 41.4873L121.732 40.9648L121.451 41.4873L120.935 41.7716L121.451 42.0595L121.732 42.582L122.016 42.0595L122.532 41.7716L122.016 41.4873Z" fill="black"/>
<path d="M123.133 39.7778L122.848 39.2554L122.567 39.7778L122.051 40.0657L122.567 40.3501L122.848 40.8761L123.133 40.3501L123.649 40.0657L123.133 39.7778Z" fill="black"/>
<path d="M120.893 39.7778L120.612 39.2554L120.328 39.7778L119.812 40.0657L120.328 40.3501L120.612 40.8761L120.893 40.3501L121.412 40.0657L120.893 39.7778Z" fill="black"/>
<path d="M123.972 37.6172L123.687 38.1396L123.171 38.4275L123.687 38.7119L123.972 39.2343L124.253 38.7119L124.772 38.4275L124.253 38.1396L123.972 37.6172Z" fill="black"/>
<path d="M122.016 38.1396L121.732 37.6172L121.451 38.1396L120.935 38.4275L121.451 38.7119L121.732 39.2343L122.016 38.7119L122.532 38.4275L122.016 38.1396Z" fill="black"/>
<path d="M123.133 36.501L122.848 35.9785L122.567 36.501L122.051 36.7889L122.567 37.0732L122.848 37.5957L123.133 37.0732L123.649 36.7889L123.133 36.501Z" fill="black"/>
<path d="M120.893 36.501L120.612 35.9785L120.328 36.501L119.812 36.7889L120.328 37.0732L120.612 37.5957L120.893 37.0732L121.412 36.7889L120.893 36.501Z" fill="black"/>
<path d="M123.972 34.3403L123.687 34.8628L123.171 35.1507L123.687 35.435L123.972 35.9575L124.253 35.435L124.772 35.1507L124.253 34.8628L123.972 34.3403Z" fill="black"/>
<path d="M122.016 34.8628L121.732 34.3403L121.451 34.8628L120.935 35.1507L121.451 35.435L121.732 35.9575L122.016 35.435L122.532 35.1507L122.016 34.8628Z" fill="black"/>
<path d="M122.016 48.2262L121.732 47.7002L121.451 48.2262L120.935 48.5105L121.451 48.7984L121.732 49.3209L122.016 48.7984L122.532 48.5105L122.016 48.2262Z" fill="black"/>
<path d="M118.13 19.2065L117.849 19.729L117.333 20.0169L117.849 20.3012L118.13 20.8237L118.414 20.3012L118.93 20.0169L118.414 19.729L118.13 19.2065Z" fill="black"/>
<path d="M115.645 20.3012L115.926 20.8237L116.21 20.3012L116.726 20.0169L116.21 19.729L115.926 19.2065L115.645 19.729L115.129 20.0169L115.645 20.3012Z" fill="black"/>
<path d="M119.254 17.5679L118.969 18.0903L118.453 18.3747L118.969 18.6626L119.254 19.185L119.534 18.6626L120.054 18.3747L119.534 18.0903L119.254 17.5679Z" fill="black"/>
<path d="M117.049 17.5679L116.765 18.0903L116.249 18.3747L116.765 18.6626L117.049 19.185L117.333 18.6626L117.849 18.3747L117.333 18.0903L117.049 17.5679Z" fill="black"/>
<path d="M118.13 15.9297L117.849 16.4521L117.333 16.7365L117.849 17.0244L118.13 17.5468L118.414 17.0244L118.93 16.7365L118.414 16.4521L118.13 15.9297Z" fill="black"/>
<path d="M115.926 15.9297L115.645 16.4521L115.129 16.7365L115.645 17.0244L115.926 17.5468L116.21 17.0244L116.726 16.7365L116.21 16.4521L115.926 15.9297Z" fill="black"/>
<path d="M119.254 14.291L118.969 14.8135L118.453 15.0978L118.969 15.3857L119.254 15.9082L119.534 15.3857L120.054 15.0978L119.534 14.8135L119.254 14.291Z" fill="black"/>
<path d="M117.049 14.291L116.765 14.8135L116.249 15.0978L116.765 15.3857L117.049 15.9082L117.333 15.3857L117.849 15.0978L117.333 14.8135L117.049 14.291Z" fill="black"/>
<path d="M114.809 15.9082L115.093 15.3857L115.61 15.0978L115.093 14.8135L114.809 14.291L114.528 14.8135L114.012 15.0978L114.528 15.3857L114.809 15.9082Z" fill="black"/>
<path d="M117.333 13.2283L117.849 13.5126L118.13 14.0351L118.414 13.5126L118.93 13.2283L118.414 12.9404L118.13 12.418L117.849 12.9404L117.333 13.2283Z" fill="black"/>
<path d="M115.926 14.0351L116.21 13.5126L116.726 13.2283L116.21 12.9404L115.926 12.418L115.645 12.9404L115.129 13.2283L115.645 13.5126L115.926 14.0351Z" fill="black"/>
<path d="M119.254 12.3969L119.534 11.8745L120.054 11.5866L119.534 11.3022L119.254 10.7798L118.969 11.3022L118.453 11.5866L118.969 11.8745L119.254 12.3969Z" fill="black"/>
<path d="M116.765 11.8745L117.049 12.3969L117.333 11.8745L117.849 11.5866L117.333 11.3022L117.049 10.7798L116.765 11.3022L116.249 11.5866L116.765 11.8745Z" fill="black"/>
<path d="M114.121 11.8745L114.405 12.3969L114.686 11.8745L115.206 11.5866L114.686 11.3022L114.405 10.7798L114.121 11.3022L113.605 11.5866L114.121 11.8745Z" fill="black"/>
<path d="M115.926 10.7583L116.21 10.2358L116.726 9.94791L116.21 9.66358L115.926 9.14111L115.645 9.66358L115.129 9.94791L115.645 10.2358L115.926 10.7583Z" fill="black"/>
<path d="M117.333 33.3771L117.849 33.665L118.13 34.1875L118.414 33.665L118.93 33.3771L118.414 33.0928L118.13 32.5703L117.849 33.0928L117.333 33.3771Z" fill="black"/>
<path d="M115.645 33.665L115.926 34.1875L116.21 33.665L116.726 33.3771L116.21 33.0928L115.926 32.5703L115.645 33.0928L115.129 33.3771L115.645 33.665Z" fill="black"/>
<path d="M119.534 31.4542L119.254 30.9282L118.969 31.4542L118.453 31.7386L118.969 32.0265L119.254 32.5489L119.534 32.0265L120.054 31.7386L119.534 31.4542Z" fill="black"/>
<path d="M116.765 32.0265L117.049 32.5489L117.333 32.0265L117.849 31.7386L117.333 31.4542L117.049 30.9282L116.765 31.4542L116.249 31.7386L116.765 32.0265Z" fill="black"/>
<path d="M117.333 30.0999L117.849 30.3878L118.13 30.9102L118.414 30.3878L118.93 30.0999L118.414 29.8156L118.13 29.2896L117.849 29.8156L117.333 30.0999Z" fill="black"/>
<path d="M115.645 30.3878L115.926 30.9102L116.21 30.3878L116.726 30.0999L116.21 29.8156L115.926 29.2896L115.645 29.8156L115.129 30.0999L115.645 30.3878Z" fill="black"/>
<path d="M119.534 28.1769L119.254 27.6509L118.969 28.1769L118.453 28.4612L118.969 28.7491L119.254 29.2716L119.534 28.7491L120.054 28.4612L119.534 28.1769Z" fill="black"/>
<path d="M116.765 28.7491L117.049 29.2716L117.333 28.7491L117.849 28.4612L117.333 28.1769L117.049 27.6509L116.765 28.1769L116.249 28.4612L116.765 28.7491Z" fill="black"/>
<path d="M117.333 26.7521L117.849 27.04L118.13 27.5625L118.414 27.04L118.93 26.7521L118.414 26.4678L118.13 25.9453L117.849 26.4678L117.333 26.7521Z" fill="black"/>
<path d="M115.645 27.04L115.926 27.5625L116.21 27.04L116.726 26.7521L116.21 26.4678L115.926 25.9453L115.645 26.4678L115.129 26.7521L115.645 27.04Z" fill="black"/>
<path d="M119.534 24.8292L119.254 24.3032L118.969 24.8292L118.453 25.1136L118.969 25.4015L119.254 25.9239L119.534 25.4015L120.054 25.1136L119.534 24.8292Z" fill="black"/>
<path d="M116.765 25.4015L117.049 25.9239L117.333 25.4015L117.849 25.1136L117.333 24.8292L117.049 24.3032L116.765 24.8292L116.249 25.1136L116.765 25.4015Z" fill="black"/>
<path d="M118.13 22.665L117.849 23.1911L117.333 23.4754L117.849 23.7633L118.13 24.2857L118.414 23.7633L118.93 23.4754L118.414 23.1911L118.13 22.665Z" fill="black"/>
<path d="M115.645 23.7633L115.926 24.2857L116.21 23.7633L116.726 23.4754L116.21 23.1911L115.926 22.665L115.645 23.1911L115.129 23.4754L115.645 23.7633Z" fill="black"/>
<path d="M119.534 21.5524L119.254 21.0264L118.969 21.5524L118.453 21.8367L118.969 22.1246L119.254 22.6471L119.534 22.1246L120.054 21.8367L119.534 21.5524Z" fill="black"/>
<path d="M116.765 22.1246L117.049 22.6471L117.333 22.1246L117.849 21.8367L117.333 21.5524L117.049 21.0264L116.765 21.5524L116.249 21.8367L116.765 22.1246Z" fill="black"/>
<path d="M117.333 46.6907L117.849 46.9751L118.13 47.4975L118.414 46.9751L118.93 46.6907L118.414 46.4028L118.13 45.8804L117.849 46.4028L117.333 46.6907Z" fill="black"/>
<path d="M115.645 46.9751L115.926 47.4975L116.21 46.9751L116.726 46.6907L116.21 46.4028L115.926 45.8804L115.645 46.4028L115.129 46.6907L115.645 46.9751Z" fill="black"/>
<path d="M119.534 44.7646L119.254 44.2422L118.969 44.7646L118.453 45.0525L118.969 45.3369L119.254 45.8593L119.534 45.3369L120.054 45.0525L119.534 44.7646Z" fill="black"/>
<path d="M116.765 45.3369L117.049 45.8593L117.333 45.3369L117.849 45.0525L117.333 44.7646L117.049 44.2422L116.765 44.7646L116.249 45.0525L116.765 45.3369Z" fill="black"/>
<path d="M117.333 43.4139L117.849 43.6982L118.13 44.2206L118.414 43.6982L118.93 43.4139L118.414 43.126L118.13 42.6035L117.849 43.126L117.333 43.4139Z" fill="black"/>
<path d="M115.645 43.6982L115.926 44.2206L116.21 43.6982L116.726 43.4139L116.21 43.126L115.926 42.6035L115.645 43.126L115.129 43.4139L115.645 43.6982Z" fill="black"/>
<path d="M119.534 41.4873L119.254 40.9648L118.969 41.4873L118.453 41.7716L118.969 42.0595L119.254 42.582L119.534 42.0595L120.054 41.7716L119.534 41.4873Z" fill="black"/>
<path d="M116.765 42.0595L117.049 42.582L117.333 42.0595L117.849 41.7716L117.333 41.4873L117.049 40.9648L116.765 41.4873L116.249 41.7716L116.765 42.0595Z" fill="black"/>
<path d="M117.333 40.0657L117.849 40.3501L118.13 40.8761L118.414 40.3501L118.93 40.0657L118.414 39.7778L118.13 39.2554L117.849 39.7778L117.333 40.0657Z" fill="black"/>
<path d="M115.645 40.3501L115.926 40.8761L116.21 40.3501L116.726 40.0657L116.21 39.7778L115.926 39.2554L115.645 39.7778L115.129 40.0657L115.645 40.3501Z" fill="black"/>
<path d="M119.534 38.1396L119.254 37.6172L118.969 38.1396L118.453 38.4275L118.969 38.7119L119.254 39.2343L119.534 38.7119L120.054 38.4275L119.534 38.1396Z" fill="black"/>
<path d="M116.765 38.7119L117.049 39.2343L117.333 38.7119L117.849 38.4275L117.333 38.1396L117.049 37.6172L116.765 38.1396L116.249 38.4275L116.765 38.7119Z" fill="black"/>
<path d="M117.333 36.7889L117.849 37.0732L118.13 37.5957L118.414 37.0732L118.93 36.7889L118.414 36.501L118.13 35.9785L117.849 36.501L117.333 36.7889Z" fill="black"/>
<path d="M115.645 37.0732L115.926 37.5957L116.21 37.0732L116.726 36.7889L116.21 36.501L115.926 35.9785L115.645 36.501L115.129 36.7889L115.645 37.0732Z" fill="black"/>
<path d="M119.534 34.8628L119.254 34.3403L118.969 34.8628L118.453 35.1507L118.969 35.435L119.254 35.9575L119.534 35.435L120.054 35.1507L119.534 34.8628Z" fill="black"/>
<path d="M116.765 35.435L117.049 35.9575L117.333 35.435L117.849 35.1507L117.333 34.8628L117.049 34.3403L116.765 34.8628L116.249 35.1507L116.765 35.435Z" fill="black"/>
<path d="M117.333 50.1491L117.849 50.437L118.13 50.9594L118.414 50.437L118.93 50.1491L118.414 49.8647L118.13 49.3423L117.849 49.8647L117.333 50.1491Z" fill="black"/>
<path d="M115.645 50.437L115.926 50.9594L116.21 50.437L116.726 50.1491L116.21 49.8647L115.926 49.3423L115.645 49.8647L115.129 50.1491L115.645 50.437Z" fill="black"/>
<path d="M119.534 48.2262L119.254 47.7002L118.969 48.2262L118.453 48.5105L118.969 48.7984L119.254 49.3209L119.534 48.7984L120.054 48.5105L119.534 48.2262Z" fill="black"/>
<path d="M116.765 48.7984L117.049 49.3209L117.333 48.7984L117.849 48.5105L117.333 48.2262L117.049 47.7002L116.765 48.2262L116.249 48.5105L116.765 48.7984Z" fill="black"/>
<path d="M7.27715 0.533203H44.8365C48.5506 0.533203 51.5873 3.60755 51.5873 7.36785V20.2623V25.8637V38.3779C51.5873 39.4583 50.348 40.0554 49.5195 39.373L41.4207 32.6983H7.27715C3.56299 32.6983 0.526367 29.624 0.526367 25.8637V7.36785C0.526367 3.60755 3.56299 0.533203 7.27715 0.533203Z" fill="#00D384" stroke="black" stroke-width="3" stroke-miterlimit="10" stroke-linecap="round" stroke-linejoin="round"/>
<path d="M10.4295 12.7132H40.8344C41.9718 12.7132 42.9021 11.7713 42.9021 10.6198C42.9021 9.46822 41.9718 8.52637 40.8344 8.52637H10.4295C9.29211 8.52637 8.36182 9.46822 8.36182 10.6198C8.36182 11.7713 9.29211 12.7132 10.4295 12.7132Z" fill="#9E6CFF" stroke="black" stroke-width="3" stroke-miterlimit="10" stroke-linecap="round" stroke-linejoin="round"/>
<path d="M10.4295 22.011H40.8344C41.9718 22.011 42.9021 21.0692 42.9021 19.9176C42.9021 18.7661 41.9718 17.8242 40.8344 17.8242H10.4295C9.29211 17.8242 8.36182 18.7661 8.36182 19.9176C8.36182 21.0692 9.29211 22.011 10.4295 22.011Z" fill="#9E6CFF" stroke="black" stroke-width="3" stroke-miterlimit="10" stroke-linecap="round" stroke-linejoin="round"/>
</g>
<defs>
<clipPath id="clip0">
<rect width="125" height="61" fill="white"/>
</clipPath>
</defs>
</svg>
