<svg width="71" height="57" viewBox="0 0 71 57" fill="none" xmlns="http://www.w3.org/2000/svg">
<g clip-path="url(#clip0)">
<path d="M18.6362 46.6761L20.9859 37.497C21.5271 35.3773 23.7106 34.0856 25.8373 34.625L25.9227 34.6487L23.1125 45.6351C22.8562 46.643 23.4686 47.6744 24.4797 47.9299L38.9483 51.6063C39.9547 51.8618 40.9943 51.2514 41.2506 50.2436L44.0608 39.2571L44.1462 39.2808C46.2729 39.8202 47.5688 41.9967 47.0276 44.1163L44.6779 53.2954C44.1367 55.4151 41.9531 56.7068 39.8265 56.1674L21.5176 51.5164C19.3909 50.9722 18.095 48.7958 18.6362 46.6761Z" fill="#00D384" stroke="black" stroke-width="3" stroke-miterlimit="10" stroke-linecap="round" stroke-linejoin="round"/>
<path d="M59.1273 38.6233C65.2909 38.6233 70.2874 33.6431 70.2874 27.4997C70.2874 21.3562 65.2909 16.376 59.1273 16.376C52.9638 16.376 47.9673 21.3562 47.9673 27.4997C47.9673 33.6431 52.9638 38.6233 59.1273 38.6233Z" fill="#00D384" stroke="black" stroke-width="3" stroke-miterlimit="10" stroke-linecap="round" stroke-linejoin="round"/>
<path d="M62.8918 0.709961L64.6055 53.8586L8.58682 39.2572L7.88428 17.4404L62.8918 0.709961Z" fill="#00D384" stroke="black" stroke-width="3" stroke-miterlimit="10" stroke-linecap="round" stroke-linejoin="round"/>
<path d="M4.21021 15.6805C6.19918 15.619 7.87485 17.1851 7.94131 19.1676L8.53942 37.7575C8.60113 39.74 7.0299 41.4102 5.04093 41.4764C3.05196 41.5379 1.37629 39.9718 1.30983 37.9893L0.711718 19.3994C0.650008 17.4169 2.22125 15.7467 4.21021 15.6805Z" fill="#00D384" stroke="black" stroke-width="3" stroke-miterlimit="10" stroke-linecap="round" stroke-linejoin="round"/>
<path d="M18.9404 42.0159L19.643 41.8361L20.1414 41.3062L20.317 42.0111L20.8487 42.5032L20.1461 42.683L19.6477 43.2129L19.4721 42.5079L18.9404 42.0159Z" fill="black"/>
<path d="M19.6284 39.3474L20.331 39.1676L20.8294 38.6377L21.005 39.3427L21.5367 39.8395L20.8341 40.0146L20.3357 40.5445L20.1553 39.8442L19.6284 39.3474Z" fill="black"/>
<path d="M17.3452 40.1897L18.0525 40.0099L18.5462 39.48L18.7266 40.185L19.2582 40.677L18.5557 40.8568L18.0573 41.3868L17.8769 40.6818L17.3452 40.1897Z" fill="black"/>
<path d="M15.0718 41.0224L15.7743 40.8426L16.2728 40.3174L16.4484 41.0176L16.98 41.5144L16.2775 41.6895L15.5987 41.5192L15.0718 41.0224Z" fill="black"/>
<path d="M15.7554 38.3586L16.4627 38.1789L16.9611 37.6489L17.1367 38.3492L17.6684 38.846L16.9658 39.0258L16.4674 39.5557L16.287 38.8507L15.7554 38.3586Z" fill="black"/>
<path d="M13.4766 39.1962L14.1839 39.0211L14.6775 38.4912L14.8579 39.1915L15.3896 39.6883L14.6823 39.8633L14.1886 40.3933L14.0082 39.693L13.4766 39.1962Z" fill="black"/>
<path d="M11.6113 37.2943L12.3186 37.1145L12.8123 36.5894L12.9927 37.2896L13.5243 37.7864L12.8171 37.9615L12.3234 38.4914L12.143 37.7911L11.6113 37.2943Z" fill="black"/>
<path d="M9.33252 38.1365L10.0398 37.9567L10.5335 37.4268L10.7139 38.1317L11.2455 38.6238L10.5382 38.8036L10.0446 39.3335L9.86418 38.6285L9.33252 38.1365Z" fill="black"/>
<path d="M34.7144 46.0569L35.4169 45.8771L35.9153 45.3472L36.0957 46.0522L36.6274 46.5442L35.9201 46.724L35.6685 46.672L35.246 46.549L34.7144 46.0569Z" fill="black"/>
<path d="M35.4028 43.3886L36.1054 43.2088L36.6038 42.6836L36.7842 43.3839L37.3111 43.8807L36.6086 44.0557L36.1101 44.5856L35.9345 43.8854L35.4028 43.3886Z" fill="black"/>
<path d="M33.124 44.2307L33.8266 44.0509L34.325 43.521L34.5006 44.226L35.0323 44.7181L34.3297 44.8979L33.8313 45.4278L33.6509 44.7228L33.124 44.2307Z" fill="black"/>
<path d="M30.8457 45.0634L31.5482 44.8883L32.0467 44.3584L32.2271 45.0587L32.7587 45.5555L32.0514 45.7353L31.7998 45.5081L31.3774 45.5602L30.8457 45.0634Z" fill="black"/>
<path d="M31.5342 42.3997L32.2367 42.2199L32.7352 41.6899L32.9155 42.3949L33.4424 42.887L32.7399 43.0668L32.2415 43.5967L32.0658 42.8917L31.5342 42.3997Z" fill="black"/>
<path d="M29.2554 43.2372L29.9579 43.0622L30.4563 42.5322L30.632 43.2325L31.1636 43.7293L30.4611 43.9091L29.9627 44.4343L29.7823 43.734L29.2554 43.2372Z" fill="black"/>
<path d="M26.8911 44.0507L27.5984 43.8756L28.0921 43.3457L28.2725 44.046L28.8041 44.5428L28.1016 44.7226L27.6126 44.5522L27.4228 44.5475L26.8911 44.0507Z" fill="black"/>
<path d="M27.5796 41.387L28.2869 41.2072L28.7806 40.6772L28.961 41.3822L29.4926 41.8743L28.7853 42.0541L28.2916 42.584L28.1112 41.879L27.5796 41.387Z" fill="black"/>
<path d="M25.3013 42.2245L26.0086 42.0495L26.5022 41.5195L26.6826 42.2198L27.2143 42.7166L26.507 42.8964L26.0133 43.4216L25.8329 42.7213L25.3013 42.2245Z" fill="black"/>
<path d="M23.0229 43.0623L23.7302 42.8825L24.2239 42.3525L24.4043 43.0575L24.936 43.5496L24.2334 43.7294L23.735 44.2593L23.5546 43.5591L23.0229 43.0623Z" fill="black"/>
<path d="M23.7109 40.3935L24.4182 40.2184L24.9119 39.6885L25.0923 40.3887L25.624 40.8855L24.9167 41.0606L24.423 41.5905L24.2426 40.8903L23.7109 40.3935Z" fill="black"/>
<path d="M20.7441 43.9041L21.4514 43.7243L21.9451 43.1943L22.1255 43.8946L22.6572 44.3914L21.9499 44.5712L21.4562 45.1011L21.2758 44.3961L20.7441 43.9041Z" fill="black"/>
<path d="M21.4321 41.2356L22.1347 41.0558L22.6331 40.5259L22.8135 41.2309L23.3451 41.7229L22.6378 41.9027L22.1442 42.4327L21.9638 41.7324L21.4321 41.2356Z" fill="black"/>
<path d="M50.4312 50.0833L51.1337 49.9035L51.6321 49.3735L51.8078 50.0738L52.3394 50.5706L51.6369 50.7504L50.9581 50.5753L50.4312 50.0833Z" fill="black"/>
<path d="M51.1147 47.4148L51.822 47.235L52.3205 46.7051L52.4961 47.4101L53.0278 47.9021L52.3252 48.0819L51.8268 48.6119L51.6464 47.9116L51.1147 47.4148Z" fill="black"/>
<path d="M48.8364 48.2571L49.5437 48.0773L50.0374 47.5474L50.2178 48.2524L50.7494 48.7444L50.0421 48.9242L49.5485 49.4541L49.3681 48.7492L48.8364 48.2571Z" fill="black"/>
<path d="M46.5625 49.0898L47.265 48.91L47.7635 48.3848L47.9391 49.085L48.4708 49.5818L47.7682 49.7569L47.1749 49.9178L47.0894 49.5866L46.5625 49.0898Z" fill="black"/>
<path d="M47.2461 46.426L47.9534 46.2462L48.4471 45.7163L48.6275 46.4166L49.1591 46.9134L48.4566 47.0932L47.9581 47.6231L47.7778 46.9181L47.2461 46.426Z" fill="black"/>
<path d="M44.2793 49.9319L44.9866 49.7521L45.4803 49.2222L45.6607 49.9272L46.1923 50.4192L45.4898 50.599L44.9913 51.1289L44.811 50.424L44.2793 49.9319Z" fill="black"/>
<path d="M44.9673 47.2636L45.6746 47.0838L46.1683 46.5586L46.3486 47.2588L46.8803 47.7557L46.173 47.9307L45.6793 48.4606L45.4989 47.7604L44.9673 47.2636Z" fill="black"/>
<path d="M42.6084 48.0771L43.3109 47.8973L43.8094 47.3721L43.9898 48.0723L44.5214 48.5691L43.8141 48.7442L43.3204 49.2741L43.1401 48.5739L42.6084 48.0771Z" fill="black"/>
<path d="M43.2964 45.4133L43.9989 45.2335L44.4974 44.7036L44.6778 45.4039L45.2094 45.9007L44.5021 46.0805L44.0037 46.6104L43.828 45.9054L43.2964 45.4133Z" fill="black"/>
<path d="M40.8618 49.4118L41.0327 48.7399L41.5311 48.21L41.7115 48.9149L42.2432 49.407L41.5359 49.5868L41.0375 50.1167L40.8618 49.4118Z" fill="black"/>
<path d="M41.0181 46.2509L41.7206 46.0758L42.219 45.5459L42.3994 46.2462L42.9263 46.743L42.2238 46.918L41.7254 47.448L41.5497 46.7477L41.0181 46.2509Z" fill="black"/>
<path d="M38.7397 47.0886L39.4423 46.9088L39.9407 46.3789L40.1211 47.0839L40.6528 47.576L39.9455 47.7558L39.4091 47.4104L39.2714 47.5807L38.7397 47.0886Z" fill="black"/>
<path d="M39.4282 44.4198L40.1308 44.24L40.6292 43.7148L40.8096 44.4151L41.3412 44.9119L40.634 45.087L40.1355 45.6169L39.9599 44.9166L39.4282 44.4198Z" fill="black"/>
<path d="M37.1494 45.262L37.852 45.0822L38.3504 44.5522L38.526 45.2572L39.0577 45.7493L38.3551 45.9291L37.8567 46.459L37.6763 45.754L37.1494 45.262Z" fill="black"/>
<path d="M63.0249 50.4666L63.7275 50.2868L64.2259 49.7568L64.4015 50.4571L64.9332 50.9539L64.2306 51.1337L63.7322 51.6636L63.5566 50.9586L63.0249 50.4666Z" fill="black"/>
<path d="M60.7412 51.3041L61.4485 51.129L61.9469 50.5991L62.1226 51.2994L62.6542 51.7962L61.9517 51.976L61.4533 52.5012L61.2729 51.8009L60.7412 51.3041Z" fill="black"/>
<path d="M58.3823 52.1176L59.0896 51.9425L59.5833 51.4126L59.7637 52.1129L60.2953 52.6097L59.5928 52.7895L58.914 52.6144L58.3823 52.1176Z" fill="black"/>
<path d="M59.0703 49.4539L59.7776 49.2741L60.2713 48.7441L60.4517 49.4491L60.9833 49.9412L60.276 50.121L59.7824 50.6509L59.602 49.9459L59.0703 49.4539Z" fill="black"/>
<path d="M56.792 50.2914L57.4945 50.1163L57.993 49.5864L58.1733 50.2867L58.705 50.7835L57.9977 50.9633L57.504 51.4885L57.3236 50.7882L56.792 50.2914Z" fill="black"/>
<path d="M54.5137 51.1292L55.221 50.9494L55.7147 50.4194L55.895 51.1244L56.4267 51.6165L55.7241 51.7963L55.0453 51.6212L54.5137 51.1292Z" fill="black"/>
<path d="M55.2021 48.4604L55.9094 48.2806L56.4031 47.7554L56.5835 48.4556L57.1152 48.9524L56.4079 49.1275L55.9142 49.6574L55.7338 48.9572L55.2021 48.4604Z" fill="black"/>
<path d="M52.9233 49.3025L53.6259 49.1227L54.1243 48.5928L54.3047 49.2978L54.8364 49.7898L54.1291 49.9696L53.6354 50.4996L53.455 49.7993L52.9233 49.3025Z" fill="black"/>
<path d="M20.3877 36.3948L21.0902 36.215L21.5887 35.6851L21.7691 36.3853L22.3007 36.8821L21.5934 37.0619L21.0997 37.5918L20.9194 36.8869L20.3877 36.3948Z" fill="black"/>
<path d="M21.0669 33.7688L21.7694 33.589L22.2679 33.0591L22.4435 33.7593L22.9752 34.2561L22.2726 34.4359L21.7742 34.9659L21.5986 34.2609L21.0669 33.7688Z" fill="black"/>
<path d="M18.1094 37.2323L18.8119 37.0525L19.3103 36.5273L19.4907 37.2276L20.0176 37.7244L19.3151 37.8995L18.8167 38.4294L18.641 37.7291L18.1094 37.2323Z" fill="black"/>
<path d="M18.7837 34.6064L19.491 34.4313L19.9894 33.9014L20.1651 34.6016L20.6967 35.0984L19.9942 35.2782L19.4957 35.8034L19.3153 35.1032L18.7837 34.6064Z" fill="black"/>
<path d="M16.5195 35.4013L17.2221 35.2215L17.7205 34.6963L17.9009 35.3965L18.4325 35.8933L17.7253 36.0684L17.2316 36.5983L17.0512 35.8981L16.5195 35.4013Z" fill="black"/>
<path d="M17.1982 32.7753L17.9008 32.5955L18.3992 32.0703L18.5749 32.7706L19.1065 33.2674L18.404 33.4424L17.9055 33.9724L17.7252 33.2721L17.1982 32.7753Z" fill="black"/>
<path d="M14.2407 36.2434L14.9433 36.0636L15.4417 35.5337L15.6221 36.2387L16.149 36.7308L15.4464 36.9105L14.948 37.4405L14.7724 36.7355L14.2407 36.2434Z" fill="black"/>
<path d="M14.915 33.6174L15.6223 33.4376L16.116 32.9077L16.2964 33.6127L16.8281 34.1048L16.1255 34.2846L15.6271 34.8145L15.4467 34.1095L14.915 33.6174Z" fill="black"/>
<path d="M12.3755 34.3416L13.078 34.1618L13.5765 33.6318L13.7568 34.3368L14.2838 34.8289L13.5812 35.0087L13.0828 35.5386L12.9071 34.8336L12.3755 34.3416Z" fill="black"/>
<path d="M13.0493 31.7156L13.7566 31.5358L14.2503 31.0059L14.4307 31.7108L14.9623 32.2029L14.2598 32.3827L13.7614 32.9126L13.581 32.2077L13.0493 31.7156Z" fill="black"/>
<path d="M10.0967 35.1791L10.7992 35.004L11.2977 34.4741L11.4733 35.1744L12.005 35.6712L11.3024 35.851L10.804 36.3762L10.6236 35.6759L10.0967 35.1791Z" fill="black"/>
<path d="M10.771 32.5531L11.4783 32.3781L11.972 31.8481L12.1524 32.5484L12.684 33.0452L11.9767 33.225L11.483 33.7502L11.3027 33.0499L10.771 32.5531Z" fill="black"/>
<path d="M36.1621 40.4358L36.8694 40.256L37.3631 39.7261L37.5435 40.4311L38.0751 40.9231L37.3726 41.1029L36.8741 41.6329L36.6938 40.9279L36.1621 40.4358Z" fill="black"/>
<path d="M36.8408 37.8098L37.5434 37.63L38.0418 37.1001L38.2222 37.8051L38.7538 38.2972L38.0465 38.477L37.5529 39.0069L37.3725 38.3019L36.8408 37.8098Z" fill="black"/>
<path d="M33.8838 41.2729L34.5911 41.0978L35.0848 40.5679L35.2651 41.2681L35.7968 41.7649L35.0895 41.9447L34.5958 42.4699L34.4154 41.7697L33.8838 41.2729Z" fill="black"/>
<path d="M34.5625 38.6474L35.2651 38.4723L35.7635 37.9424L35.9439 38.6426L36.4708 39.1394L35.7682 39.3192L35.2698 39.8444L35.0942 39.1442L34.5625 38.6474Z" fill="black"/>
<path d="M32.2935 39.4418L33.0008 39.262L33.4944 38.7368L33.6748 39.4371L34.2065 39.9339L33.4992 40.1089L33.0055 40.6389L32.8251 39.9386L32.2935 39.4418Z" fill="black"/>
<path d="M32.9722 36.8158L33.6747 36.6408L34.1731 36.1108L34.3535 36.8111L34.8852 37.3079L34.1779 37.483L33.6795 38.0129L33.5038 37.3126L32.9722 36.8158Z" fill="black"/>
<path d="M30.0146 40.2844L30.7172 40.1046L31.2156 39.5747L31.396 40.2797L31.9277 40.7718L31.2204 40.9516L30.7267 41.4815L30.5463 40.7765L30.0146 40.2844Z" fill="black"/>
<path d="M30.6934 37.6585L31.3959 37.4787L31.8943 36.9487L32.07 37.6537L32.6016 38.1458L31.8991 38.3256L31.4007 38.8555L31.225 38.1553L30.6934 37.6585Z" fill="black"/>
<path d="M28.3438 38.4296L29.0463 38.2545L29.5447 37.7246L29.7251 38.4249L30.252 38.9217L29.5495 39.0967L29.051 39.6267L28.8754 38.9264L28.3438 38.4296Z" fill="black"/>
<path d="M29.0181 35.8036L29.7254 35.6286L30.219 35.0986L30.3994 35.7989L30.9311 36.2957L30.2285 36.4755L29.7301 37.0007L29.5497 36.3004L29.0181 35.8036Z" fill="black"/>
<path d="M26.0654 39.2717L26.768 39.0919L27.2664 38.562L27.442 39.267L27.9737 39.7591L27.2712 39.9389L26.7727 40.4688L26.5923 39.7685L26.0654 39.2717Z" fill="black"/>
<path d="M26.7393 36.6458L27.4466 36.466L27.9402 35.936L28.1206 36.641L28.6523 37.1331L27.945 37.3129L27.4513 37.8428L27.2709 37.1426L26.7393 36.6458Z" fill="black"/>
<path d="M24.4751 37.4407L25.1776 37.2609L25.6761 36.731L25.8565 37.4359L26.3834 37.928L25.6808 38.1078L25.1824 38.6377L25.0068 37.9327L24.4751 37.4407Z" fill="black"/>
<path d="M25.1494 34.8147L25.8567 34.6349L26.3504 34.105L26.5308 34.81L27.0624 35.302L26.3599 35.4818L25.8615 36.0118L25.6811 35.3068L25.1494 34.8147Z" fill="black"/>
<path d="M22.1919 38.2782L22.8992 38.1032L23.3976 37.5732L23.5733 38.2735L24.1049 38.7703L23.4024 38.9501L22.9039 39.4753L22.7236 38.775L22.1919 38.2782Z" fill="black"/>
<path d="M22.8706 35.6523L23.5779 35.4772L24.0716 34.9473L24.252 35.6475L24.7836 36.1443L24.0763 36.3241L23.5826 36.854L23.4023 36.1491L22.8706 35.6523Z" fill="black"/>
<path d="M51.8794 44.4622L52.5819 44.2824L53.0804 43.7524L53.2608 44.4527L53.7924 44.9495L53.0851 45.1293L52.5914 45.6592L52.4111 44.9542L51.8794 44.4622Z" fill="black"/>
<path d="M52.5581 41.8362L53.2606 41.6564L53.7591 41.1265L53.9347 41.8267L54.4664 42.3235L53.7638 42.5033L53.2654 43.0332L53.085 42.3283L52.5581 41.8362Z" fill="black"/>
<path d="M49.6011 45.2992L50.3036 45.1194L50.802 44.5942L50.9824 45.2945L51.5093 45.7913L50.8068 45.9664L50.3084 46.4963L50.1327 45.796L49.6011 45.2992Z" fill="black"/>
<path d="M50.2749 42.6737L50.9822 42.4987L51.4759 41.9688L51.6563 42.669L52.1879 43.1658L51.4854 43.3409L50.9869 43.8708L50.8066 43.1705L50.2749 42.6737Z" fill="black"/>
<path d="M48.0107 43.4685L48.7133 43.2887L49.2117 42.7588L49.3921 43.4638L49.9238 43.9606L49.2165 44.1356L48.718 44.6656L48.5424 43.9653L48.0107 43.4685Z" fill="black"/>
<path d="M48.6895 40.8422L49.392 40.6624L49.8904 40.1372L50.0661 40.8375L50.5977 41.3343L49.8952 41.5093L49.3967 42.0392L49.2164 41.339L48.6895 40.8422Z" fill="black"/>
<path d="M45.7319 44.3108L46.4345 44.131L46.9329 43.6011L47.1133 44.3061L47.6402 44.7981L46.9377 44.9779L46.4392 45.5079L46.2636 44.8029L45.7319 44.3108Z" fill="black"/>
<path d="M46.4062 41.6848L47.1135 41.505L47.6072 40.9751L47.7876 41.6801L48.3193 42.1722L47.6167 42.352L47.1183 42.8819L46.9379 42.1769L46.4062 41.6848Z" fill="black"/>
<path d="M44.0562 42.4558L44.7635 42.276L45.2571 41.7461L45.4375 42.4511L45.9692 42.9479L45.2666 43.123L44.7682 43.6529L44.5878 42.9526L44.0562 42.4558Z" fill="black"/>
<path d="M44.7354 39.83L45.4379 39.6502L45.9363 39.125L46.1167 39.8253L46.6484 40.3221L45.9411 40.4971L45.4474 41.0271L45.267 40.3268L44.7354 39.83Z" fill="black"/>
<path d="M41.7778 43.2981L42.4851 43.1183L42.9788 42.5884L43.1592 43.2934L43.6908 43.7854L42.9836 43.9652L42.4899 44.4952L42.3095 43.7902L41.7778 43.2981Z" fill="black"/>
<path d="M42.4565 40.6721L43.1591 40.4923L43.6575 39.9624L43.8379 40.6674L44.3648 41.1595L43.6623 41.3393L43.1638 41.8692L42.9882 41.1642L42.4565 40.6721Z" fill="black"/>
<path d="M40.188 41.467L40.8953 41.2873L41.389 40.7573L41.5693 41.4576L42.101 41.9544L41.3985 42.1342L40.9 42.6641L40.7196 41.9591L40.188 41.467Z" fill="black"/>
<path d="M40.8667 38.8411L41.5692 38.6613L42.0677 38.1313L42.2481 38.8363L42.7797 39.3284L42.0724 39.5082L41.5787 40.0381L41.3984 39.3331L40.8667 38.8411Z" fill="black"/>
<path d="M37.9092 42.3046L38.6165 42.1295L39.1102 41.5996L39.2905 42.2999L39.8222 42.7967L39.1149 42.9717L38.6212 43.5017L38.4408 42.8014L37.9092 42.3046Z" fill="black"/>
<path d="M38.5879 39.6786L39.2904 39.5036L39.7889 38.9736L39.9693 39.6739L40.4962 40.1707L39.7936 40.3505L39.2952 40.8757L39.1196 40.1754L38.5879 39.6786Z" fill="black"/>
<path d="M61.5059 48.3513L62.2084 48.1715L62.7068 47.6416L62.8872 48.3466L63.4189 48.8387L62.7116 49.0185L62.2179 49.5484L62.0375 48.8434L61.5059 48.3513Z" fill="black"/>
<path d="M62.1846 45.7253L62.8871 45.5455L63.3855 45.0156L63.5612 45.7206L64.0928 46.2127L63.3903 46.3925L62.8919 46.9224L62.7115 46.2174L62.1846 45.7253Z" fill="black"/>
<path d="M59.835 46.4965L60.5375 46.3167L61.0359 45.7915L61.2163 46.4918L61.7432 46.9886L61.0407 47.1636L60.5423 47.6936L60.3666 46.9933L59.835 46.4965Z" fill="black"/>
<path d="M60.5093 43.8705L61.2166 43.6954L61.7103 43.1655L61.8906 43.8658L62.4223 44.3626L61.7198 44.5377L61.2213 45.0676L61.0409 44.3673L60.5093 43.8705Z" fill="black"/>
<path d="M57.5518 47.3386L58.2591 47.1588L58.7575 46.6289L58.9331 47.3339L59.4648 47.826L58.7622 48.0058L58.2638 48.5357L58.0834 47.8307L57.5518 47.3386Z" fill="black"/>
<path d="M58.2305 44.7127L58.9378 44.5329L59.4314 44.0029L59.6118 44.7079L60.1435 45.2L59.4362 45.3798L58.9425 45.9097L58.7621 45.2095L58.2305 44.7127Z" fill="black"/>
<path d="M55.9663 45.5076L56.6689 45.3278L57.1673 44.7979L57.3429 45.5028L57.8746 45.9949L57.172 46.1747L56.6736 46.7046L56.4932 45.9996L55.9663 45.5076Z" fill="black"/>
<path d="M56.6406 42.8816L57.3479 42.7018L57.8416 42.1719L58.022 42.8769L58.5536 43.3689L57.8463 43.5487L57.3527 44.0787L57.1723 43.3737L56.6406 42.8816Z" fill="black"/>
<path d="M53.6831 46.3451L54.3904 46.1701L54.8888 45.6401L55.0645 46.3404L55.5961 46.8372L54.8936 47.017L54.3951 47.5422L54.2148 46.8419L53.6831 46.3451Z" fill="black"/>
<path d="M54.3618 43.7191L55.0644 43.5441L55.5628 43.0142L55.7432 43.7144L56.2748 44.2112L55.5675 44.391L55.0739 44.9209L54.8935 44.2159L54.3618 43.7191Z" fill="black"/>
<path d="M28.7236 53.1726L29.4262 52.9928L29.9246 52.4629L30.105 53.1632L30.6319 53.66L29.9294 53.8398L29.2553 53.6647L28.7236 53.1726Z" fill="black"/>
<path d="M24.855 52.179L25.5575 51.9992L26.056 51.4692L26.2316 52.1742L26.7633 52.671L26.0607 52.8461L25.3819 52.6758L24.855 52.179Z" fill="black"/>
<path d="M20.9009 51.1668L21.6082 50.987L22.1019 50.457L22.2822 51.162L22.8139 51.6588L22.1066 51.8339L21.4325 51.6636L20.9009 51.1668Z" fill="black"/>
<path d="M32.7495 54.1996L33.4521 54.0246L33.9505 53.4946L34.1309 54.1949L34.6578 54.6917L33.9552 54.8715L33.2812 54.6964L32.7495 54.1996Z" fill="black"/>
<path d="M29.4834 50.2156L30.1907 50.0358L30.6844 49.5059L30.8648 50.2109L31.3964 50.7029L30.6891 50.8827L30.1954 51.4126L30.0151 50.7124L29.4834 50.2156Z" fill="black"/>
<path d="M27.2051 51.0579L27.9076 50.8781L28.4061 50.3481L28.5864 51.0531L29.1181 51.5452L28.4108 51.725L27.9171 52.2549L27.7367 51.5499L27.2051 51.0579Z" fill="black"/>
<path d="M27.8838 48.4317L28.5863 48.252L29.0183 48.5926L29.2604 48.427L29.7921 48.9191L29.0895 49.0989L28.5911 49.6288L28.4107 48.9238L27.8838 48.4317Z" fill="black"/>
<path d="M25.6143 49.2268L26.3216 49.047L26.8152 48.5171L26.9956 49.2173L27.5273 49.7142L26.82 49.8939L26.3263 50.4239L26.1459 49.7189L25.6143 49.2268Z" fill="black"/>
<path d="M23.3359 50.0644L24.0385 49.8846L24.5369 49.3594L24.7173 50.0596L25.249 50.5564L24.5417 50.7315L24.048 51.2614L23.8676 50.5612L23.3359 50.0644Z" fill="black"/>
<path d="M24.0146 47.4382L24.7172 47.2632L24.5416 47.4477L25.3913 47.4335L25.9229 47.9303L25.2204 48.1054L24.7219 48.6353L24.5416 47.9351L24.0146 47.4382Z" fill="black"/>
<path d="M21.665 48.2141L22.3676 48.0343L22.866 47.5044L23.0417 48.2046L23.5733 48.7015L22.8708 48.8812L22.3723 49.4112L22.1919 48.7062L21.665 48.2141Z" fill="black"/>
<path d="M22.3394 45.5881L23.0466 45.4083L23.5403 44.8784L23.7207 45.5787L23.5736 46.0376L23.5451 46.2553L23.0514 46.7852L22.871 46.0802L22.3394 45.5881Z" fill="black"/>
<path d="M19.3818 49.0517L20.0891 48.8766L20.5876 48.3467L20.7632 49.0469L21.2949 49.5437L20.5923 49.7188L20.0939 50.2487L19.9135 49.5485L19.3818 49.0517Z" fill="black"/>
<path d="M20.0605 46.4257L20.7678 46.2506L21.2615 45.7207L21.4419 46.421L21.9736 46.9178L21.2663 47.0976L20.7726 47.6228L20.5922 46.9225L20.0605 46.4257Z" fill="black"/>
<path d="M17.7964 47.2206L18.4989 47.0408L18.9974 46.5156L19.173 47.2159L19.7046 47.7127L19.0021 47.8877L18.5037 48.4177L18.3233 47.7174L17.7964 47.2206Z" fill="black"/>
<path d="M18.4707 44.5946L19.178 44.4148L19.6717 43.8896L19.8521 44.5899L20.3837 45.0867L19.6764 45.2618L19.1827 45.7917L19.0024 45.0914L18.4707 44.5946Z" fill="black"/>
<path d="M43.5962 52.4587L44.3035 52.2789L44.7972 51.749L44.9776 52.4493L45.5092 52.9461L44.8019 53.1259L44.3082 53.6558L44.1279 52.9508L43.5962 52.4587Z" fill="black"/>
<path d="M41.332 53.2484L42.0346 53.0734L42.533 52.5435L42.7134 53.2437L43.2403 53.7405L42.5378 53.9203L42.0393 54.4455L41.8637 53.7452L41.332 53.2484Z" fill="black"/>
<path d="M42.0059 50.623L42.7132 50.4479L43.2068 49.918L43.3872 50.6182L43.9189 51.115L43.2163 51.2948L42.7179 51.8247L42.5375 51.1198L42.0059 50.623Z" fill="black"/>
<path d="M39.0532 54.0906L39.7558 53.9108L40.2542 53.3809L40.4298 54.0858L40.9615 54.5826L40.2589 54.7577L39.7605 55.2876L39.5801 54.5874L39.0532 54.0906Z" fill="black"/>
<path d="M39.7275 51.4648L40.4348 51.285L40.9285 50.7598L41.1089 51.46L41.6406 51.9568L40.9333 52.1319L40.4396 52.6618L40.2592 51.9616L39.7275 51.4648Z" fill="black"/>
<path d="M37.3774 52.2362L38.0847 52.0612L38.5784 51.5312L38.7588 52.2315L39.2905 52.7283L38.5879 52.9081L38.0895 53.4333L37.9091 52.733L37.3774 52.2362Z" fill="black"/>
<path d="M35.0991 53.0784L35.8064 52.8986L36.3001 52.3687L36.4805 53.0736L37.0121 53.5704L36.3048 53.7455L35.8112 54.2754L35.6308 53.5752L35.0991 53.0784Z" fill="black"/>
<path d="M35.7778 50.4523L36.4804 50.2725L36.6275 50.5374L37.1592 50.4475L37.6861 50.9443L36.9836 51.1194L36.4851 51.6493L36.3095 50.9491L35.7778 50.4523Z" fill="black"/>
<path d="M33.5093 51.2473L34.2166 51.0675L34.7103 50.5376L34.8906 51.2426L35.4223 51.7347L34.715 51.9145L34.2213 52.4444L34.0409 51.7441L33.5093 51.2473Z" fill="black"/>
<path d="M31.2305 52.0891L31.933 51.9093L32.4314 51.3794L32.6118 52.0797L33.1435 52.5765L32.4362 52.7563L31.9425 53.2862L31.7621 52.5812L31.2305 52.0891Z" fill="black"/>
<path d="M31.9092 49.4635L32.6117 49.2837L32.7589 49.4682L33.2858 49.4588L33.8174 49.9508L33.1149 50.1306L32.6165 50.6605L32.4361 49.9556L31.9092 49.4635Z" fill="black"/>
<path d="M7.8418 35.9076L8.54909 35.7326L9.04277 35.2026L9.22316 35.9029L9.75481 36.3997L9.04752 36.5795L8.55384 37.1047L8.37345 36.4044L7.8418 35.9076Z" fill="black"/>
<path d="M8.52979 33.2439L9.23233 33.0641L9.73076 32.5342L9.91114 33.2392L10.4428 33.7312L9.73551 33.911L9.24183 34.441L9.06144 33.736L8.52979 33.2439Z" fill="black"/>
<path d="M5.56299 36.7498L6.26554 36.57L6.76396 36.04L6.94435 36.745L7.47601 37.2418L6.76871 37.4169L6.27503 37.9468L6.09465 37.2466L5.56299 36.7498Z" fill="black"/>
<path d="M6.25146 34.0815L6.95401 33.9064L7.45244 33.3765L7.63282 34.0767L8.15973 34.5735L7.45719 34.7533L6.95876 35.2785L6.78312 34.5783L6.25146 34.0815Z" fill="black"/>
<path d="M3.89209 34.8949L4.59464 34.7199L5.09307 34.1899L5.2687 34.8902L5.80036 35.387L5.09781 35.5668L4.59938 36.092L4.419 35.3917L3.89209 34.8949Z" fill="black"/>
<path d="M4.57568 32.2312L5.28298 32.0514L5.78141 31.5215L5.95704 32.2265L6.4887 32.7185L5.78615 32.8983L5.28772 33.4283L5.10734 32.7233L4.57568 32.2312Z" fill="black"/>
<path d="M1.60889 35.7376L2.31618 35.5578L2.81461 35.0278L2.99025 35.7328L3.5219 36.2296L2.81936 36.4047L2.32093 36.9346L2.14054 36.2344L1.60889 35.7376Z" fill="black"/>
<path d="M2.29736 33.0688L3.00466 32.8937L3.49834 32.3638L3.67872 33.064L4.21038 33.5608L3.50783 33.7406L3.0094 34.2706L2.82902 33.5656L2.29736 33.0688Z" fill="black"/>
<path d="M0.707031 31.2377L1.41433 31.0626L1.90801 30.5327L2.08839 31.233L2.62005 31.7298L1.9175 31.9096L1.41907 32.4348L1.23869 31.7345L0.707031 31.2377Z" fill="black"/>
<path d="M9.28906 30.286L9.99636 30.111L10.4948 29.5811L10.6704 30.2813L11.2021 30.7781L10.4995 30.9532L10.0011 31.4831L9.82072 30.7828L9.28906 30.286Z" fill="black"/>
<path d="M9.96826 27.6601L10.6756 27.485L11.1692 26.9551L11.3496 27.6553L11.8813 28.1521L11.174 28.3319L10.6803 28.8571L10.4999 28.1569L9.96826 27.6601Z" fill="black"/>
<path d="M7.01074 31.1287L7.71804 30.9489L8.21172 30.4189L8.3921 31.1239L8.92376 31.616L8.21646 31.7958L7.72278 32.3257L7.5424 31.6255L7.01074 31.1287Z" fill="black"/>
<path d="M7.68945 28.5027L8.392 28.3229L8.89043 27.793L9.07081 28.498L9.60247 28.99L8.89518 29.1698L8.39675 29.6998L8.22111 28.9995L7.68945 28.5027Z" fill="black"/>
<path d="M5.33984 29.2738L6.04239 29.0988L6.54082 28.5688L6.7212 29.2691L7.25286 29.7659L6.54557 29.9457L6.05188 30.4709L5.8715 29.7706L5.33984 29.2738Z" fill="black"/>
<path d="M6.01855 26.6479L6.7211 26.4728L7.21953 25.9429L7.39517 26.6431L7.92682 27.1399L7.22428 27.3197L6.72585 27.8449L6.54546 27.1447L6.01855 26.6479Z" fill="black"/>
<path d="M3.06152 30.116L3.76407 29.9362L4.2625 29.4062L4.44288 30.1112L4.96979 30.6033L4.26725 30.7831L3.76882 31.313L3.59318 30.6128L3.06152 30.116Z" fill="black"/>
<path d="M3.73535 27.49L4.44265 27.3102L4.93633 26.7803L5.11671 27.4853L5.64837 27.9821L4.94582 28.1571L4.44739 28.6871L4.26701 27.9868L3.73535 27.49Z" fill="black"/>
<path d="M1.47119 28.2849L2.17374 28.1051L2.67217 27.5752L2.85255 28.2802L3.38421 28.7723L2.67691 28.9521L2.18323 29.482L2.00285 28.777L1.47119 28.2849Z" fill="black"/>
<path d="M2.1499 25.6589L2.85245 25.4791L3.35088 24.9492L3.52652 25.6542L4.05817 26.1463L3.35563 26.3261L2.8572 26.856L2.67681 26.1557L2.1499 25.6589Z" fill="black"/>
<path d="M6.79297 39.1951L7.49552 39.0153L7.99395 38.4854L8.17433 39.1903L8.70599 39.6824L7.99869 39.8622L7.50501 40.3921L7.32463 39.6871L6.79297 39.1951Z" fill="black"/>
<path d="M4.51416 40.0331L5.21671 39.858L5.71514 39.3281L5.89552 40.0284L6.42243 40.5252L5.71988 40.705L5.22145 41.2349L5.04582 40.5299L4.51416 40.0331Z" fill="black"/>
<path d="M2.84326 38.1829L3.54581 38.0031L4.04424 37.4731L4.21987 38.1781L4.75153 38.6702L4.04898 38.85L3.55056 39.3799L3.37017 38.6797L2.84326 38.1829Z" fill="black"/>
</g>
<defs>
<clipPath id="clip0">
<rect width="71" height="57" fill="white"/>
</clipPath>
</defs>
</svg>
