<svg width="66" height="59" viewBox="0 0 66 59" fill="none" xmlns="http://www.w3.org/2000/svg">
<path d="M28.6634 5.39782C30.5941 2.04122 35.4208 2.04122 37.3516 5.39782L49.7697 26.9838L62.1879 48.5697C64.1186 51.9263 61.7075 56.1198 57.8461 56.1198H33.0052H8.16427C4.30284 56.1198 1.89172 51.9263 3.82243 48.5697L16.2406 26.9883L28.6634 5.39782Z" fill="#FFDE16" stroke="black" stroke-width="3" stroke-miterlimit="10"/>
<path d="M33.0056 45.2543C34.4123 45.2543 35.5527 44.1099 35.5527 42.6982C35.5527 41.2865 34.4123 40.1421 33.0056 40.1421C31.5989 40.1421 30.4585 41.2865 30.4585 42.6982C30.4585 44.1099 31.5989 45.2543 33.0056 45.2543Z" fill="black" stroke="black" stroke-width="3" stroke-miterlimit="10" stroke-linecap="round" stroke-linejoin="round"/>
<path d="M34.3109 19.2563H31.6958C31.016 19.2563 30.4585 19.8158 30.4585 20.498V33.274C30.4585 33.9562 31.016 34.5157 31.6958 34.5157H34.3109C34.9907 34.5157 35.5481 33.9562 35.5481 33.274V20.498C35.5481 19.8158 34.9952 19.2563 34.3109 19.2563Z" fill="black" stroke="black" stroke-width="3" stroke-miterlimit="10" stroke-linecap="round" stroke-linejoin="round"/>
<path d="M60.5206 49.7241L60.1535 50.3927L59.4873 50.7611L60.1535 51.125L60.5206 51.7936L60.8832 51.125L61.5494 50.7611L60.8832 50.3927L60.5206 49.7241Z" fill="black"/>
<path d="M57.6295 49.7241L57.2624 50.3927L56.5962 50.7611L57.2624 51.125L57.6295 51.7936L57.9966 51.125L58.6629 50.7611L57.9966 50.3927L57.6295 49.7241Z" fill="black"/>
<path d="M61.9674 47.627L61.6048 48.2955L60.9341 48.6594L61.6048 49.0278L61.9674 49.6964L62.3345 49.0278L63.0008 48.6594L62.3345 48.2955L61.9674 47.627Z" fill="black"/>
<path d="M59.0797 47.627L58.7126 48.2955L58.0464 48.6594L58.7126 49.0278L59.0797 49.6964L59.4423 49.0278L60.1085 48.6594L59.4423 48.2955L59.0797 47.627Z" fill="black"/>
<path d="M60.5206 45.5312L60.1535 46.1998L59.4873 46.5683L60.1535 46.9321L60.5206 47.6007L60.8832 46.9321L61.5494 46.5683L60.8832 46.1998L60.5206 45.5312Z" fill="black"/>
<path d="M57.6295 45.5312L57.2624 46.1998L56.5962 46.5683L57.2624 46.9321L57.6295 47.6007L57.9966 46.9321L58.6629 46.5683L57.9966 46.1998L57.6295 45.5312Z" fill="black"/>
<path d="M59.0797 43.4341L58.7126 44.1027L58.0464 44.4665L58.7126 44.8349L59.0797 45.5035L59.4423 44.8349L60.1085 44.4665L59.4423 44.1027L59.0797 43.4341Z" fill="black"/>
<path d="M57.6295 41.2461L57.2624 41.9147L56.5962 42.2831L57.2624 42.647L57.6295 43.3155L57.9966 42.647L58.6629 42.2831L57.9966 41.9147L57.6295 41.2461Z" fill="black"/>
<path d="M60.5211 54.1538L60.154 54.8224L59.4878 55.1863L60.154 55.5547L60.5211 56.2233L60.8837 55.5547L61.5499 55.1863L60.8837 54.8224L60.5211 54.1538Z" fill="black"/>
<path d="M57.6295 54.1538L57.2624 54.8224L56.5962 55.1863L57.2624 55.5547L57.6295 56.2233L57.9966 55.5547L58.6629 55.1863L57.9966 54.8224L57.6295 54.1538Z" fill="black"/>
<path d="M61.9674 52.0527L61.6048 52.7259L60.9341 53.0897L61.6048 53.4581L61.9674 54.1267L62.3345 53.4581L63.0008 53.0897L62.3345 52.7259L61.9674 52.0527Z" fill="black"/>
<path d="M59.0797 52.0527L58.7126 52.7259L58.0464 53.0897L58.7126 53.4581L59.0797 54.1267L59.4423 53.4581L60.1085 53.0897L59.4423 52.7259L59.0797 52.0527Z" fill="black"/>
<path d="M51.5827 32.687L51.2156 33.3602L50.5493 33.724L51.2156 34.0924L51.5827 34.761L51.9452 34.0924L52.6115 33.724L51.9452 33.3602L51.5827 32.687Z" fill="black"/>
<path d="M54.4248 49.7246L54.0622 50.3932L53.396 50.7616L54.0622 51.1255L54.4248 51.7941L54.7919 51.1255L55.4581 50.7616L54.7919 50.3932L54.4248 49.7246Z" fill="black"/>
<path d="M51.5831 49.7246L51.216 50.3932L50.5498 50.7616L51.216 51.1255L51.5831 51.7941L51.9457 51.1255L52.612 50.7616L51.9457 50.3932L51.5831 49.7246Z" fill="black"/>
<path d="M55.8751 47.627L55.508 48.2955L54.8418 48.6594L55.508 49.0278L55.8751 49.6964L56.2422 49.0278L56.9085 48.6594L56.2422 48.2955L55.8751 47.627Z" fill="black"/>
<path d="M53.0289 47.627L52.6664 48.2955L51.9956 48.6594L52.6664 49.0278L53.0289 49.6964L53.396 49.0278L54.0623 48.6594L53.396 48.2955L53.0289 47.627Z" fill="black"/>
<path d="M54.4248 45.5303L54.0622 46.1989L53.396 46.5673L54.0622 46.9311L54.4248 47.5997L54.7919 46.9311L55.4581 46.5673L54.7919 46.1989L54.4248 45.5303Z" fill="black"/>
<path d="M51.5831 45.5303L51.216 46.1989L50.5498 46.5673L51.216 46.9311L51.5831 47.5997L51.9457 46.9311L52.612 46.5673L51.9457 46.1989L51.5831 45.5303Z" fill="black"/>
<path d="M55.8751 43.4341L55.508 44.1027L54.8418 44.4665L55.508 44.8349L55.8751 45.5035L56.2422 44.8349L56.9085 44.4665L56.2422 44.1027L55.8751 43.4341Z" fill="black"/>
<path d="M53.0289 43.4341L52.6664 44.1027L51.9956 44.4665L52.6664 44.8349L53.0289 45.5035L53.396 44.8349L54.0623 44.4665L53.396 44.1027L53.0289 43.4341Z" fill="black"/>
<path d="M54.4248 41.2466L54.0622 41.9152L53.396 42.2836L54.0622 42.6474L54.4248 43.316L54.7919 42.6474L55.4581 42.2836L54.7919 41.9152L54.4248 41.2466Z" fill="black"/>
<path d="M51.5831 41.2466L51.216 41.9152L50.5498 42.2836L51.216 42.6474L51.5831 43.316L51.9457 42.6474L52.612 42.2836L51.9457 41.9152L51.5831 41.2466Z" fill="black"/>
<path d="M55.8751 39.1494L55.508 39.818L54.8418 40.1864L55.508 40.5503L55.8751 41.2189L56.2422 40.5503L56.9085 40.1864L56.2422 39.818L55.8751 39.1494Z" fill="black"/>
<path d="M53.0289 39.1494L52.6664 39.818L51.9956 40.1864L52.6664 40.5503L53.0289 41.2189L53.396 40.5503L54.0623 40.1864L53.396 39.818L53.0289 39.1494Z" fill="black"/>
<path d="M54.4248 37.0532L54.0622 37.7218L53.396 38.0902L54.0622 38.4541L54.4248 39.1227L54.7919 38.4541L55.4581 38.0902L54.7919 37.7218L54.4248 37.0532Z" fill="black"/>
<path d="M51.5831 37.0532L51.216 37.7218L50.5498 38.0902L51.216 38.4541L51.5831 39.1227L51.9457 38.4541L52.612 38.0902L51.9457 37.7218L51.5831 37.0532Z" fill="black"/>
<path d="M53.0289 34.9561L52.6664 35.6246L51.9956 35.9885L52.6664 36.3569L53.0289 37.0255L53.396 36.3569L54.0623 35.9885L53.396 35.6246L53.0289 34.9561Z" fill="black"/>
<path d="M54.4248 54.1538L54.0622 54.8224L53.396 55.1863L54.0622 55.5547L54.4248 56.2233L54.7919 55.5547L55.4581 55.1863L54.7919 54.8224L54.4248 54.1538Z" fill="black"/>
<path d="M51.5831 54.1538L51.216 54.8224L50.5498 55.1863L51.216 55.5547L51.5831 56.2233L51.9457 55.5547L52.612 55.1863L51.9457 54.8224L51.5831 54.1538Z" fill="black"/>
<path d="M55.8751 52.0527L55.508 52.7259L54.8418 53.0897L55.508 53.4581L55.8751 54.1267L56.2422 53.4581L56.9085 53.0897L56.2422 52.7259L55.8751 52.0527Z" fill="black"/>
<path d="M53.0289 52.0527L52.6664 52.7259L51.9956 53.0897L52.6664 53.4581L53.0289 54.1267L53.396 53.4581L54.0623 53.0897L53.396 52.7259L53.0289 52.0527Z" fill="black"/>
</svg>
