<svg width="56" height="56" viewBox="0 0 56 56" fill="none" xmlns="http://www.w3.org/2000/svg">
<g clip-path="url(#clip0)">
<path d="M27.83 54.16C42.3717 54.16 54.16 42.3717 54.16 27.83C54.16 13.2883 42.3717 1.5 27.83 1.5C13.2883 1.5 1.5 13.2883 1.5 27.83C1.5 42.3717 13.2883 54.16 27.83 54.16Z" fill="#00D384" stroke="black" stroke-width="3" stroke-miterlimit="10" stroke-linecap="round" stroke-linejoin="round"/>
<path d="M18.1401 30.3997L23.8401 36.4197L40.4201 21.9097" stroke="black" stroke-width="3" stroke-miterlimit="10" stroke-linecap="round" stroke-linejoin="round"/>
<path d="M48.2997 17.61L47.5597 16.27L46.2197 15.54L47.5597 14.8L48.2997 13.46L49.0297 14.8L50.3797 15.54L49.0297 16.27L48.2997 17.61Z" fill="black"/>
<path d="M51.2197 21.8199L50.4796 20.4799L49.1396 19.7399L50.4796 19.0099L51.2197 17.6699L51.9496 19.0099L53.2896 19.7399L51.9496 20.4799L51.2197 21.8199Z" fill="black"/>
<path d="M48.2997 26.0301L47.5597 24.6901L46.2197 23.9501L47.5597 23.2201L48.2997 21.8701L49.0297 23.2201L50.3797 23.9501L49.0297 24.6901L48.2997 26.0301Z" fill="black"/>
<path d="M51.2197 30.2401L50.4796 28.8901L49.1396 28.1601L50.4796 27.4201L51.2197 26.0801L51.9496 27.4201L53.2896 28.1601L51.9496 28.8901L51.2197 30.2401Z" fill="black"/>
<path d="M44.8798 30.2401L44.1398 28.8901L42.7998 28.1601L44.1398 27.4201L44.8798 26.0801L45.6098 27.4201L46.9498 28.1601L45.6098 28.8901L44.8798 30.2401Z" fill="black"/>
<path d="M48.2997 34.6297L47.5597 33.2797L46.2197 32.5497L47.5597 31.8097L48.2997 30.4697L49.0297 31.8097L50.3797 32.5497L49.0297 33.2797L48.2997 34.6297Z" fill="black"/>
<path d="M51.2197 38.8302L50.4796 37.4902L49.1396 36.7602L50.4796 36.0202L51.2197 34.6802L51.9496 36.0202L53.2896 36.7602L51.9496 37.4902L51.2197 38.8302Z" fill="black"/>
<path d="M41.8495 17.61L41.1195 16.27L39.7695 15.54L41.1195 14.8L41.8495 13.46L42.5895 14.8L43.9295 15.54L42.5895 16.27L41.8495 17.61Z" fill="black"/>
<path d="M44.7695 21.8199L44.0295 20.4799L42.6895 19.7399L44.0295 19.0099L44.7695 17.6699L45.4995 19.0099L46.8495 19.7399L45.4995 20.4799L44.7695 21.8199Z" fill="black"/>
<path d="M44.7695 38.8302L44.0295 37.4902L42.6895 36.7602L44.0295 36.0202L44.7695 34.6802L45.4995 36.0202L46.8495 36.7602L45.4995 37.4902L44.7695 38.8302Z" fill="black"/>
<path d="M48.2997 43.0501L47.5597 41.7101L46.2197 40.9701L47.5597 40.2401L48.2997 38.8901L49.0297 40.2401L50.3797 40.9701L49.0297 41.7101L48.2997 43.0501Z" fill="black"/>
<path d="M41.8495 43.0501L41.1195 41.7101L39.7695 40.9701L41.1195 40.2401L41.8495 38.8901L42.5895 40.2401L43.9295 40.9701L42.5895 41.7101L41.8495 43.0501Z" fill="black"/>
<path d="M41.8495 51.3099L41.1195 49.9599L39.7695 49.2299L41.1195 48.4899L41.8495 47.1499L42.5895 48.4899L43.9295 49.2299L42.5895 49.9599L41.8495 51.3099Z" fill="black"/>
<path d="M36.1195 51.3099L35.3895 49.9599L34.0396 49.2299L35.3895 48.4899L36.1195 47.1499L36.8596 48.4899L38.1996 49.2299L36.8596 49.9599L36.1195 51.3099Z" fill="black"/>
<path d="M44.7695 47.2601L44.0295 45.9201L42.6895 45.1801L44.0295 44.4501L44.7695 43.1001L45.4995 44.4501L46.8495 45.1801L45.4995 45.9201L44.7695 47.2601Z" fill="black"/>
<path d="M39.0395 47.2601L38.2995 45.9201L36.9595 45.1801L38.2995 44.4501L39.0395 43.1001L39.7695 44.4501L41.1195 45.1801L39.7695 45.9201L39.0395 47.2601Z" fill="black"/>
<path d="M33.2197 4.51986L32.4796 3.17986L31.1396 2.43986L32.4796 1.70986L33.2197 1.35986L33.9496 1.70986L35.2996 2.43986L33.9496 3.17986L33.2197 4.51986Z" fill="black"/>
<path d="M27.0898 4.51986L26.3598 3.17986L25.0098 2.43986L26.3598 1.70986L27.0898 0.359863L27.8298 1.70986L29.1698 2.43986L27.8298 3.17986L27.0898 4.51986Z" fill="black"/>
<path d="M41.8495 8.72982L41.1195 7.37982L39.7695 6.64982L41.1195 5.90982L41.8495 4.56982L42.5895 5.90982L43.9295 6.64982L42.5895 7.37982L41.8495 8.72982Z" fill="black"/>
<path d="M36.1195 8.72982L35.3895 7.37982L34.0396 6.64982L35.3895 5.90982L36.1195 4.56982L36.8596 5.90982L38.1996 6.64982L36.8596 7.37982L36.1195 8.72982Z" fill="black"/>
<path d="M30.2997 8.72982L29.5697 7.37982L28.2197 6.64982L29.5697 5.90982L30.2997 4.56982L31.0397 5.90982L32.3797 6.64982L31.0397 7.37982L30.2997 8.72982Z" fill="black"/>
<path d="M44.7699 12.9398L44.0299 11.5898L42.6899 10.8598L44.0299 10.1198L44.7699 8.77979L45.4999 10.1198L46.8499 10.8598L45.4999 11.5898L44.7699 12.9398Z" fill="black"/>
<path d="M39.04 12.9398L38.3 11.5898L36.96 10.8598L38.3 10.1198L39.04 8.77979L39.77 10.1198L41.12 10.8598L39.77 11.5898L39.04 12.9398Z" fill="black"/>
</g>
<defs>
<clipPath id="clip0">
<rect width="55.66" height="55.66" fill="white"/>
</clipPath>
</defs>
</svg>
