<svg width="54" height="54" viewBox="0 0 54 54" fill="none" xmlns="http://www.w3.org/2000/svg">
<g clip-path="url(#clip0)">
<path d="M50.1289 12.9976L28.0047 7.07003L5.87376 1.14246C3.00406 0.37631 0.37631 3.00406 1.14246 5.87376L7.07003 27.998L12.9976 50.1222C13.7705 52.9919 17.3593 53.9596 19.4628 51.8561L28.6633 42.6556L37.7227 51.715C38.9391 52.9314 40.9351 52.9314 42.1516 51.715L51.7217 42.1448C52.9381 40.9284 52.9381 38.9324 51.7217 37.716L42.6623 28.6633L51.8628 19.4628C53.9596 17.3593 52.9986 13.7705 50.1289 12.9976Z" fill="#25AAE1" stroke="black" stroke-width="3" stroke-miterlimit="10"/>
<path d="M49.2622 40.4106L48.8858 41.0894L48.207 41.4591L48.8858 41.8287L49.2622 42.5075L49.6318 41.8287L50.3106 41.4591L49.6318 41.0894L49.2622 40.4106Z" fill="black"/>
<path d="M46.3184 40.4106L45.9488 41.0894L45.27 41.4591L45.9488 41.8287L46.3184 42.5075L46.6948 41.8287L47.3736 41.4591L46.6948 41.0894L46.3184 40.4106Z" fill="black"/>
<path d="M50.7338 38.2803L50.3575 38.9591L49.6787 39.3354L50.3575 39.705L50.7338 40.3838L51.1035 39.705L51.7823 39.3354L51.1035 38.9591L50.7338 38.2803Z" fill="black"/>
<path d="M47.7901 38.2803L47.4205 38.9591L46.7417 39.3354L47.4205 39.705L47.7901 40.3838L48.1665 39.705L48.8452 39.3354L48.1665 38.9591L47.7901 38.2803Z" fill="black"/>
<path d="M49.2622 36.1567L48.8858 36.8355L48.207 37.2119L48.8858 37.5815L49.2622 38.2603L49.6318 37.5815L50.3106 37.2119L49.6318 36.8355L49.2622 36.1567Z" fill="black"/>
<path d="M46.3184 36.1567L45.9488 36.8355L45.27 37.2119L45.9488 37.5815L46.3184 38.2603L46.6948 37.5815L47.3736 37.2119L46.6948 36.8355L46.3184 36.1567Z" fill="black"/>
<path d="M47.7901 34.0327L47.4205 34.7115L46.7417 35.0811L47.4205 35.4575L47.7901 36.1363L48.1665 35.4575L48.8452 35.0811L48.1665 34.7115L47.7901 34.0327Z" fill="black"/>
<path d="M46.3184 31.8218L45.9488 32.5006L45.27 32.8702L45.9488 33.2398L46.3184 33.9186L46.6948 33.2398L47.3736 32.8702L46.6948 32.5006L46.3184 31.8218Z" fill="black"/>
<path d="M46.3184 44.8931L45.9488 45.5718L45.27 45.9482L45.9488 46.3178L46.3184 46.9966L46.6948 46.3178L47.3736 45.9482L46.6948 45.5718L46.3184 44.8931Z" fill="black"/>
<path d="M47.7901 42.7695L47.4205 43.4483L46.7417 43.8179L47.4205 44.1943L47.7901 44.8664L48.1665 44.1943L48.8452 43.8179L48.1665 43.4483L47.7901 42.7695Z" fill="black"/>
<path d="M43.0655 40.4106L42.6959 41.0894L42.0171 41.4591L42.6959 41.8287L43.0655 42.5075L43.4351 41.8287L44.1139 41.4591L43.4351 41.0894L43.0655 40.4106Z" fill="black"/>
<path d="M40.169 40.4106L39.7994 41.0894L39.1206 41.4591L39.7994 41.8287L40.169 42.5075L40.5454 41.8287L41.2242 41.4591L40.5454 41.0894L40.169 40.4106Z" fill="black"/>
<path d="M44.5372 38.2803L44.1676 38.9591L43.4888 39.3354L44.1676 39.705L44.5372 40.3838L44.9068 39.705L45.5856 39.3354L44.9068 38.9591L44.5372 38.2803Z" fill="black"/>
<path d="M41.6474 38.2803L41.2711 38.9591L40.5923 39.3354L41.2711 39.705L41.6474 40.3838L42.0171 39.705L42.6958 39.3354L42.0171 38.9591L41.6474 38.2803Z" fill="black"/>
<path d="M43.0655 36.1567L42.6959 36.8355L42.0171 37.2119L42.6959 37.5815L43.0655 38.2603L43.4351 37.5815L44.1139 37.2119L43.4351 36.8355L43.0655 36.1567Z" fill="black"/>
<path d="M40.169 36.1567L39.7994 36.8355L39.1206 37.2119L39.7994 37.5815L40.169 38.2603L40.5454 37.5815L41.2242 37.2119L40.5454 36.8355L40.169 36.1567Z" fill="black"/>
<path d="M44.5372 34.0327L44.1676 34.7115L43.4888 35.0811L44.1676 35.4575L44.5372 36.1363L44.9068 35.4575L45.5856 35.0811L44.9068 34.7115L44.5372 34.0327Z" fill="black"/>
<path d="M41.6474 34.0327L41.2711 34.7115L40.5923 35.0811L41.2711 35.4575L41.6474 36.1363L42.0171 35.4575L42.6958 35.0811L42.0171 34.7115L41.6474 34.0327Z" fill="black"/>
<path d="M43.0655 31.8218L42.6959 32.5006L42.0171 32.8702L42.6959 33.2398L43.0655 33.9186L43.4351 33.2398L44.1139 32.8702L43.4351 32.5006L43.0655 31.8218Z" fill="black"/>
<path d="M40.169 31.8218L39.7994 32.5006L39.1206 32.8702L39.7994 33.2398L40.169 33.9186L40.5454 33.2398L41.2242 32.8702L40.5454 32.5006L40.169 31.8218Z" fill="black"/>
<path d="M44.5372 29.6914L44.1676 30.3702L43.4888 30.7465L44.1676 31.1162L44.5372 31.795L44.9068 31.1162L45.5856 30.7465L44.9068 30.3702L44.5372 29.6914Z" fill="black"/>
<path d="M41.6474 29.6914L41.2711 30.3702L40.5923 30.7465L41.2711 31.1162L41.6474 31.795L42.0171 31.1162L42.6958 30.7465L42.0171 30.3702L41.6474 29.6914Z" fill="black"/>
<path d="M43.0655 49.1475L42.6959 49.8262L42.0171 50.1959L42.6959 50.5655L43.0655 51.2443L43.4351 50.5655L44.1139 50.1959L43.4351 49.8262L43.0655 49.1475Z" fill="black"/>
<path d="M40.169 49.1475L39.7994 49.8262L39.1206 50.1959L39.7994 50.5655L40.169 51.2443L40.5454 50.5655L41.2242 50.1959L40.5454 49.8262L40.169 49.1475Z" fill="black"/>
<path d="M44.5372 47.0171L44.1676 47.6959L43.4888 48.0722L44.1676 48.4419L44.5372 49.1206L44.9068 48.4419L45.5856 48.0722L44.9068 47.6959L44.5372 47.0171Z" fill="black"/>
<path d="M41.6474 47.0171L41.2711 47.6959L40.5923 48.0722L41.2711 48.4419L41.6474 49.1206L42.0171 48.4419L42.6958 48.0722L42.0171 47.6959L41.6474 47.0171Z" fill="black"/>
<path d="M43.0655 44.8931L42.6959 45.5718L42.0171 45.9482L42.6959 46.3178L43.0655 46.9966L43.4351 46.3178L44.1139 45.9482L43.4351 45.5718L43.0655 44.8931Z" fill="black"/>
<path d="M40.169 44.8931L39.7994 45.5718L39.1206 45.9482L39.7994 46.3178L40.169 46.9966L40.5454 46.3178L41.2242 45.9482L40.5454 45.5718L40.169 44.8931Z" fill="black"/>
<path d="M44.5372 42.7695L44.1676 43.4483L43.4888 43.8179L44.1676 44.1943L44.5372 44.8664L44.9068 44.1943L45.5856 43.8179L44.9068 43.4483L44.5372 42.7695Z" fill="black"/>
<path d="M41.6474 42.7695L41.2711 43.4483L40.5923 43.8179L41.2711 44.1943L41.6474 44.8664L42.0171 44.1943L42.6958 43.8179L42.0171 43.4483L41.6474 42.7695Z" fill="black"/>
<path d="M37.212 40.4106L36.8356 41.0894L36.1636 41.4591L36.8356 41.8287L37.212 42.5075L37.5816 41.8287L38.2604 41.4591L37.5816 41.0894L37.212 40.4106Z" fill="black"/>
<path d="M34.2681 40.4106L33.8985 41.0894L33.2197 41.4591L33.8985 41.8287L34.2681 42.5075L34.6445 41.8287L35.3233 41.4591L34.6445 41.0894L34.2681 40.4106Z" fill="black"/>
<path d="M38.6837 38.2803L38.314 38.9591L37.6353 39.3354L38.314 39.705L38.6837 40.3838L39.0533 39.705L39.7321 39.3354L39.0533 38.9591L38.6837 38.2803Z" fill="black"/>
<path d="M35.7465 38.2803L35.3702 38.9591L34.6914 39.3354L35.3702 39.705L35.7465 40.3838L36.1162 39.705L36.795 39.3354L36.1162 38.9591L35.7465 38.2803Z" fill="black"/>
<path d="M37.212 36.1562L36.8356 36.835L36.1636 37.2114L36.8356 37.581L37.212 38.2598L37.5816 37.581L38.2604 37.2114L37.5816 36.835L37.212 36.1562Z" fill="black"/>
<path d="M38.6837 34.0327L38.314 34.7115L37.6353 35.0811L38.314 35.4575L38.6837 36.1363L39.0533 35.4575L39.7321 35.0811L39.0533 34.7115L38.6837 34.0327Z" fill="black"/>
<path d="M37.212 49.1475L36.8356 49.8262L36.1636 50.1959L36.8356 50.5655L37.212 51.2443L37.5816 50.5655L38.2604 50.1959L37.5816 49.8262L37.212 49.1475Z" fill="black"/>
<path d="M38.6837 47.0171L38.314 47.6959L37.6353 48.0722L38.314 48.4419L38.6837 49.1206L39.0533 48.4419L39.7321 48.0722L39.0533 47.6959L38.6837 47.0171Z" fill="black"/>
<path d="M35.7465 47.0171L35.3702 47.6959L34.6914 48.0722L35.3702 48.4419L35.7465 49.1206L36.1162 48.4419L36.795 48.0722L36.1162 47.6959L35.7465 47.0171Z" fill="black"/>
<path d="M37.212 44.8931L36.8356 45.5718L36.1636 45.9482L36.8356 46.3178L37.212 46.9966L37.5816 46.3178L38.2604 45.9482L37.5816 45.5718L37.212 44.8931Z" fill="black"/>
<path d="M34.2681 44.8931L33.8985 45.5718L33.2197 45.9482L33.8985 46.3178L34.2681 46.9966L34.6445 46.3178L35.3233 45.9482L34.6445 45.5718L34.2681 44.8931Z" fill="black"/>
<path d="M38.6837 42.7695L38.314 43.4483L37.6353 43.8179L38.314 44.1943L38.6837 44.8664L39.0533 44.1943L39.7321 43.8179L39.0533 43.4483L38.6837 42.7695Z" fill="black"/>
<path d="M35.7465 42.7695L35.3702 43.4483L34.6914 43.8179L35.3702 44.1943L35.7465 44.8664L36.1162 44.1943L36.795 43.8179L36.1162 43.4483L35.7465 42.7695Z" fill="black"/>
<path d="M32.4874 42.7695L32.1177 43.4483L31.439 43.8179L32.1177 44.1943L32.4874 44.8664L32.857 44.1943L33.5358 43.8179L32.857 43.4483L32.4874 42.7695Z" fill="black"/>
</g>
<defs>
<clipPath id="clip0">
<rect width="54" height="54" fill="white"/>
</clipPath>
</defs>
</svg>
