<svg width="26" height="26" viewBox="0 0 26 26" fill="none" xmlns="http://www.w3.org/2000/svg">
<path d="M18.4082 13L23.8855 7.52268C25.3715 6.03672 25.3715 3.60043 23.8855 2.11447C22.3996 0.62851 19.9633 0.62851 18.4773 2.11447L13 7.59179L7.52268 2.11447C6.03672 0.62851 3.60043 0.62851 2.11447 2.11447C0.62851 3.60043 0.62851 6.03672 2.11447 7.52268L7.59179 13L2.11447 18.4773C0.62851 19.9633 0.62851 22.3996 2.11447 23.8855C3.60043 25.3715 6.03672 25.3715 7.52268 23.8855L13 18.4082L18.4773 23.8855C19.9633 25.3715 22.3996 25.3715 23.8855 23.8855C25.3715 22.3996 25.3715 19.9633 23.8855 18.4773L18.4082 13Z" fill="white" stroke="black" stroke-width="2" stroke-miterlimit="10"/>
</svg>
