<svg width="9" height="44" viewBox="0 0 9 44" fill="none" xmlns="http://www.w3.org/2000/svg">
<path d="M4.49995 25.1089C6.1406 25.1089 7.47061 23.7682 7.47061 22.1144C7.47061 20.4606 6.1406 19.1199 4.49995 19.1199C2.85931 19.1199 1.5293 20.4606 1.5293 22.1144C1.5293 23.7682 2.85931 25.1089 4.49995 25.1089Z" stroke="black" stroke-width="2" stroke-miterlimit="10"/>
<path d="M4.49995 36.4138C6.1406 36.4138 7.47061 35.0731 7.47061 33.4193C7.47061 31.7655 6.1406 30.4248 4.49995 30.4248C2.85931 30.4248 1.5293 31.7655 1.5293 33.4193C1.5293 35.0731 2.85931 36.4138 4.49995 36.4138Z" stroke="black" stroke-width="2" stroke-miterlimit="10"/>
<path d="M4.49995 13.5751C6.1406 13.5751 7.47061 12.2345 7.47061 10.5807C7.47061 8.92688 6.1406 7.58621 4.49995 7.58621C2.85931 7.58621 1.5293 8.92688 1.5293 10.5807C1.5293 12.2345 2.85931 13.5751 4.49995 13.5751Z" stroke="black" stroke-width="2" stroke-miterlimit="10"/>
</svg>
