<svg width="51" height="41" viewBox="0 0 51 41" fill="none" xmlns="http://www.w3.org/2000/svg">
<path d="M25.0965 13.3832C25.0965 13.3832 11.2711 11.6061 5.13356 3.51742C5.13356 3.51742 1.63566 10.6076 7.77315 16.5436L3.65688 15.2336C3.65688 15.2336 4.43214 22.3238 9.09293 24.1009H5.67809C5.67809 24.1009 8.24384 31.8873 16.7809 31.6583C16.7809 31.6583 9.32367 37.1363 1.47876 35.2859C1.47876 35.2859 21.3587 47.0845 36.4301 31.6583C36.4301 31.6583 45.4379 23.4139 44.6627 10.8458L48.7789 6.68694L44.3489 7.68543L46.6008 3.52658L41.94 4.76324C41.94 4.76324 38.5252 -0.320804 32.2308 1.98763C25.9364 4.29606 24.4782 10.2229 25.0965 13.3832Z" stroke="white" stroke-width="3" stroke-miterlimit="10" stroke-linecap="round" stroke-linejoin="round"/>
</svg>
