<svg xmlns="http://www.w3.org/2000/svg" viewBox="0 0 124 188"><defs><style>.cls-1{fill:#f725a0;}.cls-2{fill:#ffb3cd;}.cls-3{fill:#d27dff;}.cls-4{fill:#0cb2c0;}.cls-5{fill:#fad141;}</style></defs><g id="Layer_2" data-name="Layer 2"><g id="Objects"><rect class="cls-1" x="80" y="128" width="28" height="28"/><rect class="cls-2" x="48" y="128" width="28" height="28"/><rect class="cls-3" x="96" y="160" width="28" height="28"/><rect class="cls-4" x="32" y="160" width="28" height="28"/><rect class="cls-5" x="64" y="160" width="28" height="28"/><rect class="cls-2" y="160" width="28" height="28"/><rect class="cls-5" x="16" y="128" width="28" height="28"/><rect class="cls-1" x="80" y="64" width="28" height="28"/><rect class="cls-2" x="48" y="64" width="28" height="28"/><rect class="cls-3" x="96" y="96" width="28" height="28"/><rect class="cls-4" x="32" y="96" width="28" height="28"/><rect class="cls-5" x="64" y="96" width="28" height="28"/><rect class="cls-2" y="96" width="28" height="28"/><rect class="cls-5" x="16" y="64" width="28" height="28"/><rect class="cls-1" x="80" width="28" height="28"/><rect class="cls-2" x="48" width="28" height="28"/><rect class="cls-3" x="96" y="32" width="28" height="28"/><rect class="cls-4" x="32" y="32" width="28" height="28"/><rect class="cls-5" x="64" y="32" width="28" height="28"/><rect class="cls-2" y="32" width="28" height="28"/><rect class="cls-5" x="16" width="28" height="28"/></g></g></svg>