<svg id="Layer_1" data-name="Layer 1" xmlns="http://www.w3.org/2000/svg" viewBox="0 0 1316.48 74"><defs><style>.cls-1{fill:none;stroke:#000;stroke-miterlimit:10;stroke-width:4px;}</style></defs><circle class="cls-1" cx="346.48" cy="21" r="15"/><circle class="cls-1" cx="398.48" cy="57" r="15"/><path class="cls-1" d="M295.24,66c5.54,6.13,13.12,12.67,20,11,8.09-2,9.64-13.94,16-14,7-.06,8.79,14.24,17,16,4.44,1,11.54-1.59,23-18" transform="translate(-24.76 -13)"/><path class="cls-1" d="M432.88,29.49c5.54,6.12,13.12,12.67,20,11,8.09-2,9.64-14,16-14,7-.07,8.79,14.24,17,16,4.44.94,11.54-1.6,23-18" transform="translate(-24.76 -13)"/><circle class="cls-1" cx="484.48" cy="57" r="15"/><circle class="cls-1" cx="564.48" cy="18" r="15"/><circle class="cls-1" cx="662.48" cy="54" r="15"/><path class="cls-1" d="M559.24,63c5.54,6.13,13.12,12.67,20,11,8.09-2,9.64-13.94,16-14,7-.06,8.79,14.24,17,16,4.44,1,11.54-1.59,23-18" transform="translate(-24.76 -13)"/><path class="cls-1" d="M696.88,26.49c5.54,6.12,13.12,12.67,20,11,8.09-2,9.64-14,16-14,7-.07,8.79,14.24,17,16,4.44.94,11.54-1.6,23-18" transform="translate(-24.76 -13)"/><circle class="cls-1" cx="788.48" cy="18" r="15"/><circle class="cls-1" cx="748.48" cy="54" r="15"/><circle class="cls-1" cx="857.48" cy="20" r="15"/><circle class="cls-1" cx="909.48" cy="56" r="15"/><path class="cls-1" d="M806.24,65c5.54,6.13,13.12,12.67,20,11,8.09-2,9.64-13.94,16-14,7-.06,8.79,14.24,17,16,4.44,1,11.54-1.59,23-18" transform="translate(-24.76 -13)"/><path class="cls-1" d="M943.88,28.49c5.54,6.12,13.12,12.67,20,11,8.09-2,9.64-14,16-14,7-.07,8.79,14.24,17,16,4.44.94,11.54-1.6,23-18" transform="translate(-24.76 -13)"/><circle class="cls-1" cx="995.48" cy="56" r="15"/><circle class="cls-1" cx="1075.48" cy="17" r="15"/><circle class="cls-1" cx="1173.48" cy="53" r="15"/><path class="cls-1" d="M1070.24,62c5.54,6.13,13.12,12.67,20,11,8.09-2,9.64-13.94,16-14,7-.06,8.79,14.24,17,16,4.44,1,11.54-1.59,23-18" transform="translate(-24.76 -13)"/><path class="cls-1" d="M1207.88,25.49c5.54,6.12,13.12,12.67,20,11,8.09-2,9.64-14,16-14,7-.07,8.79,14.24,17,16,4.44.94,11.54-1.6,23-18" transform="translate(-24.76 -13)"/><circle class="cls-1" cx="1299.48" cy="17" r="15"/><circle class="cls-1" cx="1259.48" cy="53" r="15"/><circle class="cls-1" cx="31.48" cy="17" r="15"/><circle class="cls-1" cx="129.48" cy="53" r="15"/><path class="cls-1" d="M26.24,62c5.54,6.13,13.12,12.67,20,11,8.09-2,9.64-13.94,16-14,7-.06,8.79,14.24,17,16,4.44,1,11.54-1.59,23-18" transform="translate(-24.76 -13)"/><path class="cls-1" d="M163.88,25.49c5.54,6.12,13.12,12.67,20,11,8.09-2,9.64-14,16-14,7-.07,8.79,14.24,17,16,4.44.94,11.54-1.6,23-18" transform="translate(-24.76 -13)"/><circle class="cls-1" cx="255.48" cy="17" r="15"/><circle class="cls-1" cx="215.48" cy="53" r="15"/></svg>