<svg xmlns="http://www.w3.org/2000/svg" viewBox="0 0 181.38 212.12"><defs><style>.cls-1,.cls-2{fill:none;stroke:#000;}.cls-1{stroke-linecap:round;stroke-linejoin:round;stroke-width:5px;}.cls-2{stroke-miterlimit:10;}</style></defs><g id="Layer_2" data-name="Layer 2"><g id="Objects"><path class="cls-1" d="M106.38,138.13c6.91,0,5.72,12.25,14.54,12.25"/><path class="cls-1" d="M77.31,138.13c6.91,0,5.72,12.25,14.53,12.25"/><path class="cls-1" d="M106.38,138.13c-6.91,0-5.72,12.25-14.54,12.25"/><path class="cls-1" d="M77.31,138.13c-6.91,0-5.72,12.25-14.54,12.25"/><path class="cls-1" d="M163.38,138.13c6.91,0,5.72,12.25,14.54,12.25"/><path class="cls-1" d="M134.31,138.13c6.91,0,5.72,12.25,14.53,12.25"/><path class="cls-1" d="M163.38,138.13c-6.91,0-5.72,12.25-14.54,12.25"/><path class="cls-1" d="M134.31,138.13c-6.91,0-5.72,12.25-14.54,12.25"/><rect class="cls-2" x="149.22" y="18.5" width="31.65" height="31.65"/><rect class="cls-1" x="141.22" y="2.5" width="31.65" height="31.65"/><polygon class="cls-2" points="44.95 193.62 34.45 175.64 23.98 193.63 13.5 211.62 34.47 211.6 55.45 211.59 44.95 193.62"/><polygon class="cls-1" points="33.95 175.55 23.45 157.39 12.98 175.56 2.5 193.74 23.47 193.72 44.45 193.71 33.95 175.55"/></g></g></svg>