<svg width="193" height="150" viewBox="0 0 193 150" fill="none" xmlns="http://www.w3.org/2000/svg">
<g clip-path="url(#clip0123)">
<path d="M163.06 39.1102V132.49C163.06 137.59 158.93 141.72 153.83 141.72H10.74C5.64 141.72 1.5 137.59 1.5 132.49V39.1102C1.5 33.7602 5.84 29.4102 11.19 29.4102H153.37C158.72 29.4102 163.06 33.7502 163.06 39.1102Z" fill="white" stroke="black" stroke-width="3" stroke-miterlimit="10" stroke-linecap="round" stroke-linejoin="round"/>
<path d="M163.06 39.1102V44.8602H1.5V39.1102C1.5 33.7602 5.84 29.4102 11.19 29.4102H153.37C158.72 29.4102 163.06 33.7502 163.06 39.1102Z" fill="#E399C3" stroke="black" stroke-width="3" stroke-miterlimit="10" stroke-linecap="round" stroke-linejoin="round"/>
<path d="M169.36 45.3601V138.74C169.36 143.84 165.23 147.97 160.13 147.97H17.0299C12.8399 147.97 9.29992 145.18 8.16992 141.35C8.97992 141.58 9.83992 141.71 10.7199 141.71H153.82C158.92 141.71 163.05 137.58 163.05 132.48V39.1001C163.05 38.0601 162.89 37.0601 162.58 36.1201C166.52 37.3601 169.36 41.0301 169.36 45.3601Z" fill="black" stroke="black" stroke-width="3" stroke-miterlimit="10"/>
<path d="M26.8098 39.6704C28.196 39.6704 29.3198 38.5466 29.3198 37.1604C29.3198 35.7742 28.196 34.6504 26.8098 34.6504C25.4236 34.6504 24.2998 35.7742 24.2998 37.1604C24.2998 38.5466 25.4236 39.6704 26.8098 39.6704Z" fill="black"/>
<path d="M36.3 39.6704C37.6863 39.6704 38.81 38.5466 38.81 37.1604C38.81 35.7742 37.6863 34.6504 36.3 34.6504C34.9138 34.6504 33.79 35.7742 33.79 37.1604C33.79 38.5466 34.9138 39.6704 36.3 39.6704Z" fill="black"/>
<path d="M17.1301 39.6704C18.5164 39.6704 19.6401 38.5466 19.6401 37.1604C19.6401 35.7742 18.5164 34.6504 17.1301 34.6504C15.7439 34.6504 14.6201 35.7742 14.6201 37.1604C14.6201 38.5466 15.7439 39.6704 17.1301 39.6704Z" fill="black"/>
<path d="M164.18 44.8501H1.5" stroke="black" stroke-width="3" stroke-miterlimit="10"/>
<path d="M161.82 137.05L162.07 137.51L162.52 137.76L162.07 138.01L161.82 138.46L161.57 138.01L161.11 137.76L161.57 137.51L161.82 137.05Z" fill="black"/>
<path d="M151.98 62.2603L152.54 61.2403L153.57 60.6703L152.54 60.1103L151.98 59.0903L151.42 60.1103L150.39 60.6703L151.42 61.2403L151.98 62.2603Z" fill="black"/>
<path d="M156.36 62.2603L156.92 61.2403L157.95 60.6703L156.92 60.1103L156.36 59.0903L155.8 60.1103L154.77 60.6703L155.8 61.2403L156.36 62.2603Z" fill="black"/>
<path d="M160.8 62.2603L161.36 61.2403L162.39 60.6703L161.36 60.1103L160.8 59.0903L160.24 60.1103L159.21 60.6703L160.24 61.2403L160.8 62.2603Z" fill="black"/>
<path d="M149.76 65.4803L150.32 64.4503L151.34 63.8903L150.32 63.3303L149.76 62.3003L149.19 63.3303L148.17 63.8903L149.19 64.4503L149.76 65.4803Z" fill="black"/>
<path d="M154.13 65.4803L154.69 64.4503L155.72 63.8903L154.69 63.3303L154.13 62.3003L153.57 63.3303L152.54 63.8903L153.57 64.4503L154.13 65.4803Z" fill="black"/>
<path d="M158.57 65.4803L159.14 64.4503L160.16 63.8903L159.14 63.3303L158.57 62.3003L158.01 63.3303L156.99 63.8903L158.01 64.4503L158.57 65.4803Z" fill="black"/>
<path d="M151.98 68.6903L152.54 67.6603L153.57 67.1003L152.54 66.5403L151.98 65.5103L151.42 66.5403L150.39 67.1003L151.42 67.6603L151.98 68.6903Z" fill="black"/>
<path d="M156.36 68.6903L156.92 67.6603L157.95 67.1003L156.92 66.5403L156.36 65.5103L155.8 66.5403L154.77 67.1003L155.8 67.6603L156.36 68.6903Z" fill="black"/>
<path d="M160.8 68.6903L161.36 67.6603L162.39 67.1003L161.36 66.5403L160.8 65.5103L160.24 66.5403L159.21 67.1003L160.24 67.6603L160.8 68.6903Z" fill="black"/>
<path d="M149.76 71.9005L150.32 70.8805L151.34 70.3205L150.32 69.7505L149.76 68.7305L149.19 69.7505L148.17 70.3205L149.19 70.8805L149.76 71.9005Z" fill="black"/>
<path d="M154.13 71.9005L154.69 70.8805L155.72 70.3205L154.69 69.7505L154.13 68.7305L153.57 69.7505L152.54 70.3205L153.57 70.8805L154.13 71.9005Z" fill="black"/>
<path d="M158.57 71.9005L159.14 70.8805L160.16 70.3205L159.14 69.7505L158.57 68.7305L158.01 69.7505L156.99 70.3205L158.01 70.8805L158.57 71.9005Z" fill="black"/>
<path d="M151.98 75.2506L152.54 74.2306L153.57 73.6706L152.54 73.1006L151.98 72.0806L151.42 73.1006L150.39 73.6706L151.42 74.2306L151.98 75.2506Z" fill="black"/>
<path d="M156.36 75.2506L156.92 74.2306L157.95 73.6706L156.92 73.1006L156.36 72.0806L155.8 73.1006L154.77 73.6706L155.8 74.2306L156.36 75.2506Z" fill="black"/>
<path d="M160.8 75.2506L161.36 74.2306L162.39 73.6706L161.36 73.1006L160.8 72.0806L160.24 73.1006L159.21 73.6706L160.24 74.2306L160.8 75.2506Z" fill="black"/>
<path d="M149.76 78.4705L150.32 77.4405L151.34 76.8805L150.32 76.3205L149.76 75.2905L149.19 76.3205L148.17 76.8805L149.19 77.4405L149.76 78.4705Z" fill="black"/>
<path d="M154.13 78.4705L154.69 77.4405L155.72 76.8805L154.69 76.3205L154.13 75.2905L153.57 76.3205L152.54 76.8805L153.57 77.4405L154.13 78.4705Z" fill="black"/>
<path d="M158.57 78.4705L159.14 77.4405L160.16 76.8805L159.14 76.3205L158.57 75.2905L158.01 76.3205L156.99 76.8805L158.01 77.4405L158.57 78.4705Z" fill="black"/>
<path d="M151.98 36.16L152.54 35.13L153.57 34.57L152.54 34.01L151.98 32.98L151.42 34.01L150.39 34.57L151.42 35.13L151.98 36.16Z" fill="black"/>
<path d="M156.36 36.16L156.92 35.13L157.95 34.57L156.92 34.01L156.36 32.98L155.8 34.01L154.77 34.57L155.8 35.13L156.36 36.16Z" fill="black"/>
<path d="M160.8 36.16L161.36 35.13L162.39 34.57L161.36 34.01L160.8 32.98L160.24 34.01L159.21 34.57L160.24 35.13L160.8 36.16Z" fill="black"/>
<path d="M149.76 39.3702L150.32 38.3502L151.34 37.7802L150.32 37.2202L149.76 36.2002L149.19 37.2202L148.17 37.7802L149.19 38.3502L149.76 39.3702Z" fill="black"/>
<path d="M154.13 39.3702L154.69 38.3502L155.72 37.7802L154.69 37.2202L154.13 36.2002L153.57 37.2202L152.54 37.7802L153.57 38.3502L154.13 39.3702Z" fill="black"/>
<path d="M158.57 39.3702L159.14 38.3502L160.16 37.7802L159.14 37.2202L158.57 36.2002L158.01 37.2202L156.99 37.7802L158.01 38.3502L158.57 39.3702Z" fill="black"/>
<path d="M151.98 42.5802L152.54 41.5602L153.57 41.0002L152.54 40.4402L151.98 39.4102L151.42 40.4402L150.39 41.0002L151.42 41.5602L151.98 42.5802Z" fill="black"/>
<path d="M156.36 42.5802L156.92 41.5602L157.95 41.0002L156.92 40.4402L156.36 39.4102L155.8 40.4402L154.77 41.0002L155.8 41.5602L156.36 42.5802Z" fill="black"/>
<path d="M160.8 42.5802L161.36 41.5602L162.39 41.0002L161.36 40.4402L160.8 39.4102L160.24 40.4402L159.21 41.0002L160.24 41.5602L160.8 42.5802Z" fill="black"/>
<path d="M149.76 45.8001L150.32 44.7701L151.34 44.2101L150.32 43.6501L149.76 42.6201L149.19 43.6501L148.17 44.2101L149.19 44.7701L149.76 45.8001Z" fill="black"/>
<path d="M154.13 45.8001L154.69 44.7701L155.72 44.2101L154.69 43.6501L154.13 42.6201L153.57 43.6501L152.54 44.2101L153.57 44.7701L154.13 45.8001Z" fill="black"/>
<path d="M158.57 45.8001L159.14 44.7701L160.16 44.2101L159.14 43.6501L158.57 42.6201L158.01 43.6501L156.99 44.2101L158.01 44.7701L158.57 45.8001Z" fill="black"/>
<path d="M151.98 49.1502L152.54 48.1202L153.57 47.5602L152.54 47.0002L151.98 45.9702L151.42 47.0002L150.39 47.5602L151.42 48.1202L151.98 49.1502Z" fill="black"/>
<path d="M156.36 49.1502L156.92 48.1202L157.95 47.5602L156.92 47.0002L156.36 45.9702L155.8 47.0002L154.77 47.5602L155.8 48.1202L156.36 49.1502Z" fill="black"/>
<path d="M160.8 49.1502L161.36 48.1202L162.39 47.5602L161.36 47.0002L160.8 45.9702L160.24 47.0002L159.21 47.5602L160.24 48.1202L160.8 49.1502Z" fill="black"/>
<path d="M149.76 52.3599L150.32 51.3399L151.34 50.7799L150.32 50.2099L149.76 49.1899L149.19 50.2099L148.17 50.7799L149.19 51.3399L149.76 52.3599Z" fill="black"/>
<path d="M154.13 52.3599L154.69 51.3399L155.72 50.7799L154.69 50.2099L154.13 49.1899L153.57 50.2099L152.54 50.7799L153.57 51.3399L154.13 52.3599Z" fill="black"/>
<path d="M158.57 52.3599L159.14 51.3399L160.16 50.7799L159.14 50.2099L158.57 49.1899L158.01 50.2099L156.99 50.7799L158.01 51.3399L158.57 52.3599Z" fill="black"/>
<path d="M151.98 55.5799L152.54 54.5499L153.57 53.9899L152.54 53.4299L151.98 52.3999L151.42 53.4299L150.39 53.9899L151.42 54.5499L151.98 55.5799Z" fill="black"/>
<path d="M156.36 55.5799L156.92 54.5499L157.95 53.9899L156.92 53.4299L156.36 52.3999L155.8 53.4299L154.77 53.9899L155.8 54.5499L156.36 55.5799Z" fill="black"/>
<path d="M160.8 55.5799L161.36 54.5499L162.39 53.9899L161.36 53.4299L160.8 52.3999L160.24 53.4299L159.21 53.9899L160.24 54.5499L160.8 55.5799Z" fill="black"/>
<path d="M149.76 58.7899L150.32 57.7599L151.34 57.1999L150.32 56.6399L149.76 55.6099L149.19 56.6399L148.17 57.1999L149.19 57.7599L149.76 58.7899Z" fill="black"/>
<path d="M154.13 58.7899L154.69 57.7599L155.72 57.1999L154.69 56.6399L154.13 55.6099L153.57 56.6399L152.54 57.1999L153.57 57.7599L154.13 58.7899Z" fill="black"/>
<path d="M158.57 58.7899L159.14 57.7599L160.16 57.1999L159.14 56.6399L158.57 55.6099L158.01 56.6399L156.99 57.1999L158.01 57.7599L158.57 58.7899Z" fill="black"/>
<path d="M149.76 32.5902L150.32 31.5602L151.34 31.0002L150.32 30.4402L149.76 29.4102L149.19 30.4402L148.17 31.0002L149.19 31.5602L149.76 32.5902Z" fill="black"/>
<path d="M154.13 32.5902L154.69 31.5602L155.72 31.0002L154.69 30.4402L154.13 29.4102L153.57 30.4402L152.54 31.0002L153.57 31.5602L154.13 32.5902Z" fill="black"/>
<path d="M158.57 32.5902L159.14 31.5602L160.16 31.0002L159.14 30.4402L158.57 29.4102L158.01 30.4402L156.99 31.0002L158.01 31.5602L158.57 32.5902Z" fill="black"/>
<path d="M165.88 62.2603L166.44 61.2403L167.47 60.6703L166.44 60.1103L165.88 59.0903L165.32 60.1103L164.29 60.6703L165.32 61.2403L165.88 62.2603Z" fill="black"/>
<path d="M163.65 65.4803L164.21 64.4503L165.24 63.8903L164.21 63.3303L163.65 62.3003L163.09 63.3303L162.06 63.8903L163.09 64.4503L163.65 65.4803Z" fill="black"/>
<path d="M168.029 65.4803L168.589 64.4503L169.619 63.8903L168.589 63.3303L168.029 62.3003L167.469 63.3303L166.439 63.8903L167.469 64.4503L168.029 65.4803Z" fill="black"/>
<path d="M165.88 68.6903L166.44 67.6603L167.47 67.1003L166.44 66.5403L165.88 65.5103L165.32 66.5403L164.29 67.1003L165.32 67.6603L165.88 68.6903Z" fill="black"/>
<path d="M163.65 71.9005L164.21 70.8805L165.24 70.3205L164.21 69.7505L163.65 68.7305L163.09 69.7505L162.06 70.3205L163.09 70.8805L163.65 71.9005Z" fill="black"/>
<path d="M168.029 71.9005L168.589 70.8805L169.619 70.3205L168.589 69.7505L168.029 68.7305L167.469 69.7505L166.439 70.3205L167.469 70.8805L168.029 71.9005Z" fill="black"/>
<path d="M165.88 75.2506L166.44 74.2306L167.47 73.6706L166.44 73.1006L165.88 72.0806L165.32 73.1006L164.29 73.6706L165.32 74.2306L165.88 75.2506Z" fill="black"/>
<path d="M163.65 78.4705L164.21 77.4405L165.24 76.8805L164.21 76.3205L163.65 75.2905L163.09 76.3205L162.06 76.8805L163.09 77.4405L163.65 78.4705Z" fill="black"/>
<path d="M168.029 78.4705L168.589 77.4405L169.619 76.8805L168.589 76.3205L168.029 75.2905L167.469 76.3205L166.439 76.8805L167.469 77.4405L168.029 78.4705Z" fill="black"/>
<path d="M163.65 39.3702L164.21 38.3502L165.24 37.7802L164.21 37.2202L163.65 36.2002L163.09 37.2202L162.06 37.7802L163.09 38.3502L163.65 39.3702Z" fill="black"/>
<path d="M165.88 42.5802L166.44 41.5602L167.47 41.0002L166.44 40.4402L165.88 39.4102L165.32 40.4402L164.29 41.0002L165.32 41.5602L165.88 42.5802Z" fill="black"/>
<path d="M163.65 45.8001L164.21 44.7701L165.24 44.2101L164.21 43.6501L163.65 42.6201L163.09 43.6501L162.06 44.2101L163.09 44.7701L163.65 45.8001Z" fill="black"/>
<path d="M168.029 45.8001L168.589 44.7701L169.619 44.2101L168.589 43.6501L168.029 42.6201L167.469 43.6501L166.439 44.2101L167.469 44.7701L168.029 45.8001Z" fill="black"/>
<path d="M165.88 49.1502L166.44 48.1202L167.47 47.5602L166.44 47.0002L165.88 45.9702L165.32 47.0002L164.29 47.5602L165.32 48.1202L165.88 49.1502Z" fill="black"/>
<path d="M163.65 52.3604L164.21 51.3404L165.24 50.7804L164.21 50.2104L163.65 49.1904L163.09 50.2104L162.06 50.7804L163.09 51.3404L163.65 52.3604Z" fill="black"/>
<path d="M168.029 52.3604L168.589 51.3404L169.619 50.7804L168.589 50.2104L168.029 49.1904L167.469 50.2104L166.439 50.7804L167.469 51.3404L168.029 52.3604Z" fill="black"/>
<path d="M165.88 55.5804L166.44 54.5504L167.47 53.9904L166.44 53.4304L165.88 52.4004L165.32 53.4304L164.29 53.9904L165.32 54.5504L165.88 55.5804Z" fill="black"/>
<path d="M163.65 58.7904L164.21 57.7603L165.24 57.2004L164.21 56.6404L163.65 55.6104L163.09 56.6404L162.06 57.2004L163.09 57.7603L163.65 58.7904Z" fill="black"/>
<path d="M168.029 58.7904L168.589 57.7603L169.619 57.2004L168.589 56.6404L168.029 55.6104L167.469 56.6404L166.439 57.2004L167.469 57.7603L168.029 58.7904Z" fill="black"/>
<path d="M165.87 91.7905L165.31 92.8205L164.28 93.3805L165.31 93.9405L165.87 94.9705L166.43 93.9405L167.46 93.3805L166.43 92.8205L165.87 91.7905Z" fill="black"/>
<path d="M161.42 91.7905L160.86 92.8205L159.84 93.3805L160.86 93.9405L161.42 94.9705L161.99 93.9405L163.01 93.3805L161.99 92.8205L161.42 91.7905Z" fill="black"/>
<path d="M168.1 88.5801L167.53 89.6101L166.51 90.1701L167.53 90.7301L168.1 91.7601L168.66 90.7301L169.68 90.1701L168.66 89.6101L168.1 88.5801Z" fill="black"/>
<path d="M163.65 88.5801L163.09 89.6101L162.06 90.1701L163.09 90.7301L163.65 91.7601L164.21 90.7301L165.24 90.1701L164.21 89.6101L163.65 88.5801Z" fill="black"/>
<path d="M165.87 85.3701L165.31 86.3901L164.28 86.9501L165.31 87.5201L165.87 88.5401L166.43 87.5201L167.46 86.9501L166.43 86.3901L165.87 85.3701Z" fill="black"/>
<path d="M161.42 85.3701L160.86 86.3901L159.84 86.9501L160.86 87.5201L161.42 88.5401L161.99 87.5201L163.01 86.9501L161.99 86.3901L161.42 85.3701Z" fill="black"/>
<path d="M168.1 82.1504L167.53 83.1804L166.51 83.7404L167.53 84.3004L168.1 85.3304L168.66 84.3004L169.68 83.7404L168.66 83.1804L168.1 82.1504Z" fill="black"/>
<path d="M163.65 82.1504L163.09 83.1804L162.06 83.7404L163.09 84.3004L163.65 85.3304L164.21 84.3004L165.24 83.7404L164.21 83.1804L163.65 82.1504Z" fill="black"/>
<path d="M165.87 78.8003L165.31 79.8303L164.28 80.3903L165.31 80.9503L165.87 81.9803L166.43 80.9503L167.46 80.3903L166.43 79.8303L165.87 78.8003Z" fill="black"/>
<path d="M161.42 78.8003L160.86 79.8303L159.84 80.3903L160.86 80.9503L161.42 81.9803L161.99 80.9503L163.01 80.3903L161.99 79.8303L161.42 78.8003Z" fill="black"/>
<path d="M165.87 117.9L165.31 118.92L164.28 119.49L165.31 120.05L165.87 121.07L166.43 120.05L167.46 119.49L166.43 118.92L165.87 117.9Z" fill="black"/>
<path d="M161.43 117.9L160.86 118.92L159.84 119.49L160.86 120.05L161.43 121.07L161.99 120.05L163.01 119.49L161.99 118.92L161.43 117.9Z" fill="black"/>
<path d="M168.1 114.681L167.53 115.711L166.51 116.271L167.53 116.831L168.1 117.861L168.66 116.831L169.68 116.271L168.66 115.711L168.1 114.681Z" fill="black"/>
<path d="M163.65 114.681L163.09 115.711L162.06 116.271L163.09 116.831L163.65 117.861L164.21 116.831L165.24 116.271L164.21 115.711L163.65 114.681Z" fill="black"/>
<path d="M165.87 111.471L165.31 112.501L164.28 113.061L165.31 113.621L165.87 114.651L166.43 113.621L167.46 113.061L166.43 112.501L165.87 111.471Z" fill="black"/>
<path d="M161.43 111.471L160.86 112.501L159.84 113.061L160.86 113.621L161.43 114.651L161.99 113.621L163.01 113.061L161.99 112.501L161.43 111.471Z" fill="black"/>
<path d="M168.1 108.261L167.53 109.281L166.51 109.851L167.53 110.411L168.1 111.431L168.66 110.411L169.68 109.851L168.66 109.281L168.1 108.261Z" fill="black"/>
<path d="M163.65 108.261L163.09 109.281L162.06 109.851L163.09 110.411L163.65 111.431L164.21 110.411L165.24 109.851L164.21 109.281L163.65 108.261Z" fill="black"/>
<path d="M165.87 104.911L165.31 105.931L164.28 106.491L165.31 107.061L165.87 108.081L166.43 107.061L167.46 106.491L166.43 105.931L165.87 104.911Z" fill="black"/>
<path d="M161.43 104.911L160.86 105.931L159.84 106.491L160.86 107.061L161.43 108.081L161.99 107.061L163.01 106.491L161.99 105.931L161.43 104.911Z" fill="black"/>
<path d="M168.1 101.69L167.53 102.72L166.51 103.28L167.53 103.84L168.1 104.87L168.66 103.84L169.68 103.28L168.66 102.72L168.1 101.69Z" fill="black"/>
<path d="M163.65 101.69L163.09 102.72L162.06 103.28L163.09 103.84L163.65 104.87L164.21 103.84L165.24 103.28L164.21 102.72L163.65 101.69Z" fill="black"/>
<path d="M165.87 98.4805L165.31 99.5105L164.28 100.07L165.31 100.63L165.87 101.66L166.43 100.63L167.46 100.07L166.43 99.5105L165.87 98.4805Z" fill="black"/>
<path d="M161.42 98.4805L160.86 99.5105L159.84 100.07L160.86 100.63L161.42 101.66L161.99 100.63L163.01 100.07L161.99 99.5105L161.42 98.4805Z" fill="black"/>
<path d="M168.1 95.2705L167.53 96.2905L166.51 96.8505L167.53 97.4205L168.1 98.4405L168.66 97.4205L169.68 96.8505L168.66 96.2905L168.1 95.2705Z" fill="black"/>
<path d="M163.65 95.2705L163.09 96.2905L162.06 96.8505L163.09 97.4205L163.65 98.4405L164.21 97.4205L165.24 96.8505L164.21 96.2905L163.65 95.2705Z" fill="black"/>
<path d="M168.1 121.471L167.53 122.501L166.51 123.061L167.53 123.621L168.1 124.651L168.66 123.621L169.68 123.061L168.66 122.501L168.1 121.471Z" fill="black"/>
<path d="M163.65 121.471L163.09 122.501L162.06 123.061L163.09 123.621L163.65 124.651L164.21 123.621L165.24 123.061L164.21 122.501L163.65 121.471Z" fill="black"/>
<path d="M156.35 91.7905L155.79 92.8205L154.76 93.3805L155.79 93.9405L156.35 94.9705L156.91 93.9405L157.94 93.3805L156.91 92.8205L156.35 91.7905Z" fill="black"/>
<path d="M151.97 91.7905L151.41 92.8205L150.38 93.3805L151.41 93.9405L151.97 94.9705L152.53 93.9405L153.56 93.3805L152.53 92.8205L151.97 91.7905Z" fill="black"/>
<path d="M158.57 88.5801L158.01 89.6101L156.99 90.1701L158.01 90.7301L158.57 91.7601L159.14 90.7301L160.16 90.1701L159.14 89.6101L158.57 88.5801Z" fill="black"/>
<path d="M154.2 88.5801L153.64 89.6101L152.61 90.1701L153.64 90.7301L154.2 91.7601L154.76 90.7301L155.79 90.1701L154.76 89.6101L154.2 88.5801Z" fill="black"/>
<path d="M149.76 88.5801L149.19 89.6101L148.17 90.1701L149.19 90.7301L149.76 91.7601L150.32 90.7301L151.34 90.1701L150.32 89.6101L149.76 88.5801Z" fill="black"/>
<path d="M156.35 85.3701L155.79 86.3901L154.76 86.9501L155.79 87.5201L156.35 88.5401L156.91 87.5201L157.94 86.9501L156.91 86.3901L156.35 85.3701Z" fill="black"/>
<path d="M151.97 85.3701L151.41 86.3901L150.38 86.9501L151.41 87.5201L151.97 88.5401L152.53 87.5201L153.56 86.9501L152.53 86.3901L151.97 85.3701Z" fill="black"/>
<path d="M158.57 82.1504L158.01 83.1804L156.99 83.7404L158.01 84.3004L158.57 85.3304L159.14 84.3004L160.16 83.7404L159.14 83.1804L158.57 82.1504Z" fill="black"/>
<path d="M154.2 82.1504L153.64 83.1804L152.61 83.7404L153.64 84.3004L154.2 85.3304L154.76 84.3004L155.79 83.7404L154.76 83.1804L154.2 82.1504Z" fill="black"/>
<path d="M149.76 82.1504L149.19 83.1804L148.17 83.7404L149.19 84.3004L149.76 85.3304L150.32 84.3004L151.34 83.7404L150.32 83.1804L149.76 82.1504Z" fill="black"/>
<path d="M156.35 78.8003L155.79 79.8303L154.76 80.3903L155.79 80.9503L156.35 81.9803L156.91 80.9503L157.94 80.3903L156.91 79.8303L156.35 78.8003Z" fill="black"/>
<path d="M151.97 78.8003L151.41 79.8303L150.38 80.3903L151.41 80.9503L151.97 81.9803L152.53 80.9503L153.56 80.3903L152.53 79.8303L151.97 78.8003Z" fill="black"/>
<path d="M156.35 117.9L155.79 118.92L154.76 119.49L155.79 120.05L156.35 121.07L156.91 120.05L157.94 119.49L156.91 118.92L156.35 117.9Z" fill="black"/>
<path d="M151.97 117.9L151.41 118.92L150.38 119.49L151.41 120.05L151.97 121.07L152.53 120.05L153.56 119.49L152.53 118.92L151.97 117.9Z" fill="black"/>
<path d="M158.57 114.681L158.01 115.711L156.99 116.271L158.01 116.831L158.57 117.861L159.14 116.831L160.16 116.271L159.14 115.711L158.57 114.681Z" fill="black"/>
<path d="M154.2 114.681L153.64 115.711L152.61 116.271L153.64 116.831L154.2 117.861L154.76 116.831L155.79 116.271L154.76 115.711L154.2 114.681Z" fill="black"/>
<path d="M149.76 114.681L149.19 115.711L148.17 116.271L149.19 116.831L149.76 117.861L150.32 116.831L151.34 116.271L150.32 115.711L149.76 114.681Z" fill="black"/>
<path d="M156.35 111.471L155.79 112.501L154.76 113.061L155.79 113.621L156.35 114.651L156.91 113.621L157.94 113.061L156.91 112.501L156.35 111.471Z" fill="black"/>
<path d="M151.97 111.471L151.41 112.501L150.38 113.061L151.41 113.621L151.97 114.651L152.53 113.621L153.56 113.061L152.53 112.501L151.97 111.471Z" fill="black"/>
<path d="M158.57 108.261L158.01 109.281L156.99 109.851L158.01 110.411L158.57 111.431L159.14 110.411L160.16 109.851L159.14 109.281L158.57 108.261Z" fill="black"/>
<path d="M154.2 108.261L153.64 109.281L152.61 109.851L153.64 110.411L154.2 111.431L154.76 110.411L155.79 109.851L154.76 109.281L154.2 108.261Z" fill="black"/>
<path d="M149.76 108.261L149.19 109.281L148.17 109.851L149.19 110.411L149.76 111.431L150.32 110.411L151.34 109.851L150.32 109.281L149.76 108.261Z" fill="black"/>
<path d="M156.35 104.911L155.79 105.931L154.76 106.491L155.79 107.061L156.35 108.081L156.91 107.061L157.94 106.491L156.91 105.931L156.35 104.911Z" fill="black"/>
<path d="M151.97 104.911L151.41 105.931L150.38 106.491L151.41 107.061L151.97 108.081L152.53 107.061L153.56 106.491L152.53 105.931L151.97 104.911Z" fill="black"/>
<path d="M158.57 101.69L158.01 102.72L156.99 103.28L158.01 103.84L158.57 104.87L159.14 103.84L160.16 103.28L159.14 102.72L158.57 101.69Z" fill="black"/>
<path d="M154.2 101.69L153.64 102.72L152.61 103.28L153.64 103.84L154.2 104.87L154.76 103.84L155.79 103.28L154.76 102.72L154.2 101.69Z" fill="black"/>
<path d="M149.76 101.69L149.19 102.72L148.17 103.28L149.19 103.84L149.76 104.87L150.32 103.84L151.34 103.28L150.32 102.72L149.76 101.69Z" fill="black"/>
<path d="M156.35 98.4805L155.79 99.5105L154.76 100.07L155.79 100.63L156.35 101.66L156.91 100.63L157.94 100.07L156.91 99.5105L156.35 98.4805Z" fill="black"/>
<path d="M151.97 98.4805L151.41 99.5105L150.38 100.07L151.41 100.63L151.97 101.66L152.53 100.63L153.56 100.07L152.53 99.5105L151.97 98.4805Z" fill="black"/>
<path d="M158.57 95.2705L158.01 96.2905L156.99 96.8505L158.01 97.4205L158.57 98.4405L159.14 97.4205L160.16 96.8505L159.14 96.2905L158.57 95.2705Z" fill="black"/>
<path d="M154.2 95.2705L153.64 96.2905L152.61 96.8505L153.64 97.4205L154.2 98.4405L154.76 97.4205L155.79 96.8505L154.76 96.2905L154.2 95.2705Z" fill="black"/>
<path d="M149.76 95.2705L149.19 96.2905L148.17 96.8505L149.19 97.4205L149.76 98.4405L150.32 97.4205L151.34 96.8505L150.32 96.2905L149.76 95.2705Z" fill="black"/>
<path d="M158.57 121.471L158.01 122.501L156.99 123.061L158.01 123.621L158.57 124.651L159.14 123.621L160.16 123.061L159.14 122.501L158.57 121.471Z" fill="black"/>
<path d="M154.2 121.471L153.64 122.501L152.61 123.061L153.64 123.621L154.2 124.651L154.76 123.621L155.79 123.061L154.76 122.501L154.2 121.471Z" fill="black"/>
<path d="M149.76 121.471L149.19 122.501L148.17 123.061L149.19 123.621L149.76 124.651L150.32 123.621L151.34 123.061L150.32 122.501L149.76 121.471Z" fill="black"/>
<path d="M149.761 131.89L150.321 130.86L151.341 130.3L150.321 129.74L149.761 128.71L149.191 129.74L148.171 130.3L149.191 130.86L149.761 131.89Z" fill="black"/>
<path d="M154.13 131.89L154.69 130.86L155.72 130.3L154.69 129.74L154.13 128.71L153.57 129.74L152.54 130.3L153.57 130.86L154.13 131.89Z" fill="black"/>
<path d="M158.57 131.89L159.14 130.86L160.16 130.3L159.14 129.74L158.57 128.71L158.01 129.74L156.99 130.3L158.01 130.86L158.57 131.89Z" fill="black"/>
<path d="M147.53 135.1L148.09 134.08L149.12 133.52L148.09 132.95L147.53 131.93L146.97 132.95L145.94 133.52L146.97 134.08L147.53 135.1Z" fill="black"/>
<path d="M151.9 135.1L152.47 134.08L153.49 133.52L152.47 132.95L151.9 131.93L151.34 132.95L150.32 133.52L151.34 134.08L151.9 135.1Z" fill="black"/>
<path d="M156.351 135.1L156.911 134.08L157.941 133.52L156.911 132.95L156.351 131.93L155.791 132.95L154.761 133.52L155.791 134.08L156.351 135.1Z" fill="black"/>
<path d="M149.761 138.32L150.321 137.29L151.341 136.73L150.321 136.17L149.761 135.14L149.191 136.17L148.171 136.73L149.191 137.29L149.761 138.32Z" fill="black"/>
<path d="M154.13 138.32L154.69 137.29L155.72 136.73L154.69 136.17L154.13 135.14L153.57 136.17L152.54 136.73L153.57 137.29L154.13 138.32Z" fill="black"/>
<path d="M158.57 138.32L159.14 137.29L160.16 136.73L159.14 136.17L158.57 135.14L158.01 136.17L156.99 136.73L158.01 137.29L158.57 138.32Z" fill="black"/>
<path d="M147.53 141.53L148.09 140.5L149.12 139.94L148.09 139.38L147.53 138.35L146.97 139.38L145.94 139.94L146.97 140.5L147.53 141.53Z" fill="black"/>
<path d="M151.9 141.53L152.47 140.5L153.49 139.94L152.47 139.38L151.9 138.35L151.34 139.38L150.32 139.94L151.34 140.5L151.9 141.53Z" fill="black"/>
<path d="M156.351 141.53L156.911 140.5L157.941 139.94L156.911 139.38L156.351 138.35L155.791 139.38L154.761 139.94L155.791 140.5L156.351 141.53Z" fill="black"/>
<path d="M149.761 144.88L150.321 143.85L151.341 143.29L150.321 142.73L149.761 141.71L149.191 142.73L148.171 143.29L149.191 143.85L149.761 144.88Z" fill="black"/>
<path d="M154.13 144.88L154.69 143.85L155.72 143.29L154.69 142.73L154.13 141.71L153.57 142.73L152.54 143.29L153.57 143.85L154.13 144.88Z" fill="black"/>
<path d="M158.57 144.88L159.14 143.85L160.16 143.29L159.14 142.73L158.57 141.71L158.01 142.73L156.99 143.29L158.01 143.85L158.57 144.88Z" fill="black"/>
<path d="M147.53 148.09L148.09 147.07L149.12 146.51L148.09 145.95L147.53 144.92L146.97 145.95L145.94 146.51L146.97 147.07L147.53 148.09Z" fill="black"/>
<path d="M151.9 148.09L152.47 147.07L153.49 146.51L152.47 145.95L151.9 144.92L151.34 145.95L150.32 146.51L151.34 147.07L151.9 148.09Z" fill="black"/>
<path d="M156.351 148.09L156.911 147.07L157.941 146.51L156.911 145.95L156.351 144.92L155.791 145.95L154.761 146.51L155.791 147.07L156.351 148.09Z" fill="black"/>
<path d="M147.53 128.32L148.09 127.29L149.12 126.73L148.09 126.17L147.53 125.14L146.97 126.17L145.94 126.73L146.97 127.29L147.53 128.32Z" fill="black"/>
<path d="M151.9 128.32L152.47 127.29L153.49 126.73L152.47 126.17L151.9 125.14L151.34 126.17L150.32 126.73L151.34 127.29L151.9 128.32Z" fill="black"/>
<path d="M156.351 128.32L156.911 127.29L157.941 126.73L156.911 126.17L156.351 125.14L155.791 126.17L154.761 126.73L155.791 127.29L156.351 128.32Z" fill="black"/>
<path d="M163.651 131.89L164.211 130.86L165.241 130.3L164.211 129.74L163.651 128.71L163.091 129.74L162.061 130.3L163.091 130.86L163.651 131.89Z" fill="black"/>
<path d="M168.03 131.89L168.59 130.86L169.62 130.3L168.59 129.74L168.03 128.71L167.47 129.74L166.44 130.3L167.47 130.86L168.03 131.89Z" fill="black"/>
<path d="M161.431 135.1L161.991 134.08L163.011 133.52L161.991 132.95L161.431 131.93L160.861 132.95L159.841 133.52L160.861 134.08L161.431 135.1Z" fill="black"/>
<path d="M165.801 135.1L166.361 134.08L167.391 133.52L166.361 132.95L165.801 131.93L165.241 132.95L164.211 133.52L165.241 134.08L165.801 135.1Z" fill="black"/>
<path d="M163.651 138.32L164.211 137.29L165.241 136.73L164.211 136.17L163.651 135.14L163.091 136.17L162.061 136.73L163.091 137.29L163.651 138.32Z" fill="black"/>
<path d="M168.03 138.32L168.59 137.29L169.62 136.73L168.59 136.17L168.03 135.14L167.47 136.17L166.44 136.73L167.47 137.29L168.03 138.32Z" fill="black"/>
<path d="M161.431 141.53L161.991 140.5L163.011 139.94L161.991 139.38L161.431 138.35L160.861 139.38L159.841 139.94L160.861 140.5L161.431 141.53Z" fill="black"/>
<path d="M165.801 141.53L166.361 140.5L167.391 139.94L166.361 139.38L165.801 138.35L165.241 139.38L164.211 139.94L165.241 140.5L165.801 141.53Z" fill="black"/>
<path d="M163.651 144.88L164.211 143.85L165.241 143.29L164.211 142.73L163.651 141.71L163.091 142.73L162.061 143.29L163.091 143.85L163.651 144.88Z" fill="black"/>
<path d="M168.03 144.88L168.59 143.85L169.62 143.29L168.59 142.73L168.03 141.71L167.47 142.73L166.44 143.29L167.47 143.85L168.03 144.88Z" fill="black"/>
<path d="M161.431 148.09L161.991 147.07L163.011 146.51L161.991 145.95L161.431 144.92L160.861 145.95L159.841 146.51L160.861 147.07L161.431 148.09Z" fill="black"/>
<path d="M165.801 148.09L166.361 147.07L167.391 146.51L166.361 145.95L165.801 144.92L165.241 145.95L164.211 146.51L165.241 147.07L165.801 148.09Z" fill="black"/>
<path d="M161.431 128.32L161.991 127.29L163.011 126.73L161.991 126.17L161.431 125.14L160.861 126.17L159.841 126.73L160.861 127.29L161.431 128.32Z" fill="black"/>
<path d="M165.801 128.32L166.361 127.29L167.391 126.73L166.361 126.17L165.801 125.14L165.241 126.17L164.211 126.73L165.241 127.29L165.801 128.32Z" fill="black"/>
<path d="M58.2101 91.9399H42.5501C40.2301 91.9399 38.3301 93.8399 38.3301 96.1599V141.72H62.4301V96.1599C62.4201 93.8399 60.5301 91.9399 58.2101 91.9399Z" fill="#FFDE16" stroke="black" stroke-width="3" stroke-miterlimit="10" stroke-linecap="round" stroke-linejoin="round"/>
<path d="M90.0404 79.3604H74.3704C72.0504 79.3604 70.1504 81.2604 70.1504 83.5804V141.72H94.2504V83.5804C94.2504 81.2604 92.3604 79.3604 90.0404 79.3604Z" fill="#FFDE16" stroke="black" stroke-width="3" stroke-miterlimit="10" stroke-linecap="round" stroke-linejoin="round"/>
<path d="M122.01 59.79H106.35C104.03 59.79 102.13 61.69 102.13 64.01V141.71H126.23V64.01C126.23 61.69 124.33 59.79 122.01 59.79Z" fill="#FFDE16" stroke="black" stroke-width="3" stroke-miterlimit="10" stroke-linecap="round" stroke-linejoin="round"/>
<path d="M143.311 65.5298L141.451 55.6398C141.021 53.3598 142.541 51.1398 144.821 50.7098L144.911 50.6898L147.131 62.5298C147.331 63.6198 148.391 64.3398 149.471 64.1298L165.011 61.2098C166.091 61.0098 166.811 59.9498 166.611 58.8698L164.391 47.0298L164.481 47.0098C166.761 46.5798 168.981 48.0998 169.411 50.3798L171.271 60.2698C171.701 62.5498 170.181 64.7698 167.901 65.1998L148.241 68.8898C145.951 69.3298 143.731 67.8198 143.311 65.5298Z" fill="#00D384" stroke="black" stroke-width="3" stroke-miterlimit="10" stroke-linecap="round" stroke-linejoin="round"/>
<path d="M173.6 40.8002C180.128 40.8002 185.42 35.5082 185.42 28.9802C185.42 22.4522 180.128 17.1602 173.6 17.1602C167.072 17.1602 161.78 22.4522 161.78 28.9802C161.78 35.5082 167.072 40.8002 173.6 40.8002Z" fill="#00D384" stroke="black" stroke-width="3" stroke-miterlimit="10" stroke-linecap="round" stroke-linejoin="round"/>
<path d="M165.211 1.5L190.661 51.93L130.331 62.87L119.891 42.17L165.211 1.5Z" fill="#00D384" stroke="black" stroke-width="3" stroke-miterlimit="10" stroke-linecap="round" stroke-linejoin="round"/>
<path d="M115.58 42.1199C117.46 41.1699 119.77 41.9299 120.72 43.8099L129.62 61.4499C130.57 63.3299 129.81 65.6399 127.93 66.5899C126.05 67.5399 123.74 66.7799 122.79 64.8999L113.89 47.2599C112.93 45.3799 113.7 43.0599 115.58 42.1199Z" fill="#00D384" stroke="black" stroke-width="3" stroke-miterlimit="10" stroke-linecap="round" stroke-linejoin="round"/>
<path d="M141.511 60.9095L142.101 60.4195L142.341 59.6895L142.831 60.2795L143.561 60.5195L142.971 61.0095L142.731 61.7395L142.241 61.1495L141.511 60.9095Z" fill="black"/>
<path d="M140.971 58.0296L141.571 57.5396L141.811 56.8096L142.301 57.4096L143.031 57.6496L142.431 58.1396L142.191 58.8696L141.711 58.2696L140.971 58.0296Z" fill="black"/>
<path d="M139.161 59.8596L139.761 59.3696L140.001 58.6396L140.491 59.2397L141.221 59.4796L140.621 59.9596L140.381 60.6896L139.891 60.0996L139.161 59.8596Z" fill="black"/>
<path d="M137.351 61.6795L137.951 61.1895L138.191 60.4595L138.671 61.0595L139.401 61.2995L138.811 61.7795L138.081 61.9195L137.351 61.6795Z" fill="black"/>
<path d="M136.821 58.7996L137.411 58.3196L137.651 57.5796L138.141 58.1796L138.871 58.4196L138.271 58.9096L138.031 59.6396L137.551 59.0396L136.821 58.7996Z" fill="black"/>
<path d="M135.001 60.6297L135.601 60.1397L135.841 59.4097L136.331 60.0097L137.061 60.2497L136.461 60.7297L136.221 61.4697L135.741 60.8697L135.001 60.6297Z" fill="black"/>
<path d="M132.36 59.6297L132.96 59.1397L133.2 58.4097L133.68 59.0097L134.42 59.2497L133.82 59.7297L133.58 60.4697L133.09 59.8697L132.36 59.6297Z" fill="black"/>
<path d="M130.551 61.4597L131.151 60.9697L131.381 60.2397L131.871 60.8397L132.601 61.0797L132.011 61.5597L131.771 62.2897L131.281 61.6997L130.551 61.4597Z" fill="black"/>
<path d="M158.461 57.7595L159.061 57.2696L159.301 56.5396L159.791 57.1395L160.521 57.3695L159.921 57.8596L159.661 57.9195L159.201 57.9995L158.461 57.7595Z" fill="black"/>
<path d="M157.931 54.8797L158.531 54.3897L158.771 53.6597L159.251 54.2597L159.981 54.4997L159.391 54.9897L159.151 55.7197L158.661 55.1197L157.931 54.8797Z" fill="black"/>
<path d="M156.121 56.7097L156.711 56.2197L156.951 55.4897L157.441 56.0897L158.171 56.3297L157.581 56.8097L157.341 57.5397L156.851 56.9497L156.121 56.7097Z" fill="black"/>
<path d="M154.311 58.5296L154.901 58.0396L155.141 57.3096L155.631 57.9096L156.361 58.1496L155.761 58.6296L155.421 58.5296L155.041 58.7696L154.311 58.5296Z" fill="black"/>
<path d="M153.771 55.6495L154.37 55.1695L154.611 54.4395L155.09 55.0295L155.831 55.2695L155.23 55.7595L154.991 56.4895L154.501 55.8895L153.771 55.6495Z" fill="black"/>
<path d="M151.961 57.4798L152.561 56.9898L152.801 56.2598L153.281 56.8598L154.011 57.0998L153.421 57.5898L153.181 58.3198L152.691 57.7198L151.961 57.4798Z" fill="black"/>
<path d="M150.061 59.3196L150.651 58.8296L150.891 58.0996L151.381 58.6996L152.111 58.9396L151.521 59.4196L150.971 59.4796L150.791 59.5596L150.061 59.3196Z" fill="black"/>
<path d="M149.521 56.4397L150.12 55.9597L150.361 55.2197L150.851 55.8197L151.581 56.0597L150.98 56.5497L150.741 57.2797L150.26 56.6797L149.521 56.4397Z" fill="black"/>
<path d="M147.711 58.2698L148.311 57.7798L148.551 57.0498L149.041 57.6498L149.771 57.8898L149.171 58.3698L148.931 59.1098L148.441 58.5098L147.711 58.2698Z" fill="black"/>
<path d="M145.9 60.0896L146.5 59.5996L146.74 58.8696L147.22 59.4696L147.95 59.7096L147.36 60.1996L147.12 60.9296L146.63 60.3296L145.9 60.0896Z" fill="black"/>
<path d="M145.371 57.2095L145.961 56.7295L146.201 55.9995L146.691 56.5895L147.421 56.8295L146.821 57.3195L146.581 58.0495L146.101 57.4495L145.371 57.2095Z" fill="black"/>
<path d="M144.091 61.9197L144.681 61.4297L144.921 60.6997L145.411 61.2997L146.141 61.5397L145.551 62.0197L145.311 62.7497L144.821 62.1597L144.091 61.9197Z" fill="black"/>
<path d="M143.551 59.0398L144.151 58.5598L144.391 57.8198L144.881 58.4198L145.611 58.6598L145.011 59.1498L144.771 59.8798L144.291 59.2798L143.551 59.0398Z" fill="black"/>
<path d="M175.36 54.6199L175.95 54.1299L176.19 53.3999L176.68 53.9999L177.41 54.2399L176.81 54.7199L176.09 54.8599L175.36 54.6199Z" fill="black"/>
<path d="M174.82 51.7398L175.42 51.2598L175.66 50.5298L176.14 51.1198L176.88 51.3598L176.28 51.8498L176.04 52.5798L175.55 51.9798L174.82 51.7398Z" fill="black"/>
<path d="M173.011 53.5696L173.611 53.0796L173.851 52.3496L174.331 52.9496L175.061 53.1896L174.471 53.6796L174.231 54.4096L173.741 53.8096L173.011 53.5696Z" fill="black"/>
<path d="M171.2 55.3899L171.79 54.9099L172.03 54.1699L172.52 54.7699L173.25 55.0099L172.66 55.4999L172.16 55.9099L171.93 55.6299L171.2 55.3899Z" fill="black"/>
<path d="M170.66 52.5198L171.26 52.0298L171.5 51.2998L171.99 51.8898L172.72 52.1298L172.12 52.6198L171.88 53.3498L171.39 52.7598L170.66 52.5198Z" fill="black"/>
<path d="M169.391 57.22L169.981 56.73L170.221 56L170.711 56.6L171.441 56.84L170.841 57.32L170.601 58.06L170.121 57.46L169.391 57.22Z" fill="black"/>
<path d="M168.851 54.3399L169.451 53.8599L169.691 53.1299L170.171 53.7199L170.911 53.9599L170.311 54.4499L170.071 55.1799L169.581 54.5799L168.851 54.3399Z" fill="black"/>
<path d="M166.95 56.18L167.55 55.69L167.79 54.96L168.27 55.56L169 55.8L168.41 56.29L168.17 57.02L167.68 56.42L166.95 56.18Z" fill="black"/>
<path d="M166.421 53.2998L167.011 52.8198L167.251 52.0898L167.741 52.6798L168.471 52.9198L167.871 53.4098L167.631 54.1398L167.151 53.5398L166.421 53.2998Z" fill="black"/>
<path d="M165.87 58.2495L165.73 57.5196L165.97 56.7896L166.46 57.3895L167.19 57.6296L166.6 58.1096L166.36 58.8396L165.87 58.2495Z" fill="black"/>
<path d="M164.601 55.1297L165.201 54.6497L165.441 53.9097L165.931 54.5097L166.661 54.7497L166.061 55.2397L165.821 55.9697L165.341 55.3697L164.601 55.1297Z" fill="black"/>
<path d="M162.79 56.95L163.39 56.47L163.63 55.73L164.11 56.33L164.85 56.57L164.25 57.06L163.58 56.97L163.52 57.19L162.79 56.95Z" fill="black"/>
<path d="M162.261 54.0799L162.851 53.5899L163.091 52.8599L163.581 53.4599L164.311 53.6999L163.711 54.1799L163.481 54.9099L162.991 54.3199L162.261 54.0799Z" fill="black"/>
<path d="M160.44 55.8999L161.04 55.4199L161.28 54.6899L161.77 55.2799L162.5 55.5199L161.9 56.0099L161.66 56.7399L161.18 56.1399L160.44 55.8999Z" fill="black"/>
<path d="M187.62 49.3699L188.22 48.8799L188.46 48.1499L188.94 48.7499L189.67 48.9899L189.08 49.4699L188.84 50.1999L188.35 49.6099L187.62 49.3699Z" fill="black"/>
<path d="M185.811 51.19L186.401 50.71L186.641 49.98L187.131 50.57L187.861 50.81L187.261 51.3L187.031 52.03L186.541 51.43L185.811 51.19Z" fill="black"/>
<path d="M183.91 53.0301L184.5 52.5401L184.74 51.8101L185.23 52.4101L185.96 52.6501L185.36 53.1401L184.64 53.2701L183.91 53.0301Z" fill="black"/>
<path d="M183.37 50.1599L183.97 49.6699L184.21 48.9399L184.69 49.5299L185.43 49.7699L184.83 50.2599L184.59 50.9899L184.1 50.3999L183.37 50.1599Z" fill="black"/>
<path d="M181.561 51.9798L182.161 51.4998L182.401 50.7598L182.881 51.3598L183.611 51.5998L183.021 52.0898L182.781 52.8198L182.291 52.2198L181.561 51.9798Z" fill="black"/>
<path d="M179.75 53.7998L180.34 53.3198L180.58 52.5898L181.07 53.1798L181.8 53.4198L181.21 53.9098L180.48 54.0398L179.75 53.7998Z" fill="black"/>
<path d="M179.21 50.93L179.81 50.44L180.05 49.71L180.54 50.31L181.27 50.55L180.67 51.03L180.43 51.76L179.94 51.17L179.21 50.93Z" fill="black"/>
<path d="M177.4 52.76L178 52.27L178.24 51.54L178.72 52.13L179.46 52.37L178.86 52.86L178.62 53.59L178.13 53L177.4 52.76Z" fill="black"/>
<path d="M140.381 54.8399L140.981 54.3599L141.221 53.6299L141.711 54.2199L142.441 54.4599L141.841 54.9499L141.601 55.6799L141.111 55.0799L140.381 54.8399Z" fill="black"/>
<path d="M139.86 52.01L140.45 51.53L140.69 50.79L141.18 51.39L141.91 51.63L141.31 52.12L141.07 52.85L140.59 52.25L139.86 52.01Z" fill="black"/>
<path d="M138.57 56.6702L139.17 56.1802L139.41 55.4502L139.89 56.0502L140.62 56.2902L140.03 56.7802L139.79 57.5102L139.3 56.9102L138.57 56.6702Z" fill="black"/>
<path d="M138.041 53.8401L138.641 53.3501L138.881 52.6201L139.371 53.2201L140.101 53.4601L139.501 53.9401L139.261 54.6801L138.781 54.0801L138.041 53.8401Z" fill="black"/>
<path d="M136.221 55.6199L136.821 55.1299L137.061 54.3999L137.551 54.9899L138.281 55.2299L137.681 55.7199L137.441 56.4499L136.961 55.8599L136.221 55.6199Z" fill="black"/>
<path d="M135.7 52.7798L136.29 52.2998L136.53 51.5698L137.02 52.1598L137.75 52.3998L137.16 52.8898L136.92 53.6198L136.43 53.0198L135.7 52.7798Z" fill="black"/>
<path d="M134.41 57.44L135.01 56.96L135.25 56.23L135.73 56.82L136.47 57.06L135.87 57.55L135.63 58.28L135.14 57.68L134.41 57.44Z" fill="black"/>
<path d="M133.891 54.6101L134.481 54.1301L134.721 53.3901L135.211 53.9901L135.941 54.2301L135.341 54.7201L135.101 55.4501L134.621 54.8501L133.891 54.6101Z" fill="black"/>
<path d="M131.771 56.44L132.37 55.96L132.611 55.23L133.09 55.82L133.821 56.06L133.23 56.55L132.991 57.28L132.501 56.68L131.771 56.44Z" fill="black"/>
<path d="M131.24 53.6101L131.84 53.1301L132.08 52.3901L132.57 52.9901L133.3 53.2301L132.7 53.7201L132.46 54.4501L131.97 53.8501L131.24 53.6101Z" fill="black"/>
<path d="M129.961 58.2703L130.551 57.7803L130.791 57.0503L131.281 57.6503L132.011 57.8903L131.411 58.3803L131.171 59.1103L130.691 58.5103L129.961 58.2703Z" fill="black"/>
<path d="M129.431 55.4402L130.031 54.9502L130.271 54.2202L130.751 54.8202L131.491 55.0602L130.891 55.5402L130.651 56.2802L130.161 55.6802L129.431 55.4402Z" fill="black"/>
<path d="M157.341 51.69L157.941 51.21L158.171 50.48L158.661 51.07L159.391 51.31L158.801 51.8L158.561 52.53L158.071 51.93L157.341 51.69Z" fill="black"/>
<path d="M156.811 48.8599L157.411 48.3799L157.651 47.6499L158.141 48.2399L158.871 48.4799L158.271 48.9699L158.031 49.6999L157.541 49.0999L156.811 48.8599Z" fill="black"/>
<path d="M155.53 53.5198L156.12 53.0398L156.36 52.2998L156.85 52.8998L157.58 53.1398L156.98 53.6298L156.74 54.3598L156.26 53.7598L155.53 53.5198Z" fill="black"/>
<path d="M155 50.6897L155.6 50.1997L155.84 49.4697L156.32 50.0697L157.06 50.3097L156.46 50.7997L156.22 51.5297L155.73 50.9297L155 50.6897Z" fill="black"/>
<path d="M153.181 52.47L153.781 51.98L154.021 51.25L154.501 51.85L155.231 52.09L154.641 52.57L154.401 53.3L153.911 52.71L153.181 52.47Z" fill="black"/>
<path d="M152.65 49.6399L153.25 49.1499L153.49 48.4199L153.98 49.0099L154.71 49.2499L154.11 49.7399L153.87 50.4699L153.39 49.8799L152.65 49.6399Z" fill="black"/>
<path d="M151.37 54.2901L151.96 53.8101L152.2 53.0801L152.69 53.6701L153.42 53.9101L152.83 54.4001L152.59 55.1301L152.1 54.5301L151.37 54.2901Z" fill="black"/>
<path d="M150.841 51.4597L151.441 50.9797L151.681 50.2397L152.161 50.8397L152.901 51.0797L152.301 51.5697L152.061 52.2997L151.571 51.6997L150.841 51.4597Z" fill="black"/>
<path d="M148.931 53.26L149.531 52.77L149.771 52.04L150.261 52.63L150.991 52.87L150.391 53.36L150.151 54.09L149.661 53.5L148.931 53.26Z" fill="black"/>
<path d="M148.41 50.42L149 49.94L149.24 49.21L149.73 49.8L150.46 50.04L149.86 50.53L149.62 51.26L149.14 50.66L148.41 50.42Z" fill="black"/>
<path d="M147.12 55.0801L147.72 54.6001L147.96 53.8701L148.44 54.4601L149.17 54.7001L148.58 55.1901L148.34 55.9201L147.85 55.3201L147.12 55.0801Z" fill="black"/>
<path d="M146.591 52.2498L147.191 51.7698L147.431 51.0298L147.921 51.6298L148.651 51.8698L148.051 52.3598L147.811 53.0898L147.331 52.4898L146.591 52.2498Z" fill="black"/>
<path d="M144.771 54.0301L145.37 53.5401L145.611 52.8101L146.101 53.4101L146.831 53.6501L146.23 54.1301L145.991 54.8601L145.51 54.2701L144.771 54.0301Z" fill="black"/>
<path d="M144.25 51.2L144.84 50.71L145.08 49.98L145.57 50.58L146.3 50.82L145.71 51.3L145.47 52.03L144.98 51.44L144.25 51.2Z" fill="black"/>
<path d="M142.96 55.8601L143.56 55.3701L143.8 54.6401L144.28 55.2301L145.02 55.4701L144.42 55.9601L144.18 56.6901L143.69 56.1001L142.96 55.8601Z" fill="black"/>
<path d="M142.44 53.0201L143.03 52.5401L143.27 51.8101L143.76 52.4001L144.49 52.6401L143.89 53.1301L143.65 53.8601L143.17 53.2601L142.44 53.0201Z" fill="black"/>
<path d="M174.231 48.5598L174.831 48.0698L175.071 47.3398L175.551 47.9398L176.281 48.1798L175.691 48.6598L175.451 49.3898L174.961 48.7998L174.231 48.5598Z" fill="black"/>
<path d="M173.701 45.7298L174.301 45.2398L174.541 44.5098L175.031 45.0998L175.761 45.3398L175.161 45.8298L174.921 46.5598L174.441 45.9698L173.701 45.7298Z" fill="black"/>
<path d="M172.421 50.3799L173.011 49.8999L173.251 49.1699L173.741 49.7599L174.471 49.9999L173.881 50.4899L173.641 51.2199L173.151 50.6199L172.421 50.3799Z" fill="black"/>
<path d="M171.891 47.5498L172.491 47.0698L172.731 46.3398L173.211 46.9298L173.951 47.1698L173.351 47.6598L173.111 48.3898L172.621 47.7898L171.891 47.5498Z" fill="black"/>
<path d="M170.071 49.3299L170.671 48.8399L170.911 48.1099L171.391 48.7099L172.131 48.9499L171.531 49.4299L171.291 50.1699L170.801 49.5699L170.071 49.3299Z" fill="black"/>
<path d="M169.551 46.4998L170.141 46.0098L170.381 45.2798L170.871 45.8798L171.601 46.1198L171.001 46.5998L170.761 47.3298L170.281 46.7398L169.551 46.4998Z" fill="black"/>
<path d="M168.261 51.1599L168.861 50.6699L169.101 49.9399L169.581 50.5399L170.311 50.7799L169.721 51.2599L169.481 51.9899L168.991 51.3999L168.261 51.1599Z" fill="black"/>
<path d="M167.731 48.3299L168.331 47.8399L168.571 47.1099L169.061 47.6999L169.791 47.9399L169.191 48.4299L168.951 49.1599L168.461 48.5699L167.731 48.3299Z" fill="black"/>
<path d="M165.821 50.1199L166.421 49.6299L166.661 48.8999L167.151 49.4999L167.881 49.7399L167.281 50.2199L167.041 50.9599L166.561 50.3599L165.821 50.1199Z" fill="black"/>
<path d="M165.301 47.2898L165.891 46.7998L166.131 46.0698L166.621 46.6698L167.351 46.9098L166.761 47.3898L166.521 48.1198L166.031 47.5298L165.301 47.2898Z" fill="black"/>
<path d="M164.011 51.95L164.611 51.46L164.851 50.73L165.331 51.32L166.071 51.56L165.471 52.05L165.231 52.78L164.741 52.19L164.011 51.95Z" fill="black"/>
<path d="M163.491 49.1099L164.081 48.6299L164.321 47.8999L164.811 48.4899L165.541 48.7299L164.941 49.2199L164.701 49.9499L164.221 49.3499L163.491 49.1099Z" fill="black"/>
<path d="M161.671 50.8899L162.261 50.3999L162.501 49.6699L162.991 50.2699L163.721 50.5099L163.121 50.9999L162.881 51.7299L162.401 51.1299L161.671 50.8899Z" fill="black"/>
<path d="M161.141 48.0598L161.741 47.5698L161.981 46.8398L162.461 47.4398L163.191 47.6798L162.601 48.1598L162.361 48.8998L161.871 48.2998L161.141 48.0598Z" fill="black"/>
<path d="M159.851 52.72L160.451 52.23L160.691 51.5L161.181 52.1L161.911 52.34L161.311 52.82L161.071 53.55L160.581 52.96L159.851 52.72Z" fill="black"/>
<path d="M159.331 49.8899L159.921 49.3999L160.161 48.6699L160.651 49.2699L161.381 49.5099L160.791 49.9899L160.551 50.7199L160.061 50.1299L159.331 49.8899Z" fill="black"/>
<path d="M185.222 48.01L185.812 47.52L186.052 46.79L186.542 47.39L187.272 47.63L186.672 48.11L186.432 48.84L185.952 48.25L185.222 48.01Z" fill="black"/>
<path d="M184.691 45.18L185.291 44.69L185.531 43.96L186.011 44.55L186.741 44.79L186.151 45.28L185.911 46.01L185.421 45.42L184.691 45.18Z" fill="black"/>
<path d="M182.781 46.97L183.381 46.48L183.621 45.75L184.101 46.35L184.831 46.59L184.241 47.07L184.001 47.81L183.511 47.21L182.781 46.97Z" fill="black"/>
<path d="M182.251 44.1399L182.851 43.6499L183.091 42.9199L183.581 43.5199L184.311 43.7599L183.711 44.2399L183.471 44.9699L182.991 44.3799L182.251 44.1399Z" fill="black"/>
<path d="M180.972 48.8001L181.562 48.3101L181.802 47.5801L182.292 48.1801L183.022 48.4201L182.432 48.9001L182.192 49.6301L181.702 49.0401L180.972 48.8001Z" fill="black"/>
<path d="M180.441 45.97L181.041 45.48L181.281 44.75L181.761 45.34L182.501 45.58L181.901 46.07L181.661 46.8L181.171 46.21L180.441 45.97Z" fill="black"/>
<path d="M178.621 47.74L179.221 47.26L179.461 46.52L179.941 47.12L180.681 47.36L180.081 47.85L179.841 48.58L179.351 47.98L178.621 47.74Z" fill="black"/>
<path d="M178.102 44.9099L178.692 44.4199L178.932 43.6899L179.422 44.2899L180.152 44.5299L179.552 45.0199L179.312 45.7499L178.832 45.1499L178.102 44.9099Z" fill="black"/>
<path d="M176.812 49.5701L177.412 49.0801L177.652 48.3501L178.132 48.9501L178.862 49.1901L178.272 49.6701L178.032 50.4101L177.542 49.8101L176.812 49.5701Z" fill="black"/>
<path d="M176.281 46.74L176.881 46.25L177.121 45.52L177.611 46.12L178.341 46.36L177.741 46.84L177.501 47.57L177.011 46.98L176.281 46.74Z" fill="black"/>
<path d="M155.9 67.2798L156.49 66.7998L156.73 66.0698L157.22 66.6598L157.95 66.8998L157.36 67.3898L156.63 67.5198L155.9 67.2798Z" fill="black"/>
<path d="M151.74 68.0598L152.34 67.5698L152.58 66.8398L153.06 67.4398L153.79 67.6798L153.2 68.1599L152.47 68.2999L151.74 68.0598Z" fill="black"/>
<path d="M147.49 68.8499L148.09 68.3599L148.33 67.6299L148.81 68.2199L149.55 68.4599L148.95 68.9499L148.22 69.0899L147.49 68.8499Z" fill="black"/>
<path d="M160.221 66.4798L160.821 65.9898L161.061 65.2598L161.551 65.8598L162.281 66.0998L161.681 66.5898L160.961 66.7198L160.221 66.4798Z" fill="black"/>
<path d="M155.311 64.0999L155.901 63.6099L156.141 62.8799L156.631 63.4799L157.361 63.7199L156.761 64.1999L156.521 64.9299L156.041 64.3399L155.311 64.0999Z" fill="black"/>
<path d="M153.49 65.93L154.09 65.44L154.33 64.71L154.82 65.3L155.55 65.54L154.95 66.03L154.71 66.76L154.23 66.17L153.49 65.93Z" fill="black"/>
<path d="M152.971 63.0897L153.561 62.6097L154.131 62.7397L154.291 62.4697L155.021 62.7097L154.431 63.1997L154.191 63.9297L153.701 63.3297L152.971 63.0897Z" fill="black"/>
<path d="M151.15 64.8699L151.74 64.3799L151.98 63.6499L152.47 64.2499L153.2 64.4899L152.61 64.9799L152.37 65.7099L151.88 65.1099L151.15 64.8699Z" fill="black"/>
<path d="M149.341 66.7L149.931 66.21L150.171 65.48L150.661 66.08L151.391 66.32L150.791 66.8L150.551 67.53L150.071 66.94L149.341 66.7Z" fill="black"/>
<path d="M148.811 63.87L149.411 63.38L149.321 63.64L150.131 63.25L150.861 63.48L150.271 63.97L150.031 64.7L149.541 64.11L148.811 63.87Z" fill="black"/>
<path d="M146.9 65.6599L147.5 65.1699L147.74 64.4399L148.22 65.0399L148.95 65.2799L148.36 65.7599L148.12 66.4999L147.63 65.8999L146.9 65.6599Z" fill="black"/>
<path d="M146.371 62.8299L146.971 62.3399L147.211 61.6099L147.701 62.2099L147.761 62.7099L147.831 62.9299L147.591 63.6599L147.111 63.0699L146.371 62.8299Z" fill="black"/>
<path d="M145.091 67.49L145.681 67L145.921 66.27L146.411 66.87L147.141 67.11L146.551 67.59L146.311 68.32L145.821 67.73L145.091 67.49Z" fill="black"/>
<path d="M144.561 64.6599L145.161 64.1699L145.401 63.4399L145.881 64.0299L146.621 64.2699L146.021 64.7599L145.781 65.4899L145.291 64.8999L144.561 64.6599Z" fill="black"/>
<path d="M142.74 66.43L143.34 65.95L143.58 65.21L144.06 65.81L144.8 66.05L144.2 66.54L143.96 67.27L143.47 66.67L142.74 66.43Z" fill="black"/>
<path d="M142.221 63.5999L142.811 63.1099L143.051 62.3799L143.541 62.9799L144.271 63.2199L143.671 63.7099L143.431 64.4399L142.951 63.8399L142.221 63.5999Z" fill="black"/>
<path d="M169.861 59.9597L170.461 59.4697L170.701 58.7397L171.181 59.3397L171.911 59.5797L171.321 60.0597L171.081 60.7897L170.591 60.1997L169.861 59.9597Z" fill="black"/>
<path d="M168.041 61.7295L168.641 61.2495L168.881 60.5195L169.361 61.1095L170.091 61.3495L169.501 61.8395L169.261 62.5695L168.771 61.9695L168.041 61.7295Z" fill="black"/>
<path d="M167.511 58.8997L168.111 58.4197L168.351 57.6797L168.841 58.2797L169.571 58.5197L168.971 59.0097L168.731 59.7397L168.241 59.1397L167.511 58.8997Z" fill="black"/>
<path d="M166.231 63.5598L166.821 63.0698L167.061 62.3398L167.551 62.9398L168.281 63.1798L167.681 63.6698L167.441 64.3998L166.961 63.7998L166.231 63.5598Z" fill="black"/>
<path d="M165.701 60.7298L166.301 60.2398L166.541 59.5098L167.021 60.1098L167.761 60.3498L167.161 60.8298L166.921 61.5698L166.431 60.9698L165.701 60.7298Z" fill="black"/>
<path d="M163.791 62.5198L164.391 62.0398L164.631 61.2998L165.111 61.8998L165.851 62.1398L165.251 62.6298L165.011 63.3598L164.521 62.7598L163.791 62.5198Z" fill="black"/>
<path d="M161.981 64.3499L162.581 63.8599L162.821 63.1299L163.301 63.7299L164.031 63.9699L163.441 64.4499L163.201 65.1899L162.711 64.5899L161.981 64.3499Z" fill="black"/>
<path d="M161.451 61.5199L162.051 61.0299L162.311 61.2199L162.781 60.8999L163.511 61.1399L162.911 61.6199L162.671 62.3499L162.181 61.7599L161.451 61.5199Z" fill="black"/>
<path d="M159.631 63.2896L160.231 62.8096L160.471 62.0796L160.961 62.6696L161.691 62.9096L161.091 63.3996L160.851 64.1296L160.361 63.5296L159.631 63.2896Z" fill="black"/>
<path d="M157.821 65.1199L158.421 64.6399L158.661 63.8999L159.141 64.4999L159.881 64.7399L159.281 65.2299L159.041 65.9599L158.551 65.3599L157.821 65.1199Z" fill="black"/>
<path d="M157.291 62.2899L157.891 61.7999L158.111 61.9199L158.621 61.6699L159.351 61.9099L158.751 62.3999L158.511 63.1299L158.031 62.5299L157.291 62.2899Z" fill="black"/>
<path d="M128.121 59.9798L128.721 59.4898L128.961 58.7598L129.441 59.3598L130.181 59.5998L129.581 60.0798L129.341 60.8098L128.851 60.2198L128.121 59.9798Z" fill="black"/>
<path d="M127.591 57.0999L128.181 56.6199L128.421 55.8799L128.911 56.4799L129.641 56.7199L129.041 57.2099L128.801 57.9399L128.321 57.3399L127.591 57.0999Z" fill="black"/>
<path d="M126.311 61.8098L126.911 61.3198L127.151 60.5898L127.631 61.1798L128.361 61.4198L127.771 61.9098L127.531 62.6398L127.041 62.0498L126.311 61.8098Z" fill="black"/>
<path d="M125.771 58.93L126.371 58.44L126.611 57.71L127.101 58.31L127.831 58.55L127.231 59.03L126.991 59.77L126.511 59.17L125.771 58.93Z" fill="black"/>
<path d="M123.871 60.7698L124.471 60.2798L124.711 59.5498L125.201 60.1498L125.931 60.3898L125.331 60.8698L125.091 61.5998L124.601 61.0098L123.871 60.7698Z" fill="black"/>
<path d="M123.341 57.8899L123.941 57.3999L124.181 56.6699L124.661 57.2699L125.391 57.5099L124.801 57.9999L124.561 58.7299L124.071 58.1299L123.341 57.8899Z" fill="black"/>
<path d="M122.061 62.5899L122.661 62.1099L122.901 61.3799L123.381 61.9699L124.121 62.2099L123.521 62.6999L123.281 63.4299L122.791 62.8299L122.061 62.5899Z" fill="black"/>
<path d="M121.53 59.72L122.12 59.23L122.36 58.5L122.85 59.1L123.58 59.34L122.98 59.82L122.75 60.56L122.26 59.96L121.53 59.72Z" fill="black"/>
<path d="M119.181 58.6597L119.781 58.1797L120.021 57.4497L120.501 58.0397L121.231 58.2797L120.641 58.7697L120.401 59.4997L119.911 58.8997L119.181 58.6597Z" fill="black"/>
<path d="M126.99 53.9202L127.59 53.4302L127.83 52.7002L128.32 53.2902L129.05 53.5302L128.45 54.0202L128.21 54.7502L127.73 54.1602L126.99 53.9202Z" fill="black"/>
<path d="M126.471 51.0801L127.071 50.6001L127.311 49.8701L127.791 50.4601L128.521 50.7001L127.931 51.1901L127.691 51.9201L127.201 51.3201L126.471 51.0801Z" fill="black"/>
<path d="M125.181 55.7403L125.781 55.2603L126.021 54.5303L126.511 55.1203L127.241 55.3603L126.641 55.8503L126.401 56.5803L125.911 55.9803L125.181 55.7403Z" fill="black"/>
<path d="M124.66 52.9099L125.25 52.4299L125.49 51.6899L125.98 52.2899L126.71 52.5299L126.11 53.0199L125.87 53.7499L125.39 53.1499L124.66 52.9099Z" fill="black"/>
<path d="M122.751 54.7102L123.341 54.2202L123.581 53.4902L124.071 54.0802L124.801 54.3202L124.211 54.8102L123.971 55.5402L123.481 54.9402L122.751 54.7102Z" fill="black"/>
<path d="M122.221 51.8702L122.821 51.3902L123.061 50.6602L123.541 51.2502L124.281 51.4902L123.681 51.9802L123.441 52.7102L122.951 52.1102L122.221 51.8702Z" fill="black"/>
<path d="M120.94 56.5301L121.53 56.0501L121.77 55.3101L122.26 55.9101L122.99 56.1501L122.39 56.6401L122.15 57.3701L121.67 56.7701L120.94 56.5301Z" fill="black"/>
<path d="M120.41 53.7L121.01 53.21L121.25 52.48L121.73 53.08L122.46 53.32L121.87 53.81L121.63 54.54L121.14 53.94L120.41 53.7Z" fill="black"/>
<path d="M118.591 55.4803L119.191 54.9903L119.431 54.2603L119.911 54.8603L120.641 55.1003L120.051 55.5803L119.811 56.3103L119.321 55.7203L118.591 55.4803Z" fill="black"/>
<path d="M118.061 52.6502L118.661 52.1602L118.901 51.4302L119.391 52.0202L120.121 52.2602L119.521 52.7502L119.281 53.4802L118.791 52.8902L118.061 52.6502Z" fill="black"/>
<path d="M128.581 63.6101L129.181 63.1301L129.421 62.3901L129.911 62.9901L130.641 63.2301L130.041 63.7201L129.801 64.4501L129.321 63.8501L128.581 63.6101Z" fill="black"/>
<path d="M126.771 65.4402L127.371 64.9502L127.611 64.2202L128.101 64.8202L128.831 65.0602L128.231 65.5402L127.991 66.2802L127.501 65.6802L126.771 65.4402Z" fill="black"/>
<path d="M124.341 64.4002L124.931 63.9102L125.171 63.1802L125.661 63.7802L126.391 64.0202L125.791 64.5102L125.551 65.2402L125.071 64.6402L124.341 64.4002Z" fill="black"/>
</g>
<defs>
<clipPath id="clip0123">
<rect width="192.16" height="149.47" fill="white"/>
</clipPath>
</defs>
</svg>
