<svg width="181" height="134" viewBox="0 0 181 134" fill="none" xmlns="http://www.w3.org/2000/svg">
<g clip-path="url(#clip0111)">
<path d="M163.06 22.9202V116.3C163.06 121.4 158.93 125.53 153.83 125.53H10.74C5.64 125.53 1.5 121.4 1.5 116.3V22.9202C1.5 17.5702 5.84 13.2202 11.19 13.2202H153.37C158.72 13.2202 163.06 17.5702 163.06 22.9202Z" fill="white" stroke="black" stroke-width="3" stroke-miterlimit="10" stroke-linecap="round" stroke-linejoin="round"/>
<path d="M163.06 22.9202V28.6702H1.5V22.9202C1.5 17.5702 5.84 13.2202 11.19 13.2202H153.37C158.72 13.2202 163.06 17.5702 163.06 22.9202Z" fill="#9E6CFF" stroke="black" stroke-width="3" stroke-miterlimit="10" stroke-linecap="round" stroke-linejoin="round"/>
<path d="M169.36 29.1804V122.56C169.36 127.66 165.23 131.79 160.13 131.79H17.0299C12.8399 131.79 9.29992 129 8.16992 125.17C8.97992 125.4 9.83992 125.53 10.7199 125.53H153.82C158.92 125.53 163.05 121.4 163.05 116.3V22.9204C163.05 21.8804 162.89 20.8804 162.58 19.9404C166.52 21.1704 169.36 24.8404 169.36 29.1804Z" fill="black" stroke="black" stroke-width="3" stroke-miterlimit="10"/>
<path d="M26.8098 23.4902C28.196 23.4902 29.3198 22.3664 29.3198 20.9802C29.3198 19.594 28.196 18.4702 26.8098 18.4702C25.4236 18.4702 24.2998 19.594 24.2998 20.9802C24.2998 22.3664 25.4236 23.4902 26.8098 23.4902Z" fill="black"/>
<path d="M36.3 23.4902C37.6863 23.4902 38.81 22.3664 38.81 20.9802C38.81 19.594 37.6863 18.4702 36.3 18.4702C34.9138 18.4702 33.79 19.594 33.79 20.9802C33.79 22.3664 34.9138 23.4902 36.3 23.4902Z" fill="black"/>
<path d="M17.1301 23.4902C18.5164 23.4902 19.6401 22.3664 19.6401 20.9802C19.6401 19.594 18.5164 18.4702 17.1301 18.4702C15.7439 18.4702 14.6201 19.594 14.6201 20.9802C14.6201 22.3664 15.7439 23.4902 17.1301 23.4902Z" fill="black"/>
<path d="M164.18 28.6704H1.5" stroke="black" stroke-width="3" stroke-miterlimit="10"/>
<path d="M161.82 120.87L162.07 121.32L162.52 121.57L162.07 121.82L161.82 122.28L161.57 121.82L161.11 121.57L161.57 121.32L161.82 120.87Z" fill="black"/>
<path d="M151.98 46.0804L152.54 45.0504L153.57 44.4904L152.54 43.9304L151.98 42.9004L151.42 43.9304L150.39 44.4904L151.42 45.0504L151.98 46.0804Z" fill="black"/>
<path d="M156.36 46.0804L156.92 45.0504L157.95 44.4904L156.92 43.9304L156.36 42.9004L155.8 43.9304L154.77 44.4904L155.8 45.0504L156.36 46.0804Z" fill="black"/>
<path d="M160.8 46.0804L161.36 45.0504L162.39 44.4904L161.36 43.9304L160.8 42.9004L160.24 43.9304L159.21 44.4904L160.24 45.0504L160.8 46.0804Z" fill="black"/>
<path d="M149.76 49.2904L150.32 48.2603L151.34 47.7004L150.32 47.1404L149.76 46.1104L149.19 47.1404L148.17 47.7004L149.19 48.2603L149.76 49.2904Z" fill="black"/>
<path d="M154.13 49.2904L154.69 48.2603L155.72 47.7004L154.69 47.1404L154.13 46.1104L153.57 47.1404L152.54 47.7004L153.57 48.2603L154.13 49.2904Z" fill="black"/>
<path d="M158.57 49.2904L159.14 48.2603L160.16 47.7004L159.14 47.1404L158.57 46.1104L158.01 47.1404L156.99 47.7004L158.01 48.2603L158.57 49.2904Z" fill="black"/>
<path d="M151.98 52.5006L152.54 51.4806L153.57 50.9106L152.54 50.3506L151.98 49.3306L151.42 50.3506L150.39 50.9106L151.42 51.4806L151.98 52.5006Z" fill="black"/>
<path d="M156.36 52.5006L156.92 51.4806L157.95 50.9106L156.92 50.3506L156.36 49.3306L155.8 50.3506L154.77 50.9106L155.8 51.4806L156.36 52.5006Z" fill="black"/>
<path d="M160.8 52.5006L161.36 51.4806L162.39 50.9106L161.36 50.3506L160.8 49.3306L160.24 50.3506L159.21 50.9106L160.24 51.4806L160.8 52.5006Z" fill="black"/>
<path d="M149.76 55.7205L150.32 54.6905L151.34 54.1305L150.32 53.5705L149.76 52.5405L149.19 53.5705L148.17 54.1305L149.19 54.6905L149.76 55.7205Z" fill="black"/>
<path d="M154.13 55.7205L154.69 54.6905L155.72 54.1305L154.69 53.5705L154.13 52.5405L153.57 53.5705L152.54 54.1305L153.57 54.6905L154.13 55.7205Z" fill="black"/>
<path d="M158.57 55.7205L159.14 54.6905L160.16 54.1305L159.14 53.5705L158.57 52.5405L158.01 53.5705L156.99 54.1305L158.01 54.6905L158.57 55.7205Z" fill="black"/>
<path d="M151.98 59.0706L152.54 58.0406L153.57 57.4806L152.54 56.9206L151.98 55.8906L151.42 56.9206L150.39 57.4806L151.42 58.0406L151.98 59.0706Z" fill="black"/>
<path d="M156.36 59.0706L156.92 58.0406L157.95 57.4806L156.92 56.9206L156.36 55.8906L155.8 56.9206L154.77 57.4806L155.8 58.0406L156.36 59.0706Z" fill="black"/>
<path d="M160.8 59.0706L161.36 58.0406L162.39 57.4806L161.36 56.9206L160.8 55.8906L160.24 56.9206L159.21 57.4806L160.24 58.0406L160.8 59.0706Z" fill="black"/>
<path d="M149.76 62.2803L150.32 61.2504L151.34 60.6903L150.32 60.1304L149.76 59.1104L149.19 60.1304L148.17 60.6903L149.19 61.2504L149.76 62.2803Z" fill="black"/>
<path d="M154.13 62.2803L154.69 61.2504L155.72 60.6903L154.69 60.1304L154.13 59.1104L153.57 60.1304L152.54 60.6903L153.57 61.2504L154.13 62.2803Z" fill="black"/>
<path d="M158.57 62.2803L159.14 61.2504L160.16 60.6903L159.14 60.1304L158.57 59.1104L158.01 60.1304L156.99 60.6903L158.01 61.2504L158.57 62.2803Z" fill="black"/>
<path d="M151.98 19.9703L152.54 18.9503L153.57 18.3803L152.54 17.8203L151.98 16.8003L151.42 17.8203L150.39 18.3803L151.42 18.9503L151.98 19.9703Z" fill="black"/>
<path d="M156.36 19.9703L156.92 18.9503L157.95 18.3803L156.92 17.8203L156.36 16.8003L155.8 17.8203L154.77 18.3803L155.8 18.9503L156.36 19.9703Z" fill="black"/>
<path d="M160.8 19.9703L161.36 18.9503L162.39 18.3803L161.36 17.8203L160.8 16.8003L160.24 17.8203L159.21 18.3803L160.24 18.9503L160.8 19.9703Z" fill="black"/>
<path d="M149.76 23.1903L150.32 22.1603L151.34 21.6003L150.32 21.0403L149.76 20.0103L149.19 21.0403L148.17 21.6003L149.19 22.1603L149.76 23.1903Z" fill="black"/>
<path d="M154.13 23.1903L154.69 22.1603L155.72 21.6003L154.69 21.0403L154.13 20.0103L153.57 21.0403L152.54 21.6003L153.57 22.1603L154.13 23.1903Z" fill="black"/>
<path d="M158.57 23.1903L159.14 22.1603L160.16 21.6003L159.14 21.0403L158.57 20.0103L158.01 21.0403L156.99 21.6003L158.01 22.1603L158.57 23.1903Z" fill="black"/>
<path d="M151.98 26.4002L152.54 25.3702L153.57 24.8102L152.54 24.2502L151.98 23.2202L151.42 24.2502L150.39 24.8102L151.42 25.3702L151.98 26.4002Z" fill="black"/>
<path d="M156.36 26.4002L156.92 25.3702L157.95 24.8102L156.92 24.2502L156.36 23.2202L155.8 24.2502L154.77 24.8102L155.8 25.3702L156.36 26.4002Z" fill="black"/>
<path d="M160.8 26.4002L161.36 25.3702L162.39 24.8102L161.36 24.2502L160.8 23.2202L160.24 24.2502L159.21 24.8102L160.24 25.3702L160.8 26.4002Z" fill="black"/>
<path d="M149.76 29.6104L150.32 28.5904L151.34 28.0204L150.32 27.4604L149.76 26.4404L149.19 27.4604L148.17 28.0204L149.19 28.5904L149.76 29.6104Z" fill="black"/>
<path d="M154.13 29.6104L154.69 28.5904L155.72 28.0204L154.69 27.4604L154.13 26.4404L153.57 27.4604L152.54 28.0204L153.57 28.5904L154.13 29.6104Z" fill="black"/>
<path d="M158.57 29.6104L159.14 28.5904L160.16 28.0204L159.14 27.4604L158.57 26.4404L158.01 27.4604L156.99 28.0204L158.01 28.5904L158.57 29.6104Z" fill="black"/>
<path d="M151.98 32.9605L152.54 31.9405L153.57 31.3705L152.54 30.8105L151.98 29.7905L151.42 30.8105L150.39 31.3705L151.42 31.9405L151.98 32.9605Z" fill="black"/>
<path d="M156.36 32.9605L156.92 31.9405L157.95 31.3705L156.92 30.8105L156.36 29.7905L155.8 30.8105L154.77 31.3705L155.8 31.9405L156.36 32.9605Z" fill="black"/>
<path d="M160.8 32.9605L161.36 31.9405L162.39 31.3705L161.36 30.8105L160.8 29.7905L160.24 30.8105L159.21 31.3705L160.24 31.9405L160.8 32.9605Z" fill="black"/>
<path d="M149.76 36.1805L150.32 35.1505L151.34 34.5905L150.32 34.0305L149.76 33.0005L149.19 34.0305L148.17 34.5905L149.19 35.1505L149.76 36.1805Z" fill="black"/>
<path d="M154.13 36.1805L154.69 35.1505L155.72 34.5905L154.69 34.0305L154.13 33.0005L153.57 34.0305L152.54 34.5905L153.57 35.1505L154.13 36.1805Z" fill="black"/>
<path d="M158.57 36.1805L159.14 35.1505L160.16 34.5905L159.14 34.0305L158.57 33.0005L158.01 34.0305L156.99 34.5905L158.01 35.1505L158.57 36.1805Z" fill="black"/>
<path d="M151.98 39.3904L152.54 38.3605L153.57 37.8004L152.54 37.2405L151.98 36.2104L151.42 37.2405L150.39 37.8004L151.42 38.3605L151.98 39.3904Z" fill="black"/>
<path d="M156.36 39.3904L156.92 38.3605L157.95 37.8004L156.92 37.2405L156.36 36.2104L155.8 37.2405L154.77 37.8004L155.8 38.3605L156.36 39.3904Z" fill="black"/>
<path d="M160.8 39.3904L161.36 38.3605L162.39 37.8004L161.36 37.2405L160.8 36.2104L160.24 37.2405L159.21 37.8004L160.24 38.3605L160.8 39.3904Z" fill="black"/>
<path d="M149.76 42.6002L150.32 41.5802L151.34 41.0202L150.32 40.4502L149.76 39.4302L149.19 40.4502L148.17 41.0202L149.19 41.5802L149.76 42.6002Z" fill="black"/>
<path d="M154.13 42.6002L154.69 41.5802L155.72 41.0202L154.69 40.4502L154.13 39.4302L153.57 40.4502L152.54 41.0202L153.57 41.5802L154.13 42.6002Z" fill="black"/>
<path d="M158.57 42.6002L159.14 41.5802L160.16 41.0202L159.14 40.4502L158.57 39.4302L158.01 40.4502L156.99 41.0202L158.01 41.5802L158.57 42.6002Z" fill="black"/>
<path d="M149.76 16.4002L150.32 15.3702L151.34 14.8102L150.32 14.2502L149.76 13.2202L149.19 14.2502L148.17 14.8102L149.19 15.3702L149.76 16.4002Z" fill="black"/>
<path d="M154.13 16.4002L154.69 15.3702L155.72 14.8102L154.69 14.2502L154.13 13.2202L153.57 14.2502L152.54 14.8102L153.57 15.3702L154.13 16.4002Z" fill="black"/>
<path d="M158.57 16.4002L159.14 15.3702L160.16 14.8102L159.14 14.2502L158.57 13.2202L158.01 14.2502L156.99 14.8102L158.01 15.3702L158.57 16.4002Z" fill="black"/>
<path d="M165.88 46.0804L166.44 45.0504L167.47 44.4904L166.44 43.9304L165.88 42.9004L165.32 43.9304L164.29 44.4904L165.32 45.0504L165.88 46.0804Z" fill="black"/>
<path d="M163.65 49.2904L164.21 48.2603L165.24 47.7004L164.21 47.1404L163.65 46.1104L163.09 47.1404L162.06 47.7004L163.09 48.2603L163.65 49.2904Z" fill="black"/>
<path d="M168.029 49.2904L168.589 48.2603L169.619 47.7004L168.589 47.1404L168.029 46.1104L167.469 47.1404L166.439 47.7004L167.469 48.2603L168.029 49.2904Z" fill="black"/>
<path d="M165.88 52.5006L166.44 51.4806L167.47 50.9106L166.44 50.3506L165.88 49.3306L165.32 50.3506L164.29 50.9106L165.32 51.4806L165.88 52.5006Z" fill="black"/>
<path d="M163.65 55.7205L164.21 54.6905L165.24 54.1305L164.21 53.5705L163.65 52.5405L163.09 53.5705L162.06 54.1305L163.09 54.6905L163.65 55.7205Z" fill="black"/>
<path d="M168.029 55.7205L168.589 54.6905L169.619 54.1305L168.589 53.5705L168.029 52.5405L167.469 53.5705L166.439 54.1305L167.469 54.6905L168.029 55.7205Z" fill="black"/>
<path d="M165.88 59.0706L166.44 58.0406L167.47 57.4806L166.44 56.9206L165.88 55.8906L165.32 56.9206L164.29 57.4806L165.32 58.0406L165.88 59.0706Z" fill="black"/>
<path d="M163.65 62.2803L164.21 61.2504L165.24 60.6903L164.21 60.1304L163.65 59.1104L163.09 60.1304L162.06 60.6903L163.09 61.2504L163.65 62.2803Z" fill="black"/>
<path d="M168.029 62.2803L168.589 61.2504L169.619 60.6903L168.589 60.1304L168.029 59.1104L167.469 60.1304L166.439 60.6903L167.469 61.2504L168.029 62.2803Z" fill="black"/>
<path d="M163.65 23.1903L164.21 22.1603L165.24 21.6003L164.21 21.0403L163.65 20.0103L163.09 21.0403L162.06 21.6003L163.09 22.1603L163.65 23.1903Z" fill="black"/>
<path d="M165.88 26.4002L166.44 25.3702L167.47 24.8102L166.44 24.2502L165.88 23.2202L165.32 24.2502L164.29 24.8102L165.32 25.3702L165.88 26.4002Z" fill="black"/>
<path d="M163.65 29.6104L164.21 28.5904L165.24 28.0204L164.21 27.4604L163.65 26.4404L163.09 27.4604L162.06 28.0204L163.09 28.5904L163.65 29.6104Z" fill="black"/>
<path d="M168.029 29.6104L168.589 28.5904L169.619 28.0204L168.589 27.4604L168.029 26.4404L167.469 27.4604L166.439 28.0204L167.469 28.5904L168.029 29.6104Z" fill="black"/>
<path d="M165.88 32.96L166.44 31.94L167.47 31.37L166.44 30.81L165.88 29.79L165.32 30.81L164.29 31.37L165.32 31.94L165.88 32.96Z" fill="black"/>
<path d="M163.65 36.1805L164.21 35.1505L165.24 34.5905L164.21 34.0305L163.65 33.0005L163.09 34.0305L162.06 34.5905L163.09 35.1505L163.65 36.1805Z" fill="black"/>
<path d="M168.029 36.1805L168.589 35.1505L169.619 34.5905L168.589 34.0305L168.029 33.0005L167.469 34.0305L166.439 34.5905L167.469 35.1505L168.029 36.1805Z" fill="black"/>
<path d="M165.88 39.3904L166.44 38.3605L167.47 37.8004L166.44 37.2405L165.88 36.2104L165.32 37.2405L164.29 37.8004L165.32 38.3605L165.88 39.3904Z" fill="black"/>
<path d="M163.65 42.6002L164.21 41.5802L165.24 41.0202L164.21 40.4502L163.65 39.4302L163.09 40.4502L162.06 41.0202L163.09 41.5802L163.65 42.6002Z" fill="black"/>
<path d="M168.029 42.6002L168.589 41.5802L169.619 41.0202L168.589 40.4502L168.029 39.4302L167.469 40.4502L166.439 41.0202L167.469 41.5802L168.029 42.6002Z" fill="black"/>
<path d="M165.87 75.6104L165.31 76.6303L164.28 77.2003L165.31 77.7604L165.87 78.7803L166.43 77.7604L167.46 77.2003L166.43 76.6303L165.87 75.6104Z" fill="black"/>
<path d="M161.42 75.6104L160.86 76.6303L159.84 77.2003L160.86 77.7604L161.42 78.7803L161.99 77.7604L163.01 77.2003L161.99 76.6303L161.42 75.6104Z" fill="black"/>
<path d="M168.1 72.3901L167.53 73.4201L166.51 73.9801L167.53 74.5401L168.1 75.5701L168.66 74.5401L169.68 73.9801L168.66 73.4201L168.1 72.3901Z" fill="black"/>
<path d="M163.65 72.3901L163.09 73.4201L162.06 73.9801L163.09 74.5401L163.65 75.5701L164.21 74.5401L165.24 73.9801L164.21 73.4201L163.65 72.3901Z" fill="black"/>
<path d="M165.87 69.1802L165.31 70.2102L164.28 70.7702L165.31 71.3302L165.87 72.3602L166.43 71.3302L167.46 70.7702L166.43 70.2102L165.87 69.1802Z" fill="black"/>
<path d="M161.42 69.1802L160.86 70.2102L159.84 70.7702L160.86 71.3302L161.42 72.3602L161.99 71.3302L163.01 70.7702L161.99 70.2102L161.42 69.1802Z" fill="black"/>
<path d="M168.1 65.9702L167.53 66.9902L166.51 67.5502L167.53 68.1202L168.1 69.1402L168.66 68.1202L169.68 67.5502L168.66 66.9902L168.1 65.9702Z" fill="black"/>
<path d="M163.65 65.9702L163.09 66.9902L162.06 67.5502L163.09 68.1202L163.65 69.1402L164.21 68.1202L165.24 67.5502L164.21 66.9902L163.65 65.9702Z" fill="black"/>
<path d="M165.87 62.6201L165.31 63.6401L164.28 64.2001L165.31 64.7701L165.87 65.7901L166.43 64.7701L167.46 64.2001L166.43 63.6401L165.87 62.6201Z" fill="black"/>
<path d="M161.42 62.6201L160.86 63.6401L159.84 64.2001L160.86 64.7701L161.42 65.7901L161.99 64.7701L163.01 64.2001L161.99 63.6401L161.42 62.6201Z" fill="black"/>
<path d="M165.87 101.71L165.31 102.74L164.28 103.3L165.31 103.86L165.87 104.89L166.43 103.86L167.46 103.3L166.43 102.74L165.87 101.71Z" fill="black"/>
<path d="M161.43 101.71L160.86 102.74L159.84 103.3L160.86 103.86L161.43 104.89L161.99 103.86L163.01 103.3L161.99 102.74L161.43 101.71Z" fill="black"/>
<path d="M168.1 98.5L167.53 99.52L166.51 100.09L167.53 100.65L168.1 101.67L168.66 100.65L169.68 100.09L168.66 99.52L168.1 98.5Z" fill="black"/>
<path d="M163.65 98.5L163.09 99.52L162.06 100.09L163.09 100.65L163.65 101.67L164.21 100.65L165.24 100.09L164.21 99.52L163.65 98.5Z" fill="black"/>
<path d="M165.87 95.29L165.31 96.31L164.28 96.87L165.31 97.43L165.87 98.46L166.43 97.43L167.46 96.87L166.43 96.31L165.87 95.29Z" fill="black"/>
<path d="M161.43 95.29L160.86 96.31L159.84 96.87L160.86 97.43L161.43 98.46L161.99 97.43L163.01 96.87L161.99 96.31L161.43 95.29Z" fill="black"/>
<path d="M168.1 92.0703L167.53 93.1003L166.51 93.6603L167.53 94.2203L168.1 95.2503L168.66 94.2203L169.68 93.6603L168.66 93.1003L168.1 92.0703Z" fill="black"/>
<path d="M163.65 92.0703L163.09 93.1003L162.06 93.6603L163.09 94.2203L163.65 95.2503L164.21 94.2203L165.24 93.6603L164.21 93.1003L163.65 92.0703Z" fill="black"/>
<path d="M165.87 88.7202L165.31 89.7502L164.28 90.3102L165.31 90.8702L165.87 91.9002L166.43 90.8702L167.46 90.3102L166.43 89.7502L165.87 88.7202Z" fill="black"/>
<path d="M161.43 88.7202L160.86 89.7502L159.84 90.3102L160.86 90.8702L161.43 91.9002L161.99 90.8702L163.01 90.3102L161.99 89.7502L161.43 88.7202Z" fill="black"/>
<path d="M168.1 85.5103L167.53 86.5303L166.51 87.0902L167.53 87.6603L168.1 88.6803L168.66 87.6603L169.68 87.0902L168.66 86.5303L168.1 85.5103Z" fill="black"/>
<path d="M163.65 85.5103L163.09 86.5303L162.06 87.0902L163.09 87.6603L163.65 88.6803L164.21 87.6603L165.24 87.0902L164.21 86.5303L163.65 85.5103Z" fill="black"/>
<path d="M165.87 82.29L165.31 83.32L164.28 83.88L165.31 84.44L165.87 85.47L166.43 84.44L167.46 83.88L166.43 83.32L165.87 82.29Z" fill="black"/>
<path d="M161.42 82.29L160.86 83.32L159.84 83.88L160.86 84.44L161.42 85.47L161.99 84.44L163.01 83.88L161.99 83.32L161.42 82.29Z" fill="black"/>
<path d="M168.1 79.0801L167.53 80.1101L166.51 80.6701L167.53 81.2301L168.1 82.2601L168.66 81.2301L169.68 80.6701L168.66 80.1101L168.1 79.0801Z" fill="black"/>
<path d="M163.65 79.0801L163.09 80.1101L162.06 80.6701L163.09 81.2301L163.65 82.2601L164.21 81.2301L165.24 80.6701L164.21 80.1101L163.65 79.0801Z" fill="black"/>
<path d="M168.1 105.28L167.53 106.31L166.51 106.87L167.53 107.43L168.1 108.46L168.66 107.43L169.68 106.87L168.66 106.31L168.1 105.28Z" fill="black"/>
<path d="M163.65 105.28L163.09 106.31L162.06 106.87L163.09 107.43L163.65 108.46L164.21 107.43L165.24 106.87L164.21 106.31L163.65 105.28Z" fill="black"/>
<path d="M156.35 75.6104L155.79 76.6303L154.76 77.2003L155.79 77.7604L156.35 78.7803L156.91 77.7604L157.94 77.2003L156.91 76.6303L156.35 75.6104Z" fill="black"/>
<path d="M151.97 75.6104L151.41 76.6303L150.38 77.2003L151.41 77.7604L151.97 78.7803L152.53 77.7604L153.56 77.2003L152.53 76.6303L151.97 75.6104Z" fill="black"/>
<path d="M158.57 72.3901L158.01 73.4201L156.99 73.9801L158.01 74.5401L158.57 75.5701L159.14 74.5401L160.16 73.9801L159.14 73.4201L158.57 72.3901Z" fill="black"/>
<path d="M154.2 72.3901L153.64 73.4201L152.61 73.9801L153.64 74.5401L154.2 75.5701L154.76 74.5401L155.79 73.9801L154.76 73.4201L154.2 72.3901Z" fill="black"/>
<path d="M149.76 72.3901L149.19 73.4201L148.17 73.9801L149.19 74.5401L149.76 75.5701L150.32 74.5401L151.34 73.9801L150.32 73.4201L149.76 72.3901Z" fill="black"/>
<path d="M156.35 69.1802L155.79 70.2102L154.76 70.7702L155.79 71.3302L156.35 72.3602L156.91 71.3302L157.94 70.7702L156.91 70.2102L156.35 69.1802Z" fill="black"/>
<path d="M151.97 69.1802L151.41 70.2102L150.38 70.7702L151.41 71.3302L151.97 72.3602L152.53 71.3302L153.56 70.7702L152.53 70.2102L151.97 69.1802Z" fill="black"/>
<path d="M158.57 65.9702L158.01 66.9902L156.99 67.5502L158.01 68.1202L158.57 69.1402L159.14 68.1202L160.16 67.5502L159.14 66.9902L158.57 65.9702Z" fill="black"/>
<path d="M154.2 65.9702L153.64 66.9902L152.61 67.5502L153.64 68.1202L154.2 69.1402L154.76 68.1202L155.79 67.5502L154.76 66.9902L154.2 65.9702Z" fill="black"/>
<path d="M149.76 65.9702L149.19 66.9902L148.17 67.5502L149.19 68.1202L149.76 69.1402L150.32 68.1202L151.34 67.5502L150.32 66.9902L149.76 65.9702Z" fill="black"/>
<path d="M156.35 62.6201L155.79 63.6401L154.76 64.2001L155.79 64.7701L156.35 65.7901L156.91 64.7701L157.94 64.2001L156.91 63.6401L156.35 62.6201Z" fill="black"/>
<path d="M151.97 62.6201L151.41 63.6401L150.38 64.2001L151.41 64.7701L151.97 65.7901L152.53 64.7701L153.56 64.2001L152.53 63.6401L151.97 62.6201Z" fill="black"/>
<path d="M156.35 101.71L155.79 102.74L154.76 103.3L155.79 103.86L156.35 104.89L156.91 103.86L157.94 103.3L156.91 102.74L156.35 101.71Z" fill="black"/>
<path d="M151.97 101.71L151.41 102.74L150.38 103.3L151.41 103.86L151.97 104.89L152.53 103.86L153.56 103.3L152.53 102.74L151.97 101.71Z" fill="black"/>
<path d="M158.57 98.5L158.01 99.52L156.99 100.09L158.01 100.65L158.57 101.67L159.14 100.65L160.16 100.09L159.14 99.52L158.57 98.5Z" fill="black"/>
<path d="M154.2 98.5L153.64 99.52L152.61 100.09L153.64 100.65L154.2 101.67L154.76 100.65L155.79 100.09L154.76 99.52L154.2 98.5Z" fill="black"/>
<path d="M149.76 98.5L149.19 99.52L148.17 100.09L149.19 100.65L149.76 101.67L150.32 100.65L151.34 100.09L150.32 99.52L149.76 98.5Z" fill="black"/>
<path d="M156.35 95.29L155.79 96.31L154.76 96.87L155.79 97.43L156.35 98.46L156.91 97.43L157.94 96.87L156.91 96.31L156.35 95.29Z" fill="black"/>
<path d="M151.97 95.29L151.41 96.31L150.38 96.87L151.41 97.43L151.97 98.46L152.53 97.43L153.56 96.87L152.53 96.31L151.97 95.29Z" fill="black"/>
<path d="M158.57 92.0703L158.01 93.1003L156.99 93.6603L158.01 94.2203L158.57 95.2503L159.14 94.2203L160.16 93.6603L159.14 93.1003L158.57 92.0703Z" fill="black"/>
<path d="M154.2 92.0703L153.64 93.1003L152.61 93.6603L153.64 94.2203L154.2 95.2503L154.76 94.2203L155.79 93.6603L154.76 93.1003L154.2 92.0703Z" fill="black"/>
<path d="M149.76 92.0703L149.19 93.1003L148.17 93.6603L149.19 94.2203L149.76 95.2503L150.32 94.2203L151.34 93.6603L150.32 93.1003L149.76 92.0703Z" fill="black"/>
<path d="M156.35 88.7202L155.79 89.7502L154.76 90.3102L155.79 90.8702L156.35 91.9002L156.91 90.8702L157.94 90.3102L156.91 89.7502L156.35 88.7202Z" fill="black"/>
<path d="M151.97 88.7202L151.41 89.7502L150.38 90.3102L151.41 90.8702L151.97 91.9002L152.53 90.8702L153.56 90.3102L152.53 89.7502L151.97 88.7202Z" fill="black"/>
<path d="M158.57 85.5103L158.01 86.5303L156.99 87.0902L158.01 87.6603L158.57 88.6803L159.14 87.6603L160.16 87.0902L159.14 86.5303L158.57 85.5103Z" fill="black"/>
<path d="M154.2 85.5103L153.64 86.5303L152.61 87.0902L153.64 87.6603L154.2 88.6803L154.76 87.6603L155.79 87.0902L154.76 86.5303L154.2 85.5103Z" fill="black"/>
<path d="M149.76 85.5103L149.19 86.5303L148.17 87.0902L149.19 87.6603L149.76 88.6803L150.32 87.6603L151.34 87.0902L150.32 86.5303L149.76 85.5103Z" fill="black"/>
<path d="M156.35 82.29L155.79 83.32L154.76 83.88L155.79 84.44L156.35 85.47L156.91 84.44L157.94 83.88L156.91 83.32L156.35 82.29Z" fill="black"/>
<path d="M151.97 82.29L151.41 83.32L150.38 83.88L151.41 84.44L151.97 85.47L152.53 84.44L153.56 83.88L152.53 83.32L151.97 82.29Z" fill="black"/>
<path d="M158.57 79.0801L158.01 80.1101L156.99 80.6701L158.01 81.2301L158.57 82.2601L159.14 81.2301L160.16 80.6701L159.14 80.1101L158.57 79.0801Z" fill="black"/>
<path d="M154.2 79.0801L153.64 80.1101L152.61 80.6701L153.64 81.2301L154.2 82.2601L154.76 81.2301L155.79 80.6701L154.76 80.1101L154.2 79.0801Z" fill="black"/>
<path d="M149.76 79.0801L149.19 80.1101L148.17 80.6701L149.19 81.2301L149.76 82.2601L150.32 81.2301L151.34 80.6701L150.32 80.1101L149.76 79.0801Z" fill="black"/>
<path d="M158.57 105.28L158.01 106.31L156.99 106.87L158.01 107.43L158.57 108.46L159.14 107.43L160.16 106.87L159.14 106.31L158.57 105.28Z" fill="black"/>
<path d="M154.2 105.28L153.64 106.31L152.61 106.87L153.64 107.43L154.2 108.46L154.76 107.43L155.79 106.87L154.76 106.31L154.2 105.28Z" fill="black"/>
<path d="M149.76 105.28L149.19 106.31L148.17 106.87L149.19 107.43L149.76 108.46L150.32 107.43L151.34 106.87L150.32 106.31L149.76 105.28Z" fill="black"/>
<path d="M149.761 115.7L150.321 114.68L151.341 114.12L150.321 113.55L149.761 112.53L149.191 113.55L148.171 114.12L149.191 114.68L149.761 115.7Z" fill="black"/>
<path d="M154.13 115.7L154.69 114.68L155.72 114.12L154.69 113.55L154.13 112.53L153.57 113.55L152.54 114.12L153.57 114.68L154.13 115.7Z" fill="black"/>
<path d="M158.57 115.7L159.14 114.68L160.16 114.12L159.14 113.55L158.57 112.53L158.01 113.55L156.99 114.12L158.01 114.68L158.57 115.7Z" fill="black"/>
<path d="M147.53 118.92L148.09 117.89L149.12 117.33L148.09 116.77L147.53 115.74L146.97 116.77L145.94 117.33L146.97 117.89L147.53 118.92Z" fill="black"/>
<path d="M151.9 118.92L152.47 117.89L153.49 117.33L152.47 116.77L151.9 115.74L151.34 116.77L150.32 117.33L151.34 117.89L151.9 118.92Z" fill="black"/>
<path d="M156.351 118.92L156.911 117.89L157.941 117.33L156.911 116.77L156.351 115.74L155.791 116.77L154.761 117.33L155.791 117.89L156.351 118.92Z" fill="black"/>
<path d="M149.761 122.13L150.321 121.1L151.341 120.54L150.321 119.98L149.761 118.95L149.191 119.98L148.171 120.54L149.191 121.1L149.761 122.13Z" fill="black"/>
<path d="M154.13 122.13L154.69 121.1L155.72 120.54L154.69 119.98L154.13 118.95L153.57 119.98L152.54 120.54L153.57 121.1L154.13 122.13Z" fill="black"/>
<path d="M158.57 122.13L159.14 121.1L160.16 120.54L159.14 119.98L158.57 118.95L158.01 119.98L156.99 120.54L158.01 121.1L158.57 122.13Z" fill="black"/>
<path d="M147.53 125.34L148.09 124.32L149.12 123.76L148.09 123.19L147.53 122.17L146.97 123.19L145.94 123.76L146.97 124.32L147.53 125.34Z" fill="black"/>
<path d="M151.9 125.34L152.47 124.32L153.49 123.76L152.47 123.19L151.9 122.17L151.34 123.19L150.32 123.76L151.34 124.32L151.9 125.34Z" fill="black"/>
<path d="M156.351 125.34L156.911 124.32L157.941 123.76L156.911 123.19L156.351 122.17L155.791 123.19L154.761 123.76L155.791 124.32L156.351 125.34Z" fill="black"/>
<path d="M149.761 128.691L150.321 127.671L151.341 127.111L150.321 126.541L149.761 125.521L149.191 126.541L148.171 127.111L149.191 127.671L149.761 128.691Z" fill="black"/>
<path d="M154.13 128.691L154.69 127.671L155.72 127.111L154.69 126.541L154.13 125.521L153.57 126.541L152.54 127.111L153.57 127.671L154.13 128.691Z" fill="black"/>
<path d="M158.57 128.691L159.14 127.671L160.16 127.111L159.14 126.541L158.57 125.521L158.01 126.541L156.99 127.111L158.01 127.671L158.57 128.691Z" fill="black"/>
<path d="M147.53 131.91L148.09 130.88L149.12 130.32L148.09 129.76L147.53 128.73L146.97 129.76L145.94 130.32L146.97 130.88L147.53 131.91Z" fill="black"/>
<path d="M151.9 131.91L152.47 130.88L153.49 130.32L152.47 129.76L151.9 128.73L151.34 129.76L150.32 130.32L151.34 130.88L151.9 131.91Z" fill="black"/>
<path d="M156.351 131.91L156.911 130.88L157.941 130.32L156.911 129.76L156.351 128.73L155.791 129.76L154.761 130.32L155.791 130.88L156.351 131.91Z" fill="black"/>
<path d="M147.53 112.13L148.09 111.1L149.12 110.54L148.09 109.98L147.53 108.96L146.97 109.98L145.94 110.54L146.97 111.1L147.53 112.13Z" fill="black"/>
<path d="M151.9 112.13L152.47 111.1L153.49 110.54L152.47 109.98L151.9 108.96L151.34 109.98L150.32 110.54L151.34 111.1L151.9 112.13Z" fill="black"/>
<path d="M156.351 112.13L156.911 111.1L157.941 110.54L156.911 109.98L156.351 108.96L155.791 109.98L154.761 110.54L155.791 111.1L156.351 112.13Z" fill="black"/>
<path d="M163.651 115.7L164.211 114.68L165.241 114.12L164.211 113.55L163.651 112.53L163.091 113.55L162.061 114.12L163.091 114.68L163.651 115.7Z" fill="black"/>
<path d="M168.03 115.7L168.59 114.68L169.62 114.12L168.59 113.55L168.03 112.53L167.47 113.55L166.44 114.12L167.47 114.68L168.03 115.7Z" fill="black"/>
<path d="M161.431 118.92L161.991 117.89L163.011 117.33L161.991 116.77L161.431 115.74L160.861 116.77L159.841 117.33L160.861 117.89L161.431 118.92Z" fill="black"/>
<path d="M165.801 118.92L166.361 117.89L167.391 117.33L166.361 116.77L165.801 115.74L165.241 116.77L164.211 117.33L165.241 117.89L165.801 118.92Z" fill="black"/>
<path d="M163.651 122.13L164.211 121.1L165.241 120.54L164.211 119.98L163.651 118.95L163.091 119.98L162.061 120.54L163.091 121.1L163.651 122.13Z" fill="black"/>
<path d="M168.03 122.13L168.59 121.1L169.62 120.54L168.59 119.98L168.03 118.95L167.47 119.98L166.44 120.54L167.47 121.1L168.03 122.13Z" fill="black"/>
<path d="M161.431 125.34L161.991 124.32L163.011 123.76L161.991 123.19L161.431 122.17L160.861 123.19L159.841 123.76L160.861 124.32L161.431 125.34Z" fill="black"/>
<path d="M165.801 125.34L166.361 124.32L167.391 123.76L166.361 123.19L165.801 122.17L165.241 123.19L164.211 123.76L165.241 124.32L165.801 125.34Z" fill="black"/>
<path d="M163.651 128.691L164.211 127.671L165.241 127.111L164.211 126.541L163.651 125.521L163.091 126.541L162.061 127.111L163.091 127.671L163.651 128.691Z" fill="black"/>
<path d="M168.03 128.691L168.59 127.671L169.62 127.111L168.59 126.541L168.03 125.521L167.47 126.541L166.44 127.111L167.47 127.671L168.03 128.691Z" fill="black"/>
<path d="M161.431 131.91L161.991 130.88L163.011 130.32L161.991 129.76L161.431 128.73L160.861 129.76L159.841 130.32L160.861 130.88L161.431 131.91Z" fill="black"/>
<path d="M165.801 131.91L166.361 130.88L167.391 130.32L166.361 129.76L165.801 128.73L165.241 129.76L164.211 130.32L165.241 130.88L165.801 131.91Z" fill="black"/>
<path d="M161.431 112.13L161.991 111.1L163.011 110.54L161.991 109.98L161.431 108.96L160.861 109.98L159.841 110.54L160.861 111.1L161.431 112.13Z" fill="black"/>
<path d="M165.801 112.13L166.361 111.1L167.391 110.54L166.361 109.98L165.801 108.96L165.241 109.98L164.211 110.54L165.241 111.1L165.801 112.13Z" fill="black"/>
<path d="M132.65 54.1302H28.4498C25.0898 54.1302 22.3398 51.3802 22.3398 48.0202C22.3398 44.6602 25.0898 41.9102 28.4498 41.9102H132.65C136.01 41.9102 138.76 44.6602 138.76 48.0202C138.76 51.3802 136.01 54.1302 132.65 54.1302Z" fill="#FFDE16" stroke="black" stroke-width="3" stroke-miterlimit="10" stroke-linecap="round" stroke-linejoin="round"/>
<path d="M131.76 108.96H31.2998C27.4498 108.96 24.2998 105.81 24.2998 101.96V77.77C24.2998 73.92 27.4498 70.77 31.2998 70.77H131.76C135.61 70.77 138.76 73.92 138.76 77.77V101.96C138.76 105.81 135.61 108.96 131.76 108.96Z" fill="#FF6CE0" stroke="black" stroke-width="3" stroke-miterlimit="10" stroke-linecap="round" stroke-linejoin="round"/>
<path d="M140.32 40.57C138.36 38.61 138.36 35.4 140.32 33.44L170.79 2.97C172.75 1.01 175.96 1.01 177.92 2.97C179.88 4.93 179.88 8.14 177.92 10.1L147.45 40.57C145.49 42.53 142.29 42.53 140.32 40.57Z" fill="white" stroke="black" stroke-width="3" stroke-miterlimit="10" stroke-linecap="round" stroke-linejoin="round"/>
<path d="M162.46 40.2198L132.04 48.1198L140.67 18.4398L157.05 12.5898L167.87 23.4098L162.46 40.2198Z" fill="white" stroke="black" stroke-width="3" stroke-miterlimit="10" stroke-linecap="round" stroke-linejoin="round"/>
<path d="M150.03 33.5602C151.515 33.5602 152.72 32.3558 152.72 30.8702C152.72 29.3845 151.515 28.1802 150.03 28.1802C148.544 28.1802 147.34 29.3845 147.34 30.8702C147.34 32.3558 148.544 33.5602 150.03 33.5602Z" fill="white" stroke="black" stroke-width="3" stroke-miterlimit="10" stroke-linecap="round" stroke-linejoin="round"/>
<path d="M159.53 6.30008L174.59 21.3601C175.8 22.5701 175.8 24.5401 174.59 25.7501C173.38 26.9601 171.41 26.9601 170.2 25.7501L155.14 10.6901C153.93 9.48008 153.93 7.51008 155.14 6.30008C156.35 5.09008 158.33 5.09008 159.53 6.30008Z" fill="white" stroke="black" stroke-width="3" stroke-miterlimit="10" stroke-linecap="round" stroke-linejoin="round"/>
<path d="M133 47.8903L151.35 29.5503" stroke="black" stroke-width="3" stroke-miterlimit="10" stroke-linecap="round" stroke-linejoin="round"/>
</g>
<defs>
<clipPath id="clip0111">
<rect width="180.89" height="133.29" fill="white"/>
</clipPath>
</defs>
</svg>
