<svg width="482" height="545" viewBox="0 0 482 545" fill="none" xmlns="http://www.w3.org/2000/svg">
<g clip-path="url(#clip0)">
<path d="M395.5 160.007C436.646 160.007 470.001 126.848 470.001 85.9439C470.001 45.0399 436.646 11.8806 395.5 11.8806C354.354 11.8806 320.999 45.0399 320.999 85.9439C320.999 126.848 354.354 160.007 395.5 160.007Z" fill="white" stroke="black" stroke-width="3" stroke-miterlimit="10" stroke-linecap="round" stroke-linejoin="round"/>
<path d="M408.869 36.6147H404.295C403.323 32.6832 401.738 28.9965 399.641 25.6607L402.937 22.3845C404.135 21.1931 404.135 19.2406 402.937 18.0426L394.801 9.95453C393.596 8.76316 391.632 8.76316 390.433 9.95453L387.078 13.2904C383.729 11.265 380.041 9.74935 376.119 8.82273V4.05726C376.119 2.36949 374.728 0.992798 373.03 0.992798H361.525C359.827 0.992798 358.436 2.36949 358.436 4.05726V8.82273C354.514 9.74935 350.826 11.265 347.484 13.2904L344.121 9.95453C342.923 8.76316 340.959 8.76316 339.754 9.95453L331.618 18.0426C330.42 19.2406 330.42 21.1931 331.618 22.3845L334.914 25.6607C332.816 28.9965 331.232 32.6832 330.26 36.6147H325.686C323.988 36.6147 322.603 37.998 322.603 39.6858V51.1229C322.603 52.8106 323.988 54.194 325.686 54.194H330.12C331.045 58.1983 332.597 61.9643 334.687 65.3729L331.618 68.4242C330.42 69.6155 330.42 71.5681 331.618 72.766L339.754 80.8541C340.959 82.0455 342.923 82.0455 344.121 80.8541L347.124 77.8691C350.566 80.0069 354.374 81.602 358.436 82.5617V86.7514C358.436 88.4391 359.827 89.8158 361.525 89.8158H373.03C374.728 89.8158 376.119 88.4391 376.119 86.7514V82.5617C380.18 81.602 383.989 80.0069 387.431 77.8691L390.433 80.8541C391.632 82.0455 393.596 82.0455 394.801 80.8541L402.937 72.766C404.135 71.5681 404.135 69.6155 402.937 68.4242L399.868 65.3729C401.958 61.9643 403.509 58.1983 404.435 54.194H408.869C410.567 54.194 411.952 52.8106 411.952 51.1229V39.6858C411.952 37.998 410.567 36.6147 408.869 36.6147ZM367.277 64.6184C356.605 64.6184 347.95 56.0141 347.95 45.4043C347.95 34.7945 356.605 26.1902 367.277 26.1902C377.95 26.1902 386.605 34.7945 386.605 45.4043C386.605 56.0141 377.95 64.6184 367.277 64.6184Z" fill="#9E6CFF" stroke="black" stroke-width="3" stroke-miterlimit="10" stroke-linecap="round" stroke-linejoin="round"/>
<path d="M445.028 98.268L442.764 92.8274C442.125 91.2852 440.327 90.5373 438.776 91.1793L434.062 93.1186C430.807 88.4723 426.086 84.918 420.56 83.1177L420.873 78.4118C420.98 76.7506 419.695 75.2878 418.024 75.1819L412.111 74.7914C410.44 74.6855 408.969 75.9629 408.862 77.6242L408.569 82.0654C403.19 82.8133 398.316 85.1629 394.481 88.6245L391.019 86.2815C389.628 85.3416 387.717 85.7057 386.778 87.089L383.443 91.9537C382.497 93.337 382.863 95.2366 384.255 96.1765L387.617 98.4533C386.419 101.465 385.753 104.741 385.753 108.176C385.753 109.751 385.899 111.294 386.166 112.789L382.377 114.345C380.819 114.98 380.074 116.767 380.72 118.309L382.977 123.75C383.616 125.292 385.413 126.04 386.978 125.398L390.906 123.776C394.375 128.476 399.382 131.977 405.181 133.579L404.881 138.159C404.768 139.82 406.053 141.276 407.73 141.389L413.643 141.766C415.314 141.879 416.778 140.601 416.892 138.94L417.211 134.082C422.278 133.142 426.839 130.759 430.454 127.384L434.728 130.276C436.12 131.209 438.03 130.852 438.976 129.469L442.311 124.597C443.25 123.22 442.891 121.314 441.499 120.381L437.132 117.429C438.223 114.543 438.829 111.419 438.829 108.15C438.829 106.806 438.723 105.489 438.53 104.198L443.377 102.206C444.921 101.597 445.674 99.8101 445.028 98.268ZM412.284 122.38C404.395 122.38 397.997 116.019 397.997 108.176C397.997 100.333 404.395 93.979 412.284 93.979C420.174 93.979 426.566 100.333 426.566 108.176C426.566 116.019 420.174 122.38 412.284 122.38Z" fill="#9E6CFF" stroke="black" stroke-width="3" stroke-miterlimit="10" stroke-linecap="round" stroke-linejoin="round"/>
<path d="M398.989 16.4475L398.503 17.3344L397.611 17.8242L398.503 18.3074L398.989 19.2009L399.481 18.3074L400.374 17.8242L399.481 17.3344L398.989 16.4475Z" fill="black"/>
<path d="M395.12 16.4475L394.628 17.3344L393.736 17.8242L394.628 18.3074L395.12 19.2009L395.607 18.3074L396.499 17.8242L395.607 17.3344L395.12 16.4475Z" fill="black"/>
<path d="M397.058 13.661L396.572 14.5479L395.673 15.0377L396.572 15.5209L397.058 16.4144L397.551 15.5209L398.443 15.0377L397.551 14.5479L397.058 13.661Z" fill="black"/>
<path d="M398.989 10.8745L398.503 11.768L397.611 12.2512L398.503 12.741L398.989 13.6279L399.481 12.741L400.374 12.2512L399.481 11.768L398.989 10.8745Z" fill="black"/>
<path d="M395.12 10.8745L394.628 11.768L393.736 12.2512L394.628 12.741L395.12 13.6279L395.607 12.741L396.499 12.2512L395.607 11.768L395.12 10.8745Z" fill="black"/>
<path d="M398.989 39.1562L398.503 40.0498L397.611 40.5329L398.503 41.0227L398.989 41.9096L399.481 41.0227L400.374 40.5329L399.481 40.0498L398.989 39.1562Z" fill="black"/>
<path d="M400.933 36.3698L400.447 37.2633L399.548 37.7464L400.447 38.2362L400.933 39.1231L401.425 38.2362L402.318 37.7464L401.425 37.2633L400.933 36.3698Z" fill="black"/>
<path d="M398.989 33.59L398.503 34.4769L397.611 34.96L398.503 35.4498L398.989 36.3367L399.481 35.4498L400.374 34.96L399.481 34.4769L398.989 33.59Z" fill="black"/>
<path d="M400.933 30.8035L400.447 31.6904L399.548 32.1802L400.447 32.6633L400.933 33.5502L401.425 32.6633L402.318 32.1802L401.425 31.6904L400.933 30.8035Z" fill="black"/>
<path d="M397.058 30.8035L396.572 31.6904L395.673 32.1802L396.572 32.6633L397.058 33.5502L397.551 32.6633L398.443 32.1802L397.551 31.6904L397.058 30.8035Z" fill="black"/>
<path d="M398.989 27.8978L398.503 28.7847L397.611 29.2745L398.503 29.7577L398.989 30.6512L399.481 29.7577L400.374 29.2745L399.481 28.7847L398.989 27.8978Z" fill="black"/>
<path d="M395.12 27.8978L394.628 28.7847L393.736 29.2745L394.628 29.7577L395.12 30.6512L395.607 29.7577L396.499 29.2745L395.607 28.7847L395.12 27.8978Z" fill="black"/>
<path d="M397.058 25.1113L396.572 26.0049L395.673 26.488L396.572 26.9778L397.058 27.8647L397.551 26.9778L398.443 26.488L397.551 26.0049L397.058 25.1113Z" fill="black"/>
<path d="M398.989 22.3315L398.503 23.2185L397.611 23.7016L398.503 24.1914L398.989 25.0783L399.481 24.1914L400.374 23.7016L399.481 23.2185L398.989 22.3315Z" fill="black"/>
<path d="M395.12 22.3315L394.628 23.2185L393.736 23.7016L394.628 24.1914L395.12 25.0783L395.607 24.1914L396.499 23.7016L395.607 23.2185L395.12 22.3315Z" fill="black"/>
<path d="M400.933 19.545L400.447 20.432L399.548 20.9217L400.447 21.4049L400.933 22.2918L401.425 21.4049L402.318 20.9217L401.425 20.432L400.933 19.545Z" fill="black"/>
<path d="M397.058 19.545L396.572 20.432L395.673 20.9217L396.572 21.4049L397.058 22.2918L397.551 21.4049L398.443 20.9217L397.551 20.432L397.058 19.545Z" fill="black"/>
<path d="M398.989 61.7789L398.503 62.6725L397.611 63.1556L398.503 63.6454L398.989 64.5323L399.481 63.6454L400.374 63.1556L399.481 62.6725L398.989 61.7789Z" fill="black"/>
<path d="M395.12 61.7789L394.628 62.6725L393.736 63.1556L394.628 63.6454L395.12 64.5323L395.607 63.6454L396.499 63.1556L395.607 62.6725L395.12 61.7789Z" fill="black"/>
<path d="M400.933 58.999L400.447 59.8859L399.548 60.3691L400.447 60.8589L400.933 61.7458L401.425 60.8589L402.318 60.3691L401.425 59.8859L400.933 58.999Z" fill="black"/>
<path d="M397.058 58.999L396.572 59.8859L395.673 60.3691L396.572 60.8589L397.058 61.7458L397.551 60.8589L398.443 60.3691L397.551 59.8859L397.058 58.999Z" fill="black"/>
<path d="M398.989 56.2126L398.503 57.0996L397.611 57.5893L398.503 58.0725L398.989 58.966L399.481 58.0725L400.374 57.5893L399.481 57.0996L398.989 56.2126Z" fill="black"/>
<path d="M400.933 53.4261L400.447 54.3131L399.548 54.8028L400.447 55.286L400.933 56.1795L401.425 55.286L402.318 54.8028L401.425 54.3131L400.933 53.4261Z" fill="black"/>
<path d="M400.933 47.734L400.447 48.6275L399.548 49.1107L400.447 49.6005L400.933 50.4874L401.425 49.6005L402.318 49.1107L401.425 48.6275L400.933 47.734Z" fill="black"/>
<path d="M400.933 42.1677L400.447 43.0546L399.548 43.5444L400.447 44.0276L400.933 44.9211L401.425 44.0276L402.318 43.5444L401.425 43.0546L400.933 42.1677Z" fill="black"/>
<path d="M395.12 78.9214L394.628 79.8149L393.736 80.2981L394.628 80.7812L395.12 81.6748L395.607 80.7812L396.499 80.2981L395.607 79.8149L395.12 78.9214Z" fill="black"/>
<path d="M397.058 76.1349L396.572 77.0284L395.673 77.5116L396.572 78.0014L397.058 78.8883L397.551 78.0014L398.443 77.5116L397.551 77.0284L397.058 76.1349Z" fill="black"/>
<path d="M398.989 73.2358L398.503 74.1227L397.611 74.6059L398.503 75.0957L398.989 75.9826L399.481 75.0957L400.374 74.6059L399.481 74.1227L398.989 73.2358Z" fill="black"/>
<path d="M395.12 73.2358L394.628 74.1227L393.736 74.6059L394.628 75.0957L395.12 75.9826L395.607 75.0957L396.499 74.6059L395.607 74.1227L395.12 73.2358Z" fill="black"/>
<path d="M400.933 70.4495L400.447 71.3364L399.548 71.8262L400.447 72.3093L400.933 73.1962L401.425 72.3093L402.318 71.8262L401.425 71.3364L400.933 70.4495Z" fill="black"/>
<path d="M397.058 70.4495L396.572 71.3364L395.673 71.8262L396.572 72.3093L397.058 73.1962L397.551 72.3093L398.443 71.8262L397.551 71.3364L397.058 70.4495Z" fill="black"/>
<path d="M398.989 67.663L398.503 68.5499L397.611 69.0397L398.503 69.5228L398.989 70.4164L399.481 69.5228L400.374 69.0397L399.481 68.5499L398.989 67.663Z" fill="black"/>
<path d="M400.933 64.8765L400.447 65.77L399.548 66.2532L400.447 66.7429L400.933 67.6298L401.425 66.7429L402.318 66.2532L401.425 65.77L400.933 64.8765Z" fill="black"/>
<path d="M397.058 64.8765L396.572 65.77L395.673 66.2532L396.572 66.7429L397.058 67.6298L397.551 66.7429L398.443 66.2532L397.551 65.77L397.058 64.8765Z" fill="black"/>
<path d="M406.812 39.1561L406.326 40.0497L405.434 40.5328L406.326 41.0226L406.812 41.9095L407.304 41.0226L408.197 40.5328L407.304 40.0497L406.812 39.1561Z" fill="black"/>
<path d="M402.943 39.1561L402.451 40.0497L401.559 40.5328L402.451 41.0226L402.943 41.9095L403.429 41.0226L404.322 40.5328L403.429 40.0497L402.943 39.1561Z" fill="black"/>
<path d="M408.756 36.3698L408.27 37.2633L407.371 37.7464L408.27 38.2362L408.756 39.1231L409.248 38.2362L410.141 37.7464L409.248 37.2633L408.756 36.3698Z" fill="black"/>
<path d="M404.881 36.3698L404.395 37.2633L403.496 37.7464L404.395 38.2362L404.881 39.1231L405.374 38.2362L406.266 37.7464L405.374 37.2633L404.881 36.3698Z" fill="black"/>
<path d="M402.943 33.5898L402.451 34.4767L401.559 34.9599L402.451 35.4497L402.943 36.3366L403.429 35.4497L404.322 34.9599L403.429 34.4767L402.943 33.5898Z" fill="black"/>
<path d="M402.943 56.2126L402.451 57.0996L401.559 57.5893L402.451 58.0725L402.943 58.966L403.429 58.0725L404.322 57.5893L403.429 57.0996L402.943 56.2126Z" fill="black"/>
<path d="M404.881 53.4261L404.395 54.3131L403.496 54.8028L404.395 55.286L404.881 56.1795L405.374 55.286L406.266 54.8028L405.374 54.3131L404.881 53.4261Z" fill="black"/>
<path d="M406.812 50.5205L406.326 51.414L405.434 51.8972L406.326 52.387L406.812 53.2739L407.304 52.387L408.197 51.8972L407.304 51.414L406.812 50.5205Z" fill="black"/>
<path d="M402.943 50.5205L402.451 51.414L401.559 51.8972L402.451 52.387L402.943 53.2739L403.429 52.387L404.322 51.8972L403.429 51.414L402.943 50.5205Z" fill="black"/>
<path d="M408.756 47.734L408.27 48.6275L407.371 49.1107L408.27 49.6005L408.756 50.4874L409.248 49.6005L410.141 49.1107L409.248 48.6275L408.756 47.734Z" fill="black"/>
<path d="M404.881 47.734L404.395 48.6275L403.496 49.1107L404.395 49.6005L404.881 50.4874L405.374 49.6005L406.266 49.1107L405.374 48.6275L404.881 47.734Z" fill="black"/>
<path d="M406.812 44.9542L406.326 45.8411L405.434 46.3309L406.326 46.8141L406.812 47.701L407.304 46.8141L408.197 46.3309L407.304 45.8411L406.812 44.9542Z" fill="black"/>
<path d="M402.943 44.9542L402.451 45.8411L401.559 46.3309L402.451 46.8141L402.943 47.701L403.429 46.8141L404.322 46.3309L403.429 45.8411L402.943 44.9542Z" fill="black"/>
<path d="M408.756 42.1677L408.27 43.0546L407.371 43.5444L408.27 44.0276L408.756 44.9211L409.248 44.0276L410.141 43.5444L409.248 43.0546L408.756 42.1677Z" fill="black"/>
<path d="M404.881 42.1677L404.395 43.0546L403.496 43.5444L404.395 44.0276L404.881 44.9211L405.374 44.0276L406.266 43.5444L405.374 43.0546L404.881 42.1677Z" fill="black"/>
<path d="M402.943 67.663L402.451 68.5499L401.559 69.0397L402.451 69.5228L402.943 70.4164L403.429 69.5228L404.322 69.0397L403.429 68.5499L402.943 67.663Z" fill="black"/>
<path d="M410.793 50.3484L410.307 51.2419L409.408 51.7251L410.307 52.2149L410.793 53.1018L411.286 52.2149L412.178 51.7251L411.286 51.2419L410.793 50.3484Z" fill="black"/>
<path d="M410.793 44.7821L410.307 45.669L409.408 46.1588L410.307 46.642L410.793 47.5289L411.286 46.642L412.178 46.1588L411.286 45.669L410.793 44.7821Z" fill="black"/>
<path d="M410.793 39.09L410.307 39.9769L409.408 40.4667L410.307 40.9498L410.793 41.8433L411.286 40.9498L412.178 40.4667L411.286 39.9769L410.793 39.09Z" fill="black"/>
<path d="M390.826 16.4474L390.333 17.3343L389.441 17.8241L390.333 18.3072L390.826 19.2008L391.312 18.3072L392.211 17.8241L391.312 17.3343L390.826 16.4474Z" fill="black"/>
<path d="M392.764 13.661L392.278 14.5479L391.379 15.0377L392.278 15.5209L392.764 16.4144L393.256 15.5209L394.148 15.0377L393.256 14.5479L392.764 13.661Z" fill="black"/>
<path d="M388.949 13.661L388.463 14.5479L387.57 15.0377L388.463 15.5209L388.949 16.4144L389.441 15.5209L390.334 15.0377L389.441 14.5479L388.949 13.661Z" fill="black"/>
<path d="M390.826 10.8745L390.333 11.768L389.441 12.2512L390.333 12.741L390.826 13.6279L391.312 12.741L392.211 12.2512L391.312 11.768L390.826 10.8745Z" fill="black"/>
<path d="M392.764 8.08801L392.278 8.98154L391.379 9.4647L392.278 9.95449L392.764 10.8414L393.256 9.95449L394.148 9.4647L393.256 8.98154L392.764 8.08801Z" fill="black"/>
<path d="M392.764 25.1112L392.278 26.0047L391.379 26.4879L392.278 26.9777L392.764 27.8646L393.256 26.9777L394.148 26.4879L393.256 26.0047L392.764 25.1112Z" fill="black"/>
<path d="M392.764 19.5449L392.278 20.4318L391.379 20.9216L392.278 21.4048L392.764 22.2917L393.256 21.4048L394.148 20.9216L393.256 20.4318L392.764 19.5449Z" fill="black"/>
<path d="M390.826 78.9214L390.333 79.8149L389.441 80.2981L390.333 80.7812L390.826 81.6748L391.312 80.7812L392.211 80.2981L391.312 79.8149L390.826 78.9214Z" fill="black"/>
<path d="M392.764 76.1349L392.278 77.0284L391.379 77.5116L392.278 78.0014L392.764 78.8883L393.256 78.0014L394.148 77.5116L393.256 77.0284L392.764 76.1349Z" fill="black"/>
<path d="M388.949 76.1349L388.463 77.0284L387.57 77.5116L388.463 78.0014L388.949 78.8883L389.441 78.0014L390.334 77.5116L389.441 77.0284L388.949 76.1349Z" fill="black"/>
<path d="M441.519 99.1946L441.026 100.088L440.134 100.571L441.026 101.061L441.519 101.948L442.005 101.061L442.904 100.571L442.005 100.088L441.519 99.1946Z" fill="black"/>
<path d="M437.644 99.1946L437.152 100.088L436.259 100.571L437.152 101.061L437.644 101.948L438.13 101.061L439.029 100.571L438.13 100.088L437.644 99.1946Z" fill="black"/>
<path d="M443.456 96.4148L442.97 97.3017L442.072 97.7849L442.97 98.2746L443.456 99.1616L443.949 98.2746L444.841 97.7849L443.949 97.3017L443.456 96.4148Z" fill="black"/>
<path d="M439.582 96.4148L439.096 97.3017L438.203 97.7849L439.096 98.2746L439.582 99.1616L440.074 98.2746L440.966 97.7849L440.074 97.3017L439.582 96.4148Z" fill="black"/>
<path d="M441.519 93.6283L441.026 94.5152L440.134 95.005L441.026 95.4881L441.519 96.3817L442.005 95.4881L442.904 95.005L442.005 94.5152L441.519 93.6283Z" fill="black"/>
<path d="M437.644 93.6283L437.152 94.5152L436.259 95.005L437.152 95.4881L437.644 96.3817L438.13 95.4881L439.029 95.005L438.13 94.5152L437.644 93.6283Z" fill="black"/>
<path d="M439.582 90.8418L439.096 91.7287L438.203 92.2185L439.096 92.7017L439.582 93.5952L440.074 92.7017L440.966 92.2185L440.074 91.7287L439.582 90.8418Z" fill="black"/>
<path d="M441.519 121.824L441.026 122.711L440.134 123.194L441.026 123.684L441.519 124.571L442.005 123.684L442.904 123.194L442.005 122.711L441.519 121.824Z" fill="black"/>
<path d="M437.644 121.824L437.152 122.711L436.259 123.194L437.152 123.684L437.644 124.571L438.13 123.684L439.029 123.194L438.13 122.711L437.644 121.824Z" fill="black"/>
<path d="M439.582 119.037L439.096 119.924L438.203 120.414L439.096 120.897L439.582 121.784L440.074 120.897L440.966 120.414L440.074 119.924L439.582 119.037Z" fill="black"/>
<path d="M437.644 116.251L437.152 117.138L436.259 117.628L437.152 118.111L437.644 119.004L438.13 118.111L439.029 117.628L438.13 117.138L437.644 116.251Z" fill="black"/>
<path d="M437.644 110.559L437.152 111.452L436.259 111.936L437.152 112.425L437.644 113.312L438.13 112.425L439.029 111.936L438.13 111.452L437.644 110.559Z" fill="black"/>
<path d="M437.644 104.993L437.152 105.879L436.259 106.369L437.152 106.852L437.644 107.746L438.13 106.852L439.029 106.369L438.13 105.879L437.644 104.993Z" fill="black"/>
<path d="M439.582 102.206L439.096 103.093L438.203 103.583L439.096 104.066L439.582 104.959L440.074 104.066L440.966 103.583L440.074 103.093L439.582 102.206Z" fill="black"/>
<path d="M437.644 127.701L437.152 128.595L436.259 129.078L437.152 129.568L437.644 130.455L438.13 129.568L439.029 129.078L438.13 128.595L437.644 127.701Z" fill="black"/>
<path d="M439.582 124.915L439.096 125.808L438.203 126.291L439.096 126.781L439.582 127.668L440.074 126.781L440.966 126.291L440.074 125.808L439.582 124.915Z" fill="black"/>
<path d="M433.35 99.1946L432.864 100.088L431.965 100.571L432.864 101.061L433.35 101.948L433.836 101.061L434.735 100.571L433.836 100.088L433.35 99.1946Z" fill="black"/>
<path d="M435.294 96.4147L434.801 97.3016L433.909 97.7848L434.801 98.2745L435.294 99.1614L435.78 98.2745L436.672 97.7848L435.78 97.3016L435.294 96.4147Z" fill="black"/>
<path d="M433.35 93.6283L432.864 94.5152L431.965 95.005L432.864 95.4881L433.35 96.3817L433.836 95.4881L434.735 95.005L433.836 94.5152L433.35 93.6283Z" fill="black"/>
<path d="M431.479 90.8418L430.986 91.7287L430.094 92.2185L430.986 92.7017L431.479 93.5952L431.965 92.7017L432.864 92.2185L431.965 91.7287L431.479 90.8418Z" fill="black"/>
<path d="M429.535 87.9362L429.049 88.8297L428.15 89.3128L429.049 89.8026L429.535 90.6895L430.028 89.8026L430.92 89.3128L430.028 88.8297L429.535 87.9362Z" fill="black"/>
<path d="M433.35 121.824L432.864 122.711L431.965 123.194L432.864 123.684L433.35 124.571L433.836 123.684L434.735 123.194L433.836 122.711L433.35 121.824Z" fill="black"/>
<path d="M435.294 119.037L434.801 119.924L433.909 120.414L434.801 120.897L435.294 121.784L435.78 120.897L436.672 120.414L435.78 119.924L435.294 119.037Z" fill="black"/>
<path d="M433.35 116.251L432.864 117.138L431.965 117.628L432.864 118.111L433.35 119.004L433.836 118.111L434.735 117.628L433.836 117.138L433.35 116.251Z" fill="black"/>
<path d="M435.294 113.464L434.801 114.358L433.909 114.841L434.801 115.331L435.294 116.218L435.78 115.331L436.672 114.841L435.78 114.358L435.294 113.464Z" fill="black"/>
<path d="M435.294 107.779L434.801 108.666L433.909 109.156L434.801 109.639L435.294 110.526L435.78 109.639L436.672 109.156L435.78 108.666L435.294 107.779Z" fill="black"/>
<path d="M435.294 102.206L434.801 103.093L433.909 103.583L434.801 104.066L435.294 104.959L435.78 104.066L436.672 103.583L435.78 103.093L435.294 102.206Z" fill="black"/>
<path d="M433.35 127.701L432.864 128.595L431.965 129.078L432.864 129.568L433.35 130.455L433.836 129.568L434.735 129.078L433.836 128.595L433.35 127.701Z" fill="black"/>
<path d="M435.294 124.915L434.801 125.808L433.909 126.291L434.801 126.781L435.294 127.668L435.78 126.781L436.672 126.291L435.78 125.808L435.294 124.915Z" fill="black"/>
<path d="M431.479 124.915L430.986 125.808L430.094 126.291L430.986 126.781L431.479 127.668L431.965 126.781L432.864 126.291L431.965 125.808L431.479 124.915Z" fill="black"/>
</g>
<g clip-path="url(#clip1)">
<path d="M105 540.915C149.688 540.915 185.915 504.688 185.915 460C185.915 415.312 149.688 379.085 105 379.085C60.3117 379.085 24.0847 415.312 24.0847 460C24.0847 504.688 60.3117 540.915 105 540.915Z" fill="white" stroke="black" stroke-width="3" stroke-miterlimit="10" stroke-linecap="round" stroke-linejoin="round"/>
<path d="M46.4286 460H163.564" stroke="black" stroke-width="3" stroke-miterlimit="10" stroke-linecap="round" stroke-linejoin="round"/>
<path d="M83.3864 475.785H74.89C73.2991 475.785 71.9975 474.484 71.9975 472.893V447.1C71.9975 445.509 73.2991 444.208 74.89 444.208H83.3792C84.97 444.208 86.2716 445.509 86.2716 447.1V472.893C86.2788 474.484 84.9773 475.785 83.3864 475.785Z" fill="#00D384" stroke="black" stroke-width="3" stroke-miterlimit="10" stroke-linecap="round" stroke-linejoin="round"/>
<path d="M126.216 475.785H117.727C116.136 475.785 114.834 474.484 114.834 472.893V447.1C114.834 445.509 116.136 444.208 117.727 444.208H126.216C127.807 444.208 129.108 445.509 129.108 447.1V472.893C129.108 474.484 127.807 475.785 126.216 475.785Z" fill="#00D384" stroke="black" stroke-width="3" stroke-miterlimit="10" stroke-linecap="round" stroke-linejoin="round"/>
<path d="M84.782 459.856L84.2541 460.825L83.278 461.36L84.2541 461.888L84.782 462.864L85.3171 461.888L86.2861 461.36L85.3171 460.825L84.782 459.856Z" fill="black"/>
<path d="M80.6386 459.856L80.1108 460.825L79.1418 461.36L80.1108 461.888L80.6386 462.864L81.1737 461.888L82.1427 461.36L81.1737 460.825L80.6386 459.856Z" fill="black"/>
<path d="M82.7501 456.811L82.2222 457.787L81.246 458.315L82.2222 458.85L82.7501 459.819L83.278 458.85L84.2542 458.315L83.278 457.787L82.7501 456.811Z" fill="black"/>
<path d="M84.782 453.774L84.2541 454.743L83.278 455.271L84.2541 455.806L84.782 456.775L85.3171 455.806L86.2861 455.271L85.3171 454.743L84.782 453.774Z" fill="black"/>
<path d="M80.6386 453.774L80.1108 454.743L79.1418 455.271L80.1108 455.806L80.6386 456.775L81.1737 455.806L82.1427 455.271L81.1737 454.743L80.6386 453.774Z" fill="black"/>
<path d="M82.7501 450.73L82.2222 451.699L81.246 452.234L82.2222 452.762L82.7501 453.731L83.278 452.762L84.2542 452.234L83.278 451.699L82.7501 450.73Z" fill="black"/>
<path d="M84.782 447.252L84.2541 448.221L83.2779 448.756L84.2541 449.284L84.782 450.26L85.3171 449.284L86.2861 448.756L85.3171 448.221L84.782 447.252Z" fill="black"/>
<path d="M80.6386 447.252L80.1108 448.221L79.1418 448.756L80.1108 449.284L80.6386 450.26L81.1737 449.284L82.1427 448.756L81.1737 448.221L80.6386 447.252Z" fill="black"/>
<path d="M82.7501 444.208L82.2222 445.184L81.246 445.712L82.2222 446.239L82.7501 447.216L83.278 446.239L84.2542 445.712L83.278 445.184L82.7501 444.208Z" fill="black"/>
<path d="M84.782 472.365L84.2541 473.341L83.278 473.869L84.2541 474.404L84.782 475.373L85.3171 474.404L86.2861 473.869L85.3171 473.341L84.782 472.365Z" fill="black"/>
<path d="M80.6386 472.365L80.1108 473.341L79.1418 473.869L80.1108 474.404L80.6386 475.373L81.1737 474.404L82.1427 473.869L81.1737 473.341L80.6386 472.365Z" fill="black"/>
<path d="M82.7501 469.321L82.2222 470.297L81.246 470.825L82.2222 471.36L82.7501 472.329L83.278 471.36L84.2542 470.825L83.278 470.297L82.7501 469.321Z" fill="black"/>
<path d="M84.782 466.284L84.2541 467.253L83.278 467.788L84.2541 468.316L84.782 469.285L85.3171 468.316L86.2861 467.788L85.3171 467.253L84.782 466.284Z" fill="black"/>
<path d="M80.6386 466.284L80.1108 467.253L79.1418 467.788L80.1108 468.316L80.6386 469.285L81.1737 468.316L82.1427 467.788L81.1737 467.253L80.6386 466.284Z" fill="black"/>
<path d="M82.7501 463.24L82.2222 464.209L81.246 464.744L82.2222 465.272L82.7501 466.248L83.278 465.272L84.2542 464.744L83.278 464.209L82.7501 463.24Z" fill="black"/>
<path d="M127.062 459.856L126.534 460.825L125.558 461.36L126.534 461.888L127.062 462.864L127.597 461.888L128.566 461.36L127.597 460.825L127.062 459.856Z" fill="black"/>
<path d="M122.919 459.856L122.391 460.825L121.414 461.36L122.391 461.888L122.919 462.864L123.454 461.888L124.423 461.36L123.454 460.825L122.919 459.856Z" fill="black"/>
<path d="M125.03 456.811L124.495 457.787L123.526 458.315L124.495 458.85L125.03 459.819L125.558 458.85L126.534 458.315L125.558 457.787L125.03 456.811Z" fill="black"/>
<path d="M127.062 453.774L126.534 454.743L125.558 455.271L126.534 455.806L127.062 456.775L127.597 455.806L128.566 455.271L127.597 454.743L127.062 453.774Z" fill="black"/>
<path d="M122.919 453.774L122.391 454.743L121.414 455.271L122.391 455.806L122.919 456.775L123.454 455.806L124.423 455.271L123.454 454.743L122.919 453.774Z" fill="black"/>
<path d="M125.03 450.73L124.495 451.699L123.526 452.234L124.495 452.762L125.03 453.731L125.558 452.762L126.534 452.234L125.558 451.699L125.03 450.73Z" fill="black"/>
<path d="M127.062 447.252L126.534 448.221L125.558 448.756L126.534 449.284L127.062 450.26L127.597 449.284L128.566 448.756L127.597 448.221L127.062 447.252Z" fill="black"/>
<path d="M122.919 447.252L122.391 448.221L121.414 448.756L122.391 449.284L122.919 450.26L123.454 449.284L124.423 448.756L123.454 448.221L122.919 447.252Z" fill="black"/>
<path d="M125.03 444.208L124.495 445.184L123.526 445.712L124.495 446.239L125.03 447.216L125.558 446.239L126.534 445.712L125.558 445.184L125.03 444.208Z" fill="black"/>
<path d="M127.062 472.365L126.534 473.341L125.558 473.869L126.534 474.404L127.062 475.373L127.597 474.404L128.566 473.869L127.597 473.341L127.062 472.365Z" fill="black"/>
<path d="M122.919 472.365L122.391 473.341L121.414 473.869L122.391 474.404L122.919 475.373L123.454 474.404L124.423 473.869L123.454 473.341L122.919 472.365Z" fill="black"/>
<path d="M125.03 469.321L124.495 470.297L123.526 470.825L124.495 471.36L125.03 472.329L125.558 471.36L126.534 470.825L125.558 470.297L125.03 469.321Z" fill="black"/>
<path d="M127.062 466.284L126.534 467.253L125.558 467.788L126.534 468.316L127.062 469.285L127.597 468.316L128.566 467.788L127.597 467.253L127.062 466.284Z" fill="black"/>
<path d="M122.919 466.284L122.391 467.253L121.414 467.788L122.391 468.316L122.919 469.285L123.454 468.316L124.423 467.788L123.454 467.253L122.919 466.284Z" fill="black"/>
<path d="M125.03 463.24L124.495 464.209L123.526 464.744L124.495 465.272L125.03 466.248L125.558 465.272L126.534 464.744L125.558 464.209L125.03 463.24Z" fill="black"/>
</g>
<g clip-path="url(#clip2)">
<path d="M81 176.929C125.143 176.929 160.929 141.143 160.929 97C160.929 52.8567 125.143 17.0714 81 17.0714C36.8567 17.0714 1.07143 52.8567 1.07143 97C1.07143 141.143 36.8567 176.929 81 176.929Z" fill="white" stroke="black" stroke-width="3" stroke-miterlimit="10" stroke-linecap="round" stroke-linejoin="round"/>
<path d="M113.714 78.6357L82.4143 70.25L51.1143 61.8643C47.05 60.7786 43.3357 64.4929 44.4214 68.5571L52.8071 99.8571L61.1929 131.157C62.2786 135.221 67.3643 136.579 70.3357 133.607L83.35 120.593L96.1643 133.407C97.8857 135.129 100.707 135.129 102.429 133.407L115.971 119.864C117.693 118.143 117.693 115.321 115.971 113.6L103.157 100.786L116.171 87.7714C119.143 84.8071 117.779 79.7286 113.714 78.6357Z" fill="#FFDE16" stroke="black" stroke-width="3" stroke-miterlimit="10" stroke-linecap="round" stroke-linejoin="round"/>
<path d="M112.486 117.407L111.964 118.371L111 118.893L111.964 119.421L112.486 120.379L113.014 119.421L113.971 118.893L113.014 118.371L112.486 117.407Z" fill="black"/>
<path d="M108.329 117.407L107.807 118.371L106.85 118.893L107.807 119.421L108.329 120.379L108.857 119.421L109.814 118.893L108.857 118.371L108.329 117.407Z" fill="black"/>
<path d="M114.571 114.4L114.043 115.364L113.086 115.886L114.043 116.414L114.571 117.371L115.093 116.414L116.057 115.886L115.093 115.364L114.571 114.4Z" fill="black"/>
<path d="M110.414 114.4L109.893 115.364L108.929 115.886L109.893 116.414L110.414 117.371L110.943 116.414L111.9 115.886L110.943 115.364L110.414 114.4Z" fill="black"/>
<path d="M112.486 111.4L111.964 112.357L111 112.886L111.964 113.407L112.486 114.364L113.014 113.407L113.971 112.886L113.014 112.357L112.486 111.4Z" fill="black"/>
<path d="M108.329 111.4L107.807 112.357L106.85 112.886L107.807 113.407L108.329 114.364L108.857 113.407L109.814 112.886L108.857 112.357L108.329 111.4Z" fill="black"/>
<path d="M110.414 108.393L109.893 109.35L108.929 109.879L109.893 110.4L110.414 111.364L110.943 110.4L111.9 109.879L110.943 109.35L110.414 108.393Z" fill="black"/>
<path d="M108.329 105.257L107.807 106.221L106.85 106.743L107.807 107.271L108.329 108.229L108.857 107.271L109.814 106.743L108.857 106.221L108.329 105.257Z" fill="black"/>
<path d="M108.329 123.757L107.807 124.714L106.85 125.243L107.807 125.764L108.329 126.729L108.857 125.764L109.814 125.243L108.857 124.714L108.329 123.757Z" fill="black"/>
<path d="M110.414 120.75L109.893 121.707L108.929 122.236L109.893 122.757L110.414 123.721L110.943 122.757L111.9 122.236L110.943 121.707L110.414 120.75Z" fill="black"/>
<path d="M103.729 117.407L103.2 118.371L102.243 118.893L103.2 119.421L103.729 120.379L104.25 119.421L105.207 118.893L104.25 118.371L103.729 117.407Z" fill="black"/>
<path d="M99.6357 117.407L99.1071 118.371L98.15 118.893L99.1071 119.421L99.6357 120.379L100.157 119.421L101.121 118.893L100.157 118.371L99.6357 117.407Z" fill="black"/>
<path d="M105.807 114.4L105.286 115.364L104.321 115.886L105.286 116.414L105.807 117.371L106.336 116.414L107.293 115.886L106.336 115.364L105.807 114.4Z" fill="black"/>
<path d="M101.714 114.4L101.193 115.364L100.229 115.886L101.193 116.414L101.714 117.371L102.243 116.414L103.2 115.886L102.243 115.364L101.714 114.4Z" fill="black"/>
<path d="M103.729 111.4L103.2 112.357L102.243 112.886L103.2 113.407L103.729 114.364L104.25 113.407L105.207 112.886L104.25 112.357L103.729 111.4Z" fill="black"/>
<path d="M99.6357 111.4L99.1071 112.357L98.15 112.886L99.1071 113.407L99.6357 114.364L100.157 113.407L101.121 112.886L100.157 112.357L99.6357 111.4Z" fill="black"/>
<path d="M105.807 108.393L105.286 109.35L104.321 109.879L105.286 110.4L105.807 111.364L106.336 110.4L107.293 109.879L106.336 109.35L105.807 108.393Z" fill="black"/>
<path d="M101.714 108.393L101.193 109.35L100.229 109.879L101.193 110.4L101.714 111.364L102.243 110.4L103.2 109.879L102.243 109.35L101.714 108.393Z" fill="black"/>
<path d="M103.729 105.257L103.2 106.221L102.243 106.743L103.2 107.271L103.729 108.229L104.25 107.271L105.207 106.743L104.25 106.221L103.729 105.257Z" fill="black"/>
<path d="M99.6357 105.257L99.1071 106.221L98.15 106.743L99.1071 107.271L99.6357 108.229L100.157 107.271L101.121 106.743L100.157 106.221L99.6357 105.257Z" fill="black"/>
<path d="M105.807 102.25L105.286 103.214L104.321 103.736L105.286 104.264L105.807 105.221L106.336 104.264L107.293 103.736L106.336 103.214L105.807 102.25Z" fill="black"/>
<path d="M101.714 102.25L101.193 103.214L100.229 103.736L101.193 104.264L101.714 105.221L102.243 104.264L103.2 103.736L102.243 103.214L101.714 102.25Z" fill="black"/>
<path d="M103.729 129.764L103.2 130.729L102.243 131.25L103.2 131.779L103.729 132.736L104.25 131.779L105.207 131.25L104.25 130.729L103.729 129.764Z" fill="black"/>
<path d="M99.6357 129.764L99.1071 130.729L98.15 131.25L99.1071 131.779L99.6357 132.736L100.157 131.779L101.121 131.25L100.157 130.729L99.6357 129.764Z" fill="black"/>
<path d="M105.807 126.764L105.286 127.721L104.321 128.243L105.286 128.771L105.807 129.729L106.336 128.771L107.293 128.243L106.336 127.721L105.807 126.764Z" fill="black"/>
<path d="M101.714 126.764L101.193 127.721L100.229 128.243L101.193 128.771L101.714 129.729L102.243 128.771L103.2 128.243L102.243 127.721L101.714 126.764Z" fill="black"/>
<path d="M103.729 123.757L103.2 124.714L102.243 125.243L103.2 125.764L103.729 126.729L104.25 125.764L105.207 125.243L104.25 124.714L103.729 123.757Z" fill="black"/>
<path d="M99.6357 123.757L99.1071 124.714L98.15 125.243L99.1071 125.764L99.6357 126.729L100.157 125.764L101.121 125.243L100.157 124.714L99.6357 123.757Z" fill="black"/>
<path d="M105.807 120.75L105.286 121.707L104.321 122.236L105.286 122.757L105.807 123.721L106.336 122.757L107.293 122.236L106.336 121.707L105.807 120.75Z" fill="black"/>
<path d="M101.714 120.75L101.193 121.707L100.229 122.236L101.193 122.757L101.714 123.721L102.243 122.757L103.2 122.236L102.243 121.707L101.714 120.75Z" fill="black"/>
<path d="M95.4429 117.407L94.9143 118.371L93.9571 118.893L94.9143 119.421L95.4429 120.379L95.9643 119.421L96.9286 118.893L95.9643 118.371L95.4429 117.407Z" fill="black"/>
<path d="M91.2857 117.407L90.7643 118.371L89.8 118.893L90.7643 119.421L91.2857 120.379L91.8071 119.421L92.7714 118.893L91.8071 118.371L91.2857 117.407Z" fill="black"/>
<path d="M97.5286 114.4L97 115.364L96.0429 115.886L97 116.414L97.5286 117.371L98.05 116.414L99.0071 115.886L98.05 115.364L97.5286 114.4Z" fill="black"/>
<path d="M93.3714 114.4L92.8429 115.364L91.8857 115.886L92.8429 116.414L93.3714 117.371L93.8929 116.414L94.85 115.886L93.8929 115.364L93.3714 114.4Z" fill="black"/>
<path d="M95.4429 111.4L94.9143 112.357L93.9571 112.886L94.9143 113.407L95.4429 114.364L95.9643 113.407L96.9286 112.886L95.9643 112.357L95.4429 111.4Z" fill="black"/>
<path d="M97.5286 108.393L97 109.35L96.0429 109.879L97 110.4L97.5286 111.364L98.05 110.4L99.0071 109.879L98.05 109.35L97.5286 108.393Z" fill="black"/>
<path d="M95.4429 129.764L94.9143 130.729L93.9571 131.25L94.9143 131.779L95.4429 132.736L95.9643 131.779L96.9286 131.25L95.9643 130.729L95.4429 129.764Z" fill="black"/>
<path d="M97.5286 126.764L97 127.721L96.0429 128.243L97 128.771L97.5286 129.729L98.05 128.771L99.0071 128.243L98.05 127.721L97.5286 126.764Z" fill="black"/>
<path d="M93.3714 126.764L92.8429 127.721L91.8857 128.243L92.8429 128.771L93.3714 129.729L93.8929 128.771L94.85 128.243L93.8929 127.721L93.3714 126.764Z" fill="black"/>
<path d="M95.4429 123.757L94.9143 124.714L93.9571 125.243L94.9143 125.764L95.4429 126.729L95.9643 125.764L96.9286 125.243L95.9643 124.714L95.4429 123.757Z" fill="black"/>
<path d="M91.2857 123.757L90.7643 124.714L89.8 125.243L90.7643 125.764L91.2857 126.729L91.8071 125.764L92.7714 125.243L91.8071 124.714L91.2857 123.757Z" fill="black"/>
<path d="M97.5286 120.75L97 121.707L96.0429 122.236L97 122.757L97.5286 123.721L98.05 122.757L99.0071 122.236L98.05 121.707L97.5286 120.75Z" fill="black"/>
<path d="M93.3714 120.75L92.8429 121.707L91.8857 122.236L92.8429 122.757L93.3714 123.721L93.8929 122.757L94.85 122.236L93.8929 121.707L93.3714 120.75Z" fill="black"/>
<path d="M88.7643 120.75L88.2357 121.707L87.2786 122.236L88.2357 122.757L88.7643 123.721L89.2857 122.757L90.25 122.236L89.2857 121.707L88.7643 120.75Z" fill="black"/>
</g>
<g clip-path="url(#clip3)">
<path d="M244 356.73C296.318 356.73 338.73 314.318 338.73 262C338.73 209.682 296.318 167.27 244 167.27C191.682 167.27 149.27 209.682 149.27 262C149.27 314.318 191.682 356.73 244 356.73Z" fill="white" stroke="black" stroke-width="3" stroke-miterlimit="10" stroke-linecap="round" stroke-linejoin="round"/>
<path d="M281.723 298.334L277.532 281.911C276.567 278.119 272.673 275.807 268.88 276.773L268.728 276.815L273.74 296.472C274.197 298.275 273.105 300.121 271.302 300.578L245.498 307.156C243.704 307.613 241.85 306.521 241.393 304.718L236.381 285.06L236.229 285.103C232.436 286.068 230.125 289.962 231.09 293.755L235.28 310.178C236.245 313.97 240.14 316.282 243.932 315.316L276.584 306.995C280.377 306.021 282.688 302.127 281.723 298.334Z" fill="#00D384" stroke="black" stroke-width="3" stroke-miterlimit="10" stroke-linecap="round" stroke-linejoin="round"/>
<path d="M209.511 283.918C220.503 283.918 229.414 275.007 229.414 264.015C229.414 253.023 220.503 244.112 209.511 244.112C198.519 244.112 189.608 253.023 189.608 264.015C189.608 275.007 198.519 283.918 209.511 283.918Z" fill="#00D384" stroke="black" stroke-width="3" stroke-miterlimit="10" stroke-linecap="round" stroke-linejoin="round"/>
<path d="M202.798 216.083L199.742 311.185L299.644 285.052L300.897 246.025L202.798 216.083Z" fill="#00D384" stroke="black" stroke-width="3" stroke-miterlimit="10" stroke-linecap="round" stroke-linejoin="round"/>
<path d="M307.45 242.876C303.903 242.766 300.914 245.568 300.796 249.115L299.729 282.377C299.619 285.924 302.421 288.912 305.968 289.031C309.515 289.141 312.504 286.339 312.622 282.792L313.689 249.53C313.799 245.983 310.997 242.986 307.45 242.876Z" fill="#00D384" stroke="black" stroke-width="3" stroke-miterlimit="10" stroke-linecap="round" stroke-linejoin="round"/>
<path d="M281.181 289.987L279.928 289.666L279.039 288.726L278.726 289.979L277.778 290.868L279.031 291.181L279.92 292.129L280.233 290.876L281.181 289.987Z" fill="black"/>
<path d="M279.953 285.221L278.701 284.9L277.812 283.951L277.498 285.204L276.55 286.093L277.803 286.415L278.692 287.363L279.014 286.102L279.953 285.221Z" fill="black"/>
<path d="M284.025 286.72L282.764 286.398L281.884 285.458L281.562 286.711L280.614 287.6L281.867 287.913L282.756 288.862L283.077 287.609L284.025 286.72Z" fill="black"/>
<path d="M288.08 288.218L286.828 287.896L285.939 286.948L285.625 288.21L284.677 289.09L285.93 289.412L287.141 289.099L288.08 288.218Z" fill="black"/>
<path d="M286.861 283.443L285.6 283.122L284.711 282.182L284.398 283.435L283.45 284.324L284.703 284.637L285.592 285.585L285.913 284.332L286.861 283.443Z" fill="black"/>
<path d="M290.925 284.95L289.664 284.629L288.783 283.681L288.461 284.942L287.513 285.822L288.775 286.144L289.655 287.092L289.977 285.831L290.925 284.95Z" fill="black"/>
<path d="M294.252 281.547L292.99 281.225L292.11 280.277L291.788 281.539L290.84 282.419L292.102 282.741L292.982 283.689L293.304 282.428L294.252 281.547Z" fill="black"/>
<path d="M298.315 283.046L297.054 282.732L296.174 281.784L295.852 283.037L294.904 283.926L296.165 284.248L297.045 285.187L297.367 283.934L298.315 283.046Z" fill="black"/>
<path d="M253.05 297.217L251.797 296.904L250.908 295.956L250.586 297.208L249.638 298.097L250.899 298.411L251.348 298.326L252.102 298.106L253.05 297.217Z" fill="black"/>
<path d="M251.822 292.451L250.569 292.129L249.68 291.181L249.359 292.442L248.419 293.323L249.672 293.645L250.561 294.593L250.874 293.331L251.822 292.451Z" fill="black"/>
<path d="M255.886 293.949L254.633 293.636L253.744 292.688L253.431 293.941L252.483 294.83L253.735 295.151L254.624 296.091L254.946 294.838L255.886 293.949Z" fill="black"/>
<path d="M259.949 295.448L258.696 295.126L257.807 294.178L257.486 295.439L256.538 296.32L257.799 296.641L258.248 296.235L259.001 296.328L259.949 295.448Z" fill="black"/>
<path d="M258.722 290.673L257.469 290.351L256.58 289.412L256.258 290.665L255.319 291.553L256.571 291.867L257.46 292.815L257.774 291.562L258.722 290.673Z" fill="black"/>
<path d="M262.785 292.18L261.532 291.858L260.643 290.91L260.33 292.171L259.382 293.052L260.635 293.374L261.524 294.322L261.845 293.06L262.785 292.18Z" fill="black"/>
<path d="M267.001 293.636L265.74 293.314L264.859 292.366L264.538 293.628L263.589 294.508L264.842 294.83L265.714 294.525L266.053 294.516L267.001 293.636Z" fill="black"/>
<path d="M265.774 288.861L264.512 288.548L263.632 287.6L263.31 288.853L262.362 289.742L263.623 290.055L264.504 291.003L264.825 289.75L265.774 288.861Z" fill="black"/>
<path d="M269.837 290.368L268.576 290.047L267.695 289.099L267.374 290.36L266.425 291.24L267.687 291.562L268.567 292.51L268.889 291.257L269.837 290.368Z" fill="black"/>
<path d="M273.901 291.858L272.639 291.545L271.759 290.597L271.437 291.85L270.489 292.739L271.742 293.06L272.631 294L272.952 292.747L273.901 291.858Z" fill="black"/>
<path d="M272.673 287.092L271.412 286.77L270.531 285.822L270.21 287.084L269.261 287.964L270.523 288.286L271.403 289.234L271.725 287.973L272.673 287.092Z" fill="black"/>
<path d="M277.964 293.365L276.703 293.043L275.822 292.095L275.501 293.357L274.552 294.245L275.814 294.559L276.694 295.507L277.016 294.254L277.964 293.365Z" fill="black"/>
<path d="M276.737 288.59L275.484 288.277L274.595 287.329L274.273 288.582L273.325 289.471L274.586 289.793L275.467 290.741L275.788 289.479L276.737 288.59Z" fill="black"/>
<path d="M225.02 304.421L223.767 304.1L222.878 303.16L222.565 304.413L221.617 305.302L222.87 305.615L224.08 305.31L225.02 304.421Z" fill="black"/>
<path d="M223.801 299.655L222.54 299.333L221.651 298.385L221.338 299.638L220.389 300.527L221.642 300.849L222.531 301.797L222.853 300.536L223.801 299.655Z" fill="black"/>
<path d="M227.865 301.153L226.603 300.832L225.723 299.892L225.401 301.145L224.453 302.034L225.714 302.347L226.595 303.295L226.916 302.042L227.865 301.153Z" fill="black"/>
<path d="M231.92 302.652L230.667 302.33L229.778 301.382L229.465 302.635L228.516 303.524L229.769 303.846L230.828 304.125L230.98 303.532L231.92 302.652Z" fill="black"/>
<path d="M230.701 297.877L229.439 297.556L228.559 296.607L228.237 297.869L227.289 298.758L228.542 299.071L229.431 300.019L229.752 298.766L230.701 297.877Z" fill="black"/>
<path d="M235.992 304.15L234.73 303.837L233.85 302.889L233.528 304.142L232.58 305.031L233.833 305.352L234.722 306.292L235.043 305.039L235.992 304.15Z" fill="black"/>
<path d="M234.764 299.384L233.503 299.063L232.622 298.114L232.301 299.376L231.352 300.256L232.614 300.578L233.494 301.526L233.816 300.265L234.764 299.384Z" fill="black"/>
<path d="M238.971 300.84L237.719 300.519L236.83 299.57L236.508 300.832L235.56 301.712L236.821 302.034L237.702 302.982L238.023 301.721L238.971 300.84Z" fill="black"/>
<path d="M237.744 296.066L236.491 295.744L235.602 294.796L235.28 296.057L234.332 296.946L235.594 297.259L236.483 298.207L236.796 296.955L237.744 296.066Z" fill="black"/>
<path d="M242.087 303.228L241.782 302.025L240.893 301.077L240.571 302.33L239.623 303.219L240.885 303.541L241.774 304.48L242.087 303.228Z" fill="black"/>
<path d="M241.807 297.573L240.555 297.251L239.666 296.303L239.344 297.564L238.404 298.445L239.657 298.766L240.546 299.714L240.859 298.453L241.807 297.573Z" fill="black"/>
<path d="M245.871 299.063L244.618 298.741L243.729 297.801L243.407 299.054L242.459 299.943L243.721 300.256L244.677 299.647L244.923 299.951L245.871 299.063Z" fill="black"/>
<path d="M244.643 294.296L243.39 293.975L242.502 293.026L242.18 294.279L241.232 295.168L242.493 295.49L243.382 296.438L243.695 295.177L244.643 294.296Z" fill="black"/>
<path d="M248.707 295.795L247.454 295.482L246.565 294.533L246.252 295.786L245.304 296.675L246.557 296.988L247.446 297.937L247.767 296.684L248.707 295.795Z" fill="black"/>
<path d="M202.561 305.107L201.308 304.785L200.419 303.846L200.106 305.098L199.158 305.987L200.411 306.301L201.299 307.249L201.613 305.996L202.561 305.107Z" fill="black"/>
<path d="M206.633 306.614L205.371 306.292L204.483 305.344L204.169 306.605L203.221 307.486L204.474 307.807L205.363 308.756L205.685 307.494L206.633 306.614Z" fill="black"/>
<path d="M210.84 308.07L209.579 307.748L208.698 306.8L208.377 308.061L207.429 308.942L208.681 309.264L209.892 308.95L210.84 308.07Z" fill="black"/>
<path d="M209.613 303.295L208.351 302.974L207.471 302.034L207.149 303.287L206.201 304.176L207.462 304.489L208.343 305.437L208.665 304.184L209.613 303.295Z" fill="black"/>
<path d="M213.676 304.802L212.423 304.48L211.534 303.532L211.213 304.794L210.265 305.674L211.526 305.996L212.406 306.944L212.728 305.683L213.676 304.802Z" fill="black"/>
<path d="M217.74 306.292L216.478 305.979L215.598 305.031L215.276 306.284L214.328 307.173L215.581 307.494L216.792 307.181L217.74 306.292Z" fill="black"/>
<path d="M216.512 301.526L215.251 301.204L214.37 300.256L214.049 301.517L213.101 302.398L214.362 302.72L215.242 303.668L215.564 302.406L216.512 301.526Z" fill="black"/>
<path d="M220.576 303.024L219.323 302.711L218.434 301.763L218.112 303.016L217.164 303.905L218.425 304.227L219.306 305.166L219.628 303.913L220.576 303.024Z" fill="black"/>
<path d="M278.599 279.93L277.346 279.609L276.457 278.66L276.135 279.922L275.187 280.811L276.449 281.124L277.329 282.072L277.651 280.819L278.599 279.93Z" fill="black"/>
<path d="M277.388 275.232L276.135 274.91L275.247 273.97L274.933 275.223L273.985 276.112L275.238 276.425L276.127 277.374L276.449 276.121L277.388 275.232Z" fill="black"/>
<path d="M282.662 281.437L281.409 281.115L280.521 280.167L280.199 281.429L279.259 282.309L280.512 282.631L281.401 283.579L281.714 282.318L282.662 281.437Z" fill="black"/>
<path d="M281.46 276.739L280.199 276.417L279.31 275.469L278.997 276.73L278.049 277.611L279.302 277.932L280.19 278.881L280.512 277.619L281.46 276.739Z" fill="black"/>
<path d="M285.498 278.161L284.245 277.839L283.357 276.891L283.035 278.144L282.087 279.033L283.348 279.355L284.229 280.303L284.55 279.041L285.498 278.161Z" fill="black"/>
<path d="M284.288 273.463L283.035 273.141L282.146 272.193L281.833 273.454L280.885 274.335L282.138 274.656L283.026 275.604L283.348 274.343L284.288 273.463Z" fill="black"/>
<path d="M289.562 279.659L288.309 279.346L287.42 278.398L287.098 279.651L286.159 280.54L287.412 280.853L288.3 281.801L288.614 280.548L289.562 279.659Z" fill="black"/>
<path d="M288.36 274.961L287.098 274.648L286.218 273.7L285.896 274.952L284.948 275.841L286.201 276.163L287.09 277.103L287.412 275.85L288.36 274.961Z" fill="black"/>
<path d="M292.889 276.256L291.636 275.934L290.747 274.995L290.425 276.248L289.486 277.137L290.739 277.45L291.627 278.398L291.941 277.145L292.889 276.256Z" fill="black"/>
<path d="M291.687 271.558L290.425 271.245L289.545 270.296L289.223 271.549L288.275 272.438L289.528 272.751L290.417 273.7L290.739 272.447L291.687 271.558Z" fill="black"/>
<path d="M296.952 277.763L295.699 277.441L294.811 276.493L294.497 277.755L293.549 278.635L294.802 278.957L295.691 279.905L296.013 278.644L296.952 277.763Z" fill="black"/>
<path d="M295.75 273.065L294.489 272.743L293.608 271.795L293.287 273.056L292.339 273.937L293.6 274.258L294.48 275.206L294.802 273.954L295.75 273.065Z" fill="black"/>
<path d="M250.468 287.16L249.206 286.838L248.326 285.898L248.004 287.151L247.056 288.04L248.309 288.353L249.198 289.302L249.52 288.049L250.468 287.16Z" fill="black"/>
<path d="M249.257 282.461L248.004 282.14L247.115 281.2L246.794 282.453L245.845 283.342L247.107 283.655L247.987 284.603L248.309 283.35L249.257 282.461Z" fill="black"/>
<path d="M254.531 288.667L253.27 288.345L252.389 287.397L252.068 288.658L251.12 289.539L252.381 289.86L253.261 290.808L253.583 289.547L254.531 288.667Z" fill="black"/>
<path d="M253.321 283.968L252.068 283.647L251.179 282.698L250.857 283.96L249.917 284.84L251.17 285.162L252.059 286.11L252.372 284.857L253.321 283.968Z" fill="black"/>
<path d="M257.367 285.391L256.106 285.069L255.225 284.121L254.904 285.382L253.956 286.263L255.217 286.584L256.097 287.532L256.419 286.271L257.367 285.391Z" fill="black"/>
<path d="M256.157 280.692L254.904 280.37L254.015 279.422L253.693 280.684L252.745 281.564L254.006 281.886L254.895 282.834L255.208 281.573L256.157 280.692Z" fill="black"/>
<path d="M261.431 286.889L260.178 286.576L259.289 285.628L258.967 286.88L258.019 287.769L259.28 288.091L260.161 289.031L260.483 287.778L261.431 286.889Z" fill="black"/>
<path d="M260.22 282.191L258.967 281.877L258.078 280.929L257.765 282.182L256.817 283.071L258.07 283.393L258.959 284.332L259.272 283.079L260.22 282.191Z" fill="black"/>
<path d="M264.411 283.579L263.158 283.257L262.269 282.309L261.947 283.57L261.007 284.451L262.26 284.773L263.149 285.721L263.462 284.459L264.411 283.579Z" fill="black"/>
<path d="M263.208 278.88L261.947 278.559L261.067 277.611L260.745 278.872L259.797 279.752L261.05 280.074L261.939 281.022L262.26 279.761L263.208 278.88Z" fill="black"/>
<path d="M268.474 285.077L267.221 284.764L266.332 283.816L266.019 285.069L265.071 285.958L266.324 286.279L267.213 287.219L267.534 285.966L268.474 285.077Z" fill="black"/>
<path d="M267.272 280.379L266.011 280.066L265.13 279.118L264.808 280.37L263.86 281.259L265.122 281.581L266.002 282.529L266.324 281.268L267.272 280.379Z" fill="black"/>
<path d="M271.31 281.801L270.057 281.488L269.168 280.54L268.847 281.793L267.907 282.682L269.16 282.995L270.049 283.943L270.362 282.69L271.31 281.801Z" fill="black"/>
<path d="M270.108 277.103L268.847 276.789L267.966 275.841L267.644 277.094L266.696 277.983L267.949 278.305L268.838 279.244L269.16 277.992L270.108 277.103Z" fill="black"/>
<path d="M275.382 283.308L274.121 282.986L273.232 282.038L272.918 283.299L271.97 284.18L273.223 284.502L274.112 285.45L274.434 284.197L275.382 283.308Z" fill="black"/>
<path d="M274.171 278.61L272.91 278.288L272.03 277.34L271.708 278.601L270.76 279.482L272.021 279.803L272.902 280.751L273.223 279.498L274.171 278.61Z" fill="black"/>
<path d="M222.438 294.364L221.185 294.043L220.296 293.094L219.975 294.356L219.026 295.236L220.288 295.558L221.168 296.506L221.49 295.253L222.438 294.364Z" fill="black"/>
<path d="M221.228 289.666L219.975 289.344L219.086 288.396L218.772 289.657L217.824 290.546L219.077 290.859L219.966 291.808L220.288 290.555L221.228 289.666Z" fill="black"/>
<path d="M226.502 295.871L225.249 295.549L224.36 294.601L224.038 295.863L223.098 296.743L224.351 297.065L225.24 298.013L225.553 296.751L226.502 295.871Z" fill="black"/>
<path d="M225.299 291.173L224.038 290.851L223.158 289.903L222.836 291.164L221.888 292.045L223.141 292.366L224.03 293.314L224.351 292.053L225.299 291.173Z" fill="black"/>
<path d="M229.338 292.595L228.085 292.273L227.196 291.325L226.874 292.578L225.926 293.467L227.187 293.788L228.076 294.737L228.389 293.475L229.338 292.595Z" fill="black"/>
<path d="M228.127 287.896L226.874 287.575L225.985 286.627L225.672 287.879L224.724 288.768L225.977 289.09L226.866 290.038L227.187 288.777L228.127 287.896Z" fill="black"/>
<path d="M233.401 294.093L232.148 293.772L231.259 292.832L230.946 294.085L229.998 294.974L231.251 295.287L232.14 296.235L232.453 294.982L233.401 294.093Z" fill="black"/>
<path d="M232.199 289.395L230.938 289.082L230.057 288.134L229.735 289.386L228.787 290.275L230.04 290.589L230.929 291.537L231.251 290.284L232.199 289.395Z" fill="black"/>
<path d="M236.389 290.783L235.128 290.461L234.248 289.513L233.926 290.766L232.978 291.655L234.231 291.977L235.12 292.925L235.441 291.664L236.389 290.783Z" fill="black"/>
<path d="M235.179 286.085L233.926 285.763L233.037 284.815L232.715 286.068L231.767 286.957L233.029 287.278L233.909 288.227L234.231 286.965L235.179 286.085Z" fill="black"/>
<path d="M240.453 292.282L239.192 291.968L238.311 291.02L237.989 292.273L237.041 293.162L238.303 293.475L239.183 294.423L239.505 293.171L240.453 292.282Z" fill="black"/>
<path d="M239.242 287.583L237.989 287.27L237.101 286.322L236.779 287.575L235.839 288.464L237.092 288.785L237.981 289.725L238.294 288.472L239.242 287.583Z" fill="black"/>
<path d="M243.289 289.005L242.028 288.684L241.147 287.744L240.825 288.997L239.877 289.886L241.13 290.199L242.019 291.147L242.341 289.894L243.289 289.005Z" fill="black"/>
<path d="M242.078 284.307L240.825 283.985L239.937 283.046L239.615 284.299L238.667 285.187L239.928 285.501L240.808 286.449L241.13 285.196L242.078 284.307Z" fill="black"/>
<path d="M247.352 290.512L246.091 290.191L245.211 289.242L244.889 290.504L243.941 291.384L245.202 291.706L246.083 292.654L246.404 291.393L247.352 290.512Z" fill="black"/>
<path d="M246.142 285.814L244.889 285.492L244 284.544L243.678 285.805L242.739 286.686L243.992 287.008L244.88 287.956L245.194 286.694L246.142 285.814Z" fill="black"/>
<path d="M205.27 301.323L204.017 301.01L203.128 300.062L202.806 301.314L201.858 302.203L203.12 302.525L204 303.465L204.322 302.212L205.27 301.323Z" fill="black"/>
<path d="M204.059 296.624L202.806 296.311L201.917 295.363L201.604 296.616L200.656 297.505L201.909 297.827L202.798 298.766L203.12 297.513L204.059 296.624Z" fill="black"/>
<path d="M208.25 298.013L206.997 297.691L206.108 296.743L205.786 298.004L204.847 298.885L206.099 299.207L206.988 300.155L207.302 298.893L208.25 298.013Z" fill="black"/>
<path d="M207.048 293.314L205.786 292.993L204.906 292.045L204.584 293.306L203.636 294.186L204.889 294.508L205.778 295.456L206.099 294.195L207.048 293.314Z" fill="black"/>
<path d="M212.322 299.511L211.06 299.198L210.171 298.25L209.858 299.503L208.91 300.392L210.163 300.713L211.052 301.653L211.374 300.4L212.322 299.511Z" fill="black"/>
<path d="M211.111 294.813L209.85 294.5L208.969 293.552L208.648 294.804L207.699 295.693L208.961 296.015L209.841 296.955L210.163 295.702L211.111 294.813Z" fill="black"/>
<path d="M215.149 296.235L213.896 295.913L213.007 294.974L212.694 296.227L211.746 297.115L212.999 297.429L213.888 298.377L214.21 297.124L215.149 296.235Z" fill="black"/>
<path d="M213.947 291.537L212.686 291.223L211.805 290.275L211.484 291.528L210.535 292.417L211.797 292.73L212.677 293.678L212.999 292.426L213.947 291.537Z" fill="black"/>
<path d="M219.221 297.742L217.96 297.42L217.071 296.472L216.758 297.733L215.81 298.614L217.062 298.936L217.951 299.884L218.273 298.622L219.221 297.742Z" fill="black"/>
<path d="M218.011 293.044L216.758 292.722L215.869 291.774L215.547 293.035L214.599 293.915L215.86 294.237L216.741 295.185L217.062 293.932L218.011 293.044Z" fill="black"/>
<path d="M263.733 309.949L262.48 309.627L261.592 308.679L261.27 309.941L260.33 310.821L261.583 311.143L262.785 310.838L263.733 309.949Z" fill="black"/>
<path d="M270.633 308.18L269.38 307.858L268.491 306.91L268.178 308.163L267.23 309.052L268.483 309.374L269.693 309.06L270.633 308.18Z" fill="black"/>
<path d="M277.685 306.368L276.423 306.047L275.543 305.098L275.221 306.351L274.273 307.24L275.534 307.562L276.737 307.249L277.685 306.368Z" fill="black"/>
<path d="M256.555 311.795L255.302 311.473L254.413 310.525L254.091 311.786L253.151 312.667L254.404 312.988L255.606 312.684L256.555 311.795Z" fill="black"/>
<path d="M262.379 304.658L261.117 304.345L260.237 303.397L259.915 304.65L258.967 305.539L260.229 305.86L261.109 306.808L261.431 305.547L262.379 304.658Z" fill="black"/>
<path d="M266.442 306.165L265.189 305.843L264.301 304.904L263.979 306.157L263.031 307.046L264.292 307.359L265.172 308.307L265.494 307.054L266.442 306.165Z" fill="black"/>
<path d="M265.232 301.467L263.979 301.145L263.208 301.763L262.777 301.458L261.829 302.347L263.081 302.66L263.97 303.609L264.292 302.356L265.232 301.467Z" fill="black"/>
<path d="M269.278 302.889L268.017 302.567L267.137 301.619L266.815 302.881L265.867 303.769L267.128 304.083L268.008 305.031L268.33 303.778L269.278 302.889Z" fill="black"/>
<path d="M273.342 304.396L272.089 304.074L271.2 303.126L270.878 304.387L269.93 305.268L271.192 305.589L272.072 306.538L272.394 305.276L273.342 304.396Z" fill="black"/>
<path d="M272.131 299.697L270.878 299.376L271.192 299.714L269.676 299.689L268.728 300.569L269.981 300.891L270.87 301.839L271.192 300.578L272.131 299.697Z" fill="black"/>
<path d="M276.322 301.077L275.069 300.756L274.18 299.807L273.867 301.069L272.919 301.958L274.171 302.271L275.06 303.219L275.382 301.966L276.322 301.077Z" fill="black"/>
<path d="M275.12 296.379L273.858 296.057L272.978 295.118L272.656 296.37L272.918 297.183L272.969 297.573L273.85 298.521L274.171 297.268L275.12 296.379Z" fill="black"/>
<path d="M280.394 302.584L279.132 302.262L278.243 301.314L277.93 302.576L276.982 303.456L278.235 303.778L279.124 304.726L279.445 303.465L280.394 302.584Z" fill="black"/>
<path d="M279.183 297.886L277.922 297.564L277.041 296.616L276.72 297.877L275.771 298.758L277.033 299.079L277.913 300.028L278.235 298.766L279.183 297.886Z" fill="black"/>
<path d="M283.221 299.308L281.968 298.986L281.079 298.038L280.766 299.291L279.818 300.18L281.071 300.502L281.96 301.45L282.281 300.188L283.221 299.308Z" fill="black"/>
<path d="M282.019 294.61L280.758 294.288L279.877 293.34L279.556 294.601L278.607 295.482L279.869 295.803L280.749 296.751L281.071 295.49L282.019 294.61Z" fill="black"/>
<path d="M237.211 308.671L235.949 308.349L235.069 307.401L234.747 308.662L233.799 309.551L235.06 309.865L235.941 310.813L236.262 309.56L237.211 308.671Z" fill="black"/>
<path d="M241.249 310.093L239.996 309.771L239.107 308.823L238.785 310.085L237.846 310.965L239.098 311.287L239.987 312.235L240.301 310.982L241.249 310.093Z" fill="black"/>
<path d="M240.047 305.395L238.785 305.073L237.905 304.125L237.583 305.386L236.635 306.267L237.888 306.588L238.777 307.537L239.098 306.284L240.047 305.395Z" fill="black"/>
<path d="M245.312 311.6L244.059 311.278L243.17 310.33L242.857 311.583L241.909 312.472L243.162 312.794L244.051 313.742L244.372 312.48L245.312 311.6Z" fill="black"/>
<path d="M244.11 306.902L242.849 306.58L241.968 305.632L241.647 306.885L240.698 307.774L241.96 308.095L242.84 309.043L243.162 307.782L244.11 306.902Z" fill="black"/>
<path d="M248.301 308.281L247.039 307.96L246.159 307.012L245.837 308.273L244.889 309.153L246.15 309.475L247.031 310.423L247.352 309.17L248.301 308.281Z" fill="black"/>
<path d="M252.364 309.788L251.103 309.467L250.222 308.519L249.901 309.771L248.952 310.66L250.214 310.982L251.094 311.93L251.416 310.669L252.364 309.788Z" fill="black"/>
<path d="M251.153 305.09L249.901 304.768L249.638 305.242L248.69 305.082L247.75 305.962L249.003 306.284L249.892 307.232L250.205 305.97L251.153 305.09Z" fill="black"/>
<path d="M255.2 306.504L253.939 306.19L253.058 305.242L252.737 306.495L251.788 307.384L253.05 307.706L253.93 308.654L254.252 307.393L255.2 306.504Z" fill="black"/>
<path d="M259.263 308.011L258.011 307.689L257.122 306.749L256.8 308.002L255.852 308.891L257.113 309.204L257.994 310.152L258.315 308.9L259.263 308.011Z" fill="black"/>
<path d="M258.053 303.312L256.8 302.99L256.538 303.329L255.598 303.304L254.65 304.193L255.903 304.506L256.792 305.454L257.113 304.201L258.053 303.312Z" fill="black"/>
<path d="M300.974 279.067L299.712 278.745L298.832 277.797L298.51 279.058L297.562 279.939L298.823 280.26L299.704 281.209L300.025 279.947L300.974 279.067Z" fill="black"/>
<path d="M299.746 274.292L298.493 273.979L297.604 273.031L297.282 274.284L296.334 275.173L297.596 275.486L298.476 276.434L298.798 275.181L299.746 274.292Z" fill="black"/>
<path d="M305.037 280.574L303.784 280.252L302.895 279.304L302.574 280.557L301.625 281.446L302.887 281.767L303.767 282.715L304.089 281.454L305.037 280.574Z" fill="black"/>
<path d="M303.809 275.799L302.557 275.477L301.668 274.529L301.346 275.79L300.406 276.671L301.659 276.993L302.548 277.941L302.861 276.688L303.809 275.799Z" fill="black"/>
<path d="M308.017 277.255L306.764 276.933L305.875 275.985L305.562 277.247L304.614 278.127L305.867 278.449L306.756 279.397L307.077 278.144L308.017 277.255Z" fill="black"/>
<path d="M306.798 272.48L305.536 272.167L304.648 271.219L304.334 272.472L303.386 273.361L304.639 273.683L305.528 274.622L305.85 273.369L306.798 272.48Z" fill="black"/>
<path d="M312.089 278.762L310.827 278.44L309.939 277.492L309.625 278.745L308.677 279.634L309.93 279.956L310.819 280.904L311.141 279.642L312.089 278.762Z" fill="black"/>
<path d="M310.861 273.987L309.6 273.666L308.72 272.718L308.398 273.979L307.45 274.859L308.703 275.181L309.592 276.129L309.913 274.876L310.861 273.987Z" fill="black"/>
<path d="M313.697 270.711L312.436 270.389L311.556 269.441L311.234 270.703L310.286 271.583L311.539 271.905L312.427 272.853L312.749 271.592L313.697 270.711Z" fill="black"/>
<path d="M298.392 269.009L297.13 268.688L296.241 267.74L295.928 269.001L294.98 269.881L296.233 270.203L297.122 271.151L297.443 269.89L298.392 269.009Z" fill="black"/>
<path d="M297.181 264.311L295.92 263.989L295.039 263.041L294.717 264.303L293.769 265.183L295.031 265.505L295.911 266.453L296.233 265.192L297.181 264.311Z" fill="black"/>
<path d="M302.455 270.508L301.194 270.195L300.313 269.247L299.992 270.499L299.043 271.388L300.305 271.71L301.185 272.65L301.507 271.397L302.455 270.508Z" fill="black"/>
<path d="M301.244 265.809L299.991 265.496L299.103 264.548L298.781 265.801L297.833 266.69L299.094 267.012L299.983 267.96L300.296 266.698L301.244 265.809Z" fill="black"/>
<path d="M305.435 267.198L304.182 266.876L303.293 265.928L302.971 267.189L302.023 268.07L303.285 268.392L304.165 269.34L304.487 268.078L305.435 267.198Z" fill="black"/>
<path d="M304.224 262.499L302.971 262.178L302.083 261.23L301.769 262.491L300.821 263.371L302.074 263.693L302.963 264.641L303.285 263.38L304.224 262.499Z" fill="black"/>
<path d="M309.498 268.696L308.245 268.383L307.357 267.435L307.035 268.688L306.095 269.577L307.348 269.898L308.237 270.847L308.55 269.585L309.498 268.696Z" fill="black"/>
<path d="M308.296 264.006L307.035 263.685L306.154 262.736L305.833 263.989L304.885 264.878L306.138 265.2L307.026 266.148L307.348 264.887L308.296 264.006Z" fill="black"/>
<path d="M312.334 265.42L311.081 265.107L310.193 264.159L309.871 265.412L308.923 266.3L310.184 266.622L311.065 267.562L311.386 266.309L312.334 265.42Z" fill="black"/>
<path d="M311.124 260.722L309.871 260.408L308.982 259.46L308.669 260.713L307.721 261.602L308.974 261.924L309.862 262.863L310.184 261.611L311.124 260.722Z" fill="black"/>
<path d="M302.844 284.942L301.592 284.629L300.703 283.681L300.381 284.933L299.433 285.822L300.694 286.144L301.575 287.084L301.896 285.831L302.844 284.942Z" fill="black"/>
<path d="M306.908 286.449L305.655 286.127L304.766 285.179L304.444 286.44L303.505 287.321L304.758 287.642L305.647 288.591L305.96 287.338L306.908 286.449Z" fill="black"/>
<path d="M309.896 283.13L308.635 282.817L307.746 281.869L307.433 283.122L306.485 284.011L307.738 284.332L308.626 285.272L308.948 284.019L309.896 283.13Z" fill="black"/>
</g>
<g clip-path="url(#clip4)">
<path d="M403 511.946C446.053 511.946 480.955 477.046 480.955 433.995C480.955 390.945 446.053 356.045 403 356.045C359.947 356.045 325.045 390.945 325.045 433.995C325.045 477.046 359.947 511.946 403 511.946Z" fill="white" stroke="black" stroke-width="3" stroke-miterlimit="10" stroke-linecap="round" stroke-linejoin="round"/>
<path d="M403 456.963C413.411 456.963 421.851 448.523 421.851 438.112C421.851 427.702 413.411 419.262 403 419.262C392.589 419.262 384.149 427.702 384.149 438.112C384.149 448.523 392.589 456.963 403 456.963Z" fill="#00D384" stroke="black" stroke-width="3" stroke-miterlimit="10" stroke-linecap="round" stroke-linejoin="round"/>
<path d="M399.273 422.982L398.757 423.916L397.824 424.431L398.757 424.94L399.273 425.873L399.782 424.94L400.722 424.431L399.782 423.916L399.273 422.982Z" fill="black"/>
<path d="M395.218 422.982L394.703 423.916L393.769 424.431L394.703 424.94L395.218 425.873L395.727 424.94L396.667 424.431L395.727 423.916L395.218 422.982Z" fill="black"/>
<path d="M401.3 420.049L400.792 420.983L399.851 421.498L400.792 422.007L401.3 422.947L401.816 422.007L402.749 421.498L401.816 420.983L401.3 420.049Z" fill="black"/>
<path d="M397.246 420.049L396.737 420.983L395.797 421.498L396.737 422.007L397.246 422.947L397.761 422.007L398.695 421.498L397.761 420.983L397.246 420.049Z" fill="black"/>
<path d="M399.273 446.792L398.757 447.726L397.824 448.241L398.757 448.75L399.273 449.69L399.782 448.75L400.722 448.241L399.782 447.726L399.273 446.792Z" fill="black"/>
<path d="M395.218 446.792L394.703 447.726L393.769 448.241L394.703 448.75L395.218 449.69L395.727 448.75L396.667 448.241L395.727 447.726L395.218 446.792Z" fill="black"/>
<path d="M401.3 443.859L400.792 444.793L399.851 445.308L400.792 445.817L401.3 446.757L401.816 445.817L402.749 445.308L401.816 444.793L401.3 443.859Z" fill="black"/>
<path d="M397.246 443.859L396.737 444.793L395.797 445.308L396.737 445.817L397.246 446.757L397.761 445.817L398.695 445.308L397.761 444.793L397.246 443.859Z" fill="black"/>
<path d="M399.273 440.927L398.757 441.867L397.824 442.376L398.757 442.891L399.273 443.825L399.782 442.891L400.722 442.376L399.782 441.867L399.273 440.927Z" fill="black"/>
<path d="M395.218 440.927L394.703 441.867L393.769 442.376L394.703 442.891L395.218 443.825L395.727 442.891L396.667 442.376L395.727 441.867L395.218 440.927Z" fill="black"/>
<path d="M401.3 438.001L400.792 438.934L399.851 439.443L400.792 439.958L401.3 440.892L401.816 439.958L402.749 439.443L401.816 438.934L401.3 438.001Z" fill="black"/>
<path d="M397.246 438.001L396.737 438.934L395.797 439.443L396.737 439.958L397.246 440.892L397.761 439.958L398.695 439.443L397.761 438.934L397.246 438.001Z" fill="black"/>
<path d="M399.273 434.943L398.757 435.876L397.824 436.392L398.757 436.9L399.273 437.841L399.782 436.9L400.722 436.392L399.782 435.876L399.273 434.943Z" fill="black"/>
<path d="M395.218 434.943L394.703 435.876L393.769 436.392L394.703 436.9L395.218 437.841L395.727 436.9L396.667 436.392L395.727 435.876L395.218 434.943Z" fill="black"/>
<path d="M401.3 432.01L400.792 432.944L399.851 433.459L400.792 433.968L401.3 434.908L401.816 433.968L402.749 433.459L401.816 432.944L401.3 432.01Z" fill="black"/>
<path d="M397.246 432.01L396.737 432.944L395.797 433.459L396.737 433.968L397.246 434.908L397.761 433.968L398.695 433.459L397.761 432.944L397.246 432.01Z" fill="black"/>
<path d="M399.273 429.077L398.757 430.018L397.824 430.526L398.757 431.042L399.273 431.975L399.782 431.042L400.722 430.526L399.782 430.018L399.273 429.077Z" fill="black"/>
<path d="M395.218 429.077L394.703 430.018L393.769 430.526L394.703 431.042L395.218 431.975L395.727 431.042L396.667 430.526L395.727 430.018L395.218 429.077Z" fill="black"/>
<path d="M401.3 426.145L400.792 427.085L399.851 427.594L400.792 428.109L401.3 429.043L401.816 428.109L402.749 427.594L401.816 427.085L401.3 426.145Z" fill="black"/>
<path d="M397.246 426.145L396.737 427.085L395.797 427.594L396.737 428.109L397.246 429.043L397.761 428.109L398.695 427.594L397.761 427.085L397.246 426.145Z" fill="black"/>
<path d="M399.273 452.985L398.757 453.918L397.824 454.427L398.757 454.942L399.273 455.876L399.782 454.942L400.722 454.427L399.782 453.918L399.273 452.985Z" fill="black"/>
<path d="M395.218 452.985L394.703 453.918L393.769 454.427L394.703 454.942L395.218 455.876L395.727 454.942L396.667 454.427L395.727 453.918L395.218 452.985Z" fill="black"/>
<path d="M401.3 450.052L400.792 450.986L399.851 451.501L400.792 452.01L401.3 452.943L401.816 452.01L402.749 451.501L401.816 450.986L401.3 450.052Z" fill="black"/>
<path d="M397.246 450.052L396.737 450.986L395.797 451.501L396.737 452.01L397.246 452.943L397.761 452.01L398.695 451.501L397.761 450.986L397.246 450.052Z" fill="black"/>
<path d="M390.725 422.982L390.21 423.916L389.276 424.431L390.21 424.94L390.725 425.873L391.234 424.94L392.174 424.431L391.234 423.916L390.725 422.982Z" fill="black"/>
<path d="M390.725 446.792L390.21 447.726L389.276 448.241L390.21 448.75L390.725 449.69L391.234 448.75L392.174 448.241L391.234 447.726L390.725 446.792Z" fill="black"/>
<path d="M392.759 443.859L392.244 444.793L391.31 445.308L392.244 445.817L392.759 446.757L393.268 445.817L394.201 445.308L393.268 444.793L392.759 443.859Z" fill="black"/>
<path d="M388.767 443.859L388.252 444.793L387.318 445.308L388.252 445.817L388.767 446.757L389.276 445.817L390.21 445.308L389.276 444.793L388.767 443.859Z" fill="black"/>
<path d="M390.725 440.927L390.21 441.867L389.276 442.376L390.21 442.891L390.725 443.825L391.234 442.891L392.174 442.376L391.234 441.867L390.725 440.927Z" fill="black"/>
<path d="M386.733 440.927L386.218 441.867L385.284 442.376L386.218 442.891L386.733 443.825L387.242 442.891L388.182 442.376L387.242 441.867L386.733 440.927Z" fill="black"/>
<path d="M392.759 438.001L392.244 438.934L391.31 439.443L392.244 439.958L392.759 440.892L393.268 439.958L394.201 439.443L393.268 438.934L392.759 438.001Z" fill="black"/>
<path d="M388.767 438.001L388.252 438.934L387.318 439.443L388.252 439.958L388.767 440.892L389.276 439.958L390.21 439.443L389.276 438.934L388.767 438.001Z" fill="black"/>
<path d="M390.725 434.943L390.21 435.876L389.276 436.392L390.21 436.9L390.725 437.841L391.234 436.9L392.174 436.392L391.234 435.876L390.725 434.943Z" fill="black"/>
<path d="M386.733 434.943L386.218 435.876L385.284 436.392L386.218 436.9L386.733 437.841L387.242 436.9L388.182 436.392L387.242 435.876L386.733 434.943Z" fill="black"/>
<path d="M392.759 432.01L392.244 432.944L391.31 433.459L392.244 433.968L392.759 434.908L393.268 433.968L394.201 433.459L393.268 432.944L392.759 432.01Z" fill="black"/>
<path d="M388.767 432.01L388.252 432.944L387.318 433.459L388.252 433.968L388.767 434.908L389.276 433.968L390.21 433.459L389.276 432.944L388.767 432.01Z" fill="black"/>
<path d="M390.725 429.077L390.21 430.018L389.276 430.526L390.21 431.042L390.725 431.975L391.234 431.042L392.174 430.526L391.234 430.018L390.725 429.077Z" fill="black"/>
<path d="M386.733 429.077L386.218 430.018L385.284 430.526L386.218 431.042L386.733 431.975L387.242 431.042L388.182 430.526L387.242 430.018L386.733 429.077Z" fill="black"/>
<path d="M392.759 426.145L392.244 427.085L391.31 427.594L392.244 428.109L392.759 429.043L393.268 428.109L394.201 427.594L393.268 427.085L392.759 426.145Z" fill="black"/>
<path d="M388.767 426.145L388.252 427.085L387.318 427.594L388.252 428.109L388.767 429.043L389.276 428.109L390.21 427.594L389.276 427.085L388.767 426.145Z" fill="black"/>
<path d="M392.759 450.052L392.244 450.986L391.31 451.501L392.244 452.01L392.759 452.943L393.268 452.01L394.201 451.501L393.268 450.986L392.759 450.052Z" fill="black"/>
<path d="M415.881 422.982L415.373 423.916L414.432 424.431L415.373 424.94L415.881 425.873L416.397 424.94L417.33 424.431L416.397 423.916L415.881 422.982Z" fill="black"/>
<path d="M411.827 422.982L411.318 423.916L410.378 424.431L411.318 424.94L411.827 425.873L412.342 424.94L413.276 424.431L412.342 423.916L411.827 422.982Z" fill="black"/>
<path d="M415.881 446.792L415.373 447.726L414.432 448.241L415.373 448.75L415.881 449.69L416.397 448.75L417.33 448.241L416.397 447.726L415.881 446.792Z" fill="black"/>
<path d="M411.827 446.792L411.318 447.726L410.378 448.241L411.318 448.75L411.827 449.69L412.342 448.75L413.276 448.241L412.342 447.726L411.827 446.792Z" fill="black"/>
<path d="M417.915 443.859L417.4 444.793L416.466 445.308L417.4 445.817L417.915 446.757L418.424 445.817L419.364 445.308L418.424 444.793L417.915 443.859Z" fill="black"/>
<path d="M413.861 443.859L413.345 444.793L412.412 445.308L413.345 445.817L413.861 446.757L414.369 445.817L415.31 445.308L414.369 444.793L413.861 443.859Z" fill="black"/>
<path d="M415.881 440.927L415.373 441.867L414.432 442.376L415.373 442.891L415.881 443.825L416.397 442.891L417.33 442.376L416.397 441.867L415.881 440.927Z" fill="black"/>
<path d="M411.827 440.927L411.318 441.867L410.378 442.376L411.318 442.891L411.827 443.825L412.342 442.891L413.276 442.376L412.342 441.867L411.827 440.927Z" fill="black"/>
<path d="M417.915 438.001L417.4 438.934L416.466 439.443L417.4 439.958L417.915 440.892L418.424 439.958L419.364 439.443L418.424 438.934L417.915 438.001Z" fill="black"/>
<path d="M413.861 438.001L413.345 438.934L412.412 439.443L413.345 439.958L413.861 440.892L414.369 439.958L415.31 439.443L414.369 438.934L413.861 438.001Z" fill="black"/>
<path d="M415.881 434.943L415.373 435.876L414.432 436.392L415.373 436.9L415.881 437.841L416.397 436.9L417.33 436.392L416.397 435.876L415.881 434.943Z" fill="black"/>
<path d="M411.827 434.943L411.318 435.876L410.378 436.392L411.318 436.9L411.827 437.841L412.342 436.9L413.276 436.392L412.342 435.876L411.827 434.943Z" fill="black"/>
<path d="M417.915 432.01L417.4 432.944L416.466 433.459L417.4 433.968L417.915 434.908L418.424 433.968L419.364 433.459L418.424 432.944L417.915 432.01Z" fill="black"/>
<path d="M413.861 432.01L413.345 432.944L412.412 433.459L413.345 433.968L413.861 434.908L414.369 433.968L415.31 433.459L414.369 432.944L413.861 432.01Z" fill="black"/>
<path d="M415.881 429.077L415.373 430.018L414.432 430.526L415.373 431.042L415.881 431.975L416.397 431.042L417.33 430.526L416.397 430.018L415.881 429.077Z" fill="black"/>
<path d="M411.827 429.077L411.318 430.018L410.378 430.526L411.318 431.042L411.827 431.975L412.342 431.042L413.276 430.526L412.342 430.018L411.827 429.077Z" fill="black"/>
<path d="M417.915 426.145L417.4 427.085L416.466 427.594L417.4 428.109L417.915 429.043L418.424 428.109L419.364 427.594L418.424 427.085L417.915 426.145Z" fill="black"/>
<path d="M413.861 426.145L413.345 427.085L412.412 427.594L413.345 428.109L413.861 429.043L414.369 428.109L415.31 427.594L414.369 427.085L413.861 426.145Z" fill="black"/>
<path d="M411.827 452.985L411.318 453.918L410.378 454.427L411.318 454.942L411.506 455.298L412.342 454.942L413.276 454.427L412.342 453.918L411.827 452.985Z" fill="black"/>
<path d="M413.861 450.052L413.345 450.986L412.412 451.501L413.345 452.01L413.861 452.943L414.369 452.01L415.31 451.501L414.369 450.986L413.861 450.052Z" fill="black"/>
<path d="M407.333 422.982L406.825 423.916L405.891 424.431L406.825 424.94L407.333 425.873L407.849 424.94L408.782 424.431L407.849 423.916L407.333 422.982Z" fill="black"/>
<path d="M403.341 422.982L402.833 423.916L401.899 424.431L402.833 424.94L403.341 425.873L403.857 424.94L404.79 424.431L403.857 423.916L403.341 422.982Z" fill="black"/>
<path d="M409.367 420.049L408.859 420.983L407.918 421.498L408.859 422.007L409.367 422.947L409.883 422.007L410.816 421.498L409.883 420.983L409.367 420.049Z" fill="black"/>
<path d="M405.376 420.049L404.867 420.983L403.927 421.498L404.867 422.007L405.376 422.947L405.891 422.007L406.825 421.498L405.891 420.983L405.376 420.049Z" fill="black"/>
<path d="M407.333 446.792L406.825 447.726L405.891 448.241L406.825 448.75L407.333 449.69L407.849 448.75L408.782 448.241L407.849 447.726L407.333 446.792Z" fill="black"/>
<path d="M403.341 446.792L402.833 447.726L401.899 448.241L402.833 448.75L403.341 449.69L403.857 448.75L404.79 448.241L403.857 447.726L403.341 446.792Z" fill="black"/>
<path d="M409.367 443.859L408.859 444.793L407.918 445.308L408.859 445.817L409.367 446.757L409.883 445.817L410.816 445.308L409.883 444.793L409.367 443.859Z" fill="black"/>
<path d="M405.376 443.859L404.867 444.793L403.927 445.308L404.867 445.817L405.376 446.757L405.891 445.817L406.825 445.308L405.891 444.793L405.376 443.859Z" fill="black"/>
<path d="M407.333 440.927L406.825 441.867L405.891 442.376L406.825 442.891L407.333 443.825L407.849 442.891L408.782 442.376L407.849 441.867L407.333 440.927Z" fill="black"/>
<path d="M403.341 440.927L402.833 441.867L401.899 442.376L402.833 442.891L403.341 443.825L403.857 442.891L404.79 442.376L403.857 441.867L403.341 440.927Z" fill="black"/>
<path d="M409.367 438.001L408.859 438.934L407.918 439.443L408.859 439.958L409.367 440.892L409.883 439.958L410.816 439.443L409.883 438.934L409.367 438.001Z" fill="black"/>
<path d="M405.376 438.001L404.867 438.934L403.927 439.443L404.867 439.958L405.376 440.892L405.891 439.958L406.825 439.443L405.891 438.934L405.376 438.001Z" fill="black"/>
<path d="M407.333 434.943L406.825 435.876L405.891 436.392L406.825 436.9L407.333 437.841L407.849 436.9L408.782 436.392L407.849 435.876L407.333 434.943Z" fill="black"/>
<path d="M403.341 434.943L402.833 435.876L401.899 436.392L402.833 436.9L403.341 437.841L403.857 436.9L404.79 436.392L403.857 435.876L403.341 434.943Z" fill="black"/>
<path d="M409.367 432.01L408.859 432.944L407.918 433.459L408.859 433.968L409.367 434.908L409.883 433.968L410.816 433.459L409.883 432.944L409.367 432.01Z" fill="black"/>
<path d="M405.376 432.01L404.867 432.944L403.927 433.459L404.867 433.968L405.376 434.908L405.891 433.968L406.825 433.459L405.891 432.944L405.376 432.01Z" fill="black"/>
<path d="M407.333 429.077L406.825 430.018L405.891 430.526L406.825 431.042L407.333 431.975L407.849 431.042L408.782 430.526L407.849 430.018L407.333 429.077Z" fill="black"/>
<path d="M403.341 429.077L402.833 430.018L401.899 430.526L402.833 431.042L403.341 431.975L403.857 431.042L404.79 430.526L403.857 430.018L403.341 429.077Z" fill="black"/>
<path d="M409.367 426.145L408.859 427.085L407.918 427.594L408.859 428.109L409.367 429.043L409.883 428.109L410.816 427.594L409.883 427.085L409.367 426.145Z" fill="black"/>
<path d="M405.376 426.145L404.867 427.085L403.927 427.594L404.867 428.109L405.376 429.043L405.891 428.109L406.825 427.594L405.891 427.085L405.376 426.145Z" fill="black"/>
<path d="M407.333 452.985L406.825 453.918L405.891 454.427L406.825 454.942L407.333 455.876L407.849 454.942L408.782 454.427L407.849 453.918L407.333 452.985Z" fill="black"/>
<path d="M403.341 452.985L402.833 453.918L401.899 454.427L402.833 454.942L403.341 455.876L403.857 454.942L404.79 454.427L403.857 453.918L403.341 452.985Z" fill="black"/>
<path d="M409.367 450.052L408.859 450.986L407.918 451.501L408.859 452.01L409.367 452.943L409.883 452.01L410.816 451.501L409.883 450.986L409.367 450.052Z" fill="black"/>
<path d="M405.376 450.052L404.867 450.986L403.927 451.501L404.867 452.01L405.376 452.943L405.891 452.01L406.825 451.501L405.891 450.986L405.376 450.052Z" fill="black"/>
<path d="M420.242 440.927L419.727 441.867L418.793 442.376L419.727 442.891L420.242 443.825L420.751 442.891L421.691 442.376L420.751 441.867L420.242 440.927Z" fill="black"/>
<path d="M420.242 434.943L419.727 435.876L418.793 436.392L419.727 436.9L420.242 437.841L420.751 436.9L421.691 436.392L420.751 435.876L420.242 434.943Z" fill="black"/>
<path d="M420.242 429.077L419.727 430.018L418.793 430.526L419.727 431.042L420.242 431.975L420.751 431.042L420.73 430.526L420.751 430.018L420.242 429.077Z" fill="black"/>
<path d="M375.427 461.637C370.021 455.305 366.76 447.092 366.76 438.119C366.76 418.106 382.985 401.882 403 401.882C423.015 401.882 439.24 418.106 439.24 438.119C439.24 446.653 436.293 454.497 431.354 460.69" stroke="black" stroke-width="3" stroke-miterlimit="10" stroke-linecap="round" stroke-linejoin="round"/>
<path d="M357.711 474.942C348.829 464.542 343.471 451.055 343.471 436.308C343.471 403.435 370.125 376.783 403 376.783C435.875 376.783 462.529 403.435 462.529 436.308C462.529 450.324 457.68 463.211 449.578 473.382" stroke="black" stroke-width="3" stroke-miterlimit="10" stroke-linecap="round" stroke-linejoin="round"/>
<path d="M398.479 496.864L401.92 517.735L402.617 524.136V533.624L439.163 530.775L439.198 516.711L443.642 501.713L441.88 479.205L426.463 472.337L414.251 470.024L400.736 473.981L398.479 496.864Z" fill="white"/>
<path d="M402.693 526.812V523.294L388.001 504.158L380.498 475.534C380.498 475.534 378.812 471.403 383.557 468.338C388.301 465.28 390.154 471.097 391.45 473.695C392.745 476.293 397.183 485.482 397.183 485.482V440.174C397.183 440.174 397.489 433.438 403.92 433.438C410.35 433.438 410.35 440.174 410.35 440.174L410.705 475.283" fill="white"/>
<path d="M402.693 526.812V523.294L388.001 504.158L380.498 475.534C380.498 475.534 378.812 471.403 383.557 468.338C388.301 465.28 390.154 471.097 391.45 473.695C392.745 476.293 397.183 485.482 397.183 485.482V440.174C397.183 440.174 397.489 433.438 403.92 433.438C410.35 433.438 410.35 440.174 410.35 440.174L410.705 475.283" stroke="black" stroke-width="3" stroke-miterlimit="10" stroke-linecap="round" stroke-linejoin="round"/>
<path d="M439.275 526.811V516.711L443.712 501.713V477.986C443.712 477.986 440.807 471.508 433.966 472.427V481.971" fill="white"/>
<path d="M439.275 526.811V516.711L443.712 501.713V477.986C443.712 477.986 440.807 471.508 433.966 472.427V481.971" stroke="black" stroke-width="3" stroke-miterlimit="10" stroke-linecap="round" stroke-linejoin="round"/>
<path d="M422.081 479.205V466.095C416.877 458.85 410.705 461.198 410.705 461.198V472.337V475.492" fill="white"/>
<path d="M422.081 479.205V466.095C416.877 458.85 410.705 461.198 410.705 461.198V472.337V475.492" stroke="black" stroke-width="3" stroke-miterlimit="10" stroke-linecap="round" stroke-linejoin="round"/>
<path d="M422.081 477.269V466.095C429.431 464.563 433.973 472.42 433.973 472.42V480.431" fill="white"/>
<path d="M422.081 477.269V466.095C429.431 464.563 433.973 472.42 433.973 472.42V480.431" stroke="black" stroke-width="3" stroke-miterlimit="10" stroke-linecap="round" stroke-linejoin="round"/>
<path d="M442.869 543.955H399.252C397.719 543.955 396.465 542.701 396.465 541.169V529.598C396.465 528.065 397.719 526.812 399.252 526.812H442.869C444.402 526.812 445.656 528.065 445.656 529.598V541.169C445.656 542.701 444.402 543.955 442.869 543.955Z" fill="black" stroke="black" stroke-width="3" stroke-miterlimit="10" stroke-linecap="round" stroke-linejoin="round"/>
</g>
<defs>
<clipPath id="clip0">
<rect width="151" height="161" fill="white" transform="translate(320)"/>
</clipPath>
<clipPath id="clip1">
<rect width="164" height="164" fill="white" transform="translate(23 378)"/>
</clipPath>
<clipPath id="clip2">
<rect width="162" height="162" fill="white" transform="translate(0 16)"/>
</clipPath>
<clipPath id="clip3">
<rect width="192" height="192" fill="white" transform="translate(148 166)"/>
</clipPath>
<clipPath id="clip4">
<rect width="158" height="190" fill="white" transform="translate(324 355)"/>
</clipPath>
</defs>
</svg>
