<svg width="282" height="220" viewBox="0 0 282 220" fill="none" xmlns="http://www.w3.org/2000/svg">
<g clip-path="url(#clip0)">
<path d="M209.371 202.314C232.716 202.314 251.641 183.441 251.641 160.16C251.641 136.88 232.716 118.007 209.371 118.007C186.026 118.007 167.101 136.88 167.101 160.16C167.101 183.441 186.026 202.314 209.371 202.314Z" fill="white" stroke="black" stroke-width="2" stroke-miterlimit="10" stroke-linecap="round" stroke-linejoin="round"/>
<path d="M209.37 172.58C215.016 172.58 219.592 168.016 219.592 162.387C219.592 156.757 215.016 152.193 209.37 152.193C203.725 152.193 199.148 156.757 199.148 162.387C199.148 168.016 203.725 172.58 209.37 172.58Z" fill="#00D384" stroke="black" stroke-width="2" stroke-miterlimit="10" stroke-linecap="round" stroke-linejoin="round"/>
<path d="M207.345 154.201L207.07 154.709L206.56 154.984L207.07 155.263L207.345 155.768L207.625 155.263L208.131 154.984L207.625 154.709L207.345 154.201Z" fill="black"/>
<path d="M205.147 154.201L204.871 154.709L204.365 154.984L204.871 155.263L205.147 155.768L205.427 155.263L205.933 154.984L205.427 154.709L205.147 154.201Z" fill="black"/>
<path d="M208.449 152.619L208.169 153.123L207.663 153.398L208.169 153.677L208.449 154.182L208.725 153.677L209.235 153.398L208.725 153.123L208.449 152.619Z" fill="black"/>
<path d="M206.251 152.619L205.971 153.123L205.465 153.398L205.971 153.677L206.251 154.182L206.526 153.677L207.036 153.398L206.526 153.123L206.251 152.619Z" fill="black"/>
<path d="M207.345 167.08L207.07 167.585L206.56 167.864L207.07 168.139L207.345 168.644L207.625 168.139L208.131 167.864L207.625 167.585L207.345 167.08Z" fill="black"/>
<path d="M205.147 167.08L204.871 167.585L204.365 167.864L204.871 168.139L205.147 168.644L205.427 168.139L205.933 167.864L205.427 167.585L205.147 167.08Z" fill="black"/>
<path d="M208.449 165.494L208.169 165.999L207.663 166.278L208.169 166.553L208.449 167.062L208.725 166.553L209.235 166.278L208.725 165.999L208.449 165.494Z" fill="black"/>
<path d="M206.251 165.494L205.971 165.999L205.465 166.278L205.971 166.553L206.251 167.062L206.526 166.553L207.036 166.278L206.526 165.999L206.251 165.494Z" fill="black"/>
<path d="M207.345 163.909L207.07 164.417L206.56 164.692L207.07 164.971L207.345 165.476L207.625 164.971L208.131 164.692L207.625 164.417L207.345 163.909Z" fill="black"/>
<path d="M205.147 163.909L204.871 164.417L204.365 164.692L204.871 164.971L205.147 165.476L205.427 164.971L205.933 164.692L205.427 164.417L205.147 163.909Z" fill="black"/>
<path d="M208.449 162.323L208.169 162.831L207.663 163.106L208.169 163.385L208.449 163.89L208.725 163.385L209.235 163.106L208.725 162.831L208.449 162.323Z" fill="black"/>
<path d="M206.251 162.323L205.971 162.831L205.465 163.106L205.971 163.385L206.251 163.89L206.526 163.385L207.036 163.106L206.526 162.831L206.251 162.323Z" fill="black"/>
<path d="M207.345 160.673L207.07 161.177L206.56 161.452L207.07 161.731L207.345 162.236L207.625 161.731L208.131 161.452L207.625 161.177L207.345 160.673Z" fill="black"/>
<path d="M205.147 160.673L204.871 161.177L204.365 161.452L204.871 161.731L205.147 162.236L205.427 161.731L205.933 161.452L205.427 161.177L205.147 160.673Z" fill="black"/>
<path d="M208.449 159.087L208.169 159.591L207.663 159.87L208.169 160.145L208.449 160.65L208.725 160.145L209.235 159.87L208.725 159.591L208.449 159.087Z" fill="black"/>
<path d="M206.251 159.087L205.971 159.591L205.465 159.87L205.971 160.145L206.251 160.65L206.526 160.145L207.036 159.87L206.526 159.591L206.251 159.087Z" fill="black"/>
<path d="M207.345 157.501L207.07 158.006L206.56 158.284L207.07 158.559L207.345 159.068L207.625 158.559L208.131 158.284L207.625 158.006L207.345 157.501Z" fill="black"/>
<path d="M205.147 157.501L204.871 158.006L204.365 158.284L204.871 158.559L205.147 159.068L205.427 158.559L205.933 158.284L205.427 158.006L205.147 157.501Z" fill="black"/>
<path d="M208.449 155.915L208.169 156.423L207.663 156.698L208.169 156.977L208.449 157.482L208.725 156.977L209.235 156.698L208.725 156.423L208.449 155.915Z" fill="black"/>
<path d="M206.251 155.915L205.971 156.423L205.465 156.698L205.971 156.977L206.251 157.482L206.526 156.977L207.036 156.698L206.526 156.423L206.251 155.915Z" fill="black"/>
<path d="M207.345 170.426L207.07 170.934L206.56 171.209L207.07 171.488L207.345 171.993L207.625 171.488L208.131 171.209L207.625 170.934L207.345 170.426Z" fill="black"/>
<path d="M205.147 170.426L204.871 170.934L204.365 171.209L204.871 171.488L205.147 171.993L205.427 171.488L205.933 171.209L205.427 170.934L205.147 170.426Z" fill="black"/>
<path d="M208.449 168.84L208.169 169.348L207.663 169.623L208.169 169.902L208.449 170.407L208.725 169.902L209.235 169.623L208.725 169.348L208.449 168.84Z" fill="black"/>
<path d="M206.251 168.84L205.971 169.348L205.465 169.623L205.971 169.902L206.251 170.407L206.526 169.902L207.036 169.623L206.526 169.348L206.251 168.84Z" fill="black"/>
<path d="M202.714 154.201L202.435 154.709L201.929 154.984L202.435 155.263L202.714 155.768L202.99 155.263L203.496 154.984L202.99 154.709L202.714 154.201Z" fill="black"/>
<path d="M202.714 167.08L202.435 167.585L201.929 167.864L202.435 168.139L202.714 168.644L202.99 168.139L203.496 167.864L202.99 167.585L202.714 167.08Z" fill="black"/>
<path d="M203.814 165.494L203.538 165.999L203.028 166.278L203.538 166.553L203.814 167.061L204.094 166.553L204.6 166.278L204.094 165.999L203.814 165.494Z" fill="black"/>
<path d="M201.65 165.494L201.374 165.999L200.864 166.278L201.374 166.553L201.65 167.061L201.93 166.553L202.436 166.278L201.93 165.999L201.65 165.494Z" fill="black"/>
<path d="M202.714 163.908L202.435 164.417L201.929 164.692L202.435 164.971L202.714 165.476L202.99 164.971L203.496 164.692L202.99 164.417L202.714 163.908Z" fill="black"/>
<path d="M200.55 163.908L200.271 164.417L199.765 164.692L200.271 164.971L200.55 165.476L200.826 164.971L201.332 164.692L200.826 164.417L200.55 163.908Z" fill="black"/>
<path d="M203.814 162.323L203.538 162.831L203.028 163.106L203.538 163.385L203.814 163.89L204.094 163.385L204.6 163.106L204.094 162.831L203.814 162.323Z" fill="black"/>
<path d="M201.65 162.323L201.374 162.831L200.864 163.106L201.374 163.385L201.65 163.89L201.93 163.385L202.436 163.106L201.93 162.831L201.65 162.323Z" fill="black"/>
<path d="M202.714 160.673L202.435 161.177L201.929 161.452L202.435 161.731L202.714 162.236L202.99 161.731L203.496 161.452L202.99 161.177L202.714 160.673Z" fill="black"/>
<path d="M200.55 160.673L200.271 161.177L199.765 161.452L200.271 161.731L200.55 162.236L200.826 161.731L201.332 161.452L200.826 161.177L200.55 160.673Z" fill="black"/>
<path d="M203.814 159.087L203.538 159.591L203.028 159.87L203.538 160.145L203.814 160.65L204.094 160.145L204.6 159.87L204.094 159.591L203.814 159.087Z" fill="black"/>
<path d="M201.65 159.087L201.374 159.591L200.864 159.87L201.374 160.145L201.65 160.65L201.93 160.145L202.436 159.87L201.93 159.591L201.65 159.087Z" fill="black"/>
<path d="M202.714 157.501L202.435 158.006L201.929 158.284L202.435 158.559L202.714 159.068L202.99 158.559L203.496 158.284L202.99 158.006L202.714 157.501Z" fill="black"/>
<path d="M200.55 157.501L200.271 158.006L199.765 158.284L200.271 158.559L200.55 159.068L200.826 158.559L201.332 158.284L200.826 158.006L200.55 157.501Z" fill="black"/>
<path d="M203.814 155.915L203.538 156.423L203.028 156.698L203.538 156.977L203.814 157.482L204.094 156.977L204.6 156.698L204.094 156.423L203.814 155.915Z" fill="black"/>
<path d="M201.65 155.915L201.374 156.423L200.864 156.698L201.374 156.977L201.65 157.482L201.93 156.977L202.436 156.698L201.93 156.423L201.65 155.915Z" fill="black"/>
<path d="M203.814 168.84L203.538 169.348L203.028 169.623L203.538 169.902L203.814 170.407L204.094 169.902L204.6 169.623L204.094 169.348L203.814 168.84Z" fill="black"/>
<path d="M216.355 154.201L216.076 154.709L215.569 154.984L216.076 155.263L216.355 155.768L216.631 155.263L217.141 154.984L216.631 154.709L216.355 154.201Z" fill="black"/>
<path d="M214.157 154.201L213.877 154.709L213.371 154.984L213.877 155.263L214.157 155.768L214.433 155.263L214.943 154.984L214.433 154.709L214.157 154.201Z" fill="black"/>
<path d="M216.355 167.08L216.076 167.585L215.569 167.864L216.076 168.139L216.355 168.644L216.631 168.139L217.141 167.864L216.631 167.585L216.355 167.08Z" fill="black"/>
<path d="M214.157 167.08L213.877 167.585L213.371 167.864L213.877 168.139L214.157 168.644L214.433 168.139L214.943 167.864L214.433 167.585L214.157 167.08Z" fill="black"/>
<path d="M217.455 165.494L217.179 165.999L216.673 166.278L217.179 166.553L217.455 167.061L217.734 166.553L218.24 166.278L217.734 165.999L217.455 165.494Z" fill="black"/>
<path d="M215.257 165.494L214.981 165.999L214.475 166.278L214.981 166.553L215.257 167.061L215.536 166.553L216.042 166.278L215.536 165.999L215.257 165.494Z" fill="black"/>
<path d="M216.355 163.908L216.076 164.417L215.569 164.692L216.076 164.971L216.355 165.476L216.631 164.971L217.141 164.692L216.631 164.417L216.355 163.908Z" fill="black"/>
<path d="M214.157 163.908L213.877 164.417L213.371 164.692L213.877 164.971L214.157 165.476L214.433 164.971L214.943 164.692L214.433 164.417L214.157 163.908Z" fill="black"/>
<path d="M217.455 162.323L217.179 162.831L216.673 163.106L217.179 163.385L217.455 163.89L217.734 163.385L218.24 163.106L217.734 162.831L217.455 162.323Z" fill="black"/>
<path d="M215.257 162.323L214.981 162.831L214.475 163.106L214.981 163.385L215.257 163.89L215.536 163.385L216.042 163.106L215.536 162.831L215.257 162.323Z" fill="black"/>
<path d="M216.355 160.673L216.076 161.177L215.569 161.452L216.076 161.731L216.355 162.236L216.631 161.731L217.141 161.452L216.631 161.177L216.355 160.673Z" fill="black"/>
<path d="M214.157 160.673L213.877 161.177L213.371 161.452L213.877 161.731L214.157 162.236L214.433 161.731L214.943 161.452L214.433 161.177L214.157 160.673Z" fill="black"/>
<path d="M217.455 159.087L217.179 159.591L216.673 159.87L217.179 160.145L217.455 160.65L217.734 160.145L218.24 159.87L217.734 159.591L217.455 159.087Z" fill="black"/>
<path d="M215.257 159.087L214.981 159.591L214.475 159.87L214.981 160.145L215.257 160.65L215.536 160.145L216.042 159.87L215.536 159.591L215.257 159.087Z" fill="black"/>
<path d="M216.355 157.501L216.076 158.006L215.569 158.284L216.076 158.559L216.355 159.068L216.631 158.559L217.141 158.284L216.631 158.006L216.355 157.501Z" fill="black"/>
<path d="M214.157 157.501L213.877 158.006L213.371 158.284L213.877 158.559L214.157 159.068L214.433 158.559L214.943 158.284L214.433 158.006L214.157 157.501Z" fill="black"/>
<path d="M217.455 155.915L217.179 156.423L216.673 156.698L217.179 156.977L217.455 157.482L217.734 156.977L218.24 156.698L217.734 156.423L217.455 155.915Z" fill="black"/>
<path d="M215.257 155.915L214.981 156.423L214.475 156.698L214.981 156.977L215.257 157.482L215.536 156.977L216.042 156.698L215.536 156.423L215.257 155.915Z" fill="black"/>
<path d="M214.157 170.426L213.877 170.934L213.371 171.209L213.877 171.488L213.983 171.676L214.433 171.488L214.943 171.209L214.433 170.934L214.157 170.426Z" fill="black"/>
<path d="M215.257 168.84L214.981 169.348L214.475 169.623L214.981 169.902L215.257 170.407L215.536 169.902L216.042 169.623L215.536 169.348L215.257 168.84Z" fill="black"/>
<path d="M211.72 154.201L211.445 154.709L210.935 154.984L211.445 155.263L211.72 155.768L212 155.263L212.506 154.984L212 154.709L211.72 154.201Z" fill="black"/>
<path d="M209.556 154.201L209.28 154.709L208.771 154.984L209.28 155.263L209.556 155.768L209.836 155.263L210.342 154.984L209.836 154.709L209.556 154.201Z" fill="black"/>
<path d="M212.824 152.619L212.544 153.123L212.038 153.398L212.544 153.677L212.824 154.182L213.1 153.677L213.609 153.398L213.1 153.123L212.824 152.619Z" fill="black"/>
<path d="M210.659 152.619L210.379 153.123L209.873 153.398L210.379 153.677L210.659 154.182L210.935 153.677L211.444 153.398L210.935 153.123L210.659 152.619Z" fill="black"/>
<path d="M211.72 167.08L211.445 167.585L210.935 167.864L211.445 168.139L211.72 168.644L212 168.139L212.506 167.864L212 167.585L211.72 167.08Z" fill="black"/>
<path d="M209.556 167.08L209.28 167.585L208.771 167.864L209.28 168.139L209.556 168.644L209.836 168.139L210.342 167.864L209.836 167.585L209.556 167.08Z" fill="black"/>
<path d="M212.824 165.494L212.544 165.999L212.038 166.278L212.544 166.553L212.824 167.062L213.1 166.553L213.609 166.278L213.1 165.999L212.824 165.494Z" fill="black"/>
<path d="M210.659 165.494L210.379 165.999L209.873 166.278L210.379 166.553L210.659 167.062L210.935 166.553L211.444 166.278L210.935 165.999L210.659 165.494Z" fill="black"/>
<path d="M211.72 163.909L211.445 164.417L210.935 164.692L211.445 164.971L211.72 165.476L212 164.971L212.506 164.692L212 164.417L211.72 163.909Z" fill="black"/>
<path d="M209.556 163.909L209.28 164.417L208.771 164.692L209.28 164.971L209.556 165.476L209.836 164.971L210.342 164.692L209.836 164.417L209.556 163.909Z" fill="black"/>
<path d="M212.824 162.323L212.544 162.831L212.038 163.106L212.544 163.385L212.824 163.89L213.1 163.385L213.609 163.106L213.1 162.831L212.824 162.323Z" fill="black"/>
<path d="M210.659 162.323L210.379 162.831L209.873 163.106L210.379 163.385L210.659 163.89L210.935 163.385L211.444 163.106L210.935 162.831L210.659 162.323Z" fill="black"/>
<path d="M211.72 160.673L211.445 161.177L210.935 161.452L211.445 161.731L211.72 162.236L212 161.731L212.506 161.452L212 161.177L211.72 160.673Z" fill="black"/>
<path d="M209.556 160.673L209.28 161.177L208.771 161.452L209.28 161.731L209.556 162.236L209.836 161.731L210.342 161.452L209.836 161.177L209.556 160.673Z" fill="black"/>
<path d="M212.824 159.087L212.544 159.591L212.038 159.87L212.544 160.145L212.824 160.65L213.1 160.145L213.609 159.87L213.1 159.591L212.824 159.087Z" fill="black"/>
<path d="M210.659 159.087L210.379 159.591L209.873 159.87L210.379 160.145L210.659 160.65L210.935 160.145L211.444 159.87L210.935 159.591L210.659 159.087Z" fill="black"/>
<path d="M211.72 157.501L211.445 158.006L210.935 158.284L211.445 158.559L211.72 159.068L212 158.559L212.506 158.284L212 158.006L211.72 157.501Z" fill="black"/>
<path d="M209.556 157.501L209.28 158.006L208.771 158.284L209.28 158.559L209.556 159.068L209.836 158.559L210.342 158.284L209.836 158.006L209.556 157.501Z" fill="black"/>
<path d="M212.824 155.915L212.544 156.423L212.038 156.698L212.544 156.977L212.824 157.482L213.1 156.977L213.609 156.698L213.1 156.423L212.824 155.915Z" fill="black"/>
<path d="M210.659 155.915L210.379 156.423L209.873 156.698L210.379 156.977L210.659 157.482L210.935 156.977L211.444 156.698L210.935 156.423L210.659 155.915Z" fill="black"/>
<path d="M211.72 170.426L211.445 170.934L210.935 171.209L211.445 171.488L211.72 171.993L212 171.488L212.506 171.209L212 170.934L211.72 170.426Z" fill="black"/>
<path d="M209.556 170.426L209.28 170.934L208.771 171.209L209.28 171.488L209.556 171.993L209.836 171.488L210.342 171.209L209.836 170.934L209.556 170.426Z" fill="black"/>
<path d="M212.824 168.84L212.544 169.348L212.038 169.623L212.544 169.902L212.824 170.407L213.1 169.902L213.609 169.623L213.1 169.348L212.824 168.84Z" fill="black"/>
<path d="M210.659 168.84L210.379 169.348L209.873 169.623L210.379 169.902L210.659 170.407L210.935 169.902L211.444 169.623L210.935 169.348L210.659 168.84Z" fill="black"/>
<path d="M218.72 163.909L218.441 164.417L217.935 164.692L218.441 164.971L218.72 165.476L218.996 164.971L219.506 164.692L218.996 164.417L218.72 163.909Z" fill="black"/>
<path d="M218.72 160.673L218.441 161.177L217.935 161.452L218.441 161.731L218.72 162.236L218.996 161.731L219.506 161.452L218.996 161.177L218.72 160.673Z" fill="black"/>
<path d="M218.72 157.501L218.441 158.006L217.935 158.284L218.441 158.559L218.72 159.068L218.996 158.559L218.985 158.284L218.996 158.006L218.72 157.501Z" fill="black"/>
<path d="M194.419 175.104C191.488 171.68 189.72 167.239 189.72 162.387C189.72 151.564 198.517 142.79 209.37 142.79C220.223 142.79 229.021 151.564 229.021 162.387C229.021 167.001 227.423 171.243 224.745 174.592" stroke="black" stroke-width="2" stroke-miterlimit="10" stroke-linecap="round" stroke-linejoin="round"/>
<path d="M184.813 182.303C179.997 176.679 177.092 169.386 177.092 161.411C177.092 143.634 191.544 129.221 209.37 129.221C227.196 129.221 241.649 143.634 241.649 161.411C241.649 168.99 239.02 175.959 234.627 181.459" stroke="black" stroke-width="2" stroke-miterlimit="10" stroke-linecap="round" stroke-linejoin="round"/>
<path d="M206.919 194.158L208.781 205.44L209.159 208.906V214.033L228.979 212.496L228.998 204.89L231.405 196.776L230.453 184.608L222.093 180.89L215.471 179.64L208.139 181.783L206.919 194.158Z" fill="white"/>
<path d="M209.201 210.353V208.45L201.234 198.102L197.166 182.623C197.166 182.623 196.251 180.389 198.824 178.732C201.396 177.074 202.401 180.224 203.104 181.629C203.806 183.038 206.213 188.003 206.213 188.003V163.502C206.213 163.502 206.379 159.859 209.865 159.859C213.352 159.859 213.352 163.502 213.352 163.502L213.545 182.488" fill="white"/>
<path d="M209.201 210.353V208.45L201.234 198.102L197.166 182.623C197.166 182.623 196.251 180.389 198.824 178.732C201.396 177.074 202.401 180.224 203.104 181.629C203.806 183.038 206.213 188.003 206.213 188.003V163.502C206.213 163.502 206.379 159.859 209.865 159.859C213.352 159.859 213.352 163.502 213.352 163.502L213.545 182.488" stroke="black" stroke-width="2" stroke-miterlimit="10" stroke-linecap="round" stroke-linejoin="round"/>
<path d="M229.04 210.353V204.89L231.446 196.78V183.945C231.446 183.945 229.871 180.442 226.161 180.939V186.1" fill="white"/>
<path d="M229.04 210.353V204.89L231.446 196.78V183.945C231.446 183.945 229.871 180.442 226.161 180.939V186.1" stroke="black" stroke-width="2" stroke-miterlimit="10" stroke-linecap="round" stroke-linejoin="round"/>
<path d="M219.717 184.608V177.519C216.896 173.601 213.549 174.871 213.549 174.871V180.894V182.601" fill="white"/>
<path d="M219.717 184.608V177.519C216.896 173.601 213.549 174.871 213.549 174.871V180.894V182.601" stroke="black" stroke-width="2" stroke-miterlimit="10" stroke-linecap="round" stroke-linejoin="round"/>
<path d="M219.717 183.561V177.519C223.702 176.69 226.165 180.939 226.165 180.939V185.272" fill="white"/>
<path d="M219.717 183.561V177.519C223.702 176.69 226.165 180.939 226.165 180.939V185.272" stroke="black" stroke-width="2" stroke-miterlimit="10" stroke-linecap="round" stroke-linejoin="round"/>
<path d="M230.985 219.623H207.334C206.503 219.623 205.823 218.945 205.823 218.116V211.859C205.823 211.031 206.503 210.353 207.334 210.353H230.985C231.816 210.353 232.496 211.031 232.496 211.859V218.116C232.496 218.945 231.816 219.623 230.985 219.623Z" fill="black" stroke="black" stroke-width="2" stroke-miterlimit="10" stroke-linecap="round" stroke-linejoin="round"/>
<path d="M239.352 91.8371C262.697 91.8371 281.622 72.9644 281.622 49.6837C281.622 26.403 262.697 7.53033 239.352 7.53033C216.007 7.53033 197.082 26.403 197.082 49.6837C197.082 72.9644 216.007 91.8371 239.352 91.8371Z" fill="white" stroke="black" stroke-width="2" stroke-miterlimit="10" stroke-linecap="round" stroke-linejoin="round"/>
<path d="M246.937 21.6078H244.342C243.79 19.3702 242.891 17.2719 241.701 15.3733L243.571 13.5086C244.251 12.8306 244.251 11.7193 243.571 11.0374L238.955 6.43409C238.271 5.75602 237.157 5.75602 236.477 6.43409L234.573 8.33269C232.673 7.17997 230.58 6.31732 228.356 5.78993V3.07764C228.356 2.11704 227.566 1.3335 226.603 1.3335H220.075C219.112 1.3335 218.323 2.11704 218.323 3.07764V5.78993C216.098 6.31732 214.005 7.17997 212.109 8.33269L210.201 6.43409C209.521 5.75602 208.407 5.75602 207.723 6.43409L203.107 11.0374C202.427 11.7193 202.427 12.8306 203.107 13.5086L204.977 15.3733C203.787 17.2719 202.888 19.3702 202.336 21.6078H199.741C198.778 21.6078 197.992 22.3951 197.992 23.3557V29.8652C197.992 30.8258 198.778 31.6131 199.741 31.6131H202.257C202.782 33.8922 203.662 36.0356 204.848 37.9757L203.107 39.7123C202.427 40.3904 202.427 41.5016 203.107 42.1835L207.723 46.7868C208.407 47.4649 209.521 47.4649 210.201 46.7868L211.905 45.0879C213.858 46.3046 216.018 47.2125 218.323 47.7587V50.1433C218.323 51.1039 219.112 51.8874 220.075 51.8874H226.603C227.566 51.8874 228.356 51.1039 228.356 50.1433V47.7587C230.66 47.2125 232.821 46.3046 234.773 45.0879L236.477 46.7868C237.157 47.4649 238.271 47.4649 238.955 46.7868L243.571 42.1835C244.251 41.5016 244.251 40.3904 243.571 39.7123L241.83 37.9757C243.016 36.0356 243.896 33.8922 244.421 31.6131H246.937C247.9 31.6131 248.686 30.8258 248.686 29.8652V23.3557C248.686 22.3951 247.9 21.6078 246.937 21.6078ZM223.339 37.5462C217.284 37.5462 212.373 32.6491 212.373 26.6105C212.373 20.5719 217.284 15.6747 223.339 15.6747C229.394 15.6747 234.305 20.5719 234.305 26.6105C234.305 32.6491 229.394 37.5462 223.339 37.5462Z" fill="#9E6CFF" stroke="black" stroke-width="2" stroke-miterlimit="10" stroke-linecap="round" stroke-linejoin="round"/>
<path d="M267.453 56.698L266.168 53.6014C265.806 52.7237 264.786 52.298 263.906 52.6634L261.231 53.7672C259.384 51.1227 256.706 49.0998 253.57 48.0752L253.748 45.3968C253.808 44.4512 253.079 43.6187 252.131 43.5585L248.777 43.3362C247.829 43.2759 246.994 44.003 246.933 44.9485L246.767 47.4762C243.715 47.9019 240.95 49.2392 238.774 51.2094L236.81 49.8758C236.02 49.3409 234.936 49.5481 234.403 50.3354L232.511 53.1042C231.975 53.8915 232.182 54.9726 232.972 55.5076L234.879 56.8034C234.199 58.5174 233.822 60.3821 233.822 62.3372C233.822 63.2338 233.905 64.1115 234.056 64.9629L231.907 65.8481C231.023 66.2098 230.6 67.2269 230.966 68.1046L232.247 71.2011C232.609 72.0789 233.629 72.5045 234.517 72.1391L236.746 71.2162C238.714 73.8908 241.554 75.8836 244.844 76.7952L244.674 79.402C244.61 80.3476 245.339 81.1763 246.291 81.2403L249.646 81.4551C250.594 81.5191 251.425 80.7921 251.489 79.8465L251.67 77.0815C254.545 76.5466 257.133 75.1904 259.184 73.2692L261.609 74.9155C262.398 75.4466 263.483 75.2432 264.019 74.4559L265.911 71.6833C266.444 70.8998 266.24 69.8149 265.451 69.2837L262.973 67.6036C263.592 65.9612 263.936 64.1831 263.936 62.3222C263.936 61.5575 263.875 60.8078 263.766 60.0732L266.516 58.9394C267.392 58.5928 267.819 57.5757 267.453 56.698ZM248.875 70.4214C244.399 70.4214 240.769 66.8012 240.769 62.3372C240.769 57.8733 244.399 54.2569 248.875 54.2569C253.351 54.2569 256.978 57.8733 256.978 62.3372C256.978 66.8012 253.351 70.4214 248.875 70.4214Z" fill="#9E6CFF" stroke="black" stroke-width="2" stroke-miterlimit="10" stroke-linecap="round" stroke-linejoin="round"/>
<path d="M241.332 10.1296L241.056 10.6344L240.55 10.9131L241.056 11.1881L241.332 11.6967L241.611 11.1881L242.117 10.9131L241.611 10.6344L241.332 10.1296Z" fill="black"/>
<path d="M239.137 10.1296L238.858 10.6344L238.352 10.9131L238.858 11.1881L239.137 11.6967L239.413 11.1881L239.919 10.9131L239.413 10.6344L239.137 10.1296Z" fill="black"/>
<path d="M240.237 8.5437L239.961 9.05225L239.451 9.32725L239.961 9.60601L240.237 10.1108L240.516 9.60601L241.023 9.32725L240.516 9.05225L240.237 8.5437Z" fill="black"/>
<path d="M241.332 6.96149L241.056 7.46627L240.55 7.74127L241.056 8.02003L241.332 8.52482L241.611 8.02003L242.117 7.74127L241.611 7.46627L241.332 6.96149Z" fill="black"/>
<path d="M239.137 6.96149L238.858 7.46627L238.352 7.74127L238.858 8.02003L239.137 8.52482L239.413 8.02003L239.919 7.74127L239.413 7.46627L239.137 6.96149Z" fill="black"/>
<path d="M241.332 23.0544L241.056 23.5629L240.55 23.8379L241.056 24.1167L241.332 24.6215L241.611 24.1167L242.117 23.8379L241.611 23.5629L241.332 23.0544Z" fill="black"/>
<path d="M242.435 21.4722L242.159 21.977L241.649 22.2519L242.159 22.5307L242.435 23.0355L242.715 22.5307L243.221 22.2519L242.715 21.977L242.435 21.4722Z" fill="black"/>
<path d="M241.332 19.8863L241.056 20.3911L240.55 20.6698L241.056 20.9448L241.332 21.4534L241.611 20.9448L242.117 20.6698L241.611 20.3911L241.332 19.8863Z" fill="black"/>
<path d="M242.435 18.3004L242.159 18.8051L241.649 19.0839L242.159 19.3589L242.435 19.8675L242.715 19.3589L243.221 19.0839L242.715 18.8051L242.435 18.3004Z" fill="black"/>
<path d="M240.237 18.3004L239.961 18.8051L239.451 19.0839L239.961 19.3589L240.237 19.8675L240.516 19.3589L241.023 19.0839L240.516 18.8051L240.237 18.3004Z" fill="black"/>
<path d="M241.332 16.6466L241.056 17.1552L240.55 17.4302L241.056 17.7089L241.332 18.2137L241.611 17.7089L242.117 17.4302L241.611 17.1552L241.332 16.6466Z" fill="black"/>
<path d="M239.137 16.6466L238.858 17.1552L238.352 17.4302L238.858 17.7089L239.137 18.2137L239.413 17.7089L239.919 17.4302L239.413 17.1552L239.137 16.6466Z" fill="black"/>
<path d="M240.237 15.0607L239.961 15.5692L239.451 15.8442L239.961 16.123L240.237 16.6278L240.516 16.123L241.023 15.8442L240.516 15.5692L240.237 15.0607Z" fill="black"/>
<path d="M241.332 13.4785L241.056 13.9833L240.55 14.2621L241.056 14.5371L241.332 15.0456L241.611 14.5371L242.117 14.2621L241.611 13.9833L241.332 13.4785Z" fill="black"/>
<path d="M239.137 13.4785L238.858 13.9833L238.352 14.2621L238.858 14.5371L239.137 15.0456L239.413 14.5371L239.919 14.2621L239.413 13.9833L239.137 13.4785Z" fill="black"/>
<path d="M242.435 11.8926L242.159 12.3974L241.649 12.6761L242.159 12.9511L242.435 13.4597L242.715 12.9511L243.221 12.6761L242.715 12.3974L242.435 11.8926Z" fill="black"/>
<path d="M240.237 11.8926L239.961 12.3974L239.451 12.6761L239.961 12.9511L240.237 13.4597L240.516 12.9511L241.023 12.6761L240.516 12.3974L240.237 11.8926Z" fill="black"/>
<path d="M241.332 35.9339L241.056 36.4387L240.55 36.7174L241.056 36.9924L241.332 37.4972L241.611 36.9924L242.117 36.7174L241.611 36.4387L241.332 35.9339Z" fill="black"/>
<path d="M239.137 35.9339L238.858 36.4387L238.352 36.7174L238.858 36.9924L239.137 37.4972L239.413 36.9924L239.919 36.7174L239.413 36.4387L239.137 35.9339Z" fill="black"/>
<path d="M242.435 34.348L242.159 34.8527L241.649 35.1315L242.159 35.4065L242.435 35.9151L242.715 35.4065L243.221 35.1315L242.715 34.8527L242.435 34.348Z" fill="black"/>
<path d="M240.237 34.348L239.961 34.8527L239.451 35.1315L239.961 35.4065L240.237 35.9151L240.516 35.4065L241.023 35.1315L240.516 34.8527L240.237 34.348Z" fill="black"/>
<path d="M241.332 32.7621L241.056 33.2669L240.55 33.5456L241.056 33.8206L241.332 34.3292L241.611 33.8206L242.117 33.5456L241.611 33.2669L241.332 32.7621Z" fill="black"/>
<path d="M242.435 31.1761L242.159 31.6847L241.649 31.9597L242.159 32.2385L242.435 32.7433L242.715 32.2385L243.221 31.9597L242.715 31.6847L242.435 31.1761Z" fill="black"/>
<path d="M242.435 27.9402L242.159 28.445L241.649 28.7237L242.159 28.9987L242.435 29.5035L242.715 28.9987L243.221 28.7237L242.715 28.445L242.435 27.9402Z" fill="black"/>
<path d="M242.435 24.7684L242.159 25.2769L241.649 25.5519L242.159 25.8269L242.435 26.3355L242.715 25.8269L243.221 25.5519L242.715 25.2769L242.435 24.7684Z" fill="black"/>
<path d="M239.137 45.6868L238.858 46.1954L238.352 46.4704L238.858 46.7491L239.137 47.2539L239.413 46.7491L239.919 46.4704L239.413 46.1954L239.137 45.6868Z" fill="black"/>
<path d="M240.237 44.1046L239.961 44.6094L239.451 44.8844L239.961 45.1632L240.237 45.6679L240.516 45.1632L241.023 44.8844L240.516 44.6094L240.237 44.1046Z" fill="black"/>
<path d="M241.332 42.4509L241.056 42.9557L240.55 43.2345L241.056 43.5095L241.332 44.018L241.611 43.5095L242.117 43.2345L241.611 42.9557L241.332 42.4509Z" fill="black"/>
<path d="M239.137 42.4509L238.858 42.9557L238.352 43.2345L238.858 43.5095L239.137 44.018L239.413 43.5095L239.919 43.2345L239.413 42.9557L239.137 42.4509Z" fill="black"/>
<path d="M242.435 40.8649L242.159 41.3697L241.649 41.6485L242.159 41.9235L242.435 42.432L242.715 41.9235L243.221 41.6485L242.715 41.3697L242.435 40.8649Z" fill="black"/>
<path d="M240.237 40.8649L239.961 41.3697L239.451 41.6485L239.961 41.9235L240.237 42.432L240.516 41.9235L241.023 41.6485L240.516 41.3697L240.237 40.8649Z" fill="black"/>
<path d="M241.332 39.2791L241.056 39.7876L240.55 40.0626L241.056 40.3414L241.332 40.8462L241.611 40.3414L242.117 40.0626L241.611 39.7876L241.332 39.2791Z" fill="black"/>
<path d="M242.435 37.6931L242.159 38.2017L241.649 38.4767L242.159 38.7554L242.435 39.2602L242.715 38.7554L243.221 38.4767L242.715 38.2017L242.435 37.6931Z" fill="black"/>
<path d="M240.237 37.6931L239.961 38.2017L239.451 38.4767L239.961 38.7554L240.237 39.2602L240.516 38.7554L241.023 38.4767L240.516 38.2017L240.237 37.6931Z" fill="black"/>
<path d="M245.77 23.0543L245.494 23.5629L244.988 23.8379L245.494 24.1166L245.77 24.6214L246.05 24.1166L246.556 23.8379L246.05 23.5629L245.77 23.0543Z" fill="black"/>
<path d="M243.572 23.0543L243.296 23.5629L242.79 23.8379L243.296 24.1166L243.572 24.6214L243.852 24.1166L244.358 23.8379L243.852 23.5629L243.572 23.0543Z" fill="black"/>
<path d="M246.874 21.4722L246.598 21.977L246.088 22.2519L246.598 22.5307L246.874 23.0355L247.149 22.5307L247.659 22.2519L247.149 21.977L246.874 21.4722Z" fill="black"/>
<path d="M244.675 21.4722L244.4 21.977L243.89 22.2519L244.4 22.5307L244.675 23.0355L244.955 22.5307L245.461 22.2519L244.955 21.977L244.675 21.4722Z" fill="black"/>
<path d="M243.572 19.8862L243.296 20.391L242.79 20.6698L243.296 20.9448L243.572 21.4533L243.852 20.9448L244.358 20.6698L243.852 20.391L243.572 19.8862Z" fill="black"/>
<path d="M243.572 32.7621L243.296 33.2669L242.79 33.5456L243.296 33.8206L243.572 34.3292L243.852 33.8206L244.358 33.5456L243.852 33.2669L243.572 32.7621Z" fill="black"/>
<path d="M244.675 31.1761L244.4 31.6847L243.89 31.9597L244.4 32.2385L244.675 32.7433L244.955 32.2385L245.461 31.9597L244.955 31.6847L244.675 31.1761Z" fill="black"/>
<path d="M245.77 29.5262L245.494 30.031L244.988 30.306L245.494 30.5847L245.77 31.0895L246.05 30.5847L246.556 30.306L246.05 30.031L245.77 29.5262Z" fill="black"/>
<path d="M243.572 29.5262L243.296 30.031L242.79 30.306L243.296 30.5847L243.572 31.0895L243.852 30.5847L244.358 30.306L243.852 30.031L243.572 29.5262Z" fill="black"/>
<path d="M246.874 27.9402L246.598 28.445L246.088 28.7237L246.598 28.9987L246.874 29.5035L247.149 28.9987L247.659 28.7237L247.149 28.445L246.874 27.9402Z" fill="black"/>
<path d="M244.675 27.9402L244.4 28.445L243.89 28.7237L244.4 28.9987L244.675 29.5035L244.955 28.9987L245.461 28.7237L244.955 28.445L244.675 27.9402Z" fill="black"/>
<path d="M245.77 26.3543L245.494 26.8591L244.988 27.1379L245.494 27.4129L245.77 27.9214L246.05 27.4129L246.556 27.1379L246.05 26.8591L245.77 26.3543Z" fill="black"/>
<path d="M243.572 26.3543L243.296 26.8591L242.79 27.1379L243.296 27.4129L243.572 27.9214L243.852 27.4129L244.358 27.1379L243.852 26.8591L243.572 26.3543Z" fill="black"/>
<path d="M246.874 24.7684L246.598 25.2769L246.088 25.5519L246.598 25.8269L246.874 26.3355L247.149 25.8269L247.659 25.5519L247.149 25.2769L246.874 24.7684Z" fill="black"/>
<path d="M244.675 24.7684L244.4 25.2769L243.89 25.5519L244.4 25.8269L244.675 26.3355L244.955 25.8269L245.461 25.5519L244.955 25.2769L244.675 24.7684Z" fill="black"/>
<path d="M243.572 39.2791L243.296 39.7876L242.79 40.0626L243.296 40.3414L243.572 40.8462L243.852 40.3414L244.358 40.0626L243.852 39.7876L243.572 39.2791Z" fill="black"/>
<path d="M248.03 29.4244L247.754 29.9329L247.244 30.2079L247.754 30.4867L248.03 30.9915L248.309 30.4867L248.816 30.2079L248.309 29.9329L248.03 29.4244Z" fill="black"/>
<path d="M248.03 26.2563L247.754 26.7611L247.244 27.0398L247.754 27.3148L248.03 27.8234L248.309 27.3148L248.816 27.0398L248.309 26.7611L248.03 26.2563Z" fill="black"/>
<path d="M248.03 23.0166L247.754 23.5252L247.244 23.8002L247.754 24.0789L248.03 24.5837L248.309 24.0789L248.816 23.8002L248.309 23.5252L248.03 23.0166Z" fill="black"/>
<path d="M236.701 10.1296L236.421 10.6344L235.915 10.9131L236.421 11.1881L236.701 11.6967L236.977 11.1881L237.486 10.9131L236.977 10.6344L236.701 10.1296Z" fill="black"/>
<path d="M237.799 8.54364L237.524 9.05219L237.014 9.32719L237.524 9.60595L237.799 10.1107L238.079 9.60595L238.585 9.32719L238.079 9.05219L237.799 8.54364Z" fill="black"/>
<path d="M235.635 8.54364L235.36 9.05219L234.85 9.32719L235.36 9.60595L235.635 10.1107L235.915 9.60595L236.421 9.32719L235.915 9.05219L235.635 8.54364Z" fill="black"/>
<path d="M236.701 6.96149L236.421 7.46627L235.915 7.74127L236.421 8.02003L236.701 8.52482L236.977 8.02003L237.486 7.74127L236.977 7.46627L236.701 6.96149Z" fill="black"/>
<path d="M237.799 5.37555L237.524 5.88033L237.014 6.1591L237.524 6.43409L237.799 6.93888L238.079 6.43409L238.585 6.1591L238.079 5.88033L237.799 5.37555Z" fill="black"/>
<path d="M237.799 15.0606L237.524 15.5692L237.014 15.8442L237.524 16.1229L237.799 16.6277L238.079 16.1229L238.585 15.8442L238.079 15.5692L237.799 15.0606Z" fill="black"/>
<path d="M237.799 11.8925L237.524 12.3973L237.014 12.6761L237.524 12.9511L237.799 13.4596L238.079 12.9511L238.585 12.6761L238.079 12.3973L237.799 11.8925Z" fill="black"/>
<path d="M236.701 45.6869L236.421 46.1954L235.915 46.4704L236.421 46.7492L236.701 47.254L236.977 46.7492L237.486 46.4704L236.977 46.1954L236.701 45.6869Z" fill="black"/>
<path d="M237.799 44.1047L237.524 44.6095L237.014 44.8845L237.524 45.1632L237.799 45.668L238.079 45.1632L238.585 44.8845L238.079 44.6095L237.799 44.1047Z" fill="black"/>
<path d="M235.635 44.1047L235.36 44.6095L234.85 44.8845L235.36 45.1632L235.635 45.668L235.915 45.1632L236.421 44.8845L235.915 44.6095L235.635 44.1047Z" fill="black"/>
<path d="M265.461 57.2291L265.182 57.7339L264.676 58.0089L265.182 58.2877L265.461 58.7925L265.737 58.2877L266.247 58.0089L265.737 57.7339L265.461 57.2291Z" fill="black"/>
<path d="M263.263 57.2291L262.984 57.7339L262.478 58.0089L262.984 58.2877L263.263 58.7925L263.539 58.2877L264.049 58.0089L263.539 57.7339L263.263 57.2291Z" fill="black"/>
<path d="M266.561 55.6432L266.285 56.148L265.775 56.4267L266.285 56.7017L266.561 57.2102L266.841 56.7017L267.347 56.4267L266.841 56.148L266.561 55.6432Z" fill="black"/>
<path d="M264.362 55.6432L264.086 56.148L263.58 56.4267L264.086 56.7017L264.362 57.2102L264.642 56.7017L265.148 56.4267L264.642 56.148L264.362 55.6432Z" fill="black"/>
<path d="M265.461 54.0573L265.182 54.562L264.676 54.8408L265.182 55.1158L265.461 55.6244L265.737 55.1158L266.247 54.8408L265.737 54.562L265.461 54.0573Z" fill="black"/>
<path d="M263.263 54.0573L262.984 54.562L262.478 54.8408L262.984 55.1158L263.263 55.6244L263.539 55.1158L264.049 54.8408L263.539 54.562L263.263 54.0573Z" fill="black"/>
<path d="M264.362 52.4713L264.086 52.9799L263.58 53.2549L264.086 53.5336L264.362 54.0384L264.642 53.5336L265.148 53.2549L264.642 52.9799L264.362 52.4713Z" fill="black"/>
<path d="M265.461 70.1049L265.182 70.6096L264.676 70.8884L265.182 71.1634L265.461 71.672L265.737 71.1634L266.247 70.8884L265.737 70.6096L265.461 70.1049Z" fill="black"/>
<path d="M263.263 70.1049L262.984 70.6096L262.478 70.8884L262.984 71.1634L263.263 71.672L263.539 71.1634L264.049 70.8884L263.539 70.6096L263.263 70.1049Z" fill="black"/>
<path d="M264.362 68.5189L264.086 69.0237L263.58 69.3025L264.086 69.5774L264.362 70.086L264.642 69.5774L265.148 69.3025L264.642 69.0237L264.362 68.5189Z" fill="black"/>
<path d="M263.263 66.933L262.984 67.4416L262.478 67.7166L262.984 67.9954L263.263 68.5001L263.539 67.9954L264.049 67.7166L263.539 67.4416L263.263 66.933Z" fill="black"/>
<path d="M263.263 63.6971L262.984 64.2019L262.478 64.4807L262.984 64.7557L263.263 65.2605L263.539 64.7557L264.049 64.4807L263.539 64.2019L263.263 63.6971Z" fill="black"/>
<path d="M263.263 60.5253L262.984 61.0338L262.478 61.3088L262.984 61.5876L263.263 62.0924L263.539 61.5876L264.049 61.3088L263.539 61.0338L263.263 60.5253Z" fill="black"/>
<path d="M264.362 58.9393L264.086 59.4479L263.58 59.7229L264.086 60.0016L264.362 60.5064L264.642 60.0016L265.148 59.7229L264.642 59.4479L264.362 58.9393Z" fill="black"/>
<path d="M263.263 73.4501L262.984 73.9587L262.478 74.2337L262.984 74.5124L263.263 75.0172L263.539 74.5124L264.049 74.2337L263.539 73.9587L263.263 73.4501Z" fill="black"/>
<path d="M264.362 71.8679L264.086 72.3727L263.58 72.6477L264.086 72.9265L264.362 73.4312L264.642 72.9265L265.148 72.6477L264.642 72.3727L264.362 71.8679Z" fill="black"/>
<path d="M260.827 57.2291L260.547 57.7339L260.041 58.0089L260.547 58.2877L260.827 58.7925L261.102 58.2877L261.612 58.0089L261.102 57.7339L260.827 57.2291Z" fill="black"/>
<path d="M261.93 55.6432L261.651 56.148L261.145 56.4267L261.651 56.7017L261.93 57.2102L262.206 56.7017L262.712 56.4267L262.206 56.148L261.93 55.6432Z" fill="black"/>
<path d="M260.827 54.0573L260.547 54.562L260.041 54.8408L260.547 55.1158L260.827 55.6244L261.102 55.1158L261.612 54.8408L261.102 54.562L260.827 54.0573Z" fill="black"/>
<path d="M259.766 52.4713L259.487 52.9799L258.98 53.2549L259.487 53.5336L259.766 54.0384L260.042 53.5336L260.548 53.2549L260.042 52.9799L259.766 52.4713Z" fill="black"/>
<path d="M258.663 50.8214L258.387 51.3261L257.877 51.6011L258.387 51.8799L258.663 52.3847L258.938 51.8799L259.448 51.6011L258.938 51.3261L258.663 50.8214Z" fill="black"/>
<path d="M260.828 70.1049L260.548 70.6096L260.042 70.8884L260.548 71.1634L260.828 71.672L261.103 71.1634L261.613 70.8884L261.103 70.6096L260.828 70.1049Z" fill="black"/>
<path d="M261.93 68.5189L261.651 69.0237L261.145 69.3025L261.651 69.5774L261.93 70.086L262.206 69.5774L262.712 69.3025L262.206 69.0237L261.93 68.5189Z" fill="black"/>
<path d="M260.828 66.933L260.548 67.4416L260.042 67.7166L260.548 67.9954L260.828 68.5001L261.103 67.9954L261.613 67.7166L261.103 67.4416L260.828 66.933Z" fill="black"/>
<path d="M261.93 65.347L261.651 65.8556L261.145 66.1306L261.651 66.4094L261.93 66.9142L262.206 66.4094L262.712 66.1306L262.206 65.8556L261.93 65.347Z" fill="black"/>
<path d="M261.93 62.1111L261.651 62.6159L261.145 62.8947L261.651 63.1697L261.93 63.6783L262.206 63.1697L262.712 62.8947L262.206 62.6159L261.93 62.1111Z" fill="black"/>
<path d="M261.93 58.9393L261.651 59.4479L261.145 59.7229L261.651 60.0016L261.93 60.5064L262.206 60.0016L262.712 59.7229L262.206 59.4479L261.93 58.9393Z" fill="black"/>
<path d="M260.828 73.4501L260.548 73.9587L260.042 74.2337L260.548 74.5124L260.828 75.0172L261.103 74.5124L261.613 74.2337L261.103 73.9587L260.828 73.4501Z" fill="black"/>
<path d="M261.93 71.8679L261.651 72.3727L261.145 72.6477L261.651 72.9265L261.93 73.4312L262.206 72.9265L262.712 72.6477L262.206 72.3727L261.93 71.8679Z" fill="black"/>
<path d="M259.766 71.8685L259.487 72.3733L258.98 72.6483L259.487 72.9271L259.766 73.4319L260.042 72.9271L260.548 72.6483L260.042 72.3733L259.766 71.8685Z" fill="black"/>
<path d="M42.6482 82.7711C64.9341 82.7711 83.0005 64.7546 83.0005 42.5301C83.0005 20.3056 64.9341 2.28912 42.6482 2.28912C20.3622 2.28912 2.2959 20.3056 2.2959 42.5301C2.2959 64.7546 20.3622 82.7711 42.6482 82.7711Z" fill="white" stroke="black" stroke-width="2" stroke-miterlimit="10" stroke-linecap="round" stroke-linejoin="round"/>
<path d="M13.4385 42.53H71.8537" stroke="black" stroke-width="2" stroke-miterlimit="10" stroke-linecap="round" stroke-linejoin="round"/>
<path d="M31.8691 50.3804H27.6319C26.8386 50.3804 26.1895 49.7331 26.1895 48.942V36.1145C26.1895 35.3233 26.8386 34.676 27.6319 34.676H31.8655C32.6588 34.676 33.3079 35.3233 33.3079 36.1145V48.942C33.3115 49.7331 32.6624 50.3804 31.8691 50.3804Z" fill="#00D384" stroke="black" stroke-width="2" stroke-miterlimit="10" stroke-linecap="round" stroke-linejoin="round"/>
<path d="M53.2287 50.3804H48.9952C48.2018 50.3804 47.5527 49.7331 47.5527 48.942V36.1145C47.5527 35.3233 48.2018 34.676 48.9952 34.676H53.2287C54.0221 34.676 54.6712 35.3233 54.6712 36.1145V48.942C54.6712 49.7331 54.0221 50.3804 53.2287 50.3804Z" fill="#00D384" stroke="black" stroke-width="2" stroke-miterlimit="10" stroke-linecap="round" stroke-linejoin="round"/>
<path d="M32.5655 42.458L32.3023 42.9399L31.8154 43.206L32.3023 43.4685L32.5655 43.954L32.8324 43.4685L33.3156 43.206L32.8324 42.9399L32.5655 42.458Z" fill="black"/>
<path d="M30.4994 42.458L30.2361 42.9399L29.7529 43.206L30.2361 43.4685L30.4994 43.954L30.7662 43.4685L31.2495 43.206L30.7662 42.9399L30.4994 42.458Z" fill="black"/>
<path d="M31.5528 40.944L31.2896 41.4295L30.8027 41.692L31.2896 41.9581L31.5528 42.44L31.816 41.9581L32.3029 41.692L31.816 41.4295L31.5528 40.944Z" fill="black"/>
<path d="M32.5655 39.4337L32.3023 39.9155L31.8154 40.1781L32.3023 40.4442L32.5655 40.9261L32.8324 40.4442L33.3156 40.1781L32.8324 39.9155L32.5655 39.4337Z" fill="black"/>
<path d="M30.4994 39.4337L30.2361 39.9155L29.7529 40.1781L30.2361 40.4442L30.4994 40.9261L30.7662 40.4442L31.2495 40.1781L30.7662 39.9155L30.4994 39.4337Z" fill="black"/>
<path d="M31.5528 37.9197L31.2896 38.4016L30.8027 38.6677L31.2896 38.9302L31.5528 39.4121L31.816 38.9302L32.3029 38.6677L31.816 38.4016L31.5528 37.9197Z" fill="black"/>
<path d="M32.5655 36.19L32.3023 36.6719L31.8154 36.938L32.3023 37.2005L32.5655 37.686L32.8323 37.2005L33.3156 36.938L32.8323 36.6719L32.5655 36.19Z" fill="black"/>
<path d="M30.4994 36.19L30.2361 36.6719L29.7529 36.938L30.2361 37.2005L30.4994 37.686L30.7662 37.2005L31.2495 36.938L30.7662 36.6719L30.4994 36.19Z" fill="black"/>
<path d="M31.5528 34.676L31.2896 35.1614L30.8027 35.424L31.2896 35.6865L31.5528 36.172L31.816 35.6865L32.3029 35.424L31.816 35.1614L31.5528 34.676Z" fill="black"/>
<path d="M32.5655 48.6794L32.3023 49.1649L31.8154 49.4274L32.3023 49.6936L32.5655 50.1754L32.8324 49.6936L33.3156 49.4274L32.8324 49.1649L32.5655 48.6794Z" fill="black"/>
<path d="M30.4994 48.6794L30.2361 49.1649L29.7529 49.4274L30.2361 49.6936L30.4994 50.1754L30.7662 49.6936L31.2495 49.4274L30.7662 49.1649L30.4994 48.6794Z" fill="black"/>
<path d="M31.5528 47.1655L31.2896 47.6509L30.8027 47.9135L31.2896 48.1796L31.5528 48.6615L31.816 48.1796L32.3029 47.9135L31.816 47.6509L31.5528 47.1655Z" fill="black"/>
<path d="M32.5655 45.6551L32.3023 46.137L31.8154 46.4031L32.3023 46.6656L32.5655 47.1475L32.8324 46.6656L33.3156 46.4031L32.8324 46.137L32.5655 45.6551Z" fill="black"/>
<path d="M30.4994 45.6551L30.2361 46.137L29.7529 46.4031L30.2361 46.6656L30.4994 47.1475L30.7662 46.6656L31.2495 46.4031L30.7662 46.137L30.4994 45.6551Z" fill="black"/>
<path d="M31.5528 44.1411L31.2896 44.623L30.8027 44.8891L31.2896 45.1516L31.5528 45.6371L31.816 45.1516L32.3029 44.8891L31.816 44.623L31.5528 44.1411Z" fill="black"/>
<path d="M53.6505 42.458L53.3872 42.9399L52.9004 43.206L53.3872 43.4685L53.6505 43.954L53.9173 43.4685L54.4005 43.206L53.9173 42.9399L53.6505 42.458Z" fill="black"/>
<path d="M51.584 42.458L51.3208 42.9399L50.834 43.206L51.3208 43.4685L51.584 43.954L51.8509 43.4685L52.3341 43.206L51.8509 42.9399L51.584 42.458Z" fill="black"/>
<path d="M52.6368 40.944L52.3699 41.4295L51.8867 41.692L52.3699 41.9581L52.6368 42.44L52.9 41.9581L53.3868 41.692L52.9 41.4295L52.6368 40.944Z" fill="black"/>
<path d="M53.6505 39.4337L53.3872 39.9155L52.9004 40.1781L53.3872 40.4442L53.6505 40.9261L53.9173 40.4442L54.4005 40.1781L53.9173 39.9155L53.6505 39.4337Z" fill="black"/>
<path d="M51.584 39.4337L51.3208 39.9155L50.834 40.1781L51.3208 40.4442L51.584 40.9261L51.8509 40.4442L52.3341 40.1781L51.8509 39.9155L51.584 39.4337Z" fill="black"/>
<path d="M52.6368 37.9197L52.3699 38.4016L51.8867 38.6677L52.3699 38.9302L52.6368 39.4121L52.9 38.9302L53.3868 38.6677L52.9 38.4016L52.6368 37.9197Z" fill="black"/>
<path d="M53.6505 36.19L53.3872 36.6719L52.9004 36.938L53.3872 37.2005L53.6505 37.686L53.9173 37.2005L54.4005 36.938L53.9173 36.6719L53.6505 36.19Z" fill="black"/>
<path d="M51.584 36.19L51.3208 36.6719L50.834 36.938L51.3208 37.2005L51.584 37.686L51.8509 37.2005L52.3341 36.938L51.8509 36.6719L51.584 36.19Z" fill="black"/>
<path d="M52.6368 34.676L52.3699 35.1614L51.8867 35.424L52.3699 35.6865L52.6368 36.172L52.9 35.6865L53.3868 35.424L52.9 35.1614L52.6368 34.676Z" fill="black"/>
<path d="M53.6505 48.6794L53.3872 49.1649L52.9004 49.4274L53.3872 49.6936L53.6505 50.1754L53.9173 49.6936L54.4005 49.4274L53.9173 49.1649L53.6505 48.6794Z" fill="black"/>
<path d="M51.584 48.6794L51.3208 49.1649L50.834 49.4274L51.3208 49.6936L51.584 50.1754L51.8509 49.6936L52.3341 49.4274L51.8509 49.1649L51.584 48.6794Z" fill="black"/>
<path d="M52.6368 47.1655L52.3699 47.6509L51.8867 47.9135L52.3699 48.1796L52.6368 48.6615L52.9 48.1796L53.3868 47.9135L52.9 47.6509L52.6368 47.1655Z" fill="black"/>
<path d="M53.6505 45.6551L53.3872 46.137L52.9004 46.4031L53.3872 46.6656L53.6505 47.1475L53.9173 46.6656L54.4005 46.4031L53.9173 46.137L53.6505 45.6551Z" fill="black"/>
<path d="M51.584 45.6551L51.3208 46.137L50.834 46.4031L51.3208 46.6656L51.584 47.1475L51.8509 46.6656L52.3341 46.4031L51.8509 46.137L51.584 45.6551Z" fill="black"/>
<path d="M52.6368 44.1411L52.3699 44.623L51.8867 44.8891L52.3699 45.1516L52.6368 45.6371L52.9 45.1516L53.3868 44.8891L52.9 44.623L52.6368 44.1411Z" fill="black"/>
<path d="M138.146 126.901C161.491 126.901 180.416 108.028 180.416 84.7476C180.416 61.4669 161.491 42.5942 138.146 42.5942C114.801 42.5942 95.876 61.4669 95.876 84.7476C95.876 108.028 114.801 126.901 138.146 126.901Z" fill="white" stroke="black" stroke-width="2" stroke-miterlimit="10" stroke-linecap="round" stroke-linejoin="round"/>
<path d="M155.447 75.0624L138.894 70.6399L122.341 66.2173C120.191 65.6448 118.227 67.6036 118.801 69.7471L123.236 86.2543L127.671 102.762C128.245 104.905 130.935 105.621 132.506 104.054L139.389 97.1901L146.165 103.948C147.076 104.856 148.568 104.856 149.478 103.948L156.64 96.8059C157.551 95.898 157.551 94.41 156.64 93.5021L149.864 86.744L156.746 79.8805C158.317 78.3171 157.596 75.6388 155.447 75.0624Z" fill="#FFDE16" stroke="black" stroke-width="2" stroke-miterlimit="10" stroke-linecap="round" stroke-linejoin="round"/>
<path d="M154.8 95.5139L154.521 96.0187L154.015 96.2937L154.521 96.5725L154.8 97.0772L155.076 96.5725L155.582 96.2937L155.076 96.0187L154.8 95.5139Z" fill="black"/>
<path d="M152.602 95.5139L152.323 96.0187L151.816 96.2937L152.323 96.5725L152.602 97.0772L152.878 96.5725L153.384 96.2937L152.878 96.0187L152.602 95.5139Z" fill="black"/>
<path d="M155.9 93.928L155.624 94.4328L155.114 94.7115L155.624 94.9865L155.9 95.4913L156.18 94.9865L156.686 94.7115L156.18 94.4328L155.9 93.928Z" fill="black"/>
<path d="M153.702 93.928L153.426 94.4328L152.916 94.7115L153.426 94.9865L153.702 95.4913L153.981 94.9865L154.487 94.7115L153.981 94.4328L153.702 93.928Z" fill="black"/>
<path d="M154.8 92.342L154.521 92.8468L154.015 93.1256L154.521 93.4006L154.8 93.9091L155.076 93.4006L155.582 93.1256L155.076 92.8468L154.8 92.342Z" fill="black"/>
<path d="M152.602 92.342L152.323 92.8468L151.816 93.1256L152.323 93.4006L152.602 93.9091L152.878 93.4006L153.384 93.1256L152.878 92.8468L152.602 92.342Z" fill="black"/>
<path d="M153.702 90.7561L153.426 91.2609L152.916 91.5397L153.426 91.8146L153.702 92.3232L153.981 91.8146L154.487 91.5397L153.981 91.2609L153.702 90.7561Z" fill="black"/>
<path d="M152.602 89.1024L152.323 89.6109L151.816 89.8859L152.323 90.1647L152.602 90.6695L152.878 90.1647L153.384 89.8859L152.878 89.6109L152.602 89.1024Z" fill="black"/>
<path d="M152.602 98.859L152.323 99.3676L151.816 99.6426L152.323 99.9213L152.602 100.426L152.878 99.9213L153.384 99.6426L152.878 99.3676L152.602 98.859Z" fill="black"/>
<path d="M153.702 97.2731L153.426 97.7816L152.916 98.0566L153.426 98.3354L153.702 98.8402L153.981 98.3354L154.487 98.0566L153.981 97.7816L153.702 97.2731Z" fill="black"/>
<path d="M150.167 95.5139L149.887 96.0186L149.381 96.2936L149.887 96.5724L150.167 97.0772L150.442 96.5724L150.952 96.2936L150.442 96.0186L150.167 95.5139Z" fill="black"/>
<path d="M148.002 95.5139L147.722 96.0186L147.216 96.2936L147.722 96.5724L148.002 97.0772L148.277 96.5724L148.787 96.2936L148.277 96.0186L148.002 95.5139Z" fill="black"/>
<path d="M151.265 93.9279L150.99 94.4327L150.483 94.7115L150.99 94.9865L151.265 95.4912L151.545 94.9865L152.051 94.7115L151.545 94.4327L151.265 93.9279Z" fill="black"/>
<path d="M149.1 93.9279L148.825 94.4327L148.318 94.7115L148.825 94.9865L149.1 95.4912L149.38 94.9865L149.886 94.7115L149.38 94.4327L149.1 93.9279Z" fill="black"/>
<path d="M150.167 92.3419L149.887 92.8467L149.381 93.1255L149.887 93.4005L150.167 93.909L150.442 93.4005L150.952 93.1255L150.442 92.8467L150.167 92.3419Z" fill="black"/>
<path d="M148.002 92.3419L147.722 92.8467L147.216 93.1255L147.722 93.4005L148.002 93.909L148.277 93.4005L148.787 93.1255L148.277 92.8467L148.002 92.3419Z" fill="black"/>
<path d="M151.265 90.756L150.99 91.2608L150.483 91.5396L150.99 91.8146L151.265 92.3231L151.545 91.8146L152.051 91.5396L151.545 91.2608L151.265 90.756Z" fill="black"/>
<path d="M149.1 90.756L148.825 91.2608L148.318 91.5396L148.825 91.8146L149.1 92.3231L149.38 91.8146L149.886 91.5396L149.38 91.2608L149.1 90.756Z" fill="black"/>
<path d="M150.167 89.1024L149.887 89.6109L149.381 89.8859L149.887 90.1647L150.167 90.6695L150.442 90.1647L150.952 89.8859L150.442 89.6109L150.167 89.1024Z" fill="black"/>
<path d="M148.002 89.1024L147.722 89.6109L147.216 89.8859L147.722 90.1647L148.002 90.6695L148.277 90.1647L148.787 89.8859L148.277 89.6109L148.002 89.1024Z" fill="black"/>
<path d="M151.265 87.5201L150.99 88.0249L150.483 88.2999L150.99 88.5787L151.265 89.0835L151.545 88.5787L152.051 88.2999L151.545 88.0249L151.265 87.5201Z" fill="black"/>
<path d="M149.1 87.5201L148.825 88.0249L148.318 88.2999L148.825 88.5787L149.1 89.0835L149.38 88.5787L149.886 88.2999L149.38 88.0249L149.1 87.5201Z" fill="black"/>
<path d="M150.167 102.031L149.887 102.536L149.381 102.814L149.887 103.089L150.167 103.594L150.442 103.089L150.952 102.814L150.442 102.536L150.167 102.031Z" fill="black"/>
<path d="M148.002 102.031L147.722 102.536L147.216 102.814L147.722 103.089L148.002 103.594L148.277 103.089L148.787 102.814L148.277 102.536L148.002 102.031Z" fill="black"/>
<path d="M151.265 100.445L150.99 100.95L150.483 101.228L150.99 101.503L151.265 102.012L151.545 101.503L152.051 101.228L151.545 100.95L151.265 100.445Z" fill="black"/>
<path d="M149.1 100.445L148.825 100.95L148.318 101.228L148.825 101.503L149.1 102.012L149.38 101.503L149.886 101.228L149.38 100.95L149.1 100.445Z" fill="black"/>
<path d="M150.167 98.859L149.887 99.3676L149.381 99.6426L149.887 99.9213L150.167 100.426L150.442 99.9213L150.952 99.6426L150.442 99.3676L150.167 98.859Z" fill="black"/>
<path d="M148.002 98.859L147.722 99.3676L147.216 99.6426L147.722 99.9213L148.002 100.426L148.277 99.9213L148.787 99.6426L148.277 99.3676L148.002 98.859Z" fill="black"/>
<path d="M151.265 97.2731L150.99 97.7816L150.483 98.0566L150.99 98.3354L151.265 98.8402L151.545 98.3354L152.051 98.0566L151.545 97.7816L151.265 97.2731Z" fill="black"/>
<path d="M149.1 97.2731L148.825 97.7816L148.318 98.0566L148.825 98.3354L149.1 98.8402L149.38 98.3354L149.886 98.0566L149.38 97.7816L149.1 97.2731Z" fill="black"/>
<path d="M145.784 95.5139L145.508 96.0186L144.998 96.2936L145.508 96.5724L145.784 97.0772L146.063 96.5724L146.569 96.2936L146.063 96.0186L145.784 95.5139Z" fill="black"/>
<path d="M143.586 95.5139L143.31 96.0186L142.8 96.2936L143.31 96.5724L143.586 97.0772L143.865 96.5724L144.371 96.2936L143.865 96.0186L143.586 95.5139Z" fill="black"/>
<path d="M146.887 93.9279L146.608 94.4326L146.102 94.7114L146.608 94.9864L146.887 95.4912L147.163 94.9864L147.673 94.7114L147.163 94.4326L146.887 93.9279Z" fill="black"/>
<path d="M144.688 93.9279L144.409 94.4326L143.902 94.7114L144.409 94.9864L144.688 95.4912L144.964 94.9864L145.474 94.7114L144.964 94.4326L144.688 93.9279Z" fill="black"/>
<path d="M145.784 92.342L145.508 92.8468L144.998 93.1255L145.508 93.4005L145.784 93.9091L146.063 93.4005L146.569 93.1255L146.063 92.8468L145.784 92.342Z" fill="black"/>
<path d="M146.887 90.756L146.608 91.2608L146.102 91.5396L146.608 91.8146L146.887 92.3231L147.163 91.8146L147.673 91.5396L147.163 91.2608L146.887 90.756Z" fill="black"/>
<path d="M145.784 102.031L145.508 102.536L144.998 102.814L145.508 103.089L145.784 103.594L146.063 103.089L146.569 102.814L146.063 102.536L145.784 102.031Z" fill="black"/>
<path d="M146.887 100.445L146.608 100.95L146.102 101.228L146.608 101.503L146.887 102.012L147.163 101.503L147.673 101.228L147.163 100.95L146.887 100.445Z" fill="black"/>
<path d="M144.688 100.445L144.409 100.95L143.902 101.228L144.409 101.503L144.688 102.012L144.964 101.503L145.474 101.228L144.964 100.95L144.688 100.445Z" fill="black"/>
<path d="M145.784 98.8589L145.508 99.3675L144.998 99.6425L145.508 99.9213L145.784 100.426L146.063 99.9213L146.569 99.6425L146.063 99.3675L145.784 98.8589Z" fill="black"/>
<path d="M143.586 98.8589L143.31 99.3675L142.8 99.6425L143.31 99.9213L143.586 100.426L143.865 99.9213L144.371 99.6425L143.865 99.3675L143.586 98.8589Z" fill="black"/>
<path d="M146.887 97.273L146.608 97.7816L146.102 98.0566L146.608 98.3353L146.887 98.8401L147.163 98.3353L147.673 98.0566L147.163 97.7816L146.887 97.273Z" fill="black"/>
<path d="M144.688 97.273L144.409 97.7816L143.902 98.0566L144.409 98.3353L144.688 98.8401L144.964 98.3353L145.474 98.0566L144.964 97.7816L144.688 97.273Z" fill="black"/>
<path d="M142.253 97.273L141.977 97.7816L141.467 98.0566L141.977 98.3353L142.253 98.8401L142.532 98.3353L143.038 98.0566L142.532 97.7816L142.253 97.273Z" fill="black"/>
<path d="M67.4926 207.772C90.8377 207.772 109.763 188.899 109.763 165.619C109.763 142.338 90.8377 123.465 67.4926 123.465C44.1476 123.465 25.2227 142.338 25.2227 165.619C25.2227 188.899 44.1476 207.772 67.4926 207.772Z" fill="white" stroke="black" stroke-width="2" stroke-miterlimit="10" stroke-linecap="round" stroke-linejoin="round"/>
<path d="M84.3296 181.787L82.4598 174.479C82.0291 172.791 80.2915 171.763 78.5992 172.192L78.5312 172.211L80.7675 180.958C80.9714 181.761 80.4841 182.582 79.6795 182.785L68.1658 185.712C67.365 185.916 66.5377 185.43 66.3337 184.627L64.0975 175.88L64.0295 175.899C62.3372 176.328 61.3059 178.061 61.7365 179.749L63.6064 187.057C64.037 188.745 65.7747 189.773 67.467 189.344L82.0367 185.641C83.729 185.207 84.7603 183.475 84.3296 181.787Z" fill="#00D384" stroke="black" stroke-width="2" stroke-miterlimit="10" stroke-linecap="round" stroke-linejoin="round"/>
<path d="M52.1035 175.375C57.0083 175.375 60.9843 171.41 60.9843 166.519C60.9843 161.628 57.0083 157.663 52.1035 157.663C47.1987 157.663 43.2227 161.628 43.2227 166.519C43.2227 171.41 47.1987 175.375 52.1035 175.375Z" fill="#00D384" stroke="black" stroke-width="2" stroke-miterlimit="10" stroke-linecap="round" stroke-linejoin="round"/>
<path d="M49.1117 145.19L47.748 187.505L92.3261 175.876L92.8851 158.51L49.1117 145.19Z" fill="#00D384" stroke="black" stroke-width="2" stroke-miterlimit="10" stroke-linecap="round" stroke-linejoin="round"/>
<path d="M95.8088 157.109C94.226 157.06 92.8926 158.307 92.8397 159.885L92.3637 174.686C92.3146 176.264 93.5649 177.594 95.1477 177.647C96.7305 177.696 98.0639 176.449 98.1168 174.871L98.5928 160.07C98.6419 158.491 97.3877 157.162 95.8088 157.109Z" fill="#00D384" stroke="black" stroke-width="2" stroke-miterlimit="10" stroke-linecap="round" stroke-linejoin="round"/>
<path d="M84.0878 178.073L83.5249 177.933L83.1321 177.511L82.9885 178.069L82.5654 178.464L83.1283 178.608L83.5211 179.026L83.6647 178.468L84.0878 178.073Z" fill="black"/>
<path d="M83.5399 175.952L82.9808 175.809L82.5842 175.387L82.4407 175.948L82.0176 176.34L82.5804 176.483L82.9733 176.905L83.1168 176.344L83.5399 175.952Z" fill="black"/>
<path d="M85.3535 176.619L84.7944 176.479L84.3978 176.057L84.2543 176.615L83.835 177.01L84.394 177.154L84.7907 177.572L84.9304 177.014L85.3535 176.619Z" fill="black"/>
<path d="M87.1659 177.285L86.6068 177.142L86.2102 176.72L86.0666 177.282L85.6436 177.673L86.2064 177.817L86.7428 177.677L87.1659 177.285Z" fill="black"/>
<path d="M86.619 175.161L86.0599 175.021L85.6633 174.599L85.5198 175.157L85.0967 175.552L85.6595 175.692L86.0562 176.114L86.1959 175.556L86.619 175.161Z" fill="black"/>
<path d="M88.4316 175.831L87.8726 175.688L87.4759 175.266L87.3362 175.828L86.9131 176.219L87.4722 176.362L87.8688 176.784L88.0086 176.227L88.4316 175.831Z" fill="black"/>
<path d="M89.916 174.317L89.3569 174.174L88.9603 173.752L88.8168 174.313L88.3975 174.705L88.9565 174.848L89.3532 175.27L89.4929 174.709L89.916 174.317Z" fill="black"/>
<path d="M91.7295 174.987L91.1704 174.844L90.7738 174.422L90.634 174.98L90.2109 175.375L90.77 175.519L91.1666 175.94L91.3102 175.379L91.7295 174.987Z" fill="black"/>
<path d="M71.535 181.29L70.9722 181.15L70.5793 180.728L70.4358 181.286L70.0127 181.681L70.5718 181.825L70.772 181.783L71.112 181.685L71.535 181.29Z" fill="black"/>
<path d="M70.9872 179.169L70.4243 179.026L70.0315 178.604L69.8879 179.165L69.4648 179.557L70.0277 179.7L70.4205 180.122L70.5641 179.561L70.9872 179.169Z" fill="black"/>
<path d="M72.8007 179.836L72.2416 179.696L71.8449 179.274L71.7014 179.832L71.2783 180.227L71.8412 180.371L72.234 180.792L72.3776 180.231L72.8007 179.836Z" fill="black"/>
<path d="M74.6132 180.502L74.0503 180.359L73.6574 179.937L73.5139 180.499L73.0908 180.89L73.6499 181.034L73.8501 180.853L74.1901 180.898L74.6132 180.502Z" fill="black"/>
<path d="M74.0663 178.378L73.5034 178.238L73.1106 177.816L72.967 178.374L72.5439 178.77L73.1068 178.913L73.4996 179.331L73.6432 178.773L74.0663 178.378Z" fill="black"/>
<path d="M75.8788 179.048L75.3197 178.905L74.9231 178.483L74.7795 179.045L74.3564 179.44L74.9193 179.579L75.3121 180.001L75.4557 179.444L75.8788 179.048Z" fill="black"/>
<path d="M77.7567 179.696L77.1976 179.553L76.801 179.131L76.6575 179.692L76.2344 180.084L76.7972 180.227L77.1863 180.096L77.3336 180.092L77.7567 179.696Z" fill="black"/>
<path d="M77.209 177.572L76.6499 177.432L76.2533 177.01L76.1135 177.568L75.6904 177.963L76.2495 178.107L76.6461 178.525L76.7859 177.967L77.209 177.572Z" fill="black"/>
<path d="M79.0253 178.242L78.4624 178.099L78.0658 177.677L77.926 178.238L77.5029 178.634L78.062 178.773L78.4586 179.195L78.6022 178.638L79.0253 178.242Z" fill="black"/>
<path d="M80.835 178.909L80.2759 178.766L79.8793 178.344L79.7357 178.901L79.3164 179.297L79.8755 179.44L80.2721 179.862L80.4119 179.301L80.835 178.909Z" fill="black"/>
<path d="M80.2871 176.784L79.728 176.641L79.3314 176.219L79.1916 176.781L78.7686 177.172L79.3276 177.315L79.7242 177.737L79.8678 177.18L80.2871 176.784Z" fill="black"/>
<path d="M82.6484 179.576L82.0894 179.433L81.6927 179.014L81.553 179.572L81.1299 179.967L81.6889 180.107L82.0856 180.529L82.2291 179.971L82.6484 179.576Z" fill="black"/>
<path d="M82.1044 177.455L81.5415 177.312L81.1449 176.89L81.0051 177.447L80.582 177.843L81.1411 177.986L81.5377 178.408L81.6813 177.847L82.1044 177.455Z" fill="black"/>
<path d="M59.0272 184.495L58.4681 184.356L58.0715 183.934L57.928 184.492L57.5049 184.887L58.0677 185.03L58.6041 184.891L59.0272 184.495Z" fill="black"/>
<path d="M58.4794 182.375L57.9203 182.231L57.5237 181.809L57.3801 182.371L56.957 182.763L57.5199 182.906L57.9165 183.328L58.0563 182.766L58.4794 182.375Z" fill="black"/>
<path d="M60.293 183.041L59.7339 182.902L59.3373 182.48L59.1975 183.038L58.7744 183.433L59.3335 183.576L59.7301 183.994L59.8699 183.437L60.293 183.041Z" fill="black"/>
<path d="M62.1053 183.708L61.5463 183.565L61.1496 183.143L61.0061 183.704L60.583 184.096L61.1459 184.239L61.6143 184.367L61.6823 184.1L62.1053 183.708Z" fill="black"/>
<path d="M61.5576 181.584L60.9985 181.44L60.6019 181.022L60.4584 181.58L60.0391 181.975L60.5981 182.115L60.9948 182.537L61.1345 181.979L61.5576 181.584Z" fill="black"/>
<path d="M63.9189 184.375L63.3599 184.236L62.9632 183.814L62.8197 184.371L62.4004 184.767L62.9595 184.91L63.3561 185.332L63.4959 184.77L63.9189 184.375Z" fill="black"/>
<path d="M63.3711 182.254L62.812 182.111L62.4154 181.689L62.2756 182.25L61.8525 182.642L62.4116 182.785L62.8082 183.207L62.9518 182.646L63.3711 182.254Z" fill="black"/>
<path d="M65.2528 182.902L64.6899 182.759L64.2933 182.337L64.1535 182.898L63.7305 183.29L64.2895 183.433L64.6862 183.855L64.8297 183.294L65.2528 182.902Z" fill="black"/>
<path d="M64.7049 180.777L64.1421 180.638L63.7492 180.216L63.6057 180.774L63.1826 181.169L63.7417 181.309L64.1383 181.73L64.2819 181.173L64.7049 180.777Z" fill="black"/>
<path d="M66.6422 183.964L66.5025 183.429L66.1096 183.007L65.9661 183.565L65.543 183.961L66.102 184.104L66.4987 184.526L66.6422 183.964Z" fill="black"/>
<path d="M66.5174 181.448L65.9546 181.305L65.5617 180.883L65.4182 181.444L64.9951 181.836L65.558 181.979L65.9508 182.401L66.0944 181.843L66.5174 181.448Z" fill="black"/>
<path d="M68.3309 182.111L67.7681 181.972L67.3752 181.55L67.2317 182.107L66.8086 182.503L67.3677 182.646L67.7945 182.371L67.9078 182.506L68.3309 182.111Z" fill="black"/>
<path d="M67.7831 179.99L67.2202 179.847L66.8274 179.425L66.6838 179.986L66.2607 180.378L66.8236 180.521L67.2164 180.943L67.36 180.382L67.7831 179.99Z" fill="black"/>
<path d="M69.5965 180.657L69.0337 180.517L68.6408 180.096L68.4973 180.653L68.0742 181.049L68.6371 181.192L69.0299 181.614L69.1734 181.052L69.5965 180.657Z" fill="black"/>
<path d="M49.0057 184.801L48.4429 184.661L48.05 184.239L47.9065 184.797L47.4834 185.192L48.0462 185.335L48.4391 185.754L48.5826 185.196L49.0057 184.801Z" fill="black"/>
<path d="M50.8192 185.471L50.2601 185.328L49.8635 184.906L49.72 185.467L49.2969 185.859L49.8597 186.002L50.2526 186.424L50.3961 185.867L50.8192 185.471Z" fill="black"/>
<path d="M52.6963 186.119L52.1372 185.976L51.7406 185.554L51.597 186.115L51.1777 186.507L51.7368 186.65L52.2732 186.515L52.6963 186.119Z" fill="black"/>
<path d="M52.1484 183.994L51.5894 183.855L51.1927 183.433L51.053 183.991L50.6299 184.386L51.1889 184.529L51.5856 184.947L51.7291 184.39L52.1484 183.994Z" fill="black"/>
<path d="M53.9657 184.665L53.4028 184.522L53.0062 184.1L52.8664 184.661L52.4434 185.053L53.0024 185.196L53.3991 185.618L53.5426 185.06L53.9657 184.665Z" fill="black"/>
<path d="M55.7754 185.328L55.2163 185.189L54.8197 184.767L54.6761 185.324L54.2568 185.72L54.8159 185.863L55.3523 185.723L55.7754 185.328Z" fill="black"/>
<path d="M55.2275 183.207L54.6685 183.064L54.2718 182.642L54.1321 183.203L53.709 183.595L54.2681 183.738L54.6647 184.16L54.8082 183.603L55.2275 183.207Z" fill="black"/>
<path d="M57.0438 183.878L56.481 183.734L56.0881 183.313L55.9446 183.87L55.5215 184.266L56.0806 184.409L56.4772 184.831L56.6207 184.269L57.0438 183.878Z" fill="black"/>
<path d="M82.9354 173.597L82.3726 173.454L81.9759 173.036L81.8362 173.594L81.4131 173.989L81.9722 174.129L82.3688 174.55L82.5123 173.993L82.9354 173.597Z" fill="black"/>
<path d="M82.3954 171.507L81.8325 171.367L81.4397 170.945L81.2961 171.503L80.873 171.899L81.4359 172.042L81.8288 172.46L81.9723 171.902L82.3954 171.507Z" fill="black"/>
<path d="M84.7489 174.268L84.186 174.125L83.7932 173.703L83.6496 174.264L83.2266 174.656L83.7894 174.799L84.1822 175.221L84.3258 174.664L84.7489 174.268Z" fill="black"/>
<path d="M84.2089 172.177L83.6498 172.034L83.2532 171.612L83.1096 172.173L82.6865 172.565L83.2494 172.708L83.646 173.13L83.7858 172.573L84.2089 172.177Z" fill="black"/>
<path d="M86.0145 172.81L85.4517 172.667L85.0588 172.245L84.9153 172.806L84.4922 173.198L85.0512 173.341L85.4479 173.763L85.5914 173.202L86.0145 172.81Z" fill="black"/>
<path d="M85.4745 170.719L84.9154 170.576L84.5188 170.154L84.3752 170.716L83.9521 171.107L84.515 171.251L84.9079 171.672L85.0514 171.111L85.4745 170.719Z" fill="black"/>
<path d="M87.827 173.477L87.2641 173.338L86.8713 172.916L86.7278 173.473L86.3047 173.869L86.8675 174.012L87.2604 174.43L87.4039 173.872L87.827 173.477Z" fill="black"/>
<path d="M87.2871 171.386L86.728 171.247L86.3314 170.825L86.1879 171.382L85.7686 171.778L86.3276 171.921L86.7243 172.343L86.864 171.782L87.2871 171.386Z" fill="black"/>
<path d="M89.3114 171.962L88.7486 171.823L88.3557 171.401L88.2121 171.959L87.7891 172.354L88.3519 172.497L88.7448 172.916L88.8883 172.358L89.3114 171.962Z" fill="black"/>
<path d="M88.7715 169.872L88.2124 169.732L87.8158 169.31L87.6722 169.868L87.2529 170.264L87.812 170.407L88.2086 170.825L88.3484 170.267L88.7715 169.872Z" fill="black"/>
<path d="M91.1249 172.633L90.5658 172.49L90.1692 172.068L90.0256 172.629L89.6025 173.021L90.1654 173.164L90.5583 173.586L90.7018 173.029L91.1249 172.633Z" fill="black"/>
<path d="M90.585 170.542L90.0259 170.399L89.6293 169.977L89.4895 170.539L89.0664 170.934L89.6255 171.074L90.0221 171.495L90.1657 170.938L90.585 170.542Z" fill="black"/>
<path d="M70.3789 176.814L69.8198 176.675L69.4232 176.253L69.2797 176.811L68.8604 177.206L69.4194 177.349L69.8161 177.768L69.9558 177.21L70.3789 176.814Z" fill="black"/>
<path d="M69.8426 174.724L69.2798 174.584L68.8869 174.162L68.7434 174.72L68.3203 175.116L68.8794 175.259L69.276 175.677L69.4196 175.119L69.8426 174.724Z" fill="black"/>
<path d="M72.1924 177.485L71.6333 177.342L71.2367 176.92L71.0969 177.481L70.6738 177.873L71.2329 178.016L71.6295 178.438L71.7731 177.88L72.1924 177.485Z" fill="black"/>
<path d="M71.6561 175.394L71.0933 175.251L70.7004 174.829L70.5569 175.391L70.1338 175.786L70.6966 175.925L71.0895 176.347L71.233 175.79L71.6561 175.394Z" fill="black"/>
<path d="M73.458 176.027L72.8989 175.884L72.5023 175.462L72.3625 176.023L71.9395 176.415L72.4985 176.558L72.8952 176.98L73.0349 176.419L73.458 176.027Z" fill="black"/>
<path d="M72.9217 173.936L72.3589 173.793L71.966 173.371L71.8225 173.933L71.3994 174.324L71.9585 174.468L72.3551 174.889L72.4987 174.332L72.9217 173.936Z" fill="black"/>
<path d="M75.2743 176.698L74.7114 176.554L74.3148 176.133L74.175 176.69L73.752 177.086L74.311 177.229L74.7077 177.651L74.8512 177.089L75.2743 176.698Z" fill="black"/>
<path d="M74.7342 174.607L74.1714 174.464L73.7785 174.042L73.635 174.599L73.2119 174.995L73.7748 175.138L74.1676 175.56L74.3112 174.999L74.7342 174.607Z" fill="black"/>
<path d="M76.6044 175.221L76.0415 175.078L75.6487 174.656L75.5051 175.217L75.082 175.609L75.6449 175.752L76.0377 176.174L76.1813 175.616L76.6044 175.221Z" fill="black"/>
<path d="M76.0644 173.13L75.5054 172.987L75.1087 172.565L74.9652 173.126L74.5459 173.518L75.105 173.661L75.5016 174.083L75.6414 173.526L76.0644 173.13Z" fill="black"/>
<path d="M78.4178 175.891L77.8588 175.748L77.4621 175.326L77.3186 175.884L76.8955 176.279L77.4584 176.423L77.8512 176.845L77.9948 176.283L78.4178 175.891Z" fill="black"/>
<path d="M77.8769 173.801L77.3179 173.658L76.9212 173.236L76.7815 173.793L76.3584 174.189L76.9175 174.332L77.3141 174.754L77.4576 174.193L77.8769 173.801Z" fill="black"/>
<path d="M79.6825 174.43L79.1196 174.29L78.7268 173.869L78.5832 174.426L78.1602 174.822L78.723 174.965L79.1159 175.383L79.2594 174.825L79.6825 174.43Z" fill="black"/>
<path d="M79.1426 172.339L78.5835 172.2L78.1869 171.778L78.0433 172.335L77.624 172.731L78.1831 172.874L78.5797 173.296L78.7195 172.735L79.1426 172.339Z" fill="black"/>
<path d="M81.496 175.1L80.9369 174.957L80.5403 174.535L80.3967 175.097L79.9736 175.492L80.5365 175.632L80.9293 176.053L81.0729 175.496L81.496 175.1Z" fill="black"/>
<path d="M80.956 173.01L80.397 172.867L80.0003 172.448L79.8606 173.006L79.4375 173.401L79.9966 173.541L80.3932 173.963L80.5367 173.405L80.956 173.01Z" fill="black"/>
<path d="M57.8758 180.02L57.313 179.877L56.9201 179.459L56.7766 180.016L56.3535 180.412L56.9126 180.551L57.3092 180.973L57.4528 180.416L57.8758 180.02Z" fill="black"/>
<path d="M57.3358 177.93L56.7767 177.786L56.3801 177.368L56.2366 177.926L55.8135 178.321L56.3763 178.461L56.7692 178.883L56.9127 178.325L57.3358 177.93Z" fill="black"/>
<path d="M59.6893 180.691L59.1265 180.548L58.7336 180.126L58.5901 180.687L58.167 181.079L58.7298 181.222L59.1227 181.644L59.2662 181.083L59.6893 180.691Z" fill="black"/>
<path d="M59.1494 178.6L58.5903 178.457L58.1937 178.035L58.0502 178.596L57.6309 178.988L58.1899 179.131L58.5866 179.553L58.7263 178.996L59.1494 178.6Z" fill="black"/>
<path d="M60.9549 179.233L60.3921 179.09L59.9992 178.668L59.8557 179.229L59.4326 179.621L59.9917 179.764L60.3883 180.186L60.5319 179.625L60.9549 179.233Z" fill="black"/>
<path d="M60.4149 177.142L59.8558 176.999L59.4592 176.577L59.3157 177.138L58.8926 177.53L59.4554 177.673L59.8483 178.095L59.9918 177.534L60.4149 177.142Z" fill="black"/>
<path d="M62.7674 179.9L62.2046 179.76L61.8117 179.338L61.6682 179.896L61.2451 180.291L61.808 180.435L62.2008 180.853L62.3444 180.295L62.7674 179.9Z" fill="black"/>
<path d="M62.2275 177.809L61.6685 177.67L61.2718 177.248L61.1283 177.805L60.709 178.201L61.268 178.344L61.6647 178.762L61.8044 178.204L62.2275 177.809Z" fill="black"/>
<path d="M64.0976 178.427L63.5386 178.284L63.1419 177.862L62.9984 178.423L62.5791 178.815L63.1382 178.958L63.5348 179.38L63.6746 178.818L64.0976 178.427Z" fill="black"/>
<path d="M63.5614 176.336L62.9985 176.193L62.6019 175.771L62.4621 176.332L62.0391 176.724L62.5981 176.867L62.9948 177.289L63.1383 176.728L63.5614 176.336Z" fill="black"/>
<path d="M65.9111 179.094L65.3521 178.954L64.9554 178.532L64.8157 179.09L64.3926 179.485L64.9516 179.628L65.3483 180.047L65.4918 179.489L65.9111 179.094Z" fill="black"/>
<path d="M65.3739 177.003L64.811 176.863L64.4182 176.442L64.2746 176.999L63.8516 177.395L64.4144 177.538L64.8073 177.96L64.9508 177.398L65.3739 177.003Z" fill="black"/>
<path d="M67.1758 177.636L66.6167 177.496L66.2201 177.074L66.0765 177.632L65.6572 178.027L66.2163 178.167L66.6129 178.589L66.7527 178.031L67.1758 177.636Z" fill="black"/>
<path d="M66.6395 175.545L66.0767 175.406L65.6838 174.984L65.5403 175.541L65.1172 175.937L65.6763 176.08L66.0729 176.498L66.2164 175.94L66.6395 175.545Z" fill="black"/>
<path d="M68.9893 178.306L68.4302 178.163L68.0335 177.741L67.8938 178.302L67.4707 178.694L68.0298 178.837L68.4264 179.259L68.57 178.702L68.9893 178.306Z" fill="black"/>
<path d="M68.453 176.215L67.8901 176.072L67.4973 175.65L67.3537 176.212L66.9307 176.603L67.4935 176.747L67.8864 177.169L68.0299 176.611L68.453 176.215Z" fill="black"/>
<path d="M50.2147 183.117L49.6519 182.977L49.259 182.555L49.1155 183.113L48.6924 183.508L49.2515 183.652L49.6481 184.074L49.7916 183.512L50.2147 183.117Z" fill="black"/>
<path d="M49.6747 181.03L49.1156 180.887L48.719 180.465L48.5754 181.022L48.1523 181.418L48.7152 181.561L49.108 181.983L49.2516 181.421L49.6747 181.03Z" fill="black"/>
<path d="M51.5448 181.644L50.9819 181.501L50.5891 181.079L50.4455 181.64L50.0225 182.032L50.5853 182.175L50.9782 182.597L51.1217 182.036L51.5448 181.644Z" fill="black"/>
<path d="M51.0039 179.553L50.4448 179.41L50.0482 178.988L49.9047 179.549L49.4854 179.941L50.0444 180.084L50.4411 180.506L50.5808 179.949L51.0039 179.553Z" fill="black"/>
<path d="M53.3573 182.314L52.7982 182.171L52.4016 181.749L52.258 182.307L51.835 182.702L52.3978 182.845L52.7907 183.267L52.9342 182.706L53.3573 182.314Z" fill="black"/>
<path d="M52.8174 180.224L52.2583 180.08L51.8617 179.659L51.7219 180.216L51.2988 180.612L51.8579 180.755L52.2545 181.177L52.3981 180.615L52.8174 180.224Z" fill="black"/>
<path d="M54.6229 180.853L54.0601 180.713L53.6672 180.291L53.5237 180.849L53.1006 181.244L53.6634 181.388L54.0563 181.806L54.1998 181.248L54.6229 180.853Z" fill="black"/>
<path d="M54.083 178.762L53.5239 178.623L53.1273 178.201L52.9875 178.758L52.5645 179.154L53.1235 179.297L53.5202 179.719L53.6599 179.158L54.083 178.762Z" fill="black"/>
<path d="M56.4364 181.523L55.8773 181.38L55.4807 180.958L55.3371 181.519L54.9141 181.915L55.4769 182.054L55.8735 182.476L56.0133 181.919L56.4364 181.523Z" fill="black"/>
<path d="M55.9002 179.433L55.3374 179.289L54.9408 178.871L54.801 179.429L54.3779 179.824L54.937 179.964L55.3336 180.386L55.4772 179.828L55.9002 179.433Z" fill="black"/>
<path d="M76.3016 186.955L75.7388 186.812L75.3459 186.394L75.2024 186.952L74.7793 187.347L75.3421 187.487L75.8785 187.351L76.3016 186.955Z" fill="black"/>
<path d="M79.3807 186.168L78.8179 186.025L78.425 185.603L78.2815 186.164L77.8584 186.556L78.4212 186.699L78.9576 186.56L79.3807 186.168Z" fill="black"/>
<path d="M82.5234 185.362L81.9644 185.219L81.5677 184.797L81.428 185.358L81.0049 185.75L81.5639 185.893L82.1041 185.754L82.5234 185.362Z" fill="black"/>
<path d="M73.0985 187.777L72.5357 187.633L72.1428 187.215L71.9993 187.773L71.5762 188.168L72.139 188.308L72.6754 188.172L73.0985 187.777Z" fill="black"/>
<path d="M75.6934 184.605L75.1343 184.462L74.7377 184.04L74.5979 184.601L74.1748 184.993L74.7339 185.136L75.1305 185.558L75.2741 184.996L75.6934 184.605Z" fill="black"/>
<path d="M77.5106 185.272L76.9478 185.132L76.5549 184.71L76.4114 185.268L75.9883 185.663L76.5473 185.806L76.944 186.225L77.0875 185.667L77.5106 185.272Z" fill="black"/>
<path d="M76.9706 183.181L76.4115 183.041L76.064 183.313L75.8713 183.177L75.4482 183.573L76.0111 183.716L76.4039 184.134L76.5475 183.576L76.9706 183.181Z" fill="black"/>
<path d="M78.7715 183.814L78.2124 183.67L77.8158 183.252L77.676 183.81L77.2529 184.205L77.812 184.345L78.2086 184.767L78.3522 184.209L78.7715 183.814Z" fill="black"/>
<path d="M80.5887 184.484L80.0259 184.341L79.633 183.919L79.4895 184.48L79.0664 184.872L79.6255 185.015L80.0221 185.437L80.1657 184.876L80.5887 184.484Z" fill="black"/>
<path d="M80.0487 182.393L79.4896 182.25L79.6294 182.401L78.9494 182.39L78.5264 182.781L79.0892 182.925L79.482 183.347L79.6256 182.789L80.0487 182.393Z" fill="black"/>
<path d="M81.9188 183.008L81.356 182.868L80.9631 182.446L80.8196 183.004L80.3965 183.399L80.9593 183.539L81.3522 183.961L81.4957 183.403L81.9188 183.008Z" fill="black"/>
<path d="M81.3787 180.917L80.8196 180.777L80.423 180.356L80.2832 180.913L80.3965 181.275L80.4192 181.452L80.8158 181.87L80.9556 181.312L81.3787 180.917Z" fill="black"/>
<path d="M83.7313 183.678L83.1723 183.535L82.7756 183.113L82.6321 183.674L82.209 184.066L82.7718 184.209L83.1685 184.631L83.3082 184.074L83.7313 183.678Z" fill="black"/>
<path d="M83.1952 181.587L82.6323 181.444L82.2357 181.022L82.0959 181.584L81.6729 181.975L82.2319 182.119L82.6286 182.54L82.7721 181.983L83.1952 181.587Z" fill="black"/>
<path d="M84.9969 182.22L84.4379 182.077L84.0412 181.655L83.8977 182.216L83.4746 182.608L84.0375 182.751L84.4303 183.173L84.5739 182.612L84.9969 182.22Z" fill="black"/>
<path d="M84.457 180.13L83.8979 179.986L83.5013 179.564L83.3615 180.126L82.9385 180.518L83.4975 180.661L83.8942 181.083L84.0377 180.521L84.457 180.13Z" fill="black"/>
<path d="M64.4629 186.387L63.9038 186.247L63.5072 185.825L63.3674 186.383L62.9443 186.778L63.5034 186.918L63.9 187.34L64.0398 186.782L64.4629 186.387Z" fill="black"/>
<path d="M66.2684 187.019L65.7056 186.876L65.3127 186.454L65.1692 187.016L64.7461 187.411L65.3089 187.551L65.7018 187.973L65.8453 187.415L66.2684 187.019Z" fill="black"/>
<path d="M65.7285 184.929L65.1694 184.786L64.7728 184.367L64.6293 184.925L64.21 185.32L64.769 185.46L65.1657 185.882L65.3054 185.324L65.7285 184.929Z" fill="black"/>
<path d="M68.0819 187.69L67.5228 187.547L67.1262 187.125L66.9827 187.686L66.5596 188.078L67.1224 188.221L67.5153 188.643L67.6588 188.082L68.0819 187.69Z" fill="black"/>
<path d="M67.542 185.599L66.9829 185.456L66.5863 185.034L66.4465 185.596L66.0234 185.987L66.5825 186.131L66.9791 186.552L67.1227 185.991L67.542 185.599Z" fill="black"/>
<path d="M69.4111 186.213L68.8521 186.07L68.4554 185.648L68.3119 186.21L67.8926 186.605L68.4516 186.745L68.8483 187.166L68.988 186.609L69.4111 186.213Z" fill="black"/>
<path d="M71.2246 186.884L70.6655 186.741L70.2689 186.319L70.1291 186.88L69.7061 187.272L70.2651 187.415L70.6618 187.837L70.8053 187.276L71.2246 186.884Z" fill="black"/>
<path d="M70.6883 184.793L70.1255 184.65L70.0122 184.861L69.5891 184.789L69.166 185.181L69.7289 185.324L70.1217 185.746L70.2653 185.185L70.6883 184.793Z" fill="black"/>
<path d="M72.4902 185.426L71.9312 185.283L71.5345 184.861L71.3948 185.418L70.9717 185.814L71.5307 185.957L71.9274 186.379L72.0672 185.818L72.4902 185.426Z" fill="black"/>
<path d="M74.3065 186.093L73.7437 185.953L73.347 185.531L73.2073 186.089L72.7842 186.485L73.3433 186.624L73.7399 187.046L73.8834 186.488L74.3065 186.093Z" fill="black"/>
<path d="M73.7665 184.002L73.2036 183.863L73.0903 184.01L72.6672 183.998L72.2441 184.394L72.807 184.537L73.1998 184.955L73.3434 184.398L73.7665 184.002Z" fill="black"/>
<path d="M92.915 173.213L92.356 173.07L91.9593 172.648L91.8196 173.209L91.3965 173.605L91.9555 173.744L92.3522 174.166L92.4957 173.609L92.915 173.213Z" fill="black"/>
<path d="M92.371 171.089L91.8081 170.949L91.4153 170.527L91.2717 171.085L90.8486 171.48L91.4077 171.623L91.8043 172.042L91.9479 171.484L92.371 171.089Z" fill="black"/>
<path d="M94.7323 173.884L94.1694 173.741L93.7766 173.319L93.633 173.88L93.21 174.272L93.769 174.415L94.1657 174.837L94.3092 174.275L94.7323 173.884Z" fill="black"/>
<path d="M94.1844 171.759L93.6216 171.616L93.2287 171.194L93.0852 171.755L92.6621 172.151L93.2249 172.29L93.6178 172.712L93.7614 172.155L94.1844 171.759Z" fill="black"/>
<path d="M96.0614 172.407L95.4985 172.264L95.1057 171.842L94.9621 172.403L94.5391 172.799L95.1019 172.938L95.4948 173.36L95.6383 172.803L96.0614 172.407Z" fill="black"/>
<path d="M95.5135 170.282L94.9545 170.143L94.5578 169.721L94.4143 170.279L93.9912 170.674L94.554 170.817L94.9469 171.239L95.0904 170.678L95.5135 170.282Z" fill="black"/>
<path d="M97.8749 173.078L97.3158 172.934L96.9192 172.513L96.7756 173.074L96.3525 173.466L96.9154 173.609L97.312 174.031L97.4518 173.469L97.8749 173.078Z" fill="black"/>
<path d="M97.3271 170.953L96.7681 170.81L96.3714 170.392L96.2279 170.949L95.8086 171.345L96.3677 171.484L96.7643 171.906L96.9041 171.349L97.3271 170.953Z" fill="black"/>
<path d="M98.5926 169.495L98.0336 169.352L97.6369 168.93L97.4934 169.491L97.0703 169.883L97.6332 170.026L98.0298 170.448L98.1696 169.891L98.5926 169.495Z" fill="black"/>
<path d="M91.7625 168.738L91.2035 168.595L90.8068 168.173L90.6633 168.734L90.2402 169.126L90.8031 169.269L91.1997 169.691L91.3395 169.133L91.7625 168.738Z" fill="black"/>
<path d="M91.2226 166.647L90.6636 166.504L90.2669 166.082L90.1272 166.643L89.7041 167.035L90.2632 167.178L90.6598 167.6L90.8033 167.043L91.2226 166.647Z" fill="black"/>
<path d="M93.5761 169.408L93.0171 169.265L92.6205 168.843L92.4769 169.401L92.0576 169.796L92.6167 169.94L93.0133 170.362L93.1531 169.8L93.5761 169.408Z" fill="black"/>
<path d="M93.0399 167.318L92.4771 167.175L92.0842 166.753L91.9407 167.31L91.5176 167.706L92.0766 167.849L92.4733 168.271L92.6168 167.71L93.0399 167.318Z" fill="black"/>
<path d="M94.909 167.932L94.3462 167.789L93.9533 167.367L93.8098 167.928L93.3867 168.32L93.9458 168.463L94.3424 168.885L94.4859 168.327L94.909 167.932Z" fill="black"/>
<path d="M94.369 165.841L93.8099 165.698L93.4133 165.276L93.2698 165.837L92.8467 166.233L93.4095 166.372L93.8024 166.794L93.9459 166.237L94.369 165.841Z" fill="black"/>
<path d="M96.7225 168.602L96.1597 168.459L95.7668 168.037L95.6233 168.595L95.2002 168.99L95.763 169.133L96.1559 169.555L96.2994 168.994L96.7225 168.602Z" fill="black"/>
<path d="M96.1826 166.512L95.6236 166.368L95.2269 165.947L95.0834 166.508L94.6641 166.9L95.2231 167.043L95.6198 167.465L95.7595 166.903L96.1826 166.512Z" fill="black"/>
<path d="M97.9881 167.141L97.4253 167.001L97.0324 166.579L96.8889 167.137L96.4658 167.532L97.0249 167.676L97.4215 168.097L97.5651 167.536L97.9881 167.141Z" fill="black"/>
<path d="M97.4481 165.054L96.889 164.911L96.4924 164.489L96.3489 165.046L95.9258 165.442L96.4886 165.585L96.8815 166.007L97.025 165.445L97.4481 165.054Z" fill="black"/>
<path d="M93.7538 175.828L93.1909 175.688L92.7981 175.266L92.6545 175.824L92.2314 176.219L92.7905 176.362L93.1871 176.784L93.3307 176.223L93.7538 175.828Z" fill="black"/>
<path d="M95.5672 176.498L95.0044 176.355L94.6115 175.937L94.468 176.494L94.0449 176.89L94.6078 177.029L95.0006 177.451L95.1442 176.894L95.5672 176.498Z" fill="black"/>
<path d="M96.8963 175.025L96.3373 174.882L95.9406 174.46L95.7971 175.018L95.374 175.413L95.9369 175.556L96.3297 175.978L96.4733 175.417L96.8963 175.025Z" fill="black"/>
</g>
<defs>
<clipPath id="clip0">
<rect width="282" height="220" fill="white"/>
</clipPath>
</defs>
</svg>
