<svg width="335" height="281" viewBox="0 0 335 281" fill="none" xmlns="http://www.w3.org/2000/svg">
<path d="M195.163 0.252686C172.117 0.252686 153.37 18.9927 153.336 42.0419C153.336 42.067 153.328 42.0837 153.328 42.1087C153.328 60.6817 168.503 75.7973 187.15 75.7973C205.772 75.7973 220.913 60.6817 220.913 42.1087C220.913 42.0168 220.905 41.9333 220.888 41.8498C220.746 27.8032 209.269 16.4205 195.163 16.4205C181.006 16.4205 169.488 27.9451 169.488 42.1087C169.488 42.234 169.513 42.3509 169.546 42.4595C169.738 52.08 177.626 59.8466 187.317 59.8466C197.008 59.8466 204.895 52.0299 205.037 42.3676C205.054 42.2841 205.062 42.1922 205.062 42.1004C205.062 36.6721 200.622 32.246 195.163 32.246C189.737 32.246 185.313 36.6637 185.313 42.1004C185.313 42.7935 185.873 43.353 186.566 43.353C187.258 43.353 187.818 42.7935 187.818 42.1004C187.818 38.05 191.115 34.7513 195.163 34.7513C199.211 34.7513 202.5 37.9916 202.558 41.9918C202.558 42.0252 202.55 42.0586 202.55 42.092C202.55 50.4933 195.714 57.3329 187.317 57.3329C178.886 57.3329 172.033 50.4933 172.033 42.092C172.033 42.0001 172.025 41.9083 172 41.8164C172.15 29.1561 182.476 18.9092 195.163 18.9092C207.967 18.9092 218.392 29.3064 218.392 42.092C218.392 42.1505 218.401 42.2006 218.409 42.2507C218.317 59.3706 204.336 73.2752 187.15 73.2752C169.897 73.2752 155.857 59.3037 155.832 42.1338C155.832 42.1171 155.832 42.1087 155.832 42.092C155.832 20.3957 173.477 2.74133 195.155 2.74133C216.873 2.74133 234.535 20.3957 234.535 42.092C234.535 68.3481 213.134 89.7103 186.833 89.7103C160.498 89.7103 139.071 68.3481 139.071 42.092C139.071 41.3989 138.512 40.8393 137.819 40.8393C137.127 40.8393 136.567 41.3989 136.567 42.092C136.567 69.7343 159.112 92.2157 186.833 92.2157C214.519 92.2157 237.04 69.7343 237.04 42.092C237.048 19.0261 218.259 0.252686 195.163 0.252686Z" fill="#25AAE1"/>
<path d="M59.4665 144.452C36.4205 144.452 17.6733 163.192 17.6399 186.241C17.6399 186.266 17.6315 186.283 17.6315 186.308C17.6315 204.881 32.8063 219.997 51.4534 219.997C70.0754 219.997 85.2168 204.881 85.2168 186.308C85.2168 186.216 85.2085 186.133 85.1918 186.049C85.0499 172.003 73.5645 160.62 59.4665 160.62C45.31 160.62 33.7912 172.145 33.7912 186.308C33.7912 186.433 33.8163 186.55 33.8497 186.659C34.0416 196.28 41.9295 204.046 51.6203 204.046C61.3111 204.046 69.199 196.229 69.3409 186.567C69.3576 186.484 69.3659 186.392 69.3659 186.3C69.3659 180.872 64.9254 176.446 59.4665 176.446C54.0409 176.446 49.6171 180.863 49.6171 186.3C49.6171 186.993 50.1763 187.553 50.8691 187.553C51.5619 187.553 52.1211 186.993 52.1211 186.3C52.1211 182.25 55.4182 178.951 59.4665 178.951C63.5147 178.951 66.8034 182.191 66.8619 186.191C66.8619 186.225 66.8535 186.258 66.8535 186.292C66.8535 194.693 60.0174 201.532 51.6203 201.532C43.1899 201.532 36.3371 194.693 36.3371 186.292C36.3371 186.2 36.3287 186.108 36.3037 186.016C36.4539 173.356 46.7791 163.109 59.4665 163.109C72.2707 163.109 82.696 173.506 82.696 186.292C82.696 186.35 82.7044 186.4 82.7127 186.459C82.6209 203.578 68.6398 217.475 51.4534 217.475C34.2002 217.475 20.1607 203.503 20.1356 186.333C20.1356 186.317 20.1356 186.308 20.1356 186.292C20.1356 164.595 37.7811 146.941 59.4581 146.941C81.1769 146.941 98.839 164.595 98.839 186.292C98.839 212.548 77.4374 233.91 51.1362 233.91C24.8016 233.91 3.37494 212.548 3.37494 186.292C3.37494 185.598 2.81569 185.039 2.12289 185.039C1.4301 185.039 0.87085 185.598 0.87085 186.292C0.87085 213.934 23.416 236.415 51.1362 236.415C78.823 236.415 101.343 213.934 101.343 186.292C101.351 163.226 82.5625 144.452 59.4665 144.452Z" fill="#25AAE1"/>
</svg>
