<svg width="147" height="186" viewBox="0 0 147 186" fill="none" xmlns="http://www.w3.org/2000/svg">
<path d="M101.532 0.295654C89.5255 0.295654 79.7586 10.0588 79.7412 22.067C79.7412 22.08 79.7368 22.0887 79.7368 22.1018C79.7368 31.7779 87.6426 39.6528 97.3573 39.6528C107.059 39.6528 114.947 31.7779 114.947 22.1018C114.947 22.0539 114.943 22.0104 114.934 21.9669C114.86 14.6489 108.881 8.71876 101.532 8.71876C94.1568 8.71876 88.1557 14.7228 88.1557 22.1018C88.1557 22.167 88.1688 22.2279 88.1862 22.2845C88.2862 27.2966 92.3956 31.3428 97.4443 31.3428C102.493 31.3428 106.602 27.2705 106.676 22.2366C106.685 22.1931 106.689 22.1453 106.689 22.0974C106.689 19.2694 104.376 16.9635 101.532 16.9635C98.7054 16.9635 96.4006 19.2651 96.4006 22.0974C96.4006 22.4585 96.692 22.75 97.0529 22.75C97.4139 22.75 97.7052 22.4585 97.7052 22.0974C97.7052 19.9873 99.4229 18.2687 101.532 18.2687C103.641 18.2687 105.354 19.9568 105.385 22.0408C105.385 22.0583 105.38 22.0757 105.38 22.0931C105.38 26.4699 101.819 30.0332 97.4443 30.0332C93.0522 30.0332 89.482 26.4699 89.482 22.0931C89.482 22.0452 89.4777 21.9973 89.4646 21.9495C89.5429 15.3537 94.9221 10.0153 101.532 10.0153C108.203 10.0153 113.634 15.432 113.634 22.0931C113.634 22.1235 113.638 22.1496 113.643 22.1757C113.595 31.0948 106.311 38.3389 97.3573 38.3389C88.3688 38.3389 81.0545 31.06 81.0414 22.1148C81.0414 22.1061 81.0414 22.1018 81.0414 22.0931C81.0414 10.7897 90.2343 1.59219 101.528 1.59219C112.843 1.59219 122.044 10.7897 122.044 22.0931C122.044 35.7719 110.894 46.9012 97.1921 46.9012C83.4723 46.9012 72.3095 35.7719 72.3095 22.0931C72.3095 21.7319 72.0181 21.4404 71.6572 21.4404C71.2962 21.4404 71.0049 21.7319 71.0049 22.0931C71.0049 36.4941 82.7504 48.2064 97.1921 48.2064C111.616 48.2064 123.349 36.4941 123.349 22.0931C123.353 10.0762 113.565 0.295654 101.532 0.295654Z" fill="#25AAE1"/>
<path d="M30.8376 75.4205C18.8312 75.4205 9.06425 85.1837 9.04686 97.1918C9.04686 97.2049 9.04251 97.2136 9.04251 97.2266C9.04251 106.903 16.9482 114.778 26.663 114.778C36.3647 114.778 44.253 106.903 44.253 97.2266C44.253 97.1788 44.2487 97.1353 44.24 97.0918C44.166 89.7738 38.1824 83.8436 30.8376 83.8436C23.4624 83.8436 17.4614 89.8477 17.4614 97.2266C17.4614 97.2919 17.4744 97.3528 17.4918 97.4094C17.5918 102.421 21.7012 106.468 26.75 106.468C31.7987 106.468 35.9081 102.395 35.982 97.3615C35.9907 97.318 35.9951 97.2702 35.9951 97.2223C35.9951 94.3943 33.6816 92.0884 30.8376 92.0884C28.011 92.0884 25.7063 94.3899 25.7063 97.2223C25.7063 97.5834 25.9977 97.8749 26.3586 97.8749C26.7195 97.8749 27.0109 97.5834 27.0109 97.2223C27.0109 95.1122 28.7286 93.3936 30.8376 93.3936C32.9467 93.3936 34.66 95.0817 34.6905 97.1657C34.6905 97.1831 34.6861 97.2005 34.6861 97.2179C34.6861 101.595 31.1246 105.158 26.75 105.158C22.3579 105.158 18.7877 101.595 18.7877 97.2179C18.7877 97.1701 18.7833 97.1222 18.7703 97.0744C18.8486 90.4786 24.2278 85.1402 30.8376 85.1402C37.5084 85.1402 42.9397 90.5569 42.9397 97.2179C42.9397 97.2484 42.9441 97.2745 42.9484 97.305C42.9006 106.224 35.6167 113.464 26.663 113.464C17.6745 113.464 10.3601 106.185 10.3471 97.2397C10.3471 97.231 10.3471 97.2266 10.3471 97.2179C10.3471 85.9146 19.54 76.7171 30.8333 76.7171C42.1483 76.7171 51.3499 85.9146 51.3499 97.2179C51.3499 110.897 40.2001 122.026 26.4977 122.026C12.7779 122.026 1.61512 110.897 1.61512 97.2179C1.61512 96.8568 1.32377 96.5653 0.962835 96.5653C0.601902 96.5653 0.310547 96.8568 0.310547 97.2179C0.310547 111.619 12.0561 123.331 26.4977 123.331C40.922 123.331 52.6545 111.619 52.6545 97.2179C52.6588 85.2011 42.8702 75.4205 30.8376 75.4205Z" fill="#25AAE1"/>
</svg>
