<svg width="537" height="644" viewBox="0 0 537 644" fill="none" xmlns="http://www.w3.org/2000/svg">
<path d="M75.0801 61.6124C75.0801 40.9017 91.8694 24.1124 112.58 24.1124H486.681C513.467 24.1124 535.181 45.8265 535.181 72.6124V605C535.181 625.711 518.392 642.5 497.681 642.5H112.58C91.8694 642.5 75.0801 625.711 75.0801 605V61.6124Z" fill="black" stroke="black" stroke-width="3"/>
<path d="M54.2773 39.0001C54.2773 18.2894 71.0667 1.5 91.7773 1.5H465.879C492.664 1.5 514.378 23.2142 514.378 50V582.388C514.378 603.098 497.589 619.888 476.878 619.888H91.7773C71.0666 619.888 54.2773 603.098 54.2773 582.388V39.0001Z" fill="white" stroke="black" stroke-width="3"/>
<g clip-path="url(#clip0)">
<path d="M407.772 538.048C410.503 541.467 410.585 550.991 410.449 555.703C410.404 557.15 409.083 558.209 407.663 557.928C403.041 557.015 393.779 554.808 391.048 551.389C388.172 547.789 384.888 533.218 383.577 526.986C383.323 525.792 384.544 524.824 385.648 525.33C391.428 527.99 404.896 534.439 407.772 538.048Z" fill="#08B56E" stroke="black" stroke-width="3" stroke-miterlimit="10" stroke-linecap="round" stroke-linejoin="round"/>
<path d="M416.401 538.048C413.67 541.467 413.588 550.991 413.724 555.703C413.769 557.15 415.09 558.209 416.51 557.928C421.132 557.015 430.394 554.808 433.125 551.389C436.002 547.789 439.285 533.218 440.597 526.986C440.85 525.792 439.629 524.824 438.525 525.33C432.737 527.99 419.269 534.439 416.401 538.048Z" fill="#08B56E" stroke="black" stroke-width="3" stroke-miterlimit="10" stroke-linecap="round" stroke-linejoin="round"/>
<path d="M427.156 533.082C427.156 539.25 418.889 549.815 414.592 554.88C413.272 556.436 410.884 556.436 409.563 554.88C405.276 549.815 397 539.25 397 533.082C397 526.588 406.172 507.647 410.206 499.634C410.974 498.096 413.163 498.096 413.941 499.634C417.984 507.647 427.156 526.588 427.156 533.082Z" fill="#08B56E" stroke="black" stroke-width="3" stroke-miterlimit="10" stroke-linecap="round" stroke-linejoin="round"/>
<path d="M423.545 579.021H400.842L396.365 555.079H427.796L423.545 579.021Z" fill="#25AAE1" stroke="black" stroke-width="3" stroke-miterlimit="10" stroke-linecap="round" stroke-linejoin="round"/>
<path d="M417.35 519.75L417.748 519.035L418.462 518.646L417.748 518.248L417.35 517.534L416.961 518.248L416.246 518.646L416.961 519.035L417.35 519.75Z" fill="black"/>
<path d="M420.453 519.75L420.842 519.035L421.557 518.646L420.842 518.248L420.453 517.534L420.064 518.248L419.35 518.646L420.064 519.035L420.453 519.75Z" fill="black"/>
<path d="M415.804 521.993L416.193 521.278L416.907 520.88L416.193 520.491L415.804 519.777L415.415 520.491L414.691 520.88L415.415 521.278L415.804 521.993Z" fill="black"/>
<path d="M418.896 521.993L419.294 521.278L420.009 520.88L419.294 520.491L418.896 519.777L418.508 520.491L417.793 520.88L418.508 521.278L418.896 521.993Z" fill="black"/>
<path d="M417.35 524.227L417.748 523.512L418.462 523.123L417.748 522.734L417.35 522.02L416.961 522.734L416.246 523.123L416.961 523.512L417.35 524.227Z" fill="black"/>
<path d="M420.453 524.227L420.842 523.512L421.557 523.123L420.842 522.734L420.453 522.02L420.064 522.734L419.35 523.123L420.064 523.512L420.453 524.227Z" fill="black"/>
<path d="M415.804 526.47L416.193 525.755L416.907 525.366L416.193 524.978L415.804 524.254L415.415 524.978L414.691 525.366L415.415 525.755L415.804 526.47Z" fill="black"/>
<path d="M418.896 526.47L419.294 525.755L420.009 525.366L419.294 524.978L418.896 524.254L418.508 524.978L417.793 525.366L418.508 525.755L418.896 526.47Z" fill="black"/>
<path d="M414.303 528.804L414.692 528.089L415.415 527.7L414.692 527.311L414.303 526.597L413.914 527.311L413.199 527.7L413.914 528.089L414.303 528.804Z" fill="black"/>
<path d="M417.35 528.804L417.748 528.089L418.462 527.7L417.748 527.311L417.35 526.597L416.961 527.311L416.246 527.7L416.961 528.089L417.35 528.804Z" fill="black"/>
<path d="M420.453 528.804L420.842 528.089L421.557 527.7L420.842 527.311L420.453 526.597L420.064 527.311L419.35 527.7L420.064 528.089L420.453 528.804Z" fill="black"/>
<path d="M412.755 531.047L413.144 530.332L413.859 529.943L413.144 529.545L412.755 528.831L412.357 529.545L411.643 529.943L412.357 530.332L412.755 531.047Z" fill="black"/>
<path d="M415.804 531.047L416.193 530.332L416.907 529.943L416.193 529.545L415.804 528.831L415.415 529.545L414.691 529.943L415.415 530.332L415.804 531.047Z" fill="black"/>
<path d="M418.896 531.047L419.294 530.332L420.009 529.943L419.294 529.545L418.896 528.831L418.508 529.545L417.793 529.943L418.508 530.332L418.896 531.047Z" fill="black"/>
<path d="M414.303 501.551L414.692 500.837L415.415 500.448L414.692 500.05L414.303 499.335L413.914 500.05L413.199 500.448L413.914 500.837L414.303 501.551Z" fill="black"/>
<path d="M412.755 503.794L413.144 503.08L413.859 502.682L413.144 502.293L412.755 501.578L412.357 502.293L411.643 502.682L412.357 503.08L412.755 503.794Z" fill="black"/>
<path d="M415.804 503.794L416.193 503.08L416.907 502.682L416.193 502.293L415.804 501.578L415.415 502.293L414.691 502.682L415.415 503.08L415.804 503.794Z" fill="black"/>
<path d="M414.303 506.028L414.692 505.314L415.415 504.925L414.692 504.536L414.303 503.821L413.914 504.536L413.199 504.925L413.914 505.314L414.303 506.028Z" fill="black"/>
<path d="M412.755 508.272L413.144 507.557L413.859 507.168L413.144 506.779L412.755 506.056L412.357 506.779L411.643 507.168L412.357 507.557L412.755 508.272Z" fill="black"/>
<path d="M415.804 508.272L416.193 507.557L416.907 507.168L416.193 506.779L415.804 506.056L415.415 506.779L414.691 507.168L415.415 507.557L415.804 508.272Z" fill="black"/>
<path d="M414.303 510.605L414.692 509.891L415.415 509.502L414.692 509.113L414.303 508.398L413.914 509.113L413.199 509.502L413.914 509.891L414.303 510.605Z" fill="black"/>
<path d="M417.35 510.605L417.748 509.891L418.462 509.502L417.748 509.113L417.35 508.398L416.961 509.113L416.246 509.502L416.961 509.891L417.35 510.605Z" fill="black"/>
<path d="M412.755 512.848L413.144 512.134L413.859 511.745L413.144 511.347L412.755 510.632L412.357 511.347L411.643 511.745L412.357 512.134L412.755 512.848Z" fill="black"/>
<path d="M415.804 512.848L416.193 512.134L416.907 511.745L416.193 511.347L415.804 510.632L415.415 511.347L414.691 511.745L415.415 512.134L415.804 512.848Z" fill="black"/>
<path d="M418.896 512.848L419.294 512.134L420.009 511.745L419.294 511.347L418.896 510.632L418.508 511.347L417.793 511.745L418.508 512.134L418.896 512.848Z" fill="black"/>
<path d="M414.303 515.091L414.692 514.377L415.415 513.979L414.692 513.59L414.303 512.875L413.914 513.59L413.199 513.979L413.914 514.377L414.303 515.091Z" fill="black"/>
<path d="M417.35 515.091L417.748 514.377L418.462 513.979L417.748 513.59L417.35 512.875L416.961 513.59L416.246 513.979L416.961 514.377L417.35 515.091Z" fill="black"/>
<path d="M420.453 515.091L420.842 514.377L421.557 513.979L420.842 513.59L420.453 512.875L420.064 513.59L419.35 513.979L420.064 514.377L420.453 515.091Z" fill="black"/>
<path d="M415.804 517.326L416.193 516.611L416.907 516.222L416.193 515.833L415.804 515.119L415.415 515.833L414.691 516.222L415.415 516.611L415.804 517.326Z" fill="black"/>
<path d="M418.896 517.326L419.294 516.611L420.009 516.222L419.294 515.833L418.896 515.119L418.508 515.833L417.793 516.222L418.508 516.611L418.896 517.326Z" fill="black"/>
<path d="M412.755 499.064L413.144 498.349L413.859 497.951L413.144 497.562V498.349L412.357 497.562L411.643 497.951L412.357 498.349L412.755 499.064Z" fill="black"/>
<path d="M422.443 521.993L422.832 521.278L423.546 520.88L422.832 520.491L422.443 519.777L422.045 520.491L421.33 520.88L422.045 521.278L422.443 521.993Z" fill="black"/>
<path d="M423.99 524.227L424.388 523.512L425.103 523.123L424.388 522.734L423.99 522.02L423.601 522.734L422.887 523.123L423.601 523.512L423.99 524.227Z" fill="black"/>
<path d="M422.443 526.47L422.832 525.755L423.546 525.366L422.832 524.978L422.443 524.254L422.045 524.978L421.33 525.366L422.045 525.755L422.443 526.47Z" fill="black"/>
<path d="M425.49 526.47L425.879 525.755L426.594 525.366L425.879 524.978L425.49 524.254L425.101 524.978L424.387 525.366L425.101 525.755L425.49 526.47Z" fill="black"/>
<path d="M423.99 528.804L424.388 528.089L425.103 527.7L424.388 527.311L423.99 526.597L423.601 527.311L422.887 527.7L423.601 528.089L423.99 528.804Z" fill="black"/>
<path d="M422.443 531.047L422.832 530.332L423.546 529.943L422.832 529.545L422.443 528.831L422.045 529.545L421.33 529.943L422.045 530.332L422.443 531.047Z" fill="black"/>
<path d="M425.49 531.047L425.879 530.332L426.594 529.943L425.879 529.545L425.49 528.831L425.101 529.545L424.387 529.943L425.101 530.332L425.49 531.047Z" fill="black"/>
<path d="M428.584 531.047L428.982 530.332L429.696 529.943L428.982 529.545L428.584 528.831L428.195 529.545L427.48 529.943L428.195 530.332L428.584 531.047Z" fill="black"/>
<path d="M427.038 540.336L426.649 541.05L425.926 541.448L426.649 541.837L427.038 542.552L427.427 541.837L428.142 541.448L427.427 541.05L427.038 540.336Z" fill="black"/>
<path d="M423.989 540.336L423.592 541.05L422.877 541.448L423.592 541.837L423.989 542.552L424.378 541.837L425.093 541.448L424.378 541.05L423.989 540.336Z" fill="black"/>
<path d="M420.887 540.336L420.498 541.05L419.783 541.448L420.498 541.837L420.887 542.552L421.276 541.837L421.99 541.448L421.276 541.05L420.887 540.336Z" fill="black"/>
<path d="M428.584 538.102L428.195 538.816L427.48 539.205L428.195 539.594L428.584 540.309L428.982 539.594L429.696 539.205L428.982 538.816L428.584 538.102Z" fill="black"/>
<path d="M425.535 538.102L425.146 538.816L424.432 539.205L425.146 539.594L425.535 540.309L425.924 539.594L426.648 539.205L425.924 538.816L425.535 538.102Z" fill="black"/>
<path d="M422.443 538.102L422.045 538.816L421.33 539.205L422.045 539.594L422.443 540.309L422.832 539.594L423.546 539.205L422.832 538.816L422.443 538.102Z" fill="black"/>
<path d="M427.038 535.859L426.649 536.573L425.926 536.962L426.649 537.36L427.038 538.075L427.427 537.36L428.142 536.962L427.427 536.573L427.038 535.859Z" fill="black"/>
<path d="M423.989 535.859L423.592 536.573L422.877 536.962L423.592 537.36L423.989 538.075L424.378 537.36L425.093 536.962L424.378 536.573L423.989 535.859Z" fill="black"/>
<path d="M420.887 535.859L420.498 536.573L419.783 536.962L420.498 537.36L420.887 538.075L421.276 537.36L421.99 536.962L421.276 536.573L420.887 535.859Z" fill="black"/>
<path d="M428.584 533.616L428.195 534.33L427.48 534.728L428.195 535.117L428.584 535.832L428.982 535.117L429.696 534.728L428.982 534.33L428.584 533.616Z" fill="black"/>
<path d="M425.535 533.616L425.146 534.33L424.432 534.728L425.146 535.117L425.535 535.832L425.924 535.117L426.648 534.728L425.924 534.33L425.535 533.616Z" fill="black"/>
<path d="M422.443 533.616L422.045 534.33L421.33 534.728L422.045 535.117L422.443 535.832L422.832 535.117L423.546 534.728L422.832 534.33L422.443 533.616Z" fill="black"/>
<path d="M427.038 531.282L426.649 531.996L425.926 532.385L426.649 532.783L427.038 533.498L427.427 532.783L428.142 532.385L427.427 531.996L427.038 531.282Z" fill="black"/>
<path d="M423.989 531.282L423.592 531.996L422.877 532.385L423.592 532.783L423.989 533.498L424.378 532.783L425.093 532.385L424.378 531.996L423.989 531.282Z" fill="black"/>
<path d="M420.887 531.282L420.498 531.996L419.783 532.385L420.498 532.783L420.887 533.498L421.276 532.783L421.99 532.385L421.276 531.996L420.887 531.282Z" fill="black"/>
<path d="M427.038 558.534L426.649 559.249L425.926 559.647L426.649 560.036L427.038 560.75L427.427 560.036L428.142 559.647L427.427 559.249L427.038 558.534Z" fill="black"/>
<path d="M423.989 558.534L423.592 559.249L422.877 559.647L423.592 560.036L423.989 560.75L424.378 560.036L425.093 559.647L424.378 559.249L423.989 558.534Z" fill="black"/>
<path d="M420.887 558.534L420.498 559.249L419.783 559.647L420.498 560.036L420.887 560.75L421.276 560.036L421.99 559.647L421.276 559.249L420.887 558.534Z" fill="black"/>
<path d="M425.535 556.3L425.146 557.015L424.432 557.404L425.146 557.793L425.535 558.507L425.924 557.793L426.648 557.404L425.924 557.015L425.535 556.3Z" fill="black"/>
<path d="M422.443 556.3L422.045 557.015L421.33 557.404L422.045 557.793L422.443 558.507L422.832 557.793L423.546 557.404L422.832 557.015L422.443 556.3Z" fill="black"/>
<path d="M427.038 554.057L426.649 554.772L425.926 555.161L426.649 555.559L427.038 556.273L427.427 555.559L428.142 555.161L427.427 554.772L427.038 554.057Z" fill="black"/>
<path d="M423.989 554.057L423.592 554.772L422.877 555.161L423.592 555.559L423.989 556.273L424.378 555.559L425.093 555.161L424.378 554.772L423.989 554.057Z" fill="black"/>
<path d="M420.887 554.057L420.498 554.772L419.783 555.161L420.498 555.559L420.887 556.273L421.276 555.559L421.99 555.161L421.276 554.772L420.887 554.057Z" fill="black"/>
<path d="M428.584 551.814L428.195 552.528L427.48 552.926L428.195 553.315L428.584 554.03L428.982 553.315L429.696 552.926L428.982 552.528L428.584 551.814Z" fill="black"/>
<path d="M425.535 551.814L425.146 552.528L424.432 552.926L425.146 553.315L425.535 554.03L425.924 553.315L426.648 552.926L425.924 552.528L425.535 551.814Z" fill="black"/>
<path d="M422.443 551.814L422.045 552.528L421.33 552.926L422.045 553.315L422.443 554.03L422.832 553.315L423.546 552.926L422.832 552.528L422.443 551.814Z" fill="black"/>
<path d="M427.038 549.48L426.649 550.195L425.926 550.584L426.649 550.982L427.038 551.696L427.427 550.982L428.142 550.584L427.427 550.195L427.038 549.48Z" fill="black"/>
<path d="M423.989 549.48L423.592 550.195L422.877 550.584L423.592 550.982L423.989 551.696L424.378 550.982L425.093 550.584L424.378 550.195L423.989 549.48Z" fill="black"/>
<path d="M420.887 549.48L420.498 550.195L419.783 550.584L420.498 550.982L420.887 551.696L421.276 550.982L421.99 550.584L421.276 550.195L420.887 549.48Z" fill="black"/>
<path d="M428.584 547.237L428.195 547.952L427.48 548.35L428.195 548.739L428.584 549.453L428.982 548.739L429.696 548.35L428.982 547.952L428.584 547.237Z" fill="black"/>
<path d="M425.535 547.237L425.146 547.952L424.432 548.35L425.146 548.739L425.535 549.453L425.924 548.739L426.648 548.35L425.924 547.952L425.535 547.237Z" fill="black"/>
<path d="M422.443 547.237L422.045 547.952L421.33 548.35L422.045 548.739L422.443 549.453L422.832 548.739L423.546 548.35L422.832 547.952L422.443 547.237Z" fill="black"/>
<path d="M427.038 545.003L426.649 545.718L425.926 546.107L426.649 546.496L427.038 547.21L427.427 546.496L428.142 546.107L427.427 545.718L427.038 545.003Z" fill="black"/>
<path d="M423.989 545.003L423.592 545.718L422.877 546.107L423.592 546.496L423.989 547.21L424.378 546.496L425.093 546.107L424.378 545.718L423.989 545.003Z" fill="black"/>
<path d="M420.887 545.003L420.498 545.718L419.783 546.107L420.498 546.496L420.887 547.21L421.276 546.496L421.99 546.107L421.276 545.718L420.887 545.003Z" fill="black"/>
<path d="M428.584 542.76L428.195 543.474L427.48 543.863L428.195 544.261L428.584 544.976L428.982 544.261L429.696 543.863L428.982 543.474L428.584 542.76Z" fill="black"/>
<path d="M425.535 542.76L425.146 543.474L424.432 543.863L425.146 544.261L425.535 544.976L425.924 544.261L426.648 543.863L425.924 543.474L425.535 542.76Z" fill="black"/>
<path d="M422.443 542.76L422.045 543.474L421.33 543.863L422.045 544.261L422.443 544.976L422.832 544.261L423.546 543.863L422.832 543.474L422.443 542.76Z" fill="black"/>
<path d="M425.535 561.031L425.146 561.745L424.432 562.134L425.146 562.523L425.535 563.238L425.924 562.523L426.648 562.134L425.924 561.745L425.535 561.031Z" fill="black"/>
<path d="M422.443 561.031L422.045 561.745L421.33 562.134L422.045 562.523L422.443 563.238L422.832 562.523L423.546 562.134L422.832 561.745L422.443 561.031Z" fill="black"/>
<path d="M417.349 540.336L416.951 541.05L416.236 541.448L416.951 541.837L417.349 542.552L417.738 541.837L418.452 541.448L417.738 541.05L417.349 540.336Z" fill="black"/>
<path d="M418.896 538.102L418.508 538.816L417.793 539.205L418.508 539.594L418.896 540.309L419.294 539.594L420.009 539.205L419.294 538.816L418.896 538.102Z" fill="black"/>
<path d="M417.349 535.859L416.951 536.573L416.236 536.962L416.951 537.36L417.349 538.075L417.738 537.36L418.452 536.962L417.738 536.573L417.349 535.859Z" fill="black"/>
<path d="M418.896 533.616L418.508 534.33L417.793 534.728L418.508 535.117L418.896 535.832L419.294 535.117L420.009 534.728L419.294 534.33L418.896 533.616Z" fill="black"/>
<path d="M415.848 533.616L415.459 534.33L414.744 534.728L415.459 535.117L415.848 535.832L416.237 535.117L416.951 534.728L416.237 534.33L415.848 533.616Z" fill="black"/>
<path d="M417.349 531.282L416.951 531.996L416.236 532.385L416.951 532.783L417.349 533.498L417.738 532.783L418.452 532.385L417.738 531.996L417.349 531.282Z" fill="black"/>
<path d="M417.351 558.534L416.953 559.249L416.238 559.647L416.953 560.036L417.351 560.75L417.74 560.036L418.454 559.647L417.74 559.249L417.351 558.534Z" fill="black"/>
<path d="M414.293 558.534L413.904 559.249L413.189 559.647L413.904 560.036L414.293 560.75L414.691 560.036L415.405 559.647L414.691 559.249L414.293 558.534Z" fill="black"/>
<path d="M418.896 556.3L418.508 557.015L417.793 557.404L418.508 557.793L418.896 558.507L419.294 557.793L420.009 557.404L419.294 557.015L418.896 556.3Z" fill="black"/>
<path d="M415.848 556.3L415.459 557.015L414.744 557.404L415.459 557.793L415.848 558.507L416.237 557.793L416.951 557.404L416.237 557.015L415.848 556.3Z" fill="black"/>
<path d="M412.755 556.3L412.357 557.015L411.643 557.404L412.357 557.793L412.755 558.507L413.144 557.793L413.859 557.404L413.144 557.015L412.755 556.3Z" fill="black"/>
<path d="M417.351 554.057L416.953 554.772L416.238 555.161L416.953 555.559L417.351 556.273L417.74 555.559L418.454 555.161L417.74 554.772L417.351 554.057Z" fill="black"/>
<path d="M414.293 554.057L413.904 554.772L413.189 555.161L413.904 555.559L414.293 556.273L414.691 555.559L415.405 555.161L414.691 554.772L414.293 554.057Z" fill="black"/>
<path d="M418.896 551.814L418.508 552.528L417.793 552.926L418.508 553.315L418.896 554.03L419.294 553.315L420.009 552.926L419.294 552.528L418.896 551.814Z" fill="black"/>
<path d="M415.848 551.814L415.459 552.528L414.744 552.926L415.459 553.315L415.848 554.03L416.237 553.315L416.951 552.926L416.237 552.528L415.848 551.814Z" fill="black"/>
<path d="M412.755 551.814L412.357 552.528L411.643 552.926L412.357 553.315L412.755 554.03L413.144 553.315L413.859 552.926L413.144 552.528L412.755 551.814Z" fill="black"/>
<path d="M417.351 549.48L416.953 550.195L416.238 550.584L416.953 550.982L417.351 551.696L417.74 550.982L418.454 550.584L417.74 550.195L417.351 549.48Z" fill="black"/>
<path d="M414.293 549.48L413.904 550.195L413.189 550.584L413.904 550.982L414.293 551.696L414.691 550.982L415.405 550.584L414.691 550.195L414.293 549.48Z" fill="black"/>
<path d="M418.896 547.237L418.508 547.952L417.793 548.35L418.508 548.739L418.896 549.453L419.294 548.739L420.009 548.35L419.294 547.952L418.896 547.237Z" fill="black"/>
<path d="M415.848 547.237L415.459 547.952L414.744 548.35L415.459 548.739L415.848 549.453L416.237 548.739L416.951 548.35L416.237 547.952L415.848 547.237Z" fill="black"/>
<path d="M412.755 547.237L412.357 547.952L411.643 548.35L412.357 548.739L412.755 549.453L413.144 548.739L413.859 548.35L413.144 547.952L412.755 547.237Z" fill="black"/>
<path d="M417.351 545.003L416.953 545.718L416.238 546.107L416.953 546.496L417.351 547.21L417.74 546.496L418.454 546.107L417.74 545.718L417.351 545.003Z" fill="black"/>
<path d="M414.293 545.003L413.904 545.718L413.189 546.107L413.904 546.496L414.293 547.21L414.691 546.496L415.405 546.107L414.691 545.718L414.293 545.003Z" fill="black"/>
<path d="M418.896 542.76L418.508 543.474L417.793 543.863L418.508 544.261L418.896 544.976L419.294 544.261L420.009 543.863L419.294 543.474L418.896 542.76Z" fill="black"/>
<path d="M415.848 542.76L415.459 543.474L414.744 543.863L415.459 544.261L415.848 544.976L416.237 544.261L416.951 543.863L416.237 543.474L415.848 542.76Z" fill="black"/>
<path d="M418.896 561.031L418.508 561.745L417.793 562.134L418.508 562.523L418.896 563.238L419.294 562.523L420.009 562.134L419.294 561.745L418.896 561.031Z" fill="black"/>
<path d="M415.848 561.031L415.459 561.745L414.744 562.134L415.459 562.523L415.848 563.238L416.237 562.523L416.951 562.134L416.237 561.745L415.848 561.031Z" fill="black"/>
<path d="M412.755 561.031L412.357 561.745L411.643 562.134L412.357 562.523L412.755 563.238L413.144 562.523L413.859 562.134L413.144 561.745L412.755 561.031Z" fill="black"/>
<path d="M420.453 576.977L420.064 577.692L419.35 578.08L420.064 578.478L420.453 579.193L420.842 578.478L421.557 578.08L420.842 577.692L420.453 576.977Z" fill="black"/>
<path d="M417.405 576.977L417.008 577.692L416.293 578.08L417.008 578.478L417.405 579.193L417.794 578.478L418.509 578.08L417.794 577.692L417.405 576.977Z" fill="black"/>
<path d="M414.303 576.977L413.914 577.692L413.199 578.08L413.914 578.478L414.303 579.193L414.692 578.478L415.415 578.08L414.692 577.692L414.303 576.977Z" fill="black"/>
<path d="M418.898 574.734L418.509 575.457L417.795 575.846L418.509 576.235L418.898 576.95L419.296 576.235L420.011 575.846L419.296 575.457L418.898 574.734Z" fill="black"/>
<path d="M415.85 574.734L415.461 575.457L414.746 575.846L415.461 576.235L415.85 576.95L416.239 576.235L416.953 575.846L416.239 575.457L415.85 574.734Z" fill="black"/>
<path d="M420.453 572.5L420.064 573.214L419.35 573.603L420.064 573.992L420.453 574.707L420.842 573.992L421.557 573.603L420.842 573.214L420.453 572.5Z" fill="black"/>
<path d="M417.405 572.5L417.008 573.214L416.293 573.603L417.008 573.992L417.405 574.707L417.794 573.992L418.509 573.603L417.794 573.214L417.405 572.5Z" fill="black"/>
<path d="M414.303 572.5L413.914 573.214L413.199 573.603L413.914 573.992L414.303 574.707L414.692 573.992L415.415 573.603L414.692 573.214L414.303 572.5Z" fill="black"/>
<path d="M418.898 570.157L418.509 570.881L417.795 571.27L418.509 571.659L418.898 572.373L419.296 571.659L420.011 571.27L419.296 570.881L418.898 570.157Z" fill="black"/>
<path d="M415.85 570.157L415.461 570.881L414.746 571.27L415.461 571.659L415.85 572.373L416.239 571.659L416.953 571.27L416.239 570.881L415.85 570.157Z" fill="black"/>
<path d="M420.453 567.923L420.064 568.638L419.35 569.026L420.064 569.415L420.453 570.13L420.842 569.415L421.557 569.026L420.842 568.638L420.453 567.923Z" fill="black"/>
<path d="M417.405 567.923L417.008 568.638L416.293 569.026L417.008 569.415L417.405 570.13L417.794 569.415L418.509 569.026L417.794 568.638L417.405 567.923Z" fill="black"/>
<path d="M414.303 567.923L413.914 568.638L413.199 569.026L413.914 569.415L414.303 570.13L414.692 569.415L415.415 569.026L414.692 568.638L414.303 567.923Z" fill="black"/>
<path d="M418.898 565.68L418.509 566.394L417.795 566.783L418.509 567.181L418.898 567.896L419.296 567.181L420.011 566.783L419.296 566.394L418.898 565.68Z" fill="black"/>
<path d="M415.85 565.68L415.461 566.394L414.746 566.783L415.461 567.181L415.85 567.896L416.239 567.181L416.953 566.783L416.239 566.394L415.85 565.68Z" fill="black"/>
<path d="M420.453 563.437L420.064 564.16L419.35 564.549L420.064 564.938L420.453 565.653L420.842 564.938L421.557 564.549L420.842 564.16L420.453 563.437Z" fill="black"/>
<path d="M417.405 563.437L417.008 564.16L416.293 564.549L417.008 564.938L417.405 565.653L417.794 564.938L418.509 564.549L417.794 564.16L417.405 563.437Z" fill="black"/>
<path d="M413.796 563.437L413.398 564.16L412.684 564.549L413.398 564.938L413.796 565.653L414.185 564.938L414.9 564.549L414.185 564.16L413.796 563.437Z" fill="black"/>
<path d="M423.592 576.85L423.203 577.565L422.488 577.954L423.203 578.352L423.592 579.066L423.99 578.352L424.704 577.954L423.99 577.565L423.592 576.85Z" fill="black"/>
<path d="M422.045 574.607L421.656 575.322L420.941 575.72L421.656 576.109L422.045 576.823L422.443 576.109L423.157 575.72L422.443 575.322L422.045 574.607Z" fill="black"/>
<path d="M423.592 572.373L423.203 573.088L422.488 573.477L423.203 573.866L423.592 574.58L423.99 573.866L424.704 573.477L423.99 573.088L423.592 572.373Z" fill="black"/>
<path d="M422.045 570.13L421.656 570.844L420.941 571.233L421.656 571.622L422.045 572.346L422.443 571.622L423.157 571.233L422.443 570.844L422.045 570.13Z" fill="black"/>
<path d="M423.592 567.796L423.203 568.511L422.488 568.9L423.203 569.289L423.592 570.003L423.99 569.289L424.704 568.9L423.99 568.511L423.592 567.796Z" fill="black"/>
<path d="M425.146 565.553L424.758 566.268L424.043 566.657L424.758 567.055L425.146 567.769L425.535 567.055L426.25 566.657L425.535 566.268L425.146 565.553Z" fill="black"/>
<path d="M422.045 565.553L421.656 566.268L420.941 566.657L421.656 567.055L422.045 567.769L422.443 567.055L423.157 566.657L422.443 566.268L422.045 565.553Z" fill="black"/>
<path d="M423.592 563.31L423.203 564.025L422.488 564.423L423.203 564.812L423.592 565.526L423.99 564.812L424.704 564.423L423.99 564.025L423.592 563.31Z" fill="black"/>
<path d="M425.146 561.076L424.758 561.791L424.043 562.179L424.758 562.568L425.146 563.283L425.535 562.568L426.25 562.179L425.535 561.791L425.146 561.076Z" fill="black"/>
<path d="M437.99 526.361L438.379 525.647L439.103 525.258L438.379 524.86L437.99 524.145L437.601 524.86L436.887 525.258L437.601 525.647L437.99 526.361Z" fill="black"/>
<path d="M433.342 528.605L433.731 527.89L434.445 527.492L433.731 527.103L433.342 526.389L432.953 527.103L432.238 527.492L432.953 527.89L433.342 528.605Z" fill="black"/>
<path d="M436.445 528.605L436.833 527.89L437.548 527.492L436.833 527.103L436.445 526.389L436.047 527.103L435.332 527.492L436.047 527.89L436.445 528.605Z" fill="black"/>
<path d="M439.98 528.605L440.369 527.89L441.084 527.492L440.369 527.103L439.98 526.389L439.592 527.103L438.877 527.492L439.592 527.89L439.98 528.605Z" fill="black"/>
<path d="M438.426 533.417L438.037 534.131L437.322 534.52L438.037 534.909L438.426 535.623L438.824 534.909L439.538 534.52L438.824 534.131L438.426 533.417Z" fill="black"/>
<path d="M438.426 528.84L438.037 529.554L437.322 529.943L438.037 530.332L438.426 531.047L438.824 530.332L439.538 529.943L438.824 529.554L438.426 528.84Z" fill="black"/>
<path d="M434.889 537.894L434.5 538.608L433.785 538.997L434.5 539.395L434.889 540.11L435.278 539.395L435.992 538.997L435.278 538.608L434.889 537.894Z" fill="black"/>
<path d="M431.841 537.894L431.443 538.608L430.729 538.997L431.443 539.395L431.841 540.11L432.23 539.395L432.945 538.997L432.23 538.608L431.841 537.894Z" fill="black"/>
<path d="M436.445 535.651L436.047 536.365L435.332 536.763L436.047 537.152L436.445 537.867L436.833 537.152L437.548 536.763L436.833 536.365L436.445 535.651Z" fill="black"/>
<path d="M433.387 535.651L432.998 536.365L432.283 536.763L432.998 537.152L433.387 537.867L433.785 537.152L434.499 536.763L433.785 536.365L433.387 535.651Z" fill="black"/>
<path d="M430.294 535.651L429.905 536.365L429.182 536.763L429.905 537.152L430.294 537.867L430.683 537.152L431.398 536.763L430.683 536.365L430.294 535.651Z" fill="black"/>
<path d="M434.889 533.417L434.5 534.131L433.785 534.52L434.5 534.909L434.889 535.623L435.278 534.909L435.992 534.52L435.278 534.131L434.889 533.417Z" fill="black"/>
<path d="M431.841 533.417L431.443 534.131L430.729 534.52L431.443 534.909L431.841 535.623L432.23 534.909L432.945 534.52L432.23 534.131L431.841 533.417Z" fill="black"/>
<path d="M436.445 531.173L436.047 531.888L435.332 532.277L436.047 532.666L436.445 533.389L436.833 532.666L437.548 532.277L436.833 531.888L436.445 531.173Z" fill="black"/>
<path d="M433.387 531.173L432.998 531.888L432.283 532.277L432.998 532.666L433.387 533.389L433.785 532.666L434.499 532.277L433.785 531.888L433.387 531.173Z" fill="black"/>
<path d="M430.294 531.173L429.905 531.888L429.182 532.277L429.905 532.666L430.294 533.389L430.683 532.666L431.398 532.277L430.683 531.888L430.294 531.173Z" fill="black"/>
<path d="M434.889 528.84L434.5 529.554L433.785 529.943L434.5 530.332L434.889 531.047L435.278 530.332L435.992 529.943L435.278 529.554L434.889 528.84Z" fill="black"/>
<path d="M431.841 528.84L431.443 529.554L430.729 529.943L431.443 530.332L431.841 531.047L432.23 530.332L432.945 529.943L432.23 529.554L431.841 528.84Z" fill="black"/>
<path d="M431.841 551.615L431.443 552.33L430.729 552.718L431.443 553.107L431.841 553.822L432.23 553.107L432.945 552.718L432.23 552.33L431.841 551.615Z" fill="black"/>
<path d="M433.387 549.372L432.998 550.086L432.283 550.475L432.998 550.873L433.387 551.588L433.785 550.873L434.499 550.475L433.785 550.086L433.387 549.372Z" fill="black"/>
<path d="M430.294 549.372L429.905 550.086L429.182 550.475L429.905 550.873L430.294 551.588L430.683 550.873L431.398 550.475L430.683 550.086L430.294 549.372Z" fill="black"/>
<path d="M434.889 547.038L434.5 547.753L433.785 548.142L434.5 548.531L434.889 549.245L435.278 548.531L435.992 548.142L435.278 547.753L434.889 547.038Z" fill="black"/>
<path d="M431.841 547.038L431.443 547.753L430.729 548.142L431.443 548.531L431.841 549.245L432.23 548.531L432.945 548.142L432.23 547.753L431.841 547.038Z" fill="black"/>
<path d="M433.387 544.795L432.998 545.51L432.283 545.899L432.998 546.297L433.387 547.011L433.785 546.297L434.499 545.899L433.785 545.51L433.387 544.795Z" fill="black"/>
<path d="M430.294 544.795L429.905 545.51L429.182 545.899L429.905 546.297L430.294 547.011L430.683 546.297L431.398 545.899L430.683 545.51L430.294 544.795Z" fill="black"/>
<path d="M434.889 542.552L434.5 543.266L433.785 543.664L434.5 544.053L434.889 544.768L435.278 544.053L435.992 543.664L435.278 543.266L434.889 542.552Z" fill="black"/>
<path d="M431.841 542.552L431.443 543.266L430.729 543.664L431.443 544.053L431.841 544.768L432.23 544.053L432.945 543.664L432.23 543.266L431.841 542.552Z" fill="black"/>
<path d="M436.445 540.318L436.047 541.032L435.332 541.421L436.047 541.81L436.445 542.525L436.833 541.81L437.548 541.421L436.833 541.032L436.445 540.318Z" fill="black"/>
<path d="M433.387 540.318L432.998 541.032L432.283 541.421L432.998 541.81L433.387 542.525L433.785 541.81L434.499 541.421L433.785 541.032L433.387 540.318Z" fill="black"/>
<path d="M430.294 540.318L429.905 541.032L429.182 541.421L429.905 541.81L430.294 542.525L430.683 541.81L431.398 541.421L430.683 541.032L430.294 540.318Z" fill="black"/>
<path d="M473.439 420.834V474.552C473.439 477.483 471.06 479.861 468.129 479.861H385.811C382.872 479.861 380.502 477.483 380.502 474.552V420.834C380.502 417.75 382.998 415.253 386.074 415.253H467.876C470.951 415.253 473.439 417.75 473.439 420.834Z" fill="#FFDE16" stroke="black" stroke-width="3" stroke-miterlimit="10" stroke-linecap="round" stroke-linejoin="round"/>
<path d="M477.067 424.434V478.161C477.067 481.091 474.688 483.47 471.757 483.47H389.43C387.024 483.47 384.989 481.86 384.338 479.662C384.808 479.798 385.297 479.87 385.812 479.87H468.139C471.07 479.87 473.449 477.492 473.449 474.561V420.834C473.449 420.237 473.358 419.658 473.177 419.116C475.43 419.83 477.067 421.938 477.067 424.434Z" fill="black" stroke="black" stroke-width="3" stroke-miterlimit="10"/>
<path d="M472.733 477.184L472.869 477.446L473.131 477.591L472.869 477.736L472.733 477.998L472.588 477.736L472.326 477.591L472.588 477.446L472.733 477.184Z" fill="black"/>
<path d="M467.081 438.924L467.47 438.209L468.185 437.82L467.47 437.432L467.081 436.717L466.683 437.432L465.969 437.82L466.683 438.209L467.081 438.924Z" fill="black"/>
<path d="M470.129 438.924L470.518 438.209L471.232 437.82L470.518 437.432L470.129 436.717L469.74 437.432L469.025 437.82L469.74 438.209L470.129 438.924Z" fill="black"/>
<path d="M473.223 438.924L473.621 438.209L474.335 437.82L473.621 437.432L473.223 436.717L472.834 437.432L472.119 437.82L472.834 438.209L473.223 438.924Z" fill="black"/>
<path d="M465.525 441.167L465.914 440.453L466.629 440.064L465.914 439.666L465.525 438.951L465.136 439.666L464.422 440.064L465.136 440.453L465.525 441.167Z" fill="black"/>
<path d="M468.574 441.167L468.972 440.453L469.687 440.064L468.972 439.666L468.574 438.951L468.185 439.666L467.471 440.064L468.185 440.453L468.574 441.167Z" fill="black"/>
<path d="M471.677 441.167L472.066 440.453L472.78 440.064L472.066 439.666L471.677 438.951L471.288 439.666L470.564 440.064L471.288 440.453L471.677 441.167Z" fill="black"/>
<path d="M467.081 443.41L467.47 442.687L468.185 442.298L467.47 441.909L467.081 441.194L466.683 441.909L465.969 442.298L466.683 442.687L467.081 443.41Z" fill="black"/>
<path d="M470.129 443.41L470.518 442.687L471.232 442.298L470.518 441.909L470.129 441.194L469.74 441.909L469.025 442.298L469.74 442.687L470.129 443.41Z" fill="black"/>
<path d="M473.223 443.41L473.621 442.687L474.335 442.298L473.621 441.909L473.223 441.194L472.834 441.909L472.119 442.298L472.834 442.687L473.223 443.41Z" fill="black"/>
<path d="M465.525 445.644L465.914 444.93L466.629 444.541L465.914 444.152L465.525 443.437L465.136 444.152L464.422 444.541L465.136 444.93L465.525 445.644Z" fill="black"/>
<path d="M468.574 445.644L468.972 444.93L469.687 444.541L468.972 444.152L468.574 443.437L468.185 444.152L467.471 444.541L468.185 444.93L468.574 445.644Z" fill="black"/>
<path d="M471.677 445.644L472.066 444.93L472.78 444.541L472.066 444.152L471.677 443.437L471.288 444.152L470.564 444.541L471.288 444.93L471.677 445.644Z" fill="black"/>
<path d="M467.081 447.987L467.47 447.263L468.185 446.874L467.47 446.486L467.081 445.771L466.683 446.486L465.969 446.874L466.683 447.263L467.081 447.987Z" fill="black"/>
<path d="M470.129 447.987L470.518 447.263L471.232 446.874L470.518 446.486L470.129 445.771L469.74 446.486L469.025 446.874L469.74 447.263L470.129 447.987Z" fill="black"/>
<path d="M473.223 447.987L473.621 447.263L474.335 446.874L473.621 446.486L473.223 445.771L472.834 446.486L472.119 446.874L472.834 447.263L473.223 447.987Z" fill="black"/>
<path d="M465.525 450.221L465.914 449.507L466.629 449.118L465.914 448.729L465.525 448.014L465.136 448.729L464.422 449.118L465.136 449.507L465.525 450.221Z" fill="black"/>
<path d="M468.574 450.221L468.972 449.507L469.687 449.118L468.972 448.729L468.574 448.014L468.185 448.729L467.471 449.118L468.185 449.507L468.574 450.221Z" fill="black"/>
<path d="M471.677 450.221L472.066 449.507L472.78 449.118L472.066 448.729L471.677 448.014L471.288 448.729L470.564 449.118L471.288 449.507L471.677 450.221Z" fill="black"/>
<path d="M467.081 420.726L467.47 420.011L468.185 419.622L467.47 419.233L467.081 418.51L466.683 419.233L465.969 419.622L466.683 420.011L467.081 420.726Z" fill="black"/>
<path d="M470.129 420.726L470.518 420.011L471.232 419.622L470.518 419.233L470.129 418.51L469.74 419.233L469.025 419.622L469.74 420.011L470.129 420.726Z" fill="black"/>
<path d="M473.223 420.726L473.621 420.011L474.335 419.622L473.621 419.233L473.223 418.51L472.834 419.233L472.119 419.622L472.834 420.011L473.223 420.726Z" fill="black"/>
<path d="M465.525 422.969L465.914 422.254L466.629 421.865L465.914 421.467L465.525 420.753L465.136 421.467L464.422 421.865L465.136 422.254L465.525 422.969Z" fill="black"/>
<path d="M468.574 422.969L468.972 422.254L469.687 421.865L468.972 421.467L468.574 420.753L468.185 421.467L467.471 421.865L468.185 422.254L468.574 422.969Z" fill="black"/>
<path d="M471.677 422.969L472.066 422.254L472.78 421.865L472.066 421.467L471.677 420.753L471.288 421.467L470.564 421.865L471.288 422.254L471.677 422.969Z" fill="black"/>
<path d="M467.081 425.212L467.47 424.488L468.185 424.099L467.47 423.71L467.081 422.996L466.683 423.71L465.969 424.099L466.683 424.488L467.081 425.212Z" fill="black"/>
<path d="M470.129 425.212L470.518 424.488L471.232 424.099L470.518 423.71L470.129 422.996L469.74 423.71L469.025 424.099L469.74 424.488L470.129 425.212Z" fill="black"/>
<path d="M473.223 425.212L473.621 424.488L474.335 424.099L473.621 423.71L473.223 422.996L472.834 423.71L472.119 424.099L472.834 424.488L473.223 425.212Z" fill="black"/>
<path d="M465.525 427.446L465.914 426.731L466.629 426.342L465.914 425.954L465.525 425.239L465.136 425.954L464.422 426.342L465.136 426.731L465.525 427.446Z" fill="black"/>
<path d="M468.574 427.446L468.972 426.731L469.687 426.342L468.972 425.954L468.574 425.239L468.185 425.954L467.471 426.342L468.185 426.731L468.574 427.446Z" fill="black"/>
<path d="M471.677 427.446L472.066 426.731L472.78 426.342L472.066 425.954L471.677 425.239L471.288 425.954L470.564 426.342L471.288 426.731L471.677 427.446Z" fill="black"/>
<path d="M467.081 429.78L467.47 429.065L468.185 428.676L467.47 428.287L467.081 427.573L466.683 428.287L465.969 428.676L466.683 429.065L467.081 429.78Z" fill="black"/>
<path d="M470.129 429.78L470.518 429.065L471.232 428.676L470.518 428.287L470.129 427.573L469.74 428.287L469.025 428.676L469.74 429.065L470.129 429.78Z" fill="black"/>
<path d="M473.223 429.78L473.621 429.065L474.335 428.676L473.621 428.287L473.223 427.573L472.834 428.287L472.119 428.676L472.834 429.065L473.223 429.78Z" fill="black"/>
<path d="M465.525 432.023L465.914 431.308L466.629 430.919L465.914 430.53L465.525 429.816L465.136 430.53L464.422 430.919L465.136 431.308L465.525 432.023Z" fill="black"/>
<path d="M468.574 432.023L468.972 431.308L469.687 430.919L468.972 430.53L468.574 429.816L468.185 430.53L467.471 430.919L468.185 431.308L468.574 432.023Z" fill="black"/>
<path d="M471.677 432.023L472.066 431.308L472.78 430.919L472.066 430.53L471.677 429.816L471.288 430.53L470.564 430.919L471.288 431.308L471.677 432.023Z" fill="black"/>
<path d="M467.081 434.266L467.47 433.551L468.185 433.153L467.47 432.764L467.081 432.05L466.683 432.764L465.969 433.153L466.683 433.551L467.081 434.266Z" fill="black"/>
<path d="M470.129 434.266L470.518 433.551L471.232 433.153L470.518 432.764L470.129 432.05L469.74 432.764L469.025 433.153L469.74 433.551L470.129 434.266Z" fill="black"/>
<path d="M473.223 434.266L473.621 433.551L474.335 433.153L473.621 432.764L473.223 432.05L472.834 432.764L472.119 433.153L472.834 433.551L473.223 434.266Z" fill="black"/>
<path d="M465.525 436.509L465.914 435.785L466.629 435.396L465.914 435.008L465.525 434.293L465.136 435.008L464.422 435.396L465.136 435.785L465.525 436.509Z" fill="black"/>
<path d="M468.574 436.509L468.972 435.785L469.687 435.396L468.972 435.008L468.574 434.293L468.185 435.008L467.471 435.396L468.185 435.785L468.574 436.509Z" fill="black"/>
<path d="M471.677 436.509L472.066 435.785L472.78 435.396L472.066 435.008L471.677 434.293L471.288 435.008L470.564 435.396L471.288 435.785L471.677 436.509Z" fill="black"/>
<path d="M465.525 418.238L465.914 417.524L466.629 417.126L465.914 416.737L465.525 416.022L465.136 416.737L464.422 417.126L465.136 417.524L465.525 418.238Z" fill="black"/>
<path d="M468.574 418.238L468.972 417.524L469.687 417.126L468.972 416.737L468.574 416.022L468.185 416.737L467.471 417.126L468.185 417.524L468.574 418.238Z" fill="black"/>
<path d="M471.677 418.238L472.066 417.524L472.78 417.126L472.066 416.737L471.677 416.022L471.288 416.737L470.564 417.126L471.288 417.524L471.677 418.238Z" fill="black"/>
<path d="M470.121 459.51L469.732 460.234L469.018 460.623L469.732 461.012L470.121 461.726L470.51 461.012L471.234 460.623L470.51 460.234L470.121 459.51Z" fill="black"/>
<path d="M467.072 459.51L466.683 460.234L465.969 460.623L466.683 461.012L467.072 461.726L467.461 461.012L468.176 460.623L467.461 460.234L467.072 459.51Z" fill="black"/>
<path d="M471.677 457.276L471.288 457.991L470.564 458.38L471.288 458.769L471.677 459.483L472.066 458.769L472.78 458.38L472.066 457.991L471.677 457.276Z" fill="black"/>
<path d="M468.628 457.276L468.23 457.991L467.516 458.38L468.23 458.769L468.628 459.483L469.017 458.769L469.732 458.38L469.017 457.991L468.628 457.276Z" fill="black"/>
<path d="M465.525 457.276L465.136 457.991L464.422 458.38L465.136 458.769L465.525 459.483L465.914 458.769L466.629 458.38L465.914 457.991L465.525 457.276Z" fill="black"/>
<path d="M470.121 455.033L469.732 455.748L469.018 456.137L469.732 456.535L470.121 457.249L470.51 456.535L471.234 456.137L470.51 455.748L470.121 455.033Z" fill="black"/>
<path d="M467.072 455.033L466.683 455.748L465.969 456.137L466.683 456.535L467.072 457.249L467.461 456.535L468.176 456.137L467.461 455.748L467.072 455.033Z" fill="black"/>
<path d="M471.677 452.79L471.288 453.504L470.564 453.902L471.288 454.291L471.677 455.006L472.066 454.291L472.78 453.902L472.066 453.504L471.677 452.79Z" fill="black"/>
<path d="M468.628 452.79L468.23 453.504L467.516 453.902L468.23 454.291L468.628 455.006L469.017 454.291L469.732 453.902L469.017 453.504L468.628 452.79Z" fill="black"/>
<path d="M465.525 452.79L465.136 453.504L464.422 453.902L465.136 454.291L465.525 455.006L465.914 454.291L466.629 453.902L465.914 453.504L465.525 452.79Z" fill="black"/>
<path d="M470.121 450.456L469.732 451.171L469.018 451.56L469.732 451.958L470.121 452.672L470.51 451.958L471.234 451.56L470.51 451.171L470.121 450.456Z" fill="black"/>
<path d="M467.072 450.456L466.683 451.171L465.969 451.56L466.683 451.958L467.072 452.672L467.461 451.958L468.176 451.56L467.461 451.171L467.072 450.456Z" fill="black"/>
<path d="M470.121 477.709L469.732 478.432L469.018 478.821L469.732 479.21L470.121 479.925L470.51 479.21L471.234 478.821L470.51 478.432L470.121 477.709Z" fill="black"/>
<path d="M467.072 477.709L466.683 478.432L465.969 478.821L466.683 479.21L467.072 479.925L467.461 479.21L468.176 478.821L467.461 478.432L467.072 477.709Z" fill="black"/>
<path d="M471.677 475.475L471.288 476.189L470.564 476.578L471.288 476.967L471.677 477.682L472.066 476.967L472.78 476.578L472.066 476.189L471.677 475.475Z" fill="black"/>
<path d="M468.628 475.475L468.23 476.189L467.516 476.578L468.23 476.967L468.628 477.682L469.017 476.967L469.732 476.578L469.017 476.189L468.628 475.475Z" fill="black"/>
<path d="M465.525 475.475L465.136 476.189L464.422 476.578L465.136 476.967L465.525 477.682L465.914 476.967L466.629 476.578L465.914 476.189L465.525 475.475Z" fill="black"/>
<path d="M470.121 473.231L469.732 473.946L469.018 474.335L469.732 474.733L470.121 475.447L470.51 474.733L471.234 474.335L470.51 473.946L470.121 473.231Z" fill="black"/>
<path d="M467.072 473.231L466.683 473.946L465.969 474.335L466.683 474.733L467.072 475.447L467.461 474.733L468.176 474.335L467.461 473.946L467.072 473.231Z" fill="black"/>
<path d="M471.677 470.988L471.288 471.703L470.564 472.101L471.288 472.49L471.677 473.204L472.066 472.49L472.78 472.101L472.066 471.703L471.677 470.988Z" fill="black"/>
<path d="M468.628 470.988L468.23 471.703L467.516 472.101L468.23 472.49L468.628 473.204L469.017 472.49L469.732 472.101L469.017 471.703L468.628 470.988Z" fill="black"/>
<path d="M465.525 470.988L465.136 471.703L464.422 472.101L465.136 472.49L465.525 473.204L465.914 472.49L466.629 472.101L465.914 471.703L465.525 470.988Z" fill="black"/>
<path d="M470.121 468.655L469.732 469.369L469.018 469.767L469.732 470.156L470.121 470.871L470.51 470.156L471.234 469.767L470.51 469.369L470.121 468.655Z" fill="black"/>
<path d="M467.072 468.655L466.683 469.369L465.969 469.767L466.683 470.156L467.072 470.871L467.461 470.156L468.176 469.767L467.461 469.369L467.072 468.655Z" fill="black"/>
<path d="M471.677 466.412L471.288 467.135L470.564 467.524L471.288 467.913L471.677 468.628L472.066 467.913L472.78 467.524L472.066 467.135L471.677 466.412Z" fill="black"/>
<path d="M468.628 466.412L468.23 467.135L467.516 467.524L468.23 467.913L468.628 468.628L469.017 467.913L469.732 467.524L469.017 467.135L468.628 466.412Z" fill="black"/>
<path d="M465.525 466.412L465.136 467.135L464.422 467.524L465.136 467.913L465.525 468.628L465.914 467.913L466.629 467.524L465.914 467.135L465.525 466.412Z" fill="black"/>
<path d="M470.121 464.177L469.732 464.892L469.018 465.281L469.732 465.67L470.121 466.393L470.51 465.67L471.234 465.281L470.51 464.892L470.121 464.177Z" fill="black"/>
<path d="M467.072 464.177L466.683 464.892L465.969 465.281L466.683 465.67L467.072 466.393L467.461 465.67L468.176 465.281L467.461 464.892L467.072 464.177Z" fill="black"/>
<path d="M471.677 461.934L471.288 462.649L470.564 463.038L471.288 463.436L471.677 464.15L472.066 463.436L472.78 463.038L472.066 462.649L471.677 461.934Z" fill="black"/>
<path d="M468.628 461.934L468.23 462.649L467.516 463.038L468.23 463.436L468.628 464.15L469.017 463.436L469.732 463.038L469.017 462.649L468.628 461.934Z" fill="black"/>
<path d="M465.525 461.934L465.136 462.649L464.422 463.038L465.136 463.436L465.525 464.15L465.914 463.436L466.629 463.038L465.914 462.649L465.525 461.934Z" fill="black"/>
<path d="M471.677 480.205L471.288 480.92L470.564 481.309L471.288 481.698L471.677 482.412L472.066 481.698L472.78 481.309L472.066 480.92L471.677 480.205Z" fill="black"/>
<path d="M468.628 480.205L468.23 480.92L467.516 481.309L468.23 481.698L468.628 482.412L469.017 481.698L469.732 481.309L469.017 480.92L468.628 480.205Z" fill="black"/>
<path d="M465.525 480.205L465.136 480.92L464.422 481.309L465.136 481.698L465.525 482.412L465.914 481.698L466.629 481.309L465.914 480.92L465.525 480.205Z" fill="black"/>
<path d="M397.435 405.349C393.284 403.459 387.929 406.254 385.342 411.608C382.746 406.263 377.401 403.459 373.249 405.349C369.016 407.276 367.641 413.345 370.174 418.898C372.697 424.461 380.358 431.896 385.342 433.253C391.873 429.879 397.987 424.452 400.519 418.898C403.052 413.345 401.668 407.285 397.435 405.349Z" fill="#FF6CE0" stroke="black" stroke-width="3" stroke-miterlimit="10" stroke-linecap="round" stroke-linejoin="round"/>
<path d="M394.35 424.624L394.748 423.909L395.462 423.52L394.748 423.132L394.35 422.417L393.961 423.132L393.246 423.52L393.961 423.909L394.35 424.624Z" fill="black"/>
<path d="M397.452 424.624L397.841 423.909L398.556 423.52L397.841 423.132L397.452 422.417L397.063 423.132L396.34 423.52L397.063 423.909L397.452 424.624Z" fill="black"/>
<path d="M392.804 426.867L393.193 426.153L393.907 425.764L393.193 425.366L392.804 424.651L392.406 425.366L391.691 425.764L392.406 426.153L392.804 426.867Z" fill="black"/>
<path d="M395.896 426.867L396.285 426.153L397.009 425.764L396.285 425.366L395.896 424.651L395.508 425.366L394.793 425.764L395.508 426.153L395.896 426.867Z" fill="black"/>
<path d="M391.301 429.11L391.69 428.396L392.404 427.998L391.69 427.609L391.301 426.894L390.912 427.609L390.197 427.998L390.912 428.396L391.301 429.11Z" fill="black"/>
<path d="M389.746 431.344L390.144 430.63L390.859 430.241L390.144 429.852L389.746 429.137L389.357 429.852L388.643 430.241L389.357 430.63L389.746 431.344Z" fill="black"/>
<path d="M391.301 406.426L391.69 405.711L392.404 405.322L391.69 404.933L391.301 404.219L390.912 404.933L390.197 405.322L390.912 405.711L391.301 406.426Z" fill="black"/>
<path d="M394.35 406.426L394.748 405.711L395.462 405.322L394.748 404.933L394.35 404.219L393.961 404.933L393.246 405.322L393.961 405.711L394.35 406.426Z" fill="black"/>
<path d="M397.452 406.426L397.841 405.711L398.556 405.322L397.841 404.933L397.452 404.219L397.063 404.933L396.34 405.322L397.063 405.711L397.452 406.426Z" fill="black"/>
<path d="M389.746 408.669L390.144 407.954L390.859 407.565L390.144 407.167L389.746 406.453L389.357 407.167L388.643 407.565L389.357 407.954L389.746 408.669Z" fill="black"/>
<path d="M392.804 408.669L393.193 407.954L393.907 407.565L393.193 407.167L392.804 406.453L392.406 407.167L391.691 407.565L392.406 407.954L392.804 408.669Z" fill="black"/>
<path d="M395.896 408.669L396.285 407.954L397.009 407.565L396.285 407.167L395.896 406.453L395.508 407.167L394.793 407.565L395.508 407.954L395.896 408.669Z" fill="black"/>
<path d="M391.301 410.912L391.69 410.197L392.404 409.799L391.69 409.41L391.301 408.696L390.912 409.41L390.197 409.799L390.912 410.197L391.301 410.912Z" fill="black"/>
<path d="M394.35 410.912L394.748 410.197L395.462 409.799L394.748 409.41L394.35 408.696L393.961 409.41L393.246 409.799L393.961 410.197L394.35 410.912Z" fill="black"/>
<path d="M397.452 410.912L397.841 410.197L398.556 409.799L397.841 409.41L397.452 408.696L397.063 409.41L396.34 409.799L397.063 410.197L397.452 410.912Z" fill="black"/>
<path d="M395.896 413.146L396.285 412.431L397.009 412.042L396.285 411.653L395.896 410.939L395.508 411.653L394.793 412.042L395.508 412.431L395.896 413.146Z" fill="black"/>
<path d="M397.452 415.489L397.841 414.765L398.556 414.376L397.841 413.987L397.452 413.273L397.063 413.987L396.34 414.376L397.063 414.765L397.452 415.489Z" fill="black"/>
<path d="M395.896 417.723L396.285 417.008L397.009 416.619L396.285 416.23L395.896 415.516L395.508 416.23L394.793 416.619L395.508 417.008L395.896 417.723Z" fill="black"/>
<path d="M397.452 419.966L397.841 419.251L398.556 418.862L397.841 418.464L397.452 417.75L397.063 418.464L396.34 418.862L397.063 419.251L397.452 419.966Z" fill="black"/>
<path d="M395.896 422.209L396.285 421.494L397.009 421.096L396.285 420.707L395.896 419.993L395.508 420.707L394.793 421.096L395.508 421.494L395.896 422.209Z" fill="black"/>
<path d="M399.443 408.669L399.832 407.954L400.546 407.565L399.832 407.167L399.443 406.453L399.045 407.167L398.33 407.565L399.045 407.954L399.443 408.669Z" fill="black"/>
<path d="M400.988 410.912L401.377 410.197L402.101 409.799L401.377 409.41L400.988 408.696L400.599 409.41L399.885 409.799L400.599 410.197L400.988 410.912Z" fill="black"/>
<path d="M399.443 413.146L399.832 412.431L400.546 412.042L399.832 411.653L399.443 410.939L399.045 411.653L398.33 412.042L399.045 412.431L399.443 413.146Z" fill="black"/>
<path d="M400.988 415.489L401.377 414.765L402.101 414.376L401.377 413.987L400.988 413.273L400.599 413.987L399.885 414.376L400.599 414.765L400.988 415.489Z" fill="black"/>
<path d="M399.443 417.723L399.832 417.008L400.546 416.619L399.832 416.23L399.443 415.516L399.045 416.23L398.33 416.619L399.045 417.008L399.443 417.723Z" fill="black"/>
<path d="M400.988 419.966L401.377 419.251L400.988 419.116L401.377 418.464L400.988 417.75L400.599 418.464L399.885 418.862L400.599 419.251L400.988 419.966Z" fill="black"/>
<path d="M399.443 422.209L399.832 421.494L400.546 421.096L399.832 420.707L399.443 419.993L399.045 420.707L398.33 421.096L399.045 421.494L399.443 422.209Z" fill="black"/>
<path d="M470.97 568.466H463.119V514.748L467.045 505.992L470.97 514.748V568.466Z" fill="#25AAE1" stroke="black" stroke-width="3" stroke-miterlimit="10" stroke-linecap="round" stroke-linejoin="round"/>
<path d="M468.347 566.204L460.822 568.457L445.418 517.009L446.169 507.268L452.934 514.757L468.347 566.204Z" fill="#FFDE16" stroke="black" stroke-width="3" stroke-miterlimit="10" stroke-linecap="round" stroke-linejoin="round"/>
<path d="M471.186 579.546H450.093C447.932 579.546 446.168 577.782 446.168 575.62V548.992C446.168 548.314 446.729 547.753 447.407 547.753H473.864C474.542 547.753 475.103 548.314 475.103 548.992V575.62C475.112 577.782 473.339 579.546 471.186 579.546Z" fill="#FF6CE0" stroke="black" stroke-width="3" stroke-miterlimit="10" stroke-linecap="round" stroke-linejoin="round"/>
<path d="M472.933 557.304L472.535 558.019L471.82 558.408L472.535 558.797L472.933 559.511L473.322 558.797L474.036 558.408L473.322 558.019L472.933 557.304Z" fill="black"/>
<path d="M469.875 557.304L469.486 558.019L468.771 558.408L469.486 558.797L469.875 559.511L470.273 558.797L470.987 558.408L470.273 558.019L469.875 557.304Z" fill="black"/>
<path d="M474.478 555.061L474.09 555.776L473.375 556.165L474.09 556.563L474.478 557.277L474.876 556.563L475.591 556.165L474.876 555.776L474.478 555.061Z" fill="black"/>
<path d="M471.43 555.061L471.041 555.776L470.326 556.165L471.041 556.563L471.43 557.277L471.819 556.563L472.533 556.165L471.819 555.776L471.43 555.061Z" fill="black"/>
<path d="M468.328 555.061L467.939 555.776L467.225 556.165L467.939 556.563L468.328 557.277L468.726 556.563L469.441 556.165L468.726 555.776L468.328 555.061Z" fill="black"/>
<path d="M472.933 552.818L472.535 553.542L471.82 553.93L472.535 554.319L472.933 555.034L473.322 554.319L474.036 553.93L473.322 553.542L472.933 552.818Z" fill="black"/>
<path d="M469.875 552.818L469.486 553.542L468.771 553.93L469.486 554.319L469.875 555.034L470.273 554.319L470.987 553.93L470.273 553.542L469.875 552.818Z" fill="black"/>
<path d="M474.478 550.584L474.09 551.298L473.375 551.687L474.09 552.076L474.478 552.791L474.876 552.076L475.591 551.687L474.876 551.298L474.478 550.584Z" fill="black"/>
<path d="M471.43 550.584L471.041 551.298L470.326 551.687L471.041 552.076L471.43 552.791L471.819 552.076L472.533 551.687L471.819 551.298L471.43 550.584Z" fill="black"/>
<path d="M468.328 550.584L467.939 551.298L467.225 551.687L467.939 552.076L468.328 552.791L468.726 552.076L469.441 551.687L468.726 551.298L468.328 550.584Z" fill="black"/>
<path d="M472.933 548.241L472.535 548.965L471.82 549.354L472.535 549.743L472.933 550.457L473.322 549.743L474.036 549.354L473.322 548.965L472.933 548.241Z" fill="black"/>
<path d="M469.875 548.241L469.486 548.965L468.771 549.354L469.486 549.743L469.875 550.457L470.273 549.743L470.987 549.354L470.273 548.965L469.875 548.241Z" fill="black"/>
<path d="M472.933 575.503L472.535 576.217L471.82 576.606L472.535 576.995L472.933 577.719L473.322 576.995L474.036 576.606L473.322 576.217L472.933 575.503Z" fill="black"/>
<path d="M469.875 575.503L469.486 576.217L468.771 576.606L469.486 576.995L469.875 577.719L470.273 576.995L470.987 576.606L470.273 576.217L469.875 575.503Z" fill="black"/>
<path d="M474.478 573.26L474.09 573.974L473.375 574.363L474.09 574.761L474.478 575.476L474.876 574.761L475.591 574.363L474.876 573.974L474.478 573.26Z" fill="black"/>
<path d="M471.43 573.26L471.041 573.974L470.326 574.363L471.041 574.761L471.43 575.476L471.819 574.761L472.533 574.363L471.819 573.974L471.43 573.26Z" fill="black"/>
<path d="M468.328 573.26L467.939 573.974L467.225 574.363L467.939 574.761L468.328 575.476L468.726 574.761L469.441 574.363L468.726 573.974L468.328 573.26Z" fill="black"/>
<path d="M472.933 571.016L472.535 571.74L471.82 572.129L472.535 572.518L472.933 573.232L473.322 572.518L474.036 572.129L473.322 571.74L472.933 571.016Z" fill="black"/>
<path d="M469.875 571.016L469.486 571.74L468.771 572.129L469.486 572.518L469.875 573.232L470.273 572.518L470.987 572.129L470.273 571.74L469.875 571.016Z" fill="black"/>
<path d="M474.478 568.782L474.09 569.497L473.375 569.886L474.09 570.275L474.478 570.989L474.876 570.275L475.591 569.886L474.876 569.497L474.478 568.782Z" fill="black"/>
<path d="M471.43 568.782L471.041 569.497L470.326 569.886L471.041 570.275L471.43 570.989L471.819 570.275L472.533 569.886L471.819 569.497L471.43 568.782Z" fill="black"/>
<path d="M468.328 568.782L467.939 569.497L467.225 569.886L467.939 570.275L468.328 570.989L468.726 570.275L469.441 569.886L468.726 569.497L468.328 568.782Z" fill="black"/>
<path d="M472.933 566.449L472.535 567.163L471.82 567.552L472.535 567.941L472.933 568.656L473.322 567.941L474.036 567.552L473.322 567.163L472.933 566.449Z" fill="black"/>
<path d="M469.875 566.449L469.486 567.163L468.771 567.552L469.486 567.941L469.875 568.656L470.273 567.941L470.987 567.552L470.273 567.163L469.875 566.449Z" fill="black"/>
<path d="M474.478 564.206L474.09 564.92L473.375 565.309L474.09 565.698L474.478 566.412L474.876 565.698L475.591 565.309L474.876 564.92L474.478 564.206Z" fill="black"/>
<path d="M471.43 564.206L471.041 564.92L470.326 565.309L471.041 565.698L471.43 566.412L471.819 565.698L472.533 565.309L471.819 564.92L471.43 564.206Z" fill="black"/>
<path d="M468.328 564.206L467.939 564.92L467.225 565.309L467.939 565.698L468.328 566.412L468.726 565.698L469.441 565.309L468.726 564.92L468.328 564.206Z" fill="black"/>
<path d="M472.933 561.962L472.535 562.677L471.82 563.075L472.535 563.464L472.933 564.178L473.322 563.464L474.036 563.075L473.322 562.677L472.933 561.962Z" fill="black"/>
<path d="M469.875 561.962L469.486 562.677L468.771 563.075L469.486 563.464L469.875 564.178L470.273 563.464L470.987 563.075L470.273 562.677L469.875 561.962Z" fill="black"/>
<path d="M474.478 559.719L474.09 560.443L473.375 560.832L474.09 561.221L474.478 561.935L474.876 561.221L475.591 560.832L474.876 560.443L474.478 559.719Z" fill="black"/>
<path d="M471.43 559.719L471.041 560.443L470.326 560.832L471.041 561.221L471.43 561.935L471.819 561.221L472.533 560.832L471.819 560.443L471.43 559.719Z" fill="black"/>
<path d="M468.328 559.719L467.939 560.443L467.225 560.832L467.939 561.221L468.328 561.935L468.726 561.221L469.441 560.832L468.726 560.443L468.328 559.719Z" fill="black"/>
<path d="M471.43 577.99L471.041 578.705L470.326 579.094L471.041 579.491L471.43 580.206L471.819 579.491L472.533 579.094L471.819 578.705L471.43 577.99Z" fill="black"/>
<path d="M468.328 577.99L467.939 578.705L467.225 579.094L467.939 579.491L468.328 580.206L468.726 579.491L469.441 579.094L468.726 578.705L468.328 577.99Z" fill="black"/>
<path d="M394.441 459.366C393.862 458.787 393.572 458.009 393.572 457.014V438.101C393.572 437.133 393.862 436.364 394.441 435.785C395.019 435.207 395.797 434.917 396.792 434.917C397.805 434.917 398.61 435.207 399.198 435.785C399.786 436.364 400.085 437.133 400.085 438.101V457.023C400.085 458.009 399.786 458.796 399.198 459.375C398.61 459.953 397.805 460.243 396.792 460.243C395.797 460.234 395.01 459.944 394.441 459.366Z" fill="black"/>
<path d="M411.128 459.329C410.531 458.75 410.223 457.982 410.223 457.014V440.362H405.239C404.199 440.362 403.43 440.145 402.924 439.711C402.417 439.277 402.164 438.607 402.164 437.712C402.164 436.817 402.417 436.156 402.924 435.731C403.43 435.306 404.199 435.098 405.239 435.098H421.783C422.823 435.098 423.592 435.315 424.098 435.731C424.605 436.156 424.858 436.817 424.858 437.712C424.858 438.607 424.605 439.277 424.098 439.711C423.592 440.145 422.823 440.362 421.783 440.362H416.799V457.014C416.799 457.982 416.5 458.75 415.894 459.329C415.297 459.908 414.501 460.198 413.506 460.198C412.521 460.198 411.725 459.908 411.128 459.329Z" fill="black"/>
<path d="M427.816 459.366C427.237 458.787 426.947 458.009 426.947 457.014V438.101C426.947 437.133 427.237 436.364 427.816 435.785C428.394 435.207 429.172 434.917 430.167 434.917C431.18 434.917 431.985 435.207 432.573 435.785C433.161 436.364 433.46 437.133 433.46 438.101V457.023C433.46 458.009 433.161 458.796 432.573 459.375C431.985 459.953 431.18 460.243 430.167 460.243C429.172 460.234 428.394 459.944 427.816 459.366Z" fill="black"/>
<path d="M443.192 458.769C441.32 457.719 439.872 456.236 438.859 454.309C437.846 452.392 437.34 450.131 437.34 447.535C437.34 444.939 437.846 442.687 438.859 440.76C439.872 438.843 441.32 437.359 443.192 436.319C445.064 435.279 447.271 434.763 449.822 434.763C452.363 434.763 454.58 435.288 456.452 436.319C458.324 437.359 459.762 438.834 460.766 440.76C461.77 442.678 462.268 444.939 462.268 447.535C462.268 450.131 461.761 452.383 460.748 454.309C459.735 456.227 458.288 457.719 456.416 458.769C454.543 459.818 452.345 460.342 449.822 460.342C447.28 460.342 445.064 459.818 443.192 458.769ZM454.245 453.36C455.303 452.03 455.837 450.085 455.837 447.544C455.837 445.002 455.303 443.067 454.227 441.746C453.15 440.425 451.685 439.765 449.822 439.765C447.931 439.765 446.466 440.416 445.399 441.728C444.341 443.039 443.807 444.975 443.807 447.544C443.807 450.113 444.341 452.057 445.399 453.378C446.457 454.698 447.931 455.359 449.822 455.359C451.712 455.359 453.187 454.689 454.245 453.36Z" fill="black"/>
</g>
<g clip-path="url(#clip1)">
<path d="M35.4062 69.4567C35.4062 69.4567 36.6287 66.2132 36.5165 58.5271" stroke="black" stroke-width="3" stroke-miterlimit="10" stroke-linecap="round" stroke-linejoin="round"/>
<path d="M35.8678 66.251C35.8678 66.251 45.286 61.3794 37.1277 48.1149C37.1277 48.1149 27.8842 54.2234 35.8678 66.251Z" fill="#00D384" stroke="black" stroke-width="3" stroke-miterlimit="10" stroke-linecap="round" stroke-linejoin="round"/>
<path d="M23.9802 49.4653C28.209 52.9361 28.8452 59.2212 25.4148 63.4997C21.9843 67.7782 15.7721 68.4218 11.5433 64.9511C7.31447 61.4804 2.1875 44.4044 2.1875 44.4044C2.1875 44.4044 19.7514 45.9946 23.9802 49.4653Z" fill="#00D384" stroke="black" stroke-width="3" stroke-miterlimit="10" stroke-linecap="round" stroke-linejoin="round"/>
<path d="M13.8887 55.2331C13.8887 55.2331 22.5584 56.9243 25.415 63.4871" stroke="black" stroke-width="3" stroke-miterlimit="10" stroke-linecap="round" stroke-linejoin="round"/>
<path d="M53.6193 72.3974C53.6193 72.3974 40.3091 77.2438 25.1777 62.9191" stroke="black" stroke-width="3" stroke-miterlimit="10" stroke-linecap="round" stroke-linejoin="round"/>
</g>
<defs>
<clipPath id="clip0">
<rect width="110.882" height="177.498" fill="white" transform="translate(367.541 403.404)"/>
</clipPath>
<clipPath id="clip1">
<rect width="55.1742" height="32.5618" fill="white" transform="translate(0.316406 42.5112)"/>
</clipPath>
</defs>
</svg>
