<svg width="742" height="712" viewBox="0 0 742 712" fill="none" xmlns="http://www.w3.org/2000/svg">
<path d="M82.5 64C82.5 43.2893 99.2893 26.5 120 26.5H543C569.786 26.5 591.5 48.2142 591.5 75V673C591.5 693.711 574.711 710.5 554 710.5H120C99.2893 710.5 82.5 693.711 82.5 673V64Z" fill="black" stroke="black" stroke-width="3"/>
<path d="M59.5 39C59.5 18.2893 76.2893 1.5 97 1.5H520C546.786 1.5 568.5 23.2142 568.5 50V648C568.5 668.711 551.711 685.5 531 685.5H97C76.2893 685.5 59.5 668.711 59.5 648V39Z" fill="white" stroke="black" stroke-width="3"/>
<g clip-path="url(#clip0)">
<path d="M663.48 656.86C666.5 660.64 666.59 671.17 666.44 676.38C666.39 677.98 664.93 679.15 663.36 678.84C658.25 677.83 648.01 675.39 644.99 671.61C641.81 667.63 638.18 651.52 636.73 644.63C636.45 643.31 637.8 642.24 639.02 642.8C645.41 645.74 660.3 652.87 663.48 656.86Z" fill="#08B56E" stroke="black" stroke-width="3" stroke-miterlimit="10" stroke-linecap="round" stroke-linejoin="round"/>
<path d="M673.02 656.86C670 660.64 669.91 671.17 670.06 676.38C670.11 677.98 671.57 679.15 673.14 678.84C678.25 677.83 688.49 675.39 691.51 671.61C694.69 667.63 698.32 651.52 699.77 644.63C700.05 643.31 698.7 642.24 697.48 642.8C691.08 645.74 676.19 652.87 673.02 656.86Z" fill="#08B56E" stroke="black" stroke-width="3" stroke-miterlimit="10" stroke-linecap="round" stroke-linejoin="round"/>
<path d="M684.909 651.37C684.909 658.19 675.769 669.87 671.019 675.47C669.559 677.19 666.919 677.19 665.459 675.47C660.719 669.87 651.569 658.19 651.569 651.37C651.569 644.19 661.709 623.25 666.169 614.39C667.019 612.69 669.439 612.69 670.299 614.39C674.769 623.25 684.909 644.19 684.909 651.37Z" fill="#08B56E" stroke="black" stroke-width="3" stroke-miterlimit="10" stroke-linecap="round" stroke-linejoin="round"/>
<path d="M680.92 702.16H655.82L650.87 675.69H685.62L680.92 702.16Z" fill="#25AAE1" stroke="black" stroke-width="3" stroke-miterlimit="10" stroke-linecap="round" stroke-linejoin="round"/>
<path d="M674.07 636.63L674.51 635.84L675.3 635.41L674.51 634.97L674.07 634.18L673.64 634.97L672.85 635.41L673.64 635.84L674.07 636.63Z" fill="black"/>
<path d="M677.499 636.63L677.929 635.84L678.719 635.41L677.929 634.97L677.499 634.18L677.069 634.97L676.279 635.41L677.069 635.84L677.499 636.63Z" fill="black"/>
<path d="M672.36 639.11L672.79 638.32L673.58 637.88L672.79 637.45L672.36 636.66L671.93 637.45L671.13 637.88L671.93 638.32L672.36 639.11Z" fill="black"/>
<path d="M675.78 639.11L676.22 638.32L677.01 637.88L676.22 637.45L675.78 636.66L675.35 637.45L674.56 637.88L675.35 638.32L675.78 639.11Z" fill="black"/>
<path d="M674.07 641.58L674.51 640.79L675.3 640.36L674.51 639.93L674.07 639.14L673.64 639.93L672.85 640.36L673.64 640.79L674.07 641.58Z" fill="black"/>
<path d="M677.499 641.58L677.929 640.79L678.719 640.36L677.929 639.93L677.499 639.14L677.069 639.93L676.279 640.36L677.069 640.79L677.499 641.58Z" fill="black"/>
<path d="M672.36 644.06L672.79 643.27L673.58 642.84L672.79 642.41L672.36 641.61L671.93 642.41L671.13 642.84L671.93 643.27L672.36 644.06Z" fill="black"/>
<path d="M675.78 644.06L676.22 643.27L677.01 642.84L676.22 642.41L675.78 641.61L675.35 642.41L674.56 642.84L675.35 643.27L675.78 644.06Z" fill="black"/>
<path d="M670.699 646.64L671.129 645.85L671.929 645.42L671.129 644.99L670.699 644.2L670.269 644.99L669.479 645.42L670.269 645.85L670.699 646.64Z" fill="black"/>
<path d="M674.07 646.64L674.51 645.85L675.3 645.42L674.51 644.99L674.07 644.2L673.64 644.99L672.85 645.42L673.64 645.85L674.07 646.64Z" fill="black"/>
<path d="M677.499 646.64L677.929 645.85L678.719 645.42L677.929 644.99L677.499 644.2L677.069 644.99L676.279 645.42L677.069 645.85L677.499 646.64Z" fill="black"/>
<path d="M668.99 649.12L669.42 648.33L670.21 647.9L669.42 647.46L668.99 646.67L668.55 647.46L667.76 647.9L668.55 648.33L668.99 649.12Z" fill="black"/>
<path d="M672.36 649.12L672.79 648.33L673.58 647.9L672.79 647.46L672.36 646.67L671.93 647.46L671.13 647.9L671.93 648.33L672.36 649.12Z" fill="black"/>
<path d="M675.78 649.12L676.22 648.33L677.01 647.9L676.22 647.46L675.78 646.67L675.35 647.46L674.56 647.9L675.35 648.33L675.78 649.12Z" fill="black"/>
<path d="M670.699 616.51L671.129 615.72L671.929 615.29L671.129 614.85L670.699 614.06L670.269 614.85L669.479 615.29L670.269 615.72L670.699 616.51Z" fill="black"/>
<path d="M668.99 618.99L669.42 618.2L670.21 617.76L669.42 617.33L668.99 616.54L668.55 617.33L667.76 617.76L668.55 618.2L668.99 618.99Z" fill="black"/>
<path d="M672.36 618.99L672.79 618.2L673.58 617.76L672.79 617.33L672.36 616.54L671.93 617.33L671.13 617.76L671.93 618.2L672.36 618.99Z" fill="black"/>
<path d="M670.699 621.46L671.129 620.67L671.929 620.24L671.129 619.81L670.699 619.02L670.269 619.81L669.479 620.24L670.269 620.67L670.699 621.46Z" fill="black"/>
<path d="M668.99 623.94L669.42 623.15L670.21 622.72L669.42 622.29L668.99 621.49L668.55 622.29L667.76 622.72L668.55 623.15L668.99 623.94Z" fill="black"/>
<path d="M672.36 623.94L672.79 623.15L673.58 622.72L672.79 622.29L672.36 621.49L671.93 622.29L671.13 622.72L671.93 623.15L672.36 623.94Z" fill="black"/>
<path d="M670.699 626.52L671.129 625.73L671.929 625.3L671.129 624.87L670.699 624.08L670.269 624.87L669.479 625.3L670.269 625.73L670.699 626.52Z" fill="black"/>
<path d="M674.07 626.52L674.51 625.73L675.3 625.3L674.51 624.87L674.07 624.08L673.64 624.87L672.85 625.3L673.64 625.73L674.07 626.52Z" fill="black"/>
<path d="M668.99 629L669.42 628.21L670.21 627.78L669.42 627.34L668.99 626.55L668.55 627.34L667.76 627.78L668.55 628.21L668.99 629Z" fill="black"/>
<path d="M672.36 629L672.79 628.21L673.58 627.78L672.79 627.34L672.36 626.55L671.93 627.34L671.13 627.78L671.93 628.21L672.36 629Z" fill="black"/>
<path d="M675.78 629L676.22 628.21L677.01 627.78L676.22 627.34L675.78 626.55L675.35 627.34L674.56 627.78L675.35 628.21L675.78 629Z" fill="black"/>
<path d="M670.699 631.48L671.129 630.69L671.929 630.25L671.129 629.82L670.699 629.03L670.269 629.82L669.479 630.25L670.269 630.69L670.699 631.48Z" fill="black"/>
<path d="M674.07 631.48L674.51 630.69L675.3 630.25L674.51 629.82L674.07 629.03L673.64 629.82L672.85 630.25L673.64 630.69L674.07 631.48Z" fill="black"/>
<path d="M677.499 631.48L677.929 630.69L678.719 630.25L677.929 629.82L677.499 629.03L677.069 629.82L676.279 630.25L677.069 630.69L677.499 631.48Z" fill="black"/>
<path d="M672.36 633.95L672.79 633.16L673.58 632.73L672.79 632.3L672.36 631.51L671.93 632.3L671.13 632.73L671.93 633.16L672.36 633.95Z" fill="black"/>
<path d="M675.78 633.95L676.22 633.16L677.01 632.73L676.22 632.3L675.78 631.51L675.35 632.3L674.56 632.73L675.35 633.16L675.78 633.95Z" fill="black"/>
<path d="M668.99 613.76L669.42 612.97L670.21 612.53L669.42 612.1V612.97L668.55 612.1L667.76 612.53L668.55 612.97L668.99 613.76Z" fill="black"/>
<path d="M679.7 639.11L680.13 638.32L680.92 637.88L680.13 637.45L679.7 636.66L679.26 637.45L678.47 637.88L679.26 638.32L679.7 639.11Z" fill="black"/>
<path d="M681.409 641.58L681.849 640.79L682.639 640.36L681.849 639.93L681.409 639.14L680.979 639.93L680.189 640.36L680.979 640.79L681.409 641.58Z" fill="black"/>
<path d="M679.7 644.06L680.13 643.27L680.92 642.84L680.13 642.41L679.7 641.61L679.26 642.41L678.47 642.84L679.26 643.27L679.7 644.06Z" fill="black"/>
<path d="M683.07 644.06L683.5 643.27L684.29 642.84L683.5 642.41L683.07 641.61L682.64 642.41L681.85 642.84L682.64 643.27L683.07 644.06Z" fill="black"/>
<path d="M681.409 646.64L681.849 645.85L682.639 645.42L681.849 644.99L681.409 644.2L680.979 644.99L680.189 645.42L680.979 645.85L681.409 646.64Z" fill="black"/>
<path d="M679.7 649.12L680.13 648.33L680.92 647.9L680.13 647.46L679.7 646.67L679.26 647.46L678.47 647.9L679.26 648.33L679.7 649.12Z" fill="black"/>
<path d="M683.07 649.12L683.5 648.33L684.29 647.9L683.5 647.46L683.07 646.67L682.64 647.46L681.85 647.9L682.64 648.33L683.07 649.12Z" fill="black"/>
<path d="M686.49 649.12L686.93 648.33L687.72 647.9L686.93 647.46L686.49 646.67L686.06 647.46L685.27 647.9L686.06 648.33L686.49 649.12Z" fill="black"/>
<path d="M684.78 659.39L684.35 660.18L683.55 660.62L684.35 661.05L684.78 661.84L685.21 661.05L686 660.62L685.21 660.18L684.78 659.39Z" fill="black"/>
<path d="M681.41 659.39L680.97 660.18L680.18 660.62L680.97 661.05L681.41 661.84L681.84 661.05L682.63 660.62L681.84 660.18L681.41 659.39Z" fill="black"/>
<path d="M677.98 659.39L677.55 660.18L676.76 660.62L677.55 661.05L677.98 661.84L678.41 661.05L679.2 660.62L678.41 660.18L677.98 659.39Z" fill="black"/>
<path d="M686.49 656.92L686.06 657.71L685.27 658.14L686.06 658.57L686.49 659.36L686.93 658.57L687.72 658.14L686.93 657.71L686.49 656.92Z" fill="black"/>
<path d="M683.119 656.92L682.689 657.71L681.899 658.14L682.689 658.57L683.119 659.36L683.549 658.57L684.349 658.14L683.549 657.71L683.119 656.92Z" fill="black"/>
<path d="M679.7 656.92L679.26 657.71L678.47 658.14L679.26 658.57L679.7 659.36L680.13 658.57L680.92 658.14L680.13 657.71L679.7 656.92Z" fill="black"/>
<path d="M684.78 654.44L684.35 655.23L683.55 655.66L684.35 656.1L684.78 656.89L685.21 656.1L686 655.66L685.21 655.23L684.78 654.44Z" fill="black"/>
<path d="M681.41 654.44L680.97 655.23L680.18 655.66L680.97 656.1L681.41 656.89L681.84 656.1L682.63 655.66L681.84 655.23L681.41 654.44Z" fill="black"/>
<path d="M677.98 654.44L677.55 655.23L676.76 655.66L677.55 656.1L677.98 656.89L678.41 656.1L679.2 655.66L678.41 655.23L677.98 654.44Z" fill="black"/>
<path d="M686.49 651.96L686.06 652.75L685.27 653.19L686.06 653.62L686.49 654.41L686.93 653.62L687.72 653.19L686.93 652.75L686.49 651.96Z" fill="black"/>
<path d="M683.119 651.96L682.689 652.75L681.899 653.19L682.689 653.62L683.119 654.41L683.549 653.62L684.349 653.19L683.549 652.75L683.119 651.96Z" fill="black"/>
<path d="M679.7 651.96L679.26 652.75L678.47 653.19L679.26 653.62L679.7 654.41L680.13 653.62L680.92 653.19L680.13 652.75L679.7 651.96Z" fill="black"/>
<path d="M684.78 649.38L684.35 650.17L683.55 650.6L684.35 651.04L684.78 651.83L685.21 651.04L686 650.6L685.21 650.17L684.78 649.38Z" fill="black"/>
<path d="M681.41 649.38L680.97 650.17L680.18 650.6L680.97 651.04L681.41 651.83L681.84 651.04L682.63 650.6L681.84 650.17L681.41 649.38Z" fill="black"/>
<path d="M677.98 649.38L677.55 650.17L676.76 650.6L677.55 651.04L677.98 651.83L678.41 651.04L679.2 650.6L678.41 650.17L677.98 649.38Z" fill="black"/>
<path d="M684.78 679.51L684.35 680.3L683.55 680.74L684.35 681.17L684.78 681.96L685.21 681.17L686 680.74L685.21 680.3L684.78 679.51Z" fill="black"/>
<path d="M681.41 679.51L680.97 680.3L680.18 680.74L680.97 681.17L681.41 681.96L681.84 681.17L682.63 680.74L681.84 680.3L681.41 679.51Z" fill="black"/>
<path d="M677.98 679.51L677.55 680.3L676.76 680.74L677.55 681.17L677.98 681.96L678.41 681.17L679.2 680.74L678.41 680.3L677.98 679.51Z" fill="black"/>
<path d="M683.119 677.04L682.689 677.83L681.899 678.26L682.689 678.69L683.119 679.48L683.549 678.69L684.349 678.26L683.549 677.83L683.119 677.04Z" fill="black"/>
<path d="M679.7 677.04L679.26 677.83L678.47 678.26L679.26 678.69L679.7 679.48L680.13 678.69L680.92 678.26L680.13 677.83L679.7 677.04Z" fill="black"/>
<path d="M684.78 674.56L684.35 675.35L683.55 675.78L684.35 676.22L684.78 677.01L685.21 676.22L686 675.78L685.21 675.35L684.78 674.56Z" fill="black"/>
<path d="M681.41 674.56L680.97 675.35L680.18 675.78L680.97 676.22L681.41 677.01L681.84 676.22L682.63 675.78L681.84 675.35L681.41 674.56Z" fill="black"/>
<path d="M677.98 674.56L677.55 675.35L676.76 675.78L677.55 676.22L677.98 677.01L678.41 676.22L679.2 675.78L678.41 675.35L677.98 674.56Z" fill="black"/>
<path d="M686.49 672.08L686.06 672.87L685.27 673.31L686.06 673.74L686.49 674.53L686.93 673.74L687.72 673.31L686.93 672.87L686.49 672.08Z" fill="black"/>
<path d="M683.119 672.08L682.689 672.87L681.899 673.31L682.689 673.74L683.119 674.53L683.549 673.74L684.349 673.31L683.549 672.87L683.119 672.08Z" fill="black"/>
<path d="M679.7 672.08L679.26 672.87L678.47 673.31L679.26 673.74L679.7 674.53L680.13 673.74L680.92 673.31L680.13 672.87L679.7 672.08Z" fill="black"/>
<path d="M684.78 669.5L684.35 670.29L683.55 670.72L684.35 671.16L684.78 671.95L685.21 671.16L686 670.72L685.21 670.29L684.78 669.5Z" fill="black"/>
<path d="M681.41 669.5L680.97 670.29L680.18 670.72L680.97 671.16L681.41 671.95L681.84 671.16L682.63 670.72L681.84 670.29L681.41 669.5Z" fill="black"/>
<path d="M677.98 669.5L677.55 670.29L676.76 670.72L677.55 671.16L677.98 671.95L678.41 671.16L679.2 670.72L678.41 670.29L677.98 669.5Z" fill="black"/>
<path d="M686.49 667.02L686.06 667.81L685.27 668.25L686.06 668.68L686.49 669.47L686.93 668.68L687.72 668.25L686.93 667.81L686.49 667.02Z" fill="black"/>
<path d="M683.119 667.02L682.689 667.81L681.899 668.25L682.689 668.68L683.119 669.47L683.549 668.68L684.349 668.25L683.549 667.81L683.119 667.02Z" fill="black"/>
<path d="M679.7 667.02L679.26 667.81L678.47 668.25L679.26 668.68L679.7 669.47L680.13 668.68L680.92 668.25L680.13 667.81L679.7 667.02Z" fill="black"/>
<path d="M684.78 664.55L684.35 665.34L683.55 665.77L684.35 666.2L684.78 666.99L685.21 666.2L686 665.77L685.21 665.34L684.78 664.55Z" fill="black"/>
<path d="M681.41 664.55L680.97 665.34L680.18 665.77L680.97 666.2L681.41 666.99L681.84 666.2L682.63 665.77L681.84 665.34L681.41 664.55Z" fill="black"/>
<path d="M677.98 664.55L677.55 665.34L676.76 665.77L677.55 666.2L677.98 666.99L678.41 666.2L679.2 665.77L678.41 665.34L677.98 664.55Z" fill="black"/>
<path d="M686.49 662.07L686.06 662.86L685.27 663.29L686.06 663.73L686.49 664.52L686.93 663.73L687.72 663.29L686.93 662.86L686.49 662.07Z" fill="black"/>
<path d="M683.119 662.07L682.689 662.86L681.899 663.29L682.689 663.73L683.119 664.52L683.549 663.73L684.349 663.29L683.549 662.86L683.119 662.07Z" fill="black"/>
<path d="M679.7 662.07L679.26 662.86L678.47 663.29L679.26 663.73L679.7 664.52L680.13 663.73L680.92 663.29L680.13 662.86L679.7 662.07Z" fill="black"/>
<path d="M683.119 682.27L682.689 683.06L681.899 683.49L682.689 683.92L683.119 684.71L683.549 683.92L684.349 683.49L683.549 683.06L683.119 682.27Z" fill="black"/>
<path d="M679.7 682.27L679.26 683.06L678.47 683.49L679.26 683.92L679.7 684.71L680.13 683.92L680.92 683.49L680.13 683.06L679.7 682.27Z" fill="black"/>
<path d="M674.07 659.39L673.63 660.18L672.84 660.62L673.63 661.05L674.07 661.84L674.5 661.05L675.29 660.62L674.5 660.18L674.07 659.39Z" fill="black"/>
<path d="M675.78 656.92L675.35 657.71L674.56 658.14L675.35 658.57L675.78 659.36L676.22 658.57L677.01 658.14L676.22 657.71L675.78 656.92Z" fill="black"/>
<path d="M674.07 654.44L673.63 655.23L672.84 655.66L673.63 656.1L674.07 656.89L674.5 656.1L675.29 655.66L674.5 655.23L674.07 654.44Z" fill="black"/>
<path d="M675.78 651.96L675.35 652.75L674.56 653.19L675.35 653.62L675.78 654.41L676.22 653.62L677.01 653.19L676.22 652.75L675.78 651.96Z" fill="black"/>
<path d="M672.409 651.96L671.979 652.75L671.189 653.19L671.979 653.62L672.409 654.41L672.839 653.62L673.629 653.19L672.839 652.75L672.409 651.96Z" fill="black"/>
<path d="M674.07 649.38L673.63 650.17L672.84 650.6L673.63 651.04L674.07 651.83L674.5 651.04L675.29 650.6L674.5 650.17L674.07 649.38Z" fill="black"/>
<path d="M674.07 679.51L673.63 680.3L672.84 680.74L673.63 681.17L674.07 681.96L674.5 681.17L675.29 680.74L674.5 680.3L674.07 679.51Z" fill="black"/>
<path d="M670.69 679.51L670.26 680.3L669.47 680.74L670.26 681.17L670.69 681.96L671.13 681.17L671.92 680.74L671.13 680.3L670.69 679.51Z" fill="black"/>
<path d="M675.78 677.04L675.35 677.83L674.56 678.26L675.35 678.69L675.78 679.48L676.22 678.69L677.01 678.26L676.22 677.83L675.78 677.04Z" fill="black"/>
<path d="M672.409 677.04L671.979 677.83L671.189 678.26L671.979 678.69L672.409 679.48L672.839 678.69L673.629 678.26L672.839 677.83L672.409 677.04Z" fill="black"/>
<path d="M668.99 677.04L668.55 677.83L667.76 678.26L668.55 678.69L668.99 679.48L669.42 678.69L670.21 678.26L669.42 677.83L668.99 677.04Z" fill="black"/>
<path d="M674.07 674.56L673.63 675.35L672.84 675.78L673.63 676.22L674.07 677.01L674.5 676.22L675.29 675.78L674.5 675.35L674.07 674.56Z" fill="black"/>
<path d="M670.69 674.56L670.26 675.35L669.47 675.78L670.26 676.22L670.69 677.01L671.13 676.22L671.92 675.78L671.13 675.35L670.69 674.56Z" fill="black"/>
<path d="M675.78 672.08L675.35 672.87L674.56 673.31L675.35 673.74L675.78 674.53L676.22 673.74L677.01 673.31L676.22 672.87L675.78 672.08Z" fill="black"/>
<path d="M672.409 672.08L671.979 672.87L671.189 673.31L671.979 673.74L672.409 674.53L672.839 673.74L673.629 673.31L672.839 672.87L672.409 672.08Z" fill="black"/>
<path d="M668.99 672.08L668.55 672.87L667.76 673.31L668.55 673.74L668.99 674.53L669.42 673.74L670.21 673.31L669.42 672.87L668.99 672.08Z" fill="black"/>
<path d="M674.07 669.5L673.63 670.29L672.84 670.72L673.63 671.16L674.07 671.95L674.5 671.16L675.29 670.72L674.5 670.29L674.07 669.5Z" fill="black"/>
<path d="M670.69 669.5L670.26 670.29L669.47 670.72L670.26 671.16L670.69 671.95L671.13 671.16L671.92 670.72L671.13 670.29L670.69 669.5Z" fill="black"/>
<path d="M675.78 667.02L675.35 667.81L674.56 668.25L675.35 668.68L675.78 669.47L676.22 668.68L677.01 668.25L676.22 667.81L675.78 667.02Z" fill="black"/>
<path d="M672.409 667.02L671.979 667.81L671.189 668.25L671.979 668.68L672.409 669.47L672.839 668.68L673.629 668.25L672.839 667.81L672.409 667.02Z" fill="black"/>
<path d="M668.99 667.02L668.55 667.81L667.76 668.25L668.55 668.68L668.99 669.47L669.42 668.68L670.21 668.25L669.42 667.81L668.99 667.02Z" fill="black"/>
<path d="M674.07 664.55L673.63 665.34L672.84 665.77L673.63 666.2L674.07 666.99L674.5 666.2L675.29 665.77L674.5 665.34L674.07 664.55Z" fill="black"/>
<path d="M670.69 664.55L670.26 665.34L669.47 665.77L670.26 666.2L670.69 666.99L671.13 666.2L671.92 665.77L671.13 665.34L670.69 664.55Z" fill="black"/>
<path d="M675.78 662.07L675.35 662.86L674.56 663.29L675.35 663.73L675.78 664.52L676.22 663.73L677.01 663.29L676.22 662.86L675.78 662.07Z" fill="black"/>
<path d="M672.409 662.07L671.979 662.86L671.189 663.29L671.979 663.73L672.409 664.52L672.839 663.73L673.629 663.29L672.839 662.86L672.409 662.07Z" fill="black"/>
<path d="M675.78 682.27L675.35 683.06L674.56 683.49L675.35 683.92L675.78 684.71L676.22 683.92L677.01 683.49L676.22 683.06L675.78 682.27Z" fill="black"/>
<path d="M672.409 682.27L671.979 683.06L671.189 683.49L671.979 683.92L672.409 684.71L672.839 683.92L673.629 683.49L672.839 683.06L672.409 682.27Z" fill="black"/>
<path d="M668.99 682.27L668.55 683.06L667.76 683.49L668.55 683.92L668.99 684.71L669.42 683.92L670.21 683.49L669.42 683.06L668.99 682.27Z" fill="black"/>
<path d="M677.5 699.9L677.07 700.69L676.28 701.12L677.07 701.56L677.5 702.35L677.93 701.56L678.72 701.12L677.93 700.69L677.5 699.9Z" fill="black"/>
<path d="M674.13 699.9L673.69 700.69L672.9 701.12L673.69 701.56L674.13 702.35L674.56 701.56L675.35 701.12L674.56 700.69L674.13 699.9Z" fill="black"/>
<path d="M670.7 699.9L670.27 700.69L669.48 701.12L670.27 701.56L670.7 702.35L671.13 701.56L671.93 701.12L671.13 700.69L670.7 699.9Z" fill="black"/>
<path d="M675.781 697.42L675.351 698.22L674.561 698.65L675.351 699.08L675.781 699.87L676.221 699.08L677.011 698.65L676.221 698.22L675.781 697.42Z" fill="black"/>
<path d="M672.41 697.42L671.98 698.22L671.19 698.65L671.98 699.08L672.41 699.87L672.84 699.08L673.63 698.65L672.84 698.22L672.41 697.42Z" fill="black"/>
<path d="M677.5 694.95L677.07 695.74L676.28 696.17L677.07 696.6L677.5 697.39L677.93 696.6L678.72 696.17L677.93 695.74L677.5 694.95Z" fill="black"/>
<path d="M674.13 694.95L673.69 695.74L672.9 696.17L673.69 696.6L674.13 697.39L674.56 696.6L675.35 696.17L674.56 695.74L674.13 694.95Z" fill="black"/>
<path d="M670.7 694.95L670.27 695.74L669.48 696.17L670.27 696.6L670.7 697.39L671.13 696.6L671.93 696.17L671.13 695.74L670.7 694.95Z" fill="black"/>
<path d="M675.781 692.36L675.351 693.16L674.561 693.59L675.351 694.02L675.781 694.81L676.221 694.02L677.011 693.59L676.221 693.16L675.781 692.36Z" fill="black"/>
<path d="M672.41 692.36L671.98 693.16L671.19 693.59L671.98 694.02L672.41 694.81L672.84 694.02L673.63 693.59L672.84 693.16L672.41 692.36Z" fill="black"/>
<path d="M677.5 689.89L677.07 690.68L676.28 691.11L677.07 691.54L677.5 692.33L677.93 691.54L678.72 691.11L677.93 690.68L677.5 689.89Z" fill="black"/>
<path d="M674.13 689.89L673.69 690.68L672.9 691.11L673.69 691.54L674.13 692.33L674.56 691.54L675.35 691.11L674.56 690.68L674.13 689.89Z" fill="black"/>
<path d="M670.7 689.89L670.27 690.68L669.48 691.11L670.27 691.54L670.7 692.33L671.13 691.54L671.93 691.11L671.13 690.68L670.7 689.89Z" fill="black"/>
<path d="M675.781 687.41L675.351 688.2L674.561 688.63L675.351 689.07L675.781 689.86L676.221 689.07L677.011 688.63L676.221 688.2L675.781 687.41Z" fill="black"/>
<path d="M672.41 687.41L671.98 688.2L671.19 688.63L671.98 689.07L672.41 689.86L672.84 689.07L673.63 688.63L672.84 688.2L672.41 687.41Z" fill="black"/>
<path d="M677.5 684.93L677.07 685.73L676.28 686.16L677.07 686.59L677.5 687.38L677.93 686.59L678.72 686.16L677.93 685.73L677.5 684.93Z" fill="black"/>
<path d="M674.13 684.93L673.69 685.73L672.9 686.16L673.69 686.59L674.13 687.38L674.56 686.59L675.35 686.16L674.56 685.73L674.13 684.93Z" fill="black"/>
<path d="M670.14 684.93L669.7 685.73L668.91 686.16L669.7 686.59L670.14 687.38L670.57 686.59L671.36 686.16L670.57 685.73L670.14 684.93Z" fill="black"/>
<path d="M680.97 699.76L680.54 700.55L679.75 700.98L680.54 701.42L680.97 702.21L681.41 701.42L682.2 700.98L681.41 700.55L680.97 699.76Z" fill="black"/>
<path d="M679.26 697.28L678.83 698.07L678.04 698.51L678.83 698.94L679.26 699.73L679.7 698.94L680.49 698.51L679.7 698.07L679.26 697.28Z" fill="black"/>
<path d="M680.97 694.81L680.54 695.6L679.75 696.03L680.54 696.46L680.97 697.25L681.41 696.46L682.2 696.03L681.41 695.6L680.97 694.81Z" fill="black"/>
<path d="M679.26 692.33L678.83 693.12L678.04 693.55L678.83 693.98L679.26 694.78L679.7 693.98L680.49 693.55L679.7 693.12L679.26 692.33Z" fill="black"/>
<path d="M680.97 689.75L680.54 690.54L679.75 690.97L680.54 691.4L680.97 692.19L681.41 691.4L682.2 690.97L681.41 690.54L680.97 689.75Z" fill="black"/>
<path d="M682.69 687.27L682.26 688.06L681.47 688.49L682.26 688.93L682.69 689.72L683.12 688.93L683.91 688.49L683.12 688.06L682.69 687.27Z" fill="black"/>
<path d="M679.26 687.27L678.83 688.06L678.04 688.49L678.83 688.93L679.26 689.72L679.7 688.93L680.49 688.49L679.7 688.06L679.26 687.27Z" fill="black"/>
<path d="M680.97 684.79L680.54 685.58L679.75 686.02L680.54 686.45L680.97 687.24L681.41 686.45L682.2 686.02L681.41 685.58L680.97 684.79Z" fill="black"/>
<path d="M682.69 682.32L682.26 683.11L681.47 683.54L682.26 683.97L682.69 684.76L683.12 683.97L683.91 683.54L683.12 683.11L682.69 682.32Z" fill="black"/>
<path d="M696.889 643.94L697.319 643.15L698.119 642.72L697.319 642.28L696.889 641.49L696.459 642.28L695.669 642.72L696.459 643.15L696.889 643.94Z" fill="black"/>
<path d="M691.749 646.42L692.179 645.63L692.969 645.19L692.179 644.76L691.749 643.97L691.319 644.76L690.529 645.19L691.319 645.63L691.749 646.42Z" fill="black"/>
<path d="M695.179 646.42L695.609 645.63L696.399 645.19L695.609 644.76L695.179 643.97L694.739 644.76L693.949 645.19L694.739 645.63L695.179 646.42Z" fill="black"/>
<path d="M699.089 646.42L699.519 645.63L700.309 645.19L699.519 644.76L699.089 643.97L698.659 644.76L697.869 645.19L698.659 645.63L699.089 646.42Z" fill="black"/>
<path d="M697.369 651.74L696.939 652.53L696.149 652.96L696.939 653.39L697.369 654.18L697.809 653.39L698.599 652.96L697.809 652.53L697.369 651.74Z" fill="black"/>
<path d="M697.369 646.68L696.939 647.47L696.149 647.9L696.939 648.33L697.369 649.12L697.809 648.33L698.599 647.9L697.809 647.47L697.369 646.68Z" fill="black"/>
<path d="M693.459 656.69L693.029 657.48L692.239 657.91L693.029 658.35L693.459 659.14L693.889 658.35L694.679 657.91L693.889 657.48L693.459 656.69Z" fill="black"/>
<path d="M690.089 656.69L689.649 657.48L688.859 657.91L689.649 658.35L690.089 659.14L690.519 658.35L691.309 657.91L690.519 657.48L690.089 656.69Z" fill="black"/>
<path d="M695.179 654.21L694.739 655L693.949 655.44L694.739 655.87L695.179 656.66L695.609 655.87L696.399 655.44L695.609 655L695.179 654.21Z" fill="black"/>
<path d="M691.799 654.21L691.369 655L690.579 655.44L691.369 655.87L691.799 656.66L692.239 655.87L693.029 655.44L692.239 655L691.799 654.21Z" fill="black"/>
<path d="M688.379 654.21L687.949 655L687.149 655.44L687.949 655.87L688.379 656.66L688.809 655.87L689.599 655.44L688.809 655L688.379 654.21Z" fill="black"/>
<path d="M693.459 651.74L693.029 652.53L692.239 652.96L693.029 653.39L693.459 654.18L693.889 653.39L694.679 652.96L693.889 652.53L693.459 651.74Z" fill="black"/>
<path d="M690.089 651.74L689.649 652.53L688.859 652.96L689.649 653.39L690.089 654.18L690.519 653.39L691.309 652.96L690.519 652.53L690.089 651.74Z" fill="black"/>
<path d="M695.179 649.26L694.739 650.05L693.949 650.48L694.739 650.91L695.179 651.71L695.609 650.91L696.399 650.48L695.609 650.05L695.179 649.26Z" fill="black"/>
<path d="M691.799 649.26L691.369 650.05L690.579 650.48L691.369 650.91L691.799 651.71L692.239 650.91L693.029 650.48L692.239 650.05L691.799 649.26Z" fill="black"/>
<path d="M688.379 649.26L687.949 650.05L687.149 650.48L687.949 650.91L688.379 651.71L688.809 650.91L689.599 650.48L688.809 650.05L688.379 649.26Z" fill="black"/>
<path d="M693.459 646.68L693.029 647.47L692.239 647.9L693.029 648.33L693.459 649.12L693.889 648.33L694.679 647.9L693.889 647.47L693.459 646.68Z" fill="black"/>
<path d="M690.089 646.68L689.649 647.47L688.859 647.9L689.649 648.33L690.089 649.12L690.519 648.33L691.309 647.9L690.519 647.47L690.089 646.68Z" fill="black"/>
<path d="M690.089 671.86L689.649 672.65L688.859 673.08L689.649 673.51L690.089 674.3L690.519 673.51L691.309 673.08L690.519 672.65L690.089 671.86Z" fill="black"/>
<path d="M691.799 669.38L691.369 670.17L690.579 670.6L691.369 671.04L691.799 671.83L692.239 671.04L693.029 670.6L692.239 670.17L691.799 669.38Z" fill="black"/>
<path d="M688.379 669.38L687.949 670.17L687.149 670.6L687.949 671.04L688.379 671.83L688.809 671.04L689.599 670.6L688.809 670.17L688.379 669.38Z" fill="black"/>
<path d="M693.459 666.8L693.029 667.59L692.239 668.02L693.029 668.45L693.459 669.24L693.889 668.45L694.679 668.02L693.889 667.59L693.459 666.8Z" fill="black"/>
<path d="M690.089 666.8L689.649 667.59L688.859 668.02L689.649 668.45L690.089 669.24L690.519 668.45L691.309 668.02L690.519 667.59L690.089 666.8Z" fill="black"/>
<path d="M691.799 664.32L691.369 665.11L690.579 665.54L691.369 665.98L691.799 666.77L692.239 665.98L693.029 665.54L692.239 665.11L691.799 664.32Z" fill="black"/>
<path d="M688.379 664.32L687.949 665.11L687.149 665.54L687.949 665.98L688.379 666.77L688.809 665.98L689.599 665.54L688.809 665.11L688.379 664.32Z" fill="black"/>
<path d="M693.459 661.84L693.029 662.63L692.239 663.07L693.029 663.5L693.459 664.29L693.889 663.5L694.679 663.07L693.889 662.63L693.459 661.84Z" fill="black"/>
<path d="M690.089 661.84L689.649 662.63L688.859 663.07L689.649 663.5L690.089 664.29L690.519 663.5L691.309 663.07L690.519 662.63L690.089 661.84Z" fill="black"/>
<path d="M695.179 659.37L694.739 660.16L693.949 660.59L694.739 661.02L695.179 661.81L695.609 661.02L696.399 660.59L695.609 660.16L695.179 659.37Z" fill="black"/>
<path d="M691.799 659.37L691.369 660.16L690.579 660.59L691.369 661.02L691.799 661.81L692.239 661.02L693.029 660.59L692.239 660.16L691.799 659.37Z" fill="black"/>
<path d="M688.379 659.37L687.949 660.16L687.149 660.59L687.949 661.02L688.379 661.81L688.809 661.02L689.599 660.59L688.809 660.16L688.379 659.37Z" fill="black"/>
<path d="M736.08 527.27V586.66C736.08 589.9 733.45 592.53 730.21 592.53H639.2C635.95 592.53 633.33 589.9 633.33 586.66V527.27C633.33 523.86 636.09 521.1 639.49 521.1H729.93C733.33 521.1 736.08 523.86 736.08 527.27Z" fill="#FFDE16" stroke="black" stroke-width="3" stroke-miterlimit="10" stroke-linecap="round" stroke-linejoin="round"/>
<path d="M740.09 531.25V590.65C740.09 593.89 737.46 596.52 734.22 596.52H643.2C640.54 596.52 638.29 594.74 637.57 592.31C638.09 592.46 638.63 592.54 639.2 592.54H730.22C733.46 592.54 736.09 589.91 736.09 586.67V527.27C736.09 526.61 735.99 525.97 735.79 525.37C738.28 526.16 740.09 528.49 740.09 531.25Z" fill="black" stroke="black" stroke-width="3" stroke-miterlimit="10"/>
<path d="M735.3 589.57L735.45 589.86L735.74 590.02L735.45 590.18L735.3 590.47L735.14 590.18L734.85 590.02L735.14 589.86L735.3 589.57Z" fill="black"/>
<path d="M729.05 547.27L729.48 546.48L730.27 546.05L729.48 545.62L729.05 544.83L728.61 545.62L727.82 546.05L728.61 546.48L729.05 547.27Z" fill="black"/>
<path d="M732.42 547.27L732.85 546.48L733.64 546.05L732.85 545.62L732.42 544.83L731.99 545.62L731.2 546.05L731.99 546.48L732.42 547.27Z" fill="black"/>
<path d="M735.84 547.27L736.28 546.48L737.07 546.05L736.28 545.62L735.84 544.83L735.41 545.62L734.62 546.05L735.41 546.48L735.84 547.27Z" fill="black"/>
<path d="M727.33 549.75L727.76 548.96L728.55 548.53L727.76 548.09L727.33 547.3L726.9 548.09L726.11 548.53L726.9 548.96L727.33 549.75Z" fill="black"/>
<path d="M730.7 549.75L731.14 548.96L731.93 548.53L731.14 548.09L730.7 547.3L730.27 548.09L729.48 548.53L730.27 548.96L730.7 549.75Z" fill="black"/>
<path d="M734.13 549.75L734.56 548.96L735.35 548.53L734.56 548.09L734.13 547.3L733.7 548.09L732.9 548.53L733.7 548.96L734.13 549.75Z" fill="black"/>
<path d="M729.05 552.23L729.48 551.43L730.27 551L729.48 550.57L729.05 549.78L728.61 550.57L727.82 551L728.61 551.43L729.05 552.23Z" fill="black"/>
<path d="M732.42 552.23L732.85 551.43L733.64 551L732.85 550.57L732.42 549.78L731.99 550.57L731.2 551L731.99 551.43L732.42 552.23Z" fill="black"/>
<path d="M735.84 552.23L736.28 551.43L737.07 551L736.28 550.57L735.84 549.78L735.41 550.57L734.62 551L735.41 551.43L735.84 552.23Z" fill="black"/>
<path d="M727.33 554.7L727.76 553.91L728.55 553.48L727.76 553.05L727.33 552.26L726.9 553.05L726.11 553.48L726.9 553.91L727.33 554.7Z" fill="black"/>
<path d="M730.7 554.7L731.14 553.91L731.93 553.48L731.14 553.05L730.7 552.26L730.27 553.05L729.48 553.48L730.27 553.91L730.7 554.7Z" fill="black"/>
<path d="M734.13 554.7L734.56 553.91L735.35 553.48L734.56 553.05L734.13 552.26L733.7 553.05L732.9 553.48L733.7 553.91L734.13 554.7Z" fill="black"/>
<path d="M729.05 557.29L729.48 556.49L730.27 556.06L729.48 555.63L729.05 554.84L728.61 555.63L727.82 556.06L728.61 556.49L729.05 557.29Z" fill="black"/>
<path d="M732.42 557.29L732.85 556.49L733.64 556.06L732.85 555.63L732.42 554.84L731.99 555.63L731.2 556.06L731.99 556.49L732.42 557.29Z" fill="black"/>
<path d="M735.84 557.29L736.28 556.49L737.07 556.06L736.28 555.63L735.84 554.84L735.41 555.63L734.62 556.06L735.41 556.49L735.84 557.29Z" fill="black"/>
<path d="M727.33 559.76L727.76 558.97L728.55 558.54L727.76 558.11L727.33 557.32L726.9 558.11L726.11 558.54L726.9 558.97L727.33 559.76Z" fill="black"/>
<path d="M730.7 559.76L731.14 558.97L731.93 558.54L731.14 558.11L730.7 557.32L730.27 558.11L729.48 558.54L730.27 558.97L730.7 559.76Z" fill="black"/>
<path d="M734.13 559.76L734.56 558.97L735.35 558.54L734.56 558.11L734.13 557.32L733.7 558.11L732.9 558.54L733.7 558.97L734.13 559.76Z" fill="black"/>
<path d="M729.05 527.15L729.48 526.36L730.27 525.93L729.48 525.5L729.05 524.7L728.61 525.5L727.82 525.93L728.61 526.36L729.05 527.15Z" fill="black"/>
<path d="M732.42 527.15L732.85 526.36L733.64 525.93L732.85 525.5L732.42 524.7L731.99 525.5L731.2 525.93L731.99 526.36L732.42 527.15Z" fill="black"/>
<path d="M735.84 527.15L736.28 526.36L737.07 525.93L736.28 525.5L735.84 524.7L735.41 525.5L734.62 525.93L735.41 526.36L735.84 527.15Z" fill="black"/>
<path d="M727.33 529.63L727.76 528.84L728.55 528.41L727.76 527.97L727.33 527.18L726.9 527.97L726.11 528.41L726.9 528.84L727.33 529.63Z" fill="black"/>
<path d="M730.7 529.63L731.14 528.84L731.93 528.41L731.14 527.97L730.7 527.18L730.27 527.97L729.48 528.41L730.27 528.84L730.7 529.63Z" fill="black"/>
<path d="M734.13 529.63L734.56 528.84L735.35 528.41L734.56 527.97L734.13 527.18L733.7 527.97L732.9 528.41L733.7 528.84L734.13 529.63Z" fill="black"/>
<path d="M729.05 532.11L729.48 531.31L730.27 530.88L729.48 530.45L729.05 529.66L728.61 530.45L727.82 530.88L728.61 531.31L729.05 532.11Z" fill="black"/>
<path d="M732.42 532.11L732.85 531.31L733.64 530.88L732.85 530.45L732.42 529.66L731.99 530.45L731.2 530.88L731.99 531.31L732.42 532.11Z" fill="black"/>
<path d="M735.84 532.11L736.28 531.31L737.07 530.88L736.28 530.45L735.84 529.66L735.41 530.45L734.62 530.88L735.41 531.31L735.84 532.11Z" fill="black"/>
<path d="M727.33 534.58L727.76 533.79L728.55 533.36L727.76 532.93L727.33 532.14L726.9 532.93L726.11 533.36L726.9 533.79L727.33 534.58Z" fill="black"/>
<path d="M730.7 534.58L731.14 533.79L731.93 533.36L731.14 532.93L730.7 532.14L730.27 532.93L729.48 533.36L730.27 533.79L730.7 534.58Z" fill="black"/>
<path d="M734.13 534.58L734.56 533.79L735.35 533.36L734.56 532.93L734.13 532.14L733.7 532.93L732.9 533.36L733.7 533.79L734.13 534.58Z" fill="black"/>
<path d="M729.05 537.16L729.48 536.37L730.27 535.94L729.48 535.51L729.05 534.72L728.61 535.51L727.82 535.94L728.61 536.37L729.05 537.16Z" fill="black"/>
<path d="M732.42 537.16L732.85 536.37L733.64 535.94L732.85 535.51L732.42 534.72L731.99 535.51L731.2 535.94L731.99 536.37L732.42 537.16Z" fill="black"/>
<path d="M735.84 537.16L736.28 536.37L737.07 535.94L736.28 535.51L735.84 534.72L735.41 535.51L734.62 535.94L735.41 536.37L735.84 537.16Z" fill="black"/>
<path d="M727.33 539.64L727.76 538.85L728.55 538.42L727.76 537.99L727.33 537.2L726.9 537.99L726.11 538.42L726.9 538.85L727.33 539.64Z" fill="black"/>
<path d="M730.7 539.64L731.14 538.85L731.93 538.42L731.14 537.99L730.7 537.2L730.27 537.99L729.48 538.42L730.27 538.85L730.7 539.64Z" fill="black"/>
<path d="M734.13 539.64L734.56 538.85L735.35 538.42L734.56 537.99L734.13 537.2L733.7 537.99L732.9 538.42L733.7 538.85L734.13 539.64Z" fill="black"/>
<path d="M729.05 542.12L729.48 541.33L730.27 540.89L729.48 540.46L729.05 539.67L728.61 540.46L727.82 540.89L728.61 541.33L729.05 542.12Z" fill="black"/>
<path d="M732.42 542.12L732.85 541.33L733.64 540.89L732.85 540.46L732.42 539.67L731.99 540.46L731.2 540.89L731.99 541.33L732.42 542.12Z" fill="black"/>
<path d="M735.84 542.12L736.28 541.33L737.07 540.89L736.28 540.46L735.84 539.67L735.41 540.46L734.62 540.89L735.41 541.33L735.84 542.12Z" fill="black"/>
<path d="M727.33 544.6L727.76 543.8L728.55 543.37L727.76 542.94L727.33 542.15L726.9 542.94L726.11 543.37L726.9 543.8L727.33 544.6Z" fill="black"/>
<path d="M730.7 544.6L731.14 543.8L731.93 543.37L731.14 542.94L730.7 542.15L730.27 542.94L729.48 543.37L730.27 543.8L730.7 544.6Z" fill="black"/>
<path d="M734.13 544.6L734.56 543.8L735.35 543.37L734.56 542.94L734.13 542.15L733.7 542.94L732.9 543.37L733.7 543.8L734.13 544.6Z" fill="black"/>
<path d="M727.33 524.4L727.76 523.61L728.55 523.17L727.76 522.74L727.33 521.95L726.9 522.74L726.11 523.17L726.9 523.61L727.33 524.4Z" fill="black"/>
<path d="M730.7 524.4L731.14 523.61L731.93 523.17L731.14 522.74L730.7 521.95L730.27 522.74L729.48 523.17L730.27 523.61L730.7 524.4Z" fill="black"/>
<path d="M734.13 524.4L734.56 523.61L735.35 523.17L734.56 522.74L734.13 521.95L733.7 522.74L732.9 523.17L733.7 523.61L734.13 524.4Z" fill="black"/>
<path d="M732.41 570.03L731.98 570.83L731.19 571.26L731.98 571.69L732.41 572.48L732.84 571.69L733.64 571.26L732.84 570.83L732.41 570.03Z" fill="black"/>
<path d="M729.04 570.03L728.61 570.83L727.82 571.26L728.61 571.69L729.04 572.48L729.47 571.69L730.26 571.26L729.47 570.83L729.04 570.03Z" fill="black"/>
<path d="M734.13 567.56L733.7 568.35L732.9 568.78L733.7 569.21L734.13 570L734.56 569.21L735.35 568.78L734.56 568.35L734.13 567.56Z" fill="black"/>
<path d="M730.76 567.56L730.32 568.35L729.53 568.78L730.32 569.21L730.76 570L731.19 569.21L731.98 568.78L731.19 568.35L730.76 567.56Z" fill="black"/>
<path d="M727.33 567.56L726.9 568.35L726.11 568.78L726.9 569.21L727.33 570L727.76 569.21L728.55 568.78L727.76 568.35L727.33 567.56Z" fill="black"/>
<path d="M732.41 565.08L731.98 565.87L731.19 566.3L731.98 566.74L732.41 567.53L732.84 566.74L733.64 566.3L732.84 565.87L732.41 565.08Z" fill="black"/>
<path d="M729.04 565.08L728.61 565.87L727.82 566.3L728.61 566.74L729.04 567.53L729.47 566.74L730.26 566.3L729.47 565.87L729.04 565.08Z" fill="black"/>
<path d="M734.13 562.6L733.7 563.39L732.9 563.83L733.7 564.26L734.13 565.05L734.56 564.26L735.35 563.83L734.56 563.39L734.13 562.6Z" fill="black"/>
<path d="M730.76 562.6L730.32 563.39L729.53 563.83L730.32 564.26L730.76 565.05L731.19 564.26L731.98 563.83L731.19 563.39L730.76 562.6Z" fill="black"/>
<path d="M727.33 562.6L726.9 563.39L726.11 563.83L726.9 564.26L727.33 565.05L727.76 564.26L728.55 563.83L727.76 563.39L727.33 562.6Z" fill="black"/>
<path d="M732.41 560.02L731.98 560.81L731.19 561.24L731.98 561.68L732.41 562.47L732.84 561.68L733.64 561.24L732.84 560.81L732.41 560.02Z" fill="black"/>
<path d="M729.04 560.02L728.61 560.81L727.82 561.24L728.61 561.68L729.04 562.47L729.47 561.68L730.26 561.24L729.47 560.81L729.04 560.02Z" fill="black"/>
<path d="M732.41 590.15L731.98 590.95L731.19 591.38L731.98 591.81L732.41 592.6L732.84 591.81L733.64 591.38L732.84 590.95L732.41 590.15Z" fill="black"/>
<path d="M729.04 590.15L728.61 590.95L727.82 591.38L728.61 591.81L729.04 592.6L729.47 591.81L730.26 591.38L729.47 590.95L729.04 590.15Z" fill="black"/>
<path d="M734.13 587.68L733.7 588.47L732.9 588.9L733.7 589.33L734.13 590.12L734.56 589.33L735.35 588.9L734.56 588.47L734.13 587.68Z" fill="black"/>
<path d="M730.76 587.68L730.32 588.47L729.53 588.9L730.32 589.33L730.76 590.12L731.19 589.33L731.98 588.9L731.19 588.47L730.76 587.68Z" fill="black"/>
<path d="M727.33 587.68L726.9 588.47L726.11 588.9L726.9 589.33L727.33 590.12L727.76 589.33L728.55 588.9L727.76 588.47L727.33 587.68Z" fill="black"/>
<path d="M732.41 585.2L731.98 585.99L731.19 586.42L731.98 586.86L732.41 587.65L732.84 586.86L733.64 586.42L732.84 585.99L732.41 585.2Z" fill="black"/>
<path d="M729.04 585.2L728.61 585.99L727.82 586.42L728.61 586.86L729.04 587.65L729.47 586.86L730.26 586.42L729.47 585.99L729.04 585.2Z" fill="black"/>
<path d="M734.13 582.72L733.7 583.51L732.9 583.95L733.7 584.38L734.13 585.17L734.56 584.38L735.35 583.95L734.56 583.51L734.13 582.72Z" fill="black"/>
<path d="M730.76 582.72L730.32 583.51L729.53 583.95L730.32 584.38L730.76 585.17L731.19 584.38L731.98 583.95L731.19 583.51L730.76 582.72Z" fill="black"/>
<path d="M727.33 582.72L726.9 583.51L726.11 583.95L726.9 584.38L727.33 585.17L727.76 584.38L728.55 583.95L727.76 583.51L727.33 582.72Z" fill="black"/>
<path d="M732.41 580.14L731.98 580.93L731.19 581.37L731.98 581.8L732.41 582.59L732.84 581.8L733.64 581.37L732.84 580.93L732.41 580.14Z" fill="black"/>
<path d="M729.04 580.14L728.61 580.93L727.82 581.37L728.61 581.8L729.04 582.59L729.47 581.8L730.26 581.37L729.47 580.93L729.04 580.14Z" fill="black"/>
<path d="M734.13 577.66L733.7 578.46L732.9 578.89L733.7 579.32L734.13 580.11L734.56 579.32L735.35 578.89L734.56 578.46L734.13 577.66Z" fill="black"/>
<path d="M730.76 577.66L730.32 578.46L729.53 578.89L730.32 579.32L730.76 580.11L731.19 579.32L731.98 578.89L731.19 578.46L730.76 577.66Z" fill="black"/>
<path d="M727.33 577.66L726.9 578.46L726.11 578.89L726.9 579.32L727.33 580.11L727.76 579.32L728.55 578.89L727.76 578.46L727.33 577.66Z" fill="black"/>
<path d="M732.41 575.19L731.98 575.98L731.19 576.41L731.98 576.84L732.41 577.64L732.84 576.84L733.64 576.41L732.84 575.98L732.41 575.19Z" fill="black"/>
<path d="M729.04 575.19L728.61 575.98L727.82 576.41L728.61 576.84L729.04 577.64L729.47 576.84L730.26 576.41L729.47 575.98L729.04 575.19Z" fill="black"/>
<path d="M734.13 572.71L733.7 573.5L732.9 573.93L733.7 574.37L734.13 575.16L734.56 574.37L735.35 573.93L734.56 573.5L734.13 572.71Z" fill="black"/>
<path d="M730.76 572.71L730.32 573.5L729.53 573.93L730.32 574.37L730.76 575.16L731.19 574.37L731.98 573.93L731.19 573.5L730.76 572.71Z" fill="black"/>
<path d="M727.33 572.71L726.9 573.5L726.11 573.93L726.9 574.37L727.33 575.16L727.76 574.37L728.55 573.93L727.76 573.5L727.33 572.71Z" fill="black"/>
<path d="M734.13 592.91L733.7 593.7L732.9 594.13L733.7 594.56L734.13 595.35L734.56 594.56L735.35 594.13L734.56 593.7L734.13 592.91Z" fill="black"/>
<path d="M730.76 592.91L730.32 593.7L729.53 594.13L730.32 594.56L730.76 595.35L731.19 594.56L731.98 594.13L731.19 593.7L730.76 592.91Z" fill="black"/>
<path d="M727.33 592.91L726.9 593.7L726.11 594.13L726.9 594.56L727.33 595.35L727.76 594.56L728.55 594.13L727.76 593.7L727.33 592.91Z" fill="black"/>
<path d="M652.05 510.15C647.46 508.06 641.54 511.15 638.68 517.07C635.81 511.16 629.9 508.06 625.31 510.15C620.63 512.28 619.11 518.99 621.91 525.13C624.7 531.28 633.17 539.5 638.68 541C645.9 537.27 652.66 531.27 655.46 525.13C658.26 518.99 656.73 512.29 652.05 510.15Z" fill="#FF6CE0" stroke="black" stroke-width="3" stroke-miterlimit="10" stroke-linecap="round" stroke-linejoin="round"/>
<path d="M648.64 531.46L649.08 530.67L649.87 530.24L649.08 529.81L648.64 529.02L648.21 529.81L647.42 530.24L648.21 530.67L648.64 531.46Z" fill="black"/>
<path d="M652.07 531.46L652.5 530.67L653.29 530.24L652.5 529.81L652.07 529.02L651.64 529.81L650.84 530.24L651.64 530.67L652.07 531.46Z" fill="black"/>
<path d="M646.93 533.94L647.36 533.15L648.15 532.72L647.36 532.28L646.93 531.49L646.49 532.28L645.7 532.72L646.49 533.15L646.93 533.94Z" fill="black"/>
<path d="M650.35 533.94L650.78 533.15L651.58 532.72L650.78 532.28L650.35 531.49L649.92 532.28L649.13 532.72L649.92 533.15L650.35 533.94Z" fill="black"/>
<path d="M645.27 536.42L645.7 535.63L646.49 535.19L645.7 534.76L645.27 533.97L644.84 534.76L644.05 535.19L644.84 535.63L645.27 536.42Z" fill="black"/>
<path d="M643.55 538.89L643.99 538.1L644.78 537.67L643.99 537.24L643.55 536.45L643.12 537.24L642.33 537.67L643.12 538.1L643.55 538.89Z" fill="black"/>
<path d="M645.27 511.34L645.7 510.55L646.49 510.12L645.7 509.69L645.27 508.9L644.84 509.69L644.05 510.12L644.84 510.55L645.27 511.34Z" fill="black"/>
<path d="M648.64 511.34L649.08 510.55L649.87 510.12L649.08 509.69L648.64 508.9L648.21 509.69L647.42 510.12L648.21 510.55L648.64 511.34Z" fill="black"/>
<path d="M652.07 511.34L652.5 510.55L653.29 510.12L652.5 509.69L652.07 508.9L651.64 509.69L650.84 510.12L651.64 510.55L652.07 511.34Z" fill="black"/>
<path d="M643.55 513.82L643.99 513.03L644.78 512.6L643.99 512.16L643.55 511.37L643.12 512.16L642.33 512.6L643.12 513.03L643.55 513.82Z" fill="black"/>
<path d="M646.93 513.82L647.36 513.03L648.15 512.6L647.36 512.16L646.93 511.37L646.49 512.16L645.7 512.6L646.49 513.03L646.93 513.82Z" fill="black"/>
<path d="M650.35 513.82L650.78 513.03L651.58 512.6L650.78 512.16L650.35 511.37L649.92 512.16L649.13 512.6L649.92 513.03L650.35 513.82Z" fill="black"/>
<path d="M645.27 516.3L645.7 515.51L646.49 515.07L645.7 514.64L645.27 513.85L644.84 514.64L644.05 515.07L644.84 515.51L645.27 516.3Z" fill="black"/>
<path d="M648.64 516.3L649.08 515.51L649.87 515.07L649.08 514.64L648.64 513.85L648.21 514.64L647.42 515.07L648.21 515.51L648.64 516.3Z" fill="black"/>
<path d="M652.07 516.3L652.5 515.51L653.29 515.07L652.5 514.64L652.07 513.85L651.64 514.64L650.84 515.07L651.64 515.51L652.07 516.3Z" fill="black"/>
<path d="M650.35 518.77L650.78 517.98L651.58 517.55L650.78 517.12L650.35 516.33L649.92 517.12L649.13 517.55L649.92 517.98L650.35 518.77Z" fill="black"/>
<path d="M652.07 521.36L652.5 520.56L653.29 520.13L652.5 519.7L652.07 518.91L651.64 519.7L650.84 520.13L651.64 520.56L652.07 521.36Z" fill="black"/>
<path d="M650.35 523.83L650.78 523.04L651.58 522.61L650.78 522.18L650.35 521.39L649.92 522.18L649.13 522.61L649.92 523.04L650.35 523.83Z" fill="black"/>
<path d="M652.07 526.31L652.5 525.52L653.29 525.09L652.5 524.65L652.07 523.86L651.64 524.65L650.84 525.09L651.64 525.52L652.07 526.31Z" fill="black"/>
<path d="M650.35 528.79L650.78 528L651.58 527.56L650.78 527.13L650.35 526.34L649.92 527.13L649.13 527.56L649.92 528L650.35 528.79Z" fill="black"/>
<path d="M654.27 513.82L654.7 513.03L655.49 512.6L654.7 512.16L654.27 511.37L653.83 512.16L653.04 512.6L653.83 513.03L654.27 513.82Z" fill="black"/>
<path d="M655.98 516.3L656.41 515.51L657.21 515.07L656.41 514.64L655.98 513.85L655.55 514.64L654.76 515.07L655.55 515.51L655.98 516.3Z" fill="black"/>
<path d="M654.27 518.77L654.7 517.98L655.49 517.55L654.7 517.12L654.27 516.33L653.83 517.12L653.04 517.55L653.83 517.98L654.27 518.77Z" fill="black"/>
<path d="M655.98 521.36L656.41 520.56L657.21 520.13L656.41 519.7L655.98 518.91L655.55 519.7L654.76 520.13L655.55 520.56L655.98 521.36Z" fill="black"/>
<path d="M654.27 523.83L654.7 523.04L655.49 522.61L654.7 522.18L654.27 521.39L653.83 522.18L653.04 522.61L653.83 523.04L654.27 523.83Z" fill="black"/>
<path d="M655.98 526.31L656.41 525.52L655.98 525.37L656.41 524.65L655.98 523.86L655.55 524.65L654.76 525.09L655.55 525.52L655.98 526.31Z" fill="black"/>
<path d="M654.27 528.79L654.7 528L655.49 527.56L654.7 527.13L654.27 526.34L653.83 527.13L653.04 527.56L653.83 528L654.27 528.79Z" fill="black"/>
<path d="M733.35 690.49H724.67V631.1L729.01 621.42L733.35 631.1V690.49Z" fill="#25AAE1" stroke="black" stroke-width="3" stroke-miterlimit="10" stroke-linecap="round" stroke-linejoin="round"/>
<path d="M730.45 687.99L722.13 690.48L705.1 633.6L705.93 622.83L713.41 631.11L730.45 687.99Z" fill="#FFDE16" stroke="black" stroke-width="3" stroke-miterlimit="10" stroke-linecap="round" stroke-linejoin="round"/>
<path d="M733.59 702.74H710.27C707.88 702.74 705.93 700.79 705.93 698.4V668.96C705.93 668.21 706.55 667.59 707.3 667.59H736.55C737.3 667.59 737.92 668.21 737.92 668.96V698.4C737.93 700.79 735.97 702.74 733.59 702.74Z" fill="#FF6CE0" stroke="black" stroke-width="3" stroke-miterlimit="10" stroke-linecap="round" stroke-linejoin="round"/>
<path d="M735.52 678.15L735.08 678.94L734.29 679.37L735.08 679.8L735.52 680.59L735.95 679.8L736.74 679.37L735.95 678.94L735.52 678.15Z" fill="black"/>
<path d="M732.14 678.15L731.71 678.94L730.92 679.37L731.71 679.8L732.14 680.59L732.58 679.8L733.37 679.37L732.58 678.94L732.14 678.15Z" fill="black"/>
<path d="M737.23 675.67L736.8 676.46L736.01 676.89L736.8 677.33L737.23 678.12L737.67 677.33L738.46 676.89L737.67 676.46L737.23 675.67Z" fill="black"/>
<path d="M733.86 675.67L733.43 676.46L732.64 676.89L733.43 677.33L733.86 678.12L734.29 677.33L735.08 676.89L734.29 676.46L733.86 675.67Z" fill="black"/>
<path d="M730.43 675.67L730 676.46L729.21 676.89L730 677.33L730.43 678.12L730.87 677.33L731.66 676.89L730.87 676.46L730.43 675.67Z" fill="black"/>
<path d="M735.52 673.19L735.08 673.99L734.29 674.42L735.08 674.85L735.52 675.64L735.95 674.85L736.74 674.42L735.95 673.99L735.52 673.19Z" fill="black"/>
<path d="M732.14 673.19L731.71 673.99L730.92 674.42L731.71 674.85L732.14 675.64L732.58 674.85L733.37 674.42L732.58 673.99L732.14 673.19Z" fill="black"/>
<path d="M737.23 670.72L736.8 671.51L736.01 671.94L736.8 672.37L737.23 673.16L737.67 672.37L738.46 671.94L737.67 671.51L737.23 670.72Z" fill="black"/>
<path d="M733.86 670.72L733.43 671.51L732.64 671.94L733.43 672.37L733.86 673.16L734.29 672.37L735.08 671.94L734.29 671.51L733.86 670.72Z" fill="black"/>
<path d="M730.43 670.72L730 671.51L729.21 671.94L730 672.37L730.43 673.16L730.87 672.37L731.66 671.94L730.87 671.51L730.43 670.72Z" fill="black"/>
<path d="M735.52 668.13L735.08 668.93L734.29 669.36L735.08 669.79L735.52 670.58L735.95 669.79L736.74 669.36L735.95 668.93L735.52 668.13Z" fill="black"/>
<path d="M732.14 668.13L731.71 668.93L730.92 669.36L731.71 669.79L732.14 670.58L732.58 669.79L733.37 669.36L732.58 668.93L732.14 668.13Z" fill="black"/>
<path d="M735.52 698.27L735.08 699.06L734.29 699.49L735.08 699.92L735.52 700.72L735.95 699.92L736.74 699.49L735.95 699.06L735.52 698.27Z" fill="black"/>
<path d="M732.14 698.27L731.71 699.06L730.92 699.49L731.71 699.92L732.14 700.72L732.58 699.92L733.37 699.49L732.58 699.06L732.14 698.27Z" fill="black"/>
<path d="M737.23 695.79L736.8 696.58L736.01 697.01L736.8 697.45L737.23 698.24L737.67 697.45L738.46 697.01L737.67 696.58L737.23 695.79Z" fill="black"/>
<path d="M733.86 695.79L733.43 696.58L732.64 697.01L733.43 697.45L733.86 698.24L734.29 697.45L735.08 697.01L734.29 696.58L733.86 695.79Z" fill="black"/>
<path d="M730.43 695.79L730 696.58L729.21 697.01L730 697.45L730.43 698.24L730.87 697.45L731.66 697.01L730.87 696.58L730.43 695.79Z" fill="black"/>
<path d="M735.52 693.31L735.08 694.11L734.29 694.54L735.08 694.97L735.52 695.76L735.95 694.97L736.74 694.54L735.95 694.11L735.52 693.31Z" fill="black"/>
<path d="M732.14 693.31L731.71 694.11L730.92 694.54L731.71 694.97L732.14 695.76L732.58 694.97L733.37 694.54L732.58 694.11L732.14 693.31Z" fill="black"/>
<path d="M737.23 690.84L736.8 691.63L736.01 692.06L736.8 692.49L737.23 693.28L737.67 692.49L738.46 692.06L737.67 691.63L737.23 690.84Z" fill="black"/>
<path d="M733.86 690.84L733.43 691.63L732.64 692.06L733.43 692.49L733.86 693.28L734.29 692.49L735.08 692.06L734.29 691.63L733.86 690.84Z" fill="black"/>
<path d="M730.43 690.84L730 691.63L729.21 692.06L730 692.49L730.43 693.28L730.87 692.49L731.66 692.06L730.87 691.63L730.43 690.84Z" fill="black"/>
<path d="M735.52 688.26L735.08 689.05L734.29 689.48L735.08 689.91L735.52 690.7L735.95 689.91L736.74 689.48L735.95 689.05L735.52 688.26Z" fill="black"/>
<path d="M732.14 688.26L731.71 689.05L730.92 689.48L731.71 689.91L732.14 690.7L732.58 689.91L733.37 689.48L732.58 689.05L732.14 688.26Z" fill="black"/>
<path d="M737.23 685.78L736.8 686.57L736.01 687L736.8 687.43L737.23 688.22L737.67 687.43L738.46 687L737.67 686.57L737.23 685.78Z" fill="black"/>
<path d="M733.86 685.78L733.43 686.57L732.64 687L733.43 687.43L733.86 688.22L734.29 687.43L735.08 687L734.29 686.57L733.86 685.78Z" fill="black"/>
<path d="M730.43 685.78L730 686.57L729.21 687L730 687.43L730.43 688.22L730.87 687.43L731.66 687L730.87 686.57L730.43 685.78Z" fill="black"/>
<path d="M735.52 683.3L735.08 684.09L734.29 684.53L735.08 684.96L735.52 685.75L735.95 684.96L736.74 684.53L735.95 684.09L735.52 683.3Z" fill="black"/>
<path d="M732.14 683.3L731.71 684.09L730.92 684.53L731.71 684.96L732.14 685.75L732.58 684.96L733.37 684.53L732.58 684.09L732.14 683.3Z" fill="black"/>
<path d="M737.23 680.82L736.8 681.62L736.01 682.05L736.8 682.48L737.23 683.27L737.67 682.48L738.46 682.05L737.67 681.62L737.23 680.82Z" fill="black"/>
<path d="M733.86 680.82L733.43 681.62L732.64 682.05L733.43 682.48L733.86 683.27L734.29 682.48L735.08 682.05L734.29 681.62L733.86 680.82Z" fill="black"/>
<path d="M730.43 680.82L730 681.62L729.21 682.05L730 682.48L730.43 683.27L730.87 682.48L731.66 682.05L730.87 681.62L730.43 680.82Z" fill="black"/>
<path d="M733.86 701.02L733.43 701.81L732.64 702.24L733.43 702.68L733.86 703.47L734.29 702.68L735.08 702.24L734.29 701.81L733.86 701.02Z" fill="black"/>
<path d="M730.43 701.02L730 701.81L729.21 702.24L730 702.68L730.43 703.47L730.87 702.68L731.66 702.24L730.87 701.81L730.43 701.02Z" fill="black"/>
<path d="M648.74 569.87C648.1 569.23 647.78 568.37 647.78 567.27V546.36C647.78 545.29 648.1 544.44 648.74 543.8C649.38 543.16 650.24 542.84 651.34 542.84C652.46 542.84 653.35 543.16 654 543.8C654.65 544.44 654.98 545.29 654.98 546.36V567.28C654.98 568.37 654.65 569.24 654 569.88C653.35 570.52 652.46 570.84 651.34 570.84C650.24 570.83 649.37 570.51 648.74 569.87Z" fill="black"/>
<path d="M667.19 569.83C666.53 569.19 666.19 568.34 666.19 567.27V548.86H660.68C659.53 548.86 658.68 548.62 658.12 548.14C657.56 547.66 657.28 546.92 657.28 545.93C657.28 544.94 657.56 544.21 658.12 543.74C658.68 543.27 659.53 543.04 660.68 543.04H678.97C680.12 543.04 680.97 543.28 681.53 543.74C682.09 544.21 682.37 544.94 682.37 545.93C682.37 546.92 682.09 547.66 681.53 548.14C680.97 548.62 680.12 548.86 678.97 548.86H673.46V567.27C673.46 568.34 673.13 569.19 672.46 569.83C671.8 570.47 670.92 570.79 669.82 570.79C668.73 570.79 667.85 570.47 667.19 569.83Z" fill="black"/>
<path d="M685.641 569.87C685.001 569.23 684.681 568.37 684.681 567.27V546.36C684.681 545.29 685.001 544.44 685.641 543.8C686.281 543.16 687.141 542.84 688.241 542.84C689.361 542.84 690.251 543.16 690.901 543.8C691.551 544.44 691.881 545.29 691.881 546.36V567.28C691.881 568.37 691.551 569.24 690.901 569.88C690.251 570.52 689.361 570.84 688.241 570.84C687.141 570.83 686.281 570.51 685.641 569.87Z" fill="black"/>
<path d="M702.64 569.21C700.57 568.05 698.97 566.41 697.85 564.28C696.73 562.16 696.17 559.66 696.17 556.79C696.17 553.92 696.73 551.43 697.85 549.3C698.97 547.18 700.57 545.54 702.64 544.39C704.71 543.24 707.15 542.67 709.97 542.67C712.78 542.67 715.23 543.25 717.3 544.39C719.37 545.54 720.96 547.17 722.07 549.3C723.18 551.42 723.73 553.92 723.73 556.79C723.73 559.66 723.17 562.15 722.05 564.28C720.93 566.4 719.33 568.05 717.26 569.21C715.19 570.37 712.76 570.95 709.97 570.95C707.16 570.95 704.71 570.37 702.64 569.21ZM714.86 563.23C716.03 561.76 716.62 559.61 716.62 556.8C716.62 553.99 716.03 551.85 714.84 550.39C713.65 548.93 712.03 548.2 709.97 548.2C707.88 548.2 706.26 548.92 705.08 550.37C703.91 551.82 703.32 553.96 703.32 556.8C703.32 559.64 703.91 561.79 705.08 563.25C706.25 564.71 707.88 565.44 709.97 565.44C712.06 565.44 713.69 564.7 714.86 563.23Z" fill="black"/>
</g>
<path d="M38.7959 76.7908C38.7959 76.7908 40.1475 73.2047 40.0233 64.707" stroke="black" stroke-width="3" stroke-miterlimit="10" stroke-linecap="round" stroke-linejoin="round"/>
<path d="M39.3056 73.2465C39.3056 73.2465 49.7182 67.8604 40.6985 53.1953C40.6985 53.1953 30.479 59.9488 39.3056 73.2465Z" fill="#00D384" stroke="black" stroke-width="3" stroke-miterlimit="10" stroke-linecap="round" stroke-linejoin="round"/>
<path d="M26.1622 54.6886C30.8375 58.5258 31.5409 65.4747 27.7482 70.2049C23.9555 74.9351 17.0874 75.6468 12.412 71.8095C7.73668 67.9723 2.06836 49.0933 2.06836 49.0933C2.06836 49.0933 21.4869 50.8514 26.1622 54.6886Z" fill="#00D384" stroke="black" stroke-width="3" stroke-miterlimit="10" stroke-linecap="round" stroke-linejoin="round"/>
<path d="M15.0049 61.0649C15.0049 61.0649 24.59 62.9347 27.7483 70.1905" stroke="black" stroke-width="3" stroke-miterlimit="10" stroke-linecap="round" stroke-linejoin="round"/>
<path d="M58.931 80.0421C58.931 80.0421 44.2155 85.4002 27.4863 69.563" stroke="black" stroke-width="3" stroke-miterlimit="10" stroke-linecap="round" stroke-linejoin="round"/>
<defs>
<clipPath id="clip0">
<rect width="122.59" height="196.24" fill="white" transform="translate(619 508)"/>
</clipPath>
</defs>
</svg>
