<svg width="970" height="858" viewBox="0 0 970 858" fill="none" xmlns="http://www.w3.org/2000/svg">
<path d="M91.5186 123.54C91.5186 102.829 108.308 86.04 129.019 86.04H920C946.785 86.04 968.5 107.754 968.5 134.54V784.063C968.5 804.774 951.71 821.563 931 821.563H129.019C108.308 821.563 91.5186 804.773 91.5186 784.063V123.54Z" fill="black" stroke="black" stroke-width="3"/>
<path d="M75.9033 95.0644C75.9033 74.3537 92.6926 57.5645 113.403 57.5645H902.547C929.333 57.5645 951.047 79.2786 951.047 106.064V755.587C951.047 776.298 934.258 793.087 913.547 793.087H113.403C92.6926 793.087 75.9033 776.298 75.9033 755.587V95.0644Z" fill="white" stroke="black" stroke-width="3"/>
<path d="M75.9033 95.0644C75.9033 74.3537 92.6926 57.5645 113.403 57.5645H902.547C929.333 57.5645 951.047 79.2786 951.047 106.064V755.587C951.047 776.298 934.258 793.087 913.547 793.087H113.403C92.6926 793.087 75.9033 776.298 75.9033 755.587V95.0644Z" fill="white" stroke="black" stroke-width="3"/>
<path d="M75.3213 113.934H950.25" stroke="black" stroke-width="3"/>
<circle cx="124.925" cy="87.2955" r="7.68561" stroke="black" stroke-width="3"/>
<circle cx="152.482" cy="87.2955" r="7.68561" stroke="black" stroke-width="3"/>
<circle cx="180.038" cy="87.2955" r="7.68561" stroke="black" stroke-width="3"/>
<path d="M898.353 80.8652L915.353 97.8652" stroke="black" stroke-width="3"/>
<path d="M915.853 80.8652L898.853 97.8652" stroke="black" stroke-width="3"/>
<g clip-path="url(#clip0)">
<path d="M149.453 713.029V838.528C149.453 848.605 141.294 856.774 131.23 856.774H28.4625C21.472 856.774 15.403 852.837 12.3447 847.054C14.5213 847.977 16.9123 848.494 19.4225 848.494H122.19C132.255 848.494 140.421 840.325 140.421 830.232V704.725C140.421 701.647 139.658 698.736 138.324 696.199C144.861 698.975 149.453 705.457 149.453 713.029Z" fill="black" stroke="black" stroke-width="3" stroke-miterlimit="10" stroke-linecap="round" stroke-linejoin="round"/>
<path d="M126.495 848.478H15.1246C7.4272 848.478 1.19141 842.234 1.19141 834.527V700.423C1.19141 692.715 7.4272 686.471 15.1246 686.471H126.495C134.192 686.471 140.428 692.715 140.428 700.423V834.535C140.42 842.234 134.184 848.478 126.495 848.478Z" fill="#25AAE1" stroke="black" stroke-width="3" stroke-miterlimit="10"/>
<path d="M78.1738 830.129H54.2236L50.7363 805.885H81.3116L78.1738 830.129Z" fill="#ED684A" stroke="black" stroke-width="3" stroke-miterlimit="10" stroke-linecap="round" stroke-linejoin="round"/>
<path d="M83.9329 800.794H48.3135V809.25H83.9329V800.794Z" fill="#ED684A" stroke="black" stroke-width="3" stroke-miterlimit="10" stroke-linecap="round" stroke-linejoin="round"/>
<path d="M66.1226 800.675V766.997C66.1226 766.997 64.7245 747.104 78.7531 747.104" stroke="black" stroke-width="3" stroke-miterlimit="10" stroke-linecap="round" stroke-linejoin="round"/>
<path d="M73.5105 748.266C73.5105 748.266 74.0665 734.402 67.791 734.402" stroke="black" stroke-width="3" stroke-miterlimit="10" stroke-linecap="round" stroke-linejoin="round"/>
<path d="M74.162 787.527C72.2158 788.068 70.1981 786.93 69.6579 784.99C69.1177 783.041 70.2537 781.021 72.1919 780.48C74.1381 779.939 80.3421 781.999 80.3421 781.999C80.3421 781.999 76.1082 786.986 74.162 787.527Z" fill="#00D384" stroke="black" stroke-width="3" stroke-miterlimit="10" stroke-linecap="round" stroke-linejoin="round"/>
<path d="M73.4394 784.528C73.4394 784.528 72.6689 785.793 69.6582 784.99" stroke="black" stroke-width="3" stroke-miterlimit="10" stroke-linecap="round" stroke-linejoin="round"/>
<path d="M69.8802 785.037C69.8167 785.053 69.7531 785.069 69.6896 785.093C68.0849 785.554 66.9569 786.087 66.1943 786.556" stroke="black" stroke-width="3" stroke-miterlimit="10" stroke-linecap="round" stroke-linejoin="round"/>
<path d="M60.8169 772.732C61.9211 773.401 63.3589 773.043 64.0261 771.937C64.6934 770.831 64.3359 769.392 63.2318 768.724C62.1276 768.055 57.9492 768.27 57.9492 768.27C57.9492 768.27 59.7048 772.064 60.8169 772.732Z" fill="#00D384" stroke="black" stroke-width="3" stroke-miterlimit="10" stroke-linecap="round" stroke-linejoin="round"/>
<path d="M62.5723 770.927C62.5723 770.927 63.6447 772.001 64.026 771.937" stroke="black" stroke-width="3" stroke-miterlimit="10" stroke-linecap="round" stroke-linejoin="round"/>
<path d="M63.7959 771.929C63.8515 771.961 63.9151 772.001 63.9627 772.033C64.8206 772.558 65.2575 772.86 65.7977 773.321" stroke="black" stroke-width="3" stroke-miterlimit="10" stroke-linecap="round" stroke-linejoin="round"/>
<path d="M73.3914 724.555C73.3914 718.216 68.2597 713.077 61.9286 713.077C61.2772 713.077 60.6418 713.133 60.0221 713.237C59.7123 711.256 58.0044 709.737 55.9391 709.737C54.1279 709.737 52.5948 710.898 52.0308 712.521C50.6486 710.604 48.4005 709.355 45.8665 709.355C41.6723 709.355 38.2724 712.759 38.2724 716.959C38.2724 718.319 38.6298 719.592 39.2494 720.697C35.8178 721.429 33.252 724.483 33.252 728.134C33.252 731.706 35.7145 734.704 39.0349 735.524C38.3359 736.772 37.9308 738.204 37.9308 739.731C37.9308 744.48 41.7755 748.33 46.5179 748.33C49.4571 748.33 52.0467 746.85 53.5957 744.599C55.1686 746.317 57.4246 747.391 59.9348 747.391C64.6771 747.391 68.5219 743.541 68.5219 738.793C68.5219 737.281 68.1326 735.866 67.4495 734.633C70.9844 732.668 73.3914 728.898 73.3914 724.555Z" fill="#FF6CE0" stroke="black" stroke-width="3" stroke-miterlimit="10" stroke-linecap="round" stroke-linejoin="round"/>
<path d="M53.3172 737.401C58.0466 737.401 61.8805 733.562 61.8805 728.826C61.8805 724.091 58.0466 720.252 53.3172 720.252C48.5878 720.252 44.7539 724.091 44.7539 728.826C44.7539 733.562 48.5878 737.401 53.3172 737.401Z" fill="#FFDE16" stroke="black" stroke-width="3" stroke-miterlimit="10" stroke-linecap="round" stroke-linejoin="round"/>
<path d="M115.564 748.735C115.564 743.104 111.108 738.515 105.531 738.308V738.3C105.531 734.601 102.536 731.603 98.8425 731.603C96.3164 731.603 94.124 733.002 92.988 735.07C91.8362 734.132 90.3746 733.567 88.7699 733.567C85.0761 733.567 82.0814 736.566 82.0814 740.264C82.0814 741.092 82.2402 741.887 82.5183 742.619C79.1899 744.361 76.918 747.853 76.918 751.869C76.918 757.636 81.5809 762.305 87.3401 762.305C87.348 762.305 87.356 762.305 87.3639 762.305C87.348 762.472 87.3401 762.631 87.3401 762.798C87.3401 766.497 90.3348 769.495 94.0287 769.495C96.944 769.495 99.4224 767.618 100.336 765.017C101.575 766.234 103.275 766.99 105.15 766.99C108.939 766.99 112.013 763.912 112.013 760.118C112.013 759.052 111.759 758.042 111.33 757.135C113.896 755.242 115.564 752.188 115.564 748.735Z" fill="#FF6CE0" stroke="black" stroke-width="3" stroke-miterlimit="10" stroke-linecap="round" stroke-linejoin="round"/>
<path d="M96.2292 758.678C100.726 758.678 104.371 755.028 104.371 750.525C104.371 746.022 100.726 742.372 96.2292 742.372C91.7323 742.372 88.0869 746.022 88.0869 750.525C88.0869 755.028 91.7323 758.678 96.2292 758.678Z" fill="#FFDE16" stroke="black" stroke-width="3" stroke-miterlimit="10" stroke-linecap="round" stroke-linejoin="round"/>
<path d="M101.011 749.698L101.329 749.117L101.909 748.799L101.329 748.481L101.011 747.9L100.693 748.481L100.113 748.799L100.693 749.117L101.011 749.698Z" fill="black"/>
<path d="M103.522 749.698L103.839 749.117L104.419 748.799L103.839 748.481L103.522 747.9L103.204 748.481L102.624 748.799L103.204 749.117L103.522 749.698Z" fill="black"/>
<path d="M99.7482 751.519L100.066 750.938L100.646 750.62L100.066 750.302L99.7482 749.721L99.4305 750.302L98.8506 750.62L99.4305 750.938L99.7482 751.519Z" fill="black"/>
<path d="M102.258 751.519L102.576 750.938L103.164 750.62L102.576 750.302L102.258 749.721L101.948 750.302L101.36 750.62L101.948 750.938L102.258 751.519Z" fill="black"/>
<path d="M101.011 753.341L101.329 752.76L101.909 752.442L101.329 752.124L101.011 751.543L100.693 752.124L100.113 752.442L100.693 752.76L101.011 753.341Z" fill="black"/>
<path d="M103.522 753.341L103.839 752.76L104.419 752.442L103.839 752.124L103.522 751.543L103.204 752.124L102.624 752.442L103.204 752.76L103.522 753.341Z" fill="black"/>
<path d="M99.7482 755.162L100.066 754.581L100.646 754.263L100.066 753.945L99.7482 753.364L99.4305 753.945L98.8506 754.263L99.4305 754.581L99.7482 755.162Z" fill="black"/>
<path d="M102.258 755.162L102.576 754.581L103.164 754.263L102.576 753.945L102.258 753.364L101.948 753.945L101.36 754.263L101.948 754.581L102.258 755.162Z" fill="black"/>
<path d="M98.5324 757.055L98.8501 756.474L99.43 756.156L98.8501 755.838L98.5324 755.257L98.2146 755.838L97.6348 756.156L98.2146 756.474L98.5324 757.055Z" fill="black"/>
<path d="M101.011 757.055L101.329 756.474L101.909 756.156L101.329 755.838L101.011 755.257L100.693 755.838L100.113 756.156L100.693 756.474L101.011 757.055Z" fill="black"/>
<path d="M97.2697 758.876L97.5875 758.296L98.1674 757.977L97.5875 757.659L97.2697 757.079L96.952 757.659L96.3721 757.977L96.952 758.296L97.2697 758.876Z" fill="black"/>
<path d="M99.7482 757.977L100.066 758.296L100.646 757.977L100.066 757.659L99.7482 757.079L99.4305 757.659L98.8506 757.977L99.4305 758.296L99.7482 757.977Z" fill="black"/>
<path d="M97.2697 744.09L97.5875 743.509L98.1674 743.191L97.5875 742.873L97.2697 742.292L96.952 742.873L96.3721 743.191L96.952 743.509L97.2697 744.09Z" fill="black"/>
<path d="M99.7482 744.09L100.066 743.509L100.646 743.191L100.066 742.873H99.4305L98.8506 743.191L99.4305 743.509L99.7482 744.09Z" fill="black"/>
<path d="M98.5324 745.911L98.8501 745.331L99.43 745.013L98.8501 744.694L98.5324 744.114L98.2146 744.694L97.6348 745.013L98.2146 745.331L98.5324 745.911Z" fill="black"/>
<path d="M101.011 745.911L101.329 745.331L101.909 745.013L101.329 744.694L101.011 744.114L100.693 744.694L100.113 745.013L100.693 745.331L101.011 745.911Z" fill="black"/>
<path d="M99.7482 747.733L100.066 747.153L100.646 746.834L100.066 746.516L99.7482 745.936L99.4305 746.516L98.8506 746.834L99.4305 747.153L99.7482 747.733Z" fill="black"/>
<path d="M102.258 747.733L102.576 747.153L103.164 746.834L102.576 746.516L102.258 745.936L101.948 746.516L101.36 746.834L101.948 747.153L102.258 747.733Z" fill="black"/>
<path d="M71.3176 721.914L71.6353 721.333L72.2152 721.015L71.6353 720.697L71.3176 720.116L70.9998 720.697L70.4199 721.015L70.9998 721.333L71.3176 721.914Z" fill="black"/>
<path d="M70.0628 723.735L70.3726 723.154L70.9604 722.836L70.3726 722.518L70.0628 721.938L69.7451 722.518L69.1572 722.836L69.7451 723.154L70.0628 723.735Z" fill="black"/>
<path d="M72.5334 723.735L72.8511 723.154L73.431 722.836L72.8511 722.518L72.5334 721.938L72.2156 722.518L71.6357 722.836L72.2156 723.154L72.5334 723.735Z" fill="black"/>
<path d="M71.3176 725.557L71.6353 724.976L72.2152 724.658L71.6353 724.34L71.3176 723.751L70.9998 724.34L70.4199 724.658L70.9998 724.976L71.3176 725.557Z" fill="black"/>
<path d="M70.0628 727.37L70.3726 726.79L70.9604 726.472L70.3726 726.153L70.0628 725.573L69.7451 726.153L69.1572 726.472L69.7451 726.79L70.0628 727.37Z" fill="black"/>
<path d="M72.5334 727.37L72.8511 726.79L73.431 726.472L72.8511 726.153L72.5334 725.573L72.2156 726.153L71.6357 726.472L72.2156 726.79L72.5334 727.37Z" fill="black"/>
<path d="M71.3176 729.271L71.6353 728.691L72.2152 728.372L71.6353 728.054L71.3176 727.474L70.9998 728.054L70.4199 728.372L70.9998 728.691L71.3176 729.271Z" fill="black"/>
<path d="M70.0628 731.093L70.3726 730.512L70.9604 730.194L70.3726 729.876L70.0628 729.295L69.7451 729.876L69.1572 730.194L69.7451 730.512L70.0628 731.093Z" fill="black"/>
<path d="M70.0628 719.949L70.3726 719.369L70.9604 719.051L70.3726 718.732L70.0628 718.152L69.7451 718.732L69.1572 719.051L69.7451 719.369L70.0628 719.949Z" fill="black"/>
<path d="M56.0656 736.757L56.3834 736.176L56.9632 735.858L56.3834 735.54L56.0656 734.959L55.7479 735.54L55.168 735.858L55.7479 736.176L56.0656 736.757Z" fill="black"/>
<path d="M58.5363 736.757L58.854 736.176L59.4339 735.858L58.854 735.54L58.5363 734.959L58.2186 735.54L57.6387 735.858L58.2186 736.176L58.5363 736.757Z" fill="black"/>
<path d="M61.0539 736.757L61.3716 736.176L61.9515 735.858L61.3716 735.54L61.0539 734.959L60.7361 735.54L60.1562 735.858L60.7361 736.176L61.0539 736.757Z" fill="black"/>
<path d="M57.2814 738.578L57.5992 737.997L58.1791 737.679L57.5992 737.361L57.2814 736.78L56.9637 737.361L56.3838 737.679L56.9637 737.997L57.2814 738.578Z" fill="black"/>
<path d="M59.7912 738.578L60.1089 737.997L60.6888 737.679L60.1089 737.361L59.7912 736.78L59.4734 737.361L58.8936 737.679L59.4734 737.997L59.7912 738.578Z" fill="black"/>
<path d="M56.0656 721.914L56.3834 721.334L56.9632 721.016L56.3834 720.697L56.0656 720.117L55.7479 720.697L55.168 721.016L55.7479 721.334L56.0656 721.914Z" fill="black"/>
<path d="M58.5363 721.914L58.854 721.334L59.4339 721.016L58.854 720.697L58.5363 720.117L58.2186 720.697L57.6387 721.016L58.2186 721.334L58.5363 721.914Z" fill="black"/>
<path d="M61.0539 721.914L61.3716 721.334L61.9515 721.016L61.3716 720.697L61.0539 720.117L60.7361 720.697L60.1562 721.016L60.7361 721.334L61.0539 721.914Z" fill="black"/>
<path d="M57.2814 723.736L57.5992 723.155L58.1791 722.837L57.5992 722.519L57.2814 721.938L56.9637 722.519L56.3838 722.837L56.9637 723.155L57.2814 723.736Z" fill="black"/>
<path d="M59.7912 723.736L60.1089 723.155L60.6888 722.837L60.1089 722.519L59.7912 721.938L59.4734 722.519L58.8936 722.837L59.4734 723.155L59.7912 723.736Z" fill="black"/>
<path d="M58.5363 725.557L58.854 724.976L59.4339 724.658L58.854 724.34L58.5363 723.751L58.2186 724.34L57.6387 724.658L58.2186 724.976L58.5363 725.557Z" fill="black"/>
<path d="M61.0539 725.557L61.3716 724.976L61.9515 724.658L61.3716 724.34L61.0539 723.751L60.7361 724.34L60.1562 724.658L60.7361 724.976L61.0539 725.557Z" fill="black"/>
<path d="M59.7912 727.371L60.1089 726.79L60.6888 726.472L60.1089 726.154L59.7912 725.573L59.4734 726.154L58.8936 726.472L59.4734 726.79L59.7912 727.371Z" fill="black"/>
<path d="M61.0539 729.272L61.3716 728.691L61.9515 728.373L61.3716 728.055L61.0539 727.474L60.7361 728.055L60.1562 728.373L60.7361 728.691L61.0539 729.272Z" fill="black"/>
<path d="M59.7912 731.093L60.1089 730.512L60.6888 730.194L60.1089 729.876L59.7912 729.295L59.4734 729.876L58.8936 730.194L59.4734 730.512L59.7912 731.093Z" fill="black"/>
<path d="M58.5363 732.915L58.854 732.334L59.4339 732.016L58.854 731.698L58.5363 731.117L58.2186 731.698L57.6387 732.016L58.2186 732.334L58.5363 732.915Z" fill="black"/>
<path d="M61.0539 732.915L61.3716 732.334L61.9515 732.016L61.3716 731.698L61.0539 731.117L60.7361 731.698L60.1562 732.016L60.7361 732.334L61.0539 732.915Z" fill="black"/>
<path d="M57.2814 734.736L57.5992 734.148L58.1791 733.829L57.5992 733.519L57.2814 732.931L56.9637 733.519L56.3838 733.829L56.9637 734.148L57.2814 734.736Z" fill="black"/>
<path d="M59.7912 734.736L60.1089 734.148L60.6888 733.829L60.1089 733.519L59.7912 732.931L59.4734 733.519L58.8936 733.829L59.4734 734.148L59.7912 734.736Z" fill="black"/>
<path d="M54.8029 712.592L55.1207 712.011L55.7005 711.693L55.1207 711.375L54.8029 710.794L54.4852 711.375L53.9053 711.693L54.4852 712.011L54.8029 712.592Z" fill="black"/>
<path d="M57.2814 712.592L57.5992 712.011L58.1791 711.693L57.5992 711.375L57.2814 710.794L56.9637 711.375L56.3838 711.693L56.9637 712.011L57.2814 712.592Z" fill="black"/>
<path d="M56.0656 714.485L56.3834 713.904L56.9632 713.586L56.3834 713.268L56.0656 712.688L55.7479 713.268L55.168 713.586L55.7479 713.904L56.0656 714.485Z" fill="black"/>
<path d="M58.5363 714.485L58.854 713.904L59.4339 713.586L58.854 713.268L58.5363 712.688L58.2186 713.268L57.6387 713.586L58.2186 713.904L58.5363 714.485Z" fill="black"/>
<path d="M61.0549 714.485L61.3726 713.904L61.9525 713.586L61.3726 713.268L61.0549 712.688L60.7371 713.268L60.1572 713.586L60.7371 713.904L61.0549 714.485Z" fill="black"/>
<path d="M57.2814 716.306L57.5992 715.726L58.1791 715.408L57.5992 715.089L57.2814 714.509L56.9637 715.089L56.3838 715.408L56.9637 715.726L57.2814 716.306Z" fill="black"/>
<path d="M59.7912 716.306L60.1089 715.726L60.6888 715.408L60.1089 715.089L59.7912 714.509L59.4734 715.089L58.8936 715.408L59.4734 715.726L59.7912 716.306Z" fill="black"/>
<path d="M56.0656 718.128L56.3834 717.548L56.9632 717.229L56.3834 716.911L56.0656 716.331L55.7479 716.911L55.168 717.229L55.7479 717.548L56.0656 718.128Z" fill="black"/>
<path d="M58.5363 718.128L58.854 717.548L59.4339 717.229L58.854 716.911L58.5363 716.331L58.2186 716.911L57.6387 717.229L58.2186 717.548L58.5363 718.128Z" fill="black"/>
<path d="M61.0549 718.128L61.3726 717.548L61.9525 717.229L61.3726 716.911L61.0549 716.331L60.7371 716.911L60.1572 717.229L60.7371 717.548L61.0549 718.128Z" fill="black"/>
<path d="M54.8029 719.949L55.1207 719.369L55.7005 719.051L55.1207 718.732L54.8029 718.152L54.4852 718.732L53.9053 719.051L54.4852 719.369L54.8029 719.949Z" fill="black"/>
<path d="M57.2814 719.949L57.5992 719.369L58.1791 719.051L57.5992 718.732L57.2814 718.152L56.9637 718.732L56.3838 719.051L56.9637 719.369L57.2814 719.949Z" fill="black"/>
<path d="M59.7912 719.949L60.1089 719.369L60.6888 719.051L60.1089 718.732L59.7912 718.152L59.4734 718.732L58.8936 719.051L59.4734 719.369L59.7912 719.949Z" fill="black"/>
<path d="M63.9221 736.757L64.2398 736.176L64.8197 735.858L64.2398 735.54L63.9221 734.959L63.6043 735.54L63.0244 735.858L63.6043 736.176L63.9221 736.757Z" fill="black"/>
<path d="M66.4006 736.757L66.7183 736.176L67.2982 735.858L66.7183 735.54L66.4006 734.959L66.0828 735.54L65.5029 735.858L66.0828 736.176L66.4006 736.757Z" fill="black"/>
<path d="M62.6672 738.578L62.9849 737.997L63.5648 737.679L62.9849 737.361L62.6672 736.78L62.3494 737.361L61.7695 737.679L62.3494 737.997L62.6672 738.578Z" fill="black"/>
<path d="M65.1379 738.578L65.4556 737.997L66.0355 737.679L65.4556 737.361L65.1379 736.78L64.8201 737.361L64.2402 737.679L64.8201 737.997L65.1379 738.578Z" fill="black"/>
<path d="M67.6554 738.578L67.9732 737.997L68.5531 737.679L67.9732 737.361L67.6554 736.78L67.3377 737.361L66.7578 737.679L67.3377 737.997L67.6554 738.578Z" fill="black"/>
<path d="M63.9221 721.914L64.2398 721.334L64.8197 721.016L64.2398 720.697L63.9221 720.117L63.6043 720.697L63.0244 721.016L63.6043 721.334L63.9221 721.914Z" fill="black"/>
<path d="M66.4006 721.914L66.7183 721.334L67.2982 721.016L66.7183 720.697L66.4006 720.117L66.0828 720.697L65.5029 721.016L66.0828 721.334L66.4006 721.914Z" fill="black"/>
<path d="M68.9113 721.914L69.2291 721.334L69.8089 721.016L69.2291 720.697L68.9113 720.117L68.5936 720.697L68.0137 721.016L68.5936 721.334L68.9113 721.914Z" fill="black"/>
<path d="M62.6672 723.736L62.9849 723.155L63.5648 722.837L62.9849 722.519L62.6672 721.938L62.3494 722.519L61.7695 722.837L62.3494 723.155L62.6672 723.736Z" fill="black"/>
<path d="M65.1379 723.736L65.4556 723.155L66.0355 722.837L65.4556 722.519L65.1379 721.938L64.8201 722.519L64.2402 722.837L64.8201 723.155L65.1379 723.736Z" fill="black"/>
<path d="M67.6554 723.736L67.9732 723.155L68.5531 722.837L67.9732 722.519L67.6554 721.938L67.3377 722.519L66.7578 722.837L67.3377 723.155L67.6554 723.736Z" fill="black"/>
<path d="M63.9221 725.557L64.2398 724.976L64.8197 724.658L64.2398 724.34L63.9221 723.751L63.6043 724.34L63.0244 724.658L63.6043 724.976L63.9221 725.557Z" fill="black"/>
<path d="M66.4006 725.557L66.7183 724.976L67.2982 724.658L66.7183 724.34L66.4006 723.751L66.0828 724.34L65.5029 724.658L66.0828 724.976L66.4006 725.557Z" fill="black"/>
<path d="M68.9113 725.557L69.2291 724.976L69.8089 724.658L69.2291 724.34L68.9113 723.751L68.5936 724.34L68.0137 724.658L68.5936 724.976L68.9113 725.557Z" fill="black"/>
<path d="M62.6672 727.371L62.9849 726.79L63.5648 726.472L62.9849 726.154L62.6672 725.573L62.3494 726.154L61.7695 726.472L62.3494 726.79L62.6672 727.371Z" fill="black"/>
<path d="M65.1379 727.371L65.4556 726.79L66.0355 726.472L65.4556 726.154L65.1379 725.573L64.8201 726.154L64.2402 726.472L64.8201 726.79L65.1379 727.371Z" fill="black"/>
<path d="M67.6554 727.371L67.9732 726.79L68.5531 726.472L67.9732 726.154L67.6554 725.573L67.3377 726.154L66.7578 726.472L67.3377 726.79L67.6554 727.371Z" fill="black"/>
<path d="M63.9221 729.272L64.2398 728.691L64.8197 728.373L64.2398 728.055L63.9221 727.474L63.6043 728.055L63.0244 728.373L63.6043 728.691L63.9221 729.272Z" fill="black"/>
<path d="M66.4006 729.272L66.7183 728.691L67.2982 728.373L66.7183 728.055L66.4006 727.474L66.0828 728.055L65.5029 728.373L66.0828 728.691L66.4006 729.272Z" fill="black"/>
<path d="M68.9113 729.272L69.2291 728.691L69.8089 728.373L69.2291 728.055L68.9113 727.474L68.5936 728.055L68.0137 728.373L68.5936 728.691L68.9113 729.272Z" fill="black"/>
<path d="M62.6672 731.093L62.9849 730.512L63.5648 730.194L62.9849 729.876L62.6672 729.295L62.3494 729.876L61.7695 730.194L62.3494 730.512L62.6672 731.093Z" fill="black"/>
<path d="M65.1379 731.093L65.4556 730.512L66.0355 730.194L65.4556 729.876L65.1379 729.295L64.8201 729.876L64.2402 730.194L64.8201 730.512L65.1379 731.093Z" fill="black"/>
<path d="M67.6554 731.093L67.9732 730.512L68.5531 730.194L67.9732 729.876L67.6554 729.295L67.3377 729.876L66.7578 730.194L67.3377 730.512L67.6554 731.093Z" fill="black"/>
<path d="M63.9221 732.915L64.2398 732.334L64.8197 732.016L64.2398 731.698L63.9221 731.117L63.6043 731.698L63.0244 732.016L63.6043 732.334L63.9221 732.915Z" fill="black"/>
<path d="M66.4006 732.915L66.7183 732.334L67.2982 732.016L66.7183 731.698L66.4006 731.117L66.0828 731.698L65.5029 732.016L66.0828 732.334L66.4006 732.915Z" fill="black"/>
<path d="M68.9113 732.915L69.2291 732.334L69.8089 732.016L69.2291 731.698L68.9113 731.117L68.5936 731.698L68.0137 732.016L68.5936 732.334L68.9113 732.915Z" fill="black"/>
<path d="M62.6672 734.736L62.9849 734.148L63.5648 733.829L62.9849 733.519L62.6672 732.931L62.3494 733.519L61.7695 733.829L62.3494 734.148L62.6672 734.736Z" fill="black"/>
<path d="M65.1379 734.736L65.4556 734.148L66.0355 733.829L65.4556 733.519L65.1379 732.931L64.8201 733.519L64.2402 733.829L64.8201 734.148L65.1379 734.736Z" fill="black"/>
<path d="M67.6554 734.736L67.9732 734.148L68.5531 733.829L67.9732 733.519L67.6554 732.931L67.3377 733.519L66.7578 733.829L67.3377 734.148L67.6554 734.736Z" fill="black"/>
<path d="M63.9221 714.485L64.2398 713.904L64.8197 713.586L64.2398 713.268L63.9221 712.688L63.6043 713.268L63.0244 713.586L63.6043 713.904L63.9221 714.485Z" fill="black"/>
<path d="M62.6672 716.306L62.9849 715.726L63.5648 715.408L62.9849 715.089L62.6672 714.509L62.3494 715.089L61.7695 715.408L62.3494 715.726L62.6672 716.306Z" fill="black"/>
<path d="M65.1379 716.306L65.4556 715.726L66.0355 715.408L65.4556 715.089L65.1379 714.509L64.8201 715.089L64.2402 715.408L64.8201 715.726L65.1379 716.306Z" fill="black"/>
<path d="M67.6554 716.306L67.9732 715.726L68.5531 715.408L67.9732 715.089L67.6554 714.509L67.3377 715.089L66.7578 715.408L67.3377 715.726L67.6554 716.306Z" fill="black"/>
<path d="M63.9221 718.128L64.2398 717.548L64.8197 717.229L64.2398 716.911L63.9221 716.331L63.6043 716.911L63.0244 717.229L63.6043 717.548L63.9221 718.128Z" fill="black"/>
<path d="M66.4006 718.128L66.7183 717.548L67.2982 717.229L66.7183 716.911L66.4006 716.331L66.0828 716.911L65.5029 717.229L66.0828 717.548L66.4006 718.128Z" fill="black"/>
<path d="M68.9113 718.128L69.2291 717.548L69.8089 717.229L69.2291 716.911L68.9113 716.331L68.5936 716.911L68.0137 717.229L68.5936 717.548L68.9113 718.128Z" fill="black"/>
<path d="M62.6672 719.949L62.9849 719.369L63.5648 719.051L62.9849 718.732L62.6672 718.152L62.3494 718.732L61.7695 719.051L62.3494 719.369L62.6672 719.949Z" fill="black"/>
<path d="M65.1379 719.949L65.4556 719.369L66.0355 719.051L65.4556 718.732L65.1379 718.152L64.8201 718.732L64.2402 719.051L64.8201 719.369L65.1379 719.949Z" fill="black"/>
<path d="M67.6554 719.949L67.9732 719.369L68.5531 719.051L67.9732 718.732L67.6554 718.152L67.3377 718.732L66.7578 719.051L67.3377 719.369L67.6554 719.949Z" fill="black"/>
<path d="M60.006 742.396L60.3238 741.815L60.9037 741.497L60.3238 741.179L60.006 740.598L59.6883 741.179L59.1084 741.497L59.6883 741.815L60.006 742.396Z" fill="black"/>
<path d="M62.5246 742.396L62.8423 741.815L63.4222 741.497L62.8423 741.179L62.5246 740.598L62.2068 741.179L61.627 741.497L62.2068 741.815L62.5246 742.396Z" fill="black"/>
<path d="M61.2609 744.217L61.5787 743.636L62.1586 743.318L61.5787 743L61.2609 742.419L60.9432 743L60.3633 743.318L60.9432 743.636L61.2609 744.217Z" fill="black"/>
<path d="M60.006 746.039L60.3238 745.458L60.9037 745.14L60.3238 744.822L60.006 744.241L59.6883 744.822L59.1084 745.14L59.6883 745.458L60.006 746.039Z" fill="black"/>
<path d="M62.5246 746.039L62.8423 745.458L63.4222 745.14L62.8423 744.822L62.5246 744.241L62.2068 744.822L61.627 745.14L62.2068 745.458L62.5246 746.039Z" fill="black"/>
<path d="M58.7511 747.279H59.0689L59.6488 746.961L59.0689 746.643L58.7511 746.062L58.4334 746.643L57.8535 746.961L58.4334 747.279H58.7511Z" fill="black"/>
<path d="M61.2609 747.279H61.5787L62.1586 746.961L61.5787 746.643L61.2609 746.062L60.9432 746.643L60.3633 746.961L60.9432 747.279H61.2609Z" fill="black"/>
<path d="M58.7511 740.375L59.0689 739.795L59.6488 739.476L59.0689 739.158L58.7511 738.578L58.4334 739.158L57.8535 739.476L58.4334 739.795L58.7511 740.375Z" fill="black"/>
<path d="M61.2609 740.375L61.5787 739.795L62.1586 739.476L61.5787 739.158L61.2609 738.578L60.9432 739.158L60.3633 739.476L60.9432 739.795L61.2609 740.375Z" fill="black"/>
<path d="M65.3918 742.396L65.7095 741.815L66.2894 741.497L65.7095 741.179L65.3918 740.598L65.074 741.179L64.4941 741.497L65.074 741.815L65.3918 742.396Z" fill="black"/>
<path d="M67.8703 742.396L68.188 741.815V741.179L67.8703 740.598L67.5525 741.179L66.9727 741.497L67.5525 741.815L67.8703 742.396Z" fill="black"/>
<path d="M64.1369 744.217L64.4546 743.636L65.0345 743.318L64.4546 743L64.1369 742.419L63.8191 743L63.2393 743.318L63.8191 743.636L64.1369 744.217Z" fill="black"/>
<path d="M66.6076 744.217L66.9253 743.636L67.5052 743.318L66.9253 743L66.6076 742.419L66.2898 743L65.71 743.318L66.2898 743.636L66.6076 744.217Z" fill="black"/>
<path d="M65.503 745.848L65.7095 745.458L66.2894 745.14L65.7095 744.822L65.3918 744.241L65.074 744.822L64.4941 745.14L65.074 745.458L65.503 745.848Z" fill="black"/>
<path d="M64.1369 740.375L64.4546 739.795L65.0345 739.476L64.4546 739.158L64.1369 738.578L63.8191 739.158L63.2393 739.476L63.8191 739.795L64.1369 740.375Z" fill="black"/>
<path d="M66.6076 740.375L66.9253 739.795L67.5052 739.476L66.9253 739.158L66.6076 738.578L66.2898 739.158L65.71 739.476L66.2898 739.795L66.6076 740.375Z" fill="black"/>
<path d="M75.6476 823.415L75.9654 822.835L76.5453 822.516L75.9654 822.198L75.6476 821.618L75.3299 822.198L74.75 822.516L75.3299 822.835L75.6476 823.415Z" fill="black"/>
<path d="M75.6476 808.573L75.9654 807.992L76.5453 807.674L75.9654 807.356L75.6476 806.775L75.3299 807.356L74.75 807.674L75.3299 807.992L75.6476 808.573Z" fill="black"/>
<path d="M75.6476 812.216L75.9654 811.635L76.5453 811.317L75.9654 810.999L75.6476 810.418L75.3299 810.999L74.75 811.317L75.3299 811.635L75.6476 812.216Z" fill="black"/>
<path d="M75.6476 815.93L75.9654 815.35L76.5453 815.032L75.9654 814.713L75.6476 814.133L75.3299 814.713L74.75 815.032L75.3299 815.35L75.6476 815.93Z" fill="black"/>
<path d="M75.6476 819.573L75.9654 818.993L76.5453 818.675L75.9654 818.357L75.6476 817.776L75.3299 818.357L74.75 818.675L75.3299 818.993L75.6476 819.573Z" fill="black"/>
<path d="M75.6476 804.787L75.9654 804.206L76.5453 803.888L75.9654 803.57L75.6476 802.989L75.3299 803.57L74.75 803.888L75.3299 804.206L75.6476 804.787Z" fill="black"/>
<path d="M78.5148 823.415L78.8326 822.835L79.4125 822.516L78.8326 822.198L78.5148 821.618L78.1971 822.198L77.6172 822.516L78.1971 822.835L78.5148 823.415Z" fill="black"/>
<path d="M77.2599 825.237L77.5777 824.656L78.1576 824.338L77.5777 824.02L77.2599 823.439L76.9422 824.02L76.3623 824.338L76.9422 824.656L77.2599 825.237Z" fill="black"/>
<path d="M78.5148 808.573L78.8326 807.992L79.4125 807.674L78.8326 807.356L78.5148 806.775L78.1971 807.356L77.6172 807.674L78.1971 807.992L78.5148 808.573Z" fill="black"/>
<path d="M80.9933 808.573L81.3111 807.992L81.891 807.674L81.3111 807.356L80.9933 806.775L80.6756 807.356L80.0957 807.674L80.6756 807.992L80.9933 808.573Z" fill="black"/>
<path d="M77.2599 810.394L77.5777 809.814L78.1576 809.495L77.5777 809.177L77.2599 808.597L76.9422 809.177L76.3623 809.495L76.9422 809.814L77.2599 810.394Z" fill="black"/>
<path d="M79.7307 810.394L80.0484 809.814L80.6283 809.495L80.0484 809.177L79.7307 808.597L79.4129 809.177L78.833 809.495L79.4129 809.814L79.7307 810.394Z" fill="black"/>
<path d="M78.5148 812.216L78.8326 811.635L79.4125 811.317L78.8326 810.999L78.5148 810.418L78.1971 810.999L77.6172 811.317L78.1971 811.635L78.5148 812.216Z" fill="black"/>
<path d="M77.2599 814.037L77.5777 813.457L78.1576 813.139L77.5777 812.82L77.2599 812.24L76.9422 812.82L76.3623 813.139L76.9422 813.457L77.2599 814.037Z" fill="black"/>
<path d="M79.7307 814.037L80.0484 813.457L80.6283 813.139L80.0484 812.82L79.7307 812.24L79.4129 812.82L78.833 813.139L79.4129 813.457L79.7307 814.037Z" fill="black"/>
<path d="M78.5148 815.93L78.8326 815.35L79.4125 815.032L78.8326 814.713L78.5148 814.133L78.1971 814.713L77.6172 815.032L78.1971 815.35L78.5148 815.93Z" fill="black"/>
<path d="M77.2599 817.752L77.5777 817.171L78.1576 816.853L77.5777 816.535L77.2599 815.954L76.9422 816.535L76.3623 816.853L76.9422 817.171L77.2599 817.752Z" fill="black"/>
<path d="M79.7307 817.752L80.0484 817.171L80.6283 816.853L80.0484 816.535L79.7307 815.954L79.4129 816.535L78.833 816.853L79.4129 817.171L79.7307 817.752Z" fill="black"/>
<path d="M78.5148 819.573L78.8326 818.993L79.4125 818.675L78.8326 818.357L78.5148 817.776L78.1971 818.357L77.6172 818.675L78.1971 818.993L78.5148 819.573Z" fill="black"/>
<path d="M77.2599 821.395L77.5777 820.814L78.1576 820.496L77.5777 820.178L77.2599 819.597L76.9422 820.178L76.3623 820.496L76.9422 820.814L77.2599 821.395Z" fill="black"/>
<path d="M77.2599 802.966L77.5777 802.385L78.1576 802.067L77.5777 801.749L77.2599 801.168L76.9422 801.749L76.3623 802.067L76.9422 802.385L77.2599 802.966Z" fill="black"/>
<path d="M79.7307 802.966L80.0484 802.385L80.6283 802.067L80.0484 801.749L79.7307 801.168L79.4129 801.749L78.833 802.067L79.4129 802.385L79.7307 802.966Z" fill="black"/>
<path d="M82.2482 802.966L82.566 802.385L83.1459 802.067L82.566 801.749L82.2482 801.168L81.9305 801.749L81.3506 802.067L81.9305 802.385L82.2482 802.966Z" fill="black"/>
<path d="M78.5148 804.787L78.8326 804.206L79.4125 803.888L78.8326 803.57L78.5148 802.989L78.1971 803.57L77.6172 803.888L78.1971 804.206L78.5148 804.787Z" fill="black"/>
<path d="M80.9933 804.787L81.3111 804.206L81.891 803.888L81.3111 803.57L80.9933 802.989L80.6756 803.57L80.0957 803.888L80.6756 804.206L80.9933 804.787Z" fill="black"/>
<path d="M77.2599 806.609L77.5777 806.028L78.1576 805.71L77.5777 805.392L77.2599 804.811L76.9422 805.392L76.3623 805.71L76.9422 806.028L77.2599 806.609Z" fill="black"/>
<path d="M79.7307 806.609L80.0484 806.028L80.6283 805.71L80.0484 805.392L79.7307 804.811L79.4129 805.392L78.833 805.71L79.4129 806.028L79.7307 806.609Z" fill="black"/>
<path d="M82.2482 806.609L82.566 806.028L83.1459 805.71L82.566 805.392L82.2482 804.811L81.9305 805.392L81.3506 805.71L81.9305 806.028L82.2482 806.609Z" fill="black"/>
<path d="M77.1174 829.063L77.4351 828.474L78.015 828.156L77.4351 827.838L77.1174 827.257L76.7996 827.838L76.2197 828.156L76.7996 828.474L77.1174 829.063Z" fill="black"/>
<path d="M75.8547 830.876L76.1724 830.296L76.7523 829.977L76.1724 829.659L75.8547 829.079L75.5369 829.659L74.957 829.977L75.5369 830.296L75.8547 830.876Z" fill="black"/>
<path d="M75.8547 827.034L76.1724 826.454L76.7523 826.136L76.1724 825.817L75.8547 825.237L75.5369 825.817L74.957 826.136L75.5369 826.454L75.8547 827.034Z" fill="black"/>
<path d="M78.7306 827.034L79.0484 826.454L79.6283 826.136L79.0484 825.817L78.7306 825.237L78.4129 825.817L77.833 826.136L78.4129 826.454L78.7306 827.034Z" fill="black"/>
<path d="M105.269 759.664L105.586 759.076L106.166 758.758L105.586 758.447L105.269 757.859L104.951 758.447L104.371 758.758L104.951 759.076L105.269 759.664Z" fill="black"/>
<path d="M107.747 759.664L108.057 759.076L108.645 758.758L108.057 758.447L107.747 757.859L107.43 758.447L106.842 758.758L107.43 759.076L107.747 759.664Z" fill="black"/>
<path d="M110.257 759.664L110.575 759.076L111.155 758.758L110.575 758.447L110.257 757.859L109.939 758.447L109.359 758.758L109.939 759.076L110.257 759.664Z" fill="black"/>
<path d="M106.485 761.478L106.802 760.897L107.382 760.579L106.802 760.261L106.485 759.68L106.167 760.261L105.587 760.579L106.167 760.897L106.485 761.478Z" fill="black"/>
<path d="M108.994 761.478L109.312 760.897L109.892 760.579L109.312 760.261L108.994 759.68L108.677 760.261L108.097 760.579L108.677 760.897L108.994 761.478Z" fill="black"/>
<path d="M105.269 744.822L105.586 744.242L106.166 743.923L105.586 743.605L105.269 743.017L104.951 743.605L104.371 743.923L104.951 744.242L105.269 744.822Z" fill="black"/>
<path d="M107.747 744.822L108.057 744.242L108.645 743.923L108.057 743.605L107.747 743.017L107.43 743.605L106.842 743.923L107.43 744.242L107.747 744.822Z" fill="black"/>
<path d="M110.257 744.822L110.575 744.242L111.155 743.923L110.575 743.605L110.257 743.017L109.939 743.605L109.359 743.923L109.939 744.242L110.257 744.822Z" fill="black"/>
<path d="M106.485 746.635L106.802 746.055L107.382 745.737L106.802 745.419L106.485 744.838L106.167 745.419L105.587 745.737L106.167 746.055L106.485 746.635Z" fill="black"/>
<path d="M108.994 746.635L109.312 746.055L109.892 745.737L109.312 745.419L108.994 744.838L108.677 745.419L108.097 745.737L108.677 746.055L108.994 746.635Z" fill="black"/>
<path d="M107.747 748.457L108.057 747.877L108.645 747.558L108.057 747.24L107.747 746.66L107.43 747.24L106.842 747.558L107.43 747.877L107.747 748.457Z" fill="black"/>
<path d="M110.257 748.457L110.575 747.877L111.155 747.558L110.575 747.24L110.257 746.66L109.939 747.24L109.359 747.558L109.939 747.877L110.257 748.457Z" fill="black"/>
<path d="M108.994 750.279L109.312 749.698L109.892 749.38L109.312 749.062L108.994 748.481L108.677 749.062L108.097 749.38L108.677 749.698L108.994 750.279Z" fill="black"/>
<path d="M110.257 752.179L110.575 751.599L111.155 751.281L110.575 750.962L110.257 750.382L109.939 750.962L109.359 751.281L109.939 751.599L110.257 752.179Z" fill="black"/>
<path d="M108.994 754.001L109.312 753.412L109.892 753.094L109.312 752.776L108.994 752.195L108.677 752.776L108.097 753.094L108.677 753.412L108.994 754.001Z" fill="black"/>
<path d="M107.747 755.815L108.057 755.234L108.645 754.916L108.057 754.598L107.747 754.017L107.43 754.598L106.842 754.916L107.43 755.234L107.747 755.815Z" fill="black"/>
<path d="M110.257 755.815L110.575 755.234L111.155 754.916L110.575 754.598L110.257 754.017L109.939 754.598L109.359 754.916L109.939 755.234L110.257 755.815Z" fill="black"/>
<path d="M106.485 757.636L106.802 757.055L107.382 756.737L106.802 756.419L106.485 755.838L106.167 756.419L105.587 756.737L106.167 757.055L106.485 757.636Z" fill="black"/>
<path d="M108.994 757.636L109.312 757.055L109.892 756.737L109.312 756.419L108.994 755.838L108.677 756.419L108.097 756.737L108.677 757.055L108.994 757.636Z" fill="black"/>
<path d="M104.006 735.492L104.324 734.911L104.904 734.593L104.324 734.275L104.006 733.694L103.688 734.275L103.108 734.593L103.688 734.911L104.006 735.492Z" fill="black"/>
<path d="M105.269 737.393L105.586 736.812L106.166 736.494L105.586 736.176L105.269 735.595L104.951 736.176L104.371 736.494L104.951 736.812L105.269 737.393Z" fill="black"/>
<path d="M106.485 739.215L106.802 738.634L107.382 738.316L106.802 737.998L106.485 737.417L106.167 737.998L105.587 738.316L106.167 738.634L106.485 739.215Z" fill="black"/>
<path d="M105.269 741.028L105.586 740.447L106.166 740.129L105.586 739.811L105.269 739.23L104.951 739.811L104.371 740.129L104.951 740.447L105.269 741.028Z" fill="black"/>
<path d="M107.747 741.028L108.057 740.447L108.645 740.129L108.057 739.811L107.747 739.23L107.43 739.811L106.842 740.129L107.43 740.447L107.747 741.028Z" fill="black"/>
<path d="M110.258 741.028L110.576 740.447L111.156 740.129L110.576 739.811L110.258 739.23L109.94 739.811L109.36 740.129L109.94 740.447L110.258 741.028Z" fill="black"/>
<path d="M104.006 742.849L104.324 742.269L104.904 741.951L104.324 741.632L104.006 741.052L103.688 741.632L103.108 741.951L103.688 742.269L104.006 742.849Z" fill="black"/>
<path d="M106.485 742.849L106.802 742.269L107.382 741.951L106.802 741.632L106.485 741.052L106.167 741.632L105.587 741.951L106.167 742.269L106.485 742.849Z" fill="black"/>
<path d="M108.994 742.849L109.312 742.269L109.892 741.951L109.312 741.632L108.994 741.052L108.677 741.632L108.097 741.951L108.677 742.269L108.994 742.849Z" fill="black"/>
<path d="M113.125 744.822L113.443 744.242L114.031 743.923L113.443 743.605L113.125 743.017L112.815 743.605L112.228 743.923L112.815 744.242L113.125 744.822Z" fill="black"/>
<path d="M111.87 746.635L112.188 746.055L112.768 745.737L112.188 745.419L111.87 744.838L111.553 745.419L110.973 745.737L111.553 746.055L111.87 746.635Z" fill="black"/>
<path d="M114.349 746.635L114.659 746.055L115.247 745.737L114.659 745.419L114.349 744.838L114.031 745.419L113.443 745.737L114.031 746.055L114.349 746.635Z" fill="black"/>
<path d="M113.125 748.457L113.443 747.877L114.031 747.558L113.443 747.24L113.125 746.66L112.815 747.24L112.228 747.558L112.815 747.877L113.125 748.457Z" fill="black"/>
<path d="M115.604 748.457L115.921 747.877L116.501 747.558L115.921 747.24L115.604 746.66L115.286 747.24L114.706 747.558L115.286 747.877L115.604 748.457Z" fill="black"/>
<path d="M111.87 750.279L112.188 749.698L112.768 749.38L112.188 749.062L111.87 748.481L111.553 749.062L110.973 749.38L111.553 749.698L111.87 750.279Z" fill="black"/>
<path d="M114.349 750.279L114.659 749.698L115.247 749.38L114.659 749.062L114.349 748.481L114.031 749.062L113.443 749.38L114.031 749.698L114.349 750.279Z" fill="black"/>
<path d="M113.125 752.179L113.443 751.599L114.031 751.281L113.443 750.962L113.125 750.382L112.815 750.962L112.228 751.281L112.815 751.599L113.125 752.179Z" fill="black"/>
<path d="M115.604 752.179L115.921 751.599V750.962L115.604 750.382L115.286 750.962L114.706 751.281L115.286 751.599L115.604 752.179Z" fill="black"/>
<path d="M111.87 754.001L112.188 753.412L112.768 753.094L112.188 752.776L111.87 752.195L111.553 752.776L110.973 753.094L111.553 753.412L111.87 754.001Z" fill="black"/>
<path d="M114.349 754.001L114.659 753.412L115.247 753.094L114.659 752.776L114.349 752.195L114.031 752.776L113.443 753.094L114.031 753.412L114.349 754.001Z" fill="black"/>
<path d="M113.125 755.815L113.443 755.234L114.031 754.916L113.443 754.598L113.125 754.017L112.815 754.598L112.228 754.916L112.815 755.234L113.125 755.815Z" fill="black"/>
<path d="M111.87 757.636L112.188 757.055L112.768 756.737L112.188 756.419L111.87 755.838L111.553 756.419L110.973 756.737L111.553 757.055L111.87 757.636Z" fill="black"/>
<path d="M111.87 742.849L112.188 742.269L112.768 741.951L112.188 741.632L111.87 741.052L111.553 741.632L110.973 741.951L111.553 742.269L111.87 742.849Z" fill="black"/>
<path d="M109.217 765.303L109.535 764.723L110.115 764.405L109.535 764.087L109.217 763.506L108.899 764.087L108.319 764.405L108.899 764.723L109.217 765.303Z" fill="black"/>
<path d="M107.954 763.275L108.272 762.695L108.852 762.376L108.272 762.058L107.954 761.478L107.637 762.058L107.057 762.376L107.637 762.695L107.954 763.275Z" fill="black"/>
<path d="M110.473 763.275L110.791 762.695L111.37 762.376L110.791 762.058L110.473 761.478L110.155 762.058L109.575 762.376L110.155 762.695L110.473 763.275Z" fill="black"/>
</g>
<g clip-path="url(#clip1)">
<path d="M871.254 28.8662C871.254 28.8662 874.157 30.5288 881.523 31.5668" stroke="black" stroke-width="3" stroke-miterlimit="10" stroke-linecap="round" stroke-linejoin="round"/>
<path d="M874.239 29.7938C874.239 29.7938 877.473 39.6132 891.361 33.7068C891.361 33.6976 886.915 23.869 874.239 29.7938Z" fill="#00D384" stroke="black" stroke-width="3" stroke-miterlimit="10" stroke-linecap="round" stroke-linejoin="round"/>
<path d="M853.599 28.5812C858.431 30.8041 860.544 36.5268 858.321 41.3584C856.098 46.19 850.375 48.3027 845.543 46.0798C840.712 43.8569 831.756 29.1324 831.756 29.1324C831.756 29.1324 848.768 26.3491 853.599 28.5812Z" fill="#00D384" stroke="black" stroke-width="3" stroke-miterlimit="10" stroke-linecap="round" stroke-linejoin="round"/>
<path d="M891.71 21.7012C887.761 25.2652 881.671 24.9529 878.107 21.0031C874.543 17.0532 874.846 10.9632 878.796 7.39917C882.745 3.83516 899.812 1.41016 899.812 1.41016C899.812 1.41016 895.66 18.1371 891.71 21.7012Z" fill="#00D384" stroke="black" stroke-width="3" stroke-miterlimit="10" stroke-linecap="round" stroke-linejoin="round"/>
<path d="M887.715 11.1011C887.715 11.1011 884.803 19.2212 878.098 21.0032" stroke="black" stroke-width="3" stroke-miterlimit="10" stroke-linecap="round" stroke-linejoin="round"/>
<path d="M857.705 40.7886C857.705 40.7886 868.406 44.3526 868.406 56.0091" stroke="black" stroke-width="3" stroke-miterlimit="10" stroke-linecap="round" stroke-linejoin="round"/>
<path d="M865.365 46.9155C865.365 46.9155 862.738 33.3392 878.685 20.856" stroke="black" stroke-width="3" stroke-miterlimit="10" stroke-linecap="round" stroke-linejoin="round"/>
</g>
<defs>
<clipPath id="clip0">
<rect width="150.644" height="172.689" fill="white" transform="translate(0 685.278)"/>
</clipPath>
<clipPath id="clip1">
<rect width="70.8118" height="57.3549" fill="white" transform="translate(830.378 0.0322266)"/>
</clipPath>
</defs>
</svg>
