<svg width="59" height="59" viewBox="0 0 59 59" fill="none" xmlns="http://www.w3.org/2000/svg">
<path d="M14.6965 4.45264C17.5732 7.27485 20.4769 10.0702 23.3133 12.9394C24.1333 13.7659 23.9518 14.7067 22.9839 15.681C20.6852 17.9993 18.4 20.331 16.0475 22.5887C15.2544 23.348 15.2611 23.9259 15.8794 24.7659C21.0616 31.808 27.1646 37.9161 34.2086 43.1036C35.0622 43.7352 35.647 43.7285 36.3931 42.9557C38.6111 40.6644 40.8896 38.4267 43.148 36.1824C44.4654 34.8654 45.2854 34.8788 46.623 36.2093C48.9351 38.5141 51.2406 40.8189 53.546 43.1372C53.9089 43.5 54.2114 43.9166 54.5475 44.3064C54.5475 44.6759 54.5475 45.0455 54.5475 45.4218C50.9986 49.2923 47.5841 53.3509 42.0793 54.547C41.4139 54.547 40.7418 54.547 40.0764 54.547C35.9293 53.6398 32.414 51.456 29.0533 48.9966C23.1049 44.6289 17.8286 39.522 13.0968 33.8776C9.36644 29.3957 5.81756 24.7793 4.45312 18.9199C4.45312 18.2546 4.45312 17.5827 4.45312 16.9174C5.71674 11.4611 9.71595 8.00728 13.5807 4.45264C13.9504 4.45264 14.3268 4.45264 14.6965 4.45264Z" fill="#00D384" stroke="black" stroke-width="3" stroke-miterlimit="10" stroke-linecap="round" stroke-linejoin="round"/>
</svg>
