<svg width="169" height="131" viewBox="0 0 169 131" fill="none" xmlns="http://www.w3.org/2000/svg">
<g clip-path="url(#clip0security)">
<path d="M25.841 123.33C30.4811 119.412 31.0493 112.495 27.1036 107.886C23.158 103.278 16.1926 102.714 11.5525 106.633C6.91236 110.551 1.57782 129.433 1.57782 129.433C1.57782 129.433 21.1904 127.259 25.841 123.33Z" fill="#00D384" stroke="black" stroke-width="3" stroke-miterlimit="10" stroke-linecap="round" stroke-linejoin="round"/>
<path d="M18.9491 113.895C18.9491 113.895 23.0211 113.571 27.1035 107.886" stroke="black" stroke-width="3" stroke-miterlimit="10" stroke-linecap="round" stroke-linejoin="round"/>
<path d="M26.8516 108.524C27.0094 108.388 27.1672 108.263 27.3145 108.137C29.6293 106.204 31.7231 104.752 33.5645 103.665" stroke="black" stroke-width="3" stroke-miterlimit="10" stroke-linecap="round" stroke-linejoin="round"/>
<path d="M48.3796 108.67C45.4019 106.173 40.9512 106.549 38.4365 109.506C35.9218 112.463 36.3006 116.883 39.2782 119.38C42.2559 121.878 54.7979 123.226 54.7979 123.226C54.7979 123.226 51.3572 111.157 48.3796 108.67Z" fill="#00D384" stroke="black" stroke-width="3" stroke-miterlimit="10" stroke-linecap="round" stroke-linejoin="round"/>
<path d="M42.2871 113.173C42.2871 113.173 39.5935 109.495 38.4467 109.495" stroke="black" stroke-width="3" stroke-miterlimit="10" stroke-linecap="round" stroke-linejoin="round"/>
<path d="M39.1201 109.642C38.9623 109.506 38.8045 109.38 38.6572 109.255C36.3634 107.301 35.185 106.193 33.7961 104.574" stroke="black" stroke-width="3" stroke-miterlimit="10" stroke-linecap="round" stroke-linejoin="round"/>
<path d="M33.554 103.174C33.554 82.4949 50.5888 65.5673 71.4219 65.5673" stroke="black" stroke-width="3" stroke-miterlimit="10" stroke-linecap="round" stroke-linejoin="round"/>
</g>
<g clip-path="url(#clip1security)">
<path d="M103.5 130.593C139.45 130.593 168.593 101.45 168.593 65.4998C168.593 29.5499 139.45 0.406738 103.5 0.406738C67.5504 0.406738 38.4072 29.5499 38.4072 65.4998C38.4072 101.45 67.5504 130.593 103.5 130.593Z" fill="#9E6CFF" stroke="black" stroke-width="2" stroke-miterlimit="10" stroke-linecap="round" stroke-linejoin="round"/>
<path d="M157.802 64.3569L158.425 63.2136L159.568 62.5911L158.425 61.9645L157.802 60.8252L157.179 61.9645L156.036 62.5911L157.179 63.2136L157.802 64.3569Z" fill="black"/>
<path d="M162.746 64.3569L163.369 63.2136L164.512 62.5911L163.369 61.9645L162.746 60.8252L162.12 61.9645L160.98 62.5911L162.12 63.2136L162.746 64.3569Z" fill="black"/>
<path d="M157.09 66.1638L155.951 65.5413L155.324 64.3979L154.702 65.5413L153.559 66.1638L154.702 66.7904L155.324 67.9297" fill="black"/>
<path d="M160.268 67.9297L160.89 66.7904L162.034 66.1638L160.89 65.5413L160.268 64.3979L159.645 65.5413L158.502 66.1638L159.645 66.7904L160.268 67.9297Z" fill="black"/>
<path d="M157.802 35.2119L158.425 34.0726L159.568 33.446L158.425 32.8235L157.802 31.6802L157.179 32.8235L156.036 33.446L157.179 34.0726L157.802 35.2119Z" fill="black"/>
<path d="M155.324 38.7886L155.951 37.6452L157.09 37.0227L155.951 36.3961L155.324 35.2568L154.702 36.3961L153.559 37.0227L154.702 37.6452L155.324 38.7886Z" fill="black"/>
<path d="M160.268 38.7886L160.89 37.6452L162.034 37.0227L160.89 36.3961L160.268 35.2568L159.645 36.3961L158.502 37.0227L159.645 37.6452L160.268 38.7886Z" fill="black"/>
<path d="M157.802 42.3608L158.425 41.2175L159.568 40.595L158.425 39.9724L157.802 38.8291L157.179 39.9724L156.036 40.595L157.179 41.2175L157.802 42.3608Z" fill="black"/>
<path d="M162.746 42.3608L163.369 41.2175L163.812 40.9774L163.369 39.9724L162.746 38.8291L162.12 39.9724L160.98 40.595L162.12 41.2175L162.746 42.3608Z" fill="black"/>
<path d="M155.324 45.9334L155.951 44.7942L157.09 44.1716L155.951 43.545L155.324 42.4058L154.702 43.545L153.559 44.1716L154.702 44.7942L155.324 45.9334Z" fill="black"/>
<path d="M160.268 45.9334L160.89 44.7942L162.034 44.1676L160.89 43.545L160.268 42.4058L159.645 43.545L158.502 44.1716L159.645 44.7942L160.268 45.9334Z" fill="black"/>
<path d="M157.802 49.6602L158.425 48.5209L159.568 47.8943L158.425 47.2718L157.802 46.1284L157.179 47.2718L156.036 47.8943L157.179 48.5209L157.802 49.6602Z" fill="black"/>
<path d="M162.746 49.6602L163.369 48.5209L164.512 47.8943L163.369 47.2718L162.746 46.1284L162.12 47.2718L160.98 47.8943L162.12 48.5209L162.746 49.6602Z" fill="black"/>
<path d="M160.268 53.2368L160.89 52.0935L162.034 51.471L160.89 50.8444L160.268 49.7051L159.645 50.8444L158.502 51.471L159.645 52.0935L160.268 53.2368Z" fill="black"/>
<path d="M157.802 56.8091L158.425 55.6658L159.568 55.0432L158.425 54.4166L157.802 53.2773L157.179 54.4166L156.036 55.0432L157.179 55.6658L157.802 56.8091Z" fill="black"/>
<path d="M162.746 56.8091L163.369 55.6658L164.512 55.0432L163.369 54.4166L162.746 53.2773L162.12 54.4166L160.98 55.0432L162.12 55.6658L162.746 56.8091Z" fill="black"/>
<path d="M160.268 60.3818L160.89 59.2426L162.034 58.616L160.89 57.9934L160.268 56.8501L159.645 57.9934L158.502 58.616L159.645 59.2426L160.268 60.3818Z" fill="black"/>
<path d="M150.458 24.2015L151.085 23.0622L152.224 22.4356L151.085 21.8131L150.458 20.6738L149.836 21.8131L148.692 22.4356L149.836 23.0622L150.458 24.2015Z" fill="black"/>
<path d="M152.936 27.7783L153.558 26.635L154.702 26.0125L153.558 25.3859L152.936 24.2466L152.313 25.3859L151.17 26.0125L152.313 26.635L152.936 27.7783Z" fill="black"/>
<path d="M150.458 31.3506L151.085 30.2113L152.224 29.5847L151.085 28.9622L150.458 27.8188L149.836 28.9622L148.692 29.5847L149.836 30.2113L150.458 31.3506Z" fill="black"/>
<path d="M155.324 31.3506L155.951 30.2113L157.09 29.5847L155.951 28.9622L155.324 27.8188L154.702 28.9622L153.559 29.5847L154.702 30.2113L155.324 31.3506Z" fill="black"/>
<path d="M165.915 67.9292L166.538 66.7899L167.681 66.1633L166.538 65.5408L165.915 64.3975L165.289 65.5408L164.149 66.1633L165.289 66.7899L165.915 67.9292Z" fill="black"/>
<path d="M165.915 53.2368L166.538 52.0935L167.681 51.4709L166.538 50.8443L165.915 49.7051L165.289 50.8443L164.149 51.4709L165.289 52.0935L165.915 53.2368Z" fill="black"/>
<path d="M165.915 60.3818L166.538 59.2426L167.681 58.616L166.538 57.9934L165.915 56.8501L165.289 57.9934L164.149 58.616L165.289 59.2426L165.915 60.3818Z" fill="black"/>
<path d="M122.941 6.18067L123.563 5.0414L124.707 4.4148L123.563 3.79227L122.941 2.64893L122.318 3.79227L121.175 4.4148L122.318 5.0414L122.941 6.18067Z" fill="black"/>
<path d="M130.273 9.75733L130.895 8.61399L132.039 7.99146L130.895 7.36486L130.273 6.22559L129.65 7.36486L128.507 7.99146L129.65 8.61399L130.273 9.75733Z" fill="black"/>
<path d="M132.75 13.3296L133.373 12.1863L134.516 11.5637L133.373 10.9371L132.75 9.79785L132.124 10.9371L130.984 11.5637L132.124 12.1863L132.75 13.3296Z" fill="black"/>
<path d="M138.394 13.3296L139.02 12.1863L140.16 11.5637L139.02 10.9371L138.394 9.79785L137.771 10.9371L136.632 11.5637L137.771 12.1863L138.394 13.3296Z" fill="black"/>
<path d="M140.786 16.9023L141.409 15.7631L142.552 15.1365L141.409 14.5139L140.786 13.3706L140.16 14.5139L139.021 15.1365L140.16 15.7631L140.786 16.9023Z" fill="black"/>
<path d="M138.394 20.6289L139.02 19.4856L140.16 18.863L139.02 18.2405L138.394 17.0972L137.771 18.2405L136.632 18.863L137.771 19.4856L138.394 20.6289Z" fill="black"/>
<path d="M143.26 20.6289L143.886 19.4856L145.026 18.863L143.886 18.2405L143.26 17.0972L142.637 18.2405L141.498 18.863L142.637 19.4856L143.26 20.6289Z" fill="black"/>
<path d="M148.203 20.6289L148.83 19.4856L149.969 18.863L148.83 18.2405L148.203 17.0972L147.581 18.2405L146.438 18.863L147.581 19.4856L148.203 20.6289Z" fill="black"/>
<path d="M140.786 24.2015L141.409 23.0622L142.552 22.4356L141.409 21.8131L140.786 20.6738L140.16 21.8131L139.021 22.4356L140.16 23.0622L140.786 24.2015Z" fill="black"/>
<path d="M145.73 24.2015L146.352 23.0622L147.492 22.4356L146.352 21.8131L145.73 20.6738L145.103 21.8131L143.964 22.4356L145.103 23.0622L145.73 24.2015Z" fill="black"/>
<path d="M148.203 27.7778L148.83 26.6345L149.969 26.012L148.83 25.3854L148.203 24.2461L147.581 25.3854L146.438 26.012L147.581 26.6345L148.203 27.7778Z" fill="black"/>
<path d="M155.556 104.744L156.178 103.601L157.318 102.978L156.178 102.356L155.556 101.212L154.929 102.356L153.79 102.978L154.929 103.601L155.556 104.744Z" fill="black"/>
<path d="M153.078 108.321L153.701 107.177L154.844 106.555L153.701 105.928L153.078 104.789L152.452 105.928L151.312 106.555L152.452 107.177L153.078 108.321Z" fill="black"/>
<path d="M160.422 75.7129L161.045 74.5696L162.184 73.947L161.045 73.3204L160.422 72.1812L159.796 73.3204L158.656 73.947L159.796 74.5696L160.422 75.7129Z" fill="black"/>
<path d="M165.362 75.7129L165.988 74.5696L167.127 73.947L165.988 73.3204L165.362 72.1812L164.739 73.3204L163.596 73.947L164.739 74.5696L165.362 75.7129Z" fill="black"/>
<path d="M157.945 79.2857L158.567 78.1464L159.71 77.5198L158.567 76.8973L157.945 75.7539L157.318 76.8973L156.179 77.5198L157.318 78.1464L157.945 79.2857Z" fill="black"/>
<path d="M162.888 79.2857L163.51 78.1464L164.654 77.5198L163.51 76.8973L162.888 75.7539L162.261 76.8973L161.122 77.5198L162.261 78.1464L162.888 79.2857Z" fill="black"/>
<path d="M155.556 82.8578L156.178 81.7185L157.318 81.096L156.178 80.4694L155.556 79.3301L154.929 80.4694L153.79 81.096L154.929 81.7185L155.556 82.8578Z" fill="black"/>
<path d="M160.422 82.8578L161.045 81.7185L162.184 81.0919L161.045 80.4694L160.422 79.3301L159.796 80.4694L158.656 81.0919L159.796 81.7185L160.422 82.8578Z" fill="black"/>
<path d="M165.362 82.8578L165.988 81.7185L167.127 81.0919L165.988 80.4694L165.362 79.3301L164.739 80.4694L163.596 81.0919L164.739 81.7185L165.362 82.8578Z" fill="black"/>
<path d="M157.945 86.4341L158.567 85.2907L159.71 84.6682L158.567 84.0457L157.945 82.9023L157.318 84.0457L156.179 84.6682L157.318 85.2907L157.945 86.4341Z" fill="black"/>
<path d="M162.888 86.4341L163.51 85.2907L164.654 84.6682L163.51 84.0457L162.888 82.9023L162.261 84.0457L161.122 84.6682L162.261 85.2907L162.888 86.4341Z" fill="black"/>
<path d="M155.556 90.1611L156.178 89.0178L157.318 88.3953L156.178 87.7687L155.556 86.6294L154.929 87.7687L153.79 88.3953L154.929 89.0178L155.556 90.1611Z" fill="black"/>
<path d="M160.422 90.1611L161.045 89.0178L162.184 88.3953L161.045 87.7687L160.422 86.6294L159.796 87.7687L158.656 88.3953L159.796 89.0178L160.422 90.1611Z" fill="black"/>
<path d="M153.078 93.7339L153.701 92.5946L154.844 91.968L153.701 91.3455L153.078 90.2021L152.452 91.3455L151.312 91.968L152.452 92.5946L153.078 93.7339Z" fill="black"/>
<path d="M157.945 93.7339L158.567 92.5946L159.71 91.968L158.567 91.3455L157.945 90.2021L157.318 91.3455L156.179 91.968L157.318 92.5946L157.945 93.7339Z" fill="black"/>
<path d="M162.888 93.7339L162.986 91.968L163.51 91.3455L162.888 90.2021L162.261 91.3455L161.122 91.968L162.261 92.5946L162.888 93.7339Z" fill="black"/>
<path d="M155.556 97.3062L156.178 96.1669L157.318 95.5403L156.178 94.9178L155.556 93.7744L154.929 94.9178L153.79 95.5403L154.929 96.1669L155.556 97.3062Z" fill="black"/>
<path d="M160.422 97.3062L161.045 96.1669L162.184 95.5403L161.045 94.9178L160.422 93.7744L159.796 94.9178L158.656 95.5403L159.796 96.1669L160.422 97.3062Z" fill="black"/>
<path d="M153.078 100.883L153.701 99.7395L154.844 99.1169L153.701 98.4903L153.078 97.3511L152.452 98.4903L151.312 99.1169L152.452 99.7395L153.078 100.883Z" fill="black"/>
<path d="M157.945 100.883L158.567 99.7395L159.71 99.1169L158.567 98.4903L157.945 97.3511L157.318 98.4903L156.179 99.1169L157.318 99.7395L157.945 100.883Z" fill="black"/>
<path d="M157.945 71.7378L158.567 70.5985L159.71 69.9719L158.567 69.3494L157.945 68.2061L157.318 69.3494L156.179 69.9719L157.318 70.5985L157.945 71.7378Z" fill="black"/>
<path d="M162.888 71.7378L163.51 70.5985L164.654 69.9719L163.51 69.3494L162.888 68.2061L162.261 69.3494L161.122 69.9719L162.261 70.5985L162.888 71.7378Z" fill="black"/>
<path d="M135.366 119.192L135.993 118.049L137.132 117.427L135.993 116.804L135.366 115.661L134.744 116.804L133.601 117.427L134.744 118.049L135.366 119.192Z" fill="black"/>
<path d="M127.949 122.765L128.572 121.626L129.715 120.999L128.572 120.377L127.949 119.237L127.323 120.377L126.184 120.999L127.323 121.626L127.949 122.765Z" fill="black"/>
<path d="M132.893 122.765L133.515 121.626L134.655 120.999L133.515 120.377L132.893 119.237L132.266 120.377L131.127 120.999L132.266 121.626L132.893 122.765Z" fill="black"/>
<path d="M125.561 126.341L126.183 125.198L127.323 124.575L126.183 123.949L125.561 122.81L124.934 123.949L123.795 124.575L124.934 125.198L125.561 126.341Z" fill="black"/>
<path d="M130.427 124.779L131.05 125.198L132.189 124.575L131.05 123.949L130.427 122.81L129.8 123.949L128.661 124.575L129.8 125.198L130.427 124.779Z" fill="black"/>
<path d="M145.881 104.744L146.504 103.601L147.647 102.978L146.504 102.356L145.881 101.212L145.259 102.356L144.115 102.978L145.259 103.601L145.881 104.744Z" fill="black"/>
<path d="M150.824 104.744L151.447 103.601L152.59 102.978L151.447 102.356L150.824 101.212L150.198 102.356L149.059 102.978L150.198 103.601L150.824 104.744Z" fill="black"/>
<path d="M143.403 108.321L144.029 107.177L145.168 106.555L144.029 105.928L143.403 104.789L142.78 105.928L141.637 106.555L142.78 107.177L143.403 108.321Z" fill="black"/>
<path d="M148.346 108.321L148.969 107.177L150.112 106.555L148.969 105.928L148.346 104.789L147.723 105.928L146.58 106.555L147.723 107.177L148.346 108.321Z" fill="black"/>
<path d="M141.014 111.893L141.636 110.75L142.78 110.127L141.636 109.501L141.014 108.361L140.391 109.501L139.248 110.127L140.391 110.75L141.014 111.893Z" fill="black"/>
<path d="M145.881 111.893L146.504 110.75L147.647 110.127L146.504 109.501L145.881 108.361L145.259 109.501L144.115 110.127L145.259 110.75L145.881 111.893Z" fill="black"/>
<path d="M138.536 115.465L139.163 114.326L140.302 113.699L139.163 113.077L138.536 111.934L137.914 113.077L136.771 113.699L137.914 114.326L138.536 115.465Z" fill="black"/>
<path d="M143.403 115.465L144.029 114.326L145.168 113.699L144.029 113.077L143.403 111.934L142.78 113.077L141.637 113.699L142.78 114.326L143.403 115.465Z" fill="black"/>
<path d="M141.014 119.192L141.636 118.049L142.78 117.427L141.636 116.804L141.014 115.661L140.391 116.804L139.248 117.427L140.391 118.049L141.014 119.192Z" fill="black"/>
<path d="M150.824 97.3062L151.447 96.1669L152.59 95.5403L151.447 94.9178L150.824 93.7744L150.198 94.9178L149.059 95.5403L150.198 96.1669L150.824 97.3062Z" fill="black"/>
<path d="M104.151 19.4775C93.7755 19.4775 85.292 27.9651 85.292 38.3366V63.1523C85.292 73.5278 93.7796 82.0113 104.151 82.0113C109.335 82.0113 114.05 79.8956 117.464 76.4737C120.874 73.0518 123.002 68.3442 123.002 63.1523V38.3366C123.002 27.961 114.514 19.4775 104.151 19.4775ZM112.232 54.0015C112.232 56.2272 111.32 58.2453 109.86 59.706C108.399 61.1667 106.377 62.0782 104.155 62.0782C99.7038 62.0782 96.0744 58.4488 96.0744 53.9975V39.0405C96.0744 34.6014 99.7038 30.9598 104.155 30.9598C108.594 30.9598 112.236 34.6014 112.236 39.0405V54.0015H112.232Z" fill="#00D384" stroke="black" stroke-width="3" stroke-miterlimit="10" stroke-linecap="round" stroke-linejoin="round"/>
<path d="M134.195 53.436H74.0986V104.63H134.195V53.436Z" fill="#00D384" stroke="black" stroke-width="3" stroke-miterlimit="10" stroke-linecap="round" stroke-linejoin="round"/>
<path d="M104.912 80.7867C108.348 80.7867 111.133 78.0014 111.133 74.5655C111.133 71.1296 108.348 68.3442 104.912 68.3442C101.476 68.3442 98.6904 71.1296 98.6904 74.5655C98.6904 78.0014 101.476 80.7867 104.912 80.7867Z" fill="black" stroke="black" stroke-width="3" stroke-miterlimit="10" stroke-linecap="round" stroke-linejoin="round"/>
<path d="M106.498 88.245H103.337C102.909 88.245 102.56 87.8951 102.56 87.4678V75.2288C102.56 74.8016 102.909 74.4517 103.337 74.4517H106.498C106.925 74.4517 107.275 74.8016 107.275 75.2288V87.4678C107.271 87.8951 106.921 88.245 106.498 88.245Z" fill="black" stroke="black" stroke-width="3" stroke-miterlimit="10" stroke-linecap="round" stroke-linejoin="round"/>
<path d="M125.911 63.7182L126.338 62.9369L127.119 62.5097L126.338 62.0825L125.911 61.3013L125.479 62.0825L124.698 62.5097L125.479 62.9369L125.911 63.7182Z" fill="black"/>
<path d="M129.244 63.7182L129.671 62.9369L130.456 62.5097L129.671 62.0825L129.244 61.3013L128.816 62.0825L128.035 62.5097L128.816 62.9369L129.244 63.7182Z" fill="black"/>
<path d="M132.632 63.7182L133.06 62.9369L133.841 62.5097L133.06 62.0825L132.632 61.3013L132.205 62.0825L131.42 62.5097L132.205 62.9369L132.632 63.7182Z" fill="black"/>
<path d="M124.21 66.1714L124.642 65.3862L125.423 64.9589L124.642 64.5317L124.21 63.7505L123.783 64.5317L123.002 64.9589L123.783 65.3862L124.21 66.1714Z" fill="black"/>
<path d="M127.546 66.1714L127.974 65.3862L128.759 64.9589L127.974 64.5317L127.546 63.7505L127.119 64.5317L126.338 64.9589L127.119 65.3862L127.546 66.1714Z" fill="black"/>
<path d="M130.936 66.1714L131.363 65.3862L132.145 64.9589L131.363 64.5317L130.936 63.7505L130.509 64.5317L129.724 64.9589L130.509 65.3862L130.936 66.1714Z" fill="black"/>
<path d="M125.911 68.6171L126.338 67.8359L127.119 67.4086L126.338 66.9814L125.911 66.2002L125.479 66.9814L124.698 67.4086L125.479 67.8359L125.911 68.6171Z" fill="black"/>
<path d="M129.244 68.6171L129.671 67.8359L130.456 67.4086L129.671 66.9814L129.244 66.2002L128.816 66.9814L128.035 67.4086L128.816 67.8359L129.244 68.6171Z" fill="black"/>
<path d="M132.632 68.6171L133.06 67.8359L133.841 67.4086L133.06 66.9814L132.632 66.2002L132.205 66.9814L131.42 67.4086L132.205 67.8359L132.632 68.6171Z" fill="black"/>
<path d="M124.21 71.0704L124.642 70.2851L125.423 69.8579L124.642 69.4306L124.21 68.6494L123.783 69.4306L123.002 69.8579L123.783 70.2851L124.21 71.0704Z" fill="black"/>
<path d="M127.546 71.0704L127.974 70.2851L128.759 69.8579L127.974 69.4306L127.546 68.6494L127.119 69.4306L126.338 69.8579L127.119 70.2851L127.546 71.0704Z" fill="black"/>
<path d="M130.936 71.0704L131.363 70.2851L132.145 69.8579L131.363 69.4306L130.936 68.6494L130.509 69.4306L129.724 69.8579L130.509 70.2851L130.936 71.0704Z" fill="black"/>
<path d="M125.911 73.6216L126.338 72.8404L127.119 72.4132L126.338 71.986L125.911 71.2007L125.479 71.986L124.698 72.4132L125.479 72.8404L125.911 73.6216Z" fill="black"/>
<path d="M129.244 73.6216L129.671 72.8404L130.456 72.4132L129.671 71.986L129.244 71.2007L128.816 71.986L128.035 72.4132L128.816 72.8404L129.244 73.6216Z" fill="black"/>
<path d="M132.632 73.6216L133.06 72.8404L133.841 72.4132L133.06 71.986L132.632 71.2007L132.205 71.986L131.42 72.4132L132.205 72.8404L132.632 73.6216Z" fill="black"/>
<path d="M124.21 76.0712L124.642 75.2899L125.423 74.8627L124.642 74.4355L124.21 73.6543L123.783 74.4355L123.002 74.8627L123.783 75.2899L124.21 76.0712Z" fill="black"/>
<path d="M127.546 76.0712L127.974 75.2899L128.759 74.8627L127.974 74.4355L127.546 73.6543L127.119 74.4355L126.338 74.8627L127.119 75.2899L127.546 76.0712Z" fill="black"/>
<path d="M130.936 76.0712L131.363 75.2899L132.145 74.8627L131.363 74.4355L130.936 73.6543L130.509 74.4355L129.724 74.8627L130.509 75.2899L130.936 76.0712Z" fill="black"/>
<path d="M124.21 56.1744L124.642 55.3932L125.423 54.9619L124.642 54.5346L124.21 53.7534L123.783 54.5346L123.002 54.9619L123.783 55.3932L124.21 56.1744Z" fill="black"/>
<path d="M127.546 56.1744L127.974 55.3932L128.759 54.9619L127.974 54.5346L127.546 53.7534L127.119 54.5346L126.338 54.9619L127.119 55.3932L127.546 56.1744Z" fill="black"/>
<path d="M130.936 56.1744L131.363 55.3932L132.145 54.9619L131.363 54.5346L130.936 53.7534L130.509 54.5346L129.724 54.9619L130.509 55.3932L130.936 56.1744Z" fill="black"/>
<path d="M125.911 58.6236L126.338 57.8383L127.119 57.4111L126.338 56.9839L125.911 56.2026L125.479 56.9839L124.698 57.4111L125.479 57.8383L125.911 58.6236Z" fill="black"/>
<path d="M129.244 58.6236L129.671 57.8383L130.456 57.4111L129.671 56.9839L129.244 56.2026L128.816 56.9839L128.035 57.4111L128.816 57.8383L129.244 58.6236Z" fill="black"/>
<path d="M132.632 58.6236L133.06 57.8383L133.841 57.4111L133.06 56.9839L132.632 56.2026L132.205 56.9839L131.42 57.4111L132.205 57.8383L132.632 58.6236Z" fill="black"/>
<path d="M124.21 61.0733L124.642 60.2921L125.423 59.8608L124.642 59.4336L124.21 58.6523L123.783 59.4336L123.002 59.8608L123.783 60.2921L124.21 61.0733Z" fill="black"/>
<path d="M127.546 61.0733L127.974 60.2921L128.759 59.8608L127.974 59.4336L127.546 58.6523L127.119 59.4336L126.338 59.8608L127.119 60.2921L127.546 61.0733Z" fill="black"/>
<path d="M130.936 61.0733L131.363 60.2921L132.145 59.8608L131.363 59.4336L130.936 58.6523L130.509 59.4336L129.724 59.8608L130.509 60.2921L130.936 61.0733Z" fill="black"/>
<path d="M133.109 86.231L132.682 87.0122L131.896 87.4394L132.682 87.8707L133.109 88.6519L133.536 87.8707L134.317 87.4394L133.536 87.0122L133.109 86.231Z" fill="black"/>
<path d="M133.109 81.332L132.682 82.1132L131.896 82.5405L132.682 82.9718L133.109 83.753L133.536 82.9718L134.317 82.5405L133.536 82.1132L133.109 81.332Z" fill="black"/>
<path d="M133.109 76.3271L132.678 77.1124L131.896 77.5397L132.678 77.9669L133.109 78.7481L133.536 77.9669L134.317 77.5397L133.536 77.1124L133.109 76.3271Z" fill="black"/>
<path d="M133.109 101.232L132.682 102.014L131.896 102.441L132.682 102.868L133.109 103.649L133.536 102.868L134.317 102.441L133.536 102.014L133.109 101.232Z" fill="black"/>
<path d="M133.109 96.228L132.682 97.0092L131.896 97.4365L132.682 97.8637L133.109 98.649L133.536 97.8637L134.317 97.4365L133.536 97.0092L133.109 96.228Z" fill="black"/>
<path d="M133.109 91.3291L132.682 92.1103L131.896 92.5375L132.682 92.9648L133.109 93.75L133.536 92.9648L134.317 92.5375L133.536 92.1103L133.109 91.3291Z" fill="black"/>
<path d="M129.236 86.231L128.809 87.0122L128.027 87.4394L128.809 87.8707L129.236 88.6519L129.667 87.8707L130.448 87.4394L129.667 87.0122L129.236 86.231Z" fill="black"/>
<path d="M125.903 86.231L125.476 87.0122L124.69 87.4394L125.476 87.8707L125.903 88.6519L126.33 87.8707L127.111 87.4394L126.33 87.0122L125.903 86.231Z" fill="black"/>
<path d="M130.936 83.7812L130.509 84.5625L129.724 84.9897L130.509 85.4169L130.936 86.2022L131.363 85.4169L132.145 84.9897L131.363 84.5625L130.936 83.7812Z" fill="black"/>
<path d="M127.6 83.7812L127.173 84.5625L126.392 84.9897L127.173 85.4169L127.6 86.2022L128.027 85.4169L128.808 84.9897L128.027 84.5625L127.6 83.7812Z" fill="black"/>
<path d="M124.21 83.7812L123.783 84.5625L123.002 84.9897L123.783 85.4169L124.21 86.2022L124.642 85.4169L125.423 84.9897L124.642 84.5625L124.21 83.7812Z" fill="black"/>
<path d="M129.236 81.332L128.809 82.1132L128.027 82.5405L128.809 82.9718L129.236 83.753L129.667 82.9718L130.448 82.5405L129.667 82.1132L129.236 81.332Z" fill="black"/>
<path d="M125.903 81.332L125.476 82.1132L124.69 82.5405L125.476 82.9718L125.903 83.753L126.33 82.9718L127.111 82.5405L126.33 82.1132L125.903 81.332Z" fill="black"/>
<path d="M130.936 78.8823L130.509 79.6635L129.724 80.0908L130.509 80.518L130.936 81.3033L131.363 80.518L132.145 80.0908L131.363 79.6635L130.936 78.8823Z" fill="black"/>
<path d="M127.6 78.8823L127.173 79.6635L126.392 80.0908L127.173 80.518L127.6 81.3033L128.027 80.518L128.808 80.0908L128.027 79.6635L127.6 78.8823Z" fill="black"/>
<path d="M124.21 78.8823L123.783 79.6635L123.002 80.0908L123.783 80.518L124.21 81.3033L124.642 80.518L125.423 80.0908L124.642 79.6635L124.21 78.8823Z" fill="black"/>
<path d="M129.236 76.3271L128.809 77.1124L128.027 77.5397L128.809 77.9669L129.236 78.7481L129.667 77.9669L130.448 77.5397L129.667 77.1124L129.236 76.3271Z" fill="black"/>
<path d="M125.903 76.3271L125.476 77.1124L124.69 77.5397L125.476 77.9669L125.903 78.7481L126.33 77.9669L127.111 77.5397L126.33 77.1124L125.903 76.3271Z" fill="black"/>
<path d="M129.236 101.232L128.809 102.014L128.027 102.441L128.809 102.868L129.236 103.649L129.667 102.868L130.448 102.441L129.667 102.014L129.236 101.232Z" fill="black"/>
<path d="M125.903 101.232L125.476 102.014L124.69 102.441L125.476 102.868L125.903 103.649L126.33 102.868L127.111 102.441L126.33 102.014L125.903 101.232Z" fill="black"/>
<path d="M130.936 98.7788L130.509 99.5641L129.724 99.9913L130.509 100.419L130.936 101.2L131.363 100.419L132.145 99.9913L131.363 99.5641L130.936 98.7788Z" fill="black"/>
<path d="M127.6 98.7788L127.173 99.5641L126.392 99.9913L127.173 100.419L127.6 101.2L128.027 100.419L128.808 99.9913L128.027 99.5641L127.6 98.7788Z" fill="black"/>
<path d="M124.21 98.7788L123.783 99.5641L123.002 99.9913L123.783 100.419L124.21 101.2L124.642 100.419L125.423 99.9913L124.642 99.5641L124.21 98.7788Z" fill="black"/>
<path d="M129.236 96.2275L128.809 97.0088L128.027 97.436L128.809 97.8632L129.236 98.6485L129.667 97.8632L130.448 97.436L129.667 97.0088L129.236 96.2275Z" fill="black"/>
<path d="M125.903 96.2275L125.476 97.0088L124.69 97.436L125.476 97.8632L125.903 98.6485L126.33 97.8632L127.111 97.436L126.33 97.0088L125.903 96.2275Z" fill="black"/>
<path d="M130.936 93.7783L130.509 94.5595L129.724 94.9868L130.509 95.414L130.936 96.1952L131.363 95.414L132.145 94.9868L131.363 94.5595L130.936 93.7783Z" fill="black"/>
<path d="M127.6 93.7783L127.173 94.5595L126.392 94.9868L127.173 95.414L127.6 96.1952L128.027 95.414L128.808 94.9868L128.027 94.5595L127.6 93.7783Z" fill="black"/>
<path d="M124.21 93.7783L123.783 94.5595L123.002 94.9868L123.783 95.414L124.21 96.1952L124.642 95.414L125.423 94.9868L124.642 94.5595L124.21 93.7783Z" fill="black"/>
<path d="M129.236 91.3286L128.809 92.1098L128.027 92.537L128.809 92.9643L129.236 93.7496L129.667 92.9643L130.448 92.537L129.667 92.1098L129.236 91.3286Z" fill="black"/>
<path d="M125.903 91.3286L125.476 92.1098L124.69 92.537L125.476 92.9643L125.903 93.7496L126.33 92.9643L127.111 92.537L126.33 92.1098L125.903 91.3286Z" fill="black"/>
<path d="M130.936 88.8794L130.509 89.6606L129.724 90.0878L130.509 90.5151L130.936 91.2963L131.363 90.5151L132.145 90.0878L131.363 89.6606L130.936 88.8794Z" fill="black"/>
<path d="M127.6 88.8794L127.173 89.6606L126.392 90.0878L127.173 90.5151L127.6 91.2963L128.027 90.5151L128.808 90.0878L128.027 89.6606L127.6 88.8794Z" fill="black"/>
<path d="M124.21 88.8794L123.783 89.6606L123.002 90.0878L123.783 90.5151L124.21 91.2963L124.642 90.5151L125.423 90.0878L124.642 89.6606L124.21 88.8794Z" fill="black"/>
</g>
<defs>
<clipPath id="clip0security">
<rect width="73" height="67" fill="white" transform="translate(73 131) rotate(-180)"/>
</clipPath>
<clipPath id="clip1security">
<rect width="131" height="131" fill="white" transform="translate(38)"/>
</clipPath>
</defs>
</svg>
