<svg width="183" height="177" viewBox="0 0 183 177" fill="none" xmlns="http://www.w3.org/2000/svg">
<g clip-path="url(#clip0)">
<path d="M56.8213 46.3315C56.8213 46.3315 60.6119 46.118 68.2123 42.5225" stroke="black" stroke-width="3" stroke-miterlimit="10" stroke-linecap="round" stroke-linejoin="round"/>
<path d="M60.2224 45.3614C60.2224 45.3614 69.503 52.7702 78.8399 38.4449C78.8341 38.4361 68.4051 31.7741 60.2224 45.3614Z" fill="#00D384" stroke="black" stroke-width="3" stroke-miterlimit="10" stroke-linecap="round" stroke-linejoin="round"/>
<path d="M40.0055 57.0628C45.9694 56.1847 51.5932 60.3602 52.5661 66.3829C53.5389 72.4056 49.488 78.0001 43.5241 78.8782C37.5602 79.7563 19.7733 71.2066 19.7733 71.2066C19.7733 71.2066 34.0357 57.9321 40.0055 57.0628Z" fill="#00D384" stroke="black" stroke-width="3" stroke-miterlimit="10" stroke-linecap="round" stroke-linejoin="round"/>
<path d="M71.5473 26.7052C70.0882 32.5876 64.1516 36.0838 58.2857 34.5144C52.4199 32.945 48.8392 26.9111 50.2982 21.0286C51.7573 15.1462 66.2991 2.18109 66.2991 2.18109C66.2991 2.18109 73.0064 20.8227 71.5473 26.7052Z" fill="#00D384" stroke="black" stroke-width="3" stroke-miterlimit="10" stroke-linecap="round" stroke-linejoin="round"/>
<path d="M61.0522 19.0222C61.0522 19.0222 63.4637 28.6303 58.2767 34.5201" stroke="black" stroke-width="3" stroke-miterlimit="10" stroke-linecap="round" stroke-linejoin="round"/>
<path d="M51.624 66.2197C51.624 66.2197 63.97 62.9703 71.3704 74.1576" stroke="black" stroke-width="3" stroke-miterlimit="10" stroke-linecap="round" stroke-linejoin="round"/>
<path d="M62.7325 67.3252C62.7325 67.3252 51.638 55.9327 58.7382 34.0127" stroke="black" stroke-width="3" stroke-miterlimit="10" stroke-linecap="round" stroke-linejoin="round"/>
</g>
<g clip-path="url(#clip1)">
<path d="M117.5 176.396C153.339 176.396 182.392 147.565 182.392 112C182.392 76.4352 153.339 47.604 117.5 47.604C81.6613 47.604 52.6084 76.4352 52.6084 112C52.6084 147.565 81.6613 176.396 117.5 176.396Z" fill="#00D384" stroke="black" stroke-width="3" stroke-miterlimit="10" stroke-linecap="round" stroke-linejoin="round"/>
<path d="M171.635 110.869L172.256 109.738L173.396 109.122L172.256 108.502L171.635 107.375L171.015 108.502L169.875 109.122L171.015 109.738L171.635 110.869Z" fill="black"/>
<path d="M176.563 110.869L177.184 109.738L178.324 109.122L177.184 108.502L176.563 107.375L175.938 108.502L174.803 109.122L175.938 109.738L176.563 110.869Z" fill="black"/>
<path d="M170.925 112.656L169.789 112.04L169.165 110.909L168.544 112.04L167.404 112.656L168.544 113.276L169.165 114.403" fill="black"/>
<path d="M174.093 114.403L174.714 113.276L175.854 112.656L174.714 112.04L174.093 110.909L173.473 112.04L172.333 112.656L173.473 113.276L174.093 114.403Z" fill="black"/>
<path d="M171.635 82.0359L172.256 80.9088L173.396 80.289L172.256 79.6731L171.635 78.542L171.015 79.6731L169.875 80.289L171.015 80.9088L171.635 82.0359Z" fill="black"/>
<path d="M169.165 85.574L169.789 84.4429L170.925 83.827L169.789 83.2072L169.165 82.0801L168.544 83.2072L167.404 83.827L168.544 84.4429L169.165 85.574Z" fill="black"/>
<path d="M174.093 85.574L174.714 84.4429L175.854 83.827L174.714 83.2072L174.093 82.0801L173.473 83.2072L172.333 83.827L173.473 84.4429L174.093 85.574Z" fill="black"/>
<path d="M171.635 89.1082L172.256 87.9771L173.396 87.3612L172.256 86.7454L171.635 85.6143L171.015 86.7454L169.875 87.3612L171.015 87.9771L171.635 89.1082Z" fill="black"/>
<path d="M176.563 89.1082L177.184 87.9771L177.626 87.7396L177.184 86.7454L176.563 85.6143L175.938 86.7454L174.803 87.3612L175.938 87.9771L176.563 89.1082Z" fill="black"/>
<path d="M169.165 92.6427L169.789 91.5157L170.925 90.8998L169.789 90.2799L169.165 89.1528L168.544 90.2799L167.404 90.8998L168.544 91.5157L169.165 92.6427Z" fill="black"/>
<path d="M174.093 92.6427L174.714 91.5157L175.854 90.8958L174.714 90.2799L174.093 89.1528L173.473 90.2799L172.333 90.8998L173.473 91.5157L174.093 92.6427Z" fill="black"/>
<path d="M171.635 96.3299L172.256 95.2028L173.396 94.5829L172.256 93.967L171.635 92.8359L171.015 93.967L169.875 94.5829L171.015 95.2028L171.635 96.3299Z" fill="black"/>
<path d="M176.563 96.3299L177.184 95.2028L178.324 94.5829L177.184 93.967L176.563 92.8359L175.938 93.967L174.803 94.5829L175.938 95.2028L176.563 96.3299Z" fill="black"/>
<path d="M174.093 99.868L174.714 98.7369L175.854 98.121L174.714 97.5011L174.093 96.374L173.473 97.5011L172.333 98.121L173.473 98.7369L174.093 99.868Z" fill="black"/>
<path d="M171.635 103.402L172.256 102.271L173.396 101.655L172.256 101.035L171.635 99.9082L171.015 101.035L169.875 101.655L171.015 102.271L171.635 103.402Z" fill="black"/>
<path d="M176.563 103.402L177.184 102.271L178.324 101.655L177.184 101.035L176.563 99.9082L175.938 101.035L174.803 101.655L175.938 102.271L176.563 103.402Z" fill="black"/>
<path d="M174.093 106.936L174.714 105.809L175.854 105.189L174.714 104.573L174.093 103.442L173.473 104.573L172.333 105.189L173.473 105.809L174.093 106.936Z" fill="black"/>
<path d="M164.313 71.1437L164.938 70.0166L166.074 69.3967L164.938 68.7809L164.313 67.6538L163.693 68.7809L162.553 69.3967L163.693 70.0166L164.313 71.1437Z" fill="black"/>
<path d="M166.784 74.6819L167.404 73.5508L168.544 72.935L167.404 72.3151L166.784 71.188L166.163 72.3151L165.023 72.935L166.163 73.5508L166.784 74.6819Z" fill="black"/>
<path d="M164.313 78.2161L164.938 77.089L166.074 76.4691L164.938 75.8533L164.313 74.7222L163.693 75.8533L162.553 76.4691L163.693 77.089L164.313 78.2161Z" fill="black"/>
<path d="M169.165 78.2161L169.789 77.089L170.925 76.4691L169.789 75.8533L169.165 74.7222L168.544 75.8533L167.404 76.4691L168.544 77.089L169.165 78.2161Z" fill="black"/>
<path d="M179.722 114.403L180.343 113.276L181.483 112.656L180.343 112.04L179.722 110.909L179.098 112.04L177.962 112.656L179.098 113.276L179.722 114.403Z" fill="black"/>
<path d="M179.722 99.868L180.343 98.7369L181.483 98.121L180.343 97.5011L179.722 96.374L179.098 97.5011L177.962 98.121L179.098 98.7369L179.722 99.868Z" fill="black"/>
<path d="M179.722 106.936L180.343 105.809L181.483 105.189L180.343 104.573L179.722 103.442L179.098 104.573L177.962 105.189L179.098 105.809L179.722 106.936Z" fill="black"/>
<path d="M136.881 53.3157L137.501 52.1886L138.641 51.5687L137.501 50.9529L136.881 49.8218L136.26 50.9529L135.12 51.5687L136.26 52.1886L136.881 53.3157Z" fill="black"/>
<path d="M144.19 56.8538L144.811 55.7227L145.951 55.1068L144.811 54.4869L144.19 53.3599L143.569 54.4869L142.43 55.1068L143.569 55.7227L144.19 56.8538Z" fill="black"/>
<path d="M146.66 60.388L147.28 59.2569L148.42 58.641L147.28 58.0211L146.66 56.894L146.035 58.0211L144.899 58.641L146.035 59.2569L146.66 60.388Z" fill="black"/>
<path d="M152.286 60.388L152.91 59.2569L154.046 58.641L152.91 58.0211L152.286 56.894L151.665 58.0211L150.529 58.641L151.665 59.2569L152.286 60.388Z" fill="black"/>
<path d="M154.671 63.9222L155.291 62.7951L156.431 62.1752L155.291 61.5593L154.671 60.4282L154.046 61.5593L152.91 62.1752L154.046 62.7951L154.671 63.9222Z" fill="black"/>
<path d="M152.286 67.6092L152.91 66.4781L154.046 65.8622L152.91 65.2463L152.286 64.1152L151.665 65.2463L150.529 65.8622L151.665 66.4781L152.286 67.6092Z" fill="black"/>
<path d="M157.137 67.6092L157.762 66.4781L158.898 65.8622L157.762 65.2463L157.137 64.1152L156.517 65.2463L155.381 65.8622L156.517 66.4781L157.137 67.6092Z" fill="black"/>
<path d="M162.065 67.6092L162.69 66.4781L163.825 65.8622L162.69 65.2463L162.065 64.1152L161.444 65.2463L160.305 65.8622L161.444 66.4781L162.065 67.6092Z" fill="black"/>
<path d="M154.671 71.1437L155.291 70.0166L156.431 69.3967L155.291 68.7809L154.671 67.6538L154.046 68.7809L152.91 69.3967L154.046 70.0166L154.671 71.1437Z" fill="black"/>
<path d="M159.599 71.1437L160.22 70.0166L161.356 69.3967L160.22 68.7809L159.599 67.6538L158.975 68.7809L157.839 69.3967L158.975 70.0166L159.599 71.1437Z" fill="black"/>
<path d="M162.065 74.6819L162.69 73.5508L163.825 72.935L162.69 72.3151L162.065 71.188L161.444 72.3151L160.305 72.935L161.444 73.5508L162.065 74.6819Z" fill="black"/>
<path d="M169.396 150.824L170.017 149.692L171.152 149.077L170.017 148.461L169.396 147.33L168.771 148.461L167.636 149.077L168.771 149.692L169.396 150.824Z" fill="black"/>
<path d="M166.925 154.362L167.546 153.231L168.686 152.615L167.546 151.995L166.925 150.868L166.301 151.995L165.165 152.615L166.301 153.231L166.925 154.362Z" fill="black"/>
<path d="M174.247 122.103L174.867 120.972L176.003 120.356L174.867 119.736L174.247 118.609L173.622 119.736L172.486 120.356L173.622 120.972L174.247 122.103Z" fill="black"/>
<path d="M179.172 122.103L179.796 120.972L180.932 120.356L179.796 119.736L179.172 118.609L178.551 119.736L177.411 120.356L178.551 120.972L179.172 122.103Z" fill="black"/>
<path d="M171.777 125.637L172.398 124.51L173.537 123.891L172.398 123.275L171.777 122.144L171.152 123.275L170.017 123.891L171.152 124.51L171.777 125.637Z" fill="black"/>
<path d="M176.705 125.637L177.325 124.51L178.465 123.891L177.325 123.275L176.705 122.144L176.08 123.275L174.944 123.891L176.08 124.51L176.705 125.637Z" fill="black"/>
<path d="M169.396 129.172L170.017 128.044L171.152 127.429L170.017 126.809L169.396 125.682L168.771 126.809L167.636 127.429L168.771 128.044L169.396 129.172Z" fill="black"/>
<path d="M174.247 129.172L174.867 128.044L176.003 127.425L174.867 126.809L174.247 125.682L173.622 126.809L172.486 127.425L173.622 128.044L174.247 129.172Z" fill="black"/>
<path d="M179.172 129.172L179.796 128.044L180.932 127.425L179.796 126.809L179.172 125.682L178.551 126.809L177.411 127.425L178.551 128.044L179.172 129.172Z" fill="black"/>
<path d="M171.777 132.71L172.398 131.579L173.537 130.963L172.398 130.347L171.777 129.216L171.152 130.347L170.017 130.963L171.152 131.579L171.777 132.71Z" fill="black"/>
<path d="M176.705 132.71L177.325 131.579L178.465 130.963L177.325 130.347L176.705 129.216L176.08 130.347L174.944 130.963L176.08 131.579L176.705 132.71Z" fill="black"/>
<path d="M169.396 136.397L170.017 135.266L171.152 134.65L170.017 134.03L169.396 132.903L168.771 134.03L167.636 134.65L168.771 135.266L169.396 136.397Z" fill="black"/>
<path d="M174.247 136.397L174.867 135.266L176.003 134.65L174.867 134.03L174.247 132.903L173.622 134.03L172.486 134.65L173.622 135.266L174.247 136.397Z" fill="black"/>
<path d="M166.925 139.931L167.546 138.804L168.686 138.184L167.546 137.568L166.925 136.437L166.301 137.568L165.165 138.184L166.301 138.804L166.925 139.931Z" fill="black"/>
<path d="M171.777 139.931L172.398 138.804L173.537 138.184L172.398 137.568L171.777 136.437L171.152 137.568L170.017 138.184L171.152 138.804L171.777 139.931Z" fill="black"/>
<path d="M176.705 139.931L176.802 138.184L177.325 137.568L176.705 136.437L176.08 137.568L174.944 138.184L176.08 138.804L176.705 139.931Z" fill="black"/>
<path d="M169.396 143.466L170.017 142.339L171.152 141.719L170.017 141.103L169.396 139.972L168.771 141.103L167.636 141.719L168.771 142.339L169.396 143.466Z" fill="black"/>
<path d="M174.247 143.466L174.867 142.339L176.003 141.719L174.867 141.103L174.247 139.972L173.622 141.103L172.486 141.719L173.622 142.339L174.247 143.466Z" fill="black"/>
<path d="M166.925 147.004L167.546 145.873L168.686 145.257L167.546 144.637L166.925 143.51L166.301 144.637L165.165 145.257L166.301 145.873L166.925 147.004Z" fill="black"/>
<path d="M171.777 147.004L172.398 145.873L173.537 145.257L172.398 144.637L171.777 143.51L171.152 144.637L170.017 145.257L171.152 145.873L171.777 147.004Z" fill="black"/>
<path d="M171.777 118.171L172.398 117.044L173.537 116.424L172.398 115.808L171.777 114.677L171.152 115.808L170.017 116.424L171.152 117.044L171.777 118.171Z" fill="black"/>
<path d="M176.706 118.171L177.326 117.044L178.466 116.424L177.326 115.808L176.706 114.677L176.081 115.808L174.945 116.424L176.081 117.044L176.706 118.171Z" fill="black"/>
<path d="M149.268 165.117L149.893 163.986L151.029 163.371L149.893 162.755L149.268 161.624L148.648 162.755L147.508 163.371L148.648 163.986L149.268 165.117Z" fill="black"/>
<path d="M141.874 168.652L142.494 167.524L143.634 166.905L142.494 166.289L141.874 165.162L141.249 166.289L140.113 166.905L141.249 167.524L141.874 168.652Z" fill="black"/>
<path d="M146.802 168.652L147.423 167.524L148.559 166.905L147.423 166.289L146.802 165.162L146.178 166.289L145.042 166.905L146.178 167.524L146.802 168.652Z" fill="black"/>
<path d="M139.493 172.19L140.113 171.059L141.249 170.443L140.113 169.823L139.493 168.696L138.868 169.823L137.732 170.443L138.868 171.059L139.493 172.19Z" fill="black"/>
<path d="M144.344 170.644L144.965 171.059L146.101 170.443L144.965 169.823L144.344 168.696L143.72 169.823L142.584 170.443L143.72 171.059L144.344 170.644Z" fill="black"/>
<path d="M159.75 150.824L160.37 149.693L161.51 149.077L160.37 148.461L159.75 147.33L159.129 148.461L157.989 149.077L159.129 149.693L159.75 150.824Z" fill="black"/>
<path d="M164.678 150.824L165.299 149.693L166.439 149.077L165.299 148.461L164.678 147.33L164.054 148.461L162.918 149.077L164.054 149.693L164.678 150.824Z" fill="black"/>
<path d="M157.28 154.362L157.905 153.231L159.04 152.615L157.905 151.995L157.28 150.868L156.659 151.995L155.52 152.615L156.659 153.231L157.28 154.362Z" fill="black"/>
<path d="M162.208 154.362L162.828 153.231L163.968 152.615L162.828 151.995L162.208 150.868L161.587 151.995L160.447 152.615L161.587 153.231L162.208 154.362Z" fill="black"/>
<path d="M154.899 157.896L155.52 156.765L156.659 156.149L155.52 155.529L154.899 154.402L154.278 155.529L153.139 156.149L154.278 156.765L154.899 157.896Z" fill="black"/>
<path d="M159.75 157.896L160.37 156.765L161.51 156.149L160.37 155.529L159.75 154.402L159.129 155.529L157.989 156.149L159.129 156.765L159.75 157.896Z" fill="black"/>
<path d="M152.428 161.43L153.053 160.303L154.189 159.683L153.053 159.068L152.428 157.937L151.808 159.068L150.668 159.683L151.808 160.303L152.428 161.43Z" fill="black"/>
<path d="M157.28 161.43L157.905 160.303L159.04 159.683L157.905 159.068L157.28 157.937L156.659 159.068L155.52 159.683L156.659 160.303L157.28 161.43Z" fill="black"/>
<path d="M154.899 165.117L155.52 163.986L156.659 163.371L155.52 162.755L154.899 161.624L154.278 162.755L153.139 163.371L154.278 163.986L154.899 165.117Z" fill="black"/>
<path d="M164.678 143.466L165.299 142.339L166.439 141.719L165.299 141.103L164.678 139.972L164.054 141.103L162.918 141.719L164.054 142.339L164.678 143.466Z" fill="black"/>
<path d="M156.707 90.6139C134.009 90.6139 117.5 70.7773 117.5 70.7773C117.5 70.7773 102.837 90.6139 78.2924 90.6139C78.2924 90.6139 70.7518 136.86 117.5 156.596C164.248 136.86 156.707 90.6139 156.707 90.6139Z" fill="#25AAE1" stroke="black" stroke-width="3" stroke-miterlimit="10" stroke-linecap="round" stroke-linejoin="round"/>
<path d="M150.25 107.081L150.875 105.95L152.011 105.334L150.875 104.714L150.25 103.587L149.63 104.714L148.494 105.334L149.63 105.95L150.25 107.081Z" fill="black"/>
<path d="M155.101 107.081L155.726 105.95L156.861 105.334L155.726 104.714L155.101 103.587L154.48 104.714L153.345 105.334L154.48 105.95L155.101 107.081Z" fill="black"/>
<path d="M147.784 110.615L148.404 109.488L149.544 108.868L148.404 108.252L147.784 107.121L147.159 108.252L146.023 108.868L147.159 109.488L147.784 110.615Z" fill="black"/>
<path d="M152.635 110.615L153.256 109.488L154.396 108.868L153.256 108.252L152.635 107.121L152.011 108.252L150.875 108.868L152.011 109.488L152.635 110.615Z" fill="black"/>
<path d="M150.25 114.149L150.875 113.022L152.011 112.402L150.875 111.786L150.25 110.655L149.63 111.786L148.494 112.402L149.63 113.022L150.25 114.149Z" fill="black"/>
<path d="M155.101 114.149L155.726 113.022L156.034 112.402L155.726 111.786L155.101 110.655L154.48 111.786L153.345 112.402L154.48 113.022L155.101 114.149Z" fill="black"/>
<path d="M147.784 117.687L148.404 116.556L149.544 115.94L148.404 115.32L147.784 114.193L147.159 115.32L146.023 115.94L147.159 116.556L147.784 117.687Z" fill="black"/>
<path d="M152.635 117.687L153.256 116.556L154.396 115.94L153.256 115.32L152.635 114.193L152.011 115.32L150.875 115.94L152.011 116.556L152.635 117.687Z" fill="black"/>
<path d="M150.25 121.375L150.875 120.244L152.011 119.628L150.875 119.008L150.25 117.881L149.63 119.008L148.494 119.628L149.63 120.244L150.25 121.375Z" fill="black"/>
<path d="M147.784 124.908L148.404 123.781L149.544 123.162L148.404 122.546L147.784 121.415L147.159 122.546L146.023 123.162L147.159 123.781L147.784 124.908Z" fill="black"/>
<path d="M149.545 127.851L150.165 126.724L151.305 126.104L150.165 125.489L149.545 124.357L148.92 125.489L147.784 126.104L148.92 126.724L149.545 127.851Z" fill="black"/>
<path d="M147.784 130.963L148.404 129.836L149.544 129.216L148.404 128.6L147.784 127.469L147.159 128.6L146.023 129.216L147.159 129.836L147.784 130.963Z" fill="black"/>
<path d="M150.25 92.6504L150.875 91.5234L152.011 90.9035L150.875 90.2876L150.21 90.4768L149.63 90.2876L148.494 90.9035L149.63 91.5234L150.25 92.6504Z" fill="black"/>
<path d="M155.101 92.6504L155.726 91.5234L156.861 90.9035L155.726 90.2876L155.061 90.4768L154.48 90.2876L153.345 90.9035L154.48 91.5234L155.101 92.6504Z" fill="black"/>
<path d="M147.784 96.1888L148.404 95.0577L149.544 94.4418L148.404 93.8219L147.784 92.6948L147.159 93.8219L146.023 94.4418L147.159 95.0577L147.784 96.1888Z" fill="black"/>
<path d="M152.635 96.1888L153.256 95.0577L154.396 94.4418L153.256 93.8219L152.635 92.6948L152.011 93.8219L150.875 94.4418L152.011 95.0577L152.635 96.1888Z" fill="black"/>
<path d="M150.25 99.7229L150.875 98.5918L152.011 97.976L150.875 97.3601L150.25 96.229L149.63 97.3601L148.494 97.976L149.63 98.5918L150.25 99.7229Z" fill="black"/>
<path d="M155.101 99.7229L155.726 98.5918L156.861 97.976L155.726 97.3601L155.101 96.229L154.48 97.3601L153.345 97.976L154.48 98.5918L155.101 99.7229Z" fill="black"/>
<path d="M147.784 103.257L148.404 102.13L149.544 101.514L148.404 100.894L147.784 99.7671L147.159 100.894L146.023 101.514L147.159 102.13L147.784 103.257Z" fill="black"/>
<path d="M152.635 103.257L153.256 102.13L154.396 101.514L153.256 100.894L152.635 99.7671L152.011 100.894L150.875 101.514L152.011 102.13L152.635 103.257Z" fill="black"/>
<path d="M120.348 135.91L120.973 134.783L122.109 134.163L120.973 133.547L120.348 132.416L119.728 133.547L118.592 134.163L119.728 134.783L120.348 135.91Z" fill="black"/>
<path d="M125.199 135.91L125.823 134.783L126.959 134.163L125.823 133.547L125.199 132.416L124.578 133.547L123.442 134.163L124.578 134.783L125.199 135.91Z" fill="black"/>
<path d="M130.128 135.91L130.752 134.783L131.888 134.163L130.752 133.547L130.128 132.416L129.507 133.547L128.367 134.163L129.507 134.783L130.128 135.91Z" fill="black"/>
<path d="M117.881 139.448L118.502 138.317L119.642 137.701L118.502 137.081L117.881 135.954L117.257 137.081L116.121 137.701L117.257 138.317L117.881 139.448Z" fill="black"/>
<path d="M122.733 139.448L123.354 138.317L124.493 137.701L123.354 137.081L122.733 135.954L122.108 137.081L120.973 137.701L122.108 138.317L122.733 139.448Z" fill="black"/>
<path d="M127.657 139.448L128.281 138.317L129.417 137.701L128.281 137.081L127.657 135.954L127.036 137.081L125.9 137.701L127.036 138.317L127.657 139.448Z" fill="black"/>
<path d="M120.348 107.081L120.973 105.95L122.109 105.334L120.973 104.714L120.348 103.587L119.728 104.714L118.592 105.334L119.728 105.95L120.348 107.081Z" fill="black"/>
<path d="M125.199 107.081L125.823 105.95L126.959 105.334L125.823 104.714L125.199 103.587L124.578 104.714L123.442 105.334L124.578 105.95L125.199 107.081Z" fill="black"/>
<path d="M130.128 107.081L130.752 105.95L131.888 105.334L130.752 104.714L130.128 103.587L129.507 104.714L128.367 105.334L129.507 105.95L130.128 107.081Z" fill="black"/>
<path d="M117.881 110.615L118.502 109.488L119.642 108.868L118.502 108.252L117.881 107.121L117.257 108.252L116.121 108.868L117.257 109.488L117.881 110.615Z" fill="black"/>
<path d="M122.733 110.615L123.354 109.488L124.493 108.868L123.354 108.252L122.733 107.121L122.108 108.252L120.973 108.868L122.108 109.488L122.733 110.615Z" fill="black"/>
<path d="M127.657 110.615L128.281 109.488L129.417 108.868L128.281 108.252L127.657 107.121L127.036 108.252L125.9 108.868L127.036 109.488L127.657 110.615Z" fill="black"/>
<path d="M120.348 114.149L120.973 113.022L122.109 112.402L120.973 111.786L120.348 110.655L119.728 111.786L118.592 112.402L119.728 113.022L120.348 114.149Z" fill="black"/>
<path d="M125.199 114.149L125.823 113.022L126.959 112.402L125.823 111.786L125.199 110.655L124.578 111.786L123.442 112.402L124.578 113.022L125.199 114.149Z" fill="black"/>
<path d="M130.128 114.149L130.752 113.022L131.888 112.402L130.752 111.786L130.128 110.655L129.507 111.786L128.367 112.402L129.507 113.022L130.128 114.149Z" fill="black"/>
<path d="M117.881 117.687L118.502 116.556L119.642 115.94L118.502 115.32L117.881 114.193L117.257 115.32L116.121 115.94L117.257 116.556L117.881 117.687Z" fill="black"/>
<path d="M122.733 117.687L123.354 116.556L124.493 115.94L123.354 115.32L122.733 114.193L122.108 115.32L120.973 115.94L122.108 116.556L122.733 117.687Z" fill="black"/>
<path d="M127.657 117.687L128.281 116.556L129.417 115.94L128.281 115.32L127.657 114.193L127.036 115.32L125.9 115.94L127.036 116.556L127.657 117.687Z" fill="black"/>
<path d="M120.348 121.375L120.973 120.244L122.109 119.628L120.973 119.008L120.348 117.881L119.728 119.008L118.592 119.628L119.728 120.244L120.348 121.375Z" fill="black"/>
<path d="M125.199 121.375L125.823 120.244L126.959 119.628L125.823 119.008L125.199 117.881L124.578 119.008L123.442 119.628L124.578 120.244L125.199 121.375Z" fill="black"/>
<path d="M130.128 121.375L130.752 120.244L131.888 119.628L130.752 119.008L130.128 117.881L129.507 119.008L128.367 119.628L129.507 120.244L130.128 121.375Z" fill="black"/>
<path d="M117.881 124.909L118.502 123.781L119.642 123.162L118.502 122.546L117.881 121.415L117.257 122.546L116.121 123.162L117.257 123.781L117.881 124.909Z" fill="black"/>
<path d="M122.733 124.909L123.354 123.781L124.493 123.162L123.354 122.546L122.733 121.415L122.108 122.546L120.973 123.162L122.108 123.781L122.733 124.909Z" fill="black"/>
<path d="M127.657 124.909L128.281 123.781L129.417 123.162L128.281 122.546L127.657 121.415L127.036 122.546L125.9 123.162L127.036 123.781L127.657 124.909Z" fill="black"/>
<path d="M120.348 128.443L120.973 127.316L122.109 126.696L120.973 126.08L120.348 124.949L119.728 126.08L118.592 126.696L119.728 127.316L120.348 128.443Z" fill="black"/>
<path d="M125.199 128.443L125.823 127.316L126.959 126.696L125.823 126.08L125.199 124.949L124.578 126.08L123.442 126.696L124.578 127.316L125.199 128.443Z" fill="black"/>
<path d="M130.128 128.443L130.752 127.316L131.888 126.696L130.752 126.08L130.128 124.949L129.507 126.08L128.367 126.696L129.507 127.316L130.128 128.443Z" fill="black"/>
<path d="M117.881 131.981L118.502 130.85L119.642 130.234L118.502 129.614L117.881 128.487L117.257 129.614L116.121 130.234L117.257 130.85L117.881 131.981Z" fill="black"/>
<path d="M122.733 131.981L123.354 130.85L124.493 130.234L123.354 129.614L122.733 128.487L122.108 129.614L120.973 130.234L122.108 130.85L122.733 131.981Z" fill="black"/>
<path d="M127.657 131.981L128.281 130.85L129.417 130.234L128.281 129.614L127.657 128.487L127.036 129.614L125.9 130.234L127.036 130.85L127.657 131.981Z" fill="black"/>
<path d="M120.348 78.3566L120.973 77.2295L122.109 76.6096L120.973 75.9938L120.348 74.8667L119.728 75.9938L118.592 76.6096L119.728 77.2295L120.348 78.3566Z" fill="black"/>
<path d="M117.881 81.8948L118.502 80.7637L119.642 80.1478L118.502 79.532L117.881 78.4009L117.257 79.532L116.121 80.1478L117.257 80.7637L117.881 81.8948Z" fill="black"/>
<path d="M122.733 81.8948L123.354 80.7637L124.493 80.1478L123.354 79.532L122.733 78.4009L122.108 79.532L120.973 80.1478L122.108 80.7637L122.733 81.8948Z" fill="black"/>
<path d="M120.348 85.429L120.973 84.3019L122.109 83.682L120.973 83.0662L120.348 81.9351L119.728 83.0662L118.592 83.682L119.728 84.3019L120.348 85.429Z" fill="black"/>
<path d="M125.199 85.429L125.823 84.3019L126.959 83.682L125.823 83.0662L125.199 81.9351L124.578 83.0662L123.442 83.682L124.578 84.3019L125.199 85.429Z" fill="black"/>
<path d="M130.128 85.429L130.752 84.3019L131.888 83.682L130.752 83.0662L130.128 81.9351L129.507 83.0662L128.367 83.682L129.507 84.3019L130.128 85.429Z" fill="black"/>
<path d="M117.881 88.9671L118.502 87.836L119.642 87.2201L118.502 86.6002L117.881 85.4731L117.257 86.6002L116.121 87.2201L117.257 87.836L117.881 88.9671Z" fill="black"/>
<path d="M122.733 88.9671L123.354 87.836L124.493 87.2201L123.354 86.6002L122.733 85.4731L122.108 86.6002L120.973 87.2201L122.108 87.836L122.733 88.9671Z" fill="black"/>
<path d="M127.657 88.9671L128.281 87.836L129.417 87.2201L128.281 86.6002L127.657 85.4731L127.036 86.6002L125.9 87.2201L127.036 87.836L127.657 88.9671Z" fill="black"/>
<path d="M120.348 92.6502L120.973 91.5231L122.109 90.9032L120.973 90.2873L120.348 89.1562L119.728 90.2873L118.592 90.9032L119.728 91.5231L120.348 92.6502Z" fill="black"/>
<path d="M125.199 92.6502L125.823 91.5231L126.959 90.9032L125.823 90.2873L125.199 89.1562L124.578 90.2873L123.442 90.9032L124.578 91.5231L125.199 92.6502Z" fill="black"/>
<path d="M130.128 92.6502L130.752 91.5231L131.888 90.9032L130.752 90.2873L130.128 89.1562L129.507 90.2873L128.367 90.9032L129.507 91.5231L130.128 92.6502Z" fill="black"/>
<path d="M117.881 96.1883L118.502 95.0572L119.642 94.4413L118.502 93.8214L117.881 92.6943L117.257 93.8214L116.121 94.4413L117.257 95.0572L117.881 96.1883Z" fill="black"/>
<path d="M122.733 96.1883L123.354 95.0572L124.493 94.4413L123.354 93.8214L122.733 92.6943L122.108 93.8214L120.973 94.4413L122.108 95.0572L122.733 96.1883Z" fill="black"/>
<path d="M127.657 96.1883L128.281 95.0572L129.417 94.4413L128.281 93.8214L127.657 92.6943L127.036 93.8214L125.9 94.4413L127.036 95.0572L127.657 96.1883Z" fill="black"/>
<path d="M120.348 99.7229L120.973 98.5918L122.109 97.976L120.973 97.3601L120.348 96.229L119.728 97.3601L118.592 97.976L119.728 98.5918L120.348 99.7229Z" fill="black"/>
<path d="M125.199 99.7229L125.823 98.5918L126.959 97.976L125.823 97.3601L125.199 96.229L124.578 97.3601L123.442 97.976L124.578 98.5918L125.199 99.7229Z" fill="black"/>
<path d="M130.128 99.7229L130.752 98.5918L131.888 97.976L130.752 97.3601L130.128 96.229L129.507 97.3601L128.367 97.976L129.507 98.5918L130.128 99.7229Z" fill="black"/>
<path d="M117.881 103.257L118.502 102.13L119.642 101.514L118.502 100.894L117.881 99.7671L117.257 100.894L116.121 101.514L117.257 102.13L117.881 103.257Z" fill="black"/>
<path d="M122.733 103.257L123.354 102.13L124.493 101.514L123.354 100.894L122.733 99.7671L122.108 100.894L120.973 101.514L122.108 102.13L122.733 103.257Z" fill="black"/>
<path d="M127.657 103.257L128.281 102.13L129.417 101.514L128.281 100.894L127.657 99.7671L127.036 100.894L125.9 101.514L127.036 102.13L127.657 103.257Z" fill="black"/>
<path d="M117.881 74.428L118.502 73.2969L119.642 72.681L118.502 72.0652L117.881 70.9341L117.257 72.0652L116.121 72.681L117.257 73.2969L117.881 74.428Z" fill="black"/>
<path d="M135.757 135.91L136.378 134.783L137.518 134.163L136.378 133.547L135.757 132.416L135.137 133.547L133.997 134.163L135.137 134.783L135.757 135.91Z" fill="black"/>
<path d="M140.608 135.91L141.229 134.783L142.368 134.163L141.229 133.547L140.608 132.416L139.987 133.547L138.848 134.163L139.987 134.783L140.608 135.91Z" fill="black"/>
<path d="M145.537 135.91L146.157 134.783L146.965 133.076L146.157 133.547L145.537 132.416L144.912 133.547L143.776 134.163L144.912 134.783L145.537 135.91Z" fill="black"/>
<path d="M133.287 139.448L133.911 138.317L135.047 137.701L133.911 137.081L133.287 135.954L132.666 137.081L131.526 137.701L132.666 138.317L133.287 139.448Z" fill="black"/>
<path d="M138.138 139.448L138.763 138.317L139.899 137.701L138.763 137.081L138.138 135.954L137.518 137.081L136.378 137.701L137.518 138.317L138.138 139.448Z" fill="black"/>
<path d="M142.871 138.679L143.687 138.317L144.433 136.691L143.687 137.081L143.066 135.954L142.445 137.081L141.306 137.701L142.445 138.317L142.871 138.679Z" fill="black"/>
<path d="M135.757 107.081L136.378 105.95L137.518 105.334L136.378 104.714L135.757 103.587L135.137 104.714L133.997 105.334L135.137 105.95L135.757 107.081Z" fill="black"/>
<path d="M140.608 107.081L141.229 105.95L142.368 105.334L141.229 104.714L140.608 103.587L139.987 104.714L138.848 105.334L139.987 105.95L140.608 107.081Z" fill="black"/>
<path d="M145.537 107.081L146.157 105.95L147.297 105.334L146.157 104.714L145.537 103.587L144.912 104.714L143.776 105.334L144.912 105.95L145.537 107.081Z" fill="black"/>
<path d="M133.287 110.615L133.911 109.488L135.047 108.868L133.911 108.252L133.287 107.121L132.666 108.252L131.526 108.868L132.666 109.488L133.287 110.615Z" fill="black"/>
<path d="M138.138 110.615L138.763 109.488L139.899 108.868L138.763 108.252L138.138 107.121L137.518 108.252L136.378 108.868L137.518 109.488L138.138 110.615Z" fill="black"/>
<path d="M143.066 110.615L143.687 109.488L144.826 108.868L143.687 108.252L143.066 107.121L142.445 108.252L141.306 108.868L142.445 109.488L143.066 110.615Z" fill="black"/>
<path d="M135.757 114.149L136.378 113.022L137.518 112.402L136.378 111.786L135.757 110.655L135.137 111.786L133.997 112.402L135.137 113.022L135.757 114.149Z" fill="black"/>
<path d="M140.608 114.149L141.229 113.022L142.368 112.402L141.229 111.786L140.608 110.655L139.987 111.786L138.848 112.402L139.987 113.022L140.608 114.149Z" fill="black"/>
<path d="M145.537 114.149L146.157 113.022L147.297 112.402L146.157 111.786L145.537 110.655L144.912 111.786L143.776 112.402L144.912 113.022L145.537 114.149Z" fill="black"/>
<path d="M133.287 117.687L133.911 116.556L135.047 115.94L133.911 115.32L133.287 114.193L132.666 115.32L131.526 115.94L132.666 116.556L133.287 117.687Z" fill="black"/>
<path d="M138.138 117.687L138.763 116.556L139.899 115.94L138.763 115.32L138.138 114.193L137.518 115.32L136.378 115.94L137.518 116.556L138.138 117.687Z" fill="black"/>
<path d="M143.066 117.687L143.687 116.556L144.826 115.94L143.687 115.32L143.066 114.193L142.445 115.32L141.306 115.94L142.445 116.556L143.066 117.687Z" fill="black"/>
<path d="M135.757 121.375L136.378 120.244L137.518 119.628L136.378 119.008L135.757 117.881L135.137 119.008L133.997 119.628L135.137 120.244L135.757 121.375Z" fill="black"/>
<path d="M140.608 121.375L141.229 120.244L142.368 119.628L141.229 119.008L140.608 117.881L139.987 119.008L138.848 119.628L139.987 120.244L140.608 121.375Z" fill="black"/>
<path d="M145.537 121.375L146.157 120.244L147.297 119.628L146.157 119.008L145.537 117.881L144.912 119.008L143.776 119.628L144.912 120.244L145.537 121.375Z" fill="black"/>
<path d="M133.287 124.908L133.911 123.781L135.047 123.162L133.911 122.546L133.287 121.415L132.666 122.546L131.526 123.162L132.666 123.781L133.287 124.908Z" fill="black"/>
<path d="M138.138 124.908L138.763 123.781L139.899 123.162L138.763 122.546L138.138 121.415L137.518 122.546L136.378 123.162L137.518 123.781L138.138 124.908Z" fill="black"/>
<path d="M143.066 124.908L143.687 123.781L144.826 123.162L143.687 122.546L143.066 121.415L142.445 122.546L141.306 123.162L142.445 123.781L143.066 124.908Z" fill="black"/>
<path d="M135.757 128.443L136.378 127.316L137.518 126.696L136.378 126.08L135.757 124.949L135.137 126.08L133.997 126.696L135.137 127.316L135.757 128.443Z" fill="black"/>
<path d="M140.608 128.443L141.229 127.316L142.368 126.696L141.229 126.08L140.608 124.949L139.987 126.08L138.848 126.696L139.987 127.316L140.608 128.443Z" fill="black"/>
<path d="M145.537 128.443L146.157 127.316L147.297 126.696L146.157 126.08L145.537 124.949L144.912 126.08L143.776 126.696L144.912 127.316L145.537 128.443Z" fill="black"/>
<path d="M133.287 131.981L133.911 130.85L135.047 130.234L133.911 129.614L133.287 128.487L132.666 129.614L131.526 130.234L132.666 130.85L133.287 131.981Z" fill="black"/>
<path d="M138.138 131.981L138.763 130.85L139.899 130.234L138.763 129.614L138.138 128.487L137.518 129.614L136.378 130.234L137.518 130.85L138.138 131.981Z" fill="black"/>
<path d="M143.066 131.981L143.687 130.85L144.826 130.234L143.687 129.614L143.066 128.487L142.445 129.614L141.306 130.234L142.445 130.85L143.066 131.981Z" fill="black"/>
<path d="M133.287 88.9671L133.911 87.836L135.047 87.2201L133.911 86.6002L133.287 85.4731L132.666 86.6002L131.526 87.2201L132.666 87.836L133.287 88.9671Z" fill="black"/>
<path d="M135.757 92.6502L136.378 91.5231L137.518 90.9032L136.378 90.2873L135.757 89.1562L135.137 90.2873L133.997 90.9032L135.137 91.5231L135.757 92.6502Z" fill="black"/>
<path d="M140.608 92.6502L141.229 91.5231L142.368 90.9032L141.229 90.2873L140.608 89.1562L139.987 90.2873L138.848 90.9032L139.987 91.5231L140.608 92.6502Z" fill="black"/>
<path d="M145.537 92.6502L146.157 91.5231L147.297 90.9032L146.157 90.2873L145.537 89.1562L144.912 90.2873L143.776 90.9032L144.912 91.5231L145.537 92.6502Z" fill="black"/>
<path d="M133.287 96.1883L133.911 95.0572L135.047 94.4413L133.911 93.8214L133.287 92.6943L132.666 93.8214L131.526 94.4413L132.666 95.0572L133.287 96.1883Z" fill="black"/>
<path d="M138.138 96.1883L138.763 95.0572L139.899 94.4413L138.763 93.8214L138.138 92.6943L137.518 93.8214L136.378 94.4413L137.518 95.0572L138.138 96.1883Z" fill="black"/>
<path d="M143.066 96.1883L143.687 95.0572L144.826 94.4413L143.687 93.8214L143.066 92.6943L142.445 93.8214L141.306 94.4413L142.445 95.0572L143.066 96.1883Z" fill="black"/>
<path d="M135.757 99.7224L136.378 98.5913L137.518 97.9755L136.378 97.3596L135.757 96.2285L135.137 97.3596L133.997 97.9755L135.137 98.5913L135.757 99.7224Z" fill="black"/>
<path d="M140.608 99.7224L141.229 98.5913L142.368 97.9755L141.229 97.3596L140.608 96.2285L139.987 97.3596L138.848 97.9755L139.987 98.5913L140.608 99.7224Z" fill="black"/>
<path d="M145.537 99.7224L146.157 98.5913L147.297 97.9755L146.157 97.3596L145.537 96.2285L144.912 97.3596L143.776 97.9755L144.912 98.5913L145.537 99.7224Z" fill="black"/>
<path d="M133.287 103.257L133.911 102.13L135.047 101.514L133.911 100.894L133.287 99.7671L132.666 100.894L131.526 101.514L132.666 102.13L133.287 103.257Z" fill="black"/>
<path d="M138.138 103.257L138.763 102.13L139.899 101.514L138.763 100.894L138.138 99.7671L137.518 100.894L136.378 101.514L137.518 102.13L138.138 103.257Z" fill="black"/>
<path d="M143.066 103.257L143.687 102.13L144.826 101.514L143.687 100.894L143.066 99.7671L142.445 100.894L141.306 101.514L142.445 102.13L143.066 103.257Z" fill="black"/>
<path d="M122.96 147.539L123.58 146.412L124.72 145.792L123.58 145.177L122.96 144.045L122.339 145.177L121.199 145.792L122.339 146.412L122.96 147.539Z" fill="black"/>
<path d="M127.81 147.539L128.431 146.412L129.571 145.792L128.431 145.177L127.81 144.045L127.19 145.177L126.05 145.792L127.19 146.412L127.81 147.539Z" fill="black"/>
<path d="M132.739 147.539L133.36 146.412L134.499 145.792L133.36 145.177L132.739 144.045L132.114 145.177L130.979 145.792L132.114 146.412L132.739 147.539Z" fill="black"/>
<path d="M120.489 151.077L121.114 149.946L122.249 149.33L121.114 148.711L120.489 147.583L119.868 148.711L118.729 149.33L119.868 149.946L120.489 151.077Z" fill="black"/>
<path d="M125.34 151.077L125.965 149.946L127.101 149.33L125.965 148.711L125.34 147.583L124.72 148.711L123.58 149.33L124.72 149.946L125.34 151.077Z" fill="black"/>
<path d="M130.268 149.741L130.889 149.946L132.029 148.763L130.889 148.711L130.268 147.583L129.648 148.711L128.508 149.33L129.648 149.946L130.268 149.741Z" fill="black"/>
<path d="M122.96 154.612L123.58 153.48L124.72 152.865L123.58 152.245L122.96 151.118L122.339 152.245L121.199 152.865L122.339 153.48L122.96 154.612Z" fill="black"/>
<path d="M120.489 143.611L121.114 142.48L122.249 141.864L121.114 141.244L120.489 140.117L119.868 141.244L118.729 141.864L119.868 142.48L120.489 143.611Z" fill="black"/>
<path d="M125.34 143.611L125.965 142.48L127.101 141.864L125.965 141.244L125.34 140.117L124.72 141.244L123.58 141.864L124.72 142.48L125.34 143.611Z" fill="black"/>
<path d="M130.268 143.611L130.889 142.48L132.029 141.864L130.889 141.244L130.268 140.117L129.648 141.244L128.508 141.864L129.648 142.48L130.268 143.611Z" fill="black"/>
<path d="M135.898 143.611L136.519 142.48L137.658 141.864L136.519 141.244L135.898 140.117L135.273 141.244L134.138 141.864L135.273 142.48L135.898 143.611Z" fill="black"/>
<path d="M144.129 98.4189C128.711 98.4189 117.499 84.9463 117.499 84.9463C117.499 84.9463 107.541 98.4189 90.8703 98.4189C90.8703 98.4189 85.7473 129.832 117.499 143.232C149.252 129.828 144.129 98.4189 144.129 98.4189Z" fill="#25AAE1" stroke="black" stroke-width="3" stroke-miterlimit="10" stroke-linecap="round" stroke-linejoin="round"/>
<path d="M107.902 115.2L113.703 121.641L128.751 106.989" stroke="black" stroke-width="3" stroke-miterlimit="10" stroke-linecap="round" stroke-linejoin="round"/>
</g>
<defs>
<clipPath id="clip0">
<rect width="80" height="66" fill="white" transform="translate(0 44.1367) rotate(-33.4843)"/>
</clipPath>
<clipPath id="clip1">
<rect width="131" height="130" fill="white" transform="translate(52 47)"/>
</clipPath>
</defs>
</svg>
